<svg xmlns="http://www.w3.org/2000/svg" width="840" height="196" viewBox="0 0 840 196" fill="none">
  <style>
    .label { font-family: -apple-system, BlinkMacSystemFont, 'Segoe UI', Helvetica, Arial, sans-serif; font-size: 10px; fill: #8b949e; }
    .title { font-family: -apple-system, BlinkMacSystemFont, 'Segoe UI', Helvetica, Arial, sans-serif; font-size: 11px; fill: #8b949e; font-weight: 600; }
    .total { font-family: -apple-system, BlinkMacSystemFont, 'Segoe UI', Helvetica, Arial, sans-serif; font-size: 11px; fill: #7ee787; font-weight: 600; }
    .grid { stroke: #21262d; stroke-width: 1; }
    .line { stroke: #7ee787; stroke-width: 2; stroke-linecap: round; stroke-linejoin: round; fill: none; }
    .dot { fill: #7ee787; }
    .area { fill: url(#areaGrad); }
    /* Hover interaction */
    .hoverpoint .guide { stroke: #7ee787; stroke-width: 1; stroke-dasharray: 2,2; opacity: 0; }
    .hoverpoint .hover-dot { fill: #7ee787; opacity: 0; }
    .hoverpoint .hit { fill: transparent; cursor: pointer; }
    .hoverpoint .tooltip-bg { fill: #161b22; stroke: #30363d; stroke-width: 1; opacity: 0; }
    .hoverpoint .tooltip-text { font-family: -apple-system, BlinkMacSystemFont, 'Segoe UI', Helvetica, Arial, sans-serif; font-size: 9px; fill: #c9d1d9; opacity: 0; }
    .hoverpoint:hover .guide { opacity: 0.5; }
    .hoverpoint:hover .hover-dot { opacity: 1; }
    .hoverpoint:hover .tooltip-bg { opacity: 0.95; }
    .hoverpoint:hover .tooltip-text { opacity: 1; }
  </style>
  <defs>
    <linearGradient id="areaGrad" x1="0" y1="0" x2="0" y2="1">
      <stop offset="0%" stop-color="#7ee787" stop-opacity="0.15"/>
      <stop offset="100%" stop-color="#7ee787" stop-opacity="0.01"/>
    </linearGradient>
  </defs>

  <text x="60" y="18" class="title">Cumulative Commits</text>

  <line x1="60" y1="160.0" x2="820" y2="160.0" class="grid"/>
  <text x="50" y="163.0" class="label" text-anchor="end">0</text>
  <line x1="60" y1="127.5" x2="820" y2="127.5" class="grid" stroke-dasharray="3,3"/>
  <text x="50" y="130.5" class="label" text-anchor="end">500</text>
  <line x1="60" y1="95.0" x2="820" y2="95.0" class="grid" stroke-dasharray="3,3"/>
  <text x="50" y="98.0" class="label" text-anchor="end">1,000</text>
  <line x1="60" y1="62.5" x2="820" y2="62.5" class="grid" stroke-dasharray="3,3"/>
  <text x="50" y="65.5" class="label" text-anchor="end">1,500</text>
  <line x1="60" y1="30.0" x2="820" y2="30.0" class="grid" stroke-dasharray="3,3"/>
  <text x="50" y="33.0" class="label" text-anchor="end">2,000</text>

  <text x="70.0" y="186" class="label" text-anchor="middle">2021</text>
  <text x="201.6" y="186" class="label" text-anchor="middle">2022</text>
  <text x="343.2" y="186" class="label" text-anchor="middle">2023</text>
  <text x="484.8" y="186" class="label" text-anchor="middle">2024</text>
  <text x="626.8" y="186" class="label" text-anchor="middle">2025</text>
  <text x="768.4" y="186" class="label" text-anchor="middle">2026</text>


  <path class="area" d="M60.0,160.0 L60.0,160.0 60.0,160.0 L181.4,159.7 L181.8,159.6 L183.0,159.5 L201.6,159.4 L202.0,159.0 L202.4,158.9 L202.8,158.6 L203.2,158.6 L203.5,158.4 L204.3,158.1 L204.7,157.9 L205.1,157.8 L205.5,157.7 L207.0,157.5 L207.4,157.5 L207.8,157.4 L211.7,157.3 L221.8,157.1 L274.9,157.1 L275.3,156.5 L276.9,156.4 L277.6,155.9 L283.5,155.8 L284.2,155.6 L284.6,155.4 L285.0,155.3 L285.8,155.1 L286.2,154.7 L286.6,154.0 L287.0,153.9 L288.5,153.6 L289.3,153.6 L291.2,153.4 L296.7,153.2 L307.1,153.0 L312.9,152.9 L315.7,152.8 L316.0,152.7 L316.4,152.5 L316.8,152.3 L318.0,151.8 L318.4,151.7 L318.8,151.7 L320.3,151.4 L320.7,151.1 L321.1,151.0 L321.5,150.4 L321.9,149.9 L322.3,149.7 L322.6,149.5 L323.4,149.4 L325.0,149.3 L329.2,149.1 L340.5,149.0 L340.9,148.7 L341.3,148.6 L345.1,148.0 L345.5,146.5 L346.7,146.3 L347.1,146.3 L349.0,146.1 L362.2,145.8 L362.6,145.7 L363.0,145.6 L363.8,145.4 L366.5,145.2 L367.3,144.9 L367.6,144.7 L369.6,144.6 L378.9,144.4 L569.8,144.3 L570.5,144.2 L571.3,144.1 L572.1,144.0 L572.5,143.9 L572.9,143.8 L573.3,143.8 L573.6,143.7 L577.5,143.6 L588.4,143.6 L591.5,143.5 L592.7,143.4 L595.0,143.4 L597.3,143.3 L597.7,143.2 L599.3,143.2 L600.4,143.1 L601.2,143.0 L629.9,143.0 L630.3,142.8 L631.1,142.8 L631.5,142.7 L632.6,142.5 L634.6,142.4 L640.0,142.3 L651.2,141.7 L651.6,141.5 L656.7,141.3 L657.1,141.2 L658.2,141.1 L659.8,140.9 L661.7,140.2 L662.1,138.4 L662.5,138.3 L664.8,138.2 L666.0,138.1 L666.4,138.0 L667.1,137.8 L670.3,137.7 L673.0,137.2 L674.9,136.7 L675.3,136.5 L676.5,136.2 L676.8,135.4 L677.2,135.2 L677.6,134.9 L678.0,134.7 L678.4,134.4 L679.2,133.9 L680.3,133.5 L694.3,133.3 L695.1,132.4 L703.6,132.2 L708.7,131.9 L711.0,131.9 L711.4,131.8 L713.7,131.7 L714.1,131.7 L714.5,131.6 L714.9,131.4 L715.3,131.1 L715.6,130.5 L716.0,130.4 L718.4,129.4 L718.7,129.3 L719.5,129.1 L722.2,128.8 L723.0,128.7 L723.4,128.5 L724.2,128.5 L724.6,128.0 L725.0,127.9 L725.7,127.8 L726.1,127.6 L726.5,127.6 L726.9,127.5 L728.4,127.1 L728.8,127.0 L729.2,126.8 L729.6,126.7 L730.0,126.6 L730.4,126.4 L731.5,126.1 L731.9,125.9 L732.3,125.8 L732.7,125.6 L733.1,125.2 L733.9,125.1 L734.3,124.4 L734.7,124.1 L735.0,122.8 L735.4,122.5 L735.8,122.2 L736.2,121.5 L736.6,121.4 L737.0,121.2 L737.4,121.1 L737.8,120.7 L739.7,120.0 L740.1,119.8 L740.5,119.2 L740.9,118.1 L741.2,118.0 L742.0,117.9 L742.4,116.9 L742.8,116.4 L743.2,116.3 L743.6,115.3 L744.3,115.0 L744.7,114.9 L745.1,114.8 L745.5,114.7 L745.9,114.6 L746.3,114.6 L747.8,114.4 L748.6,114.3 L749.0,113.8 L749.4,113.5 L750.6,113.5 L752.5,113.3 L754.8,113.1 L755.2,112.9 L755.6,112.9 L756.0,112.5 L756.4,111.6 L756.8,111.5 L757.2,111.4 L757.5,111.3 L757.9,111.1 L758.3,110.6 L762.6,110.5 L763.0,110.4 L766.5,109.9 L767.2,109.5 L767.6,109.4 L768.0,109.1 L768.4,109.0 L769.6,108.8 L770.0,107.9 L770.3,105.5 L770.7,103.5 L771.1,103.4 L771.5,103.1 L772.3,102.8 L772.7,102.5 L773.1,102.1 L773.8,102.0 L774.2,101.4 L774.6,101.3 L775.4,100.4 L775.8,100.3 L776.2,99.8 L776.5,99.5 L776.9,99.1 L777.3,99.0 L778.5,98.4 L778.9,98.1 L779.3,96.6 L779.7,94.4 L780.0,93.6 L780.4,92.6 L780.8,92.5 L781.2,92.1 L781.6,91.9 L782.0,91.4 L782.4,90.6 L782.8,90.6 L783.1,90.1 L783.5,90.0 L783.9,89.5 L784.3,89.0 L784.7,88.4 L785.1,87.8 L785.5,87.7 L785.9,87.5 L786.2,86.4 L786.6,84.4 L787.0,84.1 L787.8,83.7 L788.2,83.5 L788.6,83.4 L789.0,80.2 L789.4,78.8 L789.7,77.3 L790.1,76.8 L790.5,74.4 L790.9,74.1 L791.3,74.0 L791.7,73.5 L792.1,72.4 L792.5,70.4 L792.8,68.2 L793.2,68.1 L793.6,67.6 L794.4,67.5 L794.8,66.2 L795.2,65.2 L795.6,63.8 L795.9,63.6 L796.3,63.5 L796.7,61.4 L797.1,58.9 L797.5,57.8 L797.9,57.3 L798.3,56.6 L798.7,56.1 L799.1,56.0 L799.8,55.7 L800.2,55.3 L800.6,55.2 L801.0,55.1 L801.4,55.0 L802.5,55.0 L802.9,54.9 L803.7,54.8 L804.5,54.7 L804.9,54.6 L805.6,53.7 L806.0,53.1 L806.4,52.9 L808.7,52.8 L809.1,52.3 L809.5,52.2 L809.9,51.6 L810.3,51.6 L810.7,51.4 L811.1,51.3 L811.5,50.3 L811.9,49.4 L812.2,49.0 L812.6,47.0 L813.0,46.8 L813.8,46.7 L814.2,46.6 L815.3,46.4 L815.7,45.7 L816.1,45.5 L816.5,45.3 L816.9,43.8 L817.3,39.8 L817.7,38.2 L818.1,37.8 L818.4,37.3 L818.8,36.6 L819.2,36.5 L819.6,36.2 L820.0,36.1 L820.0,160.0 Z"/>
  <polyline class="line" points="60.0,160.0 181.4,159.7 181.8,159.6 183.0,159.5 201.6,159.4 202.0,159.0 202.4,158.9 202.8,158.6 203.2,158.6 203.5,158.4 204.3,158.1 204.7,157.9 205.1,157.8 205.5,157.7 207.0,157.5 207.4,157.5 207.8,157.4 211.7,157.3 221.8,157.1 274.9,157.1 275.3,156.5 276.9,156.4 277.6,155.9 283.5,155.8 284.2,155.6 284.6,155.4 285.0,155.3 285.8,155.1 286.2,154.7 286.6,154.0 287.0,153.9 288.5,153.6 289.3,153.6 291.2,153.4 296.7,153.2 307.1,153.0 312.9,152.9 315.7,152.8 316.0,152.7 316.4,152.5 316.8,152.3 318.0,151.8 318.4,151.7 318.8,151.7 320.3,151.4 320.7,151.1 321.1,151.0 321.5,150.4 321.9,149.9 322.3,149.7 322.6,149.5 323.4,149.4 325.0,149.3 329.2,149.1 340.5,149.0 340.9,148.7 341.3,148.6 345.1,148.0 345.5,146.5 346.7,146.3 347.1,146.3 349.0,146.1 362.2,145.8 362.6,145.7 363.0,145.6 363.8,145.4 366.5,145.2 367.3,144.9 367.6,144.7 369.6,144.6 378.9,144.4 569.8,144.3 570.5,144.2 571.3,144.1 572.1,144.0 572.5,143.9 572.9,143.8 573.3,143.8 573.6,143.7 577.5,143.6 588.4,143.6 591.5,143.5 592.7,143.4 595.0,143.4 597.3,143.3 597.7,143.2 599.3,143.2 600.4,143.1 601.2,143.0 629.9,143.0 630.3,142.8 631.1,142.8 631.5,142.7 632.6,142.5 634.6,142.4 640.0,142.3 651.2,141.7 651.6,141.5 656.7,141.3 657.1,141.2 658.2,141.1 659.8,140.9 661.7,140.2 662.1,138.4 662.5,138.3 664.8,138.2 666.0,138.1 666.4,138.0 667.1,137.8 670.3,137.7 673.0,137.2 674.9,136.7 675.3,136.5 676.5,136.2 676.8,135.4 677.2,135.2 677.6,134.9 678.0,134.7 678.4,134.4 679.2,133.9 680.3,133.5 694.3,133.3 695.1,132.4 703.6,132.2 708.7,131.9 711.0,131.9 711.4,131.8 713.7,131.7 714.1,131.7 714.5,131.6 714.9,131.4 715.3,131.1 715.6,130.5 716.0,130.4 718.4,129.4 718.7,129.3 719.5,129.1 722.2,128.8 723.0,128.7 723.4,128.5 724.2,128.5 724.6,128.0 725.0,127.9 725.7,127.8 726.1,127.6 726.5,127.6 726.9,127.5 728.4,127.1 728.8,127.0 729.2,126.8 729.6,126.7 730.0,126.6 730.4,126.4 731.5,126.1 731.9,125.9 732.3,125.8 732.7,125.6 733.1,125.2 733.9,125.1 734.3,124.4 734.7,124.1 735.0,122.8 735.4,122.5 735.8,122.2 736.2,121.5 736.6,121.4 737.0,121.2 737.4,121.1 737.8,120.7 739.7,120.0 740.1,119.8 740.5,119.2 740.9,118.1 741.2,118.0 742.0,117.9 742.4,116.9 742.8,116.4 743.2,116.3 743.6,115.3 744.3,115.0 744.7,114.9 745.1,114.8 745.5,114.7 745.9,114.6 746.3,114.6 747.8,114.4 748.6,114.3 749.0,113.8 749.4,113.5 750.6,113.5 752.5,113.3 754.8,113.1 755.2,112.9 755.6,112.9 756.0,112.5 756.4,111.6 756.8,111.5 757.2,111.4 757.5,111.3 757.9,111.1 758.3,110.6 762.6,110.5 763.0,110.4 766.5,109.9 767.2,109.5 767.6,109.4 768.0,109.1 768.4,109.0 769.6,108.8 770.0,107.9 770.3,105.5 770.7,103.5 771.1,103.4 771.5,103.1 772.3,102.8 772.7,102.5 773.1,102.1 773.8,102.0 774.2,101.4 774.6,101.3 775.4,100.4 775.8,100.3 776.2,99.8 776.5,99.5 776.9,99.1 777.3,99.0 778.5,98.4 778.9,98.1 779.3,96.6 779.7,94.4 780.0,93.6 780.4,92.6 780.8,92.5 781.2,92.1 781.6,91.9 782.0,91.4 782.4,90.6 782.8,90.6 783.1,90.1 783.5,90.0 783.9,89.5 784.3,89.0 784.7,88.4 785.1,87.8 785.5,87.7 785.9,87.5 786.2,86.4 786.6,84.4 787.0,84.1 787.8,83.7 788.2,83.5 788.6,83.4 789.0,80.2 789.4,78.8 789.7,77.3 790.1,76.8 790.5,74.4 790.9,74.1 791.3,74.0 791.7,73.5 792.1,72.4 792.5,70.4 792.8,68.2 793.2,68.1 793.6,67.6 794.4,67.5 794.8,66.2 795.2,65.2 795.6,63.8 795.9,63.6 796.3,63.5 796.7,61.4 797.1,58.9 797.5,57.8 797.9,57.3 798.3,56.6 798.7,56.1 799.1,56.0 799.8,55.7 800.2,55.3 800.6,55.2 801.0,55.1 801.4,55.0 802.5,55.0 802.9,54.9 803.7,54.8 804.5,54.7 804.9,54.6 805.6,53.7 806.0,53.1 806.4,52.9 808.7,52.8 809.1,52.3 809.5,52.2 809.9,51.6 810.3,51.6 810.7,51.4 811.1,51.3 811.5,50.3 811.9,49.4 812.2,49.0 812.6,47.0 813.0,46.8 813.8,46.7 814.2,46.6 815.3,46.4 815.7,45.7 816.1,45.5 816.5,45.3 816.9,43.8 817.3,39.8 817.7,38.2 818.1,37.8 818.4,37.3 818.8,36.6 819.2,36.5 819.6,36.2 820.0,36.1"/>

  <g class="hoverpoint">
    <line x1="183.0" y1="30" x2="183.0" y2="160.0" class="guide"/>
    <circle cx="183.0" cy="159.5" r="16" class="hit"/>
    <circle cx="183.0" cy="159.5" r="4" class="hover-dot"><title>Nov 2021: 7 total (+7 this month)</title></circle>
    <rect x="113.0" y="133.5" width="140" height="20" rx="4" class="tooltip-bg"/>
    <text x="183.0" y="147.5" class="tooltip-text" text-anchor="middle">Nov 2021: 7 total (+7 this month)</text>
  </g>
  <g class="hoverpoint">
    <line x1="211.7" y1="30" x2="211.7" y2="160.0" class="guide"/>
    <circle cx="211.7" cy="157.3" r="16" class="hit"/>
    <circle cx="211.7" cy="157.3" r="4" class="hover-dot"><title>Jan 2022: 41 total (+34 this month)</title></circle>
    <rect x="141.7" y="131.3" width="140" height="20" rx="4" class="tooltip-bg"/>
    <text x="211.7" y="145.3" class="tooltip-text" text-anchor="middle">Jan 2022: 41 total (+34 this month)</text>
  </g>
  <g class="hoverpoint">
    <line x1="221.8" y1="30" x2="221.8" y2="160.0" class="guide"/>
    <circle cx="221.8" cy="157.1" r="16" class="hit"/>
    <circle cx="221.8" cy="157.1" r="4" class="hover-dot"><title>Feb 2022: 44 total (+3 this month)</title></circle>
    <rect x="151.8" y="131.1" width="140" height="20" rx="4" class="tooltip-bg"/>
    <text x="221.8" y="145.1" class="tooltip-text" text-anchor="middle">Feb 2022: 44 total (+3 this month)</text>
  </g>
  <g class="hoverpoint">
    <line x1="283.5" y1="30" x2="283.5" y2="160.0" class="guide"/>
    <circle cx="283.5" cy="155.8" r="16" class="hit"/>
    <circle cx="283.5" cy="155.8" r="4" class="hover-dot"><title>Jul 2022: 65 total (+21 this month)</title></circle>
    <rect x="213.5" y="129.8" width="140" height="20" rx="4" class="tooltip-bg"/>
    <text x="283.5" y="143.8" class="tooltip-text" text-anchor="middle">Jul 2022: 65 total (+21 this month)</text>
  </g>
  <g class="hoverpoint">
    <line x1="291.2" y1="30" x2="291.2" y2="160.0" class="guide"/>
    <circle cx="291.2" cy="153.4" r="16" class="hit"/>
    <circle cx="291.2" cy="153.4" r="4" class="hover-dot"><title>Aug 2022: 101 total (+36 this month)</title></circle>
    <rect x="221.2" y="127.4" width="140" height="20" rx="4" class="tooltip-bg"/>
    <text x="291.2" y="141.4" class="tooltip-text" text-anchor="middle">Aug 2022: 101 total (+36 this month)</text>
  </g>
  <g class="hoverpoint">
    <line x1="307.1" y1="30" x2="307.1" y2="160.0" class="guide"/>
    <circle cx="307.1" cy="153.0" r="16" class="hit"/>
    <circle cx="307.1" cy="153.0" r="4" class="hover-dot"><title>Sep 2022: 108 total (+7 this month)</title></circle>
    <rect x="237.1" y="127.0" width="140" height="20" rx="4" class="tooltip-bg"/>
    <text x="307.1" y="141.0" class="tooltip-text" text-anchor="middle">Sep 2022: 108 total (+7 this month)</text>
  </g>
  <g class="hoverpoint">
    <line x1="318.8" y1="30" x2="318.8" y2="160.0" class="guide"/>
    <circle cx="318.8" cy="151.7" r="16" class="hit"/>
    <circle cx="318.8" cy="151.7" r="4" class="hover-dot"><title>Oct 2022: 128 total (+20 this month)</title></circle>
    <rect x="248.8" y="125.7" width="140" height="20" rx="4" class="tooltip-bg"/>
    <text x="318.8" y="139.7" class="tooltip-text" text-anchor="middle">Oct 2022: 128 total (+20 this month)</text>
  </g>
  <g class="hoverpoint">
    <line x1="329.2" y1="30" x2="329.2" y2="160.0" class="guide"/>
    <circle cx="329.2" cy="149.1" r="16" class="hit"/>
    <circle cx="329.2" cy="149.1" r="4" class="hover-dot"><title>Nov 2022: 168 total (+40 this month)</title></circle>
    <rect x="259.2" y="123.1" width="140" height="20" rx="4" class="tooltip-bg"/>
    <text x="329.2" y="137.1" class="tooltip-text" text-anchor="middle">Nov 2022: 168 total (+40 this month)</text>
  </g>
  <g class="hoverpoint">
    <line x1="341.3" y1="30" x2="341.3" y2="160.0" class="guide"/>
    <circle cx="341.3" cy="148.6" r="16" class="hit"/>
    <circle cx="341.3" cy="148.6" r="4" class="hover-dot"><title>Dec 2022: 175 total (+7 this month)</title></circle>
    <rect x="271.3" y="122.6" width="140" height="20" rx="4" class="tooltip-bg"/>
    <text x="341.3" y="136.6" class="tooltip-text" text-anchor="middle">Dec 2022: 175 total (+7 this month)</text>
  </g>
  <g class="hoverpoint">
    <line x1="349.0" y1="30" x2="349.0" y2="160.0" class="guide"/>
    <circle cx="349.0" cy="146.1" r="16" class="hit"/>
    <circle cx="349.0" cy="146.1" r="4" class="hover-dot"><title>Jan 2023: 214 total (+39 this month)</title></circle>
    <rect x="279.0" y="120.1" width="140" height="20" rx="4" class="tooltip-bg"/>
    <text x="349.0" y="134.1" class="tooltip-text" text-anchor="middle">Jan 2023: 214 total (+39 this month)</text>
  </g>
  <g class="hoverpoint">
    <line x1="363.8" y1="30" x2="363.8" y2="160.0" class="guide"/>
    <circle cx="363.8" cy="145.4" r="16" class="hit"/>
    <circle cx="363.8" cy="145.4" r="4" class="hover-dot"><title>Feb 2023: 225 total (+11 this month)</title></circle>
    <rect x="293.8" y="119.4" width="140" height="20" rx="4" class="tooltip-bg"/>
    <text x="363.8" y="133.4" class="tooltip-text" text-anchor="middle">Feb 2023: 225 total (+11 this month)</text>
  </g>
  <g class="hoverpoint">
    <line x1="369.6" y1="30" x2="369.6" y2="160.0" class="guide"/>
    <circle cx="369.6" cy="144.6" r="16" class="hit"/>
    <circle cx="369.6" cy="144.6" r="4" class="hover-dot"><title>Mar 2023: 237 total (+12 this month)</title></circle>
    <rect x="299.6" y="118.6" width="140" height="20" rx="4" class="tooltip-bg"/>
    <text x="369.6" y="132.6" class="tooltip-text" text-anchor="middle">Mar 2023: 237 total (+12 this month)</text>
  </g>
  <g class="hoverpoint">
    <line x1="378.9" y1="30" x2="378.9" y2="160.0" class="guide"/>
    <circle cx="378.9" cy="144.4" r="16" class="hit"/>
    <circle cx="378.9" cy="144.4" r="4" class="hover-dot"><title>Apr 2023: 240 total (+3 this month)</title></circle>
    <rect x="308.9" y="118.4" width="140" height="20" rx="4" class="tooltip-bg"/>
    <text x="378.9" y="132.4" class="tooltip-text" text-anchor="middle">Apr 2023: 240 total (+3 this month)</text>
  </g>
  <g class="hoverpoint">
    <line x1="577.5" y1="30" x2="577.5" y2="160.0" class="guide"/>
    <circle cx="577.5" cy="143.6" r="16" class="hit"/>
    <circle cx="577.5" cy="143.6" r="4" class="hover-dot"><title>Aug 2024: 252 total (+12 this month)</title></circle>
    <rect x="507.5" y="117.6" width="140" height="20" rx="4" class="tooltip-bg"/>
    <text x="577.5" y="131.6" class="tooltip-text" text-anchor="middle">Aug 2024: 252 total (+12 this month)</text>
  </g>
  <g class="hoverpoint">
    <line x1="588.4" y1="30" x2="588.4" y2="160.0" class="guide"/>
    <circle cx="588.4" cy="143.6" r="16" class="hit"/>
    <circle cx="588.4" cy="143.6" r="4" class="hover-dot"><title>Sep 2024: 253 total (+1 this month)</title></circle>
    <rect x="518.4" y="117.6" width="140" height="20" rx="4" class="tooltip-bg"/>
    <text x="588.4" y="131.6" class="tooltip-text" text-anchor="middle">Sep 2024: 253 total (+1 this month)</text>
  </g>
  <g class="hoverpoint">
    <line x1="601.2" y1="30" x2="601.2" y2="160.0" class="guide"/>
    <circle cx="601.2" cy="143.0" r="16" class="hit"/>
    <circle cx="601.2" cy="143.0" r="4" class="hover-dot"><title>Oct 2024: 261 total (+8 this month)</title></circle>
    <rect x="531.2" y="117.0" width="140" height="20" rx="4" class="tooltip-bg"/>
    <text x="601.2" y="131.0" class="tooltip-text" text-anchor="middle">Oct 2024: 261 total (+8 this month)</text>
  </g>
  <g class="hoverpoint">
    <line x1="634.6" y1="30" x2="634.6" y2="160.0" class="guide"/>
    <circle cx="634.6" cy="142.4" r="16" class="hit"/>
    <circle cx="634.6" cy="142.4" r="4" class="hover-dot"><title>Jan 2025: 270 total (+9 this month)</title></circle>
    <rect x="564.6" y="116.4" width="140" height="20" rx="4" class="tooltip-bg"/>
    <text x="634.6" y="130.4" class="tooltip-text" text-anchor="middle">Jan 2025: 270 total (+9 this month)</text>
  </g>
  <g class="hoverpoint">
    <line x1="640.0" y1="30" x2="640.0" y2="160.0" class="guide"/>
    <circle cx="640.0" cy="142.3" r="16" class="hit"/>
    <circle cx="640.0" cy="142.3" r="4" class="hover-dot"><title>Feb 2025: 272 total (+2 this month)</title></circle>
    <rect x="570.0" y="116.3" width="140" height="20" rx="4" class="tooltip-bg"/>
    <text x="640.0" y="130.3" class="tooltip-text" text-anchor="middle">Feb 2025: 272 total (+2 this month)</text>
  </g>
  <g class="hoverpoint">
    <line x1="659.8" y1="30" x2="659.8" y2="160.0" class="guide"/>
    <circle cx="659.8" cy="140.9" r="16" class="hit"/>
    <circle cx="659.8" cy="140.9" r="4" class="hover-dot"><title>Mar 2025: 294 total (+22 this month)</title></circle>
    <rect x="589.8" y="114.9" width="140" height="20" rx="4" class="tooltip-bg"/>
    <text x="659.8" y="128.9" class="tooltip-text" text-anchor="middle">Mar 2025: 294 total (+22 this month)</text>
  </g>
  <g class="hoverpoint">
    <line x1="673.0" y1="30" x2="673.0" y2="160.0" class="guide"/>
    <circle cx="673.0" cy="137.2" r="16" class="hit"/>
    <circle cx="673.0" cy="137.2" r="4" class="hover-dot"><title>Apr 2025: 351 total (+57 this month)</title></circle>
    <rect x="603.0" y="111.2" width="140" height="20" rx="4" class="tooltip-bg"/>
    <text x="673.0" y="125.2" class="tooltip-text" text-anchor="middle">Apr 2025: 351 total (+57 this month)</text>
  </g>
  <g class="hoverpoint">
    <line x1="680.3" y1="30" x2="680.3" y2="160.0" class="guide"/>
    <circle cx="680.3" cy="133.5" r="16" class="hit"/>
    <circle cx="680.3" cy="133.5" r="4" class="hover-dot"><title>May 2025: 408 total (+57 this month)</title></circle>
    <rect x="610.3" y="107.5" width="140" height="20" rx="4" class="tooltip-bg"/>
    <text x="680.3" y="121.5" class="tooltip-text" text-anchor="middle">May 2025: 408 total (+57 this month)</text>
  </g>
  <g class="hoverpoint">
    <line x1="695.1" y1="30" x2="695.1" y2="160.0" class="guide"/>
    <circle cx="695.1" cy="132.4" r="16" class="hit"/>
    <circle cx="695.1" cy="132.4" r="4" class="hover-dot"><title>Jun 2025: 424 total (+16 this month)</title></circle>
    <rect x="625.1" y="106.4" width="140" height="20" rx="4" class="tooltip-bg"/>
    <text x="695.1" y="120.4" class="tooltip-text" text-anchor="middle">Jun 2025: 424 total (+16 this month)</text>
  </g>
  <g class="hoverpoint">
    <line x1="708.7" y1="30" x2="708.7" y2="160.0" class="guide"/>
    <circle cx="708.7" cy="131.9" r="16" class="hit"/>
    <circle cx="708.7" cy="131.9" r="4" class="hover-dot"><title>Jul 2025: 432 total (+8 this month)</title></circle>
    <rect x="638.7" y="105.9" width="140" height="20" rx="4" class="tooltip-bg"/>
    <text x="708.7" y="119.9" class="tooltip-text" text-anchor="middle">Jul 2025: 432 total (+8 this month)</text>
  </g>
  <g class="hoverpoint">
    <line x1="719.5" y1="30" x2="719.5" y2="160.0" class="guide"/>
    <circle cx="719.5" cy="129.1" r="16" class="hit"/>
    <circle cx="719.5" cy="129.1" r="4" class="hover-dot"><title>Aug 2025: 475 total (+43 this month)</title></circle>
    <rect x="649.5" y="103.1" width="140" height="20" rx="4" class="tooltip-bg"/>
    <text x="719.5" y="117.1" class="tooltip-text" text-anchor="middle">Aug 2025: 475 total (+43 this month)</text>
  </g>
  <g class="hoverpoint">
    <line x1="732.3" y1="30" x2="732.3" y2="160.0" class="guide"/>
    <circle cx="732.3" cy="125.8" r="16" class="hit"/>
    <circle cx="732.3" cy="125.8" r="4" class="hover-dot"><title>Sep 2025: 526 total (+51 this month)</title></circle>
    <rect x="662.3" y="99.8" width="140" height="20" rx="4" class="tooltip-bg"/>
    <text x="732.3" y="113.8" class="tooltip-text" text-anchor="middle">Sep 2025: 526 total (+51 this month)</text>
  </g>
  <g class="hoverpoint">
    <line x1="744.3" y1="30" x2="744.3" y2="160.0" class="guide"/>
    <circle cx="744.3" cy="115.0" r="16" class="hit"/>
    <circle cx="744.3" cy="115.0" r="4" class="hover-dot"><title>Oct 2025: 692 total (+166 this month)</title></circle>
    <rect x="674.3" y="89.0" width="140" height="20" rx="4" class="tooltip-bg"/>
    <text x="744.3" y="103.0" class="tooltip-text" text-anchor="middle">Oct 2025: 692 total (+166 this month)</text>
  </g>
  <g class="hoverpoint">
    <line x1="756.0" y1="30" x2="756.0" y2="160.0" class="guide"/>
    <circle cx="756.0" cy="112.5" r="16" class="hit"/>
    <circle cx="756.0" cy="112.5" r="4" class="hover-dot"><title>Nov 2025: 731 total (+39 this month)</title></circle>
    <rect x="686.0" y="86.5" width="140" height="20" rx="4" class="tooltip-bg"/>
    <text x="756.0" y="100.5" class="tooltip-text" text-anchor="middle">Nov 2025: 731 total (+39 this month)</text>
  </g>
  <g class="hoverpoint">
    <line x1="768.0" y1="30" x2="768.0" y2="160.0" class="guide"/>
    <circle cx="768.0" cy="109.1" r="16" class="hit"/>
    <circle cx="768.0" cy="109.1" r="4" class="hover-dot"><title>Dec 2025: 783 total (+52 this month)</title></circle>
    <rect x="698.0" y="83.1" width="140" height="20" rx="4" class="tooltip-bg"/>
    <text x="768.0" y="97.1" class="tooltip-text" text-anchor="middle">Dec 2025: 783 total (+52 this month)</text>
  </g>
  <g class="hoverpoint">
    <line x1="780.0" y1="30" x2="780.0" y2="160.0" class="guide"/>
    <circle cx="780.0" cy="93.6" r="16" class="hit"/>
    <circle cx="780.0" cy="93.6" r="4" class="hover-dot"><title>Jan 2026: 1,022 total (+239 this month)</title></circle>
    <rect x="710.0" y="67.6" width="140" height="20" rx="4" class="tooltip-bg"/>
    <text x="780.0" y="81.6" class="tooltip-text" text-anchor="middle">Jan 2026: 1,022 total (+239 this month)</text>
  </g>
  <g class="hoverpoint">
    <line x1="790.9" y1="30" x2="790.9" y2="160.0" class="guide"/>
    <circle cx="790.9" cy="74.1" r="16" class="hit"/>
    <circle cx="790.9" cy="74.1" r="4" class="hover-dot"><title>Feb 2026: 1,321 total (+299 this month)</title></circle>
    <rect x="720.9" y="48.1" width="140" height="20" rx="4" class="tooltip-bg"/>
    <text x="790.9" y="62.1" class="tooltip-text" text-anchor="middle">Feb 2026: 1,321 total (+299 this month)</text>
  </g>
  <g class="hoverpoint">
    <line x1="802.9" y1="30" x2="802.9" y2="160.0" class="guide"/>
    <circle cx="802.9" cy="54.9" r="16" class="hit"/>
    <circle cx="802.9" cy="54.9" r="4" class="hover-dot"><title>Mar 2026: 1,617 total (+296 this month)</title></circle>
    <rect x="732.9" y="28.9" width="140" height="20" rx="4" class="tooltip-bg"/>
    <text x="802.9" y="42.9" class="tooltip-text" text-anchor="middle">Mar 2026: 1,617 total (+296 this month)</text>
  </g>
  <g class="hoverpoint">
    <line x1="814.2" y1="30" x2="814.2" y2="160.0" class="guide"/>
    <circle cx="814.2" cy="46.6" r="16" class="hit"/>
    <circle cx="814.2" cy="46.6" r="4" class="hover-dot"><title>Apr 2026: 1,744 total (+127 this month)</title></circle>
    <rect x="744.2" y="20.6" width="140" height="20" rx="4" class="tooltip-bg"/>
    <text x="814.2" y="34.6" class="tooltip-text" text-anchor="middle">Apr 2026: 1,744 total (+127 this month)</text>
  </g>
  <g class="hoverpoint">
    <line x1="820.0" y1="30" x2="820.0" y2="160.0" class="guide"/>
    <circle cx="820.0" cy="36.1" r="16" class="hit"/>
    <circle cx="820.0" cy="36.1" r="4" class="hover-dot"><title>May 2026: 1,906 total (+162 this month)</title></circle>
    <rect x="750.0" y="10.1" width="140" height="20" rx="4" class="tooltip-bg"/>
    <text x="820.0" y="24.1" class="tooltip-text" text-anchor="middle">May 2026: 1,906 total (+162 this month)</text>
  </g>

  <circle cx="820.0" cy="36.1" r="4" class="dot"/>
  <text x="810.0" y="26.1" class="total">1,906</text>

</svg>