<svg xmlns="http://www.w3.org/2000/svg" width="840" height="196" viewBox="0 0 840 196" fill="none">
  <style>
    .label { font-family: -apple-system, BlinkMacSystemFont, 'Segoe UI', Helvetica, Arial, sans-serif; font-size: 10px; fill: #8b949e; }
    .title { font-family: -apple-system, BlinkMacSystemFont, 'Segoe UI', Helvetica, Arial, sans-serif; font-size: 11px; fill: #8b949e; font-weight: 600; }
    .total { font-family: -apple-system, BlinkMacSystemFont, 'Segoe UI', Helvetica, Arial, sans-serif; font-size: 11px; fill: #7ee787; font-weight: 600; }
    .grid { stroke: #21262d; stroke-width: 1; }
    .line { stroke: #7ee787; stroke-width: 2; stroke-linecap: round; stroke-linejoin: round; fill: none; }
    .dot { fill: #7ee787; }
    .area { fill: url(#areaGrad); }
    /* Hover interaction */
    .hoverpoint .guide { stroke: #7ee787; stroke-width: 1; stroke-dasharray: 2,2; opacity: 0; }
    .hoverpoint .hover-dot { fill: #7ee787; opacity: 0; }
    .hoverpoint .hit { fill: transparent; cursor: pointer; }
    .hoverpoint .tooltip-bg { fill: #161b22; stroke: #30363d; stroke-width: 1; opacity: 0; }
    .hoverpoint .tooltip-text { font-family: -apple-system, BlinkMacSystemFont, 'Segoe UI', Helvetica, Arial, sans-serif; font-size: 9px; fill: #c9d1d9; opacity: 0; }
    .hoverpoint:hover .guide { opacity: 0.5; }
    .hoverpoint:hover .hover-dot { opacity: 1; }
    .hoverpoint:hover .tooltip-bg { opacity: 0.95; }
    .hoverpoint:hover .tooltip-text { opacity: 1; }
  </style>
  <defs>
    <linearGradient id="areaGrad" x1="0" y1="0" x2="0" y2="1">
      <stop offset="0%" stop-color="#7ee787" stop-opacity="0.15"/>
      <stop offset="100%" stop-color="#7ee787" stop-opacity="0.01"/>
    </linearGradient>
  </defs>

  <text x="60" y="18" class="title">Cumulative Commits</text>

  <line x1="60" y1="160.0" x2="820" y2="160.0" class="grid"/>
  <text x="50" y="163.0" class="label" text-anchor="end">0</text>
  <line x1="60" y1="127.5" x2="820" y2="127.5" class="grid" stroke-dasharray="3,3"/>
  <text x="50" y="130.5" class="label" text-anchor="end">500</text>
  <line x1="60" y1="95.0" x2="820" y2="95.0" class="grid" stroke-dasharray="3,3"/>
  <text x="50" y="98.0" class="label" text-anchor="end">1,000</text>
  <line x1="60" y1="62.5" x2="820" y2="62.5" class="grid" stroke-dasharray="3,3"/>
  <text x="50" y="65.5" class="label" text-anchor="end">1,500</text>
  <line x1="60" y1="30.0" x2="820" y2="30.0" class="grid" stroke-dasharray="3,3"/>
  <text x="50" y="33.0" class="label" text-anchor="end">2,000</text>

  <text x="70.0" y="186" class="label" text-anchor="middle">2021</text>
  <text x="203.5" y="186" class="label" text-anchor="middle">2022</text>
  <text x="347.0" y="186" class="label" text-anchor="middle">2023</text>
  <text x="490.5" y="186" class="label" text-anchor="middle">2024</text>
  <text x="634.4" y="186" class="label" text-anchor="middle">2025</text>
  <text x="777.9" y="186" class="label" text-anchor="middle">2026</text>


  <path class="area" d="M60.0,160.0 L60.0,160.0 60.0,160.0 L183.1,159.7 L183.5,159.6 L184.6,159.5 L203.5,159.4 L203.9,159.0 L204.3,158.9 L204.7,158.6 L205.1,158.6 L205.5,158.4 L206.3,158.1 L206.7,157.9 L207.0,157.8 L207.4,157.7 L209.0,157.5 L209.4,157.5 L209.8,157.4 L213.7,157.3 L224.0,157.1 L277.8,157.1 L278.2,156.5 L279.8,156.4 L280.6,155.9 L286.5,155.8 L287.3,155.6 L287.6,155.4 L288.0,155.3 L288.8,155.1 L289.2,154.7 L289.6,154.0 L290.0,153.9 L291.6,153.6 L292.4,153.6 L294.3,153.4 L299.8,153.2 L310.5,153.0 L316.3,152.9 L319.1,152.8 L319.5,152.7 L319.9,152.5 L320.3,152.3 L321.5,151.8 L321.9,151.7 L322.2,151.7 L323.8,151.4 L324.2,151.1 L324.6,151.0 L325.0,150.4 L325.4,149.9 L325.8,149.7 L326.2,149.5 L327.0,149.4 L328.5,149.3 L332.9,149.1 L344.3,149.0 L344.7,148.7 L345.0,148.6 L349.0,148.0 L349.4,146.5 L350.6,146.3 L350.9,146.3 L352.9,146.1 L366.3,145.8 L366.7,145.7 L367.1,145.6 L367.9,145.4 L370.6,145.2 L371.4,144.9 L371.8,144.7 L373.8,144.6 L383.2,144.4 L576.6,144.3 L577.4,144.2 L578.2,144.1 L579.0,144.0 L579.4,143.9 L579.8,143.8 L580.2,143.8 L580.6,143.7 L584.5,143.6 L595.5,143.6 L598.6,143.5 L599.8,143.4 L602.2,143.4 L604.5,143.3 L604.9,143.2 L606.5,143.2 L607.7,143.1 L608.5,143.0 L637.6,143.0 L638.0,142.8 L638.7,142.8 L639.1,142.7 L640.3,142.5 L642.3,142.4 L647.8,142.3 L659.2,141.7 L659.6,141.5 L664.7,141.3 L665.1,141.2 L666.3,141.1 L667.8,140.9 L669.8,140.2 L670.2,138.4 L670.6,138.3 L673.0,138.2 L674.1,138.1 L674.5,138.0 L675.3,137.8 L678.5,137.7 L681.2,137.2 L683.2,136.7 L683.6,136.5 L684.7,136.2 L685.1,135.4 L685.5,135.2 L685.9,134.9 L686.3,134.7 L686.7,134.4 L687.5,133.9 L688.7,133.5 L702.8,133.3 L703.6,132.4 L712.3,132.2 L717.4,131.9 L719.7,131.9 L720.1,131.8 L722.5,131.7 L722.9,131.7 L723.3,131.6 L723.7,131.4 L724.1,131.1 L724.5,130.5 L724.9,130.4 L727.2,129.4 L727.6,129.3 L728.4,129.1 L731.1,128.8 L731.9,128.7 L732.3,128.5 L733.1,128.5 L733.5,128.0 L733.9,127.9 L734.7,127.8 L735.1,127.6 L735.5,127.6 L735.9,127.5 L737.4,127.1 L737.8,127.0 L738.2,126.8 L738.6,126.7 L739.0,126.6 L739.4,126.4 L740.6,126.1 L741.0,125.9 L741.4,125.8 L741.8,125.6 L742.2,125.2 L742.9,125.1 L743.3,124.4 L743.7,124.1 L744.1,122.8 L744.5,122.5 L744.9,122.2 L745.3,121.5 L745.7,121.4 L746.1,121.2 L746.5,121.1 L746.9,120.7 L748.8,120.0 L749.2,119.8 L749.6,119.2 L750.0,118.1 L750.4,118.0 L751.2,117.9 L751.6,116.9 L752.0,116.4 L752.4,116.3 L752.8,115.3 L753.6,115.0 L753.9,114.9 L754.3,114.8 L754.7,114.7 L755.1,114.6 L755.5,114.6 L757.1,114.4 L757.9,114.3 L758.3,113.8 L758.7,113.5 L759.8,113.5 L761.8,113.3 L764.2,113.1 L764.6,112.9 L765.0,112.9 L765.3,112.5 L765.7,111.6 L766.1,111.5 L766.5,111.4 L766.9,111.3 L767.3,111.1 L767.7,110.6 L772.0,110.5 L772.4,110.4 L776.0,109.9 L776.8,109.5 L777.1,109.4 L777.5,109.1 L777.9,109.0 L779.1,108.8 L779.5,107.9 L779.9,105.5 L780.3,103.5 L780.7,103.4 L781.1,103.1 L781.9,102.8 L782.3,102.5 L782.6,102.1 L783.4,102.0 L783.8,101.4 L784.2,101.3 L785.0,100.4 L785.4,100.3 L785.8,99.8 L786.2,99.5 L786.6,99.1 L787.0,99.0 L788.2,98.4 L788.5,98.1 L788.9,96.6 L789.3,94.4 L789.7,93.6 L790.1,92.6 L790.5,92.5 L790.9,92.1 L791.3,91.9 L791.7,91.4 L792.1,90.6 L792.5,90.6 L792.9,90.1 L793.3,90.0 L793.7,89.5 L794.1,89.0 L794.4,88.4 L794.8,87.8 L795.2,87.7 L795.6,87.5 L796.0,86.4 L796.4,84.4 L796.8,84.1 L797.6,83.7 L798.0,83.5 L798.4,83.4 L798.8,80.2 L799.2,78.8 L799.6,77.3 L799.9,76.8 L800.3,74.4 L800.7,74.1 L801.1,74.0 L801.5,73.5 L801.9,72.4 L802.3,70.4 L802.7,68.2 L803.1,68.1 L803.5,67.6 L804.3,67.5 L804.7,66.2 L805.1,65.2 L805.5,63.8 L805.8,63.6 L806.2,63.5 L806.6,61.4 L807.0,58.9 L807.4,57.8 L807.8,57.3 L808.2,56.6 L808.6,56.1 L809.0,56.0 L809.8,55.7 L810.2,55.3 L810.6,55.2 L811.0,55.1 L811.4,55.0 L812.5,55.0 L812.9,54.9 L813.7,54.8 L814.5,54.7 L814.9,54.6 L815.7,53.7 L816.1,53.1 L816.5,52.9 L818.8,52.8 L819.2,52.4 L820.0,52.3 L820.0,160.0 Z"/>
  <polyline class="line" points="60.0,160.0 183.1,159.7 183.5,159.6 184.6,159.5 203.5,159.4 203.9,159.0 204.3,158.9 204.7,158.6 205.1,158.6 205.5,158.4 206.3,158.1 206.7,157.9 207.0,157.8 207.4,157.7 209.0,157.5 209.4,157.5 209.8,157.4 213.7,157.3 224.0,157.1 277.8,157.1 278.2,156.5 279.8,156.4 280.6,155.9 286.5,155.8 287.3,155.6 287.6,155.4 288.0,155.3 288.8,155.1 289.2,154.7 289.6,154.0 290.0,153.9 291.6,153.6 292.4,153.6 294.3,153.4 299.8,153.2 310.5,153.0 316.3,152.9 319.1,152.8 319.5,152.7 319.9,152.5 320.3,152.3 321.5,151.8 321.9,151.7 322.2,151.7 323.8,151.4 324.2,151.1 324.6,151.0 325.0,150.4 325.4,149.9 325.8,149.7 326.2,149.5 327.0,149.4 328.5,149.3 332.9,149.1 344.3,149.0 344.7,148.7 345.0,148.6 349.0,148.0 349.4,146.5 350.6,146.3 350.9,146.3 352.9,146.1 366.3,145.8 366.7,145.7 367.1,145.6 367.9,145.4 370.6,145.2 371.4,144.9 371.8,144.7 373.8,144.6 383.2,144.4 576.6,144.3 577.4,144.2 578.2,144.1 579.0,144.0 579.4,143.9 579.8,143.8 580.2,143.8 580.6,143.7 584.5,143.6 595.5,143.6 598.6,143.5 599.8,143.4 602.2,143.4 604.5,143.3 604.9,143.2 606.5,143.2 607.7,143.1 608.5,143.0 637.6,143.0 638.0,142.8 638.7,142.8 639.1,142.7 640.3,142.5 642.3,142.4 647.8,142.3 659.2,141.7 659.6,141.5 664.7,141.3 665.1,141.2 666.3,141.1 667.8,140.9 669.8,140.2 670.2,138.4 670.6,138.3 673.0,138.2 674.1,138.1 674.5,138.0 675.3,137.8 678.5,137.7 681.2,137.2 683.2,136.7 683.6,136.5 684.7,136.2 685.1,135.4 685.5,135.2 685.9,134.9 686.3,134.7 686.7,134.4 687.5,133.9 688.7,133.5 702.8,133.3 703.6,132.4 712.3,132.2 717.4,131.9 719.7,131.9 720.1,131.8 722.5,131.7 722.9,131.7 723.3,131.6 723.7,131.4 724.1,131.1 724.5,130.5 724.9,130.4 727.2,129.4 727.6,129.3 728.4,129.1 731.1,128.8 731.9,128.7 732.3,128.5 733.1,128.5 733.5,128.0 733.9,127.9 734.7,127.8 735.1,127.6 735.5,127.6 735.9,127.5 737.4,127.1 737.8,127.0 738.2,126.8 738.6,126.7 739.0,126.6 739.4,126.4 740.6,126.1 741.0,125.9 741.4,125.8 741.8,125.6 742.2,125.2 742.9,125.1 743.3,124.4 743.7,124.1 744.1,122.8 744.5,122.5 744.9,122.2 745.3,121.5 745.7,121.4 746.1,121.2 746.5,121.1 746.9,120.7 748.8,120.0 749.2,119.8 749.6,119.2 750.0,118.1 750.4,118.0 751.2,117.9 751.6,116.9 752.0,116.4 752.4,116.3 752.8,115.3 753.6,115.0 753.9,114.9 754.3,114.8 754.7,114.7 755.1,114.6 755.5,114.6 757.1,114.4 757.9,114.3 758.3,113.8 758.7,113.5 759.8,113.5 761.8,113.3 764.2,113.1 764.6,112.9 765.0,112.9 765.3,112.5 765.7,111.6 766.1,111.5 766.5,111.4 766.9,111.3 767.3,111.1 767.7,110.6 772.0,110.5 772.4,110.4 776.0,109.9 776.8,109.5 777.1,109.4 777.5,109.1 777.9,109.0 779.1,108.8 779.5,107.9 779.9,105.5 780.3,103.5 780.7,103.4 781.1,103.1 781.9,102.8 782.3,102.5 782.6,102.1 783.4,102.0 783.8,101.4 784.2,101.3 785.0,100.4 785.4,100.3 785.8,99.8 786.2,99.5 786.6,99.1 787.0,99.0 788.2,98.4 788.5,98.1 788.9,96.6 789.3,94.4 789.7,93.6 790.1,92.6 790.5,92.5 790.9,92.1 791.3,91.9 791.7,91.4 792.1,90.6 792.5,90.6 792.9,90.1 793.3,90.0 793.7,89.5 794.1,89.0 794.4,88.4 794.8,87.8 795.2,87.7 795.6,87.5 796.0,86.4 796.4,84.4 796.8,84.1 797.6,83.7 798.0,83.5 798.4,83.4 798.8,80.2 799.2,78.8 799.6,77.3 799.9,76.8 800.3,74.4 800.7,74.1 801.1,74.0 801.5,73.5 801.9,72.4 802.3,70.4 802.7,68.2 803.1,68.1 803.5,67.6 804.3,67.5 804.7,66.2 805.1,65.2 805.5,63.8 805.8,63.6 806.2,63.5 806.6,61.4 807.0,58.9 807.4,57.8 807.8,57.3 808.2,56.6 808.6,56.1 809.0,56.0 809.8,55.7 810.2,55.3 810.6,55.2 811.0,55.1 811.4,55.0 812.5,55.0 812.9,54.9 813.7,54.8 814.5,54.7 814.9,54.6 815.7,53.7 816.1,53.1 816.5,52.9 818.8,52.8 819.2,52.4 820.0,52.3"/>

  <g class="hoverpoint">
    <line x1="184.6" y1="30" x2="184.6" y2="160.0" class="guide"/>
    <circle cx="184.6" cy="159.5" r="16" class="hit"/>
    <circle cx="184.6" cy="159.5" r="4" class="hover-dot"><title>Nov 2021: 7 total (+7 this month)</title></circle>
    <rect x="114.6" y="133.5" width="140" height="20" rx="4" class="tooltip-bg"/>
    <text x="184.6" y="147.5" class="tooltip-text" text-anchor="middle">Nov 2021: 7 total (+7 this month)</text>
  </g>
  <g class="hoverpoint">
    <line x1="213.7" y1="30" x2="213.7" y2="160.0" class="guide"/>
    <circle cx="213.7" cy="157.3" r="16" class="hit"/>
    <circle cx="213.7" cy="157.3" r="4" class="hover-dot"><title>Jan 2022: 41 total (+34 this month)</title></circle>
    <rect x="143.7" y="131.3" width="140" height="20" rx="4" class="tooltip-bg"/>
    <text x="213.7" y="145.3" class="tooltip-text" text-anchor="middle">Jan 2022: 41 total (+34 this month)</text>
  </g>
  <g class="hoverpoint">
    <line x1="224.0" y1="30" x2="224.0" y2="160.0" class="guide"/>
    <circle cx="224.0" cy="157.1" r="16" class="hit"/>
    <circle cx="224.0" cy="157.1" r="4" class="hover-dot"><title>Feb 2022: 44 total (+3 this month)</title></circle>
    <rect x="154.0" y="131.1" width="140" height="20" rx="4" class="tooltip-bg"/>
    <text x="224.0" y="145.1" class="tooltip-text" text-anchor="middle">Feb 2022: 44 total (+3 this month)</text>
  </g>
  <g class="hoverpoint">
    <line x1="286.5" y1="30" x2="286.5" y2="160.0" class="guide"/>
    <circle cx="286.5" cy="155.8" r="16" class="hit"/>
    <circle cx="286.5" cy="155.8" r="4" class="hover-dot"><title>Jul 2022: 65 total (+21 this month)</title></circle>
    <rect x="216.5" y="129.8" width="140" height="20" rx="4" class="tooltip-bg"/>
    <text x="286.5" y="143.8" class="tooltip-text" text-anchor="middle">Jul 2022: 65 total (+21 this month)</text>
  </g>
  <g class="hoverpoint">
    <line x1="294.3" y1="30" x2="294.3" y2="160.0" class="guide"/>
    <circle cx="294.3" cy="153.4" r="16" class="hit"/>
    <circle cx="294.3" cy="153.4" r="4" class="hover-dot"><title>Aug 2022: 101 total (+36 this month)</title></circle>
    <rect x="224.3" y="127.4" width="140" height="20" rx="4" class="tooltip-bg"/>
    <text x="294.3" y="141.4" class="tooltip-text" text-anchor="middle">Aug 2022: 101 total (+36 this month)</text>
  </g>
  <g class="hoverpoint">
    <line x1="310.5" y1="30" x2="310.5" y2="160.0" class="guide"/>
    <circle cx="310.5" cy="153.0" r="16" class="hit"/>
    <circle cx="310.5" cy="153.0" r="4" class="hover-dot"><title>Sep 2022: 108 total (+7 this month)</title></circle>
    <rect x="240.5" y="127.0" width="140" height="20" rx="4" class="tooltip-bg"/>
    <text x="310.5" y="141.0" class="tooltip-text" text-anchor="middle">Sep 2022: 108 total (+7 this month)</text>
  </g>
  <g class="hoverpoint">
    <line x1="322.2" y1="30" x2="322.2" y2="160.0" class="guide"/>
    <circle cx="322.2" cy="151.7" r="16" class="hit"/>
    <circle cx="322.2" cy="151.7" r="4" class="hover-dot"><title>Oct 2022: 128 total (+20 this month)</title></circle>
    <rect x="252.2" y="125.7" width="140" height="20" rx="4" class="tooltip-bg"/>
    <text x="322.2" y="139.7" class="tooltip-text" text-anchor="middle">Oct 2022: 128 total (+20 this month)</text>
  </g>
  <g class="hoverpoint">
    <line x1="332.9" y1="30" x2="332.9" y2="160.0" class="guide"/>
    <circle cx="332.9" cy="149.1" r="16" class="hit"/>
    <circle cx="332.9" cy="149.1" r="4" class="hover-dot"><title>Nov 2022: 168 total (+40 this month)</title></circle>
    <rect x="262.9" y="123.1" width="140" height="20" rx="4" class="tooltip-bg"/>
    <text x="332.9" y="137.1" class="tooltip-text" text-anchor="middle">Nov 2022: 168 total (+40 this month)</text>
  </g>
  <g class="hoverpoint">
    <line x1="345.0" y1="30" x2="345.0" y2="160.0" class="guide"/>
    <circle cx="345.0" cy="148.6" r="16" class="hit"/>
    <circle cx="345.0" cy="148.6" r="4" class="hover-dot"><title>Dec 2022: 175 total (+7 this month)</title></circle>
    <rect x="275.0" y="122.6" width="140" height="20" rx="4" class="tooltip-bg"/>
    <text x="345.0" y="136.6" class="tooltip-text" text-anchor="middle">Dec 2022: 175 total (+7 this month)</text>
  </g>
  <g class="hoverpoint">
    <line x1="352.9" y1="30" x2="352.9" y2="160.0" class="guide"/>
    <circle cx="352.9" cy="146.1" r="16" class="hit"/>
    <circle cx="352.9" cy="146.1" r="4" class="hover-dot"><title>Jan 2023: 214 total (+39 this month)</title></circle>
    <rect x="282.9" y="120.1" width="140" height="20" rx="4" class="tooltip-bg"/>
    <text x="352.9" y="134.1" class="tooltip-text" text-anchor="middle">Jan 2023: 214 total (+39 this month)</text>
  </g>
  <g class="hoverpoint">
    <line x1="367.9" y1="30" x2="367.9" y2="160.0" class="guide"/>
    <circle cx="367.9" cy="145.4" r="16" class="hit"/>
    <circle cx="367.9" cy="145.4" r="4" class="hover-dot"><title>Feb 2023: 225 total (+11 this month)</title></circle>
    <rect x="297.9" y="119.4" width="140" height="20" rx="4" class="tooltip-bg"/>
    <text x="367.9" y="133.4" class="tooltip-text" text-anchor="middle">Feb 2023: 225 total (+11 this month)</text>
  </g>
  <g class="hoverpoint">
    <line x1="373.8" y1="30" x2="373.8" y2="160.0" class="guide"/>
    <circle cx="373.8" cy="144.6" r="16" class="hit"/>
    <circle cx="373.8" cy="144.6" r="4" class="hover-dot"><title>Mar 2023: 237 total (+12 this month)</title></circle>
    <rect x="303.8" y="118.6" width="140" height="20" rx="4" class="tooltip-bg"/>
    <text x="373.8" y="132.6" class="tooltip-text" text-anchor="middle">Mar 2023: 237 total (+12 this month)</text>
  </g>
  <g class="hoverpoint">
    <line x1="383.2" y1="30" x2="383.2" y2="160.0" class="guide"/>
    <circle cx="383.2" cy="144.4" r="16" class="hit"/>
    <circle cx="383.2" cy="144.4" r="4" class="hover-dot"><title>Apr 2023: 240 total (+3 this month)</title></circle>
    <rect x="313.2" y="118.4" width="140" height="20" rx="4" class="tooltip-bg"/>
    <text x="383.2" y="132.4" class="tooltip-text" text-anchor="middle">Apr 2023: 240 total (+3 this month)</text>
  </g>
  <g class="hoverpoint">
    <line x1="584.5" y1="30" x2="584.5" y2="160.0" class="guide"/>
    <circle cx="584.5" cy="143.6" r="16" class="hit"/>
    <circle cx="584.5" cy="143.6" r="4" class="hover-dot"><title>Aug 2024: 252 total (+12 this month)</title></circle>
    <rect x="514.5" y="117.6" width="140" height="20" rx="4" class="tooltip-bg"/>
    <text x="584.5" y="131.6" class="tooltip-text" text-anchor="middle">Aug 2024: 252 total (+12 this month)</text>
  </g>
  <g class="hoverpoint">
    <line x1="595.5" y1="30" x2="595.5" y2="160.0" class="guide"/>
    <circle cx="595.5" cy="143.6" r="16" class="hit"/>
    <circle cx="595.5" cy="143.6" r="4" class="hover-dot"><title>Sep 2024: 253 total (+1 this month)</title></circle>
    <rect x="525.5" y="117.6" width="140" height="20" rx="4" class="tooltip-bg"/>
    <text x="595.5" y="131.6" class="tooltip-text" text-anchor="middle">Sep 2024: 253 total (+1 this month)</text>
  </g>
  <g class="hoverpoint">
    <line x1="608.5" y1="30" x2="608.5" y2="160.0" class="guide"/>
    <circle cx="608.5" cy="143.0" r="16" class="hit"/>
    <circle cx="608.5" cy="143.0" r="4" class="hover-dot"><title>Oct 2024: 261 total (+8 this month)</title></circle>
    <rect x="538.5" y="117.0" width="140" height="20" rx="4" class="tooltip-bg"/>
    <text x="608.5" y="131.0" class="tooltip-text" text-anchor="middle">Oct 2024: 261 total (+8 this month)</text>
  </g>
  <g class="hoverpoint">
    <line x1="642.3" y1="30" x2="642.3" y2="160.0" class="guide"/>
    <circle cx="642.3" cy="142.4" r="16" class="hit"/>
    <circle cx="642.3" cy="142.4" r="4" class="hover-dot"><title>Jan 2025: 270 total (+9 this month)</title></circle>
    <rect x="572.3" y="116.4" width="140" height="20" rx="4" class="tooltip-bg"/>
    <text x="642.3" y="130.4" class="tooltip-text" text-anchor="middle">Jan 2025: 270 total (+9 this month)</text>
  </g>
  <g class="hoverpoint">
    <line x1="647.8" y1="30" x2="647.8" y2="160.0" class="guide"/>
    <circle cx="647.8" cy="142.3" r="16" class="hit"/>
    <circle cx="647.8" cy="142.3" r="4" class="hover-dot"><title>Feb 2025: 272 total (+2 this month)</title></circle>
    <rect x="577.8" y="116.3" width="140" height="20" rx="4" class="tooltip-bg"/>
    <text x="647.8" y="130.3" class="tooltip-text" text-anchor="middle">Feb 2025: 272 total (+2 this month)</text>
  </g>
  <g class="hoverpoint">
    <line x1="667.8" y1="30" x2="667.8" y2="160.0" class="guide"/>
    <circle cx="667.8" cy="140.9" r="16" class="hit"/>
    <circle cx="667.8" cy="140.9" r="4" class="hover-dot"><title>Mar 2025: 294 total (+22 this month)</title></circle>
    <rect x="597.8" y="114.9" width="140" height="20" rx="4" class="tooltip-bg"/>
    <text x="667.8" y="128.9" class="tooltip-text" text-anchor="middle">Mar 2025: 294 total (+22 this month)</text>
  </g>
  <g class="hoverpoint">
    <line x1="681.2" y1="30" x2="681.2" y2="160.0" class="guide"/>
    <circle cx="681.2" cy="137.2" r="16" class="hit"/>
    <circle cx="681.2" cy="137.2" r="4" class="hover-dot"><title>Apr 2025: 351 total (+57 this month)</title></circle>
    <rect x="611.2" y="111.2" width="140" height="20" rx="4" class="tooltip-bg"/>
    <text x="681.2" y="125.2" class="tooltip-text" text-anchor="middle">Apr 2025: 351 total (+57 this month)</text>
  </g>
  <g class="hoverpoint">
    <line x1="688.7" y1="30" x2="688.7" y2="160.0" class="guide"/>
    <circle cx="688.7" cy="133.5" r="16" class="hit"/>
    <circle cx="688.7" cy="133.5" r="4" class="hover-dot"><title>May 2025: 408 total (+57 this month)</title></circle>
    <rect x="618.7" y="107.5" width="140" height="20" rx="4" class="tooltip-bg"/>
    <text x="688.7" y="121.5" class="tooltip-text" text-anchor="middle">May 2025: 408 total (+57 this month)</text>
  </g>
  <g class="hoverpoint">
    <line x1="703.6" y1="30" x2="703.6" y2="160.0" class="guide"/>
    <circle cx="703.6" cy="132.4" r="16" class="hit"/>
    <circle cx="703.6" cy="132.4" r="4" class="hover-dot"><title>Jun 2025: 424 total (+16 this month)</title></circle>
    <rect x="633.6" y="106.4" width="140" height="20" rx="4" class="tooltip-bg"/>
    <text x="703.6" y="120.4" class="tooltip-text" text-anchor="middle">Jun 2025: 424 total (+16 this month)</text>
  </g>
  <g class="hoverpoint">
    <line x1="717.4" y1="30" x2="717.4" y2="160.0" class="guide"/>
    <circle cx="717.4" cy="131.9" r="16" class="hit"/>
    <circle cx="717.4" cy="131.9" r="4" class="hover-dot"><title>Jul 2025: 432 total (+8 this month)</title></circle>
    <rect x="647.4" y="105.9" width="140" height="20" rx="4" class="tooltip-bg"/>
    <text x="717.4" y="119.9" class="tooltip-text" text-anchor="middle">Jul 2025: 432 total (+8 this month)</text>
  </g>
  <g class="hoverpoint">
    <line x1="728.4" y1="30" x2="728.4" y2="160.0" class="guide"/>
    <circle cx="728.4" cy="129.1" r="16" class="hit"/>
    <circle cx="728.4" cy="129.1" r="4" class="hover-dot"><title>Aug 2025: 475 total (+43 this month)</title></circle>
    <rect x="658.4" y="103.1" width="140" height="20" rx="4" class="tooltip-bg"/>
    <text x="728.4" y="117.1" class="tooltip-text" text-anchor="middle">Aug 2025: 475 total (+43 this month)</text>
  </g>
  <g class="hoverpoint">
    <line x1="741.4" y1="30" x2="741.4" y2="160.0" class="guide"/>
    <circle cx="741.4" cy="125.8" r="16" class="hit"/>
    <circle cx="741.4" cy="125.8" r="4" class="hover-dot"><title>Sep 2025: 526 total (+51 this month)</title></circle>
    <rect x="671.4" y="99.8" width="140" height="20" rx="4" class="tooltip-bg"/>
    <text x="741.4" y="113.8" class="tooltip-text" text-anchor="middle">Sep 2025: 526 total (+51 this month)</text>
  </g>
  <g class="hoverpoint">
    <line x1="753.6" y1="30" x2="753.6" y2="160.0" class="guide"/>
    <circle cx="753.6" cy="115.0" r="16" class="hit"/>
    <circle cx="753.6" cy="115.0" r="4" class="hover-dot"><title>Oct 2025: 692 total (+166 this month)</title></circle>
    <rect x="683.6" y="89.0" width="140" height="20" rx="4" class="tooltip-bg"/>
    <text x="753.6" y="103.0" class="tooltip-text" text-anchor="middle">Oct 2025: 692 total (+166 this month)</text>
  </g>
  <g class="hoverpoint">
    <line x1="765.3" y1="30" x2="765.3" y2="160.0" class="guide"/>
    <circle cx="765.3" cy="112.5" r="16" class="hit"/>
    <circle cx="765.3" cy="112.5" r="4" class="hover-dot"><title>Nov 2025: 731 total (+39 this month)</title></circle>
    <rect x="695.3" y="86.5" width="140" height="20" rx="4" class="tooltip-bg"/>
    <text x="765.3" y="100.5" class="tooltip-text" text-anchor="middle">Nov 2025: 731 total (+39 this month)</text>
  </g>
  <g class="hoverpoint">
    <line x1="777.5" y1="30" x2="777.5" y2="160.0" class="guide"/>
    <circle cx="777.5" cy="109.1" r="16" class="hit"/>
    <circle cx="777.5" cy="109.1" r="4" class="hover-dot"><title>Dec 2025: 783 total (+52 this month)</title></circle>
    <rect x="707.5" y="83.1" width="140" height="20" rx="4" class="tooltip-bg"/>
    <text x="777.5" y="97.1" class="tooltip-text" text-anchor="middle">Dec 2025: 783 total (+52 this month)</text>
  </g>
  <g class="hoverpoint">
    <line x1="789.7" y1="30" x2="789.7" y2="160.0" class="guide"/>
    <circle cx="789.7" cy="93.6" r="16" class="hit"/>
    <circle cx="789.7" cy="93.6" r="4" class="hover-dot"><title>Jan 2026: 1,022 total (+239 this month)</title></circle>
    <rect x="719.7" y="67.6" width="140" height="20" rx="4" class="tooltip-bg"/>
    <text x="789.7" y="81.6" class="tooltip-text" text-anchor="middle">Jan 2026: 1,022 total (+239 this month)</text>
  </g>
  <g class="hoverpoint">
    <line x1="800.7" y1="30" x2="800.7" y2="160.0" class="guide"/>
    <circle cx="800.7" cy="74.1" r="16" class="hit"/>
    <circle cx="800.7" cy="74.1" r="4" class="hover-dot"><title>Feb 2026: 1,321 total (+299 this month)</title></circle>
    <rect x="730.7" y="48.1" width="140" height="20" rx="4" class="tooltip-bg"/>
    <text x="800.7" y="62.1" class="tooltip-text" text-anchor="middle">Feb 2026: 1,321 total (+299 this month)</text>
  </g>
  <g class="hoverpoint">
    <line x1="812.9" y1="30" x2="812.9" y2="160.0" class="guide"/>
    <circle cx="812.9" cy="54.9" r="16" class="hit"/>
    <circle cx="812.9" cy="54.9" r="4" class="hover-dot"><title>Mar 2026: 1,617 total (+296 this month)</title></circle>
    <rect x="742.9" y="28.9" width="140" height="20" rx="4" class="tooltip-bg"/>
    <text x="812.9" y="42.9" class="tooltip-text" text-anchor="middle">Mar 2026: 1,617 total (+296 this month)</text>
  </g>
  <g class="hoverpoint">
    <line x1="820.0" y1="30" x2="820.0" y2="160.0" class="guide"/>
    <circle cx="820.0" cy="52.3" r="16" class="hit"/>
    <circle cx="820.0" cy="52.3" r="4" class="hover-dot"><title>Apr 2026: 1,657 total (+40 this month)</title></circle>
    <rect x="750.0" y="26.3" width="140" height="20" rx="4" class="tooltip-bg"/>
    <text x="820.0" y="40.3" class="tooltip-text" text-anchor="middle">Apr 2026: 1,657 total (+40 this month)</text>
  </g>

  <circle cx="820.0" cy="52.3" r="4" class="dot"/>
  <text x="810.0" y="42.3" class="total">1,657</text>

</svg>