<svg xmlns="http://www.w3.org/2000/svg" width="840" height="196" viewBox="0 0 840 196" fill="none">
  <style>
    .label { font-family: -apple-system, BlinkMacSystemFont, 'Segoe UI', Helvetica, Arial, sans-serif; font-size: 10px; fill: #8b949e; }
    .title { font-family: -apple-system, BlinkMacSystemFont, 'Segoe UI', Helvetica, Arial, sans-serif; font-size: 11px; fill: #8b949e; font-weight: 600; }
    .total { font-family: -apple-system, BlinkMacSystemFont, 'Segoe UI', Helvetica, Arial, sans-serif; font-size: 11px; fill: #7ee787; font-weight: 600; }
    .grid { stroke: #21262d; stroke-width: 1; }
    .line { stroke: #7ee787; stroke-width: 2; stroke-linecap: round; stroke-linejoin: round; fill: none; }
    .dot { fill: #7ee787; }
    .area { fill: url(#areaGrad); }
    /* Hover interaction */
    .hoverpoint .guide { stroke: #7ee787; stroke-width: 1; stroke-dasharray: 2,2; opacity: 0; }
    .hoverpoint .hover-dot { fill: #7ee787; opacity: 0; }
    .hoverpoint .hit { fill: transparent; cursor: pointer; }
    .hoverpoint .tooltip-bg { fill: #161b22; stroke: #30363d; stroke-width: 1; opacity: 0; }
    .hoverpoint .tooltip-text { font-family: -apple-system, BlinkMacSystemFont, 'Segoe UI', Helvetica, Arial, sans-serif; font-size: 9px; fill: #c9d1d9; opacity: 0; }
    .hoverpoint:hover .guide { opacity: 0.5; }
    .hoverpoint:hover .hover-dot { opacity: 1; }
    .hoverpoint:hover .tooltip-bg { opacity: 0.95; }
    .hoverpoint:hover .tooltip-text { opacity: 1; }
  </style>
  <defs>
    <linearGradient id="areaGrad" x1="0" y1="0" x2="0" y2="1">
      <stop offset="0%" stop-color="#7ee787" stop-opacity="0.15"/>
      <stop offset="100%" stop-color="#7ee787" stop-opacity="0.01"/>
    </linearGradient>
  </defs>

  <text x="60" y="18" class="title">Cumulative Commits</text>

  <line x1="60" y1="160.0" x2="820" y2="160.0" class="grid"/>
  <text x="50" y="163.0" class="label" text-anchor="end">0</text>
  <line x1="60" y1="127.5" x2="820" y2="127.5" class="grid" stroke-dasharray="3,3"/>
  <text x="50" y="130.5" class="label" text-anchor="end">750</text>
  <line x1="60" y1="95.0" x2="820" y2="95.0" class="grid" stroke-dasharray="3,3"/>
  <text x="50" y="98.0" class="label" text-anchor="end">1,500</text>
  <line x1="60" y1="62.5" x2="820" y2="62.5" class="grid" stroke-dasharray="3,3"/>
  <text x="50" y="65.5" class="label" text-anchor="end">2,250</text>
  <line x1="60" y1="30.0" x2="820" y2="30.0" class="grid" stroke-dasharray="3,3"/>
  <text x="50" y="33.0" class="label" text-anchor="end">3,000</text>

  <text x="70.0" y="186" class="label" text-anchor="middle">2021</text>
  <text x="200.9" y="186" class="label" text-anchor="middle">2022</text>
  <text x="341.8" y="186" class="label" text-anchor="middle">2023</text>
  <text x="482.7" y="186" class="label" text-anchor="middle">2024</text>
  <text x="623.9" y="186" class="label" text-anchor="middle">2025</text>
  <text x="764.8" y="186" class="label" text-anchor="middle">2026</text>


  <path class="area" d="M60.0,160.0 L60.0,160.0 60.0,160.0 L180.8,159.8 L181.2,159.7 L182.4,159.7 L200.9,159.6 L201.3,159.3 L201.7,159.3 L202.0,159.1 L202.4,159.0 L202.8,159.0 L203.6,158.7 L204.0,158.6 L204.4,158.5 L204.7,158.5 L206.3,158.4 L206.7,158.3 L207.1,158.3 L210.9,158.2 L221.0,158.1 L273.8,158.1 L274.2,157.7 L275.8,157.6 L276.5,157.3 L282.3,157.2 L283.1,157.1 L283.5,156.9 L283.9,156.9 L284.6,156.8 L285.0,156.4 L285.4,156.0 L285.8,155.9 L287.3,155.8 L288.1,155.7 L290.0,155.6 L295.4,155.4 L305.9,155.3 L311.7,155.3 L314.4,155.2 L314.7,155.1 L315.1,155.0 L315.5,154.8 L316.7,154.5 L317.1,154.5 L317.5,154.5 L319.0,154.3 L319.4,154.1 L319.8,154.0 L320.2,153.6 L320.5,153.2 L320.9,153.1 L321.3,153.0 L322.1,152.9 L323.6,152.8 L327.9,152.7 L339.1,152.7 L339.5,152.5 L339.8,152.4 L343.7,152.0 L344.1,151.0 L345.2,150.9 L345.6,150.9 L347.6,150.7 L360.7,150.6 L361.1,150.5 L361.5,150.4 L362.2,150.2 L364.9,150.1 L365.7,149.9 L366.1,149.8 L368.0,149.7 L377.3,149.6 L567.2,149.5 L568.0,149.5 L568.7,149.4 L569.5,149.3 L569.9,149.3 L570.3,149.2 L570.7,149.2 L571.0,149.1 L574.9,149.1 L585.7,149.0 L588.8,149.0 L590.0,148.9 L592.3,148.9 L594.6,148.9 L595.0,148.8 L596.5,148.8 L597.7,148.7 L598.4,148.7 L627.0,148.6 L627.4,148.6 L628.2,148.5 L628.6,148.5 L629.7,148.3 L631.6,148.3 L637.0,148.2 L648.2,147.8 L648.6,147.7 L653.6,147.6 L654.0,147.5 L655.2,147.4 L656.7,147.3 L658.7,146.8 L659.0,145.6 L659.4,145.5 L661.7,145.4 L662.9,145.4 L663.3,145.4 L664.1,145.2 L667.2,145.1 L669.9,144.8 L671.8,144.5 L672.2,144.4 L673.3,144.1 L673.7,143.6 L674.1,143.5 L674.5,143.3 L674.9,143.1 L675.3,142.9 L676.0,142.6 L677.2,142.3 L691.1,142.2 L691.9,141.6 L700.3,141.5 L705.4,141.3 L707.7,141.2 L708.1,141.2 L710.4,141.2 L710.8,141.1 L711.2,141.1 L711.5,140.9 L711.9,140.8 L712.3,140.3 L712.7,140.2 L715.0,139.6 L715.4,139.5 L716.2,139.4 L718.9,139.2 L719.6,139.2 L720.0,139.0 L720.8,139.0 L721.2,138.7 L721.6,138.6 L722.3,138.5 L722.7,138.4 L723.1,138.4 L723.5,138.3 L725.0,138.1 L725.4,138.0 L725.8,137.9 L726.2,137.8 L726.6,137.7 L727.0,137.6 L728.1,137.4 L728.5,137.3 L728.9,137.2 L729.3,137.1 L729.7,136.8 L730.5,136.7 L730.8,136.3 L731.2,136.0 L731.6,135.2 L732.0,135.0 L732.4,134.8 L732.8,134.3 L733.2,134.3 L733.5,134.1 L733.9,134.1 L734.3,133.8 L736.2,133.3 L736.6,133.2 L737.0,132.8 L737.4,132.1 L737.8,132.0 L738.6,131.9 L738.9,131.3 L739.3,130.9 L739.7,130.9 L740.1,130.2 L740.9,130.0 L741.3,129.9 L741.6,129.8 L742.0,129.8 L742.4,129.8 L742.8,129.7 L744.3,129.6 L745.1,129.5 L745.5,129.2 L745.9,129.0 L747.0,129.0 L749.0,128.9 L751.3,128.7 L751.7,128.6 L752.1,128.6 L752.5,128.3 L752.8,127.7 L753.2,127.7 L753.6,127.6 L754.0,127.5 L754.4,127.4 L754.8,127.1 L759.0,127.0 L759.4,126.9 L762.9,126.6 L763.6,126.3 L764.0,126.2 L764.4,126.1 L764.8,126.0 L766.0,125.9 L766.3,125.2 L766.7,123.7 L767.1,122.3 L767.5,122.3 L767.9,122.1 L768.7,121.9 L769.1,121.7 L769.4,121.4 L770.2,121.3 L770.6,120.9 L771.0,120.9 L771.8,120.3 L772.1,120.2 L772.5,119.9 L772.9,119.7 L773.3,119.4 L773.7,119.4 L774.8,119.0 L775.2,118.7 L775.6,117.7 L776.0,116.3 L776.4,115.7 L776.8,115.1 L777.2,115.0 L777.5,114.8 L777.9,114.6 L778.3,114.2 L778.7,113.8 L779.1,113.7 L779.5,113.4 L779.9,113.3 L780.2,113.0 L780.6,112.6 L781.0,112.3 L781.4,111.9 L781.8,111.8 L782.2,111.6 L782.6,110.9 L782.9,109.6 L783.3,109.4 L784.1,109.1 L784.5,109.0 L784.9,108.9 L785.3,106.8 L785.6,105.8 L786.0,104.9 L786.4,104.5 L786.8,102.9 L787.2,102.8 L787.6,102.7 L788.0,102.3 L788.3,101.6 L788.7,100.2 L789.1,98.8 L789.5,98.7 L789.9,98.4 L790.7,98.3 L791.1,97.5 L791.4,96.8 L791.8,95.9 L792.2,95.7 L792.6,95.7 L793.0,94.3 L793.4,92.6 L793.8,91.9 L794.1,91.5 L794.5,91.1 L794.9,90.7 L795.3,90.7 L796.1,90.5 L796.5,90.2 L796.8,90.1 L797.2,90.1 L797.6,90.0 L798.8,90.0 L799.2,89.9 L799.9,89.8 L800.7,89.8 L801.1,89.7 L801.9,89.1 L802.2,88.8 L802.6,88.6 L804.9,88.5 L805.3,88.2 L805.7,88.1 L806.1,87.8 L806.5,87.7 L806.9,87.6 L807.3,87.5 L807.6,86.9 L808.0,86.2 L808.4,86.0 L808.8,84.7 L809.2,84.5 L810.0,84.5 L810.4,84.4 L811.5,84.0 L811.9,83.5 L812.3,83.2 L812.7,82.9 L813.1,81.9 L813.4,78.2 L813.8,76.6 L814.2,76.4 L814.6,76.1 L815.0,75.4 L815.4,75.3 L815.8,70.1 L816.1,63.7 L816.5,61.8 L816.9,61.8 L817.3,60.8 L817.7,60.0 L818.1,56.2 L818.5,54.7 L818.8,53.4 L819.2,52.7 L819.6,52.6 L820.0,52.4 L820.0,160.0 Z"/>
  <polyline class="line" points="60.0,160.0 180.8,159.8 181.2,159.7 182.4,159.7 200.9,159.6 201.3,159.3 201.7,159.3 202.0,159.1 202.4,159.0 202.8,159.0 203.6,158.7 204.0,158.6 204.4,158.5 204.7,158.5 206.3,158.4 206.7,158.3 207.1,158.3 210.9,158.2 221.0,158.1 273.8,158.1 274.2,157.7 275.8,157.6 276.5,157.3 282.3,157.2 283.1,157.1 283.5,156.9 283.9,156.9 284.6,156.8 285.0,156.4 285.4,156.0 285.8,155.9 287.3,155.8 288.1,155.7 290.0,155.6 295.4,155.4 305.9,155.3 311.7,155.3 314.4,155.2 314.7,155.1 315.1,155.0 315.5,154.8 316.7,154.5 317.1,154.5 317.5,154.5 319.0,154.3 319.4,154.1 319.8,154.0 320.2,153.6 320.5,153.2 320.9,153.1 321.3,153.0 322.1,152.9 323.6,152.8 327.9,152.7 339.1,152.7 339.5,152.5 339.8,152.4 343.7,152.0 344.1,151.0 345.2,150.9 345.6,150.9 347.6,150.7 360.7,150.6 361.1,150.5 361.5,150.4 362.2,150.2 364.9,150.1 365.7,149.9 366.1,149.8 368.0,149.7 377.3,149.6 567.2,149.5 568.0,149.5 568.7,149.4 569.5,149.3 569.9,149.3 570.3,149.2 570.7,149.2 571.0,149.1 574.9,149.1 585.7,149.0 588.8,149.0 590.0,148.9 592.3,148.9 594.6,148.9 595.0,148.8 596.5,148.8 597.7,148.7 598.4,148.7 627.0,148.6 627.4,148.6 628.2,148.5 628.6,148.5 629.7,148.3 631.6,148.3 637.0,148.2 648.2,147.8 648.6,147.7 653.6,147.6 654.0,147.5 655.2,147.4 656.7,147.3 658.7,146.8 659.0,145.6 659.4,145.5 661.7,145.4 662.9,145.4 663.3,145.4 664.1,145.2 667.2,145.1 669.9,144.8 671.8,144.5 672.2,144.4 673.3,144.1 673.7,143.6 674.1,143.5 674.5,143.3 674.9,143.1 675.3,142.9 676.0,142.6 677.2,142.3 691.1,142.2 691.9,141.6 700.3,141.5 705.4,141.3 707.7,141.2 708.1,141.2 710.4,141.2 710.8,141.1 711.2,141.1 711.5,140.9 711.9,140.8 712.3,140.3 712.7,140.2 715.0,139.6 715.4,139.5 716.2,139.4 718.9,139.2 719.6,139.2 720.0,139.0 720.8,139.0 721.2,138.7 721.6,138.6 722.3,138.5 722.7,138.4 723.1,138.4 723.5,138.3 725.0,138.1 725.4,138.0 725.8,137.9 726.2,137.8 726.6,137.7 727.0,137.6 728.1,137.4 728.5,137.3 728.9,137.2 729.3,137.1 729.7,136.8 730.5,136.7 730.8,136.3 731.2,136.0 731.6,135.2 732.0,135.0 732.4,134.8 732.8,134.3 733.2,134.3 733.5,134.1 733.9,134.1 734.3,133.8 736.2,133.3 736.6,133.2 737.0,132.8 737.4,132.1 737.8,132.0 738.6,131.9 738.9,131.3 739.3,130.9 739.7,130.9 740.1,130.2 740.9,130.0 741.3,129.9 741.6,129.8 742.0,129.8 742.4,129.8 742.8,129.7 744.3,129.6 745.1,129.5 745.5,129.2 745.9,129.0 747.0,129.0 749.0,128.9 751.3,128.7 751.7,128.6 752.1,128.6 752.5,128.3 752.8,127.7 753.2,127.7 753.6,127.6 754.0,127.5 754.4,127.4 754.8,127.1 759.0,127.0 759.4,126.9 762.9,126.6 763.6,126.3 764.0,126.2 764.4,126.1 764.8,126.0 766.0,125.9 766.3,125.2 766.7,123.7 767.1,122.3 767.5,122.3 767.9,122.1 768.7,121.9 769.1,121.7 769.4,121.4 770.2,121.3 770.6,120.9 771.0,120.9 771.8,120.3 772.1,120.2 772.5,119.9 772.9,119.7 773.3,119.4 773.7,119.4 774.8,119.0 775.2,118.7 775.6,117.7 776.0,116.3 776.4,115.7 776.8,115.1 777.2,115.0 777.5,114.8 777.9,114.6 778.3,114.2 778.7,113.8 779.1,113.7 779.5,113.4 779.9,113.3 780.2,113.0 780.6,112.6 781.0,112.3 781.4,111.9 781.8,111.8 782.2,111.6 782.6,110.9 782.9,109.6 783.3,109.4 784.1,109.1 784.5,109.0 784.9,108.9 785.3,106.8 785.6,105.8 786.0,104.9 786.4,104.5 786.8,102.9 787.2,102.8 787.6,102.7 788.0,102.3 788.3,101.6 788.7,100.2 789.1,98.8 789.5,98.7 789.9,98.4 790.7,98.3 791.1,97.5 791.4,96.8 791.8,95.9 792.2,95.7 792.6,95.7 793.0,94.3 793.4,92.6 793.8,91.9 794.1,91.5 794.5,91.1 794.9,90.7 795.3,90.7 796.1,90.5 796.5,90.2 796.8,90.1 797.2,90.1 797.6,90.0 798.8,90.0 799.2,89.9 799.9,89.8 800.7,89.8 801.1,89.7 801.9,89.1 802.2,88.8 802.6,88.6 804.9,88.5 805.3,88.2 805.7,88.1 806.1,87.8 806.5,87.7 806.9,87.6 807.3,87.5 807.6,86.9 808.0,86.2 808.4,86.0 808.8,84.7 809.2,84.5 810.0,84.5 810.4,84.4 811.5,84.0 811.9,83.5 812.3,83.2 812.7,82.9 813.1,81.9 813.4,78.2 813.8,76.6 814.2,76.4 814.6,76.1 815.0,75.4 815.4,75.3 815.8,70.1 816.1,63.7 816.5,61.8 816.9,61.8 817.3,60.8 817.7,60.0 818.1,56.2 818.5,54.7 818.8,53.4 819.2,52.7 819.6,52.6 820.0,52.4"/>

  <g class="hoverpoint">
    <line x1="182.4" y1="30" x2="182.4" y2="160.0" class="guide"/>
    <circle cx="182.4" cy="159.7" r="16" class="hit"/>
    <circle cx="182.4" cy="159.7" r="4" class="hover-dot"><title>Nov 2021: 7 total (+7 this month)</title></circle>
    <rect x="112.4" y="133.7" width="140" height="20" rx="4" class="tooltip-bg"/>
    <text x="182.4" y="147.7" class="tooltip-text" text-anchor="middle">Nov 2021: 7 total (+7 this month)</text>
  </g>
  <g class="hoverpoint">
    <line x1="210.9" y1="30" x2="210.9" y2="160.0" class="guide"/>
    <circle cx="210.9" cy="158.2" r="16" class="hit"/>
    <circle cx="210.9" cy="158.2" r="4" class="hover-dot"><title>Jan 2022: 41 total (+34 this month)</title></circle>
    <rect x="140.9" y="132.2" width="140" height="20" rx="4" class="tooltip-bg"/>
    <text x="210.9" y="146.2" class="tooltip-text" text-anchor="middle">Jan 2022: 41 total (+34 this month)</text>
  </g>
  <g class="hoverpoint">
    <line x1="221.0" y1="30" x2="221.0" y2="160.0" class="guide"/>
    <circle cx="221.0" cy="158.1" r="16" class="hit"/>
    <circle cx="221.0" cy="158.1" r="4" class="hover-dot"><title>Feb 2022: 44 total (+3 this month)</title></circle>
    <rect x="151.0" y="132.1" width="140" height="20" rx="4" class="tooltip-bg"/>
    <text x="221.0" y="146.1" class="tooltip-text" text-anchor="middle">Feb 2022: 44 total (+3 this month)</text>
  </g>
  <g class="hoverpoint">
    <line x1="282.3" y1="30" x2="282.3" y2="160.0" class="guide"/>
    <circle cx="282.3" cy="157.2" r="16" class="hit"/>
    <circle cx="282.3" cy="157.2" r="4" class="hover-dot"><title>Jul 2022: 65 total (+21 this month)</title></circle>
    <rect x="212.3" y="131.2" width="140" height="20" rx="4" class="tooltip-bg"/>
    <text x="282.3" y="145.2" class="tooltip-text" text-anchor="middle">Jul 2022: 65 total (+21 this month)</text>
  </g>
  <g class="hoverpoint">
    <line x1="290.0" y1="30" x2="290.0" y2="160.0" class="guide"/>
    <circle cx="290.0" cy="155.6" r="16" class="hit"/>
    <circle cx="290.0" cy="155.6" r="4" class="hover-dot"><title>Aug 2022: 101 total (+36 this month)</title></circle>
    <rect x="220.0" y="129.6" width="140" height="20" rx="4" class="tooltip-bg"/>
    <text x="290.0" y="143.6" class="tooltip-text" text-anchor="middle">Aug 2022: 101 total (+36 this month)</text>
  </g>
  <g class="hoverpoint">
    <line x1="305.9" y1="30" x2="305.9" y2="160.0" class="guide"/>
    <circle cx="305.9" cy="155.3" r="16" class="hit"/>
    <circle cx="305.9" cy="155.3" r="4" class="hover-dot"><title>Sep 2022: 108 total (+7 this month)</title></circle>
    <rect x="235.9" y="129.3" width="140" height="20" rx="4" class="tooltip-bg"/>
    <text x="305.9" y="143.3" class="tooltip-text" text-anchor="middle">Sep 2022: 108 total (+7 this month)</text>
  </g>
  <g class="hoverpoint">
    <line x1="317.5" y1="30" x2="317.5" y2="160.0" class="guide"/>
    <circle cx="317.5" cy="154.5" r="16" class="hit"/>
    <circle cx="317.5" cy="154.5" r="4" class="hover-dot"><title>Oct 2022: 128 total (+20 this month)</title></circle>
    <rect x="247.5" y="128.5" width="140" height="20" rx="4" class="tooltip-bg"/>
    <text x="317.5" y="142.5" class="tooltip-text" text-anchor="middle">Oct 2022: 128 total (+20 this month)</text>
  </g>
  <g class="hoverpoint">
    <line x1="327.9" y1="30" x2="327.9" y2="160.0" class="guide"/>
    <circle cx="327.9" cy="152.7" r="16" class="hit"/>
    <circle cx="327.9" cy="152.7" r="4" class="hover-dot"><title>Nov 2022: 168 total (+40 this month)</title></circle>
    <rect x="257.9" y="126.7" width="140" height="20" rx="4" class="tooltip-bg"/>
    <text x="327.9" y="140.7" class="tooltip-text" text-anchor="middle">Nov 2022: 168 total (+40 this month)</text>
  </g>
  <g class="hoverpoint">
    <line x1="339.8" y1="30" x2="339.8" y2="160.0" class="guide"/>
    <circle cx="339.8" cy="152.4" r="16" class="hit"/>
    <circle cx="339.8" cy="152.4" r="4" class="hover-dot"><title>Dec 2022: 175 total (+7 this month)</title></circle>
    <rect x="269.8" y="126.4" width="140" height="20" rx="4" class="tooltip-bg"/>
    <text x="339.8" y="140.4" class="tooltip-text" text-anchor="middle">Dec 2022: 175 total (+7 this month)</text>
  </g>
  <g class="hoverpoint">
    <line x1="347.6" y1="30" x2="347.6" y2="160.0" class="guide"/>
    <circle cx="347.6" cy="150.7" r="16" class="hit"/>
    <circle cx="347.6" cy="150.7" r="4" class="hover-dot"><title>Jan 2023: 214 total (+39 this month)</title></circle>
    <rect x="277.6" y="124.7" width="140" height="20" rx="4" class="tooltip-bg"/>
    <text x="347.6" y="138.7" class="tooltip-text" text-anchor="middle">Jan 2023: 214 total (+39 this month)</text>
  </g>
  <g class="hoverpoint">
    <line x1="362.2" y1="30" x2="362.2" y2="160.0" class="guide"/>
    <circle cx="362.2" cy="150.2" r="16" class="hit"/>
    <circle cx="362.2" cy="150.2" r="4" class="hover-dot"><title>Feb 2023: 225 total (+11 this month)</title></circle>
    <rect x="292.2" y="124.2" width="140" height="20" rx="4" class="tooltip-bg"/>
    <text x="362.2" y="138.2" class="tooltip-text" text-anchor="middle">Feb 2023: 225 total (+11 this month)</text>
  </g>
  <g class="hoverpoint">
    <line x1="368.0" y1="30" x2="368.0" y2="160.0" class="guide"/>
    <circle cx="368.0" cy="149.7" r="16" class="hit"/>
    <circle cx="368.0" cy="149.7" r="4" class="hover-dot"><title>Mar 2023: 237 total (+12 this month)</title></circle>
    <rect x="298.0" y="123.7" width="140" height="20" rx="4" class="tooltip-bg"/>
    <text x="368.0" y="137.7" class="tooltip-text" text-anchor="middle">Mar 2023: 237 total (+12 this month)</text>
  </g>
  <g class="hoverpoint">
    <line x1="377.3" y1="30" x2="377.3" y2="160.0" class="guide"/>
    <circle cx="377.3" cy="149.6" r="16" class="hit"/>
    <circle cx="377.3" cy="149.6" r="4" class="hover-dot"><title>Apr 2023: 240 total (+3 this month)</title></circle>
    <rect x="307.3" y="123.6" width="140" height="20" rx="4" class="tooltip-bg"/>
    <text x="377.3" y="137.6" class="tooltip-text" text-anchor="middle">Apr 2023: 240 total (+3 this month)</text>
  </g>
  <g class="hoverpoint">
    <line x1="574.9" y1="30" x2="574.9" y2="160.0" class="guide"/>
    <circle cx="574.9" cy="149.1" r="16" class="hit"/>
    <circle cx="574.9" cy="149.1" r="4" class="hover-dot"><title>Aug 2024: 252 total (+12 this month)</title></circle>
    <rect x="504.9" y="123.1" width="140" height="20" rx="4" class="tooltip-bg"/>
    <text x="574.9" y="137.1" class="tooltip-text" text-anchor="middle">Aug 2024: 252 total (+12 this month)</text>
  </g>
  <g class="hoverpoint">
    <line x1="585.7" y1="30" x2="585.7" y2="160.0" class="guide"/>
    <circle cx="585.7" cy="149.0" r="16" class="hit"/>
    <circle cx="585.7" cy="149.0" r="4" class="hover-dot"><title>Sep 2024: 253 total (+1 this month)</title></circle>
    <rect x="515.7" y="123.0" width="140" height="20" rx="4" class="tooltip-bg"/>
    <text x="585.7" y="137.0" class="tooltip-text" text-anchor="middle">Sep 2024: 253 total (+1 this month)</text>
  </g>
  <g class="hoverpoint">
    <line x1="598.4" y1="30" x2="598.4" y2="160.0" class="guide"/>
    <circle cx="598.4" cy="148.7" r="16" class="hit"/>
    <circle cx="598.4" cy="148.7" r="4" class="hover-dot"><title>Oct 2024: 261 total (+8 this month)</title></circle>
    <rect x="528.4" y="122.7" width="140" height="20" rx="4" class="tooltip-bg"/>
    <text x="598.4" y="136.7" class="tooltip-text" text-anchor="middle">Oct 2024: 261 total (+8 this month)</text>
  </g>
  <g class="hoverpoint">
    <line x1="631.6" y1="30" x2="631.6" y2="160.0" class="guide"/>
    <circle cx="631.6" cy="148.3" r="16" class="hit"/>
    <circle cx="631.6" cy="148.3" r="4" class="hover-dot"><title>Jan 2025: 270 total (+9 this month)</title></circle>
    <rect x="561.6" y="122.3" width="140" height="20" rx="4" class="tooltip-bg"/>
    <text x="631.6" y="136.3" class="tooltip-text" text-anchor="middle">Jan 2025: 270 total (+9 this month)</text>
  </g>
  <g class="hoverpoint">
    <line x1="637.0" y1="30" x2="637.0" y2="160.0" class="guide"/>
    <circle cx="637.0" cy="148.2" r="16" class="hit"/>
    <circle cx="637.0" cy="148.2" r="4" class="hover-dot"><title>Feb 2025: 272 total (+2 this month)</title></circle>
    <rect x="567.0" y="122.2" width="140" height="20" rx="4" class="tooltip-bg"/>
    <text x="637.0" y="136.2" class="tooltip-text" text-anchor="middle">Feb 2025: 272 total (+2 this month)</text>
  </g>
  <g class="hoverpoint">
    <line x1="656.7" y1="30" x2="656.7" y2="160.0" class="guide"/>
    <circle cx="656.7" cy="147.3" r="16" class="hit"/>
    <circle cx="656.7" cy="147.3" r="4" class="hover-dot"><title>Mar 2025: 294 total (+22 this month)</title></circle>
    <rect x="586.7" y="121.3" width="140" height="20" rx="4" class="tooltip-bg"/>
    <text x="656.7" y="135.3" class="tooltip-text" text-anchor="middle">Mar 2025: 294 total (+22 this month)</text>
  </g>
  <g class="hoverpoint">
    <line x1="669.9" y1="30" x2="669.9" y2="160.0" class="guide"/>
    <circle cx="669.9" cy="144.8" r="16" class="hit"/>
    <circle cx="669.9" cy="144.8" r="4" class="hover-dot"><title>Apr 2025: 351 total (+57 this month)</title></circle>
    <rect x="599.9" y="118.8" width="140" height="20" rx="4" class="tooltip-bg"/>
    <text x="669.9" y="132.8" class="tooltip-text" text-anchor="middle">Apr 2025: 351 total (+57 this month)</text>
  </g>
  <g class="hoverpoint">
    <line x1="677.2" y1="30" x2="677.2" y2="160.0" class="guide"/>
    <circle cx="677.2" cy="142.3" r="16" class="hit"/>
    <circle cx="677.2" cy="142.3" r="4" class="hover-dot"><title>May 2025: 408 total (+57 this month)</title></circle>
    <rect x="607.2" y="116.3" width="140" height="20" rx="4" class="tooltip-bg"/>
    <text x="677.2" y="130.3" class="tooltip-text" text-anchor="middle">May 2025: 408 total (+57 this month)</text>
  </g>
  <g class="hoverpoint">
    <line x1="691.9" y1="30" x2="691.9" y2="160.0" class="guide"/>
    <circle cx="691.9" cy="141.6" r="16" class="hit"/>
    <circle cx="691.9" cy="141.6" r="4" class="hover-dot"><title>Jun 2025: 424 total (+16 this month)</title></circle>
    <rect x="621.9" y="115.6" width="140" height="20" rx="4" class="tooltip-bg"/>
    <text x="691.9" y="129.6" class="tooltip-text" text-anchor="middle">Jun 2025: 424 total (+16 this month)</text>
  </g>
  <g class="hoverpoint">
    <line x1="705.4" y1="30" x2="705.4" y2="160.0" class="guide"/>
    <circle cx="705.4" cy="141.3" r="16" class="hit"/>
    <circle cx="705.4" cy="141.3" r="4" class="hover-dot"><title>Jul 2025: 432 total (+8 this month)</title></circle>
    <rect x="635.4" y="115.3" width="140" height="20" rx="4" class="tooltip-bg"/>
    <text x="705.4" y="129.3" class="tooltip-text" text-anchor="middle">Jul 2025: 432 total (+8 this month)</text>
  </g>
  <g class="hoverpoint">
    <line x1="716.2" y1="30" x2="716.2" y2="160.0" class="guide"/>
    <circle cx="716.2" cy="139.4" r="16" class="hit"/>
    <circle cx="716.2" cy="139.4" r="4" class="hover-dot"><title>Aug 2025: 475 total (+43 this month)</title></circle>
    <rect x="646.2" y="113.4" width="140" height="20" rx="4" class="tooltip-bg"/>
    <text x="716.2" y="127.4" class="tooltip-text" text-anchor="middle">Aug 2025: 475 total (+43 this month)</text>
  </g>
  <g class="hoverpoint">
    <line x1="728.9" y1="30" x2="728.9" y2="160.0" class="guide"/>
    <circle cx="728.9" cy="137.2" r="16" class="hit"/>
    <circle cx="728.9" cy="137.2" r="4" class="hover-dot"><title>Sep 2025: 526 total (+51 this month)</title></circle>
    <rect x="658.9" y="111.2" width="140" height="20" rx="4" class="tooltip-bg"/>
    <text x="728.9" y="125.2" class="tooltip-text" text-anchor="middle">Sep 2025: 526 total (+51 this month)</text>
  </g>
  <g class="hoverpoint">
    <line x1="740.9" y1="30" x2="740.9" y2="160.0" class="guide"/>
    <circle cx="740.9" cy="130.0" r="16" class="hit"/>
    <circle cx="740.9" cy="130.0" r="4" class="hover-dot"><title>Oct 2025: 692 total (+166 this month)</title></circle>
    <rect x="670.9" y="104.0" width="140" height="20" rx="4" class="tooltip-bg"/>
    <text x="740.9" y="118.0" class="tooltip-text" text-anchor="middle">Oct 2025: 692 total (+166 this month)</text>
  </g>
  <g class="hoverpoint">
    <line x1="752.5" y1="30" x2="752.5" y2="160.0" class="guide"/>
    <circle cx="752.5" cy="128.3" r="16" class="hit"/>
    <circle cx="752.5" cy="128.3" r="4" class="hover-dot"><title>Nov 2025: 731 total (+39 this month)</title></circle>
    <rect x="682.5" y="102.3" width="140" height="20" rx="4" class="tooltip-bg"/>
    <text x="752.5" y="116.3" class="tooltip-text" text-anchor="middle">Nov 2025: 731 total (+39 this month)</text>
  </g>
  <g class="hoverpoint">
    <line x1="764.4" y1="30" x2="764.4" y2="160.0" class="guide"/>
    <circle cx="764.4" cy="126.1" r="16" class="hit"/>
    <circle cx="764.4" cy="126.1" r="4" class="hover-dot"><title>Dec 2025: 783 total (+52 this month)</title></circle>
    <rect x="694.4" y="100.1" width="140" height="20" rx="4" class="tooltip-bg"/>
    <text x="764.4" y="114.1" class="tooltip-text" text-anchor="middle">Dec 2025: 783 total (+52 this month)</text>
  </g>
  <g class="hoverpoint">
    <line x1="776.4" y1="30" x2="776.4" y2="160.0" class="guide"/>
    <circle cx="776.4" cy="115.7" r="16" class="hit"/>
    <circle cx="776.4" cy="115.7" r="4" class="hover-dot"><title>Jan 2026: 1,022 total (+239 this month)</title></circle>
    <rect x="706.4" y="89.7" width="140" height="20" rx="4" class="tooltip-bg"/>
    <text x="776.4" y="103.7" class="tooltip-text" text-anchor="middle">Jan 2026: 1,022 total (+239 this month)</text>
  </g>
  <g class="hoverpoint">
    <line x1="787.2" y1="30" x2="787.2" y2="160.0" class="guide"/>
    <circle cx="787.2" cy="102.8" r="16" class="hit"/>
    <circle cx="787.2" cy="102.8" r="4" class="hover-dot"><title>Feb 2026: 1,321 total (+299 this month)</title></circle>
    <rect x="717.2" y="76.8" width="140" height="20" rx="4" class="tooltip-bg"/>
    <text x="787.2" y="90.8" class="tooltip-text" text-anchor="middle">Feb 2026: 1,321 total (+299 this month)</text>
  </g>
  <g class="hoverpoint">
    <line x1="799.2" y1="30" x2="799.2" y2="160.0" class="guide"/>
    <circle cx="799.2" cy="89.9" r="16" class="hit"/>
    <circle cx="799.2" cy="89.9" r="4" class="hover-dot"><title>Mar 2026: 1,617 total (+296 this month)</title></circle>
    <rect x="729.2" y="63.9" width="140" height="20" rx="4" class="tooltip-bg"/>
    <text x="799.2" y="77.9" class="tooltip-text" text-anchor="middle">Mar 2026: 1,617 total (+296 this month)</text>
  </g>
  <g class="hoverpoint">
    <line x1="810.4" y1="30" x2="810.4" y2="160.0" class="guide"/>
    <circle cx="810.4" cy="84.4" r="16" class="hit"/>
    <circle cx="810.4" cy="84.4" r="4" class="hover-dot"><title>Apr 2026: 1,744 total (+127 this month)</title></circle>
    <rect x="740.4" y="58.4" width="140" height="20" rx="4" class="tooltip-bg"/>
    <text x="810.4" y="72.4" class="tooltip-text" text-anchor="middle">Apr 2026: 1,744 total (+127 this month)</text>
  </g>
  <g class="hoverpoint">
    <line x1="820.0" y1="30" x2="820.0" y2="160.0" class="guide"/>
    <circle cx="820.0" cy="52.4" r="16" class="hit"/>
    <circle cx="820.0" cy="52.4" r="4" class="hover-dot"><title>May 2026: 2,482 total (+738 this month)</title></circle>
    <rect x="750.0" y="26.4" width="140" height="20" rx="4" class="tooltip-bg"/>
    <text x="820.0" y="40.4" class="tooltip-text" text-anchor="middle">May 2026: 2,482 total (+738 this month)</text>
  </g>

  <circle cx="820.0" cy="52.4" r="4" class="dot"/>
  <text x="810.0" y="42.4" class="total">2,482</text>

</svg>