<svg xmlns="http://www.w3.org/2000/svg" width="840" height="196" viewBox="0 0 840 196" fill="none">
  <style>
    .label { font-family: -apple-system, BlinkMacSystemFont, 'Segoe UI', Helvetica, Arial, sans-serif; font-size: 10px; fill: #8b949e; }
    .title { font-family: -apple-system, BlinkMacSystemFont, 'Segoe UI', Helvetica, Arial, sans-serif; font-size: 11px; fill: #8b949e; font-weight: 600; }
    .total { font-family: -apple-system, BlinkMacSystemFont, 'Segoe UI', Helvetica, Arial, sans-serif; font-size: 11px; fill: #7ee787; font-weight: 600; }
    .grid { stroke: #21262d; stroke-width: 1; }
    .line { stroke: #7ee787; stroke-width: 2; stroke-linecap: round; stroke-linejoin: round; fill: none; }
    .dot { fill: #7ee787; }
    .area { fill: url(#areaGrad); }
    /* Hover interaction */
    .hoverpoint .guide { stroke: #7ee787; stroke-width: 1; stroke-dasharray: 2,2; opacity: 0; }
    .hoverpoint .hover-dot { fill: #7ee787; opacity: 0; }
    .hoverpoint .hit { fill: transparent; cursor: pointer; }
    .hoverpoint .tooltip-bg { fill: #161b22; stroke: #30363d; stroke-width: 1; opacity: 0; }
    .hoverpoint .tooltip-text { font-family: -apple-system, BlinkMacSystemFont, 'Segoe UI', Helvetica, Arial, sans-serif; font-size: 9px; fill: #c9d1d9; opacity: 0; }
    .hoverpoint:hover .guide { opacity: 0.5; }
    .hoverpoint:hover .hover-dot { opacity: 1; }
    .hoverpoint:hover .tooltip-bg { opacity: 0.95; }
    .hoverpoint:hover .tooltip-text { opacity: 1; }
  </style>
  <defs>
    <linearGradient id="areaGrad" x1="0" y1="0" x2="0" y2="1">
      <stop offset="0%" stop-color="#7ee787" stop-opacity="0.15"/>
      <stop offset="100%" stop-color="#7ee787" stop-opacity="0.01"/>
    </linearGradient>
  </defs>

  <text x="60" y="18" class="title">Cumulative Commits</text>

  <line x1="60" y1="160.0" x2="820" y2="160.0" class="grid"/>
  <text x="50" y="163.0" class="label" text-anchor="end">0</text>
  <line x1="60" y1="127.5" x2="820" y2="127.5" class="grid" stroke-dasharray="3,3"/>
  <text x="50" y="130.5" class="label" text-anchor="end">500</text>
  <line x1="60" y1="95.0" x2="820" y2="95.0" class="grid" stroke-dasharray="3,3"/>
  <text x="50" y="98.0" class="label" text-anchor="end">1,000</text>
  <line x1="60" y1="62.5" x2="820" y2="62.5" class="grid" stroke-dasharray="3,3"/>
  <text x="50" y="65.5" class="label" text-anchor="end">1,500</text>
  <line x1="60" y1="30.0" x2="820" y2="30.0" class="grid" stroke-dasharray="3,3"/>
  <text x="50" y="33.0" class="label" text-anchor="end">2,000</text>

  <text x="70.0" y="186" class="label" text-anchor="middle">2021</text>
  <text x="201.8" y="186" class="label" text-anchor="middle">2022</text>
  <text x="343.6" y="186" class="label" text-anchor="middle">2023</text>
  <text x="485.5" y="186" class="label" text-anchor="middle">2024</text>
  <text x="627.7" y="186" class="label" text-anchor="middle">2025</text>
  <text x="769.5" y="186" class="label" text-anchor="middle">2026</text>


  <path class="area" d="M60.0,160.0 L60.0,160.0 60.0,160.0 L181.6,159.7 L182.0,159.6 L183.2,159.5 L201.8,159.4 L202.2,159.0 L202.6,158.9 L203.0,158.6 L203.4,158.6 L203.8,158.4 L204.5,158.1 L204.9,157.9 L205.3,157.8 L205.7,157.7 L207.3,157.5 L207.6,157.5 L208.0,157.4 L211.9,157.3 L222.0,157.1 L275.3,157.1 L275.6,156.5 L277.2,156.4 L278.0,155.9 L283.8,155.8 L284.6,155.6 L285.0,155.4 L285.4,155.3 L286.1,155.1 L286.5,154.7 L286.9,154.0 L287.3,153.9 L288.9,153.6 L289.6,153.6 L291.6,153.4 L297.0,153.2 L307.5,153.0 L313.3,152.9 L316.1,152.8 L316.4,152.7 L316.8,152.5 L317.2,152.3 L318.4,151.8 L318.8,151.7 L319.2,151.7 L320.7,151.4 L321.1,151.1 L321.5,151.0 L321.9,150.4 L322.3,149.9 L322.7,149.7 L323.0,149.5 L323.8,149.4 L325.4,149.3 L329.7,149.1 L340.9,149.0 L341.3,148.7 L341.7,148.6 L345.6,148.0 L346.0,146.5 L347.1,146.3 L347.5,146.3 L349.5,146.1 L362.7,145.8 L363.1,145.7 L363.5,145.6 L364.2,145.4 L367.0,145.2 L367.7,144.9 L368.1,144.7 L370.1,144.6 L379.4,144.4 L570.6,144.3 L571.3,144.2 L572.1,144.1 L572.9,144.0 L573.3,143.9 L573.7,143.8 L574.0,143.8 L574.4,143.7 L578.3,143.6 L589.2,143.6 L592.3,143.5 L593.5,143.4 L595.8,143.4 L598.1,143.3 L598.5,143.2 L600.1,143.2 L601.2,143.1 L602.0,143.0 L630.8,143.0 L631.2,142.8 L631.9,142.8 L632.3,142.7 L633.5,142.5 L635.4,142.4 L640.9,142.3 L652.1,141.7 L652.5,141.5 L657.6,141.3 L658.0,141.2 L659.1,141.1 L660.7,140.9 L662.6,140.2 L663.0,138.4 L663.4,138.3 L665.7,138.2 L666.9,138.1 L667.3,138.0 L668.1,137.8 L671.2,137.7 L673.9,137.2 L675.8,136.7 L676.2,136.5 L677.4,136.2 L677.8,135.4 L678.2,135.2 L678.6,134.9 L679.0,134.7 L679.3,134.4 L680.1,133.9 L681.3,133.5 L695.3,133.3 L696.1,132.4 L704.6,132.2 L709.7,131.9 L712.0,131.9 L712.4,131.8 L714.7,131.7 L715.1,131.7 L715.5,131.6 L715.9,131.4 L716.3,131.1 L716.6,130.5 L717.0,130.4 L719.4,129.4 L719.8,129.3 L720.5,129.1 L723.3,128.8 L724.0,128.7 L724.4,128.5 L725.2,128.5 L725.6,128.0 L726.0,127.9 L726.7,127.8 L727.1,127.6 L727.5,127.6 L727.9,127.5 L729.5,127.1 L729.9,127.0 L730.2,126.8 L730.6,126.7 L731.0,126.6 L731.4,126.4 L732.6,126.1 L733.0,125.9 L733.4,125.8 L733.7,125.6 L734.1,125.2 L734.9,125.1 L735.3,124.4 L735.7,124.1 L736.1,122.8 L736.5,122.5 L736.9,122.2 L737.2,121.5 L737.6,121.4 L738.0,121.2 L738.4,121.1 L738.8,120.7 L740.7,120.0 L741.1,119.8 L741.5,119.2 L741.9,118.1 L742.3,118.0 L743.1,117.9 L743.5,116.9 L743.8,116.4 L744.2,116.3 L744.6,115.3 L745.4,115.0 L745.8,114.9 L746.2,114.8 L746.6,114.7 L747.0,114.6 L747.3,114.6 L748.9,114.4 L749.7,114.3 L750.1,113.8 L750.4,113.5 L751.6,113.5 L753.6,113.3 L755.9,113.1 L756.3,112.9 L756.7,112.9 L757.1,112.5 L757.4,111.6 L757.8,111.5 L758.2,111.4 L758.6,111.3 L759.0,111.1 L759.4,110.6 L763.7,110.5 L764.0,110.4 L767.5,109.9 L768.3,109.5 L768.7,109.4 L769.1,109.1 L769.5,109.0 L770.7,108.8 L771.0,107.9 L771.4,105.5 L771.8,103.5 L772.2,103.4 L772.6,103.1 L773.4,102.8 L773.8,102.5 L774.2,102.1 L774.9,102.0 L775.3,101.4 L775.7,101.3 L776.5,100.4 L776.9,100.3 L777.3,99.8 L777.6,99.5 L778.0,99.1 L778.4,99.0 L779.6,98.4 L780.0,98.1 L780.4,96.6 L780.8,94.4 L781.1,93.6 L781.5,92.6 L781.9,92.5 L782.3,92.1 L782.7,91.9 L783.1,91.4 L783.5,90.6 L783.9,90.6 L784.3,90.1 L784.6,90.0 L785.0,89.5 L785.4,89.0 L785.8,88.4 L786.2,87.8 L786.6,87.7 L787.0,87.5 L787.4,86.4 L787.8,84.4 L788.1,84.1 L788.9,83.7 L789.3,83.5 L789.7,83.4 L790.1,80.2 L790.5,78.8 L790.9,77.3 L791.2,76.8 L791.6,74.4 L792.0,74.1 L792.4,74.0 L792.8,73.5 L793.2,72.4 L793.6,70.4 L794.0,68.2 L794.4,68.1 L794.7,67.6 L795.5,67.5 L795.9,66.2 L796.3,65.2 L796.7,63.8 L797.1,63.6 L797.5,63.5 L797.9,61.4 L798.2,58.9 L798.6,57.8 L799.0,57.3 L799.4,56.6 L799.8,56.1 L800.2,56.0 L801.0,55.7 L801.3,55.3 L801.7,55.2 L802.1,55.1 L802.5,55.0 L803.7,55.0 L804.1,54.9 L804.8,54.8 L805.6,54.7 L806.0,54.6 L806.8,53.7 L807.2,53.1 L807.6,52.9 L809.9,52.8 L810.3,52.3 L810.7,52.2 L811.1,51.6 L811.5,51.6 L811.8,51.4 L812.2,51.3 L812.6,50.3 L813.0,49.4 L813.4,49.0 L813.8,47.0 L814.2,46.8 L814.9,46.7 L815.3,46.6 L816.5,46.4 L816.9,45.7 L817.3,45.5 L817.7,45.3 L818.4,41.2 L818.8,39.7 L819.2,39.3 L819.6,38.8 L820.0,38.1 L820.0,160.0 Z"/>
  <polyline class="line" points="60.0,160.0 181.6,159.7 182.0,159.6 183.2,159.5 201.8,159.4 202.2,159.0 202.6,158.9 203.0,158.6 203.4,158.6 203.8,158.4 204.5,158.1 204.9,157.9 205.3,157.8 205.7,157.7 207.3,157.5 207.6,157.5 208.0,157.4 211.9,157.3 222.0,157.1 275.3,157.1 275.6,156.5 277.2,156.4 278.0,155.9 283.8,155.8 284.6,155.6 285.0,155.4 285.4,155.3 286.1,155.1 286.5,154.7 286.9,154.0 287.3,153.9 288.9,153.6 289.6,153.6 291.6,153.4 297.0,153.2 307.5,153.0 313.3,152.9 316.1,152.8 316.4,152.7 316.8,152.5 317.2,152.3 318.4,151.8 318.8,151.7 319.2,151.7 320.7,151.4 321.1,151.1 321.5,151.0 321.9,150.4 322.3,149.9 322.7,149.7 323.0,149.5 323.8,149.4 325.4,149.3 329.7,149.1 340.9,149.0 341.3,148.7 341.7,148.6 345.6,148.0 346.0,146.5 347.1,146.3 347.5,146.3 349.5,146.1 362.7,145.8 363.1,145.7 363.5,145.6 364.2,145.4 367.0,145.2 367.7,144.9 368.1,144.7 370.1,144.6 379.4,144.4 570.6,144.3 571.3,144.2 572.1,144.1 572.9,144.0 573.3,143.9 573.7,143.8 574.0,143.8 574.4,143.7 578.3,143.6 589.2,143.6 592.3,143.5 593.5,143.4 595.8,143.4 598.1,143.3 598.5,143.2 600.1,143.2 601.2,143.1 602.0,143.0 630.8,143.0 631.2,142.8 631.9,142.8 632.3,142.7 633.5,142.5 635.4,142.4 640.9,142.3 652.1,141.7 652.5,141.5 657.6,141.3 658.0,141.2 659.1,141.1 660.7,140.9 662.6,140.2 663.0,138.4 663.4,138.3 665.7,138.2 666.9,138.1 667.3,138.0 668.1,137.8 671.2,137.7 673.9,137.2 675.8,136.7 676.2,136.5 677.4,136.2 677.8,135.4 678.2,135.2 678.6,134.9 679.0,134.7 679.3,134.4 680.1,133.9 681.3,133.5 695.3,133.3 696.1,132.4 704.6,132.2 709.7,131.9 712.0,131.9 712.4,131.8 714.7,131.7 715.1,131.7 715.5,131.6 715.9,131.4 716.3,131.1 716.6,130.5 717.0,130.4 719.4,129.4 719.8,129.3 720.5,129.1 723.3,128.8 724.0,128.7 724.4,128.5 725.2,128.5 725.6,128.0 726.0,127.9 726.7,127.8 727.1,127.6 727.5,127.6 727.9,127.5 729.5,127.1 729.9,127.0 730.2,126.8 730.6,126.7 731.0,126.6 731.4,126.4 732.6,126.1 733.0,125.9 733.4,125.8 733.7,125.6 734.1,125.2 734.9,125.1 735.3,124.4 735.7,124.1 736.1,122.8 736.5,122.5 736.9,122.2 737.2,121.5 737.6,121.4 738.0,121.2 738.4,121.1 738.8,120.7 740.7,120.0 741.1,119.8 741.5,119.2 741.9,118.1 742.3,118.0 743.1,117.9 743.5,116.9 743.8,116.4 744.2,116.3 744.6,115.3 745.4,115.0 745.8,114.9 746.2,114.8 746.6,114.7 747.0,114.6 747.3,114.6 748.9,114.4 749.7,114.3 750.1,113.8 750.4,113.5 751.6,113.5 753.6,113.3 755.9,113.1 756.3,112.9 756.7,112.9 757.1,112.5 757.4,111.6 757.8,111.5 758.2,111.4 758.6,111.3 759.0,111.1 759.4,110.6 763.7,110.5 764.0,110.4 767.5,109.9 768.3,109.5 768.7,109.4 769.1,109.1 769.5,109.0 770.7,108.8 771.0,107.9 771.4,105.5 771.8,103.5 772.2,103.4 772.6,103.1 773.4,102.8 773.8,102.5 774.2,102.1 774.9,102.0 775.3,101.4 775.7,101.3 776.5,100.4 776.9,100.3 777.3,99.8 777.6,99.5 778.0,99.1 778.4,99.0 779.6,98.4 780.0,98.1 780.4,96.6 780.8,94.4 781.1,93.6 781.5,92.6 781.9,92.5 782.3,92.1 782.7,91.9 783.1,91.4 783.5,90.6 783.9,90.6 784.3,90.1 784.6,90.0 785.0,89.5 785.4,89.0 785.8,88.4 786.2,87.8 786.6,87.7 787.0,87.5 787.4,86.4 787.8,84.4 788.1,84.1 788.9,83.7 789.3,83.5 789.7,83.4 790.1,80.2 790.5,78.8 790.9,77.3 791.2,76.8 791.6,74.4 792.0,74.1 792.4,74.0 792.8,73.5 793.2,72.4 793.6,70.4 794.0,68.2 794.4,68.1 794.7,67.6 795.5,67.5 795.9,66.2 796.3,65.2 796.7,63.8 797.1,63.6 797.5,63.5 797.9,61.4 798.2,58.9 798.6,57.8 799.0,57.3 799.4,56.6 799.8,56.1 800.2,56.0 801.0,55.7 801.3,55.3 801.7,55.2 802.1,55.1 802.5,55.0 803.7,55.0 804.1,54.9 804.8,54.8 805.6,54.7 806.0,54.6 806.8,53.7 807.2,53.1 807.6,52.9 809.9,52.8 810.3,52.3 810.7,52.2 811.1,51.6 811.5,51.6 811.8,51.4 812.2,51.3 812.6,50.3 813.0,49.4 813.4,49.0 813.8,47.0 814.2,46.8 814.9,46.7 815.3,46.6 816.5,46.4 816.9,45.7 817.3,45.5 817.7,45.3 818.4,41.2 818.8,39.7 819.2,39.3 819.6,38.8 820.0,38.1"/>

  <g class="hoverpoint">
    <line x1="183.2" y1="30" x2="183.2" y2="160.0" class="guide"/>
    <circle cx="183.2" cy="159.5" r="16" class="hit"/>
    <circle cx="183.2" cy="159.5" r="4" class="hover-dot"><title>Nov 2021: 7 total (+7 this month)</title></circle>
    <rect x="113.2" y="133.5" width="140" height="20" rx="4" class="tooltip-bg"/>
    <text x="183.2" y="147.5" class="tooltip-text" text-anchor="middle">Nov 2021: 7 total (+7 this month)</text>
  </g>
  <g class="hoverpoint">
    <line x1="211.9" y1="30" x2="211.9" y2="160.0" class="guide"/>
    <circle cx="211.9" cy="157.3" r="16" class="hit"/>
    <circle cx="211.9" cy="157.3" r="4" class="hover-dot"><title>Jan 2022: 41 total (+34 this month)</title></circle>
    <rect x="141.9" y="131.3" width="140" height="20" rx="4" class="tooltip-bg"/>
    <text x="211.9" y="145.3" class="tooltip-text" text-anchor="middle">Jan 2022: 41 total (+34 this month)</text>
  </g>
  <g class="hoverpoint">
    <line x1="222.0" y1="30" x2="222.0" y2="160.0" class="guide"/>
    <circle cx="222.0" cy="157.1" r="16" class="hit"/>
    <circle cx="222.0" cy="157.1" r="4" class="hover-dot"><title>Feb 2022: 44 total (+3 this month)</title></circle>
    <rect x="152.0" y="131.1" width="140" height="20" rx="4" class="tooltip-bg"/>
    <text x="222.0" y="145.1" class="tooltip-text" text-anchor="middle">Feb 2022: 44 total (+3 this month)</text>
  </g>
  <g class="hoverpoint">
    <line x1="283.8" y1="30" x2="283.8" y2="160.0" class="guide"/>
    <circle cx="283.8" cy="155.8" r="16" class="hit"/>
    <circle cx="283.8" cy="155.8" r="4" class="hover-dot"><title>Jul 2022: 65 total (+21 this month)</title></circle>
    <rect x="213.8" y="129.8" width="140" height="20" rx="4" class="tooltip-bg"/>
    <text x="283.8" y="143.8" class="tooltip-text" text-anchor="middle">Jul 2022: 65 total (+21 this month)</text>
  </g>
  <g class="hoverpoint">
    <line x1="291.6" y1="30" x2="291.6" y2="160.0" class="guide"/>
    <circle cx="291.6" cy="153.4" r="16" class="hit"/>
    <circle cx="291.6" cy="153.4" r="4" class="hover-dot"><title>Aug 2022: 101 total (+36 this month)</title></circle>
    <rect x="221.6" y="127.4" width="140" height="20" rx="4" class="tooltip-bg"/>
    <text x="291.6" y="141.4" class="tooltip-text" text-anchor="middle">Aug 2022: 101 total (+36 this month)</text>
  </g>
  <g class="hoverpoint">
    <line x1="307.5" y1="30" x2="307.5" y2="160.0" class="guide"/>
    <circle cx="307.5" cy="153.0" r="16" class="hit"/>
    <circle cx="307.5" cy="153.0" r="4" class="hover-dot"><title>Sep 2022: 108 total (+7 this month)</title></circle>
    <rect x="237.5" y="127.0" width="140" height="20" rx="4" class="tooltip-bg"/>
    <text x="307.5" y="141.0" class="tooltip-text" text-anchor="middle">Sep 2022: 108 total (+7 this month)</text>
  </g>
  <g class="hoverpoint">
    <line x1="319.2" y1="30" x2="319.2" y2="160.0" class="guide"/>
    <circle cx="319.2" cy="151.7" r="16" class="hit"/>
    <circle cx="319.2" cy="151.7" r="4" class="hover-dot"><title>Oct 2022: 128 total (+20 this month)</title></circle>
    <rect x="249.2" y="125.7" width="140" height="20" rx="4" class="tooltip-bg"/>
    <text x="319.2" y="139.7" class="tooltip-text" text-anchor="middle">Oct 2022: 128 total (+20 this month)</text>
  </g>
  <g class="hoverpoint">
    <line x1="329.7" y1="30" x2="329.7" y2="160.0" class="guide"/>
    <circle cx="329.7" cy="149.1" r="16" class="hit"/>
    <circle cx="329.7" cy="149.1" r="4" class="hover-dot"><title>Nov 2022: 168 total (+40 this month)</title></circle>
    <rect x="259.7" y="123.1" width="140" height="20" rx="4" class="tooltip-bg"/>
    <text x="329.7" y="137.1" class="tooltip-text" text-anchor="middle">Nov 2022: 168 total (+40 this month)</text>
  </g>
  <g class="hoverpoint">
    <line x1="341.7" y1="30" x2="341.7" y2="160.0" class="guide"/>
    <circle cx="341.7" cy="148.6" r="16" class="hit"/>
    <circle cx="341.7" cy="148.6" r="4" class="hover-dot"><title>Dec 2022: 175 total (+7 this month)</title></circle>
    <rect x="271.7" y="122.6" width="140" height="20" rx="4" class="tooltip-bg"/>
    <text x="341.7" y="136.6" class="tooltip-text" text-anchor="middle">Dec 2022: 175 total (+7 this month)</text>
  </g>
  <g class="hoverpoint">
    <line x1="349.5" y1="30" x2="349.5" y2="160.0" class="guide"/>
    <circle cx="349.5" cy="146.1" r="16" class="hit"/>
    <circle cx="349.5" cy="146.1" r="4" class="hover-dot"><title>Jan 2023: 214 total (+39 this month)</title></circle>
    <rect x="279.5" y="120.1" width="140" height="20" rx="4" class="tooltip-bg"/>
    <text x="349.5" y="134.1" class="tooltip-text" text-anchor="middle">Jan 2023: 214 total (+39 this month)</text>
  </g>
  <g class="hoverpoint">
    <line x1="364.2" y1="30" x2="364.2" y2="160.0" class="guide"/>
    <circle cx="364.2" cy="145.4" r="16" class="hit"/>
    <circle cx="364.2" cy="145.4" r="4" class="hover-dot"><title>Feb 2023: 225 total (+11 this month)</title></circle>
    <rect x="294.2" y="119.4" width="140" height="20" rx="4" class="tooltip-bg"/>
    <text x="364.2" y="133.4" class="tooltip-text" text-anchor="middle">Feb 2023: 225 total (+11 this month)</text>
  </g>
  <g class="hoverpoint">
    <line x1="370.1" y1="30" x2="370.1" y2="160.0" class="guide"/>
    <circle cx="370.1" cy="144.6" r="16" class="hit"/>
    <circle cx="370.1" cy="144.6" r="4" class="hover-dot"><title>Mar 2023: 237 total (+12 this month)</title></circle>
    <rect x="300.1" y="118.6" width="140" height="20" rx="4" class="tooltip-bg"/>
    <text x="370.1" y="132.6" class="tooltip-text" text-anchor="middle">Mar 2023: 237 total (+12 this month)</text>
  </g>
  <g class="hoverpoint">
    <line x1="379.4" y1="30" x2="379.4" y2="160.0" class="guide"/>
    <circle cx="379.4" cy="144.4" r="16" class="hit"/>
    <circle cx="379.4" cy="144.4" r="4" class="hover-dot"><title>Apr 2023: 240 total (+3 this month)</title></circle>
    <rect x="309.4" y="118.4" width="140" height="20" rx="4" class="tooltip-bg"/>
    <text x="379.4" y="132.4" class="tooltip-text" text-anchor="middle">Apr 2023: 240 total (+3 this month)</text>
  </g>
  <g class="hoverpoint">
    <line x1="578.3" y1="30" x2="578.3" y2="160.0" class="guide"/>
    <circle cx="578.3" cy="143.6" r="16" class="hit"/>
    <circle cx="578.3" cy="143.6" r="4" class="hover-dot"><title>Aug 2024: 252 total (+12 this month)</title></circle>
    <rect x="508.3" y="117.6" width="140" height="20" rx="4" class="tooltip-bg"/>
    <text x="578.3" y="131.6" class="tooltip-text" text-anchor="middle">Aug 2024: 252 total (+12 this month)</text>
  </g>
  <g class="hoverpoint">
    <line x1="589.2" y1="30" x2="589.2" y2="160.0" class="guide"/>
    <circle cx="589.2" cy="143.6" r="16" class="hit"/>
    <circle cx="589.2" cy="143.6" r="4" class="hover-dot"><title>Sep 2024: 253 total (+1 this month)</title></circle>
    <rect x="519.2" y="117.6" width="140" height="20" rx="4" class="tooltip-bg"/>
    <text x="589.2" y="131.6" class="tooltip-text" text-anchor="middle">Sep 2024: 253 total (+1 this month)</text>
  </g>
  <g class="hoverpoint">
    <line x1="602.0" y1="30" x2="602.0" y2="160.0" class="guide"/>
    <circle cx="602.0" cy="143.0" r="16" class="hit"/>
    <circle cx="602.0" cy="143.0" r="4" class="hover-dot"><title>Oct 2024: 261 total (+8 this month)</title></circle>
    <rect x="532.0" y="117.0" width="140" height="20" rx="4" class="tooltip-bg"/>
    <text x="602.0" y="131.0" class="tooltip-text" text-anchor="middle">Oct 2024: 261 total (+8 this month)</text>
  </g>
  <g class="hoverpoint">
    <line x1="635.4" y1="30" x2="635.4" y2="160.0" class="guide"/>
    <circle cx="635.4" cy="142.4" r="16" class="hit"/>
    <circle cx="635.4" cy="142.4" r="4" class="hover-dot"><title>Jan 2025: 270 total (+9 this month)</title></circle>
    <rect x="565.4" y="116.4" width="140" height="20" rx="4" class="tooltip-bg"/>
    <text x="635.4" y="130.4" class="tooltip-text" text-anchor="middle">Jan 2025: 270 total (+9 this month)</text>
  </g>
  <g class="hoverpoint">
    <line x1="640.9" y1="30" x2="640.9" y2="160.0" class="guide"/>
    <circle cx="640.9" cy="142.3" r="16" class="hit"/>
    <circle cx="640.9" cy="142.3" r="4" class="hover-dot"><title>Feb 2025: 272 total (+2 this month)</title></circle>
    <rect x="570.9" y="116.3" width="140" height="20" rx="4" class="tooltip-bg"/>
    <text x="640.9" y="130.3" class="tooltip-text" text-anchor="middle">Feb 2025: 272 total (+2 this month)</text>
  </g>
  <g class="hoverpoint">
    <line x1="660.7" y1="30" x2="660.7" y2="160.0" class="guide"/>
    <circle cx="660.7" cy="140.9" r="16" class="hit"/>
    <circle cx="660.7" cy="140.9" r="4" class="hover-dot"><title>Mar 2025: 294 total (+22 this month)</title></circle>
    <rect x="590.7" y="114.9" width="140" height="20" rx="4" class="tooltip-bg"/>
    <text x="660.7" y="128.9" class="tooltip-text" text-anchor="middle">Mar 2025: 294 total (+22 this month)</text>
  </g>
  <g class="hoverpoint">
    <line x1="673.9" y1="30" x2="673.9" y2="160.0" class="guide"/>
    <circle cx="673.9" cy="137.2" r="16" class="hit"/>
    <circle cx="673.9" cy="137.2" r="4" class="hover-dot"><title>Apr 2025: 351 total (+57 this month)</title></circle>
    <rect x="603.9" y="111.2" width="140" height="20" rx="4" class="tooltip-bg"/>
    <text x="673.9" y="125.2" class="tooltip-text" text-anchor="middle">Apr 2025: 351 total (+57 this month)</text>
  </g>
  <g class="hoverpoint">
    <line x1="681.3" y1="30" x2="681.3" y2="160.0" class="guide"/>
    <circle cx="681.3" cy="133.5" r="16" class="hit"/>
    <circle cx="681.3" cy="133.5" r="4" class="hover-dot"><title>May 2025: 408 total (+57 this month)</title></circle>
    <rect x="611.3" y="107.5" width="140" height="20" rx="4" class="tooltip-bg"/>
    <text x="681.3" y="121.5" class="tooltip-text" text-anchor="middle">May 2025: 408 total (+57 this month)</text>
  </g>
  <g class="hoverpoint">
    <line x1="696.1" y1="30" x2="696.1" y2="160.0" class="guide"/>
    <circle cx="696.1" cy="132.4" r="16" class="hit"/>
    <circle cx="696.1" cy="132.4" r="4" class="hover-dot"><title>Jun 2025: 424 total (+16 this month)</title></circle>
    <rect x="626.1" y="106.4" width="140" height="20" rx="4" class="tooltip-bg"/>
    <text x="696.1" y="120.4" class="tooltip-text" text-anchor="middle">Jun 2025: 424 total (+16 this month)</text>
  </g>
  <g class="hoverpoint">
    <line x1="709.7" y1="30" x2="709.7" y2="160.0" class="guide"/>
    <circle cx="709.7" cy="131.9" r="16" class="hit"/>
    <circle cx="709.7" cy="131.9" r="4" class="hover-dot"><title>Jul 2025: 432 total (+8 this month)</title></circle>
    <rect x="639.7" y="105.9" width="140" height="20" rx="4" class="tooltip-bg"/>
    <text x="709.7" y="119.9" class="tooltip-text" text-anchor="middle">Jul 2025: 432 total (+8 this month)</text>
  </g>
  <g class="hoverpoint">
    <line x1="720.5" y1="30" x2="720.5" y2="160.0" class="guide"/>
    <circle cx="720.5" cy="129.1" r="16" class="hit"/>
    <circle cx="720.5" cy="129.1" r="4" class="hover-dot"><title>Aug 2025: 475 total (+43 this month)</title></circle>
    <rect x="650.5" y="103.1" width="140" height="20" rx="4" class="tooltip-bg"/>
    <text x="720.5" y="117.1" class="tooltip-text" text-anchor="middle">Aug 2025: 475 total (+43 this month)</text>
  </g>
  <g class="hoverpoint">
    <line x1="733.4" y1="30" x2="733.4" y2="160.0" class="guide"/>
    <circle cx="733.4" cy="125.8" r="16" class="hit"/>
    <circle cx="733.4" cy="125.8" r="4" class="hover-dot"><title>Sep 2025: 526 total (+51 this month)</title></circle>
    <rect x="663.4" y="99.8" width="140" height="20" rx="4" class="tooltip-bg"/>
    <text x="733.4" y="113.8" class="tooltip-text" text-anchor="middle">Sep 2025: 526 total (+51 this month)</text>
  </g>
  <g class="hoverpoint">
    <line x1="745.4" y1="30" x2="745.4" y2="160.0" class="guide"/>
    <circle cx="745.4" cy="115.0" r="16" class="hit"/>
    <circle cx="745.4" cy="115.0" r="4" class="hover-dot"><title>Oct 2025: 692 total (+166 this month)</title></circle>
    <rect x="675.4" y="89.0" width="140" height="20" rx="4" class="tooltip-bg"/>
    <text x="745.4" y="103.0" class="tooltip-text" text-anchor="middle">Oct 2025: 692 total (+166 this month)</text>
  </g>
  <g class="hoverpoint">
    <line x1="757.1" y1="30" x2="757.1" y2="160.0" class="guide"/>
    <circle cx="757.1" cy="112.5" r="16" class="hit"/>
    <circle cx="757.1" cy="112.5" r="4" class="hover-dot"><title>Nov 2025: 731 total (+39 this month)</title></circle>
    <rect x="687.1" y="86.5" width="140" height="20" rx="4" class="tooltip-bg"/>
    <text x="757.1" y="100.5" class="tooltip-text" text-anchor="middle">Nov 2025: 731 total (+39 this month)</text>
  </g>
  <g class="hoverpoint">
    <line x1="769.1" y1="30" x2="769.1" y2="160.0" class="guide"/>
    <circle cx="769.1" cy="109.1" r="16" class="hit"/>
    <circle cx="769.1" cy="109.1" r="4" class="hover-dot"><title>Dec 2025: 783 total (+52 this month)</title></circle>
    <rect x="699.1" y="83.1" width="140" height="20" rx="4" class="tooltip-bg"/>
    <text x="769.1" y="97.1" class="tooltip-text" text-anchor="middle">Dec 2025: 783 total (+52 this month)</text>
  </g>
  <g class="hoverpoint">
    <line x1="781.1" y1="30" x2="781.1" y2="160.0" class="guide"/>
    <circle cx="781.1" cy="93.6" r="16" class="hit"/>
    <circle cx="781.1" cy="93.6" r="4" class="hover-dot"><title>Jan 2026: 1,022 total (+239 this month)</title></circle>
    <rect x="711.1" y="67.6" width="140" height="20" rx="4" class="tooltip-bg"/>
    <text x="781.1" y="81.6" class="tooltip-text" text-anchor="middle">Jan 2026: 1,022 total (+239 this month)</text>
  </g>
  <g class="hoverpoint">
    <line x1="792.0" y1="30" x2="792.0" y2="160.0" class="guide"/>
    <circle cx="792.0" cy="74.1" r="16" class="hit"/>
    <circle cx="792.0" cy="74.1" r="4" class="hover-dot"><title>Feb 2026: 1,321 total (+299 this month)</title></circle>
    <rect x="722.0" y="48.1" width="140" height="20" rx="4" class="tooltip-bg"/>
    <text x="792.0" y="62.1" class="tooltip-text" text-anchor="middle">Feb 2026: 1,321 total (+299 this month)</text>
  </g>
  <g class="hoverpoint">
    <line x1="804.1" y1="30" x2="804.1" y2="160.0" class="guide"/>
    <circle cx="804.1" cy="54.9" r="16" class="hit"/>
    <circle cx="804.1" cy="54.9" r="4" class="hover-dot"><title>Mar 2026: 1,617 total (+296 this month)</title></circle>
    <rect x="734.1" y="28.9" width="140" height="20" rx="4" class="tooltip-bg"/>
    <text x="804.1" y="42.9" class="tooltip-text" text-anchor="middle">Mar 2026: 1,617 total (+296 this month)</text>
  </g>
  <g class="hoverpoint">
    <line x1="815.3" y1="30" x2="815.3" y2="160.0" class="guide"/>
    <circle cx="815.3" cy="46.6" r="16" class="hit"/>
    <circle cx="815.3" cy="46.6" r="4" class="hover-dot"><title>Apr 2026: 1,744 total (+127 this month)</title></circle>
    <rect x="745.3" y="20.6" width="140" height="20" rx="4" class="tooltip-bg"/>
    <text x="815.3" y="34.6" class="tooltip-text" text-anchor="middle">Apr 2026: 1,744 total (+127 this month)</text>
  </g>
  <g class="hoverpoint">
    <line x1="820.0" y1="30" x2="820.0" y2="160.0" class="guide"/>
    <circle cx="820.0" cy="38.1" r="16" class="hit"/>
    <circle cx="820.0" cy="38.1" r="4" class="hover-dot"><title>May 2026: 1,875 total (+131 this month)</title></circle>
    <rect x="750.0" y="12.1" width="140" height="20" rx="4" class="tooltip-bg"/>
    <text x="820.0" y="26.1" class="tooltip-text" text-anchor="middle">May 2026: 1,875 total (+131 this month)</text>
  </g>

  <circle cx="820.0" cy="38.1" r="4" class="dot"/>
  <text x="810.0" y="28.1" class="total">1,875</text>

</svg>