<svg xmlns="http://www.w3.org/2000/svg" width="840" height="196" viewBox="0 0 840 196" fill="none">
  <style>
    .label { font-family: -apple-system, BlinkMacSystemFont, 'Segoe UI', Helvetica, Arial, sans-serif; font-size: 10px; fill: #8b949e; }
    .title { font-family: -apple-system, BlinkMacSystemFont, 'Segoe UI', Helvetica, Arial, sans-serif; font-size: 11px; fill: #8b949e; font-weight: 600; }
    .total { font-family: -apple-system, BlinkMacSystemFont, 'Segoe UI', Helvetica, Arial, sans-serif; font-size: 11px; fill: #7ee787; font-weight: 600; }
    .grid { stroke: #21262d; stroke-width: 1; }
    .line { stroke: #7ee787; stroke-width: 2; stroke-linecap: round; stroke-linejoin: round; fill: none; }
    .dot { fill: #7ee787; }
    .area { fill: url(#areaGrad); }
    /* Hover interaction */
    .hoverpoint .guide { stroke: #7ee787; stroke-width: 1; stroke-dasharray: 2,2; opacity: 0; }
    .hoverpoint .hover-dot { fill: #7ee787; opacity: 0; }
    .hoverpoint .hit { fill: transparent; cursor: pointer; }
    .hoverpoint .tooltip-bg { fill: #161b22; stroke: #30363d; stroke-width: 1; opacity: 0; }
    .hoverpoint .tooltip-text { font-family: -apple-system, BlinkMacSystemFont, 'Segoe UI', Helvetica, Arial, sans-serif; font-size: 9px; fill: #c9d1d9; opacity: 0; }
    .hoverpoint:hover .guide { opacity: 0.5; }
    .hoverpoint:hover .hover-dot { opacity: 1; }
    .hoverpoint:hover .tooltip-bg { opacity: 0.95; }
    .hoverpoint:hover .tooltip-text { opacity: 1; }
  </style>
  <defs>
    <linearGradient id="areaGrad" x1="0" y1="0" x2="0" y2="1">
      <stop offset="0%" stop-color="#7ee787" stop-opacity="0.15"/>
      <stop offset="100%" stop-color="#7ee787" stop-opacity="0.01"/>
    </linearGradient>
  </defs>

  <text x="60" y="18" class="title">Cumulative Commits</text>

  <line x1="60" y1="160.0" x2="820" y2="160.0" class="grid"/>
  <text x="50" y="163.0" class="label" text-anchor="end">0</text>
  <line x1="60" y1="127.5" x2="820" y2="127.5" class="grid" stroke-dasharray="3,3"/>
  <text x="50" y="130.5" class="label" text-anchor="end">1,000</text>
  <line x1="60" y1="95.0" x2="820" y2="95.0" class="grid" stroke-dasharray="3,3"/>
  <text x="50" y="98.0" class="label" text-anchor="end">2,000</text>
  <line x1="60" y1="62.5" x2="820" y2="62.5" class="grid" stroke-dasharray="3,3"/>
  <text x="50" y="65.5" class="label" text-anchor="end">3,000</text>
  <line x1="60" y1="30.0" x2="820" y2="30.0" class="grid" stroke-dasharray="3,3"/>
  <text x="50" y="33.0" class="label" text-anchor="end">4,000</text>

  <text x="70.0" y="186" class="label" text-anchor="middle">2021</text>
  <text x="199.4" y="186" class="label" text-anchor="middle">2022</text>
  <text x="338.8" y="186" class="label" text-anchor="middle">2023</text>
  <text x="478.2" y="186" class="label" text-anchor="middle">2024</text>
  <text x="618.0" y="186" class="label" text-anchor="middle">2025</text>
  <text x="757.4" y="186" class="label" text-anchor="middle">2026</text>


  <path class="area" d="M60.0,160.0 L60.0,160.0 60.0,160.0 L179.5,159.8 L179.9,159.8 L181.1,159.8 L199.4,159.7 L199.8,159.5 L200.2,159.4 L200.5,159.3 L200.9,159.3 L201.3,159.2 L202.1,159.1 L202.5,159.0 L202.8,158.9 L203.2,158.9 L204.7,158.8 L205.1,158.7 L205.5,158.7 L209.3,158.7 L219.3,158.6 L271.6,158.5 L272.0,158.2 L273.5,158.2 L274.3,158.0 L280.0,157.9 L280.7,157.8 L281.1,157.7 L281.5,157.7 L282.3,157.6 L282.7,157.3 L283.0,157.0 L283.4,156.9 L284.9,156.8 L285.7,156.8 L287.6,156.7 L293.0,156.6 L303.3,156.5 L309.0,156.5 L311.7,156.4 L312.1,156.4 L312.4,156.3 L312.8,156.1 L314.0,155.9 L314.4,155.9 L314.7,155.8 L316.3,155.7 L316.6,155.5 L317.0,155.5 L317.4,155.2 L317.8,154.9 L318.2,154.8 L318.6,154.8 L319.3,154.7 L320.8,154.6 L325.0,154.5 L336.1,154.5 L336.5,154.3 L336.9,154.3 L340.7,154.0 L341.1,153.3 L342.2,153.2 L342.6,153.1 L344.5,153.0 L357.5,152.9 L357.9,152.8 L358.3,152.8 L359.0,152.7 L361.7,152.6 L362.5,152.4 L362.9,152.4 L364.8,152.3 L373.9,152.2 L561.8,152.1 L562.6,152.1 L563.4,152.1 L564.1,152.0 L564.5,151.9 L564.9,151.9 L565.3,151.9 L565.6,151.8 L569.5,151.8 L580.2,151.8 L583.2,151.7 L584.4,151.7 L586.7,151.7 L588.9,151.6 L589.3,151.6 L590.9,151.6 L592.0,151.6 L592.8,151.5 L621.0,151.5 L621.4,151.4 L622.2,151.4 L622.6,151.4 L623.7,151.3 L625.6,151.2 L631.0,151.2 L642.0,150.9 L642.4,150.7 L647.4,150.7 L647.8,150.6 L648.9,150.5 L650.4,150.4 L652.3,150.1 L652.7,149.2 L653.1,149.1 L655.4,149.1 L656.5,149.0 L656.9,149.0 L657.7,148.9 L660.7,148.9 L663.4,148.6 L665.3,148.4 L665.7,148.3 L666.9,148.1 L667.2,147.7 L667.6,147.6 L668.0,147.5 L668.4,147.4 L668.8,147.2 L669.5,146.9 L670.7,146.7 L684.4,146.6 L685.2,146.2 L693.6,146.1 L698.6,146.0 L700.8,145.9 L701.2,145.9 L703.5,145.9 L703.9,145.8 L704.3,145.8 L704.7,145.7 L705.0,145.6 L705.4,145.2 L705.8,145.2 L708.1,144.7 L708.5,144.6 L709.2,144.6 L711.9,144.4 L712.7,144.4 L713.1,144.3 L713.8,144.2 L714.2,144.0 L714.6,143.9 L715.4,143.9 L715.7,143.8 L716.1,143.8 L716.5,143.8 L718.0,143.6 L718.4,143.5 L718.8,143.4 L719.2,143.4 L719.6,143.3 L719.9,143.2 L721.1,143.1 L721.5,143.0 L721.8,142.9 L722.2,142.8 L722.6,142.6 L723.4,142.5 L723.8,142.2 L724.1,142.0 L724.5,141.4 L724.9,141.2 L725.3,141.1 L725.7,140.8 L726.1,140.7 L726.4,140.6 L726.8,140.6 L727.2,140.3 L729.1,140.0 L729.5,139.9 L729.9,139.6 L730.3,139.0 L730.6,139.0 L731.4,138.9 L731.8,138.5 L732.2,138.2 L732.5,138.2 L732.9,137.6 L733.7,137.5 L734.1,137.4 L734.5,137.4 L734.8,137.3 L735.2,137.3 L735.6,137.3 L737.1,137.2 L737.9,137.2 L738.3,136.9 L738.7,136.8 L739.8,136.7 L741.7,136.7 L744.0,136.5 L744.4,136.5 L744.8,136.4 L745.1,136.2 L745.5,135.8 L745.9,135.8 L746.3,135.7 L746.7,135.7 L747.1,135.6 L747.4,135.3 L751.6,135.2 L752.0,135.2 L755.5,135.0 L756.2,134.7 L756.6,134.7 L757.0,134.6 L757.4,134.5 L758.5,134.4 L758.9,133.9 L759.3,132.8 L759.7,131.7 L760.0,131.7 L760.4,131.6 L761.2,131.4 L761.6,131.3 L761.9,131.0 L762.7,131.0 L763.1,130.7 L763.5,130.7 L764.2,130.2 L764.6,130.2 L765.0,129.9 L765.4,129.7 L765.8,129.5 L766.2,129.5 L767.3,129.2 L767.7,129.1 L768.1,128.3 L768.4,127.2 L768.8,126.8 L769.2,126.3 L769.6,126.2 L770.0,126.1 L770.4,125.9 L770.7,125.7 L771.1,125.3 L771.5,125.3 L771.9,125.0 L772.3,125.0 L772.6,124.7 L773.0,124.5 L773.4,124.2 L773.8,123.9 L774.2,123.8 L774.6,123.7 L774.9,123.2 L775.3,122.2 L775.7,122.0 L776.5,121.8 L776.8,121.7 L777.2,121.7 L777.6,120.1 L778.0,119.4 L778.4,118.7 L778.8,118.4 L779.1,117.2 L779.5,117.1 L779.9,117.0 L780.3,116.7 L780.7,116.2 L781.0,115.2 L781.4,114.1 L781.8,114.0 L782.2,113.8 L783.0,113.8 L783.3,113.1 L783.7,112.6 L784.1,111.9 L784.5,111.8 L784.9,111.8 L785.2,110.7 L785.6,109.5 L786.0,108.9 L786.4,108.7 L786.8,108.3 L787.2,108.0 L787.5,108.0 L788.3,107.8 L788.7,107.6 L789.1,107.6 L789.4,107.5 L789.8,107.5 L791.0,107.5 L791.4,107.4 L792.1,107.4 L792.9,107.3 L793.3,107.3 L794.0,106.9 L794.4,106.6 L794.8,106.3 L797.1,106.2 L797.5,106.0 L797.8,105.9 L798.2,105.7 L798.6,105.6 L799.0,105.5 L799.4,105.5 L799.8,105.0 L800.1,104.5 L800.5,104.3 L800.9,103.4 L801.3,103.2 L802.1,103.2 L802.4,103.2 L803.6,102.9 L804.0,102.5 L804.3,102.2 L804.7,102.0 L805.1,101.3 L805.5,98.5 L805.9,97.3 L806.3,97.1 L806.6,96.9 L807.0,96.4 L807.4,96.3 L807.8,92.4 L808.2,87.6 L808.5,86.2 L808.9,86.2 L809.3,85.4 L809.7,84.9 L810.1,82.0 L810.5,80.2 L810.8,77.5 L811.2,77.0 L811.6,76.9 L812.0,76.8 L812.4,75.9 L812.7,74.6 L813.1,71.6 L813.5,71.1 L813.9,70.5 L814.3,69.7 L814.7,69.2 L815.0,68.7 L815.4,66.9 L815.8,66.5 L816.2,66.4 L816.6,66.1 L816.9,66.0 L817.3,65.7 L817.7,65.6 L818.1,64.7 L818.5,63.4 L818.9,62.9 L819.2,62.8 L819.6,62.4 L820.0,61.7 L820.0,160.0 Z"/>
  <polyline class="line" points="60.0,160.0 179.5,159.8 179.9,159.8 181.1,159.8 199.4,159.7 199.8,159.5 200.2,159.4 200.5,159.3 200.9,159.3 201.3,159.2 202.1,159.1 202.5,159.0 202.8,158.9 203.2,158.9 204.7,158.8 205.1,158.7 205.5,158.7 209.3,158.7 219.3,158.6 271.6,158.5 272.0,158.2 273.5,158.2 274.3,158.0 280.0,157.9 280.7,157.8 281.1,157.7 281.5,157.7 282.3,157.6 282.7,157.3 283.0,157.0 283.4,156.9 284.9,156.8 285.7,156.8 287.6,156.7 293.0,156.6 303.3,156.5 309.0,156.5 311.7,156.4 312.1,156.4 312.4,156.3 312.8,156.1 314.0,155.9 314.4,155.9 314.7,155.8 316.3,155.7 316.6,155.5 317.0,155.5 317.4,155.2 317.8,154.9 318.2,154.8 318.6,154.8 319.3,154.7 320.8,154.6 325.0,154.5 336.1,154.5 336.5,154.3 336.9,154.3 340.7,154.0 341.1,153.3 342.2,153.2 342.6,153.1 344.5,153.0 357.5,152.9 357.9,152.8 358.3,152.8 359.0,152.7 361.7,152.6 362.5,152.4 362.9,152.4 364.8,152.3 373.9,152.2 561.8,152.1 562.6,152.1 563.4,152.1 564.1,152.0 564.5,151.9 564.9,151.9 565.3,151.9 565.6,151.8 569.5,151.8 580.2,151.8 583.2,151.7 584.4,151.7 586.7,151.7 588.9,151.6 589.3,151.6 590.9,151.6 592.0,151.6 592.8,151.5 621.0,151.5 621.4,151.4 622.2,151.4 622.6,151.4 623.7,151.3 625.6,151.2 631.0,151.2 642.0,150.9 642.4,150.7 647.4,150.7 647.8,150.6 648.9,150.5 650.4,150.4 652.3,150.1 652.7,149.2 653.1,149.1 655.4,149.1 656.5,149.0 656.9,149.0 657.7,148.9 660.7,148.9 663.4,148.6 665.3,148.4 665.7,148.3 666.9,148.1 667.2,147.7 667.6,147.6 668.0,147.5 668.4,147.4 668.8,147.2 669.5,146.9 670.7,146.7 684.4,146.6 685.2,146.2 693.6,146.1 698.6,146.0 700.8,145.9 701.2,145.9 703.5,145.9 703.9,145.8 704.3,145.8 704.7,145.7 705.0,145.6 705.4,145.2 705.8,145.2 708.1,144.7 708.5,144.6 709.2,144.6 711.9,144.4 712.7,144.4 713.1,144.3 713.8,144.2 714.2,144.0 714.6,143.9 715.4,143.9 715.7,143.8 716.1,143.8 716.5,143.8 718.0,143.6 718.4,143.5 718.8,143.4 719.2,143.4 719.6,143.3 719.9,143.2 721.1,143.1 721.5,143.0 721.8,142.9 722.2,142.8 722.6,142.6 723.4,142.5 723.8,142.2 724.1,142.0 724.5,141.4 724.9,141.2 725.3,141.1 725.7,140.8 726.1,140.7 726.4,140.6 726.8,140.6 727.2,140.3 729.1,140.0 729.5,139.9 729.9,139.6 730.3,139.0 730.6,139.0 731.4,138.9 731.8,138.5 732.2,138.2 732.5,138.2 732.9,137.6 733.7,137.5 734.1,137.4 734.5,137.4 734.8,137.3 735.2,137.3 735.6,137.3 737.1,137.2 737.9,137.2 738.3,136.9 738.7,136.8 739.8,136.7 741.7,136.7 744.0,136.5 744.4,136.5 744.8,136.4 745.1,136.2 745.5,135.8 745.9,135.8 746.3,135.7 746.7,135.7 747.1,135.6 747.4,135.3 751.6,135.2 752.0,135.2 755.5,135.0 756.2,134.7 756.6,134.7 757.0,134.6 757.4,134.5 758.5,134.4 758.9,133.9 759.3,132.8 759.7,131.7 760.0,131.7 760.4,131.6 761.2,131.4 761.6,131.3 761.9,131.0 762.7,131.0 763.1,130.7 763.5,130.7 764.2,130.2 764.6,130.2 765.0,129.9 765.4,129.7 765.8,129.5 766.2,129.5 767.3,129.2 767.7,129.1 768.1,128.3 768.4,127.2 768.8,126.8 769.2,126.3 769.6,126.2 770.0,126.1 770.4,125.9 770.7,125.7 771.1,125.3 771.5,125.3 771.9,125.0 772.3,125.0 772.6,124.7 773.0,124.5 773.4,124.2 773.8,123.9 774.2,123.8 774.6,123.7 774.9,123.2 775.3,122.2 775.7,122.0 776.5,121.8 776.8,121.7 777.2,121.7 777.6,120.1 778.0,119.4 778.4,118.7 778.8,118.4 779.1,117.2 779.5,117.1 779.9,117.0 780.3,116.7 780.7,116.2 781.0,115.2 781.4,114.1 781.8,114.0 782.2,113.8 783.0,113.8 783.3,113.1 783.7,112.6 784.1,111.9 784.5,111.8 784.9,111.8 785.2,110.7 785.6,109.5 786.0,108.9 786.4,108.7 786.8,108.3 787.2,108.0 787.5,108.0 788.3,107.8 788.7,107.6 789.1,107.6 789.4,107.5 789.8,107.5 791.0,107.5 791.4,107.4 792.1,107.4 792.9,107.3 793.3,107.3 794.0,106.9 794.4,106.6 794.8,106.3 797.1,106.2 797.5,106.0 797.8,105.9 798.2,105.7 798.6,105.6 799.0,105.5 799.4,105.5 799.8,105.0 800.1,104.5 800.5,104.3 800.9,103.4 801.3,103.2 802.1,103.2 802.4,103.2 803.6,102.9 804.0,102.5 804.3,102.2 804.7,102.0 805.1,101.3 805.5,98.5 805.9,97.3 806.3,97.1 806.6,96.9 807.0,96.4 807.4,96.3 807.8,92.4 808.2,87.6 808.5,86.2 808.9,86.2 809.3,85.4 809.7,84.9 810.1,82.0 810.5,80.2 810.8,77.5 811.2,77.0 811.6,76.9 812.0,76.8 812.4,75.9 812.7,74.6 813.1,71.6 813.5,71.1 813.9,70.5 814.3,69.7 814.7,69.2 815.0,68.7 815.4,66.9 815.8,66.5 816.2,66.4 816.6,66.1 816.9,66.0 817.3,65.7 817.7,65.6 818.1,64.7 818.5,63.4 818.9,62.9 819.2,62.8 819.6,62.4 820.0,61.7"/>

  <g class="hoverpoint">
    <line x1="181.1" y1="30" x2="181.1" y2="160.0" class="guide"/>
    <circle cx="181.1" cy="159.8" r="16" class="hit"/>
    <circle cx="181.1" cy="159.8" r="4" class="hover-dot"><title>Nov 2021: 7 total (+7 this month)</title></circle>
    <rect x="111.1" y="133.8" width="140" height="20" rx="4" class="tooltip-bg"/>
    <text x="181.1" y="147.8" class="tooltip-text" text-anchor="middle">Nov 2021: 7 total (+7 this month)</text>
  </g>
  <g class="hoverpoint">
    <line x1="209.3" y1="30" x2="209.3" y2="160.0" class="guide"/>
    <circle cx="209.3" cy="158.7" r="16" class="hit"/>
    <circle cx="209.3" cy="158.7" r="4" class="hover-dot"><title>Jan 2022: 41 total (+34 this month)</title></circle>
    <rect x="139.3" y="132.7" width="140" height="20" rx="4" class="tooltip-bg"/>
    <text x="209.3" y="146.7" class="tooltip-text" text-anchor="middle">Jan 2022: 41 total (+34 this month)</text>
  </g>
  <g class="hoverpoint">
    <line x1="219.3" y1="30" x2="219.3" y2="160.0" class="guide"/>
    <circle cx="219.3" cy="158.6" r="16" class="hit"/>
    <circle cx="219.3" cy="158.6" r="4" class="hover-dot"><title>Feb 2022: 44 total (+3 this month)</title></circle>
    <rect x="149.3" y="132.6" width="140" height="20" rx="4" class="tooltip-bg"/>
    <text x="219.3" y="146.6" class="tooltip-text" text-anchor="middle">Feb 2022: 44 total (+3 this month)</text>
  </g>
  <g class="hoverpoint">
    <line x1="280.0" y1="30" x2="280.0" y2="160.0" class="guide"/>
    <circle cx="280.0" cy="157.9" r="16" class="hit"/>
    <circle cx="280.0" cy="157.9" r="4" class="hover-dot"><title>Jul 2022: 65 total (+21 this month)</title></circle>
    <rect x="210.0" y="131.9" width="140" height="20" rx="4" class="tooltip-bg"/>
    <text x="280.0" y="145.9" class="tooltip-text" text-anchor="middle">Jul 2022: 65 total (+21 this month)</text>
  </g>
  <g class="hoverpoint">
    <line x1="287.6" y1="30" x2="287.6" y2="160.0" class="guide"/>
    <circle cx="287.6" cy="156.7" r="16" class="hit"/>
    <circle cx="287.6" cy="156.7" r="4" class="hover-dot"><title>Aug 2022: 101 total (+36 this month)</title></circle>
    <rect x="217.6" y="130.7" width="140" height="20" rx="4" class="tooltip-bg"/>
    <text x="287.6" y="144.7" class="tooltip-text" text-anchor="middle">Aug 2022: 101 total (+36 this month)</text>
  </g>
  <g class="hoverpoint">
    <line x1="303.3" y1="30" x2="303.3" y2="160.0" class="guide"/>
    <circle cx="303.3" cy="156.5" r="16" class="hit"/>
    <circle cx="303.3" cy="156.5" r="4" class="hover-dot"><title>Sep 2022: 108 total (+7 this month)</title></circle>
    <rect x="233.3" y="130.5" width="140" height="20" rx="4" class="tooltip-bg"/>
    <text x="303.3" y="144.5" class="tooltip-text" text-anchor="middle">Sep 2022: 108 total (+7 this month)</text>
  </g>
  <g class="hoverpoint">
    <line x1="314.7" y1="30" x2="314.7" y2="160.0" class="guide"/>
    <circle cx="314.7" cy="155.8" r="16" class="hit"/>
    <circle cx="314.7" cy="155.8" r="4" class="hover-dot"><title>Oct 2022: 128 total (+20 this month)</title></circle>
    <rect x="244.7" y="129.8" width="140" height="20" rx="4" class="tooltip-bg"/>
    <text x="314.7" y="143.8" class="tooltip-text" text-anchor="middle">Oct 2022: 128 total (+20 this month)</text>
  </g>
  <g class="hoverpoint">
    <line x1="325.0" y1="30" x2="325.0" y2="160.0" class="guide"/>
    <circle cx="325.0" cy="154.5" r="16" class="hit"/>
    <circle cx="325.0" cy="154.5" r="4" class="hover-dot"><title>Nov 2022: 168 total (+40 this month)</title></circle>
    <rect x="255.0" y="128.5" width="140" height="20" rx="4" class="tooltip-bg"/>
    <text x="325.0" y="142.5" class="tooltip-text" text-anchor="middle">Nov 2022: 168 total (+40 this month)</text>
  </g>
  <g class="hoverpoint">
    <line x1="336.9" y1="30" x2="336.9" y2="160.0" class="guide"/>
    <circle cx="336.9" cy="154.3" r="16" class="hit"/>
    <circle cx="336.9" cy="154.3" r="4" class="hover-dot"><title>Dec 2022: 175 total (+7 this month)</title></circle>
    <rect x="266.9" y="128.3" width="140" height="20" rx="4" class="tooltip-bg"/>
    <text x="336.9" y="142.3" class="tooltip-text" text-anchor="middle">Dec 2022: 175 total (+7 this month)</text>
  </g>
  <g class="hoverpoint">
    <line x1="344.5" y1="30" x2="344.5" y2="160.0" class="guide"/>
    <circle cx="344.5" cy="153.0" r="16" class="hit"/>
    <circle cx="344.5" cy="153.0" r="4" class="hover-dot"><title>Jan 2023: 214 total (+39 this month)</title></circle>
    <rect x="274.5" y="127.0" width="140" height="20" rx="4" class="tooltip-bg"/>
    <text x="344.5" y="141.0" class="tooltip-text" text-anchor="middle">Jan 2023: 214 total (+39 this month)</text>
  </g>
  <g class="hoverpoint">
    <line x1="359.0" y1="30" x2="359.0" y2="160.0" class="guide"/>
    <circle cx="359.0" cy="152.7" r="16" class="hit"/>
    <circle cx="359.0" cy="152.7" r="4" class="hover-dot"><title>Feb 2023: 225 total (+11 this month)</title></circle>
    <rect x="289.0" y="126.7" width="140" height="20" rx="4" class="tooltip-bg"/>
    <text x="359.0" y="140.7" class="tooltip-text" text-anchor="middle">Feb 2023: 225 total (+11 this month)</text>
  </g>
  <g class="hoverpoint">
    <line x1="364.8" y1="30" x2="364.8" y2="160.0" class="guide"/>
    <circle cx="364.8" cy="152.3" r="16" class="hit"/>
    <circle cx="364.8" cy="152.3" r="4" class="hover-dot"><title>Mar 2023: 237 total (+12 this month)</title></circle>
    <rect x="294.8" y="126.3" width="140" height="20" rx="4" class="tooltip-bg"/>
    <text x="364.8" y="140.3" class="tooltip-text" text-anchor="middle">Mar 2023: 237 total (+12 this month)</text>
  </g>
  <g class="hoverpoint">
    <line x1="373.9" y1="30" x2="373.9" y2="160.0" class="guide"/>
    <circle cx="373.9" cy="152.2" r="16" class="hit"/>
    <circle cx="373.9" cy="152.2" r="4" class="hover-dot"><title>Apr 2023: 240 total (+3 this month)</title></circle>
    <rect x="303.9" y="126.2" width="140" height="20" rx="4" class="tooltip-bg"/>
    <text x="373.9" y="140.2" class="tooltip-text" text-anchor="middle">Apr 2023: 240 total (+3 this month)</text>
  </g>
  <g class="hoverpoint">
    <line x1="569.5" y1="30" x2="569.5" y2="160.0" class="guide"/>
    <circle cx="569.5" cy="151.8" r="16" class="hit"/>
    <circle cx="569.5" cy="151.8" r="4" class="hover-dot"><title>Aug 2024: 252 total (+12 this month)</title></circle>
    <rect x="499.5" y="125.8" width="140" height="20" rx="4" class="tooltip-bg"/>
    <text x="569.5" y="139.8" class="tooltip-text" text-anchor="middle">Aug 2024: 252 total (+12 this month)</text>
  </g>
  <g class="hoverpoint">
    <line x1="580.2" y1="30" x2="580.2" y2="160.0" class="guide"/>
    <circle cx="580.2" cy="151.8" r="16" class="hit"/>
    <circle cx="580.2" cy="151.8" r="4" class="hover-dot"><title>Sep 2024: 253 total (+1 this month)</title></circle>
    <rect x="510.2" y="125.8" width="140" height="20" rx="4" class="tooltip-bg"/>
    <text x="580.2" y="139.8" class="tooltip-text" text-anchor="middle">Sep 2024: 253 total (+1 this month)</text>
  </g>
  <g class="hoverpoint">
    <line x1="592.8" y1="30" x2="592.8" y2="160.0" class="guide"/>
    <circle cx="592.8" cy="151.5" r="16" class="hit"/>
    <circle cx="592.8" cy="151.5" r="4" class="hover-dot"><title>Oct 2024: 261 total (+8 this month)</title></circle>
    <rect x="522.8" y="125.5" width="140" height="20" rx="4" class="tooltip-bg"/>
    <text x="592.8" y="139.5" class="tooltip-text" text-anchor="middle">Oct 2024: 261 total (+8 this month)</text>
  </g>
  <g class="hoverpoint">
    <line x1="625.6" y1="30" x2="625.6" y2="160.0" class="guide"/>
    <circle cx="625.6" cy="151.2" r="16" class="hit"/>
    <circle cx="625.6" cy="151.2" r="4" class="hover-dot"><title>Jan 2025: 270 total (+9 this month)</title></circle>
    <rect x="555.6" y="125.2" width="140" height="20" rx="4" class="tooltip-bg"/>
    <text x="625.6" y="139.2" class="tooltip-text" text-anchor="middle">Jan 2025: 270 total (+9 this month)</text>
  </g>
  <g class="hoverpoint">
    <line x1="631.0" y1="30" x2="631.0" y2="160.0" class="guide"/>
    <circle cx="631.0" cy="151.2" r="16" class="hit"/>
    <circle cx="631.0" cy="151.2" r="4" class="hover-dot"><title>Feb 2025: 272 total (+2 this month)</title></circle>
    <rect x="561.0" y="125.2" width="140" height="20" rx="4" class="tooltip-bg"/>
    <text x="631.0" y="139.2" class="tooltip-text" text-anchor="middle">Feb 2025: 272 total (+2 this month)</text>
  </g>
  <g class="hoverpoint">
    <line x1="650.4" y1="30" x2="650.4" y2="160.0" class="guide"/>
    <circle cx="650.4" cy="150.4" r="16" class="hit"/>
    <circle cx="650.4" cy="150.4" r="4" class="hover-dot"><title>Mar 2025: 294 total (+22 this month)</title></circle>
    <rect x="580.4" y="124.4" width="140" height="20" rx="4" class="tooltip-bg"/>
    <text x="650.4" y="138.4" class="tooltip-text" text-anchor="middle">Mar 2025: 294 total (+22 this month)</text>
  </g>
  <g class="hoverpoint">
    <line x1="663.4" y1="30" x2="663.4" y2="160.0" class="guide"/>
    <circle cx="663.4" cy="148.6" r="16" class="hit"/>
    <circle cx="663.4" cy="148.6" r="4" class="hover-dot"><title>Apr 2025: 351 total (+57 this month)</title></circle>
    <rect x="593.4" y="122.6" width="140" height="20" rx="4" class="tooltip-bg"/>
    <text x="663.4" y="136.6" class="tooltip-text" text-anchor="middle">Apr 2025: 351 total (+57 this month)</text>
  </g>
  <g class="hoverpoint">
    <line x1="670.7" y1="30" x2="670.7" y2="160.0" class="guide"/>
    <circle cx="670.7" cy="146.7" r="16" class="hit"/>
    <circle cx="670.7" cy="146.7" r="4" class="hover-dot"><title>May 2025: 408 total (+57 this month)</title></circle>
    <rect x="600.7" y="120.7" width="140" height="20" rx="4" class="tooltip-bg"/>
    <text x="670.7" y="134.7" class="tooltip-text" text-anchor="middle">May 2025: 408 total (+57 this month)</text>
  </g>
  <g class="hoverpoint">
    <line x1="685.2" y1="30" x2="685.2" y2="160.0" class="guide"/>
    <circle cx="685.2" cy="146.2" r="16" class="hit"/>
    <circle cx="685.2" cy="146.2" r="4" class="hover-dot"><title>Jun 2025: 424 total (+16 this month)</title></circle>
    <rect x="615.2" y="120.2" width="140" height="20" rx="4" class="tooltip-bg"/>
    <text x="685.2" y="134.2" class="tooltip-text" text-anchor="middle">Jun 2025: 424 total (+16 this month)</text>
  </g>
  <g class="hoverpoint">
    <line x1="698.6" y1="30" x2="698.6" y2="160.0" class="guide"/>
    <circle cx="698.6" cy="146.0" r="16" class="hit"/>
    <circle cx="698.6" cy="146.0" r="4" class="hover-dot"><title>Jul 2025: 432 total (+8 this month)</title></circle>
    <rect x="628.6" y="120.0" width="140" height="20" rx="4" class="tooltip-bg"/>
    <text x="698.6" y="134.0" class="tooltip-text" text-anchor="middle">Jul 2025: 432 total (+8 this month)</text>
  </g>
  <g class="hoverpoint">
    <line x1="709.2" y1="30" x2="709.2" y2="160.0" class="guide"/>
    <circle cx="709.2" cy="144.6" r="16" class="hit"/>
    <circle cx="709.2" cy="144.6" r="4" class="hover-dot"><title>Aug 2025: 475 total (+43 this month)</title></circle>
    <rect x="639.2" y="118.6" width="140" height="20" rx="4" class="tooltip-bg"/>
    <text x="709.2" y="132.6" class="tooltip-text" text-anchor="middle">Aug 2025: 475 total (+43 this month)</text>
  </g>
  <g class="hoverpoint">
    <line x1="721.8" y1="30" x2="721.8" y2="160.0" class="guide"/>
    <circle cx="721.8" cy="142.9" r="16" class="hit"/>
    <circle cx="721.8" cy="142.9" r="4" class="hover-dot"><title>Sep 2025: 526 total (+51 this month)</title></circle>
    <rect x="651.8" y="116.9" width="140" height="20" rx="4" class="tooltip-bg"/>
    <text x="721.8" y="130.9" class="tooltip-text" text-anchor="middle">Sep 2025: 526 total (+51 this month)</text>
  </g>
  <g class="hoverpoint">
    <line x1="733.7" y1="30" x2="733.7" y2="160.0" class="guide"/>
    <circle cx="733.7" cy="137.5" r="16" class="hit"/>
    <circle cx="733.7" cy="137.5" r="4" class="hover-dot"><title>Oct 2025: 692 total (+166 this month)</title></circle>
    <rect x="663.7" y="111.5" width="140" height="20" rx="4" class="tooltip-bg"/>
    <text x="733.7" y="125.5" class="tooltip-text" text-anchor="middle">Oct 2025: 692 total (+166 this month)</text>
  </g>
  <g class="hoverpoint">
    <line x1="745.1" y1="30" x2="745.1" y2="160.0" class="guide"/>
    <circle cx="745.1" cy="136.2" r="16" class="hit"/>
    <circle cx="745.1" cy="136.2" r="4" class="hover-dot"><title>Nov 2025: 731 total (+39 this month)</title></circle>
    <rect x="675.1" y="110.2" width="140" height="20" rx="4" class="tooltip-bg"/>
    <text x="745.1" y="124.2" class="tooltip-text" text-anchor="middle">Nov 2025: 731 total (+39 this month)</text>
  </g>
  <g class="hoverpoint">
    <line x1="757.0" y1="30" x2="757.0" y2="160.0" class="guide"/>
    <circle cx="757.0" cy="134.6" r="16" class="hit"/>
    <circle cx="757.0" cy="134.6" r="4" class="hover-dot"><title>Dec 2025: 783 total (+52 this month)</title></circle>
    <rect x="687.0" y="108.6" width="140" height="20" rx="4" class="tooltip-bg"/>
    <text x="757.0" y="122.6" class="tooltip-text" text-anchor="middle">Dec 2025: 783 total (+52 this month)</text>
  </g>
  <g class="hoverpoint">
    <line x1="768.8" y1="30" x2="768.8" y2="160.0" class="guide"/>
    <circle cx="768.8" cy="126.8" r="16" class="hit"/>
    <circle cx="768.8" cy="126.8" r="4" class="hover-dot"><title>Jan 2026: 1,022 total (+239 this month)</title></circle>
    <rect x="698.8" y="100.8" width="140" height="20" rx="4" class="tooltip-bg"/>
    <text x="768.8" y="114.8" class="tooltip-text" text-anchor="middle">Jan 2026: 1,022 total (+239 this month)</text>
  </g>
  <g class="hoverpoint">
    <line x1="779.5" y1="30" x2="779.5" y2="160.0" class="guide"/>
    <circle cx="779.5" cy="117.1" r="16" class="hit"/>
    <circle cx="779.5" cy="117.1" r="4" class="hover-dot"><title>Feb 2026: 1,321 total (+299 this month)</title></circle>
    <rect x="709.5" y="91.1" width="140" height="20" rx="4" class="tooltip-bg"/>
    <text x="779.5" y="105.1" class="tooltip-text" text-anchor="middle">Feb 2026: 1,321 total (+299 this month)</text>
  </g>
  <g class="hoverpoint">
    <line x1="791.4" y1="30" x2="791.4" y2="160.0" class="guide"/>
    <circle cx="791.4" cy="107.4" r="16" class="hit"/>
    <circle cx="791.4" cy="107.4" r="4" class="hover-dot"><title>Mar 2026: 1,617 total (+296 this month)</title></circle>
    <rect x="721.4" y="81.4" width="140" height="20" rx="4" class="tooltip-bg"/>
    <text x="791.4" y="95.4" class="tooltip-text" text-anchor="middle">Mar 2026: 1,617 total (+296 this month)</text>
  </g>
  <g class="hoverpoint">
    <line x1="802.4" y1="30" x2="802.4" y2="160.0" class="guide"/>
    <circle cx="802.4" cy="103.2" r="16" class="hit"/>
    <circle cx="802.4" cy="103.2" r="4" class="hover-dot"><title>Apr 2026: 1,749 total (+132 this month)</title></circle>
    <rect x="732.4" y="77.2" width="140" height="20" rx="4" class="tooltip-bg"/>
    <text x="802.4" y="91.2" class="tooltip-text" text-anchor="middle">Apr 2026: 1,749 total (+132 this month)</text>
  </g>
  <g class="hoverpoint">
    <line x1="814.7" y1="30" x2="814.7" y2="160.0" class="guide"/>
    <circle cx="814.7" cy="69.2" r="16" class="hit"/>
    <circle cx="814.7" cy="69.2" r="4" class="hover-dot"><title>May 2026: 2,795 total (+1,046 this month)</title></circle>
    <rect x="744.7" y="43.2" width="140" height="20" rx="4" class="tooltip-bg"/>
    <text x="814.7" y="57.2" class="tooltip-text" text-anchor="middle">May 2026: 2,795 total (+1,046 this month)</text>
  </g>
  <g class="hoverpoint">
    <line x1="820.0" y1="30" x2="820.0" y2="160.0" class="guide"/>
    <circle cx="820.0" cy="61.7" r="16" class="hit"/>
    <circle cx="820.0" cy="61.7" r="4" class="hover-dot"><title>Jun 2026: 3,025 total (+230 this month)</title></circle>
    <rect x="750.0" y="35.7" width="140" height="20" rx="4" class="tooltip-bg"/>
    <text x="820.0" y="49.7" class="tooltip-text" text-anchor="middle">Jun 2026: 3,025 total (+230 this month)</text>
  </g>

  <circle cx="820.0" cy="61.7" r="4" class="dot"/>
  <text x="810.0" y="51.7" class="total">3,025</text>

</svg>