<svg xmlns="http://www.w3.org/2000/svg" width="840" height="196" viewBox="0 0 840 196" fill="none">
  <style>
    .label { font-family: -apple-system, BlinkMacSystemFont, 'Segoe UI', Helvetica, Arial, sans-serif; font-size: 10px; fill: #8b949e; }
    .title { font-family: -apple-system, BlinkMacSystemFont, 'Segoe UI', Helvetica, Arial, sans-serif; font-size: 11px; fill: #8b949e; font-weight: 600; }
    .total { font-family: -apple-system, BlinkMacSystemFont, 'Segoe UI', Helvetica, Arial, sans-serif; font-size: 11px; fill: #7ee787; font-weight: 600; }
    .grid { stroke: #21262d; stroke-width: 1; }
    .line { stroke: #7ee787; stroke-width: 2; stroke-linecap: round; stroke-linejoin: round; fill: none; }
    .dot { fill: #7ee787; }
    .area { fill: url(#areaGrad); }
    /* Hover interaction */
    .hoverpoint .guide { stroke: #7ee787; stroke-width: 1; stroke-dasharray: 2,2; opacity: 0; }
    .hoverpoint .hover-dot { fill: #7ee787; opacity: 0; }
    .hoverpoint .hit { fill: transparent; cursor: pointer; }
    .hoverpoint .tooltip-bg { fill: #161b22; stroke: #30363d; stroke-width: 1; opacity: 0; }
    .hoverpoint .tooltip-text { font-family: -apple-system, BlinkMacSystemFont, 'Segoe UI', Helvetica, Arial, sans-serif; font-size: 9px; fill: #c9d1d9; opacity: 0; }
    .hoverpoint:hover .guide { opacity: 0.5; }
    .hoverpoint:hover .hover-dot { opacity: 1; }
    .hoverpoint:hover .tooltip-bg { opacity: 0.95; }
    .hoverpoint:hover .tooltip-text { opacity: 1; }
  </style>
  <defs>
    <linearGradient id="areaGrad" x1="0" y1="0" x2="0" y2="1">
      <stop offset="0%" stop-color="#7ee787" stop-opacity="0.15"/>
      <stop offset="100%" stop-color="#7ee787" stop-opacity="0.01"/>
    </linearGradient>
  </defs>

  <text x="60" y="18" class="title">Cumulative Commits</text>

  <line x1="60" y1="160.0" x2="820" y2="160.0" class="grid"/>
  <text x="50" y="163.0" class="label" text-anchor="end">0</text>
  <line x1="60" y1="127.5" x2="820" y2="127.5" class="grid" stroke-dasharray="3,3"/>
  <text x="50" y="130.5" class="label" text-anchor="end">500</text>
  <line x1="60" y1="95.0" x2="820" y2="95.0" class="grid" stroke-dasharray="3,3"/>
  <text x="50" y="98.0" class="label" text-anchor="end">1,000</text>
  <line x1="60" y1="62.5" x2="820" y2="62.5" class="grid" stroke-dasharray="3,3"/>
  <text x="50" y="65.5" class="label" text-anchor="end">1,500</text>
  <line x1="60" y1="30.0" x2="820" y2="30.0" class="grid" stroke-dasharray="3,3"/>
  <text x="50" y="33.0" class="label" text-anchor="end">2,000</text>

  <text x="70.0" y="186" class="label" text-anchor="middle">2021</text>
  <text x="202.7" y="186" class="label" text-anchor="middle">2022</text>
  <text x="345.4" y="186" class="label" text-anchor="middle">2023</text>
  <text x="488.1" y="186" class="label" text-anchor="middle">2024</text>
  <text x="631.2" y="186" class="label" text-anchor="middle">2025</text>
  <text x="773.9" y="186" class="label" text-anchor="middle">2026</text>


  <path class="area" d="M60.0,160.0 L60.0,160.0 60.0,160.0 L182.4,159.7 L182.8,159.6 L183.9,159.5 L202.7,159.4 L203.1,159.0 L203.5,158.9 L203.9,158.6 L204.3,158.6 L204.7,158.4 L205.4,158.1 L205.8,157.9 L206.2,157.8 L206.6,157.7 L208.2,157.5 L208.6,157.5 L209.0,157.4 L212.9,157.3 L223.0,157.1 L276.6,157.1 L277.0,156.5 L278.5,156.4 L279.3,155.9 L285.2,155.8 L286.0,155.6 L286.4,155.4 L286.7,155.3 L287.5,155.1 L287.9,154.7 L288.3,154.0 L288.7,153.9 L290.3,153.6 L291.0,153.6 L293.0,153.4 L298.5,153.2 L309.0,153.0 L314.9,152.9 L317.6,152.8 L318.0,152.7 L318.4,152.5 L318.8,152.3 L320.0,151.8 L320.4,151.7 L320.8,151.7 L322.3,151.4 L322.7,151.1 L323.1,151.0 L323.5,150.4 L323.9,149.9 L324.3,149.7 L324.7,149.5 L325.5,149.4 L327.0,149.3 L331.3,149.1 L342.7,149.0 L343.0,148.7 L343.4,148.6 L347.3,148.0 L347.7,146.5 L348.9,146.3 L349.3,146.3 L351.3,146.1 L364.5,145.8 L364.9,145.7 L365.3,145.6 L366.1,145.4 L368.8,145.2 L369.6,144.9 L370.0,144.7 L372.0,144.6 L381.4,144.4 L573.7,144.3 L574.5,144.2 L575.3,144.1 L576.0,144.0 L576.4,143.9 L576.8,143.8 L577.2,143.8 L577.6,143.7 L581.5,143.6 L592.5,143.6 L595.6,143.5 L596.8,143.4 L599.1,143.4 L601.5,143.3 L601.9,143.2 L603.4,143.2 L604.6,143.1 L605.4,143.0 L634.3,143.0 L634.7,142.8 L635.5,142.8 L635.9,142.7 L637.0,142.5 L639.0,142.4 L644.5,142.3 L655.8,141.7 L656.2,141.5 L661.3,141.3 L661.7,141.2 L662.8,141.1 L664.4,140.9 L666.4,140.2 L666.7,138.4 L667.1,138.3 L669.5,138.2 L670.7,138.1 L671.0,138.0 L671.8,137.8 L675.0,137.7 L677.7,137.2 L679.7,136.7 L680.0,136.5 L681.2,136.2 L681.6,135.4 L682.0,135.2 L682.4,134.9 L682.8,134.7 L683.2,134.4 L684.0,133.9 L685.1,133.5 L699.2,133.3 L700.0,132.4 L708.6,132.2 L713.7,131.9 L716.0,131.9 L716.4,131.8 L718.7,131.7 L719.1,131.7 L719.5,131.6 L719.9,131.4 L720.3,131.1 L720.7,130.5 L721.1,130.4 L723.4,129.4 L723.8,129.3 L724.6,129.1 L727.3,128.8 L728.1,128.7 L728.5,128.5 L729.3,128.5 L729.7,128.0 L730.1,127.9 L730.9,127.8 L731.3,127.6 L731.6,127.6 L732.0,127.5 L733.6,127.1 L734.0,127.0 L734.4,126.8 L734.8,126.7 L735.2,126.6 L735.6,126.4 L736.7,126.1 L737.1,125.9 L737.5,125.8 L737.9,125.6 L738.3,125.2 L739.1,125.1 L739.5,124.4 L739.9,124.1 L740.2,122.8 L740.6,122.5 L741.0,122.2 L741.4,121.5 L741.8,121.4 L742.2,121.2 L742.6,121.1 L743.0,120.7 L744.9,120.0 L745.3,119.8 L745.7,119.2 L746.1,118.1 L746.5,118.0 L747.3,117.9 L747.7,116.9 L748.1,116.4 L748.5,116.3 L748.8,115.3 L749.6,115.0 L750.0,114.9 L750.4,114.8 L750.8,114.7 L751.2,114.6 L751.6,114.6 L753.1,114.4 L753.9,114.3 L754.3,113.8 L754.7,113.5 L755.9,113.5 L757.8,113.3 L760.2,113.1 L760.6,112.9 L761.0,112.9 L761.4,112.5 L761.7,111.6 L762.1,111.5 L762.5,111.4 L762.9,111.3 L763.3,111.1 L763.7,110.6 L768.0,110.5 L768.4,110.4 L771.9,109.9 L772.7,109.5 L773.1,109.4 L773.5,109.1 L773.9,109.0 L775.0,108.8 L775.4,107.9 L775.8,105.5 L776.2,103.5 L776.6,103.4 L777.0,103.1 L777.8,102.8 L778.2,102.5 L778.6,102.1 L779.3,102.0 L779.7,101.4 L780.1,101.3 L780.9,100.4 L781.3,100.3 L781.7,99.8 L782.1,99.5 L782.5,99.1 L782.9,99.0 L784.0,98.4 L784.4,98.1 L784.8,96.6 L785.2,94.4 L785.6,93.6 L786.0,92.6 L786.4,92.5 L786.8,92.1 L787.2,91.9 L787.6,91.4 L787.9,90.6 L788.3,90.6 L788.7,90.1 L789.1,90.0 L789.5,89.5 L789.9,89.0 L790.3,88.4 L790.7,87.8 L791.1,87.7 L791.5,87.5 L791.9,86.4 L792.2,84.4 L792.6,84.1 L793.4,83.7 L793.8,83.5 L794.2,83.4 L794.6,80.2 L795.0,78.8 L795.4,77.3 L795.8,76.8 L796.2,74.4 L796.5,74.1 L796.9,74.0 L797.3,73.5 L797.7,72.4 L798.1,70.4 L798.5,68.2 L798.9,68.1 L799.3,67.6 L800.1,67.5 L800.5,66.2 L800.8,65.2 L801.2,63.8 L801.6,63.6 L802.0,63.5 L802.4,61.4 L802.8,58.9 L803.2,57.8 L803.6,57.3 L804.0,56.6 L804.4,56.1 L804.8,56.0 L805.5,55.7 L805.9,55.3 L806.3,55.2 L806.7,55.1 L807.1,55.0 L808.3,55.0 L808.7,54.9 L809.4,54.8 L810.2,54.7 L810.6,54.6 L811.4,53.7 L811.8,53.1 L812.2,52.9 L814.5,52.8 L814.9,52.3 L815.3,52.2 L815.7,51.6 L816.1,51.6 L816.5,51.4 L816.9,51.3 L817.3,50.3 L817.7,49.4 L818.0,49.0 L818.4,47.0 L818.8,46.8 L819.6,46.7 L820.0,46.6 L820.0,160.0 Z"/>
  <polyline class="line" points="60.0,160.0 182.4,159.7 182.8,159.6 183.9,159.5 202.7,159.4 203.1,159.0 203.5,158.9 203.9,158.6 204.3,158.6 204.7,158.4 205.4,158.1 205.8,157.9 206.2,157.8 206.6,157.7 208.2,157.5 208.6,157.5 209.0,157.4 212.9,157.3 223.0,157.1 276.6,157.1 277.0,156.5 278.5,156.4 279.3,155.9 285.2,155.8 286.0,155.6 286.4,155.4 286.7,155.3 287.5,155.1 287.9,154.7 288.3,154.0 288.7,153.9 290.3,153.6 291.0,153.6 293.0,153.4 298.5,153.2 309.0,153.0 314.9,152.9 317.6,152.8 318.0,152.7 318.4,152.5 318.8,152.3 320.0,151.8 320.4,151.7 320.8,151.7 322.3,151.4 322.7,151.1 323.1,151.0 323.5,150.4 323.9,149.9 324.3,149.7 324.7,149.5 325.5,149.4 327.0,149.3 331.3,149.1 342.7,149.0 343.0,148.7 343.4,148.6 347.3,148.0 347.7,146.5 348.9,146.3 349.3,146.3 351.3,146.1 364.5,145.8 364.9,145.7 365.3,145.6 366.1,145.4 368.8,145.2 369.6,144.9 370.0,144.7 372.0,144.6 381.4,144.4 573.7,144.3 574.5,144.2 575.3,144.1 576.0,144.0 576.4,143.9 576.8,143.8 577.2,143.8 577.6,143.7 581.5,143.6 592.5,143.6 595.6,143.5 596.8,143.4 599.1,143.4 601.5,143.3 601.9,143.2 603.4,143.2 604.6,143.1 605.4,143.0 634.3,143.0 634.7,142.8 635.5,142.8 635.9,142.7 637.0,142.5 639.0,142.4 644.5,142.3 655.8,141.7 656.2,141.5 661.3,141.3 661.7,141.2 662.8,141.1 664.4,140.9 666.4,140.2 666.7,138.4 667.1,138.3 669.5,138.2 670.7,138.1 671.0,138.0 671.8,137.8 675.0,137.7 677.7,137.2 679.7,136.7 680.0,136.5 681.2,136.2 681.6,135.4 682.0,135.2 682.4,134.9 682.8,134.7 683.2,134.4 684.0,133.9 685.1,133.5 699.2,133.3 700.0,132.4 708.6,132.2 713.7,131.9 716.0,131.9 716.4,131.8 718.7,131.7 719.1,131.7 719.5,131.6 719.9,131.4 720.3,131.1 720.7,130.5 721.1,130.4 723.4,129.4 723.8,129.3 724.6,129.1 727.3,128.8 728.1,128.7 728.5,128.5 729.3,128.5 729.7,128.0 730.1,127.9 730.9,127.8 731.3,127.6 731.6,127.6 732.0,127.5 733.6,127.1 734.0,127.0 734.4,126.8 734.8,126.7 735.2,126.6 735.6,126.4 736.7,126.1 737.1,125.9 737.5,125.8 737.9,125.6 738.3,125.2 739.1,125.1 739.5,124.4 739.9,124.1 740.2,122.8 740.6,122.5 741.0,122.2 741.4,121.5 741.8,121.4 742.2,121.2 742.6,121.1 743.0,120.7 744.9,120.0 745.3,119.8 745.7,119.2 746.1,118.1 746.5,118.0 747.3,117.9 747.7,116.9 748.1,116.4 748.5,116.3 748.8,115.3 749.6,115.0 750.0,114.9 750.4,114.8 750.8,114.7 751.2,114.6 751.6,114.6 753.1,114.4 753.9,114.3 754.3,113.8 754.7,113.5 755.9,113.5 757.8,113.3 760.2,113.1 760.6,112.9 761.0,112.9 761.4,112.5 761.7,111.6 762.1,111.5 762.5,111.4 762.9,111.3 763.3,111.1 763.7,110.6 768.0,110.5 768.4,110.4 771.9,109.9 772.7,109.5 773.1,109.4 773.5,109.1 773.9,109.0 775.0,108.8 775.4,107.9 775.8,105.5 776.2,103.5 776.6,103.4 777.0,103.1 777.8,102.8 778.2,102.5 778.6,102.1 779.3,102.0 779.7,101.4 780.1,101.3 780.9,100.4 781.3,100.3 781.7,99.8 782.1,99.5 782.5,99.1 782.9,99.0 784.0,98.4 784.4,98.1 784.8,96.6 785.2,94.4 785.6,93.6 786.0,92.6 786.4,92.5 786.8,92.1 787.2,91.9 787.6,91.4 787.9,90.6 788.3,90.6 788.7,90.1 789.1,90.0 789.5,89.5 789.9,89.0 790.3,88.4 790.7,87.8 791.1,87.7 791.5,87.5 791.9,86.4 792.2,84.4 792.6,84.1 793.4,83.7 793.8,83.5 794.2,83.4 794.6,80.2 795.0,78.8 795.4,77.3 795.8,76.8 796.2,74.4 796.5,74.1 796.9,74.0 797.3,73.5 797.7,72.4 798.1,70.4 798.5,68.2 798.9,68.1 799.3,67.6 800.1,67.5 800.5,66.2 800.8,65.2 801.2,63.8 801.6,63.6 802.0,63.5 802.4,61.4 802.8,58.9 803.2,57.8 803.6,57.3 804.0,56.6 804.4,56.1 804.8,56.0 805.5,55.7 805.9,55.3 806.3,55.2 806.7,55.1 807.1,55.0 808.3,55.0 808.7,54.9 809.4,54.8 810.2,54.7 810.6,54.6 811.4,53.7 811.8,53.1 812.2,52.9 814.5,52.8 814.9,52.3 815.3,52.2 815.7,51.6 816.1,51.6 816.5,51.4 816.9,51.3 817.3,50.3 817.7,49.4 818.0,49.0 818.4,47.0 818.8,46.8 819.6,46.7 820.0,46.6"/>

  <g class="hoverpoint">
    <line x1="183.9" y1="30" x2="183.9" y2="160.0" class="guide"/>
    <circle cx="183.9" cy="159.5" r="16" class="hit"/>
    <circle cx="183.9" cy="159.5" r="4" class="hover-dot"><title>Nov 2021: 7 total (+7 this month)</title></circle>
    <rect x="113.9" y="133.5" width="140" height="20" rx="4" class="tooltip-bg"/>
    <text x="183.9" y="147.5" class="tooltip-text" text-anchor="middle">Nov 2021: 7 total (+7 this month)</text>
  </g>
  <g class="hoverpoint">
    <line x1="212.9" y1="30" x2="212.9" y2="160.0" class="guide"/>
    <circle cx="212.9" cy="157.3" r="16" class="hit"/>
    <circle cx="212.9" cy="157.3" r="4" class="hover-dot"><title>Jan 2022: 41 total (+34 this month)</title></circle>
    <rect x="142.9" y="131.3" width="140" height="20" rx="4" class="tooltip-bg"/>
    <text x="212.9" y="145.3" class="tooltip-text" text-anchor="middle">Jan 2022: 41 total (+34 this month)</text>
  </g>
  <g class="hoverpoint">
    <line x1="223.0" y1="30" x2="223.0" y2="160.0" class="guide"/>
    <circle cx="223.0" cy="157.1" r="16" class="hit"/>
    <circle cx="223.0" cy="157.1" r="4" class="hover-dot"><title>Feb 2022: 44 total (+3 this month)</title></circle>
    <rect x="153.0" y="131.1" width="140" height="20" rx="4" class="tooltip-bg"/>
    <text x="223.0" y="145.1" class="tooltip-text" text-anchor="middle">Feb 2022: 44 total (+3 this month)</text>
  </g>
  <g class="hoverpoint">
    <line x1="285.2" y1="30" x2="285.2" y2="160.0" class="guide"/>
    <circle cx="285.2" cy="155.8" r="16" class="hit"/>
    <circle cx="285.2" cy="155.8" r="4" class="hover-dot"><title>Jul 2022: 65 total (+21 this month)</title></circle>
    <rect x="215.2" y="129.8" width="140" height="20" rx="4" class="tooltip-bg"/>
    <text x="285.2" y="143.8" class="tooltip-text" text-anchor="middle">Jul 2022: 65 total (+21 this month)</text>
  </g>
  <g class="hoverpoint">
    <line x1="293.0" y1="30" x2="293.0" y2="160.0" class="guide"/>
    <circle cx="293.0" cy="153.4" r="16" class="hit"/>
    <circle cx="293.0" cy="153.4" r="4" class="hover-dot"><title>Aug 2022: 101 total (+36 this month)</title></circle>
    <rect x="223.0" y="127.4" width="140" height="20" rx="4" class="tooltip-bg"/>
    <text x="293.0" y="141.4" class="tooltip-text" text-anchor="middle">Aug 2022: 101 total (+36 this month)</text>
  </g>
  <g class="hoverpoint">
    <line x1="309.0" y1="30" x2="309.0" y2="160.0" class="guide"/>
    <circle cx="309.0" cy="153.0" r="16" class="hit"/>
    <circle cx="309.0" cy="153.0" r="4" class="hover-dot"><title>Sep 2022: 108 total (+7 this month)</title></circle>
    <rect x="239.0" y="127.0" width="140" height="20" rx="4" class="tooltip-bg"/>
    <text x="309.0" y="141.0" class="tooltip-text" text-anchor="middle">Sep 2022: 108 total (+7 this month)</text>
  </g>
  <g class="hoverpoint">
    <line x1="320.8" y1="30" x2="320.8" y2="160.0" class="guide"/>
    <circle cx="320.8" cy="151.7" r="16" class="hit"/>
    <circle cx="320.8" cy="151.7" r="4" class="hover-dot"><title>Oct 2022: 128 total (+20 this month)</title></circle>
    <rect x="250.8" y="125.7" width="140" height="20" rx="4" class="tooltip-bg"/>
    <text x="320.8" y="139.7" class="tooltip-text" text-anchor="middle">Oct 2022: 128 total (+20 this month)</text>
  </g>
  <g class="hoverpoint">
    <line x1="331.3" y1="30" x2="331.3" y2="160.0" class="guide"/>
    <circle cx="331.3" cy="149.1" r="16" class="hit"/>
    <circle cx="331.3" cy="149.1" r="4" class="hover-dot"><title>Nov 2022: 168 total (+40 this month)</title></circle>
    <rect x="261.3" y="123.1" width="140" height="20" rx="4" class="tooltip-bg"/>
    <text x="331.3" y="137.1" class="tooltip-text" text-anchor="middle">Nov 2022: 168 total (+40 this month)</text>
  </g>
  <g class="hoverpoint">
    <line x1="343.4" y1="30" x2="343.4" y2="160.0" class="guide"/>
    <circle cx="343.4" cy="148.6" r="16" class="hit"/>
    <circle cx="343.4" cy="148.6" r="4" class="hover-dot"><title>Dec 2022: 175 total (+7 this month)</title></circle>
    <rect x="273.4" y="122.6" width="140" height="20" rx="4" class="tooltip-bg"/>
    <text x="343.4" y="136.6" class="tooltip-text" text-anchor="middle">Dec 2022: 175 total (+7 this month)</text>
  </g>
  <g class="hoverpoint">
    <line x1="351.3" y1="30" x2="351.3" y2="160.0" class="guide"/>
    <circle cx="351.3" cy="146.1" r="16" class="hit"/>
    <circle cx="351.3" cy="146.1" r="4" class="hover-dot"><title>Jan 2023: 214 total (+39 this month)</title></circle>
    <rect x="281.3" y="120.1" width="140" height="20" rx="4" class="tooltip-bg"/>
    <text x="351.3" y="134.1" class="tooltip-text" text-anchor="middle">Jan 2023: 214 total (+39 this month)</text>
  </g>
  <g class="hoverpoint">
    <line x1="366.1" y1="30" x2="366.1" y2="160.0" class="guide"/>
    <circle cx="366.1" cy="145.4" r="16" class="hit"/>
    <circle cx="366.1" cy="145.4" r="4" class="hover-dot"><title>Feb 2023: 225 total (+11 this month)</title></circle>
    <rect x="296.1" y="119.4" width="140" height="20" rx="4" class="tooltip-bg"/>
    <text x="366.1" y="133.4" class="tooltip-text" text-anchor="middle">Feb 2023: 225 total (+11 this month)</text>
  </g>
  <g class="hoverpoint">
    <line x1="372.0" y1="30" x2="372.0" y2="160.0" class="guide"/>
    <circle cx="372.0" cy="144.6" r="16" class="hit"/>
    <circle cx="372.0" cy="144.6" r="4" class="hover-dot"><title>Mar 2023: 237 total (+12 this month)</title></circle>
    <rect x="302.0" y="118.6" width="140" height="20" rx="4" class="tooltip-bg"/>
    <text x="372.0" y="132.6" class="tooltip-text" text-anchor="middle">Mar 2023: 237 total (+12 this month)</text>
  </g>
  <g class="hoverpoint">
    <line x1="381.4" y1="30" x2="381.4" y2="160.0" class="guide"/>
    <circle cx="381.4" cy="144.4" r="16" class="hit"/>
    <circle cx="381.4" cy="144.4" r="4" class="hover-dot"><title>Apr 2023: 240 total (+3 this month)</title></circle>
    <rect x="311.4" y="118.4" width="140" height="20" rx="4" class="tooltip-bg"/>
    <text x="381.4" y="132.4" class="tooltip-text" text-anchor="middle">Apr 2023: 240 total (+3 this month)</text>
  </g>
  <g class="hoverpoint">
    <line x1="581.5" y1="30" x2="581.5" y2="160.0" class="guide"/>
    <circle cx="581.5" cy="143.6" r="16" class="hit"/>
    <circle cx="581.5" cy="143.6" r="4" class="hover-dot"><title>Aug 2024: 252 total (+12 this month)</title></circle>
    <rect x="511.5" y="117.6" width="140" height="20" rx="4" class="tooltip-bg"/>
    <text x="581.5" y="131.6" class="tooltip-text" text-anchor="middle">Aug 2024: 252 total (+12 this month)</text>
  </g>
  <g class="hoverpoint">
    <line x1="592.5" y1="30" x2="592.5" y2="160.0" class="guide"/>
    <circle cx="592.5" cy="143.6" r="16" class="hit"/>
    <circle cx="592.5" cy="143.6" r="4" class="hover-dot"><title>Sep 2024: 253 total (+1 this month)</title></circle>
    <rect x="522.5" y="117.6" width="140" height="20" rx="4" class="tooltip-bg"/>
    <text x="592.5" y="131.6" class="tooltip-text" text-anchor="middle">Sep 2024: 253 total (+1 this month)</text>
  </g>
  <g class="hoverpoint">
    <line x1="605.4" y1="30" x2="605.4" y2="160.0" class="guide"/>
    <circle cx="605.4" cy="143.0" r="16" class="hit"/>
    <circle cx="605.4" cy="143.0" r="4" class="hover-dot"><title>Oct 2024: 261 total (+8 this month)</title></circle>
    <rect x="535.4" y="117.0" width="140" height="20" rx="4" class="tooltip-bg"/>
    <text x="605.4" y="131.0" class="tooltip-text" text-anchor="middle">Oct 2024: 261 total (+8 this month)</text>
  </g>
  <g class="hoverpoint">
    <line x1="639.0" y1="30" x2="639.0" y2="160.0" class="guide"/>
    <circle cx="639.0" cy="142.4" r="16" class="hit"/>
    <circle cx="639.0" cy="142.4" r="4" class="hover-dot"><title>Jan 2025: 270 total (+9 this month)</title></circle>
    <rect x="569.0" y="116.4" width="140" height="20" rx="4" class="tooltip-bg"/>
    <text x="639.0" y="130.4" class="tooltip-text" text-anchor="middle">Jan 2025: 270 total (+9 this month)</text>
  </g>
  <g class="hoverpoint">
    <line x1="644.5" y1="30" x2="644.5" y2="160.0" class="guide"/>
    <circle cx="644.5" cy="142.3" r="16" class="hit"/>
    <circle cx="644.5" cy="142.3" r="4" class="hover-dot"><title>Feb 2025: 272 total (+2 this month)</title></circle>
    <rect x="574.5" y="116.3" width="140" height="20" rx="4" class="tooltip-bg"/>
    <text x="644.5" y="130.3" class="tooltip-text" text-anchor="middle">Feb 2025: 272 total (+2 this month)</text>
  </g>
  <g class="hoverpoint">
    <line x1="664.4" y1="30" x2="664.4" y2="160.0" class="guide"/>
    <circle cx="664.4" cy="140.9" r="16" class="hit"/>
    <circle cx="664.4" cy="140.9" r="4" class="hover-dot"><title>Mar 2025: 294 total (+22 this month)</title></circle>
    <rect x="594.4" y="114.9" width="140" height="20" rx="4" class="tooltip-bg"/>
    <text x="664.4" y="128.9" class="tooltip-text" text-anchor="middle">Mar 2025: 294 total (+22 this month)</text>
  </g>
  <g class="hoverpoint">
    <line x1="677.7" y1="30" x2="677.7" y2="160.0" class="guide"/>
    <circle cx="677.7" cy="137.2" r="16" class="hit"/>
    <circle cx="677.7" cy="137.2" r="4" class="hover-dot"><title>Apr 2025: 351 total (+57 this month)</title></circle>
    <rect x="607.7" y="111.2" width="140" height="20" rx="4" class="tooltip-bg"/>
    <text x="677.7" y="125.2" class="tooltip-text" text-anchor="middle">Apr 2025: 351 total (+57 this month)</text>
  </g>
  <g class="hoverpoint">
    <line x1="685.1" y1="30" x2="685.1" y2="160.0" class="guide"/>
    <circle cx="685.1" cy="133.5" r="16" class="hit"/>
    <circle cx="685.1" cy="133.5" r="4" class="hover-dot"><title>May 2025: 408 total (+57 this month)</title></circle>
    <rect x="615.1" y="107.5" width="140" height="20" rx="4" class="tooltip-bg"/>
    <text x="685.1" y="121.5" class="tooltip-text" text-anchor="middle">May 2025: 408 total (+57 this month)</text>
  </g>
  <g class="hoverpoint">
    <line x1="700.0" y1="30" x2="700.0" y2="160.0" class="guide"/>
    <circle cx="700.0" cy="132.4" r="16" class="hit"/>
    <circle cx="700.0" cy="132.4" r="4" class="hover-dot"><title>Jun 2025: 424 total (+16 this month)</title></circle>
    <rect x="630.0" y="106.4" width="140" height="20" rx="4" class="tooltip-bg"/>
    <text x="700.0" y="120.4" class="tooltip-text" text-anchor="middle">Jun 2025: 424 total (+16 this month)</text>
  </g>
  <g class="hoverpoint">
    <line x1="713.7" y1="30" x2="713.7" y2="160.0" class="guide"/>
    <circle cx="713.7" cy="131.9" r="16" class="hit"/>
    <circle cx="713.7" cy="131.9" r="4" class="hover-dot"><title>Jul 2025: 432 total (+8 this month)</title></circle>
    <rect x="643.7" y="105.9" width="140" height="20" rx="4" class="tooltip-bg"/>
    <text x="713.7" y="119.9" class="tooltip-text" text-anchor="middle">Jul 2025: 432 total (+8 this month)</text>
  </g>
  <g class="hoverpoint">
    <line x1="724.6" y1="30" x2="724.6" y2="160.0" class="guide"/>
    <circle cx="724.6" cy="129.1" r="16" class="hit"/>
    <circle cx="724.6" cy="129.1" r="4" class="hover-dot"><title>Aug 2025: 475 total (+43 this month)</title></circle>
    <rect x="654.6" y="103.1" width="140" height="20" rx="4" class="tooltip-bg"/>
    <text x="724.6" y="117.1" class="tooltip-text" text-anchor="middle">Aug 2025: 475 total (+43 this month)</text>
  </g>
  <g class="hoverpoint">
    <line x1="737.5" y1="30" x2="737.5" y2="160.0" class="guide"/>
    <circle cx="737.5" cy="125.8" r="16" class="hit"/>
    <circle cx="737.5" cy="125.8" r="4" class="hover-dot"><title>Sep 2025: 526 total (+51 this month)</title></circle>
    <rect x="667.5" y="99.8" width="140" height="20" rx="4" class="tooltip-bg"/>
    <text x="737.5" y="113.8" class="tooltip-text" text-anchor="middle">Sep 2025: 526 total (+51 this month)</text>
  </g>
  <g class="hoverpoint">
    <line x1="749.6" y1="30" x2="749.6" y2="160.0" class="guide"/>
    <circle cx="749.6" cy="115.0" r="16" class="hit"/>
    <circle cx="749.6" cy="115.0" r="4" class="hover-dot"><title>Oct 2025: 692 total (+166 this month)</title></circle>
    <rect x="679.6" y="89.0" width="140" height="20" rx="4" class="tooltip-bg"/>
    <text x="749.6" y="103.0" class="tooltip-text" text-anchor="middle">Oct 2025: 692 total (+166 this month)</text>
  </g>
  <g class="hoverpoint">
    <line x1="761.4" y1="30" x2="761.4" y2="160.0" class="guide"/>
    <circle cx="761.4" cy="112.5" r="16" class="hit"/>
    <circle cx="761.4" cy="112.5" r="4" class="hover-dot"><title>Nov 2025: 731 total (+39 this month)</title></circle>
    <rect x="691.4" y="86.5" width="140" height="20" rx="4" class="tooltip-bg"/>
    <text x="761.4" y="100.5" class="tooltip-text" text-anchor="middle">Nov 2025: 731 total (+39 this month)</text>
  </g>
  <g class="hoverpoint">
    <line x1="773.5" y1="30" x2="773.5" y2="160.0" class="guide"/>
    <circle cx="773.5" cy="109.1" r="16" class="hit"/>
    <circle cx="773.5" cy="109.1" r="4" class="hover-dot"><title>Dec 2025: 783 total (+52 this month)</title></circle>
    <rect x="703.5" y="83.1" width="140" height="20" rx="4" class="tooltip-bg"/>
    <text x="773.5" y="97.1" class="tooltip-text" text-anchor="middle">Dec 2025: 783 total (+52 this month)</text>
  </g>
  <g class="hoverpoint">
    <line x1="785.6" y1="30" x2="785.6" y2="160.0" class="guide"/>
    <circle cx="785.6" cy="93.6" r="16" class="hit"/>
    <circle cx="785.6" cy="93.6" r="4" class="hover-dot"><title>Jan 2026: 1,022 total (+239 this month)</title></circle>
    <rect x="715.6" y="67.6" width="140" height="20" rx="4" class="tooltip-bg"/>
    <text x="785.6" y="81.6" class="tooltip-text" text-anchor="middle">Jan 2026: 1,022 total (+239 this month)</text>
  </g>
  <g class="hoverpoint">
    <line x1="796.5" y1="30" x2="796.5" y2="160.0" class="guide"/>
    <circle cx="796.5" cy="74.1" r="16" class="hit"/>
    <circle cx="796.5" cy="74.1" r="4" class="hover-dot"><title>Feb 2026: 1,321 total (+299 this month)</title></circle>
    <rect x="726.5" y="48.1" width="140" height="20" rx="4" class="tooltip-bg"/>
    <text x="796.5" y="62.1" class="tooltip-text" text-anchor="middle">Feb 2026: 1,321 total (+299 this month)</text>
  </g>
  <g class="hoverpoint">
    <line x1="808.7" y1="30" x2="808.7" y2="160.0" class="guide"/>
    <circle cx="808.7" cy="54.9" r="16" class="hit"/>
    <circle cx="808.7" cy="54.9" r="4" class="hover-dot"><title>Mar 2026: 1,617 total (+296 this month)</title></circle>
    <rect x="738.7" y="28.9" width="140" height="20" rx="4" class="tooltip-bg"/>
    <text x="808.7" y="42.9" class="tooltip-text" text-anchor="middle">Mar 2026: 1,617 total (+296 this month)</text>
  </g>
  <g class="hoverpoint">
    <line x1="820.0" y1="30" x2="820.0" y2="160.0" class="guide"/>
    <circle cx="820.0" cy="46.6" r="16" class="hit"/>
    <circle cx="820.0" cy="46.6" r="4" class="hover-dot"><title>Apr 2026: 1,744 total (+127 this month)</title></circle>
    <rect x="750.0" y="20.6" width="140" height="20" rx="4" class="tooltip-bg"/>
    <text x="820.0" y="34.6" class="tooltip-text" text-anchor="middle">Apr 2026: 1,744 total (+127 this month)</text>
  </g>

  <circle cx="820.0" cy="46.6" r="4" class="dot"/>
  <text x="810.0" y="36.6" class="total">1,744</text>

</svg>