<svg xmlns="http://www.w3.org/2000/svg" width="840" height="196" viewBox="0 0 840 196" fill="none">
  <style>
    .label { font-family: -apple-system, BlinkMacSystemFont, 'Segoe UI', Helvetica, Arial, sans-serif; font-size: 10px; fill: #8b949e; }
    .title { font-family: -apple-system, BlinkMacSystemFont, 'Segoe UI', Helvetica, Arial, sans-serif; font-size: 11px; fill: #8b949e; font-weight: 600; }
    .total { font-family: -apple-system, BlinkMacSystemFont, 'Segoe UI', Helvetica, Arial, sans-serif; font-size: 11px; fill: #7ee787; font-weight: 600; }
    .grid { stroke: #21262d; stroke-width: 1; }
    .line { stroke: #7ee787; stroke-width: 2; stroke-linecap: round; stroke-linejoin: round; fill: none; }
    .dot { fill: #7ee787; }
    .area { fill: url(#areaGrad); }
    /* Hover interaction */
    .hoverpoint .guide { stroke: #7ee787; stroke-width: 1; stroke-dasharray: 2,2; opacity: 0; }
    .hoverpoint .hover-dot { fill: #7ee787; opacity: 0; }
    .hoverpoint .hit { fill: transparent; cursor: pointer; }
    .hoverpoint .tooltip-bg { fill: #161b22; stroke: #30363d; stroke-width: 1; opacity: 0; }
    .hoverpoint .tooltip-text { font-family: -apple-system, BlinkMacSystemFont, 'Segoe UI', Helvetica, Arial, sans-serif; font-size: 9px; fill: #c9d1d9; opacity: 0; }
    .hoverpoint:hover .guide { opacity: 0.5; }
    .hoverpoint:hover .hover-dot { opacity: 1; }
    .hoverpoint:hover .tooltip-bg { opacity: 0.95; }
    .hoverpoint:hover .tooltip-text { opacity: 1; }
  </style>
  <defs>
    <linearGradient id="areaGrad" x1="0" y1="0" x2="0" y2="1">
      <stop offset="0%" stop-color="#7ee787" stop-opacity="0.15"/>
      <stop offset="100%" stop-color="#7ee787" stop-opacity="0.01"/>
    </linearGradient>
  </defs>

  <text x="60" y="18" class="title">Cumulative Commits</text>

  <line x1="60" y1="160.0" x2="820" y2="160.0" class="grid"/>
  <text x="50" y="163.0" class="label" text-anchor="end">0</text>
  <line x1="60" y1="127.5" x2="820" y2="127.5" class="grid" stroke-dasharray="3,3"/>
  <text x="50" y="130.5" class="label" text-anchor="end">750</text>
  <line x1="60" y1="95.0" x2="820" y2="95.0" class="grid" stroke-dasharray="3,3"/>
  <text x="50" y="98.0" class="label" text-anchor="end">1,500</text>
  <line x1="60" y1="62.5" x2="820" y2="62.5" class="grid" stroke-dasharray="3,3"/>
  <text x="50" y="65.5" class="label" text-anchor="end">2,250</text>
  <line x1="60" y1="30.0" x2="820" y2="30.0" class="grid" stroke-dasharray="3,3"/>
  <text x="50" y="33.0" class="label" text-anchor="end">3,000</text>

  <text x="70.0" y="186" class="label" text-anchor="middle">2021</text>
  <text x="199.6" y="186" class="label" text-anchor="middle">2022</text>
  <text x="339.2" y="186" class="label" text-anchor="middle">2023</text>
  <text x="478.8" y="186" class="label" text-anchor="middle">2024</text>
  <text x="618.8" y="186" class="label" text-anchor="middle">2025</text>
  <text x="758.4" y="186" class="label" text-anchor="middle">2026</text>


  <path class="area" d="M60.0,160.0 L60.0,160.0 60.0,160.0 L179.7,159.8 L180.1,159.7 L181.2,159.7 L199.6,159.6 L200.0,159.3 L200.4,159.3 L200.8,159.1 L201.1,159.0 L201.5,159.0 L202.3,158.7 L202.7,158.6 L203.0,158.5 L203.4,158.5 L205.0,158.4 L205.3,158.3 L205.7,158.3 L209.6,158.2 L219.5,158.1 L271.9,158.1 L272.3,157.7 L273.8,157.6 L274.6,157.3 L280.3,157.2 L281.1,157.1 L281.5,156.9 L281.8,156.9 L282.6,156.8 L283.0,156.4 L283.4,156.0 L283.8,155.9 L285.3,155.8 L286.0,155.7 L288.0,155.6 L293.3,155.4 L303.6,155.3 L309.4,155.3 L312.1,155.2 L312.4,155.1 L312.8,155.0 L313.2,154.8 L314.4,154.5 L314.7,154.5 L315.1,154.5 L316.6,154.3 L317.0,154.1 L317.4,154.0 L317.8,153.6 L318.2,153.2 L318.6,153.1 L318.9,153.0 L319.7,152.9 L321.2,152.8 L325.4,152.7 L336.5,152.7 L336.9,152.5 L337.3,152.4 L341.1,152.0 L341.5,151.0 L342.7,150.9 L343.0,150.9 L345.0,150.7 L358.0,150.6 L358.3,150.5 L358.7,150.4 L359.5,150.2 L362.2,150.1 L362.9,149.9 L363.3,149.8 L365.2,149.7 L374.4,149.6 L562.6,149.5 L563.4,149.5 L564.1,149.4 L564.9,149.3 L565.3,149.3 L565.6,149.2 L566.0,149.2 L566.4,149.1 L570.2,149.1 L580.9,149.0 L584.0,149.0 L585.2,148.9 L587.4,148.9 L589.7,148.9 L590.1,148.8 L591.7,148.8 L592.8,148.7 L593.6,148.7 L621.9,148.6 L622.3,148.6 L623.0,148.5 L623.4,148.5 L624.5,148.3 L626.5,148.3 L631.8,148.2 L642.9,147.8 L643.3,147.7 L648.3,147.6 L648.6,147.5 L649.8,147.4 L651.3,147.3 L653.2,146.8 L653.6,145.6 L654.0,145.5 L656.3,145.4 L657.4,145.4 L657.8,145.4 L658.6,145.2 L661.7,145.1 L664.3,144.8 L666.2,144.5 L666.6,144.4 L667.8,144.1 L668.2,143.6 L668.5,143.5 L668.9,143.3 L669.3,143.1 L669.7,142.9 L670.4,142.6 L671.6,142.3 L685.4,142.2 L686.1,141.6 L694.5,141.5 L699.5,141.3 L701.8,141.2 L702.2,141.2 L704.5,141.2 L704.9,141.1 L705.3,141.1 L705.6,140.9 L706.0,140.8 L706.4,140.3 L706.8,140.2 L709.1,139.6 L709.5,139.5 L710.2,139.4 L712.9,139.2 L713.7,139.2 L714.1,139.0 L714.8,139.0 L715.2,138.7 L715.6,138.6 L716.3,138.5 L716.7,138.4 L717.1,138.4 L717.5,138.3 L719.0,138.1 L719.4,138.0 L719.8,137.9 L720.2,137.8 L720.6,137.7 L720.9,137.6 L722.1,137.4 L722.5,137.3 L722.8,137.2 L723.2,137.1 L723.6,136.8 L724.4,136.7 L724.8,136.3 L725.1,136.0 L725.5,135.2 L725.9,135.0 L726.3,134.8 L726.7,134.3 L727.1,134.3 L727.4,134.1 L727.8,134.1 L728.2,133.8 L730.1,133.3 L730.5,133.2 L730.9,132.8 L731.3,132.1 L731.6,132.0 L732.4,131.9 L732.8,131.3 L733.2,130.9 L733.6,130.9 L733.9,130.2 L734.7,130.0 L735.1,129.9 L735.5,129.8 L735.9,129.8 L736.2,129.8 L736.6,129.7 L738.1,129.6 L738.9,129.5 L739.3,129.2 L739.7,129.0 L740.8,129.0 L742.7,128.9 L745.0,128.7 L745.4,128.6 L745.8,128.6 L746.2,128.3 L746.6,127.7 L746.9,127.7 L747.3,127.6 L747.7,127.5 L748.1,127.4 L748.5,127.1 L752.7,127.0 L753.1,126.9 L756.5,126.6 L757.3,126.3 L757.7,126.2 L758.0,126.1 L758.4,126.0 L759.6,125.9 L759.9,125.2 L760.3,123.7 L760.7,122.3 L761.1,122.3 L761.5,122.1 L762.2,121.9 L762.6,121.7 L763.0,121.4 L763.8,121.3 L764.2,120.9 L764.5,120.9 L765.3,120.3 L765.7,120.2 L766.1,119.9 L766.5,119.7 L766.8,119.4 L767.2,119.4 L768.4,119.0 L768.7,118.7 L769.1,117.7 L769.5,116.3 L769.9,115.7 L770.3,115.1 L770.7,115.0 L771.0,114.8 L771.4,114.6 L771.8,114.2 L772.2,113.8 L772.6,113.7 L773.0,113.4 L773.3,113.3 L773.7,113.0 L774.1,112.6 L774.5,112.3 L774.9,111.9 L775.2,111.8 L775.6,111.6 L776.0,110.9 L776.4,109.6 L776.8,109.4 L777.5,109.1 L777.9,109.0 L778.3,108.9 L778.7,106.8 L779.1,105.8 L779.5,104.9 L779.8,104.5 L780.2,102.9 L780.6,102.8 L781.0,102.7 L781.4,102.3 L781.8,101.6 L782.1,100.2 L782.5,98.8 L782.9,98.7 L783.3,98.4 L784.0,98.3 L784.4,97.5 L784.8,96.8 L785.2,95.9 L785.6,95.7 L786.0,95.7 L786.3,94.3 L786.7,92.6 L787.1,91.9 L787.5,91.5 L787.9,91.1 L788.3,90.7 L788.6,90.7 L789.4,90.5 L789.8,90.2 L790.2,90.1 L790.5,90.1 L790.9,90.0 L792.1,90.0 L792.5,89.9 L793.2,89.8 L794.0,89.8 L794.4,89.7 L795.1,89.1 L795.5,88.8 L795.9,88.4 L798.2,88.3 L798.6,88.0 L799.0,87.9 L799.3,87.5 L799.7,87.5 L800.1,87.4 L800.5,87.3 L800.9,86.7 L801.3,86.0 L801.6,85.8 L802.0,84.5 L802.4,84.3 L803.2,84.3 L803.6,84.2 L804.7,83.8 L805.1,83.3 L805.5,83.0 L805.8,82.7 L806.2,81.7 L806.6,78.0 L807.0,76.4 L807.4,76.1 L807.8,75.8 L808.1,75.2 L808.5,75.1 L808.9,69.9 L809.3,63.5 L809.7,61.6 L810.1,61.5 L810.4,60.6 L810.8,59.8 L811.2,56.0 L811.6,53.6 L812.0,50.1 L812.4,49.3 L812.7,49.2 L813.1,49.1 L813.5,47.9 L813.9,46.1 L814.3,42.1 L814.6,41.5 L815.0,40.7 L815.4,39.5 L815.8,38.9 L816.2,38.3 L816.6,35.9 L816.9,35.3 L817.3,35.2 L817.7,34.9 L818.1,34.7 L818.5,34.3 L818.9,34.2 L819.2,33.0 L819.6,31.2 L820.0,30.5 L820.0,160.0 Z"/>
  <polyline class="line" points="60.0,160.0 179.7,159.8 180.1,159.7 181.2,159.7 199.6,159.6 200.0,159.3 200.4,159.3 200.8,159.1 201.1,159.0 201.5,159.0 202.3,158.7 202.7,158.6 203.0,158.5 203.4,158.5 205.0,158.4 205.3,158.3 205.7,158.3 209.6,158.2 219.5,158.1 271.9,158.1 272.3,157.7 273.8,157.6 274.6,157.3 280.3,157.2 281.1,157.1 281.5,156.9 281.8,156.9 282.6,156.8 283.0,156.4 283.4,156.0 283.8,155.9 285.3,155.8 286.0,155.7 288.0,155.6 293.3,155.4 303.6,155.3 309.4,155.3 312.1,155.2 312.4,155.1 312.8,155.0 313.2,154.8 314.4,154.5 314.7,154.5 315.1,154.5 316.6,154.3 317.0,154.1 317.4,154.0 317.8,153.6 318.2,153.2 318.6,153.1 318.9,153.0 319.7,152.9 321.2,152.8 325.4,152.7 336.5,152.7 336.9,152.5 337.3,152.4 341.1,152.0 341.5,151.0 342.7,150.9 343.0,150.9 345.0,150.7 358.0,150.6 358.3,150.5 358.7,150.4 359.5,150.2 362.2,150.1 362.9,149.9 363.3,149.8 365.2,149.7 374.4,149.6 562.6,149.5 563.4,149.5 564.1,149.4 564.9,149.3 565.3,149.3 565.6,149.2 566.0,149.2 566.4,149.1 570.2,149.1 580.9,149.0 584.0,149.0 585.2,148.9 587.4,148.9 589.7,148.9 590.1,148.8 591.7,148.8 592.8,148.7 593.6,148.7 621.9,148.6 622.3,148.6 623.0,148.5 623.4,148.5 624.5,148.3 626.5,148.3 631.8,148.2 642.9,147.8 643.3,147.7 648.3,147.6 648.6,147.5 649.8,147.4 651.3,147.3 653.2,146.8 653.6,145.6 654.0,145.5 656.3,145.4 657.4,145.4 657.8,145.4 658.6,145.2 661.7,145.1 664.3,144.8 666.2,144.5 666.6,144.4 667.8,144.1 668.2,143.6 668.5,143.5 668.9,143.3 669.3,143.1 669.7,142.9 670.4,142.6 671.6,142.3 685.4,142.2 686.1,141.6 694.5,141.5 699.5,141.3 701.8,141.2 702.2,141.2 704.5,141.2 704.9,141.1 705.3,141.1 705.6,140.9 706.0,140.8 706.4,140.3 706.8,140.2 709.1,139.6 709.5,139.5 710.2,139.4 712.9,139.2 713.7,139.2 714.1,139.0 714.8,139.0 715.2,138.7 715.6,138.6 716.3,138.5 716.7,138.4 717.1,138.4 717.5,138.3 719.0,138.1 719.4,138.0 719.8,137.9 720.2,137.8 720.6,137.7 720.9,137.6 722.1,137.4 722.5,137.3 722.8,137.2 723.2,137.1 723.6,136.8 724.4,136.7 724.8,136.3 725.1,136.0 725.5,135.2 725.9,135.0 726.3,134.8 726.7,134.3 727.1,134.3 727.4,134.1 727.8,134.1 728.2,133.8 730.1,133.3 730.5,133.2 730.9,132.8 731.3,132.1 731.6,132.0 732.4,131.9 732.8,131.3 733.2,130.9 733.6,130.9 733.9,130.2 734.7,130.0 735.1,129.9 735.5,129.8 735.9,129.8 736.2,129.8 736.6,129.7 738.1,129.6 738.9,129.5 739.3,129.2 739.7,129.0 740.8,129.0 742.7,128.9 745.0,128.7 745.4,128.6 745.8,128.6 746.2,128.3 746.6,127.7 746.9,127.7 747.3,127.6 747.7,127.5 748.1,127.4 748.5,127.1 752.7,127.0 753.1,126.9 756.5,126.6 757.3,126.3 757.7,126.2 758.0,126.1 758.4,126.0 759.6,125.9 759.9,125.2 760.3,123.7 760.7,122.3 761.1,122.3 761.5,122.1 762.2,121.9 762.6,121.7 763.0,121.4 763.8,121.3 764.2,120.9 764.5,120.9 765.3,120.3 765.7,120.2 766.1,119.9 766.5,119.7 766.8,119.4 767.2,119.4 768.4,119.0 768.7,118.7 769.1,117.7 769.5,116.3 769.9,115.7 770.3,115.1 770.7,115.0 771.0,114.8 771.4,114.6 771.8,114.2 772.2,113.8 772.6,113.7 773.0,113.4 773.3,113.3 773.7,113.0 774.1,112.6 774.5,112.3 774.9,111.9 775.2,111.8 775.6,111.6 776.0,110.9 776.4,109.6 776.8,109.4 777.5,109.1 777.9,109.0 778.3,108.9 778.7,106.8 779.1,105.8 779.5,104.9 779.8,104.5 780.2,102.9 780.6,102.8 781.0,102.7 781.4,102.3 781.8,101.6 782.1,100.2 782.5,98.8 782.9,98.7 783.3,98.4 784.0,98.3 784.4,97.5 784.8,96.8 785.2,95.9 785.6,95.7 786.0,95.7 786.3,94.3 786.7,92.6 787.1,91.9 787.5,91.5 787.9,91.1 788.3,90.7 788.6,90.7 789.4,90.5 789.8,90.2 790.2,90.1 790.5,90.1 790.9,90.0 792.1,90.0 792.5,89.9 793.2,89.8 794.0,89.8 794.4,89.7 795.1,89.1 795.5,88.8 795.9,88.4 798.2,88.3 798.6,88.0 799.0,87.9 799.3,87.5 799.7,87.5 800.1,87.4 800.5,87.3 800.9,86.7 801.3,86.0 801.6,85.8 802.0,84.5 802.4,84.3 803.2,84.3 803.6,84.2 804.7,83.8 805.1,83.3 805.5,83.0 805.8,82.7 806.2,81.7 806.6,78.0 807.0,76.4 807.4,76.1 807.8,75.8 808.1,75.2 808.5,75.1 808.9,69.9 809.3,63.5 809.7,61.6 810.1,61.5 810.4,60.6 810.8,59.8 811.2,56.0 811.6,53.6 812.0,50.1 812.4,49.3 812.7,49.2 813.1,49.1 813.5,47.9 813.9,46.1 814.3,42.1 814.6,41.5 815.0,40.7 815.4,39.5 815.8,38.9 816.2,38.3 816.6,35.9 816.9,35.3 817.3,35.2 817.7,34.9 818.1,34.7 818.5,34.3 818.9,34.2 819.2,33.0 819.6,31.2 820.0,30.5"/>

  <g class="hoverpoint">
    <line x1="181.2" y1="30" x2="181.2" y2="160.0" class="guide"/>
    <circle cx="181.2" cy="159.7" r="16" class="hit"/>
    <circle cx="181.2" cy="159.7" r="4" class="hover-dot"><title>Nov 2021: 7 total (+7 this month)</title></circle>
    <rect x="111.2" y="133.7" width="140" height="20" rx="4" class="tooltip-bg"/>
    <text x="181.2" y="147.7" class="tooltip-text" text-anchor="middle">Nov 2021: 7 total (+7 this month)</text>
  </g>
  <g class="hoverpoint">
    <line x1="209.6" y1="30" x2="209.6" y2="160.0" class="guide"/>
    <circle cx="209.6" cy="158.2" r="16" class="hit"/>
    <circle cx="209.6" cy="158.2" r="4" class="hover-dot"><title>Jan 2022: 41 total (+34 this month)</title></circle>
    <rect x="139.6" y="132.2" width="140" height="20" rx="4" class="tooltip-bg"/>
    <text x="209.6" y="146.2" class="tooltip-text" text-anchor="middle">Jan 2022: 41 total (+34 this month)</text>
  </g>
  <g class="hoverpoint">
    <line x1="219.5" y1="30" x2="219.5" y2="160.0" class="guide"/>
    <circle cx="219.5" cy="158.1" r="16" class="hit"/>
    <circle cx="219.5" cy="158.1" r="4" class="hover-dot"><title>Feb 2022: 44 total (+3 this month)</title></circle>
    <rect x="149.5" y="132.1" width="140" height="20" rx="4" class="tooltip-bg"/>
    <text x="219.5" y="146.1" class="tooltip-text" text-anchor="middle">Feb 2022: 44 total (+3 this month)</text>
  </g>
  <g class="hoverpoint">
    <line x1="280.3" y1="30" x2="280.3" y2="160.0" class="guide"/>
    <circle cx="280.3" cy="157.2" r="16" class="hit"/>
    <circle cx="280.3" cy="157.2" r="4" class="hover-dot"><title>Jul 2022: 65 total (+21 this month)</title></circle>
    <rect x="210.3" y="131.2" width="140" height="20" rx="4" class="tooltip-bg"/>
    <text x="280.3" y="145.2" class="tooltip-text" text-anchor="middle">Jul 2022: 65 total (+21 this month)</text>
  </g>
  <g class="hoverpoint">
    <line x1="288.0" y1="30" x2="288.0" y2="160.0" class="guide"/>
    <circle cx="288.0" cy="155.6" r="16" class="hit"/>
    <circle cx="288.0" cy="155.6" r="4" class="hover-dot"><title>Aug 2022: 101 total (+36 this month)</title></circle>
    <rect x="218.0" y="129.6" width="140" height="20" rx="4" class="tooltip-bg"/>
    <text x="288.0" y="143.6" class="tooltip-text" text-anchor="middle">Aug 2022: 101 total (+36 this month)</text>
  </g>
  <g class="hoverpoint">
    <line x1="303.6" y1="30" x2="303.6" y2="160.0" class="guide"/>
    <circle cx="303.6" cy="155.3" r="16" class="hit"/>
    <circle cx="303.6" cy="155.3" r="4" class="hover-dot"><title>Sep 2022: 108 total (+7 this month)</title></circle>
    <rect x="233.6" y="129.3" width="140" height="20" rx="4" class="tooltip-bg"/>
    <text x="303.6" y="143.3" class="tooltip-text" text-anchor="middle">Sep 2022: 108 total (+7 this month)</text>
  </g>
  <g class="hoverpoint">
    <line x1="315.1" y1="30" x2="315.1" y2="160.0" class="guide"/>
    <circle cx="315.1" cy="154.5" r="16" class="hit"/>
    <circle cx="315.1" cy="154.5" r="4" class="hover-dot"><title>Oct 2022: 128 total (+20 this month)</title></circle>
    <rect x="245.1" y="128.5" width="140" height="20" rx="4" class="tooltip-bg"/>
    <text x="315.1" y="142.5" class="tooltip-text" text-anchor="middle">Oct 2022: 128 total (+20 this month)</text>
  </g>
  <g class="hoverpoint">
    <line x1="325.4" y1="30" x2="325.4" y2="160.0" class="guide"/>
    <circle cx="325.4" cy="152.7" r="16" class="hit"/>
    <circle cx="325.4" cy="152.7" r="4" class="hover-dot"><title>Nov 2022: 168 total (+40 this month)</title></circle>
    <rect x="255.4" y="126.7" width="140" height="20" rx="4" class="tooltip-bg"/>
    <text x="325.4" y="140.7" class="tooltip-text" text-anchor="middle">Nov 2022: 168 total (+40 this month)</text>
  </g>
  <g class="hoverpoint">
    <line x1="337.3" y1="30" x2="337.3" y2="160.0" class="guide"/>
    <circle cx="337.3" cy="152.4" r="16" class="hit"/>
    <circle cx="337.3" cy="152.4" r="4" class="hover-dot"><title>Dec 2022: 175 total (+7 this month)</title></circle>
    <rect x="267.3" y="126.4" width="140" height="20" rx="4" class="tooltip-bg"/>
    <text x="337.3" y="140.4" class="tooltip-text" text-anchor="middle">Dec 2022: 175 total (+7 this month)</text>
  </g>
  <g class="hoverpoint">
    <line x1="345.0" y1="30" x2="345.0" y2="160.0" class="guide"/>
    <circle cx="345.0" cy="150.7" r="16" class="hit"/>
    <circle cx="345.0" cy="150.7" r="4" class="hover-dot"><title>Jan 2023: 214 total (+39 this month)</title></circle>
    <rect x="275.0" y="124.7" width="140" height="20" rx="4" class="tooltip-bg"/>
    <text x="345.0" y="138.7" class="tooltip-text" text-anchor="middle">Jan 2023: 214 total (+39 this month)</text>
  </g>
  <g class="hoverpoint">
    <line x1="359.5" y1="30" x2="359.5" y2="160.0" class="guide"/>
    <circle cx="359.5" cy="150.2" r="16" class="hit"/>
    <circle cx="359.5" cy="150.2" r="4" class="hover-dot"><title>Feb 2023: 225 total (+11 this month)</title></circle>
    <rect x="289.5" y="124.2" width="140" height="20" rx="4" class="tooltip-bg"/>
    <text x="359.5" y="138.2" class="tooltip-text" text-anchor="middle">Feb 2023: 225 total (+11 this month)</text>
  </g>
  <g class="hoverpoint">
    <line x1="365.2" y1="30" x2="365.2" y2="160.0" class="guide"/>
    <circle cx="365.2" cy="149.7" r="16" class="hit"/>
    <circle cx="365.2" cy="149.7" r="4" class="hover-dot"><title>Mar 2023: 237 total (+12 this month)</title></circle>
    <rect x="295.2" y="123.7" width="140" height="20" rx="4" class="tooltip-bg"/>
    <text x="365.2" y="137.7" class="tooltip-text" text-anchor="middle">Mar 2023: 237 total (+12 this month)</text>
  </g>
  <g class="hoverpoint">
    <line x1="374.4" y1="30" x2="374.4" y2="160.0" class="guide"/>
    <circle cx="374.4" cy="149.6" r="16" class="hit"/>
    <circle cx="374.4" cy="149.6" r="4" class="hover-dot"><title>Apr 2023: 240 total (+3 this month)</title></circle>
    <rect x="304.4" y="123.6" width="140" height="20" rx="4" class="tooltip-bg"/>
    <text x="374.4" y="137.6" class="tooltip-text" text-anchor="middle">Apr 2023: 240 total (+3 this month)</text>
  </g>
  <g class="hoverpoint">
    <line x1="570.2" y1="30" x2="570.2" y2="160.0" class="guide"/>
    <circle cx="570.2" cy="149.1" r="16" class="hit"/>
    <circle cx="570.2" cy="149.1" r="4" class="hover-dot"><title>Aug 2024: 252 total (+12 this month)</title></circle>
    <rect x="500.2" y="123.1" width="140" height="20" rx="4" class="tooltip-bg"/>
    <text x="570.2" y="137.1" class="tooltip-text" text-anchor="middle">Aug 2024: 252 total (+12 this month)</text>
  </g>
  <g class="hoverpoint">
    <line x1="580.9" y1="30" x2="580.9" y2="160.0" class="guide"/>
    <circle cx="580.9" cy="149.0" r="16" class="hit"/>
    <circle cx="580.9" cy="149.0" r="4" class="hover-dot"><title>Sep 2024: 253 total (+1 this month)</title></circle>
    <rect x="510.9" y="123.0" width="140" height="20" rx="4" class="tooltip-bg"/>
    <text x="580.9" y="137.0" class="tooltip-text" text-anchor="middle">Sep 2024: 253 total (+1 this month)</text>
  </g>
  <g class="hoverpoint">
    <line x1="593.6" y1="30" x2="593.6" y2="160.0" class="guide"/>
    <circle cx="593.6" cy="148.7" r="16" class="hit"/>
    <circle cx="593.6" cy="148.7" r="4" class="hover-dot"><title>Oct 2024: 261 total (+8 this month)</title></circle>
    <rect x="523.6" y="122.7" width="140" height="20" rx="4" class="tooltip-bg"/>
    <text x="593.6" y="136.7" class="tooltip-text" text-anchor="middle">Oct 2024: 261 total (+8 this month)</text>
  </g>
  <g class="hoverpoint">
    <line x1="626.5" y1="30" x2="626.5" y2="160.0" class="guide"/>
    <circle cx="626.5" cy="148.3" r="16" class="hit"/>
    <circle cx="626.5" cy="148.3" r="4" class="hover-dot"><title>Jan 2025: 270 total (+9 this month)</title></circle>
    <rect x="556.5" y="122.3" width="140" height="20" rx="4" class="tooltip-bg"/>
    <text x="626.5" y="136.3" class="tooltip-text" text-anchor="middle">Jan 2025: 270 total (+9 this month)</text>
  </g>
  <g class="hoverpoint">
    <line x1="631.8" y1="30" x2="631.8" y2="160.0" class="guide"/>
    <circle cx="631.8" cy="148.2" r="16" class="hit"/>
    <circle cx="631.8" cy="148.2" r="4" class="hover-dot"><title>Feb 2025: 272 total (+2 this month)</title></circle>
    <rect x="561.8" y="122.2" width="140" height="20" rx="4" class="tooltip-bg"/>
    <text x="631.8" y="136.2" class="tooltip-text" text-anchor="middle">Feb 2025: 272 total (+2 this month)</text>
  </g>
  <g class="hoverpoint">
    <line x1="651.3" y1="30" x2="651.3" y2="160.0" class="guide"/>
    <circle cx="651.3" cy="147.3" r="16" class="hit"/>
    <circle cx="651.3" cy="147.3" r="4" class="hover-dot"><title>Mar 2025: 294 total (+22 this month)</title></circle>
    <rect x="581.3" y="121.3" width="140" height="20" rx="4" class="tooltip-bg"/>
    <text x="651.3" y="135.3" class="tooltip-text" text-anchor="middle">Mar 2025: 294 total (+22 this month)</text>
  </g>
  <g class="hoverpoint">
    <line x1="664.3" y1="30" x2="664.3" y2="160.0" class="guide"/>
    <circle cx="664.3" cy="144.8" r="16" class="hit"/>
    <circle cx="664.3" cy="144.8" r="4" class="hover-dot"><title>Apr 2025: 351 total (+57 this month)</title></circle>
    <rect x="594.3" y="118.8" width="140" height="20" rx="4" class="tooltip-bg"/>
    <text x="664.3" y="132.8" class="tooltip-text" text-anchor="middle">Apr 2025: 351 total (+57 this month)</text>
  </g>
  <g class="hoverpoint">
    <line x1="671.6" y1="30" x2="671.6" y2="160.0" class="guide"/>
    <circle cx="671.6" cy="142.3" r="16" class="hit"/>
    <circle cx="671.6" cy="142.3" r="4" class="hover-dot"><title>May 2025: 408 total (+57 this month)</title></circle>
    <rect x="601.6" y="116.3" width="140" height="20" rx="4" class="tooltip-bg"/>
    <text x="671.6" y="130.3" class="tooltip-text" text-anchor="middle">May 2025: 408 total (+57 this month)</text>
  </g>
  <g class="hoverpoint">
    <line x1="686.1" y1="30" x2="686.1" y2="160.0" class="guide"/>
    <circle cx="686.1" cy="141.6" r="16" class="hit"/>
    <circle cx="686.1" cy="141.6" r="4" class="hover-dot"><title>Jun 2025: 424 total (+16 this month)</title></circle>
    <rect x="616.1" y="115.6" width="140" height="20" rx="4" class="tooltip-bg"/>
    <text x="686.1" y="129.6" class="tooltip-text" text-anchor="middle">Jun 2025: 424 total (+16 this month)</text>
  </g>
  <g class="hoverpoint">
    <line x1="699.5" y1="30" x2="699.5" y2="160.0" class="guide"/>
    <circle cx="699.5" cy="141.3" r="16" class="hit"/>
    <circle cx="699.5" cy="141.3" r="4" class="hover-dot"><title>Jul 2025: 432 total (+8 this month)</title></circle>
    <rect x="629.5" y="115.3" width="140" height="20" rx="4" class="tooltip-bg"/>
    <text x="699.5" y="129.3" class="tooltip-text" text-anchor="middle">Jul 2025: 432 total (+8 this month)</text>
  </g>
  <g class="hoverpoint">
    <line x1="710.2" y1="30" x2="710.2" y2="160.0" class="guide"/>
    <circle cx="710.2" cy="139.4" r="16" class="hit"/>
    <circle cx="710.2" cy="139.4" r="4" class="hover-dot"><title>Aug 2025: 475 total (+43 this month)</title></circle>
    <rect x="640.2" y="113.4" width="140" height="20" rx="4" class="tooltip-bg"/>
    <text x="710.2" y="127.4" class="tooltip-text" text-anchor="middle">Aug 2025: 475 total (+43 this month)</text>
  </g>
  <g class="hoverpoint">
    <line x1="722.8" y1="30" x2="722.8" y2="160.0" class="guide"/>
    <circle cx="722.8" cy="137.2" r="16" class="hit"/>
    <circle cx="722.8" cy="137.2" r="4" class="hover-dot"><title>Sep 2025: 526 total (+51 this month)</title></circle>
    <rect x="652.8" y="111.2" width="140" height="20" rx="4" class="tooltip-bg"/>
    <text x="722.8" y="125.2" class="tooltip-text" text-anchor="middle">Sep 2025: 526 total (+51 this month)</text>
  </g>
  <g class="hoverpoint">
    <line x1="734.7" y1="30" x2="734.7" y2="160.0" class="guide"/>
    <circle cx="734.7" cy="130.0" r="16" class="hit"/>
    <circle cx="734.7" cy="130.0" r="4" class="hover-dot"><title>Oct 2025: 692 total (+166 this month)</title></circle>
    <rect x="664.7" y="104.0" width="140" height="20" rx="4" class="tooltip-bg"/>
    <text x="734.7" y="118.0" class="tooltip-text" text-anchor="middle">Oct 2025: 692 total (+166 this month)</text>
  </g>
  <g class="hoverpoint">
    <line x1="746.2" y1="30" x2="746.2" y2="160.0" class="guide"/>
    <circle cx="746.2" cy="128.3" r="16" class="hit"/>
    <circle cx="746.2" cy="128.3" r="4" class="hover-dot"><title>Nov 2025: 731 total (+39 this month)</title></circle>
    <rect x="676.2" y="102.3" width="140" height="20" rx="4" class="tooltip-bg"/>
    <text x="746.2" y="116.3" class="tooltip-text" text-anchor="middle">Nov 2025: 731 total (+39 this month)</text>
  </g>
  <g class="hoverpoint">
    <line x1="758.0" y1="30" x2="758.0" y2="160.0" class="guide"/>
    <circle cx="758.0" cy="126.1" r="16" class="hit"/>
    <circle cx="758.0" cy="126.1" r="4" class="hover-dot"><title>Dec 2025: 783 total (+52 this month)</title></circle>
    <rect x="688.0" y="100.1" width="140" height="20" rx="4" class="tooltip-bg"/>
    <text x="758.0" y="114.1" class="tooltip-text" text-anchor="middle">Dec 2025: 783 total (+52 this month)</text>
  </g>
  <g class="hoverpoint">
    <line x1="769.9" y1="30" x2="769.9" y2="160.0" class="guide"/>
    <circle cx="769.9" cy="115.7" r="16" class="hit"/>
    <circle cx="769.9" cy="115.7" r="4" class="hover-dot"><title>Jan 2026: 1,022 total (+239 this month)</title></circle>
    <rect x="699.9" y="89.7" width="140" height="20" rx="4" class="tooltip-bg"/>
    <text x="769.9" y="103.7" class="tooltip-text" text-anchor="middle">Jan 2026: 1,022 total (+239 this month)</text>
  </g>
  <g class="hoverpoint">
    <line x1="780.6" y1="30" x2="780.6" y2="160.0" class="guide"/>
    <circle cx="780.6" cy="102.8" r="16" class="hit"/>
    <circle cx="780.6" cy="102.8" r="4" class="hover-dot"><title>Feb 2026: 1,321 total (+299 this month)</title></circle>
    <rect x="710.6" y="76.8" width="140" height="20" rx="4" class="tooltip-bg"/>
    <text x="780.6" y="90.8" class="tooltip-text" text-anchor="middle">Feb 2026: 1,321 total (+299 this month)</text>
  </g>
  <g class="hoverpoint">
    <line x1="792.5" y1="30" x2="792.5" y2="160.0" class="guide"/>
    <circle cx="792.5" cy="89.9" r="16" class="hit"/>
    <circle cx="792.5" cy="89.9" r="4" class="hover-dot"><title>Mar 2026: 1,617 total (+296 this month)</title></circle>
    <rect x="722.5" y="63.9" width="140" height="20" rx="4" class="tooltip-bg"/>
    <text x="792.5" y="77.9" class="tooltip-text" text-anchor="middle">Mar 2026: 1,617 total (+296 this month)</text>
  </g>
  <g class="hoverpoint">
    <line x1="803.6" y1="30" x2="803.6" y2="160.0" class="guide"/>
    <circle cx="803.6" cy="84.2" r="16" class="hit"/>
    <circle cx="803.6" cy="84.2" r="4" class="hover-dot"><title>Apr 2026: 1,749 total (+132 this month)</title></circle>
    <rect x="733.6" y="58.2" width="140" height="20" rx="4" class="tooltip-bg"/>
    <text x="803.6" y="72.2" class="tooltip-text" text-anchor="middle">Apr 2026: 1,749 total (+132 this month)</text>
  </g>
  <g class="hoverpoint">
    <line x1="815.8" y1="30" x2="815.8" y2="160.0" class="guide"/>
    <circle cx="815.8" cy="38.9" r="16" class="hit"/>
    <circle cx="815.8" cy="38.9" r="4" class="hover-dot"><title>May 2026: 2,795 total (+1,046 this month)</title></circle>
    <rect x="745.8" y="12.9" width="140" height="20" rx="4" class="tooltip-bg"/>
    <text x="815.8" y="26.9" class="tooltip-text" text-anchor="middle">May 2026: 2,795 total (+1,046 this month)</text>
  </g>
  <g class="hoverpoint">
    <line x1="820.0" y1="30" x2="820.0" y2="160.0" class="guide"/>
    <circle cx="820.0" cy="30.5" r="16" class="hit"/>
    <circle cx="820.0" cy="30.5" r="4" class="hover-dot"><title>Jun 2026: 2,989 total (+194 this month)</title></circle>
    <rect x="750.0" y="4.5" width="140" height="20" rx="4" class="tooltip-bg"/>
    <text x="820.0" y="18.5" class="tooltip-text" text-anchor="middle">Jun 2026: 2,989 total (+194 this month)</text>
  </g>

  <circle cx="820.0" cy="30.5" r="4" class="dot"/>
  <text x="810.0" y="20.5" class="total">2,989</text>

</svg>