<svg xmlns="http://www.w3.org/2000/svg" width="840" height="196" viewBox="0 0 840 196" fill="none">
  <style>
    .label { font-family: -apple-system, BlinkMacSystemFont, 'Segoe UI', Helvetica, Arial, sans-serif; font-size: 10px; fill: #8b949e; }
    .title { font-family: -apple-system, BlinkMacSystemFont, 'Segoe UI', Helvetica, Arial, sans-serif; font-size: 11px; fill: #8b949e; font-weight: 600; }
    .total { font-family: -apple-system, BlinkMacSystemFont, 'Segoe UI', Helvetica, Arial, sans-serif; font-size: 11px; fill: #7ee787; font-weight: 600; }
    .grid { stroke: #21262d; stroke-width: 1; }
    .line { stroke: #7ee787; stroke-width: 2; stroke-linecap: round; stroke-linejoin: round; fill: none; }
    .dot { fill: #7ee787; }
    .area { fill: url(#areaGrad); }
    /* Hover interaction */
    .hoverpoint .guide { stroke: #7ee787; stroke-width: 1; stroke-dasharray: 2,2; opacity: 0; }
    .hoverpoint .hover-dot { fill: #7ee787; opacity: 0; }
    .hoverpoint .hit { fill: transparent; cursor: pointer; }
    .hoverpoint .tooltip-bg { fill: #161b22; stroke: #30363d; stroke-width: 1; opacity: 0; }
    .hoverpoint .tooltip-text { font-family: -apple-system, BlinkMacSystemFont, 'Segoe UI', Helvetica, Arial, sans-serif; font-size: 9px; fill: #c9d1d9; opacity: 0; }
    .hoverpoint:hover .guide { opacity: 0.5; }
    .hoverpoint:hover .hover-dot { opacity: 1; }
    .hoverpoint:hover .tooltip-bg { opacity: 0.95; }
    .hoverpoint:hover .tooltip-text { opacity: 1; }
  </style>
  <defs>
    <linearGradient id="areaGrad" x1="0" y1="0" x2="0" y2="1">
      <stop offset="0%" stop-color="#7ee787" stop-opacity="0.15"/>
      <stop offset="100%" stop-color="#7ee787" stop-opacity="0.01"/>
    </linearGradient>
  </defs>

  <text x="60" y="18" class="title">Cumulative Commits</text>

  <line x1="60" y1="160.0" x2="820" y2="160.0" class="grid"/>
  <text x="50" y="163.0" class="label" text-anchor="end">0</text>
  <line x1="60" y1="127.5" x2="820" y2="127.5" class="grid" stroke-dasharray="3,3"/>
  <text x="50" y="130.5" class="label" text-anchor="end">750</text>
  <line x1="60" y1="95.0" x2="820" y2="95.0" class="grid" stroke-dasharray="3,3"/>
  <text x="50" y="98.0" class="label" text-anchor="end">1,500</text>
  <line x1="60" y1="62.5" x2="820" y2="62.5" class="grid" stroke-dasharray="3,3"/>
  <text x="50" y="65.5" class="label" text-anchor="end">2,250</text>
  <line x1="60" y1="30.0" x2="820" y2="30.0" class="grid" stroke-dasharray="3,3"/>
  <text x="50" y="33.0" class="label" text-anchor="end">3,000</text>

  <text x="70.0" y="186" class="label" text-anchor="middle">2021</text>
  <text x="200.7" y="186" class="label" text-anchor="middle">2022</text>
  <text x="341.5" y="186" class="label" text-anchor="middle">2023</text>
  <text x="482.2" y="186" class="label" text-anchor="middle">2024</text>
  <text x="623.3" y="186" class="label" text-anchor="middle">2025</text>
  <text x="764.1" y="186" class="label" text-anchor="middle">2026</text>


  <path class="area" d="M60.0,160.0 L60.0,160.0 60.0,160.0 L180.7,159.8 L181.1,159.7 L182.2,159.7 L200.7,159.6 L201.1,159.3 L201.5,159.3 L201.9,159.1 L202.3,159.0 L202.7,159.0 L203.4,158.7 L203.8,158.6 L204.2,158.5 L204.6,158.5 L206.1,158.4 L206.5,158.3 L206.9,158.3 L210.8,158.2 L220.8,158.1 L273.6,158.1 L274.0,157.7 L275.5,157.6 L276.3,157.3 L282.1,157.2 L282.9,157.1 L283.3,156.9 L283.6,156.9 L284.4,156.8 L284.8,156.4 L285.2,156.0 L285.6,155.9 L287.1,155.8 L287.9,155.7 L289.8,155.6 L295.2,155.4 L305.6,155.3 L311.4,155.3 L314.1,155.2 L314.5,155.1 L314.9,155.0 L315.3,154.8 L316.4,154.5 L316.8,154.5 L317.2,154.5 L318.7,154.3 L319.1,154.1 L319.5,154.0 L319.9,153.6 L320.3,153.2 L320.7,153.1 L321.0,153.0 L321.8,152.9 L323.4,152.8 L327.6,152.7 L338.8,152.7 L339.2,152.5 L339.6,152.4 L343.4,152.0 L343.8,151.0 L345.0,150.9 L345.3,150.9 L347.3,150.7 L360.4,150.6 L360.8,150.5 L361.1,150.4 L361.9,150.2 L364.6,150.1 L365.4,149.9 L365.8,149.8 L367.7,149.7 L377.0,149.6 L566.7,149.5 L567.4,149.5 L568.2,149.4 L569.0,149.3 L569.4,149.3 L569.8,149.2 L570.1,149.2 L570.5,149.1 L574.4,149.1 L585.2,149.0 L588.3,149.0 L589.4,148.9 L591.7,148.9 L594.0,148.9 L594.4,148.8 L596.0,148.8 L597.1,148.7 L597.9,148.7 L626.4,148.6 L626.8,148.6 L627.6,148.5 L628.0,148.5 L629.1,148.3 L631.1,148.3 L636.5,148.2 L647.6,147.8 L648.0,147.7 L653.0,147.6 L653.4,147.5 L654.6,147.4 L656.1,147.3 L658.1,146.8 L658.4,145.6 L658.8,145.5 L661.1,145.4 L662.3,145.4 L662.7,145.4 L663.5,145.2 L666.5,145.1 L669.2,144.8 L671.2,144.5 L671.5,144.4 L672.7,144.1 L673.1,143.6 L673.5,143.5 L673.9,143.3 L674.2,143.1 L674.6,142.9 L675.4,142.6 L676.6,142.3 L690.4,142.2 L691.2,141.6 L699.7,141.5 L704.7,141.3 L707.0,141.2 L707.4,141.2 L709.7,141.2 L710.1,141.1 L710.5,141.1 L710.9,140.9 L711.3,140.8 L711.6,140.3 L712.0,140.2 L714.3,139.6 L714.7,139.5 L715.5,139.4 L718.2,139.2 L719.0,139.2 L719.4,139.0 L720.1,139.0 L720.5,138.7 L720.9,138.6 L721.7,138.5 L722.1,138.4 L722.4,138.4 L722.8,138.3 L724.4,138.1 L724.8,138.0 L725.1,137.9 L725.5,137.8 L725.9,137.7 L726.3,137.6 L727.5,137.4 L727.8,137.3 L728.2,137.2 L728.6,137.1 L729.0,136.8 L729.8,136.7 L730.2,136.3 L730.5,136.0 L730.9,135.2 L731.3,135.0 L731.7,134.8 L732.1,134.3 L732.5,134.3 L732.9,134.1 L733.2,134.1 L733.6,133.8 L735.6,133.3 L735.9,133.2 L736.3,132.8 L736.7,132.1 L737.1,132.0 L737.9,131.9 L738.3,131.3 L738.6,130.9 L739.0,130.9 L739.4,130.2 L740.2,130.0 L740.6,129.9 L741.0,129.8 L741.3,129.8 L741.7,129.8 L742.1,129.7 L743.7,129.6 L744.4,129.5 L744.8,129.2 L745.2,129.0 L746.4,129.0 L748.3,128.9 L750.6,128.7 L751.0,128.6 L751.4,128.6 L751.8,128.3 L752.1,127.7 L752.5,127.7 L752.9,127.6 L753.3,127.5 L753.7,127.4 L754.1,127.1 L758.3,127.0 L758.7,126.9 L762.2,126.6 L762.9,126.3 L763.3,126.2 L763.7,126.1 L764.1,126.0 L765.2,125.9 L765.6,125.2 L766.0,123.7 L766.4,122.3 L766.8,122.3 L767.2,122.1 L767.9,121.9 L768.3,121.7 L768.7,121.4 L769.5,121.3 L769.9,120.9 L770.3,120.9 L771.0,120.3 L771.4,120.2 L771.8,119.9 L772.2,119.7 L772.6,119.4 L773.0,119.4 L774.1,119.0 L774.5,118.7 L774.9,117.7 L775.3,116.3 L775.7,115.7 L776.0,115.1 L776.4,115.0 L776.8,114.8 L777.2,114.6 L777.6,114.2 L778.0,113.8 L778.4,113.7 L778.7,113.4 L779.1,113.3 L779.5,113.0 L779.9,112.6 L780.3,112.3 L780.7,111.9 L781.1,111.8 L781.4,111.6 L781.8,110.9 L782.2,109.6 L782.6,109.4 L783.4,109.1 L783.8,109.0 L784.1,108.9 L784.5,106.8 L784.9,105.8 L785.3,104.9 L785.7,104.5 L786.1,102.9 L786.5,102.8 L786.8,102.7 L787.2,102.3 L787.6,101.6 L788.0,100.2 L788.4,98.8 L788.8,98.7 L789.2,98.4 L789.9,98.3 L790.3,97.5 L790.7,96.8 L791.1,95.9 L791.5,95.7 L791.9,95.7 L792.2,94.3 L792.6,92.6 L793.0,91.9 L793.4,91.5 L793.8,91.1 L794.2,90.7 L794.6,90.7 L795.3,90.5 L795.7,90.2 L796.1,90.1 L796.5,90.1 L796.9,90.0 L798.0,90.0 L798.4,89.9 L799.2,89.8 L799.9,89.8 L800.3,89.7 L801.1,89.1 L801.5,88.8 L801.9,88.6 L804.2,88.5 L804.6,88.2 L805.0,88.1 L805.3,87.8 L805.7,87.7 L806.1,87.6 L806.5,87.5 L806.9,86.9 L807.3,86.2 L807.7,86.0 L808.0,84.7 L808.4,84.5 L809.2,84.5 L809.6,84.4 L810.7,84.0 L811.1,83.5 L811.5,83.2 L811.9,82.9 L812.3,81.9 L812.7,78.2 L813.1,76.6 L813.4,76.4 L813.8,76.1 L814.2,75.4 L814.6,75.3 L815.0,70.1 L815.4,63.7 L815.8,61.8 L816.1,61.8 L816.5,60.8 L816.9,60.0 L817.3,56.2 L817.7,54.7 L818.1,53.4 L818.5,52.7 L818.8,52.6 L819.2,52.4 L819.6,52.0 L820.0,51.9 L820.0,160.0 Z"/>
  <polyline class="line" points="60.0,160.0 180.7,159.8 181.1,159.7 182.2,159.7 200.7,159.6 201.1,159.3 201.5,159.3 201.9,159.1 202.3,159.0 202.7,159.0 203.4,158.7 203.8,158.6 204.2,158.5 204.6,158.5 206.1,158.4 206.5,158.3 206.9,158.3 210.8,158.2 220.8,158.1 273.6,158.1 274.0,157.7 275.5,157.6 276.3,157.3 282.1,157.2 282.9,157.1 283.3,156.9 283.6,156.9 284.4,156.8 284.8,156.4 285.2,156.0 285.6,155.9 287.1,155.8 287.9,155.7 289.8,155.6 295.2,155.4 305.6,155.3 311.4,155.3 314.1,155.2 314.5,155.1 314.9,155.0 315.3,154.8 316.4,154.5 316.8,154.5 317.2,154.5 318.7,154.3 319.1,154.1 319.5,154.0 319.9,153.6 320.3,153.2 320.7,153.1 321.0,153.0 321.8,152.9 323.4,152.8 327.6,152.7 338.8,152.7 339.2,152.5 339.6,152.4 343.4,152.0 343.8,151.0 345.0,150.9 345.3,150.9 347.3,150.7 360.4,150.6 360.8,150.5 361.1,150.4 361.9,150.2 364.6,150.1 365.4,149.9 365.8,149.8 367.7,149.7 377.0,149.6 566.7,149.5 567.4,149.5 568.2,149.4 569.0,149.3 569.4,149.3 569.8,149.2 570.1,149.2 570.5,149.1 574.4,149.1 585.2,149.0 588.3,149.0 589.4,148.9 591.7,148.9 594.0,148.9 594.4,148.8 596.0,148.8 597.1,148.7 597.9,148.7 626.4,148.6 626.8,148.6 627.6,148.5 628.0,148.5 629.1,148.3 631.1,148.3 636.5,148.2 647.6,147.8 648.0,147.7 653.0,147.6 653.4,147.5 654.6,147.4 656.1,147.3 658.1,146.8 658.4,145.6 658.8,145.5 661.1,145.4 662.3,145.4 662.7,145.4 663.5,145.2 666.5,145.1 669.2,144.8 671.2,144.5 671.5,144.4 672.7,144.1 673.1,143.6 673.5,143.5 673.9,143.3 674.2,143.1 674.6,142.9 675.4,142.6 676.6,142.3 690.4,142.2 691.2,141.6 699.7,141.5 704.7,141.3 707.0,141.2 707.4,141.2 709.7,141.2 710.1,141.1 710.5,141.1 710.9,140.9 711.3,140.8 711.6,140.3 712.0,140.2 714.3,139.6 714.7,139.5 715.5,139.4 718.2,139.2 719.0,139.2 719.4,139.0 720.1,139.0 720.5,138.7 720.9,138.6 721.7,138.5 722.1,138.4 722.4,138.4 722.8,138.3 724.4,138.1 724.8,138.0 725.1,137.9 725.5,137.8 725.9,137.7 726.3,137.6 727.5,137.4 727.8,137.3 728.2,137.2 728.6,137.1 729.0,136.8 729.8,136.7 730.2,136.3 730.5,136.0 730.9,135.2 731.3,135.0 731.7,134.8 732.1,134.3 732.5,134.3 732.9,134.1 733.2,134.1 733.6,133.8 735.6,133.3 735.9,133.2 736.3,132.8 736.7,132.1 737.1,132.0 737.9,131.9 738.3,131.3 738.6,130.9 739.0,130.9 739.4,130.2 740.2,130.0 740.6,129.9 741.0,129.8 741.3,129.8 741.7,129.8 742.1,129.7 743.7,129.6 744.4,129.5 744.8,129.2 745.2,129.0 746.4,129.0 748.3,128.9 750.6,128.7 751.0,128.6 751.4,128.6 751.8,128.3 752.1,127.7 752.5,127.7 752.9,127.6 753.3,127.5 753.7,127.4 754.1,127.1 758.3,127.0 758.7,126.9 762.2,126.6 762.9,126.3 763.3,126.2 763.7,126.1 764.1,126.0 765.2,125.9 765.6,125.2 766.0,123.7 766.4,122.3 766.8,122.3 767.2,122.1 767.9,121.9 768.3,121.7 768.7,121.4 769.5,121.3 769.9,120.9 770.3,120.9 771.0,120.3 771.4,120.2 771.8,119.9 772.2,119.7 772.6,119.4 773.0,119.4 774.1,119.0 774.5,118.7 774.9,117.7 775.3,116.3 775.7,115.7 776.0,115.1 776.4,115.0 776.8,114.8 777.2,114.6 777.6,114.2 778.0,113.8 778.4,113.7 778.7,113.4 779.1,113.3 779.5,113.0 779.9,112.6 780.3,112.3 780.7,111.9 781.1,111.8 781.4,111.6 781.8,110.9 782.2,109.6 782.6,109.4 783.4,109.1 783.8,109.0 784.1,108.9 784.5,106.8 784.9,105.8 785.3,104.9 785.7,104.5 786.1,102.9 786.5,102.8 786.8,102.7 787.2,102.3 787.6,101.6 788.0,100.2 788.4,98.8 788.8,98.7 789.2,98.4 789.9,98.3 790.3,97.5 790.7,96.8 791.1,95.9 791.5,95.7 791.9,95.7 792.2,94.3 792.6,92.6 793.0,91.9 793.4,91.5 793.8,91.1 794.2,90.7 794.6,90.7 795.3,90.5 795.7,90.2 796.1,90.1 796.5,90.1 796.9,90.0 798.0,90.0 798.4,89.9 799.2,89.8 799.9,89.8 800.3,89.7 801.1,89.1 801.5,88.8 801.9,88.6 804.2,88.5 804.6,88.2 805.0,88.1 805.3,87.8 805.7,87.7 806.1,87.6 806.5,87.5 806.9,86.9 807.3,86.2 807.7,86.0 808.0,84.7 808.4,84.5 809.2,84.5 809.6,84.4 810.7,84.0 811.1,83.5 811.5,83.2 811.9,82.9 812.3,81.9 812.7,78.2 813.1,76.6 813.4,76.4 813.8,76.1 814.2,75.4 814.6,75.3 815.0,70.1 815.4,63.7 815.8,61.8 816.1,61.8 816.5,60.8 816.9,60.0 817.3,56.2 817.7,54.7 818.1,53.4 818.5,52.7 818.8,52.6 819.2,52.4 819.6,52.0 820.0,51.9"/>

  <g class="hoverpoint">
    <line x1="182.2" y1="30" x2="182.2" y2="160.0" class="guide"/>
    <circle cx="182.2" cy="159.7" r="16" class="hit"/>
    <circle cx="182.2" cy="159.7" r="4" class="hover-dot"><title>Nov 2021: 7 total (+7 this month)</title></circle>
    <rect x="112.2" y="133.7" width="140" height="20" rx="4" class="tooltip-bg"/>
    <text x="182.2" y="147.7" class="tooltip-text" text-anchor="middle">Nov 2021: 7 total (+7 this month)</text>
  </g>
  <g class="hoverpoint">
    <line x1="210.8" y1="30" x2="210.8" y2="160.0" class="guide"/>
    <circle cx="210.8" cy="158.2" r="16" class="hit"/>
    <circle cx="210.8" cy="158.2" r="4" class="hover-dot"><title>Jan 2022: 41 total (+34 this month)</title></circle>
    <rect x="140.8" y="132.2" width="140" height="20" rx="4" class="tooltip-bg"/>
    <text x="210.8" y="146.2" class="tooltip-text" text-anchor="middle">Jan 2022: 41 total (+34 this month)</text>
  </g>
  <g class="hoverpoint">
    <line x1="220.8" y1="30" x2="220.8" y2="160.0" class="guide"/>
    <circle cx="220.8" cy="158.1" r="16" class="hit"/>
    <circle cx="220.8" cy="158.1" r="4" class="hover-dot"><title>Feb 2022: 44 total (+3 this month)</title></circle>
    <rect x="150.8" y="132.1" width="140" height="20" rx="4" class="tooltip-bg"/>
    <text x="220.8" y="146.1" class="tooltip-text" text-anchor="middle">Feb 2022: 44 total (+3 this month)</text>
  </g>
  <g class="hoverpoint">
    <line x1="282.1" y1="30" x2="282.1" y2="160.0" class="guide"/>
    <circle cx="282.1" cy="157.2" r="16" class="hit"/>
    <circle cx="282.1" cy="157.2" r="4" class="hover-dot"><title>Jul 2022: 65 total (+21 this month)</title></circle>
    <rect x="212.1" y="131.2" width="140" height="20" rx="4" class="tooltip-bg"/>
    <text x="282.1" y="145.2" class="tooltip-text" text-anchor="middle">Jul 2022: 65 total (+21 this month)</text>
  </g>
  <g class="hoverpoint">
    <line x1="289.8" y1="30" x2="289.8" y2="160.0" class="guide"/>
    <circle cx="289.8" cy="155.6" r="16" class="hit"/>
    <circle cx="289.8" cy="155.6" r="4" class="hover-dot"><title>Aug 2022: 101 total (+36 this month)</title></circle>
    <rect x="219.8" y="129.6" width="140" height="20" rx="4" class="tooltip-bg"/>
    <text x="289.8" y="143.6" class="tooltip-text" text-anchor="middle">Aug 2022: 101 total (+36 this month)</text>
  </g>
  <g class="hoverpoint">
    <line x1="305.6" y1="30" x2="305.6" y2="160.0" class="guide"/>
    <circle cx="305.6" cy="155.3" r="16" class="hit"/>
    <circle cx="305.6" cy="155.3" r="4" class="hover-dot"><title>Sep 2022: 108 total (+7 this month)</title></circle>
    <rect x="235.6" y="129.3" width="140" height="20" rx="4" class="tooltip-bg"/>
    <text x="305.6" y="143.3" class="tooltip-text" text-anchor="middle">Sep 2022: 108 total (+7 this month)</text>
  </g>
  <g class="hoverpoint">
    <line x1="317.2" y1="30" x2="317.2" y2="160.0" class="guide"/>
    <circle cx="317.2" cy="154.5" r="16" class="hit"/>
    <circle cx="317.2" cy="154.5" r="4" class="hover-dot"><title>Oct 2022: 128 total (+20 this month)</title></circle>
    <rect x="247.2" y="128.5" width="140" height="20" rx="4" class="tooltip-bg"/>
    <text x="317.2" y="142.5" class="tooltip-text" text-anchor="middle">Oct 2022: 128 total (+20 this month)</text>
  </g>
  <g class="hoverpoint">
    <line x1="327.6" y1="30" x2="327.6" y2="160.0" class="guide"/>
    <circle cx="327.6" cy="152.7" r="16" class="hit"/>
    <circle cx="327.6" cy="152.7" r="4" class="hover-dot"><title>Nov 2022: 168 total (+40 this month)</title></circle>
    <rect x="257.6" y="126.7" width="140" height="20" rx="4" class="tooltip-bg"/>
    <text x="327.6" y="140.7" class="tooltip-text" text-anchor="middle">Nov 2022: 168 total (+40 this month)</text>
  </g>
  <g class="hoverpoint">
    <line x1="339.6" y1="30" x2="339.6" y2="160.0" class="guide"/>
    <circle cx="339.6" cy="152.4" r="16" class="hit"/>
    <circle cx="339.6" cy="152.4" r="4" class="hover-dot"><title>Dec 2022: 175 total (+7 this month)</title></circle>
    <rect x="269.6" y="126.4" width="140" height="20" rx="4" class="tooltip-bg"/>
    <text x="339.6" y="140.4" class="tooltip-text" text-anchor="middle">Dec 2022: 175 total (+7 this month)</text>
  </g>
  <g class="hoverpoint">
    <line x1="347.3" y1="30" x2="347.3" y2="160.0" class="guide"/>
    <circle cx="347.3" cy="150.7" r="16" class="hit"/>
    <circle cx="347.3" cy="150.7" r="4" class="hover-dot"><title>Jan 2023: 214 total (+39 this month)</title></circle>
    <rect x="277.3" y="124.7" width="140" height="20" rx="4" class="tooltip-bg"/>
    <text x="347.3" y="138.7" class="tooltip-text" text-anchor="middle">Jan 2023: 214 total (+39 this month)</text>
  </g>
  <g class="hoverpoint">
    <line x1="361.9" y1="30" x2="361.9" y2="160.0" class="guide"/>
    <circle cx="361.9" cy="150.2" r="16" class="hit"/>
    <circle cx="361.9" cy="150.2" r="4" class="hover-dot"><title>Feb 2023: 225 total (+11 this month)</title></circle>
    <rect x="291.9" y="124.2" width="140" height="20" rx="4" class="tooltip-bg"/>
    <text x="361.9" y="138.2" class="tooltip-text" text-anchor="middle">Feb 2023: 225 total (+11 this month)</text>
  </g>
  <g class="hoverpoint">
    <line x1="367.7" y1="30" x2="367.7" y2="160.0" class="guide"/>
    <circle cx="367.7" cy="149.7" r="16" class="hit"/>
    <circle cx="367.7" cy="149.7" r="4" class="hover-dot"><title>Mar 2023: 237 total (+12 this month)</title></circle>
    <rect x="297.7" y="123.7" width="140" height="20" rx="4" class="tooltip-bg"/>
    <text x="367.7" y="137.7" class="tooltip-text" text-anchor="middle">Mar 2023: 237 total (+12 this month)</text>
  </g>
  <g class="hoverpoint">
    <line x1="377.0" y1="30" x2="377.0" y2="160.0" class="guide"/>
    <circle cx="377.0" cy="149.6" r="16" class="hit"/>
    <circle cx="377.0" cy="149.6" r="4" class="hover-dot"><title>Apr 2023: 240 total (+3 this month)</title></circle>
    <rect x="307.0" y="123.6" width="140" height="20" rx="4" class="tooltip-bg"/>
    <text x="377.0" y="137.6" class="tooltip-text" text-anchor="middle">Apr 2023: 240 total (+3 this month)</text>
  </g>
  <g class="hoverpoint">
    <line x1="574.4" y1="30" x2="574.4" y2="160.0" class="guide"/>
    <circle cx="574.4" cy="149.1" r="16" class="hit"/>
    <circle cx="574.4" cy="149.1" r="4" class="hover-dot"><title>Aug 2024: 252 total (+12 this month)</title></circle>
    <rect x="504.4" y="123.1" width="140" height="20" rx="4" class="tooltip-bg"/>
    <text x="574.4" y="137.1" class="tooltip-text" text-anchor="middle">Aug 2024: 252 total (+12 this month)</text>
  </g>
  <g class="hoverpoint">
    <line x1="585.2" y1="30" x2="585.2" y2="160.0" class="guide"/>
    <circle cx="585.2" cy="149.0" r="16" class="hit"/>
    <circle cx="585.2" cy="149.0" r="4" class="hover-dot"><title>Sep 2024: 253 total (+1 this month)</title></circle>
    <rect x="515.2" y="123.0" width="140" height="20" rx="4" class="tooltip-bg"/>
    <text x="585.2" y="137.0" class="tooltip-text" text-anchor="middle">Sep 2024: 253 total (+1 this month)</text>
  </g>
  <g class="hoverpoint">
    <line x1="597.9" y1="30" x2="597.9" y2="160.0" class="guide"/>
    <circle cx="597.9" cy="148.7" r="16" class="hit"/>
    <circle cx="597.9" cy="148.7" r="4" class="hover-dot"><title>Oct 2024: 261 total (+8 this month)</title></circle>
    <rect x="527.9" y="122.7" width="140" height="20" rx="4" class="tooltip-bg"/>
    <text x="597.9" y="136.7" class="tooltip-text" text-anchor="middle">Oct 2024: 261 total (+8 this month)</text>
  </g>
  <g class="hoverpoint">
    <line x1="631.1" y1="30" x2="631.1" y2="160.0" class="guide"/>
    <circle cx="631.1" cy="148.3" r="16" class="hit"/>
    <circle cx="631.1" cy="148.3" r="4" class="hover-dot"><title>Jan 2025: 270 total (+9 this month)</title></circle>
    <rect x="561.1" y="122.3" width="140" height="20" rx="4" class="tooltip-bg"/>
    <text x="631.1" y="136.3" class="tooltip-text" text-anchor="middle">Jan 2025: 270 total (+9 this month)</text>
  </g>
  <g class="hoverpoint">
    <line x1="636.5" y1="30" x2="636.5" y2="160.0" class="guide"/>
    <circle cx="636.5" cy="148.2" r="16" class="hit"/>
    <circle cx="636.5" cy="148.2" r="4" class="hover-dot"><title>Feb 2025: 272 total (+2 this month)</title></circle>
    <rect x="566.5" y="122.2" width="140" height="20" rx="4" class="tooltip-bg"/>
    <text x="636.5" y="136.2" class="tooltip-text" text-anchor="middle">Feb 2025: 272 total (+2 this month)</text>
  </g>
  <g class="hoverpoint">
    <line x1="656.1" y1="30" x2="656.1" y2="160.0" class="guide"/>
    <circle cx="656.1" cy="147.3" r="16" class="hit"/>
    <circle cx="656.1" cy="147.3" r="4" class="hover-dot"><title>Mar 2025: 294 total (+22 this month)</title></circle>
    <rect x="586.1" y="121.3" width="140" height="20" rx="4" class="tooltip-bg"/>
    <text x="656.1" y="135.3" class="tooltip-text" text-anchor="middle">Mar 2025: 294 total (+22 this month)</text>
  </g>
  <g class="hoverpoint">
    <line x1="669.2" y1="30" x2="669.2" y2="160.0" class="guide"/>
    <circle cx="669.2" cy="144.8" r="16" class="hit"/>
    <circle cx="669.2" cy="144.8" r="4" class="hover-dot"><title>Apr 2025: 351 total (+57 this month)</title></circle>
    <rect x="599.2" y="118.8" width="140" height="20" rx="4" class="tooltip-bg"/>
    <text x="669.2" y="132.8" class="tooltip-text" text-anchor="middle">Apr 2025: 351 total (+57 this month)</text>
  </g>
  <g class="hoverpoint">
    <line x1="676.6" y1="30" x2="676.6" y2="160.0" class="guide"/>
    <circle cx="676.6" cy="142.3" r="16" class="hit"/>
    <circle cx="676.6" cy="142.3" r="4" class="hover-dot"><title>May 2025: 408 total (+57 this month)</title></circle>
    <rect x="606.6" y="116.3" width="140" height="20" rx="4" class="tooltip-bg"/>
    <text x="676.6" y="130.3" class="tooltip-text" text-anchor="middle">May 2025: 408 total (+57 this month)</text>
  </g>
  <g class="hoverpoint">
    <line x1="691.2" y1="30" x2="691.2" y2="160.0" class="guide"/>
    <circle cx="691.2" cy="141.6" r="16" class="hit"/>
    <circle cx="691.2" cy="141.6" r="4" class="hover-dot"><title>Jun 2025: 424 total (+16 this month)</title></circle>
    <rect x="621.2" y="115.6" width="140" height="20" rx="4" class="tooltip-bg"/>
    <text x="691.2" y="129.6" class="tooltip-text" text-anchor="middle">Jun 2025: 424 total (+16 this month)</text>
  </g>
  <g class="hoverpoint">
    <line x1="704.7" y1="30" x2="704.7" y2="160.0" class="guide"/>
    <circle cx="704.7" cy="141.3" r="16" class="hit"/>
    <circle cx="704.7" cy="141.3" r="4" class="hover-dot"><title>Jul 2025: 432 total (+8 this month)</title></circle>
    <rect x="634.7" y="115.3" width="140" height="20" rx="4" class="tooltip-bg"/>
    <text x="704.7" y="129.3" class="tooltip-text" text-anchor="middle">Jul 2025: 432 total (+8 this month)</text>
  </g>
  <g class="hoverpoint">
    <line x1="715.5" y1="30" x2="715.5" y2="160.0" class="guide"/>
    <circle cx="715.5" cy="139.4" r="16" class="hit"/>
    <circle cx="715.5" cy="139.4" r="4" class="hover-dot"><title>Aug 2025: 475 total (+43 this month)</title></circle>
    <rect x="645.5" y="113.4" width="140" height="20" rx="4" class="tooltip-bg"/>
    <text x="715.5" y="127.4" class="tooltip-text" text-anchor="middle">Aug 2025: 475 total (+43 this month)</text>
  </g>
  <g class="hoverpoint">
    <line x1="728.2" y1="30" x2="728.2" y2="160.0" class="guide"/>
    <circle cx="728.2" cy="137.2" r="16" class="hit"/>
    <circle cx="728.2" cy="137.2" r="4" class="hover-dot"><title>Sep 2025: 526 total (+51 this month)</title></circle>
    <rect x="658.2" y="111.2" width="140" height="20" rx="4" class="tooltip-bg"/>
    <text x="728.2" y="125.2" class="tooltip-text" text-anchor="middle">Sep 2025: 526 total (+51 this month)</text>
  </g>
  <g class="hoverpoint">
    <line x1="740.2" y1="30" x2="740.2" y2="160.0" class="guide"/>
    <circle cx="740.2" cy="130.0" r="16" class="hit"/>
    <circle cx="740.2" cy="130.0" r="4" class="hover-dot"><title>Oct 2025: 692 total (+166 this month)</title></circle>
    <rect x="670.2" y="104.0" width="140" height="20" rx="4" class="tooltip-bg"/>
    <text x="740.2" y="118.0" class="tooltip-text" text-anchor="middle">Oct 2025: 692 total (+166 this month)</text>
  </g>
  <g class="hoverpoint">
    <line x1="751.8" y1="30" x2="751.8" y2="160.0" class="guide"/>
    <circle cx="751.8" cy="128.3" r="16" class="hit"/>
    <circle cx="751.8" cy="128.3" r="4" class="hover-dot"><title>Nov 2025: 731 total (+39 this month)</title></circle>
    <rect x="681.8" y="102.3" width="140" height="20" rx="4" class="tooltip-bg"/>
    <text x="751.8" y="116.3" class="tooltip-text" text-anchor="middle">Nov 2025: 731 total (+39 this month)</text>
  </g>
  <g class="hoverpoint">
    <line x1="763.7" y1="30" x2="763.7" y2="160.0" class="guide"/>
    <circle cx="763.7" cy="126.1" r="16" class="hit"/>
    <circle cx="763.7" cy="126.1" r="4" class="hover-dot"><title>Dec 2025: 783 total (+52 this month)</title></circle>
    <rect x="693.7" y="100.1" width="140" height="20" rx="4" class="tooltip-bg"/>
    <text x="763.7" y="114.1" class="tooltip-text" text-anchor="middle">Dec 2025: 783 total (+52 this month)</text>
  </g>
  <g class="hoverpoint">
    <line x1="775.7" y1="30" x2="775.7" y2="160.0" class="guide"/>
    <circle cx="775.7" cy="115.7" r="16" class="hit"/>
    <circle cx="775.7" cy="115.7" r="4" class="hover-dot"><title>Jan 2026: 1,022 total (+239 this month)</title></circle>
    <rect x="705.7" y="89.7" width="140" height="20" rx="4" class="tooltip-bg"/>
    <text x="775.7" y="103.7" class="tooltip-text" text-anchor="middle">Jan 2026: 1,022 total (+239 this month)</text>
  </g>
  <g class="hoverpoint">
    <line x1="786.5" y1="30" x2="786.5" y2="160.0" class="guide"/>
    <circle cx="786.5" cy="102.8" r="16" class="hit"/>
    <circle cx="786.5" cy="102.8" r="4" class="hover-dot"><title>Feb 2026: 1,321 total (+299 this month)</title></circle>
    <rect x="716.5" y="76.8" width="140" height="20" rx="4" class="tooltip-bg"/>
    <text x="786.5" y="90.8" class="tooltip-text" text-anchor="middle">Feb 2026: 1,321 total (+299 this month)</text>
  </g>
  <g class="hoverpoint">
    <line x1="798.4" y1="30" x2="798.4" y2="160.0" class="guide"/>
    <circle cx="798.4" cy="89.9" r="16" class="hit"/>
    <circle cx="798.4" cy="89.9" r="4" class="hover-dot"><title>Mar 2026: 1,617 total (+296 this month)</title></circle>
    <rect x="728.4" y="63.9" width="140" height="20" rx="4" class="tooltip-bg"/>
    <text x="798.4" y="77.9" class="tooltip-text" text-anchor="middle">Mar 2026: 1,617 total (+296 this month)</text>
  </g>
  <g class="hoverpoint">
    <line x1="809.6" y1="30" x2="809.6" y2="160.0" class="guide"/>
    <circle cx="809.6" cy="84.4" r="16" class="hit"/>
    <circle cx="809.6" cy="84.4" r="4" class="hover-dot"><title>Apr 2026: 1,744 total (+127 this month)</title></circle>
    <rect x="739.6" y="58.4" width="140" height="20" rx="4" class="tooltip-bg"/>
    <text x="809.6" y="72.4" class="tooltip-text" text-anchor="middle">Apr 2026: 1,744 total (+127 this month)</text>
  </g>
  <g class="hoverpoint">
    <line x1="820.0" y1="30" x2="820.0" y2="160.0" class="guide"/>
    <circle cx="820.0" cy="51.9" r="16" class="hit"/>
    <circle cx="820.0" cy="51.9" r="4" class="hover-dot"><title>May 2026: 2,494 total (+750 this month)</title></circle>
    <rect x="750.0" y="25.9" width="140" height="20" rx="4" class="tooltip-bg"/>
    <text x="820.0" y="39.9" class="tooltip-text" text-anchor="middle">May 2026: 2,494 total (+750 this month)</text>
  </g>

  <circle cx="820.0" cy="51.9" r="4" class="dot"/>
  <text x="810.0" y="41.9" class="total">2,494</text>

</svg>