<svg xmlns="http://www.w3.org/2000/svg" width="480" height="160" viewBox="0 0 480 160" fill="none">
  <style>
    .label { font-family: -apple-system, BlinkMacSystemFont, 'Segoe UI', Helvetica, Arial, sans-serif; font-size: 10px; fill: #8b949e; }
    .title { font-family: -apple-system, BlinkMacSystemFont, 'Segoe UI', Helvetica, Arial, sans-serif; font-size: 11px; fill: #8b949e; font-weight: 600; }
    .total { font-family: -apple-system, BlinkMacSystemFont, 'Segoe UI', Helvetica, Arial, sans-serif; font-size: 11px; fill: #58a6ff; font-weight: 600; }
    .grid { stroke: #21262d; stroke-width: 1; }
    .line { stroke: #58a6ff; stroke-width: 2; stroke-linecap: round; stroke-linejoin: round; fill: none; }
    .dot { fill: #58a6ff; }
    .area { fill: url(#areaGrad); }
  </style>
  <defs>
    <linearGradient id="areaGrad" x1="0" y1="0" x2="0" y2="1">
      <stop offset="0%" stop-color="#58a6ff" stop-opacity="0.15"/>
      <stop offset="100%" stop-color="#58a6ff" stop-opacity="0.01"/>
    </linearGradient>
  </defs>

  <text x="48" y="16" class="title">Cumulative Commits</text>

  <line x1="48" y1="132.0" x2="464" y2="132.0" class="grid"/>
  <text x="42" y="135.0" class="label" text-anchor="end">0</text>
  <line x1="48" y1="106.0" x2="464" y2="106.0" class="grid" stroke-dasharray="3,3"/>
  <text x="42" y="109.0" class="label" text-anchor="end">500</text>
  <line x1="48" y1="80.0" x2="464" y2="80.0" class="grid" stroke-dasharray="3,3"/>
  <text x="42" y="83.0" class="label" text-anchor="end">1000</text>
  <line x1="48" y1="54.0" x2="464" y2="54.0" class="grid" stroke-dasharray="3,3"/>
  <text x="42" y="57.0" class="label" text-anchor="end">1500</text>
  <line x1="48" y1="28.0" x2="464" y2="28.0" class="grid" stroke-dasharray="3,3"/>
  <text x="42" y="31.0" class="label" text-anchor="end">2000</text>

  <text x="48.0" y="154" class="label" text-anchor="middle">2017</text>
  <text x="204.3" y="154" class="label" text-anchor="middle">2021</text>
  <text x="304.1" y="154" class="label" text-anchor="middle">2023</text>
  <text x="404.0" y="154" class="label" text-anchor="middle">2025</text>
  <text x="453.9" y="154" class="label" text-anchor="middle">2026</text>


  <path class="area" d="M48.0,132.0 L48.0,131.9 48.0,131.9 L48.1,131.9 L54.3,131.8 L54.7,131.8 L247.0,131.5 L247.2,131.5 L247.6,131.4 L254.2,131.3 L254.3,131.0 L254.4,130.9 L254.6,130.7 L254.7,130.6 L254.8,130.5 L255.1,130.3 L255.2,130.1 L255.4,130.0 L255.5,130.0 L256.1,129.8 L256.2,129.8 L256.3,129.7 L257.7,129.7 L261.3,129.5 L280.0,129.5 L280.1,129.0 L280.7,128.9 L280.9,128.5 L283.0,128.4 L283.3,128.3 L283.4,128.1 L283.5,128.0 L283.8,127.9 L284.0,127.5 L284.1,127.0 L284.2,126.9 L284.8,126.7 L285.1,126.6 L285.7,126.5 L287.6,126.3 L291.3,126.2 L293.4,126.1 L294.3,126.1 L294.5,126.0 L294.6,125.8 L294.8,125.6 L295.2,125.2 L295.3,125.2 L295.4,125.1 L296.0,124.9 L296.1,124.7 L296.3,124.6 L296.4,124.1 L296.5,123.7 L296.7,123.5 L296.8,123.4 L297.1,123.3 L297.6,123.2 L299.1,123.1 L303.1,123.0 L303.2,122.7 L303.4,122.7 L304.7,122.2 L304.9,121.0 L305.3,120.9 L305.4,120.8 L306.1,120.7 L310.8,120.5 L310.9,120.4 L311.0,120.3 L311.3,120.1 L312.3,119.9 L312.5,119.7 L312.7,119.6 L313.3,119.5 L316.6,119.3 L383.9,119.2 L384.2,119.2 L384.4,119.1 L384.7,119.0 L384.8,118.9 L385.0,118.8 L385.1,118.8 L385.3,118.7 L386.6,118.7 L390.5,118.6 L391.5,118.6 L392.0,118.5 L392.8,118.5 L393.6,118.4 L393.7,118.4 L394.3,118.3 L394.7,118.3 L395.0,118.2 L405.1,118.2 L405.2,118.1 L405.5,118.0 L405.6,118.0 L406.0,117.8 L406.7,117.8 L408.6,117.6 L412.6,117.2 L412.7,117.0 L414.5,116.9 L414.6,116.8 L415.1,116.7 L415.6,116.5 L416.3,116.0 L416.4,114.5 L416.6,114.4 L417.4,114.3 L417.8,114.3 L417.9,114.2 L418.2,114.0 L419.3,114.0 L420.3,113.5 L420.9,113.2 L421.1,113.0 L421.5,112.8 L421.6,112.1 L421.8,112.0 L421.9,111.7 L422.0,111.6 L422.2,111.3 L422.4,110.9 L422.9,110.6 L427.8,110.4 L428.0,109.7 L431.1,109.5 L432.8,109.3 L433.7,109.3 L433.8,109.2 L434.6,109.2 L434.7,109.1 L434.9,109.1 L435.0,108.9 L435.2,108.7 L435.3,108.2 L435.4,108.1 L436.2,107.4 L436.4,107.2 L436.7,107.1 L437.6,106.8 L437.9,106.8 L438.0,106.6 L438.3,106.6 L438.4,106.2 L438.6,106.1 L438.8,106.0 L439.0,105.9 L439.1,105.8 L439.3,105.8 L439.8,105.5 L439.9,105.4 L440.1,105.2 L440.2,105.2 L440.3,105.1 L440.5,104.9 L440.9,104.7 L441.0,104.5 L441.2,104.4 L441.3,104.3 L441.4,104.0 L441.7,103.9 L441.9,103.3 L442.0,103.0 L442.1,102.0 L442.3,101.8 L442.4,101.5 L442.5,101.0 L442.7,100.9 L442.8,100.7 L442.9,100.7 L443.1,100.3 L443.8,99.8 L443.9,99.7 L444.0,99.1 L444.2,98.3 L444.3,98.2 L444.6,98.1 L444.7,97.3 L444.9,96.9 L445.0,96.8 L445.1,96.0 L445.4,95.8 L445.5,95.7 L445.7,95.6 L445.8,95.5 L446.0,95.5 L446.1,95.4 L446.6,95.3 L446.9,95.2 L447.0,94.9 L447.2,94.6 L447.6,94.6 L448.3,94.5 L449.1,94.2 L449.2,94.1 L449.4,94.1 L449.5,93.8 L449.6,93.1 L449.8,93.0 L449.9,92.9 L450.1,92.8 L450.2,92.7 L450.3,92.3 L451.8,92.2 L452.0,92.1 L453.2,91.8 L453.5,91.4 L453.6,91.3 L453.7,91.1 L453.9,91.0 L454.3,90.9 L454.4,90.1 L454.6,88.2 L454.7,86.6 L454.8,86.5 L455.0,86.3 L455.3,86.0 L455.4,85.8 L455.5,85.5 L455.8,85.4 L455.9,84.9 L456.1,84.8 L456.3,84.1 L456.5,84.1 L456.6,83.6 L456.8,83.4 L456.9,83.1 L457.0,83.0 L457.4,82.5 L457.6,82.3 L457.7,81.0 L457.8,79.3 L458.0,78.6 L458.1,77.9 L458.3,77.8 L458.4,77.5 L458.5,77.3 L458.7,76.9 L458.8,76.3 L458.9,76.3 L459.1,75.8 L459.2,75.8 L459.4,75.4 L459.5,75.0 L459.6,74.5 L459.8,74.1 L459.9,73.9 L460.0,73.8 L460.2,72.9 L460.3,71.3 L460.4,71.1 L460.7,70.7 L460.9,70.6 L461.0,70.5 L461.1,68.0 L461.3,66.8 L461.4,65.6 L461.5,65.2 L461.7,63.3 L461.8,63.1 L461.9,63.0 L462.1,62.6 L462.2,61.7 L462.4,60.1 L462.5,58.3 L462.6,58.3 L462.8,57.8 L463.0,57.8 L463.2,56.8 L463.3,56.0 L463.5,54.8 L463.6,54.7 L463.7,54.6 L463.9,53.2 L464.0,53.1 L464.0,132.0 Z"/>
  <polyline class="line" points="48.0,131.9 48.1,131.9 54.3,131.8 54.7,131.8 247.0,131.5 247.2,131.5 247.6,131.4 254.2,131.3 254.3,131.0 254.4,130.9 254.6,130.7 254.7,130.6 254.8,130.5 255.1,130.3 255.2,130.1 255.4,130.0 255.5,130.0 256.1,129.8 256.2,129.8 256.3,129.7 257.7,129.7 261.3,129.5 280.0,129.5 280.1,129.0 280.7,128.9 280.9,128.5 283.0,128.4 283.3,128.3 283.4,128.1 283.5,128.0 283.8,127.9 284.0,127.5 284.1,127.0 284.2,126.9 284.8,126.7 285.1,126.6 285.7,126.5 287.6,126.3 291.3,126.2 293.4,126.1 294.3,126.1 294.5,126.0 294.6,125.8 294.8,125.6 295.2,125.2 295.3,125.2 295.4,125.1 296.0,124.9 296.1,124.7 296.3,124.6 296.4,124.1 296.5,123.7 296.7,123.5 296.8,123.4 297.1,123.3 297.6,123.2 299.1,123.1 303.1,123.0 303.2,122.7 303.4,122.7 304.7,122.2 304.9,121.0 305.3,120.9 305.4,120.8 306.1,120.7 310.8,120.5 310.9,120.4 311.0,120.3 311.3,120.1 312.3,119.9 312.5,119.7 312.7,119.6 313.3,119.5 316.6,119.3 383.9,119.2 384.2,119.2 384.4,119.1 384.7,119.0 384.8,118.9 385.0,118.8 385.1,118.8 385.3,118.7 386.6,118.7 390.5,118.6 391.5,118.6 392.0,118.5 392.8,118.5 393.6,118.4 393.7,118.4 394.3,118.3 394.7,118.3 395.0,118.2 405.1,118.2 405.2,118.1 405.5,118.0 405.6,118.0 406.0,117.8 406.7,117.8 408.6,117.6 412.6,117.2 412.7,117.0 414.5,116.9 414.6,116.8 415.1,116.7 415.6,116.5 416.3,116.0 416.4,114.5 416.6,114.4 417.4,114.3 417.8,114.3 417.9,114.2 418.2,114.0 419.3,114.0 420.3,113.5 420.9,113.2 421.1,113.0 421.5,112.8 421.6,112.1 421.8,112.0 421.9,111.7 422.0,111.6 422.2,111.3 422.4,110.9 422.9,110.6 427.8,110.4 428.0,109.7 431.1,109.5 432.8,109.3 433.7,109.3 433.8,109.2 434.6,109.2 434.7,109.1 434.9,109.1 435.0,108.9 435.2,108.7 435.3,108.2 435.4,108.1 436.2,107.4 436.4,107.2 436.7,107.1 437.6,106.8 437.9,106.8 438.0,106.6 438.3,106.6 438.4,106.2 438.6,106.1 438.8,106.0 439.0,105.9 439.1,105.8 439.3,105.8 439.8,105.5 439.9,105.4 440.1,105.2 440.2,105.2 440.3,105.1 440.5,104.9 440.9,104.7 441.0,104.5 441.2,104.4 441.3,104.3 441.4,104.0 441.7,103.9 441.9,103.3 442.0,103.0 442.1,102.0 442.3,101.8 442.4,101.5 442.5,101.0 442.7,100.9 442.8,100.7 442.9,100.7 443.1,100.3 443.8,99.8 443.9,99.7 444.0,99.1 444.2,98.3 444.3,98.2 444.6,98.1 444.7,97.3 444.9,96.9 445.0,96.8 445.1,96.0 445.4,95.8 445.5,95.7 445.7,95.6 445.8,95.5 446.0,95.5 446.1,95.4 446.6,95.3 446.9,95.2 447.0,94.9 447.2,94.6 447.6,94.6 448.3,94.5 449.1,94.2 449.2,94.1 449.4,94.1 449.5,93.8 449.6,93.1 449.8,93.0 449.9,92.9 450.1,92.8 450.2,92.7 450.3,92.3 451.8,92.2 452.0,92.1 453.2,91.8 453.5,91.4 453.6,91.3 453.7,91.1 453.9,91.0 454.3,90.9 454.4,90.1 454.6,88.2 454.7,86.6 454.8,86.5 455.0,86.3 455.3,86.0 455.4,85.8 455.5,85.5 455.8,85.4 455.9,84.9 456.1,84.8 456.3,84.1 456.5,84.1 456.6,83.6 456.8,83.4 456.9,83.1 457.0,83.0 457.4,82.5 457.6,82.3 457.7,81.0 457.8,79.3 458.0,78.6 458.1,77.9 458.3,77.8 458.4,77.5 458.5,77.3 458.7,76.9 458.8,76.3 458.9,76.3 459.1,75.8 459.2,75.8 459.4,75.4 459.5,75.0 459.6,74.5 459.8,74.1 459.9,73.9 460.0,73.8 460.2,72.9 460.3,71.3 460.4,71.1 460.7,70.7 460.9,70.6 461.0,70.5 461.1,68.0 461.3,66.8 461.4,65.6 461.5,65.2 461.7,63.3 461.8,63.1 461.9,63.0 462.1,62.6 462.2,61.7 462.4,60.1 462.5,58.3 462.6,58.3 462.8,57.8 463.0,57.8 463.2,56.8 463.3,56.0 463.5,54.8 463.6,54.7 463.7,54.6 463.9,53.2 464.0,53.1"/>

  <circle cx="464.0" cy="53.1" r="3" class="dot"/>
  <text x="456.0" y="45.1" class="total">1517</text>

</svg>