<svg xmlns="http://www.w3.org/2000/svg" width="840" height="196" viewBox="0 0 840 196" fill="none">
  <style>
    .label { font-family: -apple-system, BlinkMacSystemFont, 'Segoe UI', Helvetica, Arial, sans-serif; font-size: 10px; fill: #8b949e; }
    .title { font-family: -apple-system, BlinkMacSystemFont, 'Segoe UI', Helvetica, Arial, sans-serif; font-size: 11px; fill: #8b949e; font-weight: 600; }
    .total { font-family: -apple-system, BlinkMacSystemFont, 'Segoe UI', Helvetica, Arial, sans-serif; font-size: 11px; fill: #7ee787; font-weight: 600; }
    .grid { stroke: #21262d; stroke-width: 1; }
    .line { stroke: #7ee787; stroke-width: 2; stroke-linecap: round; stroke-linejoin: round; fill: none; }
    .dot { fill: #7ee787; }
    .area { fill: url(#areaGrad); }
    /* Hover interaction */
    .hoverpoint .guide { stroke: #7ee787; stroke-width: 1; stroke-dasharray: 2,2; opacity: 0; }
    .hoverpoint .hover-dot { fill: #7ee787; opacity: 0; }
    .hoverpoint .hit { fill: transparent; cursor: pointer; }
    .hoverpoint .tooltip-bg { fill: #161b22; stroke: #30363d; stroke-width: 1; opacity: 0; }
    .hoverpoint .tooltip-text { font-family: -apple-system, BlinkMacSystemFont, 'Segoe UI', Helvetica, Arial, sans-serif; font-size: 9px; fill: #c9d1d9; opacity: 0; }
    .hoverpoint:hover .guide { opacity: 0.5; }
    .hoverpoint:hover .hover-dot { opacity: 1; }
    .hoverpoint:hover .tooltip-bg { opacity: 0.95; }
    .hoverpoint:hover .tooltip-text { opacity: 1; }
  </style>
  <defs>
    <linearGradient id="areaGrad" x1="0" y1="0" x2="0" y2="1">
      <stop offset="0%" stop-color="#7ee787" stop-opacity="0.15"/>
      <stop offset="100%" stop-color="#7ee787" stop-opacity="0.01"/>
    </linearGradient>
  </defs>

  <text x="60" y="18" class="title">Cumulative Commits</text>

  <line x1="60" y1="160.0" x2="820" y2="160.0" class="grid"/>
  <text x="50" y="163.0" class="label" text-anchor="end">0</text>
  <line x1="60" y1="127.5" x2="820" y2="127.5" class="grid" stroke-dasharray="3,3"/>
  <text x="50" y="130.5" class="label" text-anchor="end">500</text>
  <line x1="60" y1="95.0" x2="820" y2="95.0" class="grid" stroke-dasharray="3,3"/>
  <text x="50" y="98.0" class="label" text-anchor="end">1,000</text>
  <line x1="60" y1="62.5" x2="820" y2="62.5" class="grid" stroke-dasharray="3,3"/>
  <text x="50" y="65.5" class="label" text-anchor="end">1,500</text>
  <line x1="60" y1="30.0" x2="820" y2="30.0" class="grid" stroke-dasharray="3,3"/>
  <text x="50" y="33.0" class="label" text-anchor="end">2,000</text>

  <text x="70.0" y="186" class="label" text-anchor="middle">2021</text>
  <text x="203.2" y="186" class="label" text-anchor="middle">2022</text>
  <text x="346.4" y="186" class="label" text-anchor="middle">2023</text>
  <text x="489.6" y="186" class="label" text-anchor="middle">2024</text>
  <text x="633.2" y="186" class="label" text-anchor="middle">2025</text>
  <text x="776.4" y="186" class="label" text-anchor="middle">2026</text>


  <path class="area" d="M60.0,160.0 L60.0,160.0 60.0,160.0 L182.8,159.7 L183.2,159.6 L184.4,159.5 L203.2,159.4 L203.6,159.0 L204.0,158.9 L204.4,158.6 L204.8,158.6 L205.2,158.4 L206.0,158.1 L206.4,157.9 L206.7,157.8 L207.1,157.7 L208.7,157.5 L209.1,157.5 L209.5,157.4 L213.4,157.3 L223.6,157.1 L277.4,157.1 L277.8,156.5 L279.3,156.4 L280.1,155.9 L286.0,155.8 L286.8,155.6 L287.2,155.4 L287.6,155.3 L288.4,155.1 L288.7,154.7 L289.1,154.0 L289.5,153.9 L291.1,153.6 L291.9,153.6 L293.8,153.4 L299.3,153.2 L309.9,153.0 L315.8,152.9 L318.6,152.8 L319.0,152.7 L319.3,152.5 L319.7,152.3 L320.9,151.8 L321.3,151.7 L321.7,151.7 L323.3,151.4 L323.7,151.1 L324.1,151.0 L324.5,150.4 L324.8,149.9 L325.2,149.7 L325.6,149.5 L326.4,149.4 L328.0,149.3 L332.3,149.1 L343.7,149.0 L344.1,148.7 L344.5,148.6 L348.4,148.0 L348.8,146.5 L350.0,146.3 L350.3,146.3 L352.3,146.1 L365.6,145.8 L366.0,145.7 L366.4,145.6 L367.2,145.4 L370.0,145.2 L370.7,144.9 L371.1,144.7 L373.1,144.6 L382.5,144.4 L575.6,144.3 L576.3,144.2 L577.1,144.1 L577.9,144.0 L578.3,143.9 L578.7,143.8 L579.1,143.8 L579.5,143.7 L583.4,143.6 L594.4,143.6 L597.5,143.5 L598.7,143.4 L601.1,143.4 L603.4,143.3 L603.8,143.2 L605.4,143.2 L606.6,143.1 L607.3,143.0 L636.4,143.0 L636.8,142.8 L637.6,142.8 L637.9,142.7 L639.1,142.5 L641.1,142.4 L646.6,142.3 L658.0,141.7 L658.3,141.5 L663.4,141.3 L663.8,141.2 L665.0,141.1 L666.6,140.9 L668.5,140.2 L668.9,138.4 L669.3,138.3 L671.7,138.2 L672.9,138.1 L673.3,138.0 L674.0,137.8 L677.2,137.7 L679.9,137.2 L681.9,136.7 L682.3,136.5 L683.5,136.2 L683.9,135.4 L684.2,135.2 L684.6,134.9 L685.0,134.7 L685.4,134.4 L686.2,133.9 L687.4,133.5 L701.5,133.3 L702.3,132.4 L710.9,132.2 L716.0,131.9 L718.4,131.9 L718.8,131.8 L721.1,131.7 L721.5,131.7 L721.9,131.6 L722.3,131.4 L722.7,131.1 L723.1,130.5 L723.5,130.4 L725.8,129.4 L726.2,129.3 L727.0,129.1 L729.8,128.8 L730.5,128.7 L730.9,128.5 L731.7,128.5 L732.1,128.0 L732.5,127.9 L733.3,127.8 L733.7,127.6 L734.1,127.6 L734.5,127.5 L736.0,127.1 L736.4,127.0 L736.8,126.8 L737.2,126.7 L737.6,126.6 L738.0,126.4 L739.2,126.1 L739.6,125.9 L740.0,125.8 L740.4,125.6 L740.7,125.2 L741.5,125.1 L741.9,124.4 L742.3,124.1 L742.7,122.8 L743.1,122.5 L743.5,122.2 L743.9,121.5 L744.3,121.4 L744.7,121.2 L745.1,121.1 L745.5,120.7 L747.4,120.0 L747.8,119.8 L748.2,119.2 L748.6,118.1 L749.0,118.0 L749.8,117.9 L750.2,116.9 L750.6,116.4 L750.9,116.3 L751.3,115.3 L752.1,115.0 L752.5,114.9 L752.9,114.8 L753.3,114.7 L753.7,114.6 L754.1,114.6 L755.7,114.4 L756.4,114.3 L756.8,113.8 L757.2,113.5 L758.4,113.5 L760.4,113.3 L762.7,113.1 L763.1,112.9 L763.5,112.9 L763.9,112.5 L764.3,111.6 L764.7,111.5 L765.1,111.4 L765.5,111.3 L765.9,111.1 L766.2,110.6 L770.6,110.5 L771.0,110.4 L774.5,109.9 L775.3,109.5 L775.7,109.4 L776.1,109.1 L776.4,109.0 L777.6,108.8 L778.0,107.9 L778.4,105.5 L778.8,103.5 L779.2,103.4 L779.6,103.1 L780.4,102.8 L780.8,102.5 L781.2,102.1 L781.9,102.0 L782.3,101.4 L782.7,101.3 L783.5,100.4 L783.9,100.3 L784.3,99.8 L784.7,99.5 L785.1,99.1 L785.5,99.0 L786.6,98.4 L787.0,98.1 L787.4,96.6 L787.8,94.4 L788.2,93.6 L788.6,92.6 L789.0,92.5 L789.4,92.1 L789.8,91.9 L790.2,91.4 L790.6,90.6 L791.0,90.6 L791.4,90.1 L791.8,90.0 L792.1,89.5 L792.5,89.0 L792.9,88.4 L793.3,87.8 L793.7,87.7 L794.1,87.5 L794.5,86.4 L794.9,84.4 L795.3,84.1 L796.1,83.7 L796.5,83.5 L796.9,83.4 L797.2,80.2 L797.6,78.8 L798.0,77.3 L798.4,76.8 L798.8,74.4 L799.2,74.1 L799.6,74.0 L800.0,73.5 L800.4,72.4 L800.8,70.4 L801.2,68.2 L801.6,68.1 L802.0,67.6 L802.7,67.5 L803.1,66.2 L803.5,65.2 L803.9,63.8 L804.3,63.6 L804.7,63.5 L805.1,61.4 L805.5,58.9 L805.9,57.8 L806.3,57.3 L806.7,56.6 L807.1,56.1 L807.4,56.0 L808.2,55.7 L808.6,55.3 L809.0,55.2 L809.4,55.1 L809.8,55.0 L811.0,55.0 L811.4,54.9 L812.2,54.8 L812.9,54.7 L813.3,54.6 L814.1,53.7 L814.5,53.1 L814.9,52.9 L817.3,52.8 L817.6,52.3 L818.0,52.2 L818.4,51.6 L818.8,51.6 L819.2,51.4 L819.6,51.3 L820.0,51.1 L820.0,160.0 Z"/>
  <polyline class="line" points="60.0,160.0 182.8,159.7 183.2,159.6 184.4,159.5 203.2,159.4 203.6,159.0 204.0,158.9 204.4,158.6 204.8,158.6 205.2,158.4 206.0,158.1 206.4,157.9 206.7,157.8 207.1,157.7 208.7,157.5 209.1,157.5 209.5,157.4 213.4,157.3 223.6,157.1 277.4,157.1 277.8,156.5 279.3,156.4 280.1,155.9 286.0,155.8 286.8,155.6 287.2,155.4 287.6,155.3 288.4,155.1 288.7,154.7 289.1,154.0 289.5,153.9 291.1,153.6 291.9,153.6 293.8,153.4 299.3,153.2 309.9,153.0 315.8,152.9 318.6,152.8 319.0,152.7 319.3,152.5 319.7,152.3 320.9,151.8 321.3,151.7 321.7,151.7 323.3,151.4 323.7,151.1 324.1,151.0 324.5,150.4 324.8,149.9 325.2,149.7 325.6,149.5 326.4,149.4 328.0,149.3 332.3,149.1 343.7,149.0 344.1,148.7 344.5,148.6 348.4,148.0 348.8,146.5 350.0,146.3 350.3,146.3 352.3,146.1 365.6,145.8 366.0,145.7 366.4,145.6 367.2,145.4 370.0,145.2 370.7,144.9 371.1,144.7 373.1,144.6 382.5,144.4 575.6,144.3 576.3,144.2 577.1,144.1 577.9,144.0 578.3,143.9 578.7,143.8 579.1,143.8 579.5,143.7 583.4,143.6 594.4,143.6 597.5,143.5 598.7,143.4 601.1,143.4 603.4,143.3 603.8,143.2 605.4,143.2 606.6,143.1 607.3,143.0 636.4,143.0 636.8,142.8 637.6,142.8 637.9,142.7 639.1,142.5 641.1,142.4 646.6,142.3 658.0,141.7 658.3,141.5 663.4,141.3 663.8,141.2 665.0,141.1 666.6,140.9 668.5,140.2 668.9,138.4 669.3,138.3 671.7,138.2 672.9,138.1 673.3,138.0 674.0,137.8 677.2,137.7 679.9,137.2 681.9,136.7 682.3,136.5 683.5,136.2 683.9,135.4 684.2,135.2 684.6,134.9 685.0,134.7 685.4,134.4 686.2,133.9 687.4,133.5 701.5,133.3 702.3,132.4 710.9,132.2 716.0,131.9 718.4,131.9 718.8,131.8 721.1,131.7 721.5,131.7 721.9,131.6 722.3,131.4 722.7,131.1 723.1,130.5 723.5,130.4 725.8,129.4 726.2,129.3 727.0,129.1 729.8,128.8 730.5,128.7 730.9,128.5 731.7,128.5 732.1,128.0 732.5,127.9 733.3,127.8 733.7,127.6 734.1,127.6 734.5,127.5 736.0,127.1 736.4,127.0 736.8,126.8 737.2,126.7 737.6,126.6 738.0,126.4 739.2,126.1 739.6,125.9 740.0,125.8 740.4,125.6 740.7,125.2 741.5,125.1 741.9,124.4 742.3,124.1 742.7,122.8 743.1,122.5 743.5,122.2 743.9,121.5 744.3,121.4 744.7,121.2 745.1,121.1 745.5,120.7 747.4,120.0 747.8,119.8 748.2,119.2 748.6,118.1 749.0,118.0 749.8,117.9 750.2,116.9 750.6,116.4 750.9,116.3 751.3,115.3 752.1,115.0 752.5,114.9 752.9,114.8 753.3,114.7 753.7,114.6 754.1,114.6 755.7,114.4 756.4,114.3 756.8,113.8 757.2,113.5 758.4,113.5 760.4,113.3 762.7,113.1 763.1,112.9 763.5,112.9 763.9,112.5 764.3,111.6 764.7,111.5 765.1,111.4 765.5,111.3 765.9,111.1 766.2,110.6 770.6,110.5 771.0,110.4 774.5,109.9 775.3,109.5 775.7,109.4 776.1,109.1 776.4,109.0 777.6,108.8 778.0,107.9 778.4,105.5 778.8,103.5 779.2,103.4 779.6,103.1 780.4,102.8 780.8,102.5 781.2,102.1 781.9,102.0 782.3,101.4 782.7,101.3 783.5,100.4 783.9,100.3 784.3,99.8 784.7,99.5 785.1,99.1 785.5,99.0 786.6,98.4 787.0,98.1 787.4,96.6 787.8,94.4 788.2,93.6 788.6,92.6 789.0,92.5 789.4,92.1 789.8,91.9 790.2,91.4 790.6,90.6 791.0,90.6 791.4,90.1 791.8,90.0 792.1,89.5 792.5,89.0 792.9,88.4 793.3,87.8 793.7,87.7 794.1,87.5 794.5,86.4 794.9,84.4 795.3,84.1 796.1,83.7 796.5,83.5 796.9,83.4 797.2,80.2 797.6,78.8 798.0,77.3 798.4,76.8 798.8,74.4 799.2,74.1 799.6,74.0 800.0,73.5 800.4,72.4 800.8,70.4 801.2,68.2 801.6,68.1 802.0,67.6 802.7,67.5 803.1,66.2 803.5,65.2 803.9,63.8 804.3,63.6 804.7,63.5 805.1,61.4 805.5,58.9 805.9,57.8 806.3,57.3 806.7,56.6 807.1,56.1 807.4,56.0 808.2,55.7 808.6,55.3 809.0,55.2 809.4,55.1 809.8,55.0 811.0,55.0 811.4,54.9 812.2,54.8 812.9,54.7 813.3,54.6 814.1,53.7 814.5,53.1 814.9,52.9 817.3,52.8 817.6,52.3 818.0,52.2 818.4,51.6 818.8,51.6 819.2,51.4 819.6,51.3 820.0,51.1"/>

  <g class="hoverpoint">
    <line x1="184.4" y1="30" x2="184.4" y2="160.0" class="guide"/>
    <circle cx="184.4" cy="159.5" r="16" class="hit"/>
    <circle cx="184.4" cy="159.5" r="4" class="hover-dot"><title>Nov 2021: 7 total (+7 this month)</title></circle>
    <rect x="114.4" y="133.5" width="140" height="20" rx="4" class="tooltip-bg"/>
    <text x="184.4" y="147.5" class="tooltip-text" text-anchor="middle">Nov 2021: 7 total (+7 this month)</text>
  </g>
  <g class="hoverpoint">
    <line x1="213.4" y1="30" x2="213.4" y2="160.0" class="guide"/>
    <circle cx="213.4" cy="157.3" r="16" class="hit"/>
    <circle cx="213.4" cy="157.3" r="4" class="hover-dot"><title>Jan 2022: 41 total (+34 this month)</title></circle>
    <rect x="143.4" y="131.3" width="140" height="20" rx="4" class="tooltip-bg"/>
    <text x="213.4" y="145.3" class="tooltip-text" text-anchor="middle">Jan 2022: 41 total (+34 this month)</text>
  </g>
  <g class="hoverpoint">
    <line x1="223.6" y1="30" x2="223.6" y2="160.0" class="guide"/>
    <circle cx="223.6" cy="157.1" r="16" class="hit"/>
    <circle cx="223.6" cy="157.1" r="4" class="hover-dot"><title>Feb 2022: 44 total (+3 this month)</title></circle>
    <rect x="153.6" y="131.1" width="140" height="20" rx="4" class="tooltip-bg"/>
    <text x="223.6" y="145.1" class="tooltip-text" text-anchor="middle">Feb 2022: 44 total (+3 this month)</text>
  </g>
  <g class="hoverpoint">
    <line x1="286.0" y1="30" x2="286.0" y2="160.0" class="guide"/>
    <circle cx="286.0" cy="155.8" r="16" class="hit"/>
    <circle cx="286.0" cy="155.8" r="4" class="hover-dot"><title>Jul 2022: 65 total (+21 this month)</title></circle>
    <rect x="216.0" y="129.8" width="140" height="20" rx="4" class="tooltip-bg"/>
    <text x="286.0" y="143.8" class="tooltip-text" text-anchor="middle">Jul 2022: 65 total (+21 this month)</text>
  </g>
  <g class="hoverpoint">
    <line x1="293.8" y1="30" x2="293.8" y2="160.0" class="guide"/>
    <circle cx="293.8" cy="153.4" r="16" class="hit"/>
    <circle cx="293.8" cy="153.4" r="4" class="hover-dot"><title>Aug 2022: 101 total (+36 this month)</title></circle>
    <rect x="223.8" y="127.4" width="140" height="20" rx="4" class="tooltip-bg"/>
    <text x="293.8" y="141.4" class="tooltip-text" text-anchor="middle">Aug 2022: 101 total (+36 this month)</text>
  </g>
  <g class="hoverpoint">
    <line x1="309.9" y1="30" x2="309.9" y2="160.0" class="guide"/>
    <circle cx="309.9" cy="153.0" r="16" class="hit"/>
    <circle cx="309.9" cy="153.0" r="4" class="hover-dot"><title>Sep 2022: 108 total (+7 this month)</title></circle>
    <rect x="239.9" y="127.0" width="140" height="20" rx="4" class="tooltip-bg"/>
    <text x="309.9" y="141.0" class="tooltip-text" text-anchor="middle">Sep 2022: 108 total (+7 this month)</text>
  </g>
  <g class="hoverpoint">
    <line x1="321.7" y1="30" x2="321.7" y2="160.0" class="guide"/>
    <circle cx="321.7" cy="151.7" r="16" class="hit"/>
    <circle cx="321.7" cy="151.7" r="4" class="hover-dot"><title>Oct 2022: 128 total (+20 this month)</title></circle>
    <rect x="251.7" y="125.7" width="140" height="20" rx="4" class="tooltip-bg"/>
    <text x="321.7" y="139.7" class="tooltip-text" text-anchor="middle">Oct 2022: 128 total (+20 this month)</text>
  </g>
  <g class="hoverpoint">
    <line x1="332.3" y1="30" x2="332.3" y2="160.0" class="guide"/>
    <circle cx="332.3" cy="149.1" r="16" class="hit"/>
    <circle cx="332.3" cy="149.1" r="4" class="hover-dot"><title>Nov 2022: 168 total (+40 this month)</title></circle>
    <rect x="262.3" y="123.1" width="140" height="20" rx="4" class="tooltip-bg"/>
    <text x="332.3" y="137.1" class="tooltip-text" text-anchor="middle">Nov 2022: 168 total (+40 this month)</text>
  </g>
  <g class="hoverpoint">
    <line x1="344.5" y1="30" x2="344.5" y2="160.0" class="guide"/>
    <circle cx="344.5" cy="148.6" r="16" class="hit"/>
    <circle cx="344.5" cy="148.6" r="4" class="hover-dot"><title>Dec 2022: 175 total (+7 this month)</title></circle>
    <rect x="274.5" y="122.6" width="140" height="20" rx="4" class="tooltip-bg"/>
    <text x="344.5" y="136.6" class="tooltip-text" text-anchor="middle">Dec 2022: 175 total (+7 this month)</text>
  </g>
  <g class="hoverpoint">
    <line x1="352.3" y1="30" x2="352.3" y2="160.0" class="guide"/>
    <circle cx="352.3" cy="146.1" r="16" class="hit"/>
    <circle cx="352.3" cy="146.1" r="4" class="hover-dot"><title>Jan 2023: 214 total (+39 this month)</title></circle>
    <rect x="282.3" y="120.1" width="140" height="20" rx="4" class="tooltip-bg"/>
    <text x="352.3" y="134.1" class="tooltip-text" text-anchor="middle">Jan 2023: 214 total (+39 this month)</text>
  </g>
  <g class="hoverpoint">
    <line x1="367.2" y1="30" x2="367.2" y2="160.0" class="guide"/>
    <circle cx="367.2" cy="145.4" r="16" class="hit"/>
    <circle cx="367.2" cy="145.4" r="4" class="hover-dot"><title>Feb 2023: 225 total (+11 this month)</title></circle>
    <rect x="297.2" y="119.4" width="140" height="20" rx="4" class="tooltip-bg"/>
    <text x="367.2" y="133.4" class="tooltip-text" text-anchor="middle">Feb 2023: 225 total (+11 this month)</text>
  </g>
  <g class="hoverpoint">
    <line x1="373.1" y1="30" x2="373.1" y2="160.0" class="guide"/>
    <circle cx="373.1" cy="144.6" r="16" class="hit"/>
    <circle cx="373.1" cy="144.6" r="4" class="hover-dot"><title>Mar 2023: 237 total (+12 this month)</title></circle>
    <rect x="303.1" y="118.6" width="140" height="20" rx="4" class="tooltip-bg"/>
    <text x="373.1" y="132.6" class="tooltip-text" text-anchor="middle">Mar 2023: 237 total (+12 this month)</text>
  </g>
  <g class="hoverpoint">
    <line x1="382.5" y1="30" x2="382.5" y2="160.0" class="guide"/>
    <circle cx="382.5" cy="144.4" r="16" class="hit"/>
    <circle cx="382.5" cy="144.4" r="4" class="hover-dot"><title>Apr 2023: 240 total (+3 this month)</title></circle>
    <rect x="312.5" y="118.4" width="140" height="20" rx="4" class="tooltip-bg"/>
    <text x="382.5" y="132.4" class="tooltip-text" text-anchor="middle">Apr 2023: 240 total (+3 this month)</text>
  </g>
  <g class="hoverpoint">
    <line x1="583.4" y1="30" x2="583.4" y2="160.0" class="guide"/>
    <circle cx="583.4" cy="143.6" r="16" class="hit"/>
    <circle cx="583.4" cy="143.6" r="4" class="hover-dot"><title>Aug 2024: 252 total (+12 this month)</title></circle>
    <rect x="513.4" y="117.6" width="140" height="20" rx="4" class="tooltip-bg"/>
    <text x="583.4" y="131.6" class="tooltip-text" text-anchor="middle">Aug 2024: 252 total (+12 this month)</text>
  </g>
  <g class="hoverpoint">
    <line x1="594.4" y1="30" x2="594.4" y2="160.0" class="guide"/>
    <circle cx="594.4" cy="143.6" r="16" class="hit"/>
    <circle cx="594.4" cy="143.6" r="4" class="hover-dot"><title>Sep 2024: 253 total (+1 this month)</title></circle>
    <rect x="524.4" y="117.6" width="140" height="20" rx="4" class="tooltip-bg"/>
    <text x="594.4" y="131.6" class="tooltip-text" text-anchor="middle">Sep 2024: 253 total (+1 this month)</text>
  </g>
  <g class="hoverpoint">
    <line x1="607.3" y1="30" x2="607.3" y2="160.0" class="guide"/>
    <circle cx="607.3" cy="143.0" r="16" class="hit"/>
    <circle cx="607.3" cy="143.0" r="4" class="hover-dot"><title>Oct 2024: 261 total (+8 this month)</title></circle>
    <rect x="537.3" y="117.0" width="140" height="20" rx="4" class="tooltip-bg"/>
    <text x="607.3" y="131.0" class="tooltip-text" text-anchor="middle">Oct 2024: 261 total (+8 this month)</text>
  </g>
  <g class="hoverpoint">
    <line x1="641.1" y1="30" x2="641.1" y2="160.0" class="guide"/>
    <circle cx="641.1" cy="142.4" r="16" class="hit"/>
    <circle cx="641.1" cy="142.4" r="4" class="hover-dot"><title>Jan 2025: 270 total (+9 this month)</title></circle>
    <rect x="571.1" y="116.4" width="140" height="20" rx="4" class="tooltip-bg"/>
    <text x="641.1" y="130.4" class="tooltip-text" text-anchor="middle">Jan 2025: 270 total (+9 this month)</text>
  </g>
  <g class="hoverpoint">
    <line x1="646.6" y1="30" x2="646.6" y2="160.0" class="guide"/>
    <circle cx="646.6" cy="142.3" r="16" class="hit"/>
    <circle cx="646.6" cy="142.3" r="4" class="hover-dot"><title>Feb 2025: 272 total (+2 this month)</title></circle>
    <rect x="576.6" y="116.3" width="140" height="20" rx="4" class="tooltip-bg"/>
    <text x="646.6" y="130.3" class="tooltip-text" text-anchor="middle">Feb 2025: 272 total (+2 this month)</text>
  </g>
  <g class="hoverpoint">
    <line x1="666.6" y1="30" x2="666.6" y2="160.0" class="guide"/>
    <circle cx="666.6" cy="140.9" r="16" class="hit"/>
    <circle cx="666.6" cy="140.9" r="4" class="hover-dot"><title>Mar 2025: 294 total (+22 this month)</title></circle>
    <rect x="596.6" y="114.9" width="140" height="20" rx="4" class="tooltip-bg"/>
    <text x="666.6" y="128.9" class="tooltip-text" text-anchor="middle">Mar 2025: 294 total (+22 this month)</text>
  </g>
  <g class="hoverpoint">
    <line x1="679.9" y1="30" x2="679.9" y2="160.0" class="guide"/>
    <circle cx="679.9" cy="137.2" r="16" class="hit"/>
    <circle cx="679.9" cy="137.2" r="4" class="hover-dot"><title>Apr 2025: 351 total (+57 this month)</title></circle>
    <rect x="609.9" y="111.2" width="140" height="20" rx="4" class="tooltip-bg"/>
    <text x="679.9" y="125.2" class="tooltip-text" text-anchor="middle">Apr 2025: 351 total (+57 this month)</text>
  </g>
  <g class="hoverpoint">
    <line x1="687.4" y1="30" x2="687.4" y2="160.0" class="guide"/>
    <circle cx="687.4" cy="133.5" r="16" class="hit"/>
    <circle cx="687.4" cy="133.5" r="4" class="hover-dot"><title>May 2025: 408 total (+57 this month)</title></circle>
    <rect x="617.4" y="107.5" width="140" height="20" rx="4" class="tooltip-bg"/>
    <text x="687.4" y="121.5" class="tooltip-text" text-anchor="middle">May 2025: 408 total (+57 this month)</text>
  </g>
  <g class="hoverpoint">
    <line x1="702.3" y1="30" x2="702.3" y2="160.0" class="guide"/>
    <circle cx="702.3" cy="132.4" r="16" class="hit"/>
    <circle cx="702.3" cy="132.4" r="4" class="hover-dot"><title>Jun 2025: 424 total (+16 this month)</title></circle>
    <rect x="632.3" y="106.4" width="140" height="20" rx="4" class="tooltip-bg"/>
    <text x="702.3" y="120.4" class="tooltip-text" text-anchor="middle">Jun 2025: 424 total (+16 this month)</text>
  </g>
  <g class="hoverpoint">
    <line x1="716.0" y1="30" x2="716.0" y2="160.0" class="guide"/>
    <circle cx="716.0" cy="131.9" r="16" class="hit"/>
    <circle cx="716.0" cy="131.9" r="4" class="hover-dot"><title>Jul 2025: 432 total (+8 this month)</title></circle>
    <rect x="646.0" y="105.9" width="140" height="20" rx="4" class="tooltip-bg"/>
    <text x="716.0" y="119.9" class="tooltip-text" text-anchor="middle">Jul 2025: 432 total (+8 this month)</text>
  </g>
  <g class="hoverpoint">
    <line x1="727.0" y1="30" x2="727.0" y2="160.0" class="guide"/>
    <circle cx="727.0" cy="129.1" r="16" class="hit"/>
    <circle cx="727.0" cy="129.1" r="4" class="hover-dot"><title>Aug 2025: 475 total (+43 this month)</title></circle>
    <rect x="657.0" y="103.1" width="140" height="20" rx="4" class="tooltip-bg"/>
    <text x="727.0" y="117.1" class="tooltip-text" text-anchor="middle">Aug 2025: 475 total (+43 this month)</text>
  </g>
  <g class="hoverpoint">
    <line x1="740.0" y1="30" x2="740.0" y2="160.0" class="guide"/>
    <circle cx="740.0" cy="125.8" r="16" class="hit"/>
    <circle cx="740.0" cy="125.8" r="4" class="hover-dot"><title>Sep 2025: 526 total (+51 this month)</title></circle>
    <rect x="670.0" y="99.8" width="140" height="20" rx="4" class="tooltip-bg"/>
    <text x="740.0" y="113.8" class="tooltip-text" text-anchor="middle">Sep 2025: 526 total (+51 this month)</text>
  </g>
  <g class="hoverpoint">
    <line x1="752.1" y1="30" x2="752.1" y2="160.0" class="guide"/>
    <circle cx="752.1" cy="115.0" r="16" class="hit"/>
    <circle cx="752.1" cy="115.0" r="4" class="hover-dot"><title>Oct 2025: 692 total (+166 this month)</title></circle>
    <rect x="682.1" y="89.0" width="140" height="20" rx="4" class="tooltip-bg"/>
    <text x="752.1" y="103.0" class="tooltip-text" text-anchor="middle">Oct 2025: 692 total (+166 this month)</text>
  </g>
  <g class="hoverpoint">
    <line x1="763.9" y1="30" x2="763.9" y2="160.0" class="guide"/>
    <circle cx="763.9" cy="112.5" r="16" class="hit"/>
    <circle cx="763.9" cy="112.5" r="4" class="hover-dot"><title>Nov 2025: 731 total (+39 this month)</title></circle>
    <rect x="693.9" y="86.5" width="140" height="20" rx="4" class="tooltip-bg"/>
    <text x="763.9" y="100.5" class="tooltip-text" text-anchor="middle">Nov 2025: 731 total (+39 this month)</text>
  </g>
  <g class="hoverpoint">
    <line x1="776.1" y1="30" x2="776.1" y2="160.0" class="guide"/>
    <circle cx="776.1" cy="109.1" r="16" class="hit"/>
    <circle cx="776.1" cy="109.1" r="4" class="hover-dot"><title>Dec 2025: 783 total (+52 this month)</title></circle>
    <rect x="706.1" y="83.1" width="140" height="20" rx="4" class="tooltip-bg"/>
    <text x="776.1" y="97.1" class="tooltip-text" text-anchor="middle">Dec 2025: 783 total (+52 this month)</text>
  </g>
  <g class="hoverpoint">
    <line x1="788.2" y1="30" x2="788.2" y2="160.0" class="guide"/>
    <circle cx="788.2" cy="93.6" r="16" class="hit"/>
    <circle cx="788.2" cy="93.6" r="4" class="hover-dot"><title>Jan 2026: 1,022 total (+239 this month)</title></circle>
    <rect x="718.2" y="67.6" width="140" height="20" rx="4" class="tooltip-bg"/>
    <text x="788.2" y="81.6" class="tooltip-text" text-anchor="middle">Jan 2026: 1,022 total (+239 this month)</text>
  </g>
  <g class="hoverpoint">
    <line x1="799.2" y1="30" x2="799.2" y2="160.0" class="guide"/>
    <circle cx="799.2" cy="74.1" r="16" class="hit"/>
    <circle cx="799.2" cy="74.1" r="4" class="hover-dot"><title>Feb 2026: 1,321 total (+299 this month)</title></circle>
    <rect x="729.2" y="48.1" width="140" height="20" rx="4" class="tooltip-bg"/>
    <text x="799.2" y="62.1" class="tooltip-text" text-anchor="middle">Feb 2026: 1,321 total (+299 this month)</text>
  </g>
  <g class="hoverpoint">
    <line x1="811.4" y1="30" x2="811.4" y2="160.0" class="guide"/>
    <circle cx="811.4" cy="54.9" r="16" class="hit"/>
    <circle cx="811.4" cy="54.9" r="4" class="hover-dot"><title>Mar 2026: 1,617 total (+296 this month)</title></circle>
    <rect x="741.4" y="28.9" width="140" height="20" rx="4" class="tooltip-bg"/>
    <text x="811.4" y="42.9" class="tooltip-text" text-anchor="middle">Mar 2026: 1,617 total (+296 this month)</text>
  </g>
  <g class="hoverpoint">
    <line x1="820.0" y1="30" x2="820.0" y2="160.0" class="guide"/>
    <circle cx="820.0" cy="51.1" r="16" class="hit"/>
    <circle cx="820.0" cy="51.1" r="4" class="hover-dot"><title>Apr 2026: 1,675 total (+58 this month)</title></circle>
    <rect x="750.0" y="25.1" width="140" height="20" rx="4" class="tooltip-bg"/>
    <text x="820.0" y="39.1" class="tooltip-text" text-anchor="middle">Apr 2026: 1,675 total (+58 this month)</text>
  </g>

  <circle cx="820.0" cy="51.1" r="4" class="dot"/>
  <text x="810.0" y="41.1" class="total">1,675</text>

</svg>