<svg xmlns="http://www.w3.org/2000/svg" width="840" height="196" viewBox="0 0 840 196" fill="none">
  <style>
    .label { font-family: -apple-system, BlinkMacSystemFont, 'Segoe UI', Helvetica, Arial, sans-serif; font-size: 10px; fill: #8b949e; }
    .title { font-family: -apple-system, BlinkMacSystemFont, 'Segoe UI', Helvetica, Arial, sans-serif; font-size: 11px; fill: #8b949e; font-weight: 600; }
    .total { font-family: -apple-system, BlinkMacSystemFont, 'Segoe UI', Helvetica, Arial, sans-serif; font-size: 11px; fill: #7ee787; font-weight: 600; }
    .grid { stroke: #21262d; stroke-width: 1; }
    .line { stroke: #7ee787; stroke-width: 2; stroke-linecap: round; stroke-linejoin: round; fill: none; }
    .dot { fill: #7ee787; }
    .area { fill: url(#areaGrad); }
    /* Hover interaction */
    .hoverpoint .guide { stroke: #7ee787; stroke-width: 1; stroke-dasharray: 2,2; opacity: 0; }
    .hoverpoint .hover-dot { fill: #7ee787; opacity: 0; }
    .hoverpoint .hit { fill: transparent; cursor: pointer; }
    .hoverpoint .tooltip-bg { fill: #161b22; stroke: #30363d; stroke-width: 1; opacity: 0; }
    .hoverpoint .tooltip-text { font-family: -apple-system, BlinkMacSystemFont, 'Segoe UI', Helvetica, Arial, sans-serif; font-size: 9px; fill: #c9d1d9; opacity: 0; }
    .hoverpoint:hover .guide { opacity: 0.5; }
    .hoverpoint:hover .hover-dot { opacity: 1; }
    .hoverpoint:hover .tooltip-bg { opacity: 0.95; }
    .hoverpoint:hover .tooltip-text { opacity: 1; }
  </style>
  <defs>
    <linearGradient id="areaGrad" x1="0" y1="0" x2="0" y2="1">
      <stop offset="0%" stop-color="#7ee787" stop-opacity="0.15"/>
      <stop offset="100%" stop-color="#7ee787" stop-opacity="0.01"/>
    </linearGradient>
  </defs>

  <text x="60" y="18" class="title">Cumulative Commits</text>

  <line x1="60" y1="160.0" x2="820" y2="160.0" class="grid"/>
  <text x="50" y="163.0" class="label" text-anchor="end">0</text>
  <line x1="60" y1="127.5" x2="820" y2="127.5" class="grid" stroke-dasharray="3,3"/>
  <text x="50" y="130.5" class="label" text-anchor="end">750</text>
  <line x1="60" y1="95.0" x2="820" y2="95.0" class="grid" stroke-dasharray="3,3"/>
  <text x="50" y="98.0" class="label" text-anchor="end">1,500</text>
  <line x1="60" y1="62.5" x2="820" y2="62.5" class="grid" stroke-dasharray="3,3"/>
  <text x="50" y="65.5" class="label" text-anchor="end">2,250</text>
  <line x1="60" y1="30.0" x2="820" y2="30.0" class="grid" stroke-dasharray="3,3"/>
  <text x="50" y="33.0" class="label" text-anchor="end">3,000</text>

  <text x="70.0" y="186" class="label" text-anchor="middle">2021</text>
  <text x="200.1" y="186" class="label" text-anchor="middle">2022</text>
  <text x="340.2" y="186" class="label" text-anchor="middle">2023</text>
  <text x="480.3" y="186" class="label" text-anchor="middle">2024</text>
  <text x="620.8" y="186" class="label" text-anchor="middle">2025</text>
  <text x="760.9" y="186" class="label" text-anchor="middle">2026</text>


  <path class="area" d="M60.0,160.0 L60.0,160.0 60.0,160.0 L180.1,159.8 L180.5,159.7 L181.7,159.7 L200.1,159.6 L200.5,159.3 L200.9,159.3 L201.3,159.1 L201.6,159.0 L202.0,159.0 L202.8,158.7 L203.2,158.6 L203.6,158.5 L203.9,158.5 L205.5,158.4 L205.9,158.3 L206.2,158.3 L210.1,158.2 L220.1,158.1 L272.6,158.1 L273.0,157.7 L274.6,157.6 L275.3,157.3 L281.1,157.2 L281.9,157.1 L282.2,156.9 L282.6,156.9 L283.4,156.8 L283.8,156.4 L284.2,156.0 L284.5,155.9 L286.1,155.8 L286.8,155.7 L288.8,155.6 L294.1,155.4 L304.5,155.3 L310.3,155.3 L312.9,155.2 L313.3,155.1 L313.7,155.0 L314.1,154.8 L315.3,154.5 L315.6,154.5 L316.0,154.5 L317.6,154.3 L317.9,154.1 L318.3,154.0 L318.7,153.6 L319.1,153.2 L319.5,153.1 L319.9,153.0 L320.6,152.9 L322.2,152.8 L326.4,152.7 L337.5,152.7 L337.9,152.5 L338.3,152.4 L342.1,152.0 L342.5,151.0 L343.7,150.9 L344.0,150.9 L346.0,150.7 L359.0,150.6 L359.4,150.5 L359.8,150.4 L360.5,150.2 L363.2,150.1 L364.0,149.9 L364.4,149.8 L366.3,149.7 L375.5,149.6 L564.4,149.5 L565.1,149.5 L565.9,149.4 L566.7,149.3 L567.1,149.3 L567.4,149.2 L567.8,149.2 L568.2,149.1 L572.0,149.1 L582.8,149.0 L585.9,149.0 L587.0,148.9 L589.3,148.9 L591.6,148.9 L592.0,148.8 L593.5,148.8 L594.7,148.7 L595.5,148.7 L623.9,148.6 L624.2,148.6 L625.0,148.5 L625.4,148.5 L626.5,148.3 L628.5,148.3 L633.8,148.2 L645.0,147.8 L645.4,147.7 L650.3,147.6 L650.7,147.5 L651.9,147.4 L653.4,147.3 L655.3,146.8 L655.7,145.6 L656.1,145.5 L658.4,145.4 L659.6,145.4 L659.9,145.4 L660.7,145.2 L663.8,145.1 L666.5,144.8 L668.4,144.5 L668.8,144.4 L669.9,144.1 L670.3,143.6 L670.7,143.5 L671.1,143.3 L671.5,143.1 L671.8,142.9 L672.6,142.6 L673.8,142.3 L687.6,142.2 L688.3,141.6 L696.8,141.5 L701.8,141.3 L704.1,141.2 L704.5,141.2 L706.8,141.2 L707.2,141.1 L707.5,141.1 L707.9,140.9 L708.3,140.8 L708.7,140.3 L709.1,140.2 L711.4,139.6 L711.8,139.5 L712.5,139.4 L715.2,139.2 L716.0,139.2 L716.4,139.0 L717.1,139.0 L717.5,138.7 L717.9,138.6 L718.7,138.5 L719.1,138.4 L719.4,138.4 L719.8,138.3 L721.4,138.1 L721.7,138.0 L722.1,137.9 L722.5,137.8 L722.9,137.7 L723.3,137.6 L724.4,137.4 L724.8,137.3 L725.2,137.2 L725.6,137.1 L726.0,136.8 L726.7,136.7 L727.1,136.3 L727.5,136.0 L727.9,135.2 L728.3,135.0 L728.6,134.8 L729.0,134.3 L729.4,134.3 L729.8,134.1 L730.2,134.1 L730.6,133.8 L732.5,133.3 L732.9,133.2 L733.3,132.8 L733.6,132.1 L734.0,132.0 L734.8,131.9 L735.2,131.3 L735.6,130.9 L735.9,130.9 L736.3,130.2 L737.1,130.0 L737.5,129.9 L737.9,129.8 L738.2,129.8 L738.6,129.8 L739.0,129.7 L740.5,129.6 L741.3,129.5 L741.7,129.2 L742.1,129.0 L743.2,129.0 L745.2,128.9 L747.5,128.7 L747.8,128.6 L748.2,128.6 L748.6,128.3 L749.0,127.7 L749.4,127.7 L749.8,127.6 L750.1,127.5 L750.5,127.4 L750.9,127.1 L755.1,127.0 L755.5,126.9 L759.0,126.6 L759.7,126.3 L760.1,126.2 L760.5,126.1 L760.9,126.0 L762.0,125.9 L762.4,125.2 L762.8,123.7 L763.2,122.3 L763.6,122.3 L764.0,122.1 L764.7,121.9 L765.1,121.7 L765.5,121.4 L766.3,121.3 L766.6,120.9 L767.0,120.9 L767.8,120.3 L768.2,120.2 L768.6,119.9 L768.9,119.7 L769.3,119.4 L769.7,119.4 L770.9,119.0 L771.3,118.7 L771.6,117.7 L772.0,116.3 L772.4,115.7 L772.8,115.1 L773.2,115.0 L773.6,114.8 L773.9,114.6 L774.3,114.2 L774.7,113.8 L775.1,113.7 L775.5,113.4 L775.9,113.3 L776.2,113.0 L776.6,112.6 L777.0,112.3 L777.4,111.9 L777.8,111.8 L778.2,111.6 L778.5,110.9 L778.9,109.6 L779.3,109.4 L780.1,109.1 L780.5,109.0 L780.8,108.9 L781.2,106.8 L781.6,105.8 L782.0,104.9 L782.4,104.5 L782.8,102.9 L783.2,102.8 L783.5,102.7 L783.9,102.3 L784.3,101.6 L784.7,100.2 L785.1,98.8 L785.5,98.7 L785.8,98.4 L786.6,98.3 L787.0,97.5 L787.4,96.8 L787.8,95.9 L788.1,95.7 L788.5,95.7 L788.9,94.3 L789.3,92.6 L789.7,91.9 L790.1,91.5 L790.4,91.1 L790.8,90.7 L791.2,90.7 L792.0,90.5 L792.4,90.2 L792.7,90.1 L793.1,90.1 L793.5,90.0 L794.7,90.0 L795.1,89.9 L795.8,89.8 L796.6,89.8 L797.0,89.7 L797.7,89.1 L798.1,88.8 L798.5,88.4 L800.8,88.3 L801.2,88.0 L801.6,87.9 L802.0,87.5 L802.3,87.5 L802.7,87.4 L803.1,87.3 L803.5,86.7 L803.9,86.0 L804.3,85.8 L804.6,84.5 L805.0,84.3 L805.8,84.3 L806.2,84.2 L807.3,83.8 L807.7,83.3 L808.1,83.0 L808.5,82.7 L808.9,81.7 L809.3,78.0 L809.6,76.4 L810.0,76.1 L810.4,75.8 L810.8,75.2 L811.2,75.1 L811.6,69.9 L811.9,63.5 L812.3,61.6 L812.7,61.5 L813.1,60.6 L813.5,59.8 L813.9,56.0 L814.2,53.6 L814.6,50.1 L815.0,49.3 L815.4,49.2 L815.8,49.1 L816.2,47.9 L816.5,46.1 L816.9,42.1 L817.3,41.5 L817.7,40.7 L818.1,39.5 L818.5,38.9 L818.8,38.5 L819.2,37.2 L819.6,36.7 L820.0,36.6 L820.0,160.0 Z"/>
  <polyline class="line" points="60.0,160.0 180.1,159.8 180.5,159.7 181.7,159.7 200.1,159.6 200.5,159.3 200.9,159.3 201.3,159.1 201.6,159.0 202.0,159.0 202.8,158.7 203.2,158.6 203.6,158.5 203.9,158.5 205.5,158.4 205.9,158.3 206.2,158.3 210.1,158.2 220.1,158.1 272.6,158.1 273.0,157.7 274.6,157.6 275.3,157.3 281.1,157.2 281.9,157.1 282.2,156.9 282.6,156.9 283.4,156.8 283.8,156.4 284.2,156.0 284.5,155.9 286.1,155.8 286.8,155.7 288.8,155.6 294.1,155.4 304.5,155.3 310.3,155.3 312.9,155.2 313.3,155.1 313.7,155.0 314.1,154.8 315.3,154.5 315.6,154.5 316.0,154.5 317.6,154.3 317.9,154.1 318.3,154.0 318.7,153.6 319.1,153.2 319.5,153.1 319.9,153.0 320.6,152.9 322.2,152.8 326.4,152.7 337.5,152.7 337.9,152.5 338.3,152.4 342.1,152.0 342.5,151.0 343.7,150.9 344.0,150.9 346.0,150.7 359.0,150.6 359.4,150.5 359.8,150.4 360.5,150.2 363.2,150.1 364.0,149.9 364.4,149.8 366.3,149.7 375.5,149.6 564.4,149.5 565.1,149.5 565.9,149.4 566.7,149.3 567.1,149.3 567.4,149.2 567.8,149.2 568.2,149.1 572.0,149.1 582.8,149.0 585.9,149.0 587.0,148.9 589.3,148.9 591.6,148.9 592.0,148.8 593.5,148.8 594.7,148.7 595.5,148.7 623.9,148.6 624.2,148.6 625.0,148.5 625.4,148.5 626.5,148.3 628.5,148.3 633.8,148.2 645.0,147.8 645.4,147.7 650.3,147.6 650.7,147.5 651.9,147.4 653.4,147.3 655.3,146.8 655.7,145.6 656.1,145.5 658.4,145.4 659.6,145.4 659.9,145.4 660.7,145.2 663.8,145.1 666.5,144.8 668.4,144.5 668.8,144.4 669.9,144.1 670.3,143.6 670.7,143.5 671.1,143.3 671.5,143.1 671.8,142.9 672.6,142.6 673.8,142.3 687.6,142.2 688.3,141.6 696.8,141.5 701.8,141.3 704.1,141.2 704.5,141.2 706.8,141.2 707.2,141.1 707.5,141.1 707.9,140.9 708.3,140.8 708.7,140.3 709.1,140.2 711.4,139.6 711.8,139.5 712.5,139.4 715.2,139.2 716.0,139.2 716.4,139.0 717.1,139.0 717.5,138.7 717.9,138.6 718.7,138.5 719.1,138.4 719.4,138.4 719.8,138.3 721.4,138.1 721.7,138.0 722.1,137.9 722.5,137.8 722.9,137.7 723.3,137.6 724.4,137.4 724.8,137.3 725.2,137.2 725.6,137.1 726.0,136.8 726.7,136.7 727.1,136.3 727.5,136.0 727.9,135.2 728.3,135.0 728.6,134.8 729.0,134.3 729.4,134.3 729.8,134.1 730.2,134.1 730.6,133.8 732.5,133.3 732.9,133.2 733.3,132.8 733.6,132.1 734.0,132.0 734.8,131.9 735.2,131.3 735.6,130.9 735.9,130.9 736.3,130.2 737.1,130.0 737.5,129.9 737.9,129.8 738.2,129.8 738.6,129.8 739.0,129.7 740.5,129.6 741.3,129.5 741.7,129.2 742.1,129.0 743.2,129.0 745.2,128.9 747.5,128.7 747.8,128.6 748.2,128.6 748.6,128.3 749.0,127.7 749.4,127.7 749.8,127.6 750.1,127.5 750.5,127.4 750.9,127.1 755.1,127.0 755.5,126.9 759.0,126.6 759.7,126.3 760.1,126.2 760.5,126.1 760.9,126.0 762.0,125.9 762.4,125.2 762.8,123.7 763.2,122.3 763.6,122.3 764.0,122.1 764.7,121.9 765.1,121.7 765.5,121.4 766.3,121.3 766.6,120.9 767.0,120.9 767.8,120.3 768.2,120.2 768.6,119.9 768.9,119.7 769.3,119.4 769.7,119.4 770.9,119.0 771.3,118.7 771.6,117.7 772.0,116.3 772.4,115.7 772.8,115.1 773.2,115.0 773.6,114.8 773.9,114.6 774.3,114.2 774.7,113.8 775.1,113.7 775.5,113.4 775.9,113.3 776.2,113.0 776.6,112.6 777.0,112.3 777.4,111.9 777.8,111.8 778.2,111.6 778.5,110.9 778.9,109.6 779.3,109.4 780.1,109.1 780.5,109.0 780.8,108.9 781.2,106.8 781.6,105.8 782.0,104.9 782.4,104.5 782.8,102.9 783.2,102.8 783.5,102.7 783.9,102.3 784.3,101.6 784.7,100.2 785.1,98.8 785.5,98.7 785.8,98.4 786.6,98.3 787.0,97.5 787.4,96.8 787.8,95.9 788.1,95.7 788.5,95.7 788.9,94.3 789.3,92.6 789.7,91.9 790.1,91.5 790.4,91.1 790.8,90.7 791.2,90.7 792.0,90.5 792.4,90.2 792.7,90.1 793.1,90.1 793.5,90.0 794.7,90.0 795.1,89.9 795.8,89.8 796.6,89.8 797.0,89.7 797.7,89.1 798.1,88.8 798.5,88.4 800.8,88.3 801.2,88.0 801.6,87.9 802.0,87.5 802.3,87.5 802.7,87.4 803.1,87.3 803.5,86.7 803.9,86.0 804.3,85.8 804.6,84.5 805.0,84.3 805.8,84.3 806.2,84.2 807.3,83.8 807.7,83.3 808.1,83.0 808.5,82.7 808.9,81.7 809.3,78.0 809.6,76.4 810.0,76.1 810.4,75.8 810.8,75.2 811.2,75.1 811.6,69.9 811.9,63.5 812.3,61.6 812.7,61.5 813.1,60.6 813.5,59.8 813.9,56.0 814.2,53.6 814.6,50.1 815.0,49.3 815.4,49.2 815.8,49.1 816.2,47.9 816.5,46.1 816.9,42.1 817.3,41.5 817.7,40.7 818.1,39.5 818.5,38.9 818.8,38.5 819.2,37.2 819.6,36.7 820.0,36.6"/>

  <g class="hoverpoint">
    <line x1="181.7" y1="30" x2="181.7" y2="160.0" class="guide"/>
    <circle cx="181.7" cy="159.7" r="16" class="hit"/>
    <circle cx="181.7" cy="159.7" r="4" class="hover-dot"><title>Nov 2021: 7 total (+7 this month)</title></circle>
    <rect x="111.7" y="133.7" width="140" height="20" rx="4" class="tooltip-bg"/>
    <text x="181.7" y="147.7" class="tooltip-text" text-anchor="middle">Nov 2021: 7 total (+7 this month)</text>
  </g>
  <g class="hoverpoint">
    <line x1="210.1" y1="30" x2="210.1" y2="160.0" class="guide"/>
    <circle cx="210.1" cy="158.2" r="16" class="hit"/>
    <circle cx="210.1" cy="158.2" r="4" class="hover-dot"><title>Jan 2022: 41 total (+34 this month)</title></circle>
    <rect x="140.1" y="132.2" width="140" height="20" rx="4" class="tooltip-bg"/>
    <text x="210.1" y="146.2" class="tooltip-text" text-anchor="middle">Jan 2022: 41 total (+34 this month)</text>
  </g>
  <g class="hoverpoint">
    <line x1="220.1" y1="30" x2="220.1" y2="160.0" class="guide"/>
    <circle cx="220.1" cy="158.1" r="16" class="hit"/>
    <circle cx="220.1" cy="158.1" r="4" class="hover-dot"><title>Feb 2022: 44 total (+3 this month)</title></circle>
    <rect x="150.1" y="132.1" width="140" height="20" rx="4" class="tooltip-bg"/>
    <text x="220.1" y="146.1" class="tooltip-text" text-anchor="middle">Feb 2022: 44 total (+3 this month)</text>
  </g>
  <g class="hoverpoint">
    <line x1="281.1" y1="30" x2="281.1" y2="160.0" class="guide"/>
    <circle cx="281.1" cy="157.2" r="16" class="hit"/>
    <circle cx="281.1" cy="157.2" r="4" class="hover-dot"><title>Jul 2022: 65 total (+21 this month)</title></circle>
    <rect x="211.1" y="131.2" width="140" height="20" rx="4" class="tooltip-bg"/>
    <text x="281.1" y="145.2" class="tooltip-text" text-anchor="middle">Jul 2022: 65 total (+21 this month)</text>
  </g>
  <g class="hoverpoint">
    <line x1="288.8" y1="30" x2="288.8" y2="160.0" class="guide"/>
    <circle cx="288.8" cy="155.6" r="16" class="hit"/>
    <circle cx="288.8" cy="155.6" r="4" class="hover-dot"><title>Aug 2022: 101 total (+36 this month)</title></circle>
    <rect x="218.8" y="129.6" width="140" height="20" rx="4" class="tooltip-bg"/>
    <text x="288.8" y="143.6" class="tooltip-text" text-anchor="middle">Aug 2022: 101 total (+36 this month)</text>
  </g>
  <g class="hoverpoint">
    <line x1="304.5" y1="30" x2="304.5" y2="160.0" class="guide"/>
    <circle cx="304.5" cy="155.3" r="16" class="hit"/>
    <circle cx="304.5" cy="155.3" r="4" class="hover-dot"><title>Sep 2022: 108 total (+7 this month)</title></circle>
    <rect x="234.5" y="129.3" width="140" height="20" rx="4" class="tooltip-bg"/>
    <text x="304.5" y="143.3" class="tooltip-text" text-anchor="middle">Sep 2022: 108 total (+7 this month)</text>
  </g>
  <g class="hoverpoint">
    <line x1="316.0" y1="30" x2="316.0" y2="160.0" class="guide"/>
    <circle cx="316.0" cy="154.5" r="16" class="hit"/>
    <circle cx="316.0" cy="154.5" r="4" class="hover-dot"><title>Oct 2022: 128 total (+20 this month)</title></circle>
    <rect x="246.0" y="128.5" width="140" height="20" rx="4" class="tooltip-bg"/>
    <text x="316.0" y="142.5" class="tooltip-text" text-anchor="middle">Oct 2022: 128 total (+20 this month)</text>
  </g>
  <g class="hoverpoint">
    <line x1="326.4" y1="30" x2="326.4" y2="160.0" class="guide"/>
    <circle cx="326.4" cy="152.7" r="16" class="hit"/>
    <circle cx="326.4" cy="152.7" r="4" class="hover-dot"><title>Nov 2022: 168 total (+40 this month)</title></circle>
    <rect x="256.4" y="126.7" width="140" height="20" rx="4" class="tooltip-bg"/>
    <text x="326.4" y="140.7" class="tooltip-text" text-anchor="middle">Nov 2022: 168 total (+40 this month)</text>
  </g>
  <g class="hoverpoint">
    <line x1="338.3" y1="30" x2="338.3" y2="160.0" class="guide"/>
    <circle cx="338.3" cy="152.4" r="16" class="hit"/>
    <circle cx="338.3" cy="152.4" r="4" class="hover-dot"><title>Dec 2022: 175 total (+7 this month)</title></circle>
    <rect x="268.3" y="126.4" width="140" height="20" rx="4" class="tooltip-bg"/>
    <text x="338.3" y="140.4" class="tooltip-text" text-anchor="middle">Dec 2022: 175 total (+7 this month)</text>
  </g>
  <g class="hoverpoint">
    <line x1="346.0" y1="30" x2="346.0" y2="160.0" class="guide"/>
    <circle cx="346.0" cy="150.7" r="16" class="hit"/>
    <circle cx="346.0" cy="150.7" r="4" class="hover-dot"><title>Jan 2023: 214 total (+39 this month)</title></circle>
    <rect x="276.0" y="124.7" width="140" height="20" rx="4" class="tooltip-bg"/>
    <text x="346.0" y="138.7" class="tooltip-text" text-anchor="middle">Jan 2023: 214 total (+39 this month)</text>
  </g>
  <g class="hoverpoint">
    <line x1="360.5" y1="30" x2="360.5" y2="160.0" class="guide"/>
    <circle cx="360.5" cy="150.2" r="16" class="hit"/>
    <circle cx="360.5" cy="150.2" r="4" class="hover-dot"><title>Feb 2023: 225 total (+11 this month)</title></circle>
    <rect x="290.5" y="124.2" width="140" height="20" rx="4" class="tooltip-bg"/>
    <text x="360.5" y="138.2" class="tooltip-text" text-anchor="middle">Feb 2023: 225 total (+11 this month)</text>
  </g>
  <g class="hoverpoint">
    <line x1="366.3" y1="30" x2="366.3" y2="160.0" class="guide"/>
    <circle cx="366.3" cy="149.7" r="16" class="hit"/>
    <circle cx="366.3" cy="149.7" r="4" class="hover-dot"><title>Mar 2023: 237 total (+12 this month)</title></circle>
    <rect x="296.3" y="123.7" width="140" height="20" rx="4" class="tooltip-bg"/>
    <text x="366.3" y="137.7" class="tooltip-text" text-anchor="middle">Mar 2023: 237 total (+12 this month)</text>
  </g>
  <g class="hoverpoint">
    <line x1="375.5" y1="30" x2="375.5" y2="160.0" class="guide"/>
    <circle cx="375.5" cy="149.6" r="16" class="hit"/>
    <circle cx="375.5" cy="149.6" r="4" class="hover-dot"><title>Apr 2023: 240 total (+3 this month)</title></circle>
    <rect x="305.5" y="123.6" width="140" height="20" rx="4" class="tooltip-bg"/>
    <text x="375.5" y="137.6" class="tooltip-text" text-anchor="middle">Apr 2023: 240 total (+3 this month)</text>
  </g>
  <g class="hoverpoint">
    <line x1="572.0" y1="30" x2="572.0" y2="160.0" class="guide"/>
    <circle cx="572.0" cy="149.1" r="16" class="hit"/>
    <circle cx="572.0" cy="149.1" r="4" class="hover-dot"><title>Aug 2024: 252 total (+12 this month)</title></circle>
    <rect x="502.0" y="123.1" width="140" height="20" rx="4" class="tooltip-bg"/>
    <text x="572.0" y="137.1" class="tooltip-text" text-anchor="middle">Aug 2024: 252 total (+12 this month)</text>
  </g>
  <g class="hoverpoint">
    <line x1="582.8" y1="30" x2="582.8" y2="160.0" class="guide"/>
    <circle cx="582.8" cy="149.0" r="16" class="hit"/>
    <circle cx="582.8" cy="149.0" r="4" class="hover-dot"><title>Sep 2024: 253 total (+1 this month)</title></circle>
    <rect x="512.8" y="123.0" width="140" height="20" rx="4" class="tooltip-bg"/>
    <text x="582.8" y="137.0" class="tooltip-text" text-anchor="middle">Sep 2024: 253 total (+1 this month)</text>
  </g>
  <g class="hoverpoint">
    <line x1="595.5" y1="30" x2="595.5" y2="160.0" class="guide"/>
    <circle cx="595.5" cy="148.7" r="16" class="hit"/>
    <circle cx="595.5" cy="148.7" r="4" class="hover-dot"><title>Oct 2024: 261 total (+8 this month)</title></circle>
    <rect x="525.5" y="122.7" width="140" height="20" rx="4" class="tooltip-bg"/>
    <text x="595.5" y="136.7" class="tooltip-text" text-anchor="middle">Oct 2024: 261 total (+8 this month)</text>
  </g>
  <g class="hoverpoint">
    <line x1="628.5" y1="30" x2="628.5" y2="160.0" class="guide"/>
    <circle cx="628.5" cy="148.3" r="16" class="hit"/>
    <circle cx="628.5" cy="148.3" r="4" class="hover-dot"><title>Jan 2025: 270 total (+9 this month)</title></circle>
    <rect x="558.5" y="122.3" width="140" height="20" rx="4" class="tooltip-bg"/>
    <text x="628.5" y="136.3" class="tooltip-text" text-anchor="middle">Jan 2025: 270 total (+9 this month)</text>
  </g>
  <g class="hoverpoint">
    <line x1="633.8" y1="30" x2="633.8" y2="160.0" class="guide"/>
    <circle cx="633.8" cy="148.2" r="16" class="hit"/>
    <circle cx="633.8" cy="148.2" r="4" class="hover-dot"><title>Feb 2025: 272 total (+2 this month)</title></circle>
    <rect x="563.8" y="122.2" width="140" height="20" rx="4" class="tooltip-bg"/>
    <text x="633.8" y="136.2" class="tooltip-text" text-anchor="middle">Feb 2025: 272 total (+2 this month)</text>
  </g>
  <g class="hoverpoint">
    <line x1="653.4" y1="30" x2="653.4" y2="160.0" class="guide"/>
    <circle cx="653.4" cy="147.3" r="16" class="hit"/>
    <circle cx="653.4" cy="147.3" r="4" class="hover-dot"><title>Mar 2025: 294 total (+22 this month)</title></circle>
    <rect x="583.4" y="121.3" width="140" height="20" rx="4" class="tooltip-bg"/>
    <text x="653.4" y="135.3" class="tooltip-text" text-anchor="middle">Mar 2025: 294 total (+22 this month)</text>
  </g>
  <g class="hoverpoint">
    <line x1="666.5" y1="30" x2="666.5" y2="160.0" class="guide"/>
    <circle cx="666.5" cy="144.8" r="16" class="hit"/>
    <circle cx="666.5" cy="144.8" r="4" class="hover-dot"><title>Apr 2025: 351 total (+57 this month)</title></circle>
    <rect x="596.5" y="118.8" width="140" height="20" rx="4" class="tooltip-bg"/>
    <text x="666.5" y="132.8" class="tooltip-text" text-anchor="middle">Apr 2025: 351 total (+57 this month)</text>
  </g>
  <g class="hoverpoint">
    <line x1="673.8" y1="30" x2="673.8" y2="160.0" class="guide"/>
    <circle cx="673.8" cy="142.3" r="16" class="hit"/>
    <circle cx="673.8" cy="142.3" r="4" class="hover-dot"><title>May 2025: 408 total (+57 this month)</title></circle>
    <rect x="603.8" y="116.3" width="140" height="20" rx="4" class="tooltip-bg"/>
    <text x="673.8" y="130.3" class="tooltip-text" text-anchor="middle">May 2025: 408 total (+57 this month)</text>
  </g>
  <g class="hoverpoint">
    <line x1="688.3" y1="30" x2="688.3" y2="160.0" class="guide"/>
    <circle cx="688.3" cy="141.6" r="16" class="hit"/>
    <circle cx="688.3" cy="141.6" r="4" class="hover-dot"><title>Jun 2025: 424 total (+16 this month)</title></circle>
    <rect x="618.3" y="115.6" width="140" height="20" rx="4" class="tooltip-bg"/>
    <text x="688.3" y="129.6" class="tooltip-text" text-anchor="middle">Jun 2025: 424 total (+16 this month)</text>
  </g>
  <g class="hoverpoint">
    <line x1="701.8" y1="30" x2="701.8" y2="160.0" class="guide"/>
    <circle cx="701.8" cy="141.3" r="16" class="hit"/>
    <circle cx="701.8" cy="141.3" r="4" class="hover-dot"><title>Jul 2025: 432 total (+8 this month)</title></circle>
    <rect x="631.8" y="115.3" width="140" height="20" rx="4" class="tooltip-bg"/>
    <text x="701.8" y="129.3" class="tooltip-text" text-anchor="middle">Jul 2025: 432 total (+8 this month)</text>
  </g>
  <g class="hoverpoint">
    <line x1="712.5" y1="30" x2="712.5" y2="160.0" class="guide"/>
    <circle cx="712.5" cy="139.4" r="16" class="hit"/>
    <circle cx="712.5" cy="139.4" r="4" class="hover-dot"><title>Aug 2025: 475 total (+43 this month)</title></circle>
    <rect x="642.5" y="113.4" width="140" height="20" rx="4" class="tooltip-bg"/>
    <text x="712.5" y="127.4" class="tooltip-text" text-anchor="middle">Aug 2025: 475 total (+43 this month)</text>
  </g>
  <g class="hoverpoint">
    <line x1="725.2" y1="30" x2="725.2" y2="160.0" class="guide"/>
    <circle cx="725.2" cy="137.2" r="16" class="hit"/>
    <circle cx="725.2" cy="137.2" r="4" class="hover-dot"><title>Sep 2025: 526 total (+51 this month)</title></circle>
    <rect x="655.2" y="111.2" width="140" height="20" rx="4" class="tooltip-bg"/>
    <text x="725.2" y="125.2" class="tooltip-text" text-anchor="middle">Sep 2025: 526 total (+51 this month)</text>
  </g>
  <g class="hoverpoint">
    <line x1="737.1" y1="30" x2="737.1" y2="160.0" class="guide"/>
    <circle cx="737.1" cy="130.0" r="16" class="hit"/>
    <circle cx="737.1" cy="130.0" r="4" class="hover-dot"><title>Oct 2025: 692 total (+166 this month)</title></circle>
    <rect x="667.1" y="104.0" width="140" height="20" rx="4" class="tooltip-bg"/>
    <text x="737.1" y="118.0" class="tooltip-text" text-anchor="middle">Oct 2025: 692 total (+166 this month)</text>
  </g>
  <g class="hoverpoint">
    <line x1="748.6" y1="30" x2="748.6" y2="160.0" class="guide"/>
    <circle cx="748.6" cy="128.3" r="16" class="hit"/>
    <circle cx="748.6" cy="128.3" r="4" class="hover-dot"><title>Nov 2025: 731 total (+39 this month)</title></circle>
    <rect x="678.6" y="102.3" width="140" height="20" rx="4" class="tooltip-bg"/>
    <text x="748.6" y="116.3" class="tooltip-text" text-anchor="middle">Nov 2025: 731 total (+39 this month)</text>
  </g>
  <g class="hoverpoint">
    <line x1="760.5" y1="30" x2="760.5" y2="160.0" class="guide"/>
    <circle cx="760.5" cy="126.1" r="16" class="hit"/>
    <circle cx="760.5" cy="126.1" r="4" class="hover-dot"><title>Dec 2025: 783 total (+52 this month)</title></circle>
    <rect x="690.5" y="100.1" width="140" height="20" rx="4" class="tooltip-bg"/>
    <text x="760.5" y="114.1" class="tooltip-text" text-anchor="middle">Dec 2025: 783 total (+52 this month)</text>
  </g>
  <g class="hoverpoint">
    <line x1="772.4" y1="30" x2="772.4" y2="160.0" class="guide"/>
    <circle cx="772.4" cy="115.7" r="16" class="hit"/>
    <circle cx="772.4" cy="115.7" r="4" class="hover-dot"><title>Jan 2026: 1,022 total (+239 this month)</title></circle>
    <rect x="702.4" y="89.7" width="140" height="20" rx="4" class="tooltip-bg"/>
    <text x="772.4" y="103.7" class="tooltip-text" text-anchor="middle">Jan 2026: 1,022 total (+239 this month)</text>
  </g>
  <g class="hoverpoint">
    <line x1="783.2" y1="30" x2="783.2" y2="160.0" class="guide"/>
    <circle cx="783.2" cy="102.8" r="16" class="hit"/>
    <circle cx="783.2" cy="102.8" r="4" class="hover-dot"><title>Feb 2026: 1,321 total (+299 this month)</title></circle>
    <rect x="713.2" y="76.8" width="140" height="20" rx="4" class="tooltip-bg"/>
    <text x="783.2" y="90.8" class="tooltip-text" text-anchor="middle">Feb 2026: 1,321 total (+299 this month)</text>
  </g>
  <g class="hoverpoint">
    <line x1="795.1" y1="30" x2="795.1" y2="160.0" class="guide"/>
    <circle cx="795.1" cy="89.9" r="16" class="hit"/>
    <circle cx="795.1" cy="89.9" r="4" class="hover-dot"><title>Mar 2026: 1,617 total (+296 this month)</title></circle>
    <rect x="725.1" y="63.9" width="140" height="20" rx="4" class="tooltip-bg"/>
    <text x="795.1" y="77.9" class="tooltip-text" text-anchor="middle">Mar 2026: 1,617 total (+296 this month)</text>
  </g>
  <g class="hoverpoint">
    <line x1="806.2" y1="30" x2="806.2" y2="160.0" class="guide"/>
    <circle cx="806.2" cy="84.2" r="16" class="hit"/>
    <circle cx="806.2" cy="84.2" r="4" class="hover-dot"><title>Apr 2026: 1,749 total (+132 this month)</title></circle>
    <rect x="736.2" y="58.2" width="140" height="20" rx="4" class="tooltip-bg"/>
    <text x="806.2" y="72.2" class="tooltip-text" text-anchor="middle">Apr 2026: 1,749 total (+132 this month)</text>
  </g>
  <g class="hoverpoint">
    <line x1="818.5" y1="30" x2="818.5" y2="160.0" class="guide"/>
    <circle cx="818.5" cy="38.9" r="16" class="hit"/>
    <circle cx="818.5" cy="38.9" r="4" class="hover-dot"><title>May 2026: 2,795 total (+1,046 this month)</title></circle>
    <rect x="748.5" y="12.9" width="140" height="20" rx="4" class="tooltip-bg"/>
    <text x="818.5" y="26.9" class="tooltip-text" text-anchor="middle">May 2026: 2,795 total (+1,046 this month)</text>
  </g>
  <g class="hoverpoint">
    <line x1="820.0" y1="30" x2="820.0" y2="160.0" class="guide"/>
    <circle cx="820.0" cy="36.6" r="16" class="hit"/>
    <circle cx="820.0" cy="36.6" r="4" class="hover-dot"><title>Jun 2026: 2,848 total (+53 this month)</title></circle>
    <rect x="750.0" y="10.6" width="140" height="20" rx="4" class="tooltip-bg"/>
    <text x="820.0" y="24.6" class="tooltip-text" text-anchor="middle">Jun 2026: 2,848 total (+53 this month)</text>
  </g>

  <circle cx="820.0" cy="36.6" r="4" class="dot"/>
  <text x="810.0" y="26.6" class="total">2,848</text>

</svg>