<svg xmlns="http://www.w3.org/2000/svg" width="840" height="196" viewBox="0 0 840 196" fill="none">
  <style>
    .label { font-family: -apple-system, BlinkMacSystemFont, 'Segoe UI', Helvetica, Arial, sans-serif; font-size: 10px; fill: #8b949e; }
    .title { font-family: -apple-system, BlinkMacSystemFont, 'Segoe UI', Helvetica, Arial, sans-serif; font-size: 11px; fill: #8b949e; font-weight: 600; }
    .total { font-family: -apple-system, BlinkMacSystemFont, 'Segoe UI', Helvetica, Arial, sans-serif; font-size: 11px; fill: #7ee787; font-weight: 600; }
    .grid { stroke: #21262d; stroke-width: 1; }
    .line { stroke: #7ee787; stroke-width: 2; stroke-linecap: round; stroke-linejoin: round; fill: none; }
    .dot { fill: #7ee787; }
    .area { fill: url(#areaGrad); }
    /* Hover interaction */
    .hoverpoint .guide { stroke: #7ee787; stroke-width: 1; stroke-dasharray: 2,2; opacity: 0; }
    .hoverpoint .hover-dot { fill: #7ee787; opacity: 0; }
    .hoverpoint .hit { fill: transparent; cursor: pointer; }
    .hoverpoint .tooltip-bg { fill: #161b22; stroke: #30363d; stroke-width: 1; opacity: 0; }
    .hoverpoint .tooltip-text { font-family: -apple-system, BlinkMacSystemFont, 'Segoe UI', Helvetica, Arial, sans-serif; font-size: 9px; fill: #c9d1d9; opacity: 0; }
    .hoverpoint:hover .guide { opacity: 0.5; }
    .hoverpoint:hover .hover-dot { opacity: 1; }
    .hoverpoint:hover .tooltip-bg { opacity: 0.95; }
    .hoverpoint:hover .tooltip-text { opacity: 1; }
  </style>
  <defs>
    <linearGradient id="areaGrad" x1="0" y1="0" x2="0" y2="1">
      <stop offset="0%" stop-color="#7ee787" stop-opacity="0.15"/>
      <stop offset="100%" stop-color="#7ee787" stop-opacity="0.01"/>
    </linearGradient>
  </defs>

  <text x="60" y="18" class="title">Cumulative Commits</text>

  <line x1="60" y1="160.0" x2="820" y2="160.0" class="grid"/>
  <text x="50" y="163.0" class="label" text-anchor="end">0</text>
  <line x1="60" y1="127.5" x2="820" y2="127.5" class="grid" stroke-dasharray="3,3"/>
  <text x="50" y="130.5" class="label" text-anchor="end">1,000</text>
  <line x1="60" y1="95.0" x2="820" y2="95.0" class="grid" stroke-dasharray="3,3"/>
  <text x="50" y="98.0" class="label" text-anchor="end">2,000</text>
  <line x1="60" y1="62.5" x2="820" y2="62.5" class="grid" stroke-dasharray="3,3"/>
  <text x="50" y="65.5" class="label" text-anchor="end">3,000</text>
  <line x1="60" y1="30.0" x2="820" y2="30.0" class="grid" stroke-dasharray="3,3"/>
  <text x="50" y="33.0" class="label" text-anchor="end">4,000</text>

  <text x="70.0" y="186" class="label" text-anchor="middle">2021</text>
  <text x="198.4" y="186" class="label" text-anchor="middle">2022</text>
  <text x="336.8" y="186" class="label" text-anchor="middle">2023</text>
  <text x="475.3" y="186" class="label" text-anchor="middle">2024</text>
  <text x="614.1" y="186" class="label" text-anchor="middle">2025</text>
  <text x="752.5" y="186" class="label" text-anchor="middle">2026</text>


  <path class="area" d="M60.0,160.0 L60.0,160.0 60.0,160.0 L178.7,159.8 L179.1,159.8 L180.2,159.8 L198.4,159.7 L198.8,159.5 L199.2,159.4 L199.6,159.3 L199.9,159.3 L200.3,159.2 L201.1,159.1 L201.5,159.0 L201.8,158.9 L202.2,158.9 L203.7,158.8 L204.1,158.7 L204.5,158.7 L208.3,158.7 L218.1,158.6 L270.1,158.5 L270.5,158.2 L272.0,158.2 L272.8,158.0 L278.4,157.9 L279.2,157.8 L279.6,157.7 L280.0,157.7 L280.7,157.6 L281.1,157.3 L281.5,157.0 L281.9,156.9 L283.4,156.8 L284.1,156.8 L286.0,156.7 L291.3,156.6 L301.6,156.5 L307.3,156.5 L309.9,156.4 L310.3,156.4 L310.7,156.3 L311.1,156.1 L312.2,155.9 L312.6,155.9 L313.0,155.8 L314.5,155.7 L314.9,155.5 L315.2,155.5 L315.6,155.2 L316.0,154.9 L316.4,154.8 L316.7,154.8 L317.5,154.7 L319.0,154.6 L323.2,154.5 L334.2,154.5 L334.6,154.3 L335.0,154.3 L338.7,154.0 L339.1,153.3 L340.3,153.2 L340.6,153.1 L342.5,153.0 L355.4,152.9 L355.8,152.8 L356.2,152.8 L356.9,152.7 L359.6,152.6 L360.4,152.4 L360.7,152.4 L362.6,152.3 L371.7,152.2 L558.3,152.1 L559.1,152.1 L559.8,152.1 L560.6,152.0 L561.0,151.9 L561.4,151.9 L561.7,151.9 L562.1,151.8 L565.9,151.8 L576.5,151.8 L579.6,151.7 L580.7,151.7 L583.0,151.7 L585.2,151.6 L585.6,151.6 L587.1,151.6 L588.3,151.6 L589.0,151.5 L617.1,151.5 L617.5,151.4 L618.2,151.4 L618.6,151.4 L619.8,151.3 L621.7,151.2 L627.0,151.2 L638.0,150.9 L638.3,150.7 L643.3,150.7 L643.7,150.6 L644.8,150.5 L646.3,150.4 L648.2,150.1 L648.6,149.2 L649.0,149.1 L651.2,149.1 L652.4,149.0 L652.8,149.0 L653.5,148.9 L656.5,148.9 L659.2,148.6 L661.1,148.4 L661.5,148.3 L662.6,148.1 L663.0,147.7 L663.4,147.6 L663.8,147.5 L664.1,147.4 L664.5,147.2 L665.3,146.9 L666.4,146.7 L680.1,146.6 L680.8,146.2 L689.2,146.1 L694.1,146.0 L696.4,145.9 L696.7,145.9 L699.0,145.9 L699.4,145.8 L699.8,145.8 L700.2,145.7 L700.5,145.6 L700.9,145.2 L701.3,145.2 L703.6,144.7 L704.0,144.6 L704.7,144.6 L707.4,144.4 L708.1,144.4 L708.5,144.3 L709.3,144.2 L709.6,144.0 L710.0,143.9 L710.8,143.9 L711.2,143.8 L711.5,143.8 L711.9,143.8 L713.4,143.6 L713.8,143.5 L714.2,143.4 L714.6,143.4 L715.0,143.3 L715.3,143.2 L716.5,143.1 L716.8,143.0 L717.2,142.9 L717.6,142.8 L718.0,142.6 L718.7,142.5 L719.1,142.2 L719.5,142.0 L719.9,141.4 L720.3,141.2 L720.6,141.1 L721.0,140.8 L721.4,140.7 L721.8,140.6 L722.2,140.6 L722.5,140.3 L724.4,140.0 L724.8,139.9 L725.2,139.6 L725.6,139.0 L725.9,139.0 L726.7,138.9 L727.1,138.5 L727.5,138.2 L727.8,138.2 L728.2,137.6 L729.0,137.5 L729.4,137.4 L729.7,137.4 L730.1,137.3 L730.5,137.3 L730.9,137.3 L732.4,137.2 L733.2,137.2 L733.5,136.9 L733.9,136.8 L735.0,136.7 L736.9,136.7 L739.2,136.5 L739.6,136.5 L740.0,136.4 L740.4,136.2 L740.7,135.8 L741.1,135.8 L741.5,135.7 L741.9,135.7 L742.3,135.6 L742.6,135.3 L746.8,135.2 L747.2,135.2 L750.6,135.0 L751.4,134.7 L751.7,134.7 L752.1,134.6 L752.5,134.5 L753.6,134.4 L754.0,133.9 L754.4,132.8 L754.8,131.7 L755.1,131.7 L755.5,131.6 L756.3,131.4 L756.7,131.3 L757.0,131.0 L757.8,131.0 L758.2,130.7 L758.6,130.7 L759.3,130.2 L759.7,130.2 L760.1,129.9 L760.5,129.7 L760.8,129.5 L761.2,129.5 L762.4,129.2 L762.7,129.1 L763.1,128.3 L763.5,127.2 L763.9,126.8 L764.3,126.3 L764.6,126.2 L765.0,126.1 L765.4,125.9 L765.8,125.7 L766.1,125.3 L766.5,125.3 L766.9,125.0 L767.3,125.0 L767.7,124.7 L768.0,124.5 L768.4,124.2 L768.8,123.9 L769.2,123.8 L769.6,123.7 L769.9,123.2 L770.3,122.2 L770.7,122.0 L771.5,121.8 L771.8,121.7 L772.2,121.7 L772.6,120.1 L773.0,119.4 L773.4,118.7 L773.7,118.4 L774.1,117.2 L774.5,117.1 L774.9,117.0 L775.2,116.7 L775.6,116.2 L776.0,115.2 L776.4,114.1 L776.8,114.0 L777.1,113.8 L777.9,113.8 L778.3,113.1 L778.7,112.6 L779.0,111.9 L779.4,111.8 L779.8,111.8 L780.2,110.7 L780.6,109.5 L780.9,108.9 L781.3,108.7 L781.7,108.3 L782.1,108.0 L782.5,108.0 L783.2,107.8 L783.6,107.6 L784.0,107.6 L784.4,107.5 L784.7,107.5 L785.9,107.5 L786.2,107.4 L787.0,107.4 L787.8,107.3 L788.1,107.3 L788.9,106.9 L789.3,106.6 L789.7,106.3 L791.9,106.2 L792.3,106.0 L792.7,105.9 L793.1,105.7 L793.5,105.6 L793.8,105.5 L794.2,105.5 L794.6,105.0 L795.0,104.5 L795.3,104.3 L795.7,103.4 L796.1,103.2 L796.9,103.2 L797.2,103.2 L798.4,102.9 L798.8,102.5 L799.1,102.2 L799.5,102.0 L799.9,101.3 L800.3,98.5 L800.7,97.3 L801.0,97.1 L801.4,96.9 L801.8,96.4 L802.2,96.3 L802.6,92.4 L802.9,87.6 L803.3,86.2 L803.7,86.2 L804.1,85.4 L804.5,84.9 L804.8,82.0 L805.2,80.2 L805.6,77.5 L806.0,77.0 L806.3,76.9 L806.7,76.8 L807.1,75.9 L807.5,74.6 L807.9,71.6 L808.2,71.1 L808.6,70.5 L809.0,69.7 L809.4,69.2 L809.8,68.7 L810.1,66.9 L810.5,66.5 L810.9,66.4 L811.3,66.1 L811.7,66.0 L812.0,65.7 L812.4,65.6 L812.8,64.7 L813.2,63.4 L813.6,62.3 L813.9,62.2 L814.3,61.2 L814.7,60.5 L815.1,60.4 L815.4,60.2 L815.8,60.1 L816.2,59.8 L816.6,59.0 L817.0,58.1 L817.3,57.8 L817.7,52.8 L818.1,52.7 L818.5,52.6 L819.2,52.2 L820.0,52.2 L820.0,160.0 Z"/>
  <polyline class="line" points="60.0,160.0 178.7,159.8 179.1,159.8 180.2,159.8 198.4,159.7 198.8,159.5 199.2,159.4 199.6,159.3 199.9,159.3 200.3,159.2 201.1,159.1 201.5,159.0 201.8,158.9 202.2,158.9 203.7,158.8 204.1,158.7 204.5,158.7 208.3,158.7 218.1,158.6 270.1,158.5 270.5,158.2 272.0,158.2 272.8,158.0 278.4,157.9 279.2,157.8 279.6,157.7 280.0,157.7 280.7,157.6 281.1,157.3 281.5,157.0 281.9,156.9 283.4,156.8 284.1,156.8 286.0,156.7 291.3,156.6 301.6,156.5 307.3,156.5 309.9,156.4 310.3,156.4 310.7,156.3 311.1,156.1 312.2,155.9 312.6,155.9 313.0,155.8 314.5,155.7 314.9,155.5 315.2,155.5 315.6,155.2 316.0,154.9 316.4,154.8 316.7,154.8 317.5,154.7 319.0,154.6 323.2,154.5 334.2,154.5 334.6,154.3 335.0,154.3 338.7,154.0 339.1,153.3 340.3,153.2 340.6,153.1 342.5,153.0 355.4,152.9 355.8,152.8 356.2,152.8 356.9,152.7 359.6,152.6 360.4,152.4 360.7,152.4 362.6,152.3 371.7,152.2 558.3,152.1 559.1,152.1 559.8,152.1 560.6,152.0 561.0,151.9 561.4,151.9 561.7,151.9 562.1,151.8 565.9,151.8 576.5,151.8 579.6,151.7 580.7,151.7 583.0,151.7 585.2,151.6 585.6,151.6 587.1,151.6 588.3,151.6 589.0,151.5 617.1,151.5 617.5,151.4 618.2,151.4 618.6,151.4 619.8,151.3 621.7,151.2 627.0,151.2 638.0,150.9 638.3,150.7 643.3,150.7 643.7,150.6 644.8,150.5 646.3,150.4 648.2,150.1 648.6,149.2 649.0,149.1 651.2,149.1 652.4,149.0 652.8,149.0 653.5,148.9 656.5,148.9 659.2,148.6 661.1,148.4 661.5,148.3 662.6,148.1 663.0,147.7 663.4,147.6 663.8,147.5 664.1,147.4 664.5,147.2 665.3,146.9 666.4,146.7 680.1,146.6 680.8,146.2 689.2,146.1 694.1,146.0 696.4,145.9 696.7,145.9 699.0,145.9 699.4,145.8 699.8,145.8 700.2,145.7 700.5,145.6 700.9,145.2 701.3,145.2 703.6,144.7 704.0,144.6 704.7,144.6 707.4,144.4 708.1,144.4 708.5,144.3 709.3,144.2 709.6,144.0 710.0,143.9 710.8,143.9 711.2,143.8 711.5,143.8 711.9,143.8 713.4,143.6 713.8,143.5 714.2,143.4 714.6,143.4 715.0,143.3 715.3,143.2 716.5,143.1 716.8,143.0 717.2,142.9 717.6,142.8 718.0,142.6 718.7,142.5 719.1,142.2 719.5,142.0 719.9,141.4 720.3,141.2 720.6,141.1 721.0,140.8 721.4,140.7 721.8,140.6 722.2,140.6 722.5,140.3 724.4,140.0 724.8,139.9 725.2,139.6 725.6,139.0 725.9,139.0 726.7,138.9 727.1,138.5 727.5,138.2 727.8,138.2 728.2,137.6 729.0,137.5 729.4,137.4 729.7,137.4 730.1,137.3 730.5,137.3 730.9,137.3 732.4,137.2 733.2,137.2 733.5,136.9 733.9,136.8 735.0,136.7 736.9,136.7 739.2,136.5 739.6,136.5 740.0,136.4 740.4,136.2 740.7,135.8 741.1,135.8 741.5,135.7 741.9,135.7 742.3,135.6 742.6,135.3 746.8,135.2 747.2,135.2 750.6,135.0 751.4,134.7 751.7,134.7 752.1,134.6 752.5,134.5 753.6,134.4 754.0,133.9 754.4,132.8 754.8,131.7 755.1,131.7 755.5,131.6 756.3,131.4 756.7,131.3 757.0,131.0 757.8,131.0 758.2,130.7 758.6,130.7 759.3,130.2 759.7,130.2 760.1,129.9 760.5,129.7 760.8,129.5 761.2,129.5 762.4,129.2 762.7,129.1 763.1,128.3 763.5,127.2 763.9,126.8 764.3,126.3 764.6,126.2 765.0,126.1 765.4,125.9 765.8,125.7 766.1,125.3 766.5,125.3 766.9,125.0 767.3,125.0 767.7,124.7 768.0,124.5 768.4,124.2 768.8,123.9 769.2,123.8 769.6,123.7 769.9,123.2 770.3,122.2 770.7,122.0 771.5,121.8 771.8,121.7 772.2,121.7 772.6,120.1 773.0,119.4 773.4,118.7 773.7,118.4 774.1,117.2 774.5,117.1 774.9,117.0 775.2,116.7 775.6,116.2 776.0,115.2 776.4,114.1 776.8,114.0 777.1,113.8 777.9,113.8 778.3,113.1 778.7,112.6 779.0,111.9 779.4,111.8 779.8,111.8 780.2,110.7 780.6,109.5 780.9,108.9 781.3,108.7 781.7,108.3 782.1,108.0 782.5,108.0 783.2,107.8 783.6,107.6 784.0,107.6 784.4,107.5 784.7,107.5 785.9,107.5 786.2,107.4 787.0,107.4 787.8,107.3 788.1,107.3 788.9,106.9 789.3,106.6 789.7,106.3 791.9,106.2 792.3,106.0 792.7,105.9 793.1,105.7 793.5,105.6 793.8,105.5 794.2,105.5 794.6,105.0 795.0,104.5 795.3,104.3 795.7,103.4 796.1,103.2 796.9,103.2 797.2,103.2 798.4,102.9 798.8,102.5 799.1,102.2 799.5,102.0 799.9,101.3 800.3,98.5 800.7,97.3 801.0,97.1 801.4,96.9 801.8,96.4 802.2,96.3 802.6,92.4 802.9,87.6 803.3,86.2 803.7,86.2 804.1,85.4 804.5,84.9 804.8,82.0 805.2,80.2 805.6,77.5 806.0,77.0 806.3,76.9 806.7,76.8 807.1,75.9 807.5,74.6 807.9,71.6 808.2,71.1 808.6,70.5 809.0,69.7 809.4,69.2 809.8,68.7 810.1,66.9 810.5,66.5 810.9,66.4 811.3,66.1 811.7,66.0 812.0,65.7 812.4,65.6 812.8,64.7 813.2,63.4 813.6,62.3 813.9,62.2 814.3,61.2 814.7,60.5 815.1,60.4 815.4,60.2 815.8,60.1 816.2,59.8 816.6,59.0 817.0,58.1 817.3,57.8 817.7,52.8 818.1,52.7 818.5,52.6 819.2,52.2 820.0,52.2"/>

  <g class="hoverpoint">
    <line x1="180.2" y1="30" x2="180.2" y2="160.0" class="guide"/>
    <circle cx="180.2" cy="159.8" r="16" class="hit"/>
    <circle cx="180.2" cy="159.8" r="4" class="hover-dot"><title>Nov 2021: 7 total (+7 this month)</title></circle>
    <rect x="110.2" y="133.8" width="140" height="20" rx="4" class="tooltip-bg"/>
    <text x="180.2" y="147.8" class="tooltip-text" text-anchor="middle">Nov 2021: 7 total (+7 this month)</text>
  </g>
  <g class="hoverpoint">
    <line x1="208.3" y1="30" x2="208.3" y2="160.0" class="guide"/>
    <circle cx="208.3" cy="158.7" r="16" class="hit"/>
    <circle cx="208.3" cy="158.7" r="4" class="hover-dot"><title>Jan 2022: 41 total (+34 this month)</title></circle>
    <rect x="138.3" y="132.7" width="140" height="20" rx="4" class="tooltip-bg"/>
    <text x="208.3" y="146.7" class="tooltip-text" text-anchor="middle">Jan 2022: 41 total (+34 this month)</text>
  </g>
  <g class="hoverpoint">
    <line x1="218.1" y1="30" x2="218.1" y2="160.0" class="guide"/>
    <circle cx="218.1" cy="158.6" r="16" class="hit"/>
    <circle cx="218.1" cy="158.6" r="4" class="hover-dot"><title>Feb 2022: 44 total (+3 this month)</title></circle>
    <rect x="148.1" y="132.6" width="140" height="20" rx="4" class="tooltip-bg"/>
    <text x="218.1" y="146.6" class="tooltip-text" text-anchor="middle">Feb 2022: 44 total (+3 this month)</text>
  </g>
  <g class="hoverpoint">
    <line x1="278.4" y1="30" x2="278.4" y2="160.0" class="guide"/>
    <circle cx="278.4" cy="157.9" r="16" class="hit"/>
    <circle cx="278.4" cy="157.9" r="4" class="hover-dot"><title>Jul 2022: 65 total (+21 this month)</title></circle>
    <rect x="208.4" y="131.9" width="140" height="20" rx="4" class="tooltip-bg"/>
    <text x="278.4" y="145.9" class="tooltip-text" text-anchor="middle">Jul 2022: 65 total (+21 this month)</text>
  </g>
  <g class="hoverpoint">
    <line x1="286.0" y1="30" x2="286.0" y2="160.0" class="guide"/>
    <circle cx="286.0" cy="156.7" r="16" class="hit"/>
    <circle cx="286.0" cy="156.7" r="4" class="hover-dot"><title>Aug 2022: 101 total (+36 this month)</title></circle>
    <rect x="216.0" y="130.7" width="140" height="20" rx="4" class="tooltip-bg"/>
    <text x="286.0" y="144.7" class="tooltip-text" text-anchor="middle">Aug 2022: 101 total (+36 this month)</text>
  </g>
  <g class="hoverpoint">
    <line x1="301.6" y1="30" x2="301.6" y2="160.0" class="guide"/>
    <circle cx="301.6" cy="156.5" r="16" class="hit"/>
    <circle cx="301.6" cy="156.5" r="4" class="hover-dot"><title>Sep 2022: 108 total (+7 this month)</title></circle>
    <rect x="231.6" y="130.5" width="140" height="20" rx="4" class="tooltip-bg"/>
    <text x="301.6" y="144.5" class="tooltip-text" text-anchor="middle">Sep 2022: 108 total (+7 this month)</text>
  </g>
  <g class="hoverpoint">
    <line x1="313.0" y1="30" x2="313.0" y2="160.0" class="guide"/>
    <circle cx="313.0" cy="155.8" r="16" class="hit"/>
    <circle cx="313.0" cy="155.8" r="4" class="hover-dot"><title>Oct 2022: 128 total (+20 this month)</title></circle>
    <rect x="243.0" y="129.8" width="140" height="20" rx="4" class="tooltip-bg"/>
    <text x="313.0" y="143.8" class="tooltip-text" text-anchor="middle">Oct 2022: 128 total (+20 this month)</text>
  </g>
  <g class="hoverpoint">
    <line x1="323.2" y1="30" x2="323.2" y2="160.0" class="guide"/>
    <circle cx="323.2" cy="154.5" r="16" class="hit"/>
    <circle cx="323.2" cy="154.5" r="4" class="hover-dot"><title>Nov 2022: 168 total (+40 this month)</title></circle>
    <rect x="253.2" y="128.5" width="140" height="20" rx="4" class="tooltip-bg"/>
    <text x="323.2" y="142.5" class="tooltip-text" text-anchor="middle">Nov 2022: 168 total (+40 this month)</text>
  </g>
  <g class="hoverpoint">
    <line x1="335.0" y1="30" x2="335.0" y2="160.0" class="guide"/>
    <circle cx="335.0" cy="154.3" r="16" class="hit"/>
    <circle cx="335.0" cy="154.3" r="4" class="hover-dot"><title>Dec 2022: 175 total (+7 this month)</title></circle>
    <rect x="265.0" y="128.3" width="140" height="20" rx="4" class="tooltip-bg"/>
    <text x="335.0" y="142.3" class="tooltip-text" text-anchor="middle">Dec 2022: 175 total (+7 this month)</text>
  </g>
  <g class="hoverpoint">
    <line x1="342.5" y1="30" x2="342.5" y2="160.0" class="guide"/>
    <circle cx="342.5" cy="153.0" r="16" class="hit"/>
    <circle cx="342.5" cy="153.0" r="4" class="hover-dot"><title>Jan 2023: 214 total (+39 this month)</title></circle>
    <rect x="272.5" y="127.0" width="140" height="20" rx="4" class="tooltip-bg"/>
    <text x="342.5" y="141.0" class="tooltip-text" text-anchor="middle">Jan 2023: 214 total (+39 this month)</text>
  </g>
  <g class="hoverpoint">
    <line x1="356.9" y1="30" x2="356.9" y2="160.0" class="guide"/>
    <circle cx="356.9" cy="152.7" r="16" class="hit"/>
    <circle cx="356.9" cy="152.7" r="4" class="hover-dot"><title>Feb 2023: 225 total (+11 this month)</title></circle>
    <rect x="286.9" y="126.7" width="140" height="20" rx="4" class="tooltip-bg"/>
    <text x="356.9" y="140.7" class="tooltip-text" text-anchor="middle">Feb 2023: 225 total (+11 this month)</text>
  </g>
  <g class="hoverpoint">
    <line x1="362.6" y1="30" x2="362.6" y2="160.0" class="guide"/>
    <circle cx="362.6" cy="152.3" r="16" class="hit"/>
    <circle cx="362.6" cy="152.3" r="4" class="hover-dot"><title>Mar 2023: 237 total (+12 this month)</title></circle>
    <rect x="292.6" y="126.3" width="140" height="20" rx="4" class="tooltip-bg"/>
    <text x="362.6" y="140.3" class="tooltip-text" text-anchor="middle">Mar 2023: 237 total (+12 this month)</text>
  </g>
  <g class="hoverpoint">
    <line x1="371.7" y1="30" x2="371.7" y2="160.0" class="guide"/>
    <circle cx="371.7" cy="152.2" r="16" class="hit"/>
    <circle cx="371.7" cy="152.2" r="4" class="hover-dot"><title>Apr 2023: 240 total (+3 this month)</title></circle>
    <rect x="301.7" y="126.2" width="140" height="20" rx="4" class="tooltip-bg"/>
    <text x="371.7" y="140.2" class="tooltip-text" text-anchor="middle">Apr 2023: 240 total (+3 this month)</text>
  </g>
  <g class="hoverpoint">
    <line x1="565.9" y1="30" x2="565.9" y2="160.0" class="guide"/>
    <circle cx="565.9" cy="151.8" r="16" class="hit"/>
    <circle cx="565.9" cy="151.8" r="4" class="hover-dot"><title>Aug 2024: 252 total (+12 this month)</title></circle>
    <rect x="495.9" y="125.8" width="140" height="20" rx="4" class="tooltip-bg"/>
    <text x="565.9" y="139.8" class="tooltip-text" text-anchor="middle">Aug 2024: 252 total (+12 this month)</text>
  </g>
  <g class="hoverpoint">
    <line x1="576.5" y1="30" x2="576.5" y2="160.0" class="guide"/>
    <circle cx="576.5" cy="151.8" r="16" class="hit"/>
    <circle cx="576.5" cy="151.8" r="4" class="hover-dot"><title>Sep 2024: 253 total (+1 this month)</title></circle>
    <rect x="506.5" y="125.8" width="140" height="20" rx="4" class="tooltip-bg"/>
    <text x="576.5" y="139.8" class="tooltip-text" text-anchor="middle">Sep 2024: 253 total (+1 this month)</text>
  </g>
  <g class="hoverpoint">
    <line x1="589.0" y1="30" x2="589.0" y2="160.0" class="guide"/>
    <circle cx="589.0" cy="151.5" r="16" class="hit"/>
    <circle cx="589.0" cy="151.5" r="4" class="hover-dot"><title>Oct 2024: 261 total (+8 this month)</title></circle>
    <rect x="519.0" y="125.5" width="140" height="20" rx="4" class="tooltip-bg"/>
    <text x="589.0" y="139.5" class="tooltip-text" text-anchor="middle">Oct 2024: 261 total (+8 this month)</text>
  </g>
  <g class="hoverpoint">
    <line x1="621.7" y1="30" x2="621.7" y2="160.0" class="guide"/>
    <circle cx="621.7" cy="151.2" r="16" class="hit"/>
    <circle cx="621.7" cy="151.2" r="4" class="hover-dot"><title>Jan 2025: 270 total (+9 this month)</title></circle>
    <rect x="551.7" y="125.2" width="140" height="20" rx="4" class="tooltip-bg"/>
    <text x="621.7" y="139.2" class="tooltip-text" text-anchor="middle">Jan 2025: 270 total (+9 this month)</text>
  </g>
  <g class="hoverpoint">
    <line x1="627.0" y1="30" x2="627.0" y2="160.0" class="guide"/>
    <circle cx="627.0" cy="151.2" r="16" class="hit"/>
    <circle cx="627.0" cy="151.2" r="4" class="hover-dot"><title>Feb 2025: 272 total (+2 this month)</title></circle>
    <rect x="557.0" y="125.2" width="140" height="20" rx="4" class="tooltip-bg"/>
    <text x="627.0" y="139.2" class="tooltip-text" text-anchor="middle">Feb 2025: 272 total (+2 this month)</text>
  </g>
  <g class="hoverpoint">
    <line x1="646.3" y1="30" x2="646.3" y2="160.0" class="guide"/>
    <circle cx="646.3" cy="150.4" r="16" class="hit"/>
    <circle cx="646.3" cy="150.4" r="4" class="hover-dot"><title>Mar 2025: 294 total (+22 this month)</title></circle>
    <rect x="576.3" y="124.4" width="140" height="20" rx="4" class="tooltip-bg"/>
    <text x="646.3" y="138.4" class="tooltip-text" text-anchor="middle">Mar 2025: 294 total (+22 this month)</text>
  </g>
  <g class="hoverpoint">
    <line x1="659.2" y1="30" x2="659.2" y2="160.0" class="guide"/>
    <circle cx="659.2" cy="148.6" r="16" class="hit"/>
    <circle cx="659.2" cy="148.6" r="4" class="hover-dot"><title>Apr 2025: 351 total (+57 this month)</title></circle>
    <rect x="589.2" y="122.6" width="140" height="20" rx="4" class="tooltip-bg"/>
    <text x="659.2" y="136.6" class="tooltip-text" text-anchor="middle">Apr 2025: 351 total (+57 this month)</text>
  </g>
  <g class="hoverpoint">
    <line x1="666.4" y1="30" x2="666.4" y2="160.0" class="guide"/>
    <circle cx="666.4" cy="146.7" r="16" class="hit"/>
    <circle cx="666.4" cy="146.7" r="4" class="hover-dot"><title>May 2025: 408 total (+57 this month)</title></circle>
    <rect x="596.4" y="120.7" width="140" height="20" rx="4" class="tooltip-bg"/>
    <text x="666.4" y="134.7" class="tooltip-text" text-anchor="middle">May 2025: 408 total (+57 this month)</text>
  </g>
  <g class="hoverpoint">
    <line x1="680.8" y1="30" x2="680.8" y2="160.0" class="guide"/>
    <circle cx="680.8" cy="146.2" r="16" class="hit"/>
    <circle cx="680.8" cy="146.2" r="4" class="hover-dot"><title>Jun 2025: 424 total (+16 this month)</title></circle>
    <rect x="610.8" y="120.2" width="140" height="20" rx="4" class="tooltip-bg"/>
    <text x="680.8" y="134.2" class="tooltip-text" text-anchor="middle">Jun 2025: 424 total (+16 this month)</text>
  </g>
  <g class="hoverpoint">
    <line x1="694.1" y1="30" x2="694.1" y2="160.0" class="guide"/>
    <circle cx="694.1" cy="146.0" r="16" class="hit"/>
    <circle cx="694.1" cy="146.0" r="4" class="hover-dot"><title>Jul 2025: 432 total (+8 this month)</title></circle>
    <rect x="624.1" y="120.0" width="140" height="20" rx="4" class="tooltip-bg"/>
    <text x="694.1" y="134.0" class="tooltip-text" text-anchor="middle">Jul 2025: 432 total (+8 this month)</text>
  </g>
  <g class="hoverpoint">
    <line x1="704.7" y1="30" x2="704.7" y2="160.0" class="guide"/>
    <circle cx="704.7" cy="144.6" r="16" class="hit"/>
    <circle cx="704.7" cy="144.6" r="4" class="hover-dot"><title>Aug 2025: 475 total (+43 this month)</title></circle>
    <rect x="634.7" y="118.6" width="140" height="20" rx="4" class="tooltip-bg"/>
    <text x="704.7" y="132.6" class="tooltip-text" text-anchor="middle">Aug 2025: 475 total (+43 this month)</text>
  </g>
  <g class="hoverpoint">
    <line x1="717.2" y1="30" x2="717.2" y2="160.0" class="guide"/>
    <circle cx="717.2" cy="142.9" r="16" class="hit"/>
    <circle cx="717.2" cy="142.9" r="4" class="hover-dot"><title>Sep 2025: 526 total (+51 this month)</title></circle>
    <rect x="647.2" y="116.9" width="140" height="20" rx="4" class="tooltip-bg"/>
    <text x="717.2" y="130.9" class="tooltip-text" text-anchor="middle">Sep 2025: 526 total (+51 this month)</text>
  </g>
  <g class="hoverpoint">
    <line x1="729.0" y1="30" x2="729.0" y2="160.0" class="guide"/>
    <circle cx="729.0" cy="137.5" r="16" class="hit"/>
    <circle cx="729.0" cy="137.5" r="4" class="hover-dot"><title>Oct 2025: 692 total (+166 this month)</title></circle>
    <rect x="659.0" y="111.5" width="140" height="20" rx="4" class="tooltip-bg"/>
    <text x="729.0" y="125.5" class="tooltip-text" text-anchor="middle">Oct 2025: 692 total (+166 this month)</text>
  </g>
  <g class="hoverpoint">
    <line x1="740.4" y1="30" x2="740.4" y2="160.0" class="guide"/>
    <circle cx="740.4" cy="136.2" r="16" class="hit"/>
    <circle cx="740.4" cy="136.2" r="4" class="hover-dot"><title>Nov 2025: 731 total (+39 this month)</title></circle>
    <rect x="670.4" y="110.2" width="140" height="20" rx="4" class="tooltip-bg"/>
    <text x="740.4" y="124.2" class="tooltip-text" text-anchor="middle">Nov 2025: 731 total (+39 this month)</text>
  </g>
  <g class="hoverpoint">
    <line x1="752.1" y1="30" x2="752.1" y2="160.0" class="guide"/>
    <circle cx="752.1" cy="134.6" r="16" class="hit"/>
    <circle cx="752.1" cy="134.6" r="4" class="hover-dot"><title>Dec 2025: 783 total (+52 this month)</title></circle>
    <rect x="682.1" y="108.6" width="140" height="20" rx="4" class="tooltip-bg"/>
    <text x="752.1" y="122.6" class="tooltip-text" text-anchor="middle">Dec 2025: 783 total (+52 this month)</text>
  </g>
  <g class="hoverpoint">
    <line x1="763.9" y1="30" x2="763.9" y2="160.0" class="guide"/>
    <circle cx="763.9" cy="126.8" r="16" class="hit"/>
    <circle cx="763.9" cy="126.8" r="4" class="hover-dot"><title>Jan 2026: 1,022 total (+239 this month)</title></circle>
    <rect x="693.9" y="100.8" width="140" height="20" rx="4" class="tooltip-bg"/>
    <text x="763.9" y="114.8" class="tooltip-text" text-anchor="middle">Jan 2026: 1,022 total (+239 this month)</text>
  </g>
  <g class="hoverpoint">
    <line x1="774.5" y1="30" x2="774.5" y2="160.0" class="guide"/>
    <circle cx="774.5" cy="117.1" r="16" class="hit"/>
    <circle cx="774.5" cy="117.1" r="4" class="hover-dot"><title>Feb 2026: 1,321 total (+299 this month)</title></circle>
    <rect x="704.5" y="91.1" width="140" height="20" rx="4" class="tooltip-bg"/>
    <text x="774.5" y="105.1" class="tooltip-text" text-anchor="middle">Feb 2026: 1,321 total (+299 this month)</text>
  </g>
  <g class="hoverpoint">
    <line x1="786.2" y1="30" x2="786.2" y2="160.0" class="guide"/>
    <circle cx="786.2" cy="107.4" r="16" class="hit"/>
    <circle cx="786.2" cy="107.4" r="4" class="hover-dot"><title>Mar 2026: 1,617 total (+296 this month)</title></circle>
    <rect x="716.2" y="81.4" width="140" height="20" rx="4" class="tooltip-bg"/>
    <text x="786.2" y="95.4" class="tooltip-text" text-anchor="middle">Mar 2026: 1,617 total (+296 this month)</text>
  </g>
  <g class="hoverpoint">
    <line x1="797.2" y1="30" x2="797.2" y2="160.0" class="guide"/>
    <circle cx="797.2" cy="103.2" r="16" class="hit"/>
    <circle cx="797.2" cy="103.2" r="4" class="hover-dot"><title>Apr 2026: 1,749 total (+132 this month)</title></circle>
    <rect x="727.2" y="77.2" width="140" height="20" rx="4" class="tooltip-bg"/>
    <text x="797.2" y="91.2" class="tooltip-text" text-anchor="middle">Apr 2026: 1,749 total (+132 this month)</text>
  </g>
  <g class="hoverpoint">
    <line x1="809.4" y1="30" x2="809.4" y2="160.0" class="guide"/>
    <circle cx="809.4" cy="69.2" r="16" class="hit"/>
    <circle cx="809.4" cy="69.2" r="4" class="hover-dot"><title>May 2026: 2,795 total (+1,046 this month)</title></circle>
    <rect x="739.4" y="43.2" width="140" height="20" rx="4" class="tooltip-bg"/>
    <text x="809.4" y="57.2" class="tooltip-text" text-anchor="middle">May 2026: 2,795 total (+1,046 this month)</text>
  </g>
  <g class="hoverpoint">
    <line x1="820.0" y1="30" x2="820.0" y2="160.0" class="guide"/>
    <circle cx="820.0" cy="52.2" r="16" class="hit"/>
    <circle cx="820.0" cy="52.2" r="4" class="hover-dot"><title>Jun 2026: 3,318 total (+523 this month)</title></circle>
    <rect x="750.0" y="26.2" width="140" height="20" rx="4" class="tooltip-bg"/>
    <text x="820.0" y="40.2" class="tooltip-text" text-anchor="middle">Jun 2026: 3,318 total (+523 this month)</text>
  </g>

  <circle cx="820.0" cy="52.2" r="4" class="dot"/>
  <text x="810.0" y="42.2" class="total">3,318</text>

</svg>