<svg xmlns="http://www.w3.org/2000/svg" width="840" height="196" viewBox="0 0 840 196" fill="none">
  <style>
    .label { font-family: -apple-system, BlinkMacSystemFont, 'Segoe UI', Helvetica, Arial, sans-serif; font-size: 10px; fill: #8b949e; }
    .title { font-family: -apple-system, BlinkMacSystemFont, 'Segoe UI', Helvetica, Arial, sans-serif; font-size: 11px; fill: #8b949e; font-weight: 600; }
    .total { font-family: -apple-system, BlinkMacSystemFont, 'Segoe UI', Helvetica, Arial, sans-serif; font-size: 11px; fill: #7ee787; font-weight: 600; }
    .grid { stroke: #21262d; stroke-width: 1; }
    .line { stroke: #7ee787; stroke-width: 2; stroke-linecap: round; stroke-linejoin: round; fill: none; }
    .dot { fill: #7ee787; }
    .area { fill: url(#areaGrad); }
    /* Hover interaction */
    .hoverpoint .guide { stroke: #7ee787; stroke-width: 1; stroke-dasharray: 2,2; opacity: 0; }
    .hoverpoint .hover-dot { fill: #7ee787; opacity: 0; }
    .hoverpoint .hit { fill: transparent; cursor: pointer; }
    .hoverpoint .tooltip-bg { fill: #161b22; stroke: #30363d; stroke-width: 1; opacity: 0; }
    .hoverpoint .tooltip-text { font-family: -apple-system, BlinkMacSystemFont, 'Segoe UI', Helvetica, Arial, sans-serif; font-size: 9px; fill: #c9d1d9; opacity: 0; }
    .hoverpoint:hover .guide { opacity: 0.5; }
    .hoverpoint:hover .hover-dot { opacity: 1; }
    .hoverpoint:hover .tooltip-bg { opacity: 0.95; }
    .hoverpoint:hover .tooltip-text { opacity: 1; }
  </style>
  <defs>
    <linearGradient id="areaGrad" x1="0" y1="0" x2="0" y2="1">
      <stop offset="0%" stop-color="#7ee787" stop-opacity="0.15"/>
      <stop offset="100%" stop-color="#7ee787" stop-opacity="0.01"/>
    </linearGradient>
  </defs>

  <text x="60" y="18" class="title">Cumulative Commits</text>

  <line x1="60" y1="160.0" x2="820" y2="160.0" class="grid"/>
  <text x="50" y="163.0" class="label" text-anchor="end">0</text>
  <line x1="60" y1="127.5" x2="820" y2="127.5" class="grid" stroke-dasharray="3,3"/>
  <text x="50" y="130.5" class="label" text-anchor="end">500</text>
  <line x1="60" y1="95.0" x2="820" y2="95.0" class="grid" stroke-dasharray="3,3"/>
  <text x="50" y="98.0" class="label" text-anchor="end">1,000</text>
  <line x1="60" y1="62.5" x2="820" y2="62.5" class="grid" stroke-dasharray="3,3"/>
  <text x="50" y="65.5" class="label" text-anchor="end">1,500</text>
  <line x1="60" y1="30.0" x2="820" y2="30.0" class="grid" stroke-dasharray="3,3"/>
  <text x="50" y="33.0" class="label" text-anchor="end">2,000</text>

  <text x="70.0" y="186" class="label" text-anchor="middle">2021</text>
  <text x="204.3" y="186" class="label" text-anchor="middle">2022</text>
  <text x="348.7" y="186" class="label" text-anchor="middle">2023</text>
  <text x="493.0" y="186" class="label" text-anchor="middle">2024</text>
  <text x="637.7" y="186" class="label" text-anchor="middle">2025</text>
  <text x="782.0" y="186" class="label" text-anchor="middle">2026</text>


  <path class="area" d="M60.0,160.0 L60.0,160.0 60.0,160.0 L183.8,159.7 L184.2,159.6 L185.3,159.5 L204.3,159.4 L204.7,159.0 L205.1,158.9 L205.5,158.6 L205.9,158.6 L206.3,158.4 L207.1,158.1 L207.5,157.9 L207.9,157.8 L208.3,157.7 L209.9,157.5 L210.3,157.5 L210.7,157.4 L214.6,157.3 L224.9,157.1 L279.1,157.1 L279.5,156.5 L281.0,156.4 L281.8,155.9 L287.8,155.8 L288.6,155.6 L288.9,155.4 L289.3,155.3 L290.1,155.1 L290.5,154.7 L290.9,154.0 L291.3,153.9 L292.9,153.6 L293.7,153.6 L295.7,153.4 L301.2,153.2 L311.9,153.0 L317.8,152.9 L320.6,152.8 L321.0,152.7 L321.4,152.5 L321.8,152.3 L323.0,151.8 L323.4,151.7 L323.7,151.7 L325.3,151.4 L325.7,151.1 L326.1,151.0 L326.5,150.4 L326.9,149.9 L327.3,149.7 L327.7,149.5 L328.5,149.4 L330.1,149.3 L334.4,149.1 L345.9,149.0 L346.3,148.7 L346.7,148.6 L350.6,148.0 L351.0,146.5 L352.2,146.3 L352.6,146.3 L354.6,146.1 L368.0,145.8 L368.4,145.7 L368.8,145.6 L369.6,145.4 L372.4,145.2 L373.2,144.9 L373.6,144.7 L375.5,144.6 L385.0,144.4 L579.6,144.3 L580.4,144.2 L581.2,144.1 L582.0,144.0 L582.4,143.9 L582.7,143.8 L583.1,143.8 L583.5,143.7 L587.5,143.6 L598.6,143.6 L601.7,143.5 L602.9,143.4 L605.3,143.4 L607.7,143.3 L608.1,143.2 L609.6,143.2 L610.8,143.1 L611.6,143.0 L640.9,143.0 L641.3,142.8 L642.1,142.8 L642.5,142.7 L643.6,142.5 L645.6,142.4 L651.2,142.3 L662.6,141.7 L663.0,141.5 L668.2,141.3 L668.6,141.2 L669.7,141.1 L671.3,140.9 L673.3,140.2 L673.7,138.4 L674.1,138.3 L676.5,138.2 L677.6,138.1 L678.0,138.0 L678.8,137.8 L682.0,137.7 L684.8,137.2 L686.7,136.7 L687.1,136.5 L688.3,136.2 L688.7,135.4 L689.1,135.2 L689.5,134.9 L689.9,134.7 L690.3,134.4 L691.1,133.9 L692.3,133.5 L706.5,133.3 L707.3,132.4 L716.0,132.2 L721.1,131.9 L723.5,131.9 L723.9,131.8 L726.3,131.7 L726.7,131.7 L727.1,131.6 L727.5,131.4 L727.9,131.1 L728.3,130.5 L728.7,130.4 L731.0,129.4 L731.4,129.3 L732.2,129.1 L735.0,128.8 L735.8,128.7 L736.2,128.5 L737.0,128.5 L737.4,128.0 L737.8,127.9 L738.5,127.8 L738.9,127.6 L739.3,127.6 L739.7,127.5 L741.3,127.1 L741.7,127.0 L742.1,126.8 L742.5,126.7 L742.9,126.6 L743.3,126.4 L744.5,126.1 L744.9,125.9 L745.3,125.8 L745.7,125.6 L746.1,125.2 L746.8,125.1 L747.2,124.4 L747.6,124.1 L748.0,122.8 L748.4,122.5 L748.8,122.2 L749.2,121.5 L749.6,121.4 L750.0,121.2 L750.4,121.1 L750.8,120.7 L752.8,120.0 L753.2,119.8 L753.6,119.2 L754.0,118.1 L754.4,118.0 L755.2,117.9 L755.5,116.9 L755.9,116.4 L756.3,116.3 L756.7,115.3 L757.5,115.0 L757.9,114.9 L758.3,114.8 L758.7,114.7 L759.1,114.6 L759.5,114.6 L761.1,114.4 L761.9,114.3 L762.3,113.8 L762.7,113.5 L763.9,113.5 L765.8,113.3 L768.2,113.1 L768.6,112.9 L769.0,112.9 L769.4,112.5 L769.8,111.6 L770.2,111.5 L770.6,111.4 L771.0,111.3 L771.4,111.1 L771.8,110.6 L776.1,110.5 L776.5,110.4 L780.1,109.9 L780.9,109.5 L781.2,109.4 L781.6,109.1 L782.0,109.0 L783.2,108.8 L783.6,107.9 L784.0,105.5 L784.4,103.5 L784.8,103.4 L785.2,103.1 L786.0,102.8 L786.4,102.5 L786.8,102.1 L787.6,102.0 L788.0,101.4 L788.4,101.3 L789.2,100.4 L789.6,100.3 L789.9,99.8 L790.3,99.5 L790.7,99.1 L791.1,99.0 L792.3,98.4 L792.7,98.1 L793.1,96.6 L793.5,94.4 L793.9,93.6 L794.3,92.6 L794.7,92.5 L795.1,92.1 L795.5,91.9 L795.9,91.4 L796.3,90.6 L796.7,90.6 L797.1,90.1 L797.5,90.0 L797.9,89.5 L798.3,89.0 L798.6,88.4 L799.0,87.8 L799.4,87.7 L799.8,87.5 L800.2,86.4 L800.6,84.4 L801.0,84.1 L801.8,83.7 L802.2,83.5 L802.6,83.4 L803.0,80.2 L803.4,78.8 L803.8,77.3 L804.2,76.8 L804.6,74.4 L805.0,74.1 L805.4,74.0 L805.8,73.5 L806.2,72.4 L806.6,70.4 L807.0,68.2 L807.3,68.1 L807.7,67.6 L808.5,67.5 L808.9,66.2 L809.3,65.2 L809.7,63.8 L810.1,63.6 L810.5,63.5 L810.9,61.4 L811.3,58.9 L811.7,57.8 L812.1,57.3 L812.5,56.6 L812.9,56.1 L813.3,56.0 L814.1,55.7 L814.5,55.3 L814.9,55.2 L815.3,55.1 L815.7,55.0 L816.8,55.0 L817.2,54.9 L818.0,54.8 L818.8,54.7 L819.2,54.6 L820.0,53.7 L820.0,160.0 Z"/>
  <polyline class="line" points="60.0,160.0 183.8,159.7 184.2,159.6 185.3,159.5 204.3,159.4 204.7,159.0 205.1,158.9 205.5,158.6 205.9,158.6 206.3,158.4 207.1,158.1 207.5,157.9 207.9,157.8 208.3,157.7 209.9,157.5 210.3,157.5 210.7,157.4 214.6,157.3 224.9,157.1 279.1,157.1 279.5,156.5 281.0,156.4 281.8,155.9 287.8,155.8 288.6,155.6 288.9,155.4 289.3,155.3 290.1,155.1 290.5,154.7 290.9,154.0 291.3,153.9 292.9,153.6 293.7,153.6 295.7,153.4 301.2,153.2 311.9,153.0 317.8,152.9 320.6,152.8 321.0,152.7 321.4,152.5 321.8,152.3 323.0,151.8 323.4,151.7 323.7,151.7 325.3,151.4 325.7,151.1 326.1,151.0 326.5,150.4 326.9,149.9 327.3,149.7 327.7,149.5 328.5,149.4 330.1,149.3 334.4,149.1 345.9,149.0 346.3,148.7 346.7,148.6 350.6,148.0 351.0,146.5 352.2,146.3 352.6,146.3 354.6,146.1 368.0,145.8 368.4,145.7 368.8,145.6 369.6,145.4 372.4,145.2 373.2,144.9 373.6,144.7 375.5,144.6 385.0,144.4 579.6,144.3 580.4,144.2 581.2,144.1 582.0,144.0 582.4,143.9 582.7,143.8 583.1,143.8 583.5,143.7 587.5,143.6 598.6,143.6 601.7,143.5 602.9,143.4 605.3,143.4 607.7,143.3 608.1,143.2 609.6,143.2 610.8,143.1 611.6,143.0 640.9,143.0 641.3,142.8 642.1,142.8 642.5,142.7 643.6,142.5 645.6,142.4 651.2,142.3 662.6,141.7 663.0,141.5 668.2,141.3 668.6,141.2 669.7,141.1 671.3,140.9 673.3,140.2 673.7,138.4 674.1,138.3 676.5,138.2 677.6,138.1 678.0,138.0 678.8,137.8 682.0,137.7 684.8,137.2 686.7,136.7 687.1,136.5 688.3,136.2 688.7,135.4 689.1,135.2 689.5,134.9 689.9,134.7 690.3,134.4 691.1,133.9 692.3,133.5 706.5,133.3 707.3,132.4 716.0,132.2 721.1,131.9 723.5,131.9 723.9,131.8 726.3,131.7 726.7,131.7 727.1,131.6 727.5,131.4 727.9,131.1 728.3,130.5 728.7,130.4 731.0,129.4 731.4,129.3 732.2,129.1 735.0,128.8 735.8,128.7 736.2,128.5 737.0,128.5 737.4,128.0 737.8,127.9 738.5,127.8 738.9,127.6 739.3,127.6 739.7,127.5 741.3,127.1 741.7,127.0 742.1,126.8 742.5,126.7 742.9,126.6 743.3,126.4 744.5,126.1 744.9,125.9 745.3,125.8 745.7,125.6 746.1,125.2 746.8,125.1 747.2,124.4 747.6,124.1 748.0,122.8 748.4,122.5 748.8,122.2 749.2,121.5 749.6,121.4 750.0,121.2 750.4,121.1 750.8,120.7 752.8,120.0 753.2,119.8 753.6,119.2 754.0,118.1 754.4,118.0 755.2,117.9 755.5,116.9 755.9,116.4 756.3,116.3 756.7,115.3 757.5,115.0 757.9,114.9 758.3,114.8 758.7,114.7 759.1,114.6 759.5,114.6 761.1,114.4 761.9,114.3 762.3,113.8 762.7,113.5 763.9,113.5 765.8,113.3 768.2,113.1 768.6,112.9 769.0,112.9 769.4,112.5 769.8,111.6 770.2,111.5 770.6,111.4 771.0,111.3 771.4,111.1 771.8,110.6 776.1,110.5 776.5,110.4 780.1,109.9 780.9,109.5 781.2,109.4 781.6,109.1 782.0,109.0 783.2,108.8 783.6,107.9 784.0,105.5 784.4,103.5 784.8,103.4 785.2,103.1 786.0,102.8 786.4,102.5 786.8,102.1 787.6,102.0 788.0,101.4 788.4,101.3 789.2,100.4 789.6,100.3 789.9,99.8 790.3,99.5 790.7,99.1 791.1,99.0 792.3,98.4 792.7,98.1 793.1,96.6 793.5,94.4 793.9,93.6 794.3,92.6 794.7,92.5 795.1,92.1 795.5,91.9 795.9,91.4 796.3,90.6 796.7,90.6 797.1,90.1 797.5,90.0 797.9,89.5 798.3,89.0 798.6,88.4 799.0,87.8 799.4,87.7 799.8,87.5 800.2,86.4 800.6,84.4 801.0,84.1 801.8,83.7 802.2,83.5 802.6,83.4 803.0,80.2 803.4,78.8 803.8,77.3 804.2,76.8 804.6,74.4 805.0,74.1 805.4,74.0 805.8,73.5 806.2,72.4 806.6,70.4 807.0,68.2 807.3,68.1 807.7,67.6 808.5,67.5 808.9,66.2 809.3,65.2 809.7,63.8 810.1,63.6 810.5,63.5 810.9,61.4 811.3,58.9 811.7,57.8 812.1,57.3 812.5,56.6 812.9,56.1 813.3,56.0 814.1,55.7 814.5,55.3 814.9,55.2 815.3,55.1 815.7,55.0 816.8,55.0 817.2,54.9 818.0,54.8 818.8,54.7 819.2,54.6 820.0,53.7"/>

  <g class="hoverpoint">
    <line x1="185.3" y1="30" x2="185.3" y2="160.0" class="guide"/>
    <circle cx="185.3" cy="159.5" r="16" class="hit"/>
    <circle cx="185.3" cy="159.5" r="4" class="hover-dot"><title>Nov 2021: 7 total (+7 this month)</title></circle>
    <rect x="115.3" y="133.5" width="140" height="20" rx="4" class="tooltip-bg"/>
    <text x="185.3" y="147.5" class="tooltip-text" text-anchor="middle">Nov 2021: 7 total (+7 this month)</text>
  </g>
  <g class="hoverpoint">
    <line x1="214.6" y1="30" x2="214.6" y2="160.0" class="guide"/>
    <circle cx="214.6" cy="157.3" r="16" class="hit"/>
    <circle cx="214.6" cy="157.3" r="4" class="hover-dot"><title>Jan 2022: 41 total (+34 this month)</title></circle>
    <rect x="144.6" y="131.3" width="140" height="20" rx="4" class="tooltip-bg"/>
    <text x="214.6" y="145.3" class="tooltip-text" text-anchor="middle">Jan 2022: 41 total (+34 this month)</text>
  </g>
  <g class="hoverpoint">
    <line x1="224.9" y1="30" x2="224.9" y2="160.0" class="guide"/>
    <circle cx="224.9" cy="157.1" r="16" class="hit"/>
    <circle cx="224.9" cy="157.1" r="4" class="hover-dot"><title>Feb 2022: 44 total (+3 this month)</title></circle>
    <rect x="154.9" y="131.1" width="140" height="20" rx="4" class="tooltip-bg"/>
    <text x="224.9" y="145.1" class="tooltip-text" text-anchor="middle">Feb 2022: 44 total (+3 this month)</text>
  </g>
  <g class="hoverpoint">
    <line x1="287.8" y1="30" x2="287.8" y2="160.0" class="guide"/>
    <circle cx="287.8" cy="155.8" r="16" class="hit"/>
    <circle cx="287.8" cy="155.8" r="4" class="hover-dot"><title>Jul 2022: 65 total (+21 this month)</title></circle>
    <rect x="217.8" y="129.8" width="140" height="20" rx="4" class="tooltip-bg"/>
    <text x="287.8" y="143.8" class="tooltip-text" text-anchor="middle">Jul 2022: 65 total (+21 this month)</text>
  </g>
  <g class="hoverpoint">
    <line x1="295.7" y1="30" x2="295.7" y2="160.0" class="guide"/>
    <circle cx="295.7" cy="153.4" r="16" class="hit"/>
    <circle cx="295.7" cy="153.4" r="4" class="hover-dot"><title>Aug 2022: 101 total (+36 this month)</title></circle>
    <rect x="225.7" y="127.4" width="140" height="20" rx="4" class="tooltip-bg"/>
    <text x="295.7" y="141.4" class="tooltip-text" text-anchor="middle">Aug 2022: 101 total (+36 this month)</text>
  </g>
  <g class="hoverpoint">
    <line x1="311.9" y1="30" x2="311.9" y2="160.0" class="guide"/>
    <circle cx="311.9" cy="153.0" r="16" class="hit"/>
    <circle cx="311.9" cy="153.0" r="4" class="hover-dot"><title>Sep 2022: 108 total (+7 this month)</title></circle>
    <rect x="241.9" y="127.0" width="140" height="20" rx="4" class="tooltip-bg"/>
    <text x="311.9" y="141.0" class="tooltip-text" text-anchor="middle">Sep 2022: 108 total (+7 this month)</text>
  </g>
  <g class="hoverpoint">
    <line x1="323.7" y1="30" x2="323.7" y2="160.0" class="guide"/>
    <circle cx="323.7" cy="151.7" r="16" class="hit"/>
    <circle cx="323.7" cy="151.7" r="4" class="hover-dot"><title>Oct 2022: 128 total (+20 this month)</title></circle>
    <rect x="253.7" y="125.7" width="140" height="20" rx="4" class="tooltip-bg"/>
    <text x="323.7" y="139.7" class="tooltip-text" text-anchor="middle">Oct 2022: 128 total (+20 this month)</text>
  </g>
  <g class="hoverpoint">
    <line x1="334.4" y1="30" x2="334.4" y2="160.0" class="guide"/>
    <circle cx="334.4" cy="149.1" r="16" class="hit"/>
    <circle cx="334.4" cy="149.1" r="4" class="hover-dot"><title>Nov 2022: 168 total (+40 this month)</title></circle>
    <rect x="264.4" y="123.1" width="140" height="20" rx="4" class="tooltip-bg"/>
    <text x="334.4" y="137.1" class="tooltip-text" text-anchor="middle">Nov 2022: 168 total (+40 this month)</text>
  </g>
  <g class="hoverpoint">
    <line x1="346.7" y1="30" x2="346.7" y2="160.0" class="guide"/>
    <circle cx="346.7" cy="148.6" r="16" class="hit"/>
    <circle cx="346.7" cy="148.6" r="4" class="hover-dot"><title>Dec 2022: 175 total (+7 this month)</title></circle>
    <rect x="276.7" y="122.6" width="140" height="20" rx="4" class="tooltip-bg"/>
    <text x="346.7" y="136.6" class="tooltip-text" text-anchor="middle">Dec 2022: 175 total (+7 this month)</text>
  </g>
  <g class="hoverpoint">
    <line x1="354.6" y1="30" x2="354.6" y2="160.0" class="guide"/>
    <circle cx="354.6" cy="146.1" r="16" class="hit"/>
    <circle cx="354.6" cy="146.1" r="4" class="hover-dot"><title>Jan 2023: 214 total (+39 this month)</title></circle>
    <rect x="284.6" y="120.1" width="140" height="20" rx="4" class="tooltip-bg"/>
    <text x="354.6" y="134.1" class="tooltip-text" text-anchor="middle">Jan 2023: 214 total (+39 this month)</text>
  </g>
  <g class="hoverpoint">
    <line x1="369.6" y1="30" x2="369.6" y2="160.0" class="guide"/>
    <circle cx="369.6" cy="145.4" r="16" class="hit"/>
    <circle cx="369.6" cy="145.4" r="4" class="hover-dot"><title>Feb 2023: 225 total (+11 this month)</title></circle>
    <rect x="299.6" y="119.4" width="140" height="20" rx="4" class="tooltip-bg"/>
    <text x="369.6" y="133.4" class="tooltip-text" text-anchor="middle">Feb 2023: 225 total (+11 this month)</text>
  </g>
  <g class="hoverpoint">
    <line x1="375.5" y1="30" x2="375.5" y2="160.0" class="guide"/>
    <circle cx="375.5" cy="144.6" r="16" class="hit"/>
    <circle cx="375.5" cy="144.6" r="4" class="hover-dot"><title>Mar 2023: 237 total (+12 this month)</title></circle>
    <rect x="305.5" y="118.6" width="140" height="20" rx="4" class="tooltip-bg"/>
    <text x="375.5" y="132.6" class="tooltip-text" text-anchor="middle">Mar 2023: 237 total (+12 this month)</text>
  </g>
  <g class="hoverpoint">
    <line x1="385.0" y1="30" x2="385.0" y2="160.0" class="guide"/>
    <circle cx="385.0" cy="144.4" r="16" class="hit"/>
    <circle cx="385.0" cy="144.4" r="4" class="hover-dot"><title>Apr 2023: 240 total (+3 this month)</title></circle>
    <rect x="315.0" y="118.4" width="140" height="20" rx="4" class="tooltip-bg"/>
    <text x="385.0" y="132.4" class="tooltip-text" text-anchor="middle">Apr 2023: 240 total (+3 this month)</text>
  </g>
  <g class="hoverpoint">
    <line x1="587.5" y1="30" x2="587.5" y2="160.0" class="guide"/>
    <circle cx="587.5" cy="143.6" r="16" class="hit"/>
    <circle cx="587.5" cy="143.6" r="4" class="hover-dot"><title>Aug 2024: 252 total (+12 this month)</title></circle>
    <rect x="517.5" y="117.6" width="140" height="20" rx="4" class="tooltip-bg"/>
    <text x="587.5" y="131.6" class="tooltip-text" text-anchor="middle">Aug 2024: 252 total (+12 this month)</text>
  </g>
  <g class="hoverpoint">
    <line x1="598.6" y1="30" x2="598.6" y2="160.0" class="guide"/>
    <circle cx="598.6" cy="143.6" r="16" class="hit"/>
    <circle cx="598.6" cy="143.6" r="4" class="hover-dot"><title>Sep 2024: 253 total (+1 this month)</title></circle>
    <rect x="528.6" y="117.6" width="140" height="20" rx="4" class="tooltip-bg"/>
    <text x="598.6" y="131.6" class="tooltip-text" text-anchor="middle">Sep 2024: 253 total (+1 this month)</text>
  </g>
  <g class="hoverpoint">
    <line x1="611.6" y1="30" x2="611.6" y2="160.0" class="guide"/>
    <circle cx="611.6" cy="143.0" r="16" class="hit"/>
    <circle cx="611.6" cy="143.0" r="4" class="hover-dot"><title>Oct 2024: 261 total (+8 this month)</title></circle>
    <rect x="541.6" y="117.0" width="140" height="20" rx="4" class="tooltip-bg"/>
    <text x="611.6" y="131.0" class="tooltip-text" text-anchor="middle">Oct 2024: 261 total (+8 this month)</text>
  </g>
  <g class="hoverpoint">
    <line x1="645.6" y1="30" x2="645.6" y2="160.0" class="guide"/>
    <circle cx="645.6" cy="142.4" r="16" class="hit"/>
    <circle cx="645.6" cy="142.4" r="4" class="hover-dot"><title>Jan 2025: 270 total (+9 this month)</title></circle>
    <rect x="575.6" y="116.4" width="140" height="20" rx="4" class="tooltip-bg"/>
    <text x="645.6" y="130.4" class="tooltip-text" text-anchor="middle">Jan 2025: 270 total (+9 this month)</text>
  </g>
  <g class="hoverpoint">
    <line x1="651.2" y1="30" x2="651.2" y2="160.0" class="guide"/>
    <circle cx="651.2" cy="142.3" r="16" class="hit"/>
    <circle cx="651.2" cy="142.3" r="4" class="hover-dot"><title>Feb 2025: 272 total (+2 this month)</title></circle>
    <rect x="581.2" y="116.3" width="140" height="20" rx="4" class="tooltip-bg"/>
    <text x="651.2" y="130.3" class="tooltip-text" text-anchor="middle">Feb 2025: 272 total (+2 this month)</text>
  </g>
  <g class="hoverpoint">
    <line x1="671.3" y1="30" x2="671.3" y2="160.0" class="guide"/>
    <circle cx="671.3" cy="140.9" r="16" class="hit"/>
    <circle cx="671.3" cy="140.9" r="4" class="hover-dot"><title>Mar 2025: 294 total (+22 this month)</title></circle>
    <rect x="601.3" y="114.9" width="140" height="20" rx="4" class="tooltip-bg"/>
    <text x="671.3" y="128.9" class="tooltip-text" text-anchor="middle">Mar 2025: 294 total (+22 this month)</text>
  </g>
  <g class="hoverpoint">
    <line x1="684.8" y1="30" x2="684.8" y2="160.0" class="guide"/>
    <circle cx="684.8" cy="137.2" r="16" class="hit"/>
    <circle cx="684.8" cy="137.2" r="4" class="hover-dot"><title>Apr 2025: 351 total (+57 this month)</title></circle>
    <rect x="614.8" y="111.2" width="140" height="20" rx="4" class="tooltip-bg"/>
    <text x="684.8" y="125.2" class="tooltip-text" text-anchor="middle">Apr 2025: 351 total (+57 this month)</text>
  </g>
  <g class="hoverpoint">
    <line x1="692.3" y1="30" x2="692.3" y2="160.0" class="guide"/>
    <circle cx="692.3" cy="133.5" r="16" class="hit"/>
    <circle cx="692.3" cy="133.5" r="4" class="hover-dot"><title>May 2025: 408 total (+57 this month)</title></circle>
    <rect x="622.3" y="107.5" width="140" height="20" rx="4" class="tooltip-bg"/>
    <text x="692.3" y="121.5" class="tooltip-text" text-anchor="middle">May 2025: 408 total (+57 this month)</text>
  </g>
  <g class="hoverpoint">
    <line x1="707.3" y1="30" x2="707.3" y2="160.0" class="guide"/>
    <circle cx="707.3" cy="132.4" r="16" class="hit"/>
    <circle cx="707.3" cy="132.4" r="4" class="hover-dot"><title>Jun 2025: 424 total (+16 this month)</title></circle>
    <rect x="637.3" y="106.4" width="140" height="20" rx="4" class="tooltip-bg"/>
    <text x="707.3" y="120.4" class="tooltip-text" text-anchor="middle">Jun 2025: 424 total (+16 this month)</text>
  </g>
  <g class="hoverpoint">
    <line x1="721.1" y1="30" x2="721.1" y2="160.0" class="guide"/>
    <circle cx="721.1" cy="131.9" r="16" class="hit"/>
    <circle cx="721.1" cy="131.9" r="4" class="hover-dot"><title>Jul 2025: 432 total (+8 this month)</title></circle>
    <rect x="651.1" y="105.9" width="140" height="20" rx="4" class="tooltip-bg"/>
    <text x="721.1" y="119.9" class="tooltip-text" text-anchor="middle">Jul 2025: 432 total (+8 this month)</text>
  </g>
  <g class="hoverpoint">
    <line x1="732.2" y1="30" x2="732.2" y2="160.0" class="guide"/>
    <circle cx="732.2" cy="129.1" r="16" class="hit"/>
    <circle cx="732.2" cy="129.1" r="4" class="hover-dot"><title>Aug 2025: 475 total (+43 this month)</title></circle>
    <rect x="662.2" y="103.1" width="140" height="20" rx="4" class="tooltip-bg"/>
    <text x="732.2" y="117.1" class="tooltip-text" text-anchor="middle">Aug 2025: 475 total (+43 this month)</text>
  </g>
  <g class="hoverpoint">
    <line x1="745.3" y1="30" x2="745.3" y2="160.0" class="guide"/>
    <circle cx="745.3" cy="125.8" r="16" class="hit"/>
    <circle cx="745.3" cy="125.8" r="4" class="hover-dot"><title>Sep 2025: 526 total (+51 this month)</title></circle>
    <rect x="675.3" y="99.8" width="140" height="20" rx="4" class="tooltip-bg"/>
    <text x="745.3" y="113.8" class="tooltip-text" text-anchor="middle">Sep 2025: 526 total (+51 this month)</text>
  </g>
  <g class="hoverpoint">
    <line x1="757.5" y1="30" x2="757.5" y2="160.0" class="guide"/>
    <circle cx="757.5" cy="115.0" r="16" class="hit"/>
    <circle cx="757.5" cy="115.0" r="4" class="hover-dot"><title>Oct 2025: 692 total (+166 this month)</title></circle>
    <rect x="687.5" y="89.0" width="140" height="20" rx="4" class="tooltip-bg"/>
    <text x="757.5" y="103.0" class="tooltip-text" text-anchor="middle">Oct 2025: 692 total (+166 this month)</text>
  </g>
  <g class="hoverpoint">
    <line x1="769.4" y1="30" x2="769.4" y2="160.0" class="guide"/>
    <circle cx="769.4" cy="112.5" r="16" class="hit"/>
    <circle cx="769.4" cy="112.5" r="4" class="hover-dot"><title>Nov 2025: 731 total (+39 this month)</title></circle>
    <rect x="699.4" y="86.5" width="140" height="20" rx="4" class="tooltip-bg"/>
    <text x="769.4" y="100.5" class="tooltip-text" text-anchor="middle">Nov 2025: 731 total (+39 this month)</text>
  </g>
  <g class="hoverpoint">
    <line x1="781.6" y1="30" x2="781.6" y2="160.0" class="guide"/>
    <circle cx="781.6" cy="109.1" r="16" class="hit"/>
    <circle cx="781.6" cy="109.1" r="4" class="hover-dot"><title>Dec 2025: 783 total (+52 this month)</title></circle>
    <rect x="711.6" y="83.1" width="140" height="20" rx="4" class="tooltip-bg"/>
    <text x="781.6" y="97.1" class="tooltip-text" text-anchor="middle">Dec 2025: 783 total (+52 this month)</text>
  </g>
  <g class="hoverpoint">
    <line x1="793.9" y1="30" x2="793.9" y2="160.0" class="guide"/>
    <circle cx="793.9" cy="93.6" r="16" class="hit"/>
    <circle cx="793.9" cy="93.6" r="4" class="hover-dot"><title>Jan 2026: 1,022 total (+239 this month)</title></circle>
    <rect x="723.9" y="67.6" width="140" height="20" rx="4" class="tooltip-bg"/>
    <text x="793.9" y="81.6" class="tooltip-text" text-anchor="middle">Jan 2026: 1,022 total (+239 this month)</text>
  </g>
  <g class="hoverpoint">
    <line x1="805.0" y1="30" x2="805.0" y2="160.0" class="guide"/>
    <circle cx="805.0" cy="74.1" r="16" class="hit"/>
    <circle cx="805.0" cy="74.1" r="4" class="hover-dot"><title>Feb 2026: 1,321 total (+299 this month)</title></circle>
    <rect x="735.0" y="48.1" width="140" height="20" rx="4" class="tooltip-bg"/>
    <text x="805.0" y="62.1" class="tooltip-text" text-anchor="middle">Feb 2026: 1,321 total (+299 this month)</text>
  </g>
  <g class="hoverpoint">
    <line x1="817.2" y1="30" x2="817.2" y2="160.0" class="guide"/>
    <circle cx="817.2" cy="54.9" r="16" class="hit"/>
    <circle cx="817.2" cy="54.9" r="4" class="hover-dot"><title>Mar 2026: 1,617 total (+296 this month)</title></circle>
    <rect x="747.2" y="28.9" width="140" height="20" rx="4" class="tooltip-bg"/>
    <text x="817.2" y="42.9" class="tooltip-text" text-anchor="middle">Mar 2026: 1,617 total (+296 this month)</text>
  </g>
  <g class="hoverpoint">
    <line x1="820.0" y1="30" x2="820.0" y2="160.0" class="guide"/>
    <circle cx="820.0" cy="53.7" r="16" class="hit"/>
    <circle cx="820.0" cy="53.7" r="4" class="hover-dot"><title>Apr 2026: 1,635 total (+18 this month)</title></circle>
    <rect x="750.0" y="27.7" width="140" height="20" rx="4" class="tooltip-bg"/>
    <text x="820.0" y="41.7" class="tooltip-text" text-anchor="middle">Apr 2026: 1,635 total (+18 this month)</text>
  </g>

  <circle cx="820.0" cy="53.7" r="4" class="dot"/>
  <text x="810.0" y="43.7" class="total">1,635</text>

</svg>