<svg xmlns="http://www.w3.org/2000/svg" width="840" height="196" viewBox="0 0 840 196" fill="none">
  <style>
    .label { font-family: -apple-system, BlinkMacSystemFont, 'Segoe UI', Helvetica, Arial, sans-serif; font-size: 10px; fill: #8b949e; }
    .title { font-family: -apple-system, BlinkMacSystemFont, 'Segoe UI', Helvetica, Arial, sans-serif; font-size: 11px; fill: #8b949e; font-weight: 600; }
    .total { font-family: -apple-system, BlinkMacSystemFont, 'Segoe UI', Helvetica, Arial, sans-serif; font-size: 11px; fill: #7ee787; font-weight: 600; }
    .grid { stroke: #21262d; stroke-width: 1; }
    .line { stroke: #7ee787; stroke-width: 2; stroke-linecap: round; stroke-linejoin: round; fill: none; }
    .dot { fill: #7ee787; }
    .area { fill: url(#areaGrad); }
    /* Hover interaction */
    .hoverpoint .guide { stroke: #7ee787; stroke-width: 1; stroke-dasharray: 2,2; opacity: 0; }
    .hoverpoint .hover-dot { fill: #7ee787; opacity: 0; }
    .hoverpoint .hit { fill: transparent; cursor: pointer; }
    .hoverpoint .tooltip-bg { fill: #161b22; stroke: #30363d; stroke-width: 1; opacity: 0; }
    .hoverpoint .tooltip-text { font-family: -apple-system, BlinkMacSystemFont, 'Segoe UI', Helvetica, Arial, sans-serif; font-size: 9px; fill: #c9d1d9; opacity: 0; }
    .hoverpoint:hover .guide { opacity: 0.5; }
    .hoverpoint:hover .hover-dot { opacity: 1; }
    .hoverpoint:hover .tooltip-bg { opacity: 0.95; }
    .hoverpoint:hover .tooltip-text { opacity: 1; }
  </style>
  <defs>
    <linearGradient id="areaGrad" x1="0" y1="0" x2="0" y2="1">
      <stop offset="0%" stop-color="#7ee787" stop-opacity="0.15"/>
      <stop offset="100%" stop-color="#7ee787" stop-opacity="0.01"/>
    </linearGradient>
  </defs>

  <text x="60" y="18" class="title">Cumulative Commits</text>

  <line x1="60" y1="160.0" x2="820" y2="160.0" class="grid"/>
  <text x="50" y="163.0" class="label" text-anchor="end">0</text>
  <line x1="60" y1="127.5" x2="820" y2="127.5" class="grid" stroke-dasharray="3,3"/>
  <text x="50" y="130.5" class="label" text-anchor="end">500</text>
  <line x1="60" y1="95.0" x2="820" y2="95.0" class="grid" stroke-dasharray="3,3"/>
  <text x="50" y="98.0" class="label" text-anchor="end">1,000</text>
  <line x1="60" y1="62.5" x2="820" y2="62.5" class="grid" stroke-dasharray="3,3"/>
  <text x="50" y="65.5" class="label" text-anchor="end">1,500</text>
  <line x1="60" y1="30.0" x2="820" y2="30.0" class="grid" stroke-dasharray="3,3"/>
  <text x="50" y="33.0" class="label" text-anchor="end">2,000</text>

  <text x="70.0" y="186" class="label" text-anchor="middle">2021</text>
  <text x="202.0" y="186" class="label" text-anchor="middle">2022</text>
  <text x="344.1" y="186" class="label" text-anchor="middle">2023</text>
  <text x="486.1" y="186" class="label" text-anchor="middle">2024</text>
  <text x="628.5" y="186" class="label" text-anchor="middle">2025</text>
  <text x="770.6" y="186" class="label" text-anchor="middle">2026</text>


  <path class="area" d="M60.0,160.0 L60.0,160.0 60.0,160.0 L181.8,159.7 L182.2,159.6 L183.4,159.5 L202.0,159.4 L202.4,159.0 L202.8,158.9 L203.2,158.6 L203.6,158.6 L204.0,158.4 L204.8,158.1 L205.2,157.9 L205.5,157.8 L205.9,157.7 L207.5,157.5 L207.9,157.5 L208.3,157.4 L212.2,157.3 L222.3,157.1 L275.6,157.1 L276.0,156.5 L277.5,156.4 L278.3,155.9 L284.1,155.8 L284.9,155.6 L285.3,155.4 L285.7,155.3 L286.5,155.1 L286.9,154.7 L287.3,154.0 L287.6,153.9 L289.2,153.6 L290.0,153.6 L291.9,153.4 L297.4,153.2 L307.9,153.0 L313.7,152.9 L316.4,152.8 L316.8,152.7 L317.2,152.5 L317.6,152.3 L318.8,151.8 L319.2,151.7 L319.6,151.7 L321.1,151.4 L321.5,151.1 L321.9,151.0 L322.3,150.4 L322.7,149.9 L323.1,149.7 L323.5,149.5 L324.2,149.4 L325.8,149.3 L330.1,149.1 L341.4,149.0 L341.7,148.7 L342.1,148.6 L346.0,148.0 L346.4,146.5 L347.6,146.3 L348.0,146.3 L349.9,146.1 L363.1,145.8 L363.5,145.7 L363.9,145.6 L364.7,145.4 L367.4,145.2 L368.2,144.9 L368.6,144.7 L370.5,144.6 L379.9,144.4 L571.3,144.3 L572.1,144.2 L572.9,144.1 L573.7,144.0 L574.1,143.9 L574.4,143.8 L574.8,143.8 L575.2,143.7 L579.1,143.6 L590.0,143.6 L593.1,143.5 L594.3,143.4 L596.6,143.4 L599.0,143.3 L599.4,143.2 L600.9,143.2 L602.1,143.1 L602.9,143.0 L631.7,143.0 L632.0,142.8 L632.8,142.8 L633.2,142.7 L634.4,142.5 L636.3,142.4 L641.8,142.3 L653.1,141.7 L653.4,141.5 L658.5,141.3 L658.9,141.2 L660.1,141.1 L661.6,140.9 L663.6,140.2 L664.0,138.4 L664.3,138.3 L666.7,138.2 L667.8,138.1 L668.2,138.0 L669.0,137.8 L672.1,137.7 L674.8,137.2 L676.8,136.7 L677.2,136.5 L678.4,136.2 L678.7,135.4 L679.1,135.2 L679.5,134.9 L679.9,134.7 L680.3,134.4 L681.1,133.9 L682.2,133.5 L696.3,133.3 L697.0,132.4 L705.6,132.2 L710.7,131.9 L713.0,131.9 L713.4,131.8 L715.7,131.7 L716.1,131.7 L716.5,131.6 L716.9,131.4 L717.3,131.1 L717.7,130.5 L718.0,130.4 L720.4,129.4 L720.8,129.3 L721.5,129.1 L724.3,128.8 L725.0,128.7 L725.4,128.5 L726.2,128.5 L726.6,128.0 L727.0,127.9 L727.8,127.8 L728.2,127.6 L728.6,127.6 L728.9,127.5 L730.5,127.1 L730.9,127.0 L731.3,126.8 L731.7,126.7 L732.1,126.6 L732.4,126.4 L733.6,126.1 L734.0,125.9 L734.4,125.8 L734.8,125.6 L735.2,125.2 L735.9,125.1 L736.3,124.4 L736.7,124.1 L737.1,122.8 L737.5,122.5 L737.9,122.2 L738.3,121.5 L738.7,121.4 L739.1,121.2 L739.4,121.1 L739.8,120.7 L741.8,120.0 L742.2,119.8 L742.6,119.2 L742.9,118.1 L743.3,118.0 L744.1,117.9 L744.5,116.9 L744.9,116.4 L745.3,116.3 L745.7,115.3 L746.5,115.0 L746.8,114.9 L747.2,114.8 L747.6,114.7 L748.0,114.6 L748.4,114.6 L750.0,114.4 L750.7,114.3 L751.1,113.8 L751.5,113.5 L752.7,113.5 L754.6,113.3 L757.0,113.1 L757.3,112.9 L757.7,112.9 L758.1,112.5 L758.5,111.6 L758.9,111.5 L759.3,111.4 L759.7,111.3 L760.1,111.1 L760.5,110.6 L764.7,110.5 L765.1,110.4 L768.6,109.9 L769.4,109.5 L769.8,109.4 L770.2,109.1 L770.6,109.0 L771.7,108.8 L772.1,107.9 L772.5,105.5 L772.9,103.5 L773.3,103.4 L773.7,103.1 L774.5,102.8 L774.9,102.5 L775.2,102.1 L776.0,102.0 L776.4,101.4 L776.8,101.3 L777.6,100.4 L778.0,100.3 L778.4,99.8 L778.8,99.5 L779.1,99.1 L779.5,99.0 L780.7,98.4 L781.1,98.1 L781.5,96.6 L781.9,94.4 L782.3,93.6 L782.6,92.6 L783.0,92.5 L783.4,92.1 L783.8,91.9 L784.2,91.4 L784.6,90.6 L785.0,90.6 L785.4,90.1 L785.8,90.0 L786.1,89.5 L786.5,89.0 L786.9,88.4 L787.3,87.8 L787.7,87.7 L788.1,87.5 L788.5,86.4 L788.9,84.4 L789.3,84.1 L790.0,83.7 L790.4,83.5 L790.8,83.4 L791.2,80.2 L791.6,78.8 L792.0,77.3 L792.4,76.8 L792.8,74.4 L793.1,74.1 L793.5,74.0 L793.9,73.5 L794.3,72.4 L794.7,70.4 L795.1,68.2 L795.5,68.1 L795.9,67.6 L796.7,67.5 L797.0,66.2 L797.4,65.2 L797.8,63.8 L798.2,63.6 L798.6,63.5 L799.0,61.4 L799.4,58.9 L799.8,57.8 L800.2,57.3 L800.5,56.6 L800.9,56.1 L801.3,56.0 L802.1,55.7 L802.5,55.3 L802.9,55.2 L803.3,55.1 L803.7,55.0 L804.8,55.0 L805.2,54.9 L806.0,54.8 L806.8,54.7 L807.2,54.6 L807.9,53.7 L808.3,53.1 L808.7,52.9 L811.0,52.8 L811.4,52.3 L811.8,52.2 L812.2,51.6 L812.6,51.6 L813.0,51.4 L813.4,51.3 L813.8,50.3 L814.2,49.4 L814.6,49.0 L814.9,47.0 L815.3,46.8 L816.1,46.7 L816.5,46.6 L817.7,46.4 L818.1,45.7 L818.4,45.5 L818.8,45.3 L819.6,42.9 L820.0,42.2 L820.0,160.0 Z"/>
  <polyline class="line" points="60.0,160.0 181.8,159.7 182.2,159.6 183.4,159.5 202.0,159.4 202.4,159.0 202.8,158.9 203.2,158.6 203.6,158.6 204.0,158.4 204.8,158.1 205.2,157.9 205.5,157.8 205.9,157.7 207.5,157.5 207.9,157.5 208.3,157.4 212.2,157.3 222.3,157.1 275.6,157.1 276.0,156.5 277.5,156.4 278.3,155.9 284.1,155.8 284.9,155.6 285.3,155.4 285.7,155.3 286.5,155.1 286.9,154.7 287.3,154.0 287.6,153.9 289.2,153.6 290.0,153.6 291.9,153.4 297.4,153.2 307.9,153.0 313.7,152.9 316.4,152.8 316.8,152.7 317.2,152.5 317.6,152.3 318.8,151.8 319.2,151.7 319.6,151.7 321.1,151.4 321.5,151.1 321.9,151.0 322.3,150.4 322.7,149.9 323.1,149.7 323.5,149.5 324.2,149.4 325.8,149.3 330.1,149.1 341.4,149.0 341.7,148.7 342.1,148.6 346.0,148.0 346.4,146.5 347.6,146.3 348.0,146.3 349.9,146.1 363.1,145.8 363.5,145.7 363.9,145.6 364.7,145.4 367.4,145.2 368.2,144.9 368.6,144.7 370.5,144.6 379.9,144.4 571.3,144.3 572.1,144.2 572.9,144.1 573.7,144.0 574.1,143.9 574.4,143.8 574.8,143.8 575.2,143.7 579.1,143.6 590.0,143.6 593.1,143.5 594.3,143.4 596.6,143.4 599.0,143.3 599.4,143.2 600.9,143.2 602.1,143.1 602.9,143.0 631.7,143.0 632.0,142.8 632.8,142.8 633.2,142.7 634.4,142.5 636.3,142.4 641.8,142.3 653.1,141.7 653.4,141.5 658.5,141.3 658.9,141.2 660.1,141.1 661.6,140.9 663.6,140.2 664.0,138.4 664.3,138.3 666.7,138.2 667.8,138.1 668.2,138.0 669.0,137.8 672.1,137.7 674.8,137.2 676.8,136.7 677.2,136.5 678.4,136.2 678.7,135.4 679.1,135.2 679.5,134.9 679.9,134.7 680.3,134.4 681.1,133.9 682.2,133.5 696.3,133.3 697.0,132.4 705.6,132.2 710.7,131.9 713.0,131.9 713.4,131.8 715.7,131.7 716.1,131.7 716.5,131.6 716.9,131.4 717.3,131.1 717.7,130.5 718.0,130.4 720.4,129.4 720.8,129.3 721.5,129.1 724.3,128.8 725.0,128.7 725.4,128.5 726.2,128.5 726.6,128.0 727.0,127.9 727.8,127.8 728.2,127.6 728.6,127.6 728.9,127.5 730.5,127.1 730.9,127.0 731.3,126.8 731.7,126.7 732.1,126.6 732.4,126.4 733.6,126.1 734.0,125.9 734.4,125.8 734.8,125.6 735.2,125.2 735.9,125.1 736.3,124.4 736.7,124.1 737.1,122.8 737.5,122.5 737.9,122.2 738.3,121.5 738.7,121.4 739.1,121.2 739.4,121.1 739.8,120.7 741.8,120.0 742.2,119.8 742.6,119.2 742.9,118.1 743.3,118.0 744.1,117.9 744.5,116.9 744.9,116.4 745.3,116.3 745.7,115.3 746.5,115.0 746.8,114.9 747.2,114.8 747.6,114.7 748.0,114.6 748.4,114.6 750.0,114.4 750.7,114.3 751.1,113.8 751.5,113.5 752.7,113.5 754.6,113.3 757.0,113.1 757.3,112.9 757.7,112.9 758.1,112.5 758.5,111.6 758.9,111.5 759.3,111.4 759.7,111.3 760.1,111.1 760.5,110.6 764.7,110.5 765.1,110.4 768.6,109.9 769.4,109.5 769.8,109.4 770.2,109.1 770.6,109.0 771.7,108.8 772.1,107.9 772.5,105.5 772.9,103.5 773.3,103.4 773.7,103.1 774.5,102.8 774.9,102.5 775.2,102.1 776.0,102.0 776.4,101.4 776.8,101.3 777.6,100.4 778.0,100.3 778.4,99.8 778.8,99.5 779.1,99.1 779.5,99.0 780.7,98.4 781.1,98.1 781.5,96.6 781.9,94.4 782.3,93.6 782.6,92.6 783.0,92.5 783.4,92.1 783.8,91.9 784.2,91.4 784.6,90.6 785.0,90.6 785.4,90.1 785.8,90.0 786.1,89.5 786.5,89.0 786.9,88.4 787.3,87.8 787.7,87.7 788.1,87.5 788.5,86.4 788.9,84.4 789.3,84.1 790.0,83.7 790.4,83.5 790.8,83.4 791.2,80.2 791.6,78.8 792.0,77.3 792.4,76.8 792.8,74.4 793.1,74.1 793.5,74.0 793.9,73.5 794.3,72.4 794.7,70.4 795.1,68.2 795.5,68.1 795.9,67.6 796.7,67.5 797.0,66.2 797.4,65.2 797.8,63.8 798.2,63.6 798.6,63.5 799.0,61.4 799.4,58.9 799.8,57.8 800.2,57.3 800.5,56.6 800.9,56.1 801.3,56.0 802.1,55.7 802.5,55.3 802.9,55.2 803.3,55.1 803.7,55.0 804.8,55.0 805.2,54.9 806.0,54.8 806.8,54.7 807.2,54.6 807.9,53.7 808.3,53.1 808.7,52.9 811.0,52.8 811.4,52.3 811.8,52.2 812.2,51.6 812.6,51.6 813.0,51.4 813.4,51.3 813.8,50.3 814.2,49.4 814.6,49.0 814.9,47.0 815.3,46.8 816.1,46.7 816.5,46.6 817.7,46.4 818.1,45.7 818.4,45.5 818.8,45.3 819.6,42.9 820.0,42.2"/>

  <g class="hoverpoint">
    <line x1="183.4" y1="30" x2="183.4" y2="160.0" class="guide"/>
    <circle cx="183.4" cy="159.5" r="16" class="hit"/>
    <circle cx="183.4" cy="159.5" r="4" class="hover-dot"><title>Nov 2021: 7 total (+7 this month)</title></circle>
    <rect x="113.4" y="133.5" width="140" height="20" rx="4" class="tooltip-bg"/>
    <text x="183.4" y="147.5" class="tooltip-text" text-anchor="middle">Nov 2021: 7 total (+7 this month)</text>
  </g>
  <g class="hoverpoint">
    <line x1="212.2" y1="30" x2="212.2" y2="160.0" class="guide"/>
    <circle cx="212.2" cy="157.3" r="16" class="hit"/>
    <circle cx="212.2" cy="157.3" r="4" class="hover-dot"><title>Jan 2022: 41 total (+34 this month)</title></circle>
    <rect x="142.2" y="131.3" width="140" height="20" rx="4" class="tooltip-bg"/>
    <text x="212.2" y="145.3" class="tooltip-text" text-anchor="middle">Jan 2022: 41 total (+34 this month)</text>
  </g>
  <g class="hoverpoint">
    <line x1="222.3" y1="30" x2="222.3" y2="160.0" class="guide"/>
    <circle cx="222.3" cy="157.1" r="16" class="hit"/>
    <circle cx="222.3" cy="157.1" r="4" class="hover-dot"><title>Feb 2022: 44 total (+3 this month)</title></circle>
    <rect x="152.3" y="131.1" width="140" height="20" rx="4" class="tooltip-bg"/>
    <text x="222.3" y="145.1" class="tooltip-text" text-anchor="middle">Feb 2022: 44 total (+3 this month)</text>
  </g>
  <g class="hoverpoint">
    <line x1="284.1" y1="30" x2="284.1" y2="160.0" class="guide"/>
    <circle cx="284.1" cy="155.8" r="16" class="hit"/>
    <circle cx="284.1" cy="155.8" r="4" class="hover-dot"><title>Jul 2022: 65 total (+21 this month)</title></circle>
    <rect x="214.1" y="129.8" width="140" height="20" rx="4" class="tooltip-bg"/>
    <text x="284.1" y="143.8" class="tooltip-text" text-anchor="middle">Jul 2022: 65 total (+21 this month)</text>
  </g>
  <g class="hoverpoint">
    <line x1="291.9" y1="30" x2="291.9" y2="160.0" class="guide"/>
    <circle cx="291.9" cy="153.4" r="16" class="hit"/>
    <circle cx="291.9" cy="153.4" r="4" class="hover-dot"><title>Aug 2022: 101 total (+36 this month)</title></circle>
    <rect x="221.9" y="127.4" width="140" height="20" rx="4" class="tooltip-bg"/>
    <text x="291.9" y="141.4" class="tooltip-text" text-anchor="middle">Aug 2022: 101 total (+36 this month)</text>
  </g>
  <g class="hoverpoint">
    <line x1="307.9" y1="30" x2="307.9" y2="160.0" class="guide"/>
    <circle cx="307.9" cy="153.0" r="16" class="hit"/>
    <circle cx="307.9" cy="153.0" r="4" class="hover-dot"><title>Sep 2022: 108 total (+7 this month)</title></circle>
    <rect x="237.9" y="127.0" width="140" height="20" rx="4" class="tooltip-bg"/>
    <text x="307.9" y="141.0" class="tooltip-text" text-anchor="middle">Sep 2022: 108 total (+7 this month)</text>
  </g>
  <g class="hoverpoint">
    <line x1="319.6" y1="30" x2="319.6" y2="160.0" class="guide"/>
    <circle cx="319.6" cy="151.7" r="16" class="hit"/>
    <circle cx="319.6" cy="151.7" r="4" class="hover-dot"><title>Oct 2022: 128 total (+20 this month)</title></circle>
    <rect x="249.6" y="125.7" width="140" height="20" rx="4" class="tooltip-bg"/>
    <text x="319.6" y="139.7" class="tooltip-text" text-anchor="middle">Oct 2022: 128 total (+20 this month)</text>
  </g>
  <g class="hoverpoint">
    <line x1="330.1" y1="30" x2="330.1" y2="160.0" class="guide"/>
    <circle cx="330.1" cy="149.1" r="16" class="hit"/>
    <circle cx="330.1" cy="149.1" r="4" class="hover-dot"><title>Nov 2022: 168 total (+40 this month)</title></circle>
    <rect x="260.1" y="123.1" width="140" height="20" rx="4" class="tooltip-bg"/>
    <text x="330.1" y="137.1" class="tooltip-text" text-anchor="middle">Nov 2022: 168 total (+40 this month)</text>
  </g>
  <g class="hoverpoint">
    <line x1="342.1" y1="30" x2="342.1" y2="160.0" class="guide"/>
    <circle cx="342.1" cy="148.6" r="16" class="hit"/>
    <circle cx="342.1" cy="148.6" r="4" class="hover-dot"><title>Dec 2022: 175 total (+7 this month)</title></circle>
    <rect x="272.1" y="122.6" width="140" height="20" rx="4" class="tooltip-bg"/>
    <text x="342.1" y="136.6" class="tooltip-text" text-anchor="middle">Dec 2022: 175 total (+7 this month)</text>
  </g>
  <g class="hoverpoint">
    <line x1="349.9" y1="30" x2="349.9" y2="160.0" class="guide"/>
    <circle cx="349.9" cy="146.1" r="16" class="hit"/>
    <circle cx="349.9" cy="146.1" r="4" class="hover-dot"><title>Jan 2023: 214 total (+39 this month)</title></circle>
    <rect x="279.9" y="120.1" width="140" height="20" rx="4" class="tooltip-bg"/>
    <text x="349.9" y="134.1" class="tooltip-text" text-anchor="middle">Jan 2023: 214 total (+39 this month)</text>
  </g>
  <g class="hoverpoint">
    <line x1="364.7" y1="30" x2="364.7" y2="160.0" class="guide"/>
    <circle cx="364.7" cy="145.4" r="16" class="hit"/>
    <circle cx="364.7" cy="145.4" r="4" class="hover-dot"><title>Feb 2023: 225 total (+11 this month)</title></circle>
    <rect x="294.7" y="119.4" width="140" height="20" rx="4" class="tooltip-bg"/>
    <text x="364.7" y="133.4" class="tooltip-text" text-anchor="middle">Feb 2023: 225 total (+11 this month)</text>
  </g>
  <g class="hoverpoint">
    <line x1="370.5" y1="30" x2="370.5" y2="160.0" class="guide"/>
    <circle cx="370.5" cy="144.6" r="16" class="hit"/>
    <circle cx="370.5" cy="144.6" r="4" class="hover-dot"><title>Mar 2023: 237 total (+12 this month)</title></circle>
    <rect x="300.5" y="118.6" width="140" height="20" rx="4" class="tooltip-bg"/>
    <text x="370.5" y="132.6" class="tooltip-text" text-anchor="middle">Mar 2023: 237 total (+12 this month)</text>
  </g>
  <g class="hoverpoint">
    <line x1="379.9" y1="30" x2="379.9" y2="160.0" class="guide"/>
    <circle cx="379.9" cy="144.4" r="16" class="hit"/>
    <circle cx="379.9" cy="144.4" r="4" class="hover-dot"><title>Apr 2023: 240 total (+3 this month)</title></circle>
    <rect x="309.9" y="118.4" width="140" height="20" rx="4" class="tooltip-bg"/>
    <text x="379.9" y="132.4" class="tooltip-text" text-anchor="middle">Apr 2023: 240 total (+3 this month)</text>
  </g>
  <g class="hoverpoint">
    <line x1="579.1" y1="30" x2="579.1" y2="160.0" class="guide"/>
    <circle cx="579.1" cy="143.6" r="16" class="hit"/>
    <circle cx="579.1" cy="143.6" r="4" class="hover-dot"><title>Aug 2024: 252 total (+12 this month)</title></circle>
    <rect x="509.1" y="117.6" width="140" height="20" rx="4" class="tooltip-bg"/>
    <text x="579.1" y="131.6" class="tooltip-text" text-anchor="middle">Aug 2024: 252 total (+12 this month)</text>
  </g>
  <g class="hoverpoint">
    <line x1="590.0" y1="30" x2="590.0" y2="160.0" class="guide"/>
    <circle cx="590.0" cy="143.6" r="16" class="hit"/>
    <circle cx="590.0" cy="143.6" r="4" class="hover-dot"><title>Sep 2024: 253 total (+1 this month)</title></circle>
    <rect x="520.0" y="117.6" width="140" height="20" rx="4" class="tooltip-bg"/>
    <text x="590.0" y="131.6" class="tooltip-text" text-anchor="middle">Sep 2024: 253 total (+1 this month)</text>
  </g>
  <g class="hoverpoint">
    <line x1="602.9" y1="30" x2="602.9" y2="160.0" class="guide"/>
    <circle cx="602.9" cy="143.0" r="16" class="hit"/>
    <circle cx="602.9" cy="143.0" r="4" class="hover-dot"><title>Oct 2024: 261 total (+8 this month)</title></circle>
    <rect x="532.9" y="117.0" width="140" height="20" rx="4" class="tooltip-bg"/>
    <text x="602.9" y="131.0" class="tooltip-text" text-anchor="middle">Oct 2024: 261 total (+8 this month)</text>
  </g>
  <g class="hoverpoint">
    <line x1="636.3" y1="30" x2="636.3" y2="160.0" class="guide"/>
    <circle cx="636.3" cy="142.4" r="16" class="hit"/>
    <circle cx="636.3" cy="142.4" r="4" class="hover-dot"><title>Jan 2025: 270 total (+9 this month)</title></circle>
    <rect x="566.3" y="116.4" width="140" height="20" rx="4" class="tooltip-bg"/>
    <text x="636.3" y="130.4" class="tooltip-text" text-anchor="middle">Jan 2025: 270 total (+9 this month)</text>
  </g>
  <g class="hoverpoint">
    <line x1="641.8" y1="30" x2="641.8" y2="160.0" class="guide"/>
    <circle cx="641.8" cy="142.3" r="16" class="hit"/>
    <circle cx="641.8" cy="142.3" r="4" class="hover-dot"><title>Feb 2025: 272 total (+2 this month)</title></circle>
    <rect x="571.8" y="116.3" width="140" height="20" rx="4" class="tooltip-bg"/>
    <text x="641.8" y="130.3" class="tooltip-text" text-anchor="middle">Feb 2025: 272 total (+2 this month)</text>
  </g>
  <g class="hoverpoint">
    <line x1="661.6" y1="30" x2="661.6" y2="160.0" class="guide"/>
    <circle cx="661.6" cy="140.9" r="16" class="hit"/>
    <circle cx="661.6" cy="140.9" r="4" class="hover-dot"><title>Mar 2025: 294 total (+22 this month)</title></circle>
    <rect x="591.6" y="114.9" width="140" height="20" rx="4" class="tooltip-bg"/>
    <text x="661.6" y="128.9" class="tooltip-text" text-anchor="middle">Mar 2025: 294 total (+22 this month)</text>
  </g>
  <g class="hoverpoint">
    <line x1="674.8" y1="30" x2="674.8" y2="160.0" class="guide"/>
    <circle cx="674.8" cy="137.2" r="16" class="hit"/>
    <circle cx="674.8" cy="137.2" r="4" class="hover-dot"><title>Apr 2025: 351 total (+57 this month)</title></circle>
    <rect x="604.8" y="111.2" width="140" height="20" rx="4" class="tooltip-bg"/>
    <text x="674.8" y="125.2" class="tooltip-text" text-anchor="middle">Apr 2025: 351 total (+57 this month)</text>
  </g>
  <g class="hoverpoint">
    <line x1="682.2" y1="30" x2="682.2" y2="160.0" class="guide"/>
    <circle cx="682.2" cy="133.5" r="16" class="hit"/>
    <circle cx="682.2" cy="133.5" r="4" class="hover-dot"><title>May 2025: 408 total (+57 this month)</title></circle>
    <rect x="612.2" y="107.5" width="140" height="20" rx="4" class="tooltip-bg"/>
    <text x="682.2" y="121.5" class="tooltip-text" text-anchor="middle">May 2025: 408 total (+57 this month)</text>
  </g>
  <g class="hoverpoint">
    <line x1="697.0" y1="30" x2="697.0" y2="160.0" class="guide"/>
    <circle cx="697.0" cy="132.4" r="16" class="hit"/>
    <circle cx="697.0" cy="132.4" r="4" class="hover-dot"><title>Jun 2025: 424 total (+16 this month)</title></circle>
    <rect x="627.0" y="106.4" width="140" height="20" rx="4" class="tooltip-bg"/>
    <text x="697.0" y="120.4" class="tooltip-text" text-anchor="middle">Jun 2025: 424 total (+16 this month)</text>
  </g>
  <g class="hoverpoint">
    <line x1="710.7" y1="30" x2="710.7" y2="160.0" class="guide"/>
    <circle cx="710.7" cy="131.9" r="16" class="hit"/>
    <circle cx="710.7" cy="131.9" r="4" class="hover-dot"><title>Jul 2025: 432 total (+8 this month)</title></circle>
    <rect x="640.7" y="105.9" width="140" height="20" rx="4" class="tooltip-bg"/>
    <text x="710.7" y="119.9" class="tooltip-text" text-anchor="middle">Jul 2025: 432 total (+8 this month)</text>
  </g>
  <g class="hoverpoint">
    <line x1="721.5" y1="30" x2="721.5" y2="160.0" class="guide"/>
    <circle cx="721.5" cy="129.1" r="16" class="hit"/>
    <circle cx="721.5" cy="129.1" r="4" class="hover-dot"><title>Aug 2025: 475 total (+43 this month)</title></circle>
    <rect x="651.5" y="103.1" width="140" height="20" rx="4" class="tooltip-bg"/>
    <text x="721.5" y="117.1" class="tooltip-text" text-anchor="middle">Aug 2025: 475 total (+43 this month)</text>
  </g>
  <g class="hoverpoint">
    <line x1="734.4" y1="30" x2="734.4" y2="160.0" class="guide"/>
    <circle cx="734.4" cy="125.8" r="16" class="hit"/>
    <circle cx="734.4" cy="125.8" r="4" class="hover-dot"><title>Sep 2025: 526 total (+51 this month)</title></circle>
    <rect x="664.4" y="99.8" width="140" height="20" rx="4" class="tooltip-bg"/>
    <text x="734.4" y="113.8" class="tooltip-text" text-anchor="middle">Sep 2025: 526 total (+51 this month)</text>
  </g>
  <g class="hoverpoint">
    <line x1="746.5" y1="30" x2="746.5" y2="160.0" class="guide"/>
    <circle cx="746.5" cy="115.0" r="16" class="hit"/>
    <circle cx="746.5" cy="115.0" r="4" class="hover-dot"><title>Oct 2025: 692 total (+166 this month)</title></circle>
    <rect x="676.5" y="89.0" width="140" height="20" rx="4" class="tooltip-bg"/>
    <text x="746.5" y="103.0" class="tooltip-text" text-anchor="middle">Oct 2025: 692 total (+166 this month)</text>
  </g>
  <g class="hoverpoint">
    <line x1="758.1" y1="30" x2="758.1" y2="160.0" class="guide"/>
    <circle cx="758.1" cy="112.5" r="16" class="hit"/>
    <circle cx="758.1" cy="112.5" r="4" class="hover-dot"><title>Nov 2025: 731 total (+39 this month)</title></circle>
    <rect x="688.1" y="86.5" width="140" height="20" rx="4" class="tooltip-bg"/>
    <text x="758.1" y="100.5" class="tooltip-text" text-anchor="middle">Nov 2025: 731 total (+39 this month)</text>
  </g>
  <g class="hoverpoint">
    <line x1="770.2" y1="30" x2="770.2" y2="160.0" class="guide"/>
    <circle cx="770.2" cy="109.1" r="16" class="hit"/>
    <circle cx="770.2" cy="109.1" r="4" class="hover-dot"><title>Dec 2025: 783 total (+52 this month)</title></circle>
    <rect x="700.2" y="83.1" width="140" height="20" rx="4" class="tooltip-bg"/>
    <text x="770.2" y="97.1" class="tooltip-text" text-anchor="middle">Dec 2025: 783 total (+52 this month)</text>
  </g>
  <g class="hoverpoint">
    <line x1="782.3" y1="30" x2="782.3" y2="160.0" class="guide"/>
    <circle cx="782.3" cy="93.6" r="16" class="hit"/>
    <circle cx="782.3" cy="93.6" r="4" class="hover-dot"><title>Jan 2026: 1,022 total (+239 this month)</title></circle>
    <rect x="712.3" y="67.6" width="140" height="20" rx="4" class="tooltip-bg"/>
    <text x="782.3" y="81.6" class="tooltip-text" text-anchor="middle">Jan 2026: 1,022 total (+239 this month)</text>
  </g>
  <g class="hoverpoint">
    <line x1="793.1" y1="30" x2="793.1" y2="160.0" class="guide"/>
    <circle cx="793.1" cy="74.1" r="16" class="hit"/>
    <circle cx="793.1" cy="74.1" r="4" class="hover-dot"><title>Feb 2026: 1,321 total (+299 this month)</title></circle>
    <rect x="723.1" y="48.1" width="140" height="20" rx="4" class="tooltip-bg"/>
    <text x="793.1" y="62.1" class="tooltip-text" text-anchor="middle">Feb 2026: 1,321 total (+299 this month)</text>
  </g>
  <g class="hoverpoint">
    <line x1="805.2" y1="30" x2="805.2" y2="160.0" class="guide"/>
    <circle cx="805.2" cy="54.9" r="16" class="hit"/>
    <circle cx="805.2" cy="54.9" r="4" class="hover-dot"><title>Mar 2026: 1,617 total (+296 this month)</title></circle>
    <rect x="735.2" y="28.9" width="140" height="20" rx="4" class="tooltip-bg"/>
    <text x="805.2" y="42.9" class="tooltip-text" text-anchor="middle">Mar 2026: 1,617 total (+296 this month)</text>
  </g>
  <g class="hoverpoint">
    <line x1="816.5" y1="30" x2="816.5" y2="160.0" class="guide"/>
    <circle cx="816.5" cy="46.6" r="16" class="hit"/>
    <circle cx="816.5" cy="46.6" r="4" class="hover-dot"><title>Apr 2026: 1,744 total (+127 this month)</title></circle>
    <rect x="746.5" y="20.6" width="140" height="20" rx="4" class="tooltip-bg"/>
    <text x="816.5" y="34.6" class="tooltip-text" text-anchor="middle">Apr 2026: 1,744 total (+127 this month)</text>
  </g>
  <g class="hoverpoint">
    <line x1="820.0" y1="30" x2="820.0" y2="160.0" class="guide"/>
    <circle cx="820.0" cy="42.2" r="16" class="hit"/>
    <circle cx="820.0" cy="42.2" r="4" class="hover-dot"><title>May 2026: 1,813 total (+69 this month)</title></circle>
    <rect x="750.0" y="16.2" width="140" height="20" rx="4" class="tooltip-bg"/>
    <text x="820.0" y="30.2" class="tooltip-text" text-anchor="middle">May 2026: 1,813 total (+69 this month)</text>
  </g>

  <circle cx="820.0" cy="42.2" r="4" class="dot"/>
  <text x="810.0" y="32.2" class="total">1,813</text>

</svg>