<svg xmlns="http://www.w3.org/2000/svg" width="840" height="196" viewBox="0 0 840 196" fill="none">
  <style>
    .label { font-family: -apple-system, BlinkMacSystemFont, 'Segoe UI', Helvetica, Arial, sans-serif; font-size: 10px; fill: #8b949e; }
    .title { font-family: -apple-system, BlinkMacSystemFont, 'Segoe UI', Helvetica, Arial, sans-serif; font-size: 11px; fill: #8b949e; font-weight: 600; }
    .total { font-family: -apple-system, BlinkMacSystemFont, 'Segoe UI', Helvetica, Arial, sans-serif; font-size: 11px; fill: #7ee787; font-weight: 600; }
    .grid { stroke: #21262d; stroke-width: 1; }
    .line { stroke: #7ee787; stroke-width: 2; stroke-linecap: round; stroke-linejoin: round; fill: none; }
    .dot { fill: #7ee787; }
    .area { fill: url(#areaGrad); }
    /* Hover interaction */
    .hoverpoint .guide { stroke: #7ee787; stroke-width: 1; stroke-dasharray: 2,2; opacity: 0; }
    .hoverpoint .hover-dot { fill: #7ee787; opacity: 0; }
    .hoverpoint .hit { fill: transparent; cursor: pointer; }
    .hoverpoint .tooltip-bg { fill: #161b22; stroke: #30363d; stroke-width: 1; opacity: 0; }
    .hoverpoint .tooltip-text { font-family: -apple-system, BlinkMacSystemFont, 'Segoe UI', Helvetica, Arial, sans-serif; font-size: 9px; fill: #c9d1d9; opacity: 0; }
    .hoverpoint:hover .guide { opacity: 0.5; }
    .hoverpoint:hover .hover-dot { opacity: 1; }
    .hoverpoint:hover .tooltip-bg { opacity: 0.95; }
    .hoverpoint:hover .tooltip-text { opacity: 1; }
  </style>
  <defs>
    <linearGradient id="areaGrad" x1="0" y1="0" x2="0" y2="1">
      <stop offset="0%" stop-color="#7ee787" stop-opacity="0.15"/>
      <stop offset="100%" stop-color="#7ee787" stop-opacity="0.01"/>
    </linearGradient>
  </defs>

  <text x="60" y="18" class="title">Cumulative Commits</text>

  <line x1="60" y1="160.0" x2="820" y2="160.0" class="grid"/>
  <text x="50" y="163.0" class="label" text-anchor="end">0</text>
  <line x1="60" y1="127.5" x2="820" y2="127.5" class="grid" stroke-dasharray="3,3"/>
  <text x="50" y="130.5" class="label" text-anchor="end">750</text>
  <line x1="60" y1="95.0" x2="820" y2="95.0" class="grid" stroke-dasharray="3,3"/>
  <text x="50" y="98.0" class="label" text-anchor="end">1,500</text>
  <line x1="60" y1="62.5" x2="820" y2="62.5" class="grid" stroke-dasharray="3,3"/>
  <text x="50" y="65.5" class="label" text-anchor="end">2,250</text>
  <line x1="60" y1="30.0" x2="820" y2="30.0" class="grid" stroke-dasharray="3,3"/>
  <text x="50" y="33.0" class="label" text-anchor="end">3,000</text>

  <text x="70.0" y="186" class="label" text-anchor="middle">2021</text>
  <text x="200.2" y="186" class="label" text-anchor="middle">2022</text>
  <text x="340.5" y="186" class="label" text-anchor="middle">2023</text>
  <text x="480.7" y="186" class="label" text-anchor="middle">2024</text>
  <text x="621.4" y="186" class="label" text-anchor="middle">2025</text>
  <text x="761.6" y="186" class="label" text-anchor="middle">2026</text>


  <path class="area" d="M60.0,160.0 L60.0,160.0 60.0,160.0 L180.3,159.8 L180.6,159.7 L181.8,159.7 L200.2,159.6 L200.6,159.3 L201.0,159.3 L201.4,159.1 L201.8,159.0 L202.2,159.0 L202.9,158.7 L203.3,158.6 L203.7,158.5 L204.1,158.5 L205.6,158.4 L206.0,158.3 L206.4,158.3 L210.2,158.2 L220.2,158.1 L272.9,158.1 L273.2,157.7 L274.8,157.6 L275.6,157.3 L281.3,157.2 L282.1,157.1 L282.5,156.9 L282.9,156.9 L283.6,156.8 L284.0,156.4 L284.4,156.0 L284.8,155.9 L286.3,155.8 L287.1,155.7 L289.0,155.6 L294.4,155.4 L304.8,155.3 L310.5,155.3 L313.2,155.2 L313.6,155.1 L314.0,155.0 L314.4,154.8 L315.5,154.5 L315.9,154.5 L316.3,154.5 L317.8,154.3 L318.2,154.1 L318.6,154.0 L319.0,153.6 L319.4,153.2 L319.7,153.1 L320.1,153.0 L320.9,152.9 L322.4,152.8 L326.7,152.7 L337.8,152.7 L338.2,152.5 L338.6,152.4 L342.4,152.0 L342.8,151.0 L343.9,150.9 L344.3,150.9 L346.2,150.7 L359.3,150.6 L359.7,150.5 L360.1,150.4 L360.8,150.2 L363.5,150.1 L364.3,149.9 L364.7,149.8 L366.6,149.7 L375.8,149.6 L564.9,149.5 L565.6,149.5 L566.4,149.4 L567.2,149.3 L567.6,149.3 L567.9,149.2 L568.3,149.2 L568.7,149.1 L572.6,149.1 L583.3,149.0 L586.4,149.0 L587.5,148.9 L589.8,148.9 L592.2,148.9 L592.5,148.8 L594.1,148.8 L595.2,148.7 L596.0,148.7 L624.4,148.6 L624.8,148.6 L625.6,148.5 L626.0,148.5 L627.1,148.3 L629.0,148.3 L634.4,148.2 L645.6,147.8 L645.9,147.7 L650.9,147.6 L651.3,147.5 L652.5,147.4 L654.0,147.3 L655.9,146.8 L656.3,145.6 L656.7,145.5 L659.0,145.4 L660.2,145.4 L660.5,145.4 L661.3,145.2 L664.4,145.1 L667.1,144.8 L669.0,144.5 L669.4,144.4 L670.5,144.1 L670.9,143.6 L671.3,143.5 L671.7,143.3 L672.1,143.1 L672.5,142.9 L673.2,142.6 L674.4,142.3 L688.2,142.2 L689.0,141.6 L697.4,141.5 L702.4,141.3 L704.7,141.2 L705.1,141.2 L707.4,141.2 L707.8,141.1 L708.2,141.1 L708.6,140.9 L709.0,140.8 L709.3,140.3 L709.7,140.2 L712.0,139.6 L712.4,139.5 L713.2,139.4 L715.9,139.2 L716.6,139.2 L717.0,139.0 L717.8,139.0 L718.2,138.7 L718.6,138.6 L719.3,138.5 L719.7,138.4 L720.1,138.4 L720.5,138.3 L722.0,138.1 L722.4,138.0 L722.8,137.9 L723.2,137.8 L723.6,137.7 L723.9,137.6 L725.1,137.4 L725.5,137.3 L725.9,137.2 L726.2,137.1 L726.6,136.8 L727.4,136.7 L727.8,136.3 L728.2,136.0 L728.6,135.2 L728.9,135.0 L729.3,134.8 L729.7,134.3 L730.1,134.3 L730.5,134.1 L730.9,134.1 L731.2,133.8 L733.2,133.3 L733.5,133.2 L733.9,132.8 L734.3,132.1 L734.7,132.0 L735.5,131.9 L735.9,131.3 L736.2,130.9 L736.6,130.9 L737.0,130.2 L737.8,130.0 L738.2,129.9 L738.5,129.8 L738.9,129.8 L739.3,129.8 L739.7,129.7 L741.2,129.6 L742.0,129.5 L742.4,129.2 L742.8,129.0 L743.9,129.0 L745.8,128.9 L748.1,128.7 L748.5,128.6 L748.9,128.6 L749.3,128.3 L749.7,127.7 L750.1,127.7 L750.5,127.6 L750.8,127.5 L751.2,127.4 L751.6,127.1 L755.8,127.0 L756.2,126.9 L759.7,126.6 L760.4,126.3 L760.8,126.2 L761.2,126.1 L761.6,126.0 L762.8,125.9 L763.1,125.2 L763.5,123.7 L763.9,122.3 L764.3,122.3 L764.7,122.1 L765.4,121.9 L765.8,121.7 L766.2,121.4 L767.0,121.3 L767.4,120.9 L767.7,120.9 L768.5,120.3 L768.9,120.2 L769.3,119.9 L769.7,119.7 L770.1,119.4 L770.4,119.4 L771.6,119.0 L772.0,118.7 L772.4,117.7 L772.7,116.3 L773.1,115.7 L773.5,115.1 L773.9,115.0 L774.3,114.8 L774.7,114.6 L775.0,114.2 L775.4,113.8 L775.8,113.7 L776.2,113.4 L776.6,113.3 L777.0,113.0 L777.4,112.6 L777.7,112.3 L778.1,111.9 L778.5,111.8 L778.9,111.6 L779.3,110.9 L779.7,109.6 L780.0,109.4 L780.8,109.1 L781.2,109.0 L781.6,108.9 L782.0,106.8 L782.3,105.8 L782.7,104.9 L783.1,104.5 L783.5,102.9 L783.9,102.8 L784.3,102.7 L784.7,102.3 L785.0,101.6 L785.4,100.2 L785.8,98.8 L786.2,98.7 L786.6,98.4 L787.3,98.3 L787.7,97.5 L788.1,96.8 L788.5,95.9 L788.9,95.7 L789.3,95.7 L789.6,94.3 L790.0,92.6 L790.4,91.9 L790.8,91.5 L791.2,91.1 L791.6,90.7 L792.0,90.7 L792.7,90.5 L793.1,90.2 L793.5,90.1 L793.9,90.1 L794.3,90.0 L795.4,90.0 L795.8,89.9 L796.6,89.8 L797.3,89.8 L797.7,89.7 L798.5,89.1 L798.9,88.8 L799.3,88.4 L801.6,88.3 L801.9,88.0 L802.3,87.9 L802.7,87.5 L803.1,87.5 L803.5,87.4 L803.9,87.3 L804.2,86.7 L804.6,86.0 L805.0,85.8 L805.4,84.5 L805.8,84.3 L806.6,84.3 L806.9,84.2 L808.1,83.8 L808.5,83.3 L808.9,83.0 L809.2,82.7 L809.6,81.7 L810.0,78.0 L810.4,76.4 L810.8,76.1 L811.2,75.8 L811.5,75.2 L811.9,75.1 L812.3,69.9 L812.7,63.5 L813.1,61.6 L813.5,61.5 L813.9,60.6 L814.2,59.8 L814.6,56.0 L815.0,53.6 L815.4,50.1 L815.8,49.3 L816.2,49.2 L816.5,49.1 L816.9,47.9 L817.3,46.1 L817.7,42.1 L818.1,41.5 L818.5,40.7 L818.8,39.5 L819.2,38.9 L819.6,38.5 L820.0,37.2 L820.0,160.0 Z"/>
  <polyline class="line" points="60.0,160.0 180.3,159.8 180.6,159.7 181.8,159.7 200.2,159.6 200.6,159.3 201.0,159.3 201.4,159.1 201.8,159.0 202.2,159.0 202.9,158.7 203.3,158.6 203.7,158.5 204.1,158.5 205.6,158.4 206.0,158.3 206.4,158.3 210.2,158.2 220.2,158.1 272.9,158.1 273.2,157.7 274.8,157.6 275.6,157.3 281.3,157.2 282.1,157.1 282.5,156.9 282.9,156.9 283.6,156.8 284.0,156.4 284.4,156.0 284.8,155.9 286.3,155.8 287.1,155.7 289.0,155.6 294.4,155.4 304.8,155.3 310.5,155.3 313.2,155.2 313.6,155.1 314.0,155.0 314.4,154.8 315.5,154.5 315.9,154.5 316.3,154.5 317.8,154.3 318.2,154.1 318.6,154.0 319.0,153.6 319.4,153.2 319.7,153.1 320.1,153.0 320.9,152.9 322.4,152.8 326.7,152.7 337.8,152.7 338.2,152.5 338.6,152.4 342.4,152.0 342.8,151.0 343.9,150.9 344.3,150.9 346.2,150.7 359.3,150.6 359.7,150.5 360.1,150.4 360.8,150.2 363.5,150.1 364.3,149.9 364.7,149.8 366.6,149.7 375.8,149.6 564.9,149.5 565.6,149.5 566.4,149.4 567.2,149.3 567.6,149.3 567.9,149.2 568.3,149.2 568.7,149.1 572.6,149.1 583.3,149.0 586.4,149.0 587.5,148.9 589.8,148.9 592.2,148.9 592.5,148.8 594.1,148.8 595.2,148.7 596.0,148.7 624.4,148.6 624.8,148.6 625.6,148.5 626.0,148.5 627.1,148.3 629.0,148.3 634.4,148.2 645.6,147.8 645.9,147.7 650.9,147.6 651.3,147.5 652.5,147.4 654.0,147.3 655.9,146.8 656.3,145.6 656.7,145.5 659.0,145.4 660.2,145.4 660.5,145.4 661.3,145.2 664.4,145.1 667.1,144.8 669.0,144.5 669.4,144.4 670.5,144.1 670.9,143.6 671.3,143.5 671.7,143.3 672.1,143.1 672.5,142.9 673.2,142.6 674.4,142.3 688.2,142.2 689.0,141.6 697.4,141.5 702.4,141.3 704.7,141.2 705.1,141.2 707.4,141.2 707.8,141.1 708.2,141.1 708.6,140.9 709.0,140.8 709.3,140.3 709.7,140.2 712.0,139.6 712.4,139.5 713.2,139.4 715.9,139.2 716.6,139.2 717.0,139.0 717.8,139.0 718.2,138.7 718.6,138.6 719.3,138.5 719.7,138.4 720.1,138.4 720.5,138.3 722.0,138.1 722.4,138.0 722.8,137.9 723.2,137.8 723.6,137.7 723.9,137.6 725.1,137.4 725.5,137.3 725.9,137.2 726.2,137.1 726.6,136.8 727.4,136.7 727.8,136.3 728.2,136.0 728.6,135.2 728.9,135.0 729.3,134.8 729.7,134.3 730.1,134.3 730.5,134.1 730.9,134.1 731.2,133.8 733.2,133.3 733.5,133.2 733.9,132.8 734.3,132.1 734.7,132.0 735.5,131.9 735.9,131.3 736.2,130.9 736.6,130.9 737.0,130.2 737.8,130.0 738.2,129.9 738.5,129.8 738.9,129.8 739.3,129.8 739.7,129.7 741.2,129.6 742.0,129.5 742.4,129.2 742.8,129.0 743.9,129.0 745.8,128.9 748.1,128.7 748.5,128.6 748.9,128.6 749.3,128.3 749.7,127.7 750.1,127.7 750.5,127.6 750.8,127.5 751.2,127.4 751.6,127.1 755.8,127.0 756.2,126.9 759.7,126.6 760.4,126.3 760.8,126.2 761.2,126.1 761.6,126.0 762.8,125.9 763.1,125.2 763.5,123.7 763.9,122.3 764.3,122.3 764.7,122.1 765.4,121.9 765.8,121.7 766.2,121.4 767.0,121.3 767.4,120.9 767.7,120.9 768.5,120.3 768.9,120.2 769.3,119.9 769.7,119.7 770.1,119.4 770.4,119.4 771.6,119.0 772.0,118.7 772.4,117.7 772.7,116.3 773.1,115.7 773.5,115.1 773.9,115.0 774.3,114.8 774.7,114.6 775.0,114.2 775.4,113.8 775.8,113.7 776.2,113.4 776.6,113.3 777.0,113.0 777.4,112.6 777.7,112.3 778.1,111.9 778.5,111.8 778.9,111.6 779.3,110.9 779.7,109.6 780.0,109.4 780.8,109.1 781.2,109.0 781.6,108.9 782.0,106.8 782.3,105.8 782.7,104.9 783.1,104.5 783.5,102.9 783.9,102.8 784.3,102.7 784.7,102.3 785.0,101.6 785.4,100.2 785.8,98.8 786.2,98.7 786.6,98.4 787.3,98.3 787.7,97.5 788.1,96.8 788.5,95.9 788.9,95.7 789.3,95.7 789.6,94.3 790.0,92.6 790.4,91.9 790.8,91.5 791.2,91.1 791.6,90.7 792.0,90.7 792.7,90.5 793.1,90.2 793.5,90.1 793.9,90.1 794.3,90.0 795.4,90.0 795.8,89.9 796.6,89.8 797.3,89.8 797.7,89.7 798.5,89.1 798.9,88.8 799.3,88.4 801.6,88.3 801.9,88.0 802.3,87.9 802.7,87.5 803.1,87.5 803.5,87.4 803.9,87.3 804.2,86.7 804.6,86.0 805.0,85.8 805.4,84.5 805.8,84.3 806.6,84.3 806.9,84.2 808.1,83.8 808.5,83.3 808.9,83.0 809.2,82.7 809.6,81.7 810.0,78.0 810.4,76.4 810.8,76.1 811.2,75.8 811.5,75.2 811.9,75.1 812.3,69.9 812.7,63.5 813.1,61.6 813.5,61.5 813.9,60.6 814.2,59.8 814.6,56.0 815.0,53.6 815.4,50.1 815.8,49.3 816.2,49.2 816.5,49.1 816.9,47.9 817.3,46.1 817.7,42.1 818.1,41.5 818.5,40.7 818.8,39.5 819.2,38.9 819.6,38.5 820.0,37.2"/>

  <g class="hoverpoint">
    <line x1="181.8" y1="30" x2="181.8" y2="160.0" class="guide"/>
    <circle cx="181.8" cy="159.7" r="16" class="hit"/>
    <circle cx="181.8" cy="159.7" r="4" class="hover-dot"><title>Nov 2021: 7 total (+7 this month)</title></circle>
    <rect x="111.8" y="133.7" width="140" height="20" rx="4" class="tooltip-bg"/>
    <text x="181.8" y="147.7" class="tooltip-text" text-anchor="middle">Nov 2021: 7 total (+7 this month)</text>
  </g>
  <g class="hoverpoint">
    <line x1="210.2" y1="30" x2="210.2" y2="160.0" class="guide"/>
    <circle cx="210.2" cy="158.2" r="16" class="hit"/>
    <circle cx="210.2" cy="158.2" r="4" class="hover-dot"><title>Jan 2022: 41 total (+34 this month)</title></circle>
    <rect x="140.2" y="132.2" width="140" height="20" rx="4" class="tooltip-bg"/>
    <text x="210.2" y="146.2" class="tooltip-text" text-anchor="middle">Jan 2022: 41 total (+34 this month)</text>
  </g>
  <g class="hoverpoint">
    <line x1="220.2" y1="30" x2="220.2" y2="160.0" class="guide"/>
    <circle cx="220.2" cy="158.1" r="16" class="hit"/>
    <circle cx="220.2" cy="158.1" r="4" class="hover-dot"><title>Feb 2022: 44 total (+3 this month)</title></circle>
    <rect x="150.2" y="132.1" width="140" height="20" rx="4" class="tooltip-bg"/>
    <text x="220.2" y="146.1" class="tooltip-text" text-anchor="middle">Feb 2022: 44 total (+3 this month)</text>
  </g>
  <g class="hoverpoint">
    <line x1="281.3" y1="30" x2="281.3" y2="160.0" class="guide"/>
    <circle cx="281.3" cy="157.2" r="16" class="hit"/>
    <circle cx="281.3" cy="157.2" r="4" class="hover-dot"><title>Jul 2022: 65 total (+21 this month)</title></circle>
    <rect x="211.3" y="131.2" width="140" height="20" rx="4" class="tooltip-bg"/>
    <text x="281.3" y="145.2" class="tooltip-text" text-anchor="middle">Jul 2022: 65 total (+21 this month)</text>
  </g>
  <g class="hoverpoint">
    <line x1="289.0" y1="30" x2="289.0" y2="160.0" class="guide"/>
    <circle cx="289.0" cy="155.6" r="16" class="hit"/>
    <circle cx="289.0" cy="155.6" r="4" class="hover-dot"><title>Aug 2022: 101 total (+36 this month)</title></circle>
    <rect x="219.0" y="129.6" width="140" height="20" rx="4" class="tooltip-bg"/>
    <text x="289.0" y="143.6" class="tooltip-text" text-anchor="middle">Aug 2022: 101 total (+36 this month)</text>
  </g>
  <g class="hoverpoint">
    <line x1="304.8" y1="30" x2="304.8" y2="160.0" class="guide"/>
    <circle cx="304.8" cy="155.3" r="16" class="hit"/>
    <circle cx="304.8" cy="155.3" r="4" class="hover-dot"><title>Sep 2022: 108 total (+7 this month)</title></circle>
    <rect x="234.8" y="129.3" width="140" height="20" rx="4" class="tooltip-bg"/>
    <text x="304.8" y="143.3" class="tooltip-text" text-anchor="middle">Sep 2022: 108 total (+7 this month)</text>
  </g>
  <g class="hoverpoint">
    <line x1="316.3" y1="30" x2="316.3" y2="160.0" class="guide"/>
    <circle cx="316.3" cy="154.5" r="16" class="hit"/>
    <circle cx="316.3" cy="154.5" r="4" class="hover-dot"><title>Oct 2022: 128 total (+20 this month)</title></circle>
    <rect x="246.3" y="128.5" width="140" height="20" rx="4" class="tooltip-bg"/>
    <text x="316.3" y="142.5" class="tooltip-text" text-anchor="middle">Oct 2022: 128 total (+20 this month)</text>
  </g>
  <g class="hoverpoint">
    <line x1="326.7" y1="30" x2="326.7" y2="160.0" class="guide"/>
    <circle cx="326.7" cy="152.7" r="16" class="hit"/>
    <circle cx="326.7" cy="152.7" r="4" class="hover-dot"><title>Nov 2022: 168 total (+40 this month)</title></circle>
    <rect x="256.7" y="126.7" width="140" height="20" rx="4" class="tooltip-bg"/>
    <text x="326.7" y="140.7" class="tooltip-text" text-anchor="middle">Nov 2022: 168 total (+40 this month)</text>
  </g>
  <g class="hoverpoint">
    <line x1="338.6" y1="30" x2="338.6" y2="160.0" class="guide"/>
    <circle cx="338.6" cy="152.4" r="16" class="hit"/>
    <circle cx="338.6" cy="152.4" r="4" class="hover-dot"><title>Dec 2022: 175 total (+7 this month)</title></circle>
    <rect x="268.6" y="126.4" width="140" height="20" rx="4" class="tooltip-bg"/>
    <text x="338.6" y="140.4" class="tooltip-text" text-anchor="middle">Dec 2022: 175 total (+7 this month)</text>
  </g>
  <g class="hoverpoint">
    <line x1="346.2" y1="30" x2="346.2" y2="160.0" class="guide"/>
    <circle cx="346.2" cy="150.7" r="16" class="hit"/>
    <circle cx="346.2" cy="150.7" r="4" class="hover-dot"><title>Jan 2023: 214 total (+39 this month)</title></circle>
    <rect x="276.2" y="124.7" width="140" height="20" rx="4" class="tooltip-bg"/>
    <text x="346.2" y="138.7" class="tooltip-text" text-anchor="middle">Jan 2023: 214 total (+39 this month)</text>
  </g>
  <g class="hoverpoint">
    <line x1="360.8" y1="30" x2="360.8" y2="160.0" class="guide"/>
    <circle cx="360.8" cy="150.2" r="16" class="hit"/>
    <circle cx="360.8" cy="150.2" r="4" class="hover-dot"><title>Feb 2023: 225 total (+11 this month)</title></circle>
    <rect x="290.8" y="124.2" width="140" height="20" rx="4" class="tooltip-bg"/>
    <text x="360.8" y="138.2" class="tooltip-text" text-anchor="middle">Feb 2023: 225 total (+11 this month)</text>
  </g>
  <g class="hoverpoint">
    <line x1="366.6" y1="30" x2="366.6" y2="160.0" class="guide"/>
    <circle cx="366.6" cy="149.7" r="16" class="hit"/>
    <circle cx="366.6" cy="149.7" r="4" class="hover-dot"><title>Mar 2023: 237 total (+12 this month)</title></circle>
    <rect x="296.6" y="123.7" width="140" height="20" rx="4" class="tooltip-bg"/>
    <text x="366.6" y="137.7" class="tooltip-text" text-anchor="middle">Mar 2023: 237 total (+12 this month)</text>
  </g>
  <g class="hoverpoint">
    <line x1="375.8" y1="30" x2="375.8" y2="160.0" class="guide"/>
    <circle cx="375.8" cy="149.6" r="16" class="hit"/>
    <circle cx="375.8" cy="149.6" r="4" class="hover-dot"><title>Apr 2023: 240 total (+3 this month)</title></circle>
    <rect x="305.8" y="123.6" width="140" height="20" rx="4" class="tooltip-bg"/>
    <text x="375.8" y="137.6" class="tooltip-text" text-anchor="middle">Apr 2023: 240 total (+3 this month)</text>
  </g>
  <g class="hoverpoint">
    <line x1="572.6" y1="30" x2="572.6" y2="160.0" class="guide"/>
    <circle cx="572.6" cy="149.1" r="16" class="hit"/>
    <circle cx="572.6" cy="149.1" r="4" class="hover-dot"><title>Aug 2024: 252 total (+12 this month)</title></circle>
    <rect x="502.6" y="123.1" width="140" height="20" rx="4" class="tooltip-bg"/>
    <text x="572.6" y="137.1" class="tooltip-text" text-anchor="middle">Aug 2024: 252 total (+12 this month)</text>
  </g>
  <g class="hoverpoint">
    <line x1="583.3" y1="30" x2="583.3" y2="160.0" class="guide"/>
    <circle cx="583.3" cy="149.0" r="16" class="hit"/>
    <circle cx="583.3" cy="149.0" r="4" class="hover-dot"><title>Sep 2024: 253 total (+1 this month)</title></circle>
    <rect x="513.3" y="123.0" width="140" height="20" rx="4" class="tooltip-bg"/>
    <text x="583.3" y="137.0" class="tooltip-text" text-anchor="middle">Sep 2024: 253 total (+1 this month)</text>
  </g>
  <g class="hoverpoint">
    <line x1="596.0" y1="30" x2="596.0" y2="160.0" class="guide"/>
    <circle cx="596.0" cy="148.7" r="16" class="hit"/>
    <circle cx="596.0" cy="148.7" r="4" class="hover-dot"><title>Oct 2024: 261 total (+8 this month)</title></circle>
    <rect x="526.0" y="122.7" width="140" height="20" rx="4" class="tooltip-bg"/>
    <text x="596.0" y="136.7" class="tooltip-text" text-anchor="middle">Oct 2024: 261 total (+8 this month)</text>
  </g>
  <g class="hoverpoint">
    <line x1="629.0" y1="30" x2="629.0" y2="160.0" class="guide"/>
    <circle cx="629.0" cy="148.3" r="16" class="hit"/>
    <circle cx="629.0" cy="148.3" r="4" class="hover-dot"><title>Jan 2025: 270 total (+9 this month)</title></circle>
    <rect x="559.0" y="122.3" width="140" height="20" rx="4" class="tooltip-bg"/>
    <text x="629.0" y="136.3" class="tooltip-text" text-anchor="middle">Jan 2025: 270 total (+9 this month)</text>
  </g>
  <g class="hoverpoint">
    <line x1="634.4" y1="30" x2="634.4" y2="160.0" class="guide"/>
    <circle cx="634.4" cy="148.2" r="16" class="hit"/>
    <circle cx="634.4" cy="148.2" r="4" class="hover-dot"><title>Feb 2025: 272 total (+2 this month)</title></circle>
    <rect x="564.4" y="122.2" width="140" height="20" rx="4" class="tooltip-bg"/>
    <text x="634.4" y="136.2" class="tooltip-text" text-anchor="middle">Feb 2025: 272 total (+2 this month)</text>
  </g>
  <g class="hoverpoint">
    <line x1="654.0" y1="30" x2="654.0" y2="160.0" class="guide"/>
    <circle cx="654.0" cy="147.3" r="16" class="hit"/>
    <circle cx="654.0" cy="147.3" r="4" class="hover-dot"><title>Mar 2025: 294 total (+22 this month)</title></circle>
    <rect x="584.0" y="121.3" width="140" height="20" rx="4" class="tooltip-bg"/>
    <text x="654.0" y="135.3" class="tooltip-text" text-anchor="middle">Mar 2025: 294 total (+22 this month)</text>
  </g>
  <g class="hoverpoint">
    <line x1="667.1" y1="30" x2="667.1" y2="160.0" class="guide"/>
    <circle cx="667.1" cy="144.8" r="16" class="hit"/>
    <circle cx="667.1" cy="144.8" r="4" class="hover-dot"><title>Apr 2025: 351 total (+57 this month)</title></circle>
    <rect x="597.1" y="118.8" width="140" height="20" rx="4" class="tooltip-bg"/>
    <text x="667.1" y="132.8" class="tooltip-text" text-anchor="middle">Apr 2025: 351 total (+57 this month)</text>
  </g>
  <g class="hoverpoint">
    <line x1="674.4" y1="30" x2="674.4" y2="160.0" class="guide"/>
    <circle cx="674.4" cy="142.3" r="16" class="hit"/>
    <circle cx="674.4" cy="142.3" r="4" class="hover-dot"><title>May 2025: 408 total (+57 this month)</title></circle>
    <rect x="604.4" y="116.3" width="140" height="20" rx="4" class="tooltip-bg"/>
    <text x="674.4" y="130.3" class="tooltip-text" text-anchor="middle">May 2025: 408 total (+57 this month)</text>
  </g>
  <g class="hoverpoint">
    <line x1="689.0" y1="30" x2="689.0" y2="160.0" class="guide"/>
    <circle cx="689.0" cy="141.6" r="16" class="hit"/>
    <circle cx="689.0" cy="141.6" r="4" class="hover-dot"><title>Jun 2025: 424 total (+16 this month)</title></circle>
    <rect x="619.0" y="115.6" width="140" height="20" rx="4" class="tooltip-bg"/>
    <text x="689.0" y="129.6" class="tooltip-text" text-anchor="middle">Jun 2025: 424 total (+16 this month)</text>
  </g>
  <g class="hoverpoint">
    <line x1="702.4" y1="30" x2="702.4" y2="160.0" class="guide"/>
    <circle cx="702.4" cy="141.3" r="16" class="hit"/>
    <circle cx="702.4" cy="141.3" r="4" class="hover-dot"><title>Jul 2025: 432 total (+8 this month)</title></circle>
    <rect x="632.4" y="115.3" width="140" height="20" rx="4" class="tooltip-bg"/>
    <text x="702.4" y="129.3" class="tooltip-text" text-anchor="middle">Jul 2025: 432 total (+8 this month)</text>
  </g>
  <g class="hoverpoint">
    <line x1="713.2" y1="30" x2="713.2" y2="160.0" class="guide"/>
    <circle cx="713.2" cy="139.4" r="16" class="hit"/>
    <circle cx="713.2" cy="139.4" r="4" class="hover-dot"><title>Aug 2025: 475 total (+43 this month)</title></circle>
    <rect x="643.2" y="113.4" width="140" height="20" rx="4" class="tooltip-bg"/>
    <text x="713.2" y="127.4" class="tooltip-text" text-anchor="middle">Aug 2025: 475 total (+43 this month)</text>
  </g>
  <g class="hoverpoint">
    <line x1="725.9" y1="30" x2="725.9" y2="160.0" class="guide"/>
    <circle cx="725.9" cy="137.2" r="16" class="hit"/>
    <circle cx="725.9" cy="137.2" r="4" class="hover-dot"><title>Sep 2025: 526 total (+51 this month)</title></circle>
    <rect x="655.9" y="111.2" width="140" height="20" rx="4" class="tooltip-bg"/>
    <text x="725.9" y="125.2" class="tooltip-text" text-anchor="middle">Sep 2025: 526 total (+51 this month)</text>
  </g>
  <g class="hoverpoint">
    <line x1="737.8" y1="30" x2="737.8" y2="160.0" class="guide"/>
    <circle cx="737.8" cy="130.0" r="16" class="hit"/>
    <circle cx="737.8" cy="130.0" r="4" class="hover-dot"><title>Oct 2025: 692 total (+166 this month)</title></circle>
    <rect x="667.8" y="104.0" width="140" height="20" rx="4" class="tooltip-bg"/>
    <text x="737.8" y="118.0" class="tooltip-text" text-anchor="middle">Oct 2025: 692 total (+166 this month)</text>
  </g>
  <g class="hoverpoint">
    <line x1="749.3" y1="30" x2="749.3" y2="160.0" class="guide"/>
    <circle cx="749.3" cy="128.3" r="16" class="hit"/>
    <circle cx="749.3" cy="128.3" r="4" class="hover-dot"><title>Nov 2025: 731 total (+39 this month)</title></circle>
    <rect x="679.3" y="102.3" width="140" height="20" rx="4" class="tooltip-bg"/>
    <text x="749.3" y="116.3" class="tooltip-text" text-anchor="middle">Nov 2025: 731 total (+39 this month)</text>
  </g>
  <g class="hoverpoint">
    <line x1="761.2" y1="30" x2="761.2" y2="160.0" class="guide"/>
    <circle cx="761.2" cy="126.1" r="16" class="hit"/>
    <circle cx="761.2" cy="126.1" r="4" class="hover-dot"><title>Dec 2025: 783 total (+52 this month)</title></circle>
    <rect x="691.2" y="100.1" width="140" height="20" rx="4" class="tooltip-bg"/>
    <text x="761.2" y="114.1" class="tooltip-text" text-anchor="middle">Dec 2025: 783 total (+52 this month)</text>
  </g>
  <g class="hoverpoint">
    <line x1="773.1" y1="30" x2="773.1" y2="160.0" class="guide"/>
    <circle cx="773.1" cy="115.7" r="16" class="hit"/>
    <circle cx="773.1" cy="115.7" r="4" class="hover-dot"><title>Jan 2026: 1,022 total (+239 this month)</title></circle>
    <rect x="703.1" y="89.7" width="140" height="20" rx="4" class="tooltip-bg"/>
    <text x="773.1" y="103.7" class="tooltip-text" text-anchor="middle">Jan 2026: 1,022 total (+239 this month)</text>
  </g>
  <g class="hoverpoint">
    <line x1="783.9" y1="30" x2="783.9" y2="160.0" class="guide"/>
    <circle cx="783.9" cy="102.8" r="16" class="hit"/>
    <circle cx="783.9" cy="102.8" r="4" class="hover-dot"><title>Feb 2026: 1,321 total (+299 this month)</title></circle>
    <rect x="713.9" y="76.8" width="140" height="20" rx="4" class="tooltip-bg"/>
    <text x="783.9" y="90.8" class="tooltip-text" text-anchor="middle">Feb 2026: 1,321 total (+299 this month)</text>
  </g>
  <g class="hoverpoint">
    <line x1="795.8" y1="30" x2="795.8" y2="160.0" class="guide"/>
    <circle cx="795.8" cy="89.9" r="16" class="hit"/>
    <circle cx="795.8" cy="89.9" r="4" class="hover-dot"><title>Mar 2026: 1,617 total (+296 this month)</title></circle>
    <rect x="725.8" y="63.9" width="140" height="20" rx="4" class="tooltip-bg"/>
    <text x="795.8" y="77.9" class="tooltip-text" text-anchor="middle">Mar 2026: 1,617 total (+296 this month)</text>
  </g>
  <g class="hoverpoint">
    <line x1="806.9" y1="30" x2="806.9" y2="160.0" class="guide"/>
    <circle cx="806.9" cy="84.2" r="16" class="hit"/>
    <circle cx="806.9" cy="84.2" r="4" class="hover-dot"><title>Apr 2026: 1,749 total (+132 this month)</title></circle>
    <rect x="736.9" y="58.2" width="140" height="20" rx="4" class="tooltip-bg"/>
    <text x="806.9" y="72.2" class="tooltip-text" text-anchor="middle">Apr 2026: 1,749 total (+132 this month)</text>
  </g>
  <g class="hoverpoint">
    <line x1="819.2" y1="30" x2="819.2" y2="160.0" class="guide"/>
    <circle cx="819.2" cy="38.9" r="16" class="hit"/>
    <circle cx="819.2" cy="38.9" r="4" class="hover-dot"><title>May 2026: 2,795 total (+1,046 this month)</title></circle>
    <rect x="749.2" y="12.9" width="140" height="20" rx="4" class="tooltip-bg"/>
    <text x="819.2" y="26.9" class="tooltip-text" text-anchor="middle">May 2026: 2,795 total (+1,046 this month)</text>
  </g>
  <g class="hoverpoint">
    <line x1="820.0" y1="30" x2="820.0" y2="160.0" class="guide"/>
    <circle cx="820.0" cy="37.2" r="16" class="hit"/>
    <circle cx="820.0" cy="37.2" r="4" class="hover-dot"><title>Jun 2026: 2,835 total (+40 this month)</title></circle>
    <rect x="750.0" y="11.2" width="140" height="20" rx="4" class="tooltip-bg"/>
    <text x="820.0" y="25.2" class="tooltip-text" text-anchor="middle">Jun 2026: 2,835 total (+40 this month)</text>
  </g>

  <circle cx="820.0" cy="37.2" r="4" class="dot"/>
  <text x="810.0" y="27.2" class="total">2,835</text>

</svg>