<svg xmlns="http://www.w3.org/2000/svg" width="840" height="196" viewBox="0 0 840 196" fill="none">
  <style>
    .label { font-family: -apple-system, BlinkMacSystemFont, 'Segoe UI', Helvetica, Arial, sans-serif; font-size: 10px; fill: #8b949e; }
    .title { font-family: -apple-system, BlinkMacSystemFont, 'Segoe UI', Helvetica, Arial, sans-serif; font-size: 11px; fill: #8b949e; font-weight: 600; }
    .total { font-family: -apple-system, BlinkMacSystemFont, 'Segoe UI', Helvetica, Arial, sans-serif; font-size: 11px; fill: #7ee787; font-weight: 600; }
    .grid { stroke: #21262d; stroke-width: 1; }
    .line { stroke: #7ee787; stroke-width: 2; stroke-linecap: round; stroke-linejoin: round; fill: none; }
    .dot { fill: #7ee787; }
    .area { fill: url(#areaGrad); }
    /* Hover interaction */
    .hoverpoint .guide { stroke: #7ee787; stroke-width: 1; stroke-dasharray: 2,2; opacity: 0; }
    .hoverpoint .hover-dot { fill: #7ee787; opacity: 0; }
    .hoverpoint .hit { fill: transparent; cursor: pointer; }
    .hoverpoint .tooltip-bg { fill: #161b22; stroke: #30363d; stroke-width: 1; opacity: 0; }
    .hoverpoint .tooltip-text { font-family: -apple-system, BlinkMacSystemFont, 'Segoe UI', Helvetica, Arial, sans-serif; font-size: 9px; fill: #c9d1d9; opacity: 0; }
    .hoverpoint:hover .guide { opacity: 0.5; }
    .hoverpoint:hover .hover-dot { opacity: 1; }
    .hoverpoint:hover .tooltip-bg { opacity: 0.95; }
    .hoverpoint:hover .tooltip-text { opacity: 1; }
  </style>
  <defs>
    <linearGradient id="areaGrad" x1="0" y1="0" x2="0" y2="1">
      <stop offset="0%" stop-color="#7ee787" stop-opacity="0.15"/>
      <stop offset="100%" stop-color="#7ee787" stop-opacity="0.01"/>
    </linearGradient>
  </defs>

  <text x="60" y="18" class="title">Cumulative Commits</text>

  <line x1="60" y1="160.0" x2="820" y2="160.0" class="grid"/>
  <text x="50" y="163.0" class="label" text-anchor="end">0</text>
  <line x1="60" y1="127.5" x2="820" y2="127.5" class="grid" stroke-dasharray="3,3"/>
  <text x="50" y="130.5" class="label" text-anchor="end">500</text>
  <line x1="60" y1="95.0" x2="820" y2="95.0" class="grid" stroke-dasharray="3,3"/>
  <text x="50" y="98.0" class="label" text-anchor="end">1,000</text>
  <line x1="60" y1="62.5" x2="820" y2="62.5" class="grid" stroke-dasharray="3,3"/>
  <text x="50" y="65.5" class="label" text-anchor="end">1,500</text>
  <line x1="60" y1="30.0" x2="820" y2="30.0" class="grid" stroke-dasharray="3,3"/>
  <text x="50" y="33.0" class="label" text-anchor="end">2,000</text>

  <text x="70.0" y="186" class="label" text-anchor="middle">2021</text>
  <text x="202.9" y="186" class="label" text-anchor="middle">2022</text>
  <text x="345.8" y="186" class="label" text-anchor="middle">2023</text>
  <text x="488.7" y="186" class="label" text-anchor="middle">2024</text>
  <text x="632.1" y="186" class="label" text-anchor="middle">2025</text>
  <text x="775.0" y="186" class="label" text-anchor="middle">2026</text>


  <path class="area" d="M60.0,160.0 L60.0,160.0 60.0,160.0 L182.6,159.7 L182.9,159.6 L184.1,159.5 L202.9,159.4 L203.3,159.0 L203.7,158.9 L204.1,158.6 L204.5,158.6 L204.9,158.4 L205.7,158.1 L206.0,157.9 L206.4,157.8 L206.8,157.7 L208.4,157.5 L208.8,157.5 L209.2,157.4 L213.1,157.3 L223.3,157.1 L276.9,157.1 L277.3,156.5 L278.9,156.4 L279.7,155.9 L285.5,155.8 L286.3,155.6 L286.7,155.4 L287.1,155.3 L287.9,155.1 L288.3,154.7 L288.7,154.0 L289.1,153.9 L290.6,153.6 L291.4,153.6 L293.4,153.4 L298.8,153.2 L309.4,153.0 L315.3,152.9 L318.0,152.8 L318.4,152.7 L318.8,152.5 L319.2,152.3 L320.4,151.8 L320.8,151.7 L321.2,151.7 L322.7,151.4 L323.1,151.1 L323.5,151.0 L323.9,150.4 L324.3,149.9 L324.7,149.7 L325.1,149.5 L325.9,149.4 L327.4,149.3 L331.7,149.1 L343.1,149.0 L343.5,148.7 L343.9,148.6 L347.8,148.0 L348.2,146.5 L349.4,146.3 L349.7,146.3 L351.7,146.1 L365.0,145.8 L365.4,145.7 L365.8,145.6 L366.6,145.4 L369.3,145.2 L370.1,144.9 L370.5,144.7 L372.5,144.6 L381.9,144.4 L574.5,144.3 L575.3,144.2 L576.1,144.1 L576.8,144.0 L577.2,143.9 L577.6,143.8 L578.0,143.8 L578.4,143.7 L582.3,143.6 L593.3,143.6 L596.4,143.5 L597.6,143.4 L599.9,143.4 L602.3,143.3 L602.7,143.2 L604.3,143.2 L605.4,143.1 L606.2,143.0 L635.2,143.0 L635.6,142.8 L636.4,142.8 L636.8,142.7 L637.9,142.5 L639.9,142.4 L645.4,142.3 L656.7,141.7 L657.1,141.5 L662.2,141.3 L662.6,141.2 L663.8,141.1 L665.3,140.9 L667.3,140.2 L667.7,138.4 L668.1,138.3 L670.4,138.2 L671.6,138.1 L672.0,138.0 L672.8,137.8 L675.9,137.7 L678.7,137.2 L680.6,136.7 L681.0,136.5 L682.2,136.2 L682.6,135.4 L683.0,135.2 L683.3,134.9 L683.7,134.7 L684.1,134.4 L684.9,133.9 L686.1,133.5 L700.2,133.3 L701.0,132.4 L709.6,132.2 L714.7,131.9 L717.0,131.9 L717.4,131.8 L719.8,131.7 L720.2,131.7 L720.5,131.6 L720.9,131.4 L721.3,131.1 L721.7,130.5 L722.1,130.4 L724.5,129.4 L724.9,129.3 L725.6,129.1 L728.4,128.8 L729.2,128.7 L729.6,128.5 L730.3,128.5 L730.7,128.0 L731.1,127.9 L731.9,127.8 L732.3,127.6 L732.7,127.6 L733.1,127.5 L734.6,127.1 L735.0,127.0 L735.4,126.8 L735.8,126.7 L736.2,126.6 L736.6,126.4 L737.8,126.1 L738.2,125.9 L738.6,125.8 L738.9,125.6 L739.3,125.2 L740.1,125.1 L740.5,124.4 L740.9,124.1 L741.3,122.8 L741.7,122.5 L742.1,122.2 L742.5,121.5 L742.9,121.4 L743.3,121.2 L743.6,121.1 L744.0,120.7 L746.0,120.0 L746.4,119.8 L746.8,119.2 L747.2,118.1 L747.6,118.0 L748.3,117.9 L748.7,116.9 L749.1,116.4 L749.5,116.3 L749.9,115.3 L750.7,115.0 L751.1,114.9 L751.5,114.8 L751.9,114.7 L752.3,114.6 L752.7,114.6 L754.2,114.4 L755.0,114.3 L755.4,113.8 L755.8,113.5 L757.0,113.5 L758.9,113.3 L761.3,113.1 L761.7,112.9 L762.1,112.9 L762.4,112.5 L762.8,111.6 L763.2,111.5 L763.6,111.4 L764.0,111.3 L764.4,111.1 L764.8,110.6 L769.1,110.5 L769.5,110.4 L773.0,109.9 L773.8,109.5 L774.2,109.4 L774.6,109.1 L775.0,109.0 L776.1,108.8 L776.5,107.9 L776.9,105.5 L777.3,103.5 L777.7,103.4 L778.1,103.1 L778.9,102.8 L779.3,102.5 L779.7,102.1 L780.5,102.0 L780.8,101.4 L781.2,101.3 L782.0,100.4 L782.4,100.3 L782.8,99.8 L783.2,99.5 L783.6,99.1 L784.0,99.0 L785.2,98.4 L785.5,98.1 L785.9,96.6 L786.3,94.4 L786.7,93.6 L787.1,92.6 L787.5,92.5 L787.9,92.1 L788.3,91.9 L788.7,91.4 L789.1,90.6 L789.5,90.6 L789.9,90.1 L790.2,90.0 L790.6,89.5 L791.0,89.0 L791.4,88.4 L791.8,87.8 L792.2,87.7 L792.6,87.5 L793.0,86.4 L793.4,84.4 L793.8,84.1 L794.5,83.7 L794.9,83.5 L795.3,83.4 L795.7,80.2 L796.1,78.8 L796.5,77.3 L796.9,76.8 L797.3,74.4 L797.7,74.1 L798.1,74.0 L798.5,73.5 L798.9,72.4 L799.2,70.4 L799.6,68.2 L800.0,68.1 L800.4,67.6 L801.2,67.5 L801.6,66.2 L802.0,65.2 L802.4,63.8 L802.8,63.6 L803.2,63.5 L803.6,61.4 L803.9,58.9 L804.3,57.8 L804.7,57.3 L805.1,56.6 L805.5,56.1 L805.9,56.0 L806.7,55.7 L807.1,55.3 L807.5,55.2 L807.9,55.1 L808.3,55.0 L809.4,55.0 L809.8,54.9 L810.6,54.8 L811.4,54.7 L811.8,54.6 L812.6,53.7 L813.0,53.1 L813.3,52.9 L815.7,52.8 L816.1,52.3 L816.5,52.2 L816.9,51.6 L817.3,51.6 L817.7,51.4 L818.0,51.3 L818.4,50.3 L818.8,49.4 L819.2,49.0 L819.6,47.1 L820.0,47.0 L820.0,160.0 Z"/>
  <polyline class="line" points="60.0,160.0 182.6,159.7 182.9,159.6 184.1,159.5 202.9,159.4 203.3,159.0 203.7,158.9 204.1,158.6 204.5,158.6 204.9,158.4 205.7,158.1 206.0,157.9 206.4,157.8 206.8,157.7 208.4,157.5 208.8,157.5 209.2,157.4 213.1,157.3 223.3,157.1 276.9,157.1 277.3,156.5 278.9,156.4 279.7,155.9 285.5,155.8 286.3,155.6 286.7,155.4 287.1,155.3 287.9,155.1 288.3,154.7 288.7,154.0 289.1,153.9 290.6,153.6 291.4,153.6 293.4,153.4 298.8,153.2 309.4,153.0 315.3,152.9 318.0,152.8 318.4,152.7 318.8,152.5 319.2,152.3 320.4,151.8 320.8,151.7 321.2,151.7 322.7,151.4 323.1,151.1 323.5,151.0 323.9,150.4 324.3,149.9 324.7,149.7 325.1,149.5 325.9,149.4 327.4,149.3 331.7,149.1 343.1,149.0 343.5,148.7 343.9,148.6 347.8,148.0 348.2,146.5 349.4,146.3 349.7,146.3 351.7,146.1 365.0,145.8 365.4,145.7 365.8,145.6 366.6,145.4 369.3,145.2 370.1,144.9 370.5,144.7 372.5,144.6 381.9,144.4 574.5,144.3 575.3,144.2 576.1,144.1 576.8,144.0 577.2,143.9 577.6,143.8 578.0,143.8 578.4,143.7 582.3,143.6 593.3,143.6 596.4,143.5 597.6,143.4 599.9,143.4 602.3,143.3 602.7,143.2 604.3,143.2 605.4,143.1 606.2,143.0 635.2,143.0 635.6,142.8 636.4,142.8 636.8,142.7 637.9,142.5 639.9,142.4 645.4,142.3 656.7,141.7 657.1,141.5 662.2,141.3 662.6,141.2 663.8,141.1 665.3,140.9 667.3,140.2 667.7,138.4 668.1,138.3 670.4,138.2 671.6,138.1 672.0,138.0 672.8,137.8 675.9,137.7 678.7,137.2 680.6,136.7 681.0,136.5 682.2,136.2 682.6,135.4 683.0,135.2 683.3,134.9 683.7,134.7 684.1,134.4 684.9,133.9 686.1,133.5 700.2,133.3 701.0,132.4 709.6,132.2 714.7,131.9 717.0,131.9 717.4,131.8 719.8,131.7 720.2,131.7 720.5,131.6 720.9,131.4 721.3,131.1 721.7,130.5 722.1,130.4 724.5,129.4 724.9,129.3 725.6,129.1 728.4,128.8 729.2,128.7 729.6,128.5 730.3,128.5 730.7,128.0 731.1,127.9 731.9,127.8 732.3,127.6 732.7,127.6 733.1,127.5 734.6,127.1 735.0,127.0 735.4,126.8 735.8,126.7 736.2,126.6 736.6,126.4 737.8,126.1 738.2,125.9 738.6,125.8 738.9,125.6 739.3,125.2 740.1,125.1 740.5,124.4 740.9,124.1 741.3,122.8 741.7,122.5 742.1,122.2 742.5,121.5 742.9,121.4 743.3,121.2 743.6,121.1 744.0,120.7 746.0,120.0 746.4,119.8 746.8,119.2 747.2,118.1 747.6,118.0 748.3,117.9 748.7,116.9 749.1,116.4 749.5,116.3 749.9,115.3 750.7,115.0 751.1,114.9 751.5,114.8 751.9,114.7 752.3,114.6 752.7,114.6 754.2,114.4 755.0,114.3 755.4,113.8 755.8,113.5 757.0,113.5 758.9,113.3 761.3,113.1 761.7,112.9 762.1,112.9 762.4,112.5 762.8,111.6 763.2,111.5 763.6,111.4 764.0,111.3 764.4,111.1 764.8,110.6 769.1,110.5 769.5,110.4 773.0,109.9 773.8,109.5 774.2,109.4 774.6,109.1 775.0,109.0 776.1,108.8 776.5,107.9 776.9,105.5 777.3,103.5 777.7,103.4 778.1,103.1 778.9,102.8 779.3,102.5 779.7,102.1 780.5,102.0 780.8,101.4 781.2,101.3 782.0,100.4 782.4,100.3 782.8,99.8 783.2,99.5 783.6,99.1 784.0,99.0 785.2,98.4 785.5,98.1 785.9,96.6 786.3,94.4 786.7,93.6 787.1,92.6 787.5,92.5 787.9,92.1 788.3,91.9 788.7,91.4 789.1,90.6 789.5,90.6 789.9,90.1 790.2,90.0 790.6,89.5 791.0,89.0 791.4,88.4 791.8,87.8 792.2,87.7 792.6,87.5 793.0,86.4 793.4,84.4 793.8,84.1 794.5,83.7 794.9,83.5 795.3,83.4 795.7,80.2 796.1,78.8 796.5,77.3 796.9,76.8 797.3,74.4 797.7,74.1 798.1,74.0 798.5,73.5 798.9,72.4 799.2,70.4 799.6,68.2 800.0,68.1 800.4,67.6 801.2,67.5 801.6,66.2 802.0,65.2 802.4,63.8 802.8,63.6 803.2,63.5 803.6,61.4 803.9,58.9 804.3,57.8 804.7,57.3 805.1,56.6 805.5,56.1 805.9,56.0 806.7,55.7 807.1,55.3 807.5,55.2 807.9,55.1 808.3,55.0 809.4,55.0 809.8,54.9 810.6,54.8 811.4,54.7 811.8,54.6 812.6,53.7 813.0,53.1 813.3,52.9 815.7,52.8 816.1,52.3 816.5,52.2 816.9,51.6 817.3,51.6 817.7,51.4 818.0,51.3 818.4,50.3 818.8,49.4 819.2,49.0 819.6,47.1 820.0,47.0"/>

  <g class="hoverpoint">
    <line x1="184.1" y1="30" x2="184.1" y2="160.0" class="guide"/>
    <circle cx="184.1" cy="159.5" r="16" class="hit"/>
    <circle cx="184.1" cy="159.5" r="4" class="hover-dot"><title>Nov 2021: 7 total (+7 this month)</title></circle>
    <rect x="114.1" y="133.5" width="140" height="20" rx="4" class="tooltip-bg"/>
    <text x="184.1" y="147.5" class="tooltip-text" text-anchor="middle">Nov 2021: 7 total (+7 this month)</text>
  </g>
  <g class="hoverpoint">
    <line x1="213.1" y1="30" x2="213.1" y2="160.0" class="guide"/>
    <circle cx="213.1" cy="157.3" r="16" class="hit"/>
    <circle cx="213.1" cy="157.3" r="4" class="hover-dot"><title>Jan 2022: 41 total (+34 this month)</title></circle>
    <rect x="143.1" y="131.3" width="140" height="20" rx="4" class="tooltip-bg"/>
    <text x="213.1" y="145.3" class="tooltip-text" text-anchor="middle">Jan 2022: 41 total (+34 this month)</text>
  </g>
  <g class="hoverpoint">
    <line x1="223.3" y1="30" x2="223.3" y2="160.0" class="guide"/>
    <circle cx="223.3" cy="157.1" r="16" class="hit"/>
    <circle cx="223.3" cy="157.1" r="4" class="hover-dot"><title>Feb 2022: 44 total (+3 this month)</title></circle>
    <rect x="153.3" y="131.1" width="140" height="20" rx="4" class="tooltip-bg"/>
    <text x="223.3" y="145.1" class="tooltip-text" text-anchor="middle">Feb 2022: 44 total (+3 this month)</text>
  </g>
  <g class="hoverpoint">
    <line x1="285.5" y1="30" x2="285.5" y2="160.0" class="guide"/>
    <circle cx="285.5" cy="155.8" r="16" class="hit"/>
    <circle cx="285.5" cy="155.8" r="4" class="hover-dot"><title>Jul 2022: 65 total (+21 this month)</title></circle>
    <rect x="215.5" y="129.8" width="140" height="20" rx="4" class="tooltip-bg"/>
    <text x="285.5" y="143.8" class="tooltip-text" text-anchor="middle">Jul 2022: 65 total (+21 this month)</text>
  </g>
  <g class="hoverpoint">
    <line x1="293.4" y1="30" x2="293.4" y2="160.0" class="guide"/>
    <circle cx="293.4" cy="153.4" r="16" class="hit"/>
    <circle cx="293.4" cy="153.4" r="4" class="hover-dot"><title>Aug 2022: 101 total (+36 this month)</title></circle>
    <rect x="223.4" y="127.4" width="140" height="20" rx="4" class="tooltip-bg"/>
    <text x="293.4" y="141.4" class="tooltip-text" text-anchor="middle">Aug 2022: 101 total (+36 this month)</text>
  </g>
  <g class="hoverpoint">
    <line x1="309.4" y1="30" x2="309.4" y2="160.0" class="guide"/>
    <circle cx="309.4" cy="153.0" r="16" class="hit"/>
    <circle cx="309.4" cy="153.0" r="4" class="hover-dot"><title>Sep 2022: 108 total (+7 this month)</title></circle>
    <rect x="239.4" y="127.0" width="140" height="20" rx="4" class="tooltip-bg"/>
    <text x="309.4" y="141.0" class="tooltip-text" text-anchor="middle">Sep 2022: 108 total (+7 this month)</text>
  </g>
  <g class="hoverpoint">
    <line x1="321.2" y1="30" x2="321.2" y2="160.0" class="guide"/>
    <circle cx="321.2" cy="151.7" r="16" class="hit"/>
    <circle cx="321.2" cy="151.7" r="4" class="hover-dot"><title>Oct 2022: 128 total (+20 this month)</title></circle>
    <rect x="251.2" y="125.7" width="140" height="20" rx="4" class="tooltip-bg"/>
    <text x="321.2" y="139.7" class="tooltip-text" text-anchor="middle">Oct 2022: 128 total (+20 this month)</text>
  </g>
  <g class="hoverpoint">
    <line x1="331.7" y1="30" x2="331.7" y2="160.0" class="guide"/>
    <circle cx="331.7" cy="149.1" r="16" class="hit"/>
    <circle cx="331.7" cy="149.1" r="4" class="hover-dot"><title>Nov 2022: 168 total (+40 this month)</title></circle>
    <rect x="261.7" y="123.1" width="140" height="20" rx="4" class="tooltip-bg"/>
    <text x="331.7" y="137.1" class="tooltip-text" text-anchor="middle">Nov 2022: 168 total (+40 this month)</text>
  </g>
  <g class="hoverpoint">
    <line x1="343.9" y1="30" x2="343.9" y2="160.0" class="guide"/>
    <circle cx="343.9" cy="148.6" r="16" class="hit"/>
    <circle cx="343.9" cy="148.6" r="4" class="hover-dot"><title>Dec 2022: 175 total (+7 this month)</title></circle>
    <rect x="273.9" y="122.6" width="140" height="20" rx="4" class="tooltip-bg"/>
    <text x="343.9" y="136.6" class="tooltip-text" text-anchor="middle">Dec 2022: 175 total (+7 this month)</text>
  </g>
  <g class="hoverpoint">
    <line x1="351.7" y1="30" x2="351.7" y2="160.0" class="guide"/>
    <circle cx="351.7" cy="146.1" r="16" class="hit"/>
    <circle cx="351.7" cy="146.1" r="4" class="hover-dot"><title>Jan 2023: 214 total (+39 this month)</title></circle>
    <rect x="281.7" y="120.1" width="140" height="20" rx="4" class="tooltip-bg"/>
    <text x="351.7" y="134.1" class="tooltip-text" text-anchor="middle">Jan 2023: 214 total (+39 this month)</text>
  </g>
  <g class="hoverpoint">
    <line x1="366.6" y1="30" x2="366.6" y2="160.0" class="guide"/>
    <circle cx="366.6" cy="145.4" r="16" class="hit"/>
    <circle cx="366.6" cy="145.4" r="4" class="hover-dot"><title>Feb 2023: 225 total (+11 this month)</title></circle>
    <rect x="296.6" y="119.4" width="140" height="20" rx="4" class="tooltip-bg"/>
    <text x="366.6" y="133.4" class="tooltip-text" text-anchor="middle">Feb 2023: 225 total (+11 this month)</text>
  </g>
  <g class="hoverpoint">
    <line x1="372.5" y1="30" x2="372.5" y2="160.0" class="guide"/>
    <circle cx="372.5" cy="144.6" r="16" class="hit"/>
    <circle cx="372.5" cy="144.6" r="4" class="hover-dot"><title>Mar 2023: 237 total (+12 this month)</title></circle>
    <rect x="302.5" y="118.6" width="140" height="20" rx="4" class="tooltip-bg"/>
    <text x="372.5" y="132.6" class="tooltip-text" text-anchor="middle">Mar 2023: 237 total (+12 this month)</text>
  </g>
  <g class="hoverpoint">
    <line x1="381.9" y1="30" x2="381.9" y2="160.0" class="guide"/>
    <circle cx="381.9" cy="144.4" r="16" class="hit"/>
    <circle cx="381.9" cy="144.4" r="4" class="hover-dot"><title>Apr 2023: 240 total (+3 this month)</title></circle>
    <rect x="311.9" y="118.4" width="140" height="20" rx="4" class="tooltip-bg"/>
    <text x="381.9" y="132.4" class="tooltip-text" text-anchor="middle">Apr 2023: 240 total (+3 this month)</text>
  </g>
  <g class="hoverpoint">
    <line x1="582.3" y1="30" x2="582.3" y2="160.0" class="guide"/>
    <circle cx="582.3" cy="143.6" r="16" class="hit"/>
    <circle cx="582.3" cy="143.6" r="4" class="hover-dot"><title>Aug 2024: 252 total (+12 this month)</title></circle>
    <rect x="512.3" y="117.6" width="140" height="20" rx="4" class="tooltip-bg"/>
    <text x="582.3" y="131.6" class="tooltip-text" text-anchor="middle">Aug 2024: 252 total (+12 this month)</text>
  </g>
  <g class="hoverpoint">
    <line x1="593.3" y1="30" x2="593.3" y2="160.0" class="guide"/>
    <circle cx="593.3" cy="143.6" r="16" class="hit"/>
    <circle cx="593.3" cy="143.6" r="4" class="hover-dot"><title>Sep 2024: 253 total (+1 this month)</title></circle>
    <rect x="523.3" y="117.6" width="140" height="20" rx="4" class="tooltip-bg"/>
    <text x="593.3" y="131.6" class="tooltip-text" text-anchor="middle">Sep 2024: 253 total (+1 this month)</text>
  </g>
  <g class="hoverpoint">
    <line x1="606.2" y1="30" x2="606.2" y2="160.0" class="guide"/>
    <circle cx="606.2" cy="143.0" r="16" class="hit"/>
    <circle cx="606.2" cy="143.0" r="4" class="hover-dot"><title>Oct 2024: 261 total (+8 this month)</title></circle>
    <rect x="536.2" y="117.0" width="140" height="20" rx="4" class="tooltip-bg"/>
    <text x="606.2" y="131.0" class="tooltip-text" text-anchor="middle">Oct 2024: 261 total (+8 this month)</text>
  </g>
  <g class="hoverpoint">
    <line x1="639.9" y1="30" x2="639.9" y2="160.0" class="guide"/>
    <circle cx="639.9" cy="142.4" r="16" class="hit"/>
    <circle cx="639.9" cy="142.4" r="4" class="hover-dot"><title>Jan 2025: 270 total (+9 this month)</title></circle>
    <rect x="569.9" y="116.4" width="140" height="20" rx="4" class="tooltip-bg"/>
    <text x="639.9" y="130.4" class="tooltip-text" text-anchor="middle">Jan 2025: 270 total (+9 this month)</text>
  </g>
  <g class="hoverpoint">
    <line x1="645.4" y1="30" x2="645.4" y2="160.0" class="guide"/>
    <circle cx="645.4" cy="142.3" r="16" class="hit"/>
    <circle cx="645.4" cy="142.3" r="4" class="hover-dot"><title>Feb 2025: 272 total (+2 this month)</title></circle>
    <rect x="575.4" y="116.3" width="140" height="20" rx="4" class="tooltip-bg"/>
    <text x="645.4" y="130.3" class="tooltip-text" text-anchor="middle">Feb 2025: 272 total (+2 this month)</text>
  </g>
  <g class="hoverpoint">
    <line x1="665.3" y1="30" x2="665.3" y2="160.0" class="guide"/>
    <circle cx="665.3" cy="140.9" r="16" class="hit"/>
    <circle cx="665.3" cy="140.9" r="4" class="hover-dot"><title>Mar 2025: 294 total (+22 this month)</title></circle>
    <rect x="595.3" y="114.9" width="140" height="20" rx="4" class="tooltip-bg"/>
    <text x="665.3" y="128.9" class="tooltip-text" text-anchor="middle">Mar 2025: 294 total (+22 this month)</text>
  </g>
  <g class="hoverpoint">
    <line x1="678.7" y1="30" x2="678.7" y2="160.0" class="guide"/>
    <circle cx="678.7" cy="137.2" r="16" class="hit"/>
    <circle cx="678.7" cy="137.2" r="4" class="hover-dot"><title>Apr 2025: 351 total (+57 this month)</title></circle>
    <rect x="608.7" y="111.2" width="140" height="20" rx="4" class="tooltip-bg"/>
    <text x="678.7" y="125.2" class="tooltip-text" text-anchor="middle">Apr 2025: 351 total (+57 this month)</text>
  </g>
  <g class="hoverpoint">
    <line x1="686.1" y1="30" x2="686.1" y2="160.0" class="guide"/>
    <circle cx="686.1" cy="133.5" r="16" class="hit"/>
    <circle cx="686.1" cy="133.5" r="4" class="hover-dot"><title>May 2025: 408 total (+57 this month)</title></circle>
    <rect x="616.1" y="107.5" width="140" height="20" rx="4" class="tooltip-bg"/>
    <text x="686.1" y="121.5" class="tooltip-text" text-anchor="middle">May 2025: 408 total (+57 this month)</text>
  </g>
  <g class="hoverpoint">
    <line x1="701.0" y1="30" x2="701.0" y2="160.0" class="guide"/>
    <circle cx="701.0" cy="132.4" r="16" class="hit"/>
    <circle cx="701.0" cy="132.4" r="4" class="hover-dot"><title>Jun 2025: 424 total (+16 this month)</title></circle>
    <rect x="631.0" y="106.4" width="140" height="20" rx="4" class="tooltip-bg"/>
    <text x="701.0" y="120.4" class="tooltip-text" text-anchor="middle">Jun 2025: 424 total (+16 this month)</text>
  </g>
  <g class="hoverpoint">
    <line x1="714.7" y1="30" x2="714.7" y2="160.0" class="guide"/>
    <circle cx="714.7" cy="131.9" r="16" class="hit"/>
    <circle cx="714.7" cy="131.9" r="4" class="hover-dot"><title>Jul 2025: 432 total (+8 this month)</title></circle>
    <rect x="644.7" y="105.9" width="140" height="20" rx="4" class="tooltip-bg"/>
    <text x="714.7" y="119.9" class="tooltip-text" text-anchor="middle">Jul 2025: 432 total (+8 this month)</text>
  </g>
  <g class="hoverpoint">
    <line x1="725.6" y1="30" x2="725.6" y2="160.0" class="guide"/>
    <circle cx="725.6" cy="129.1" r="16" class="hit"/>
    <circle cx="725.6" cy="129.1" r="4" class="hover-dot"><title>Aug 2025: 475 total (+43 this month)</title></circle>
    <rect x="655.6" y="103.1" width="140" height="20" rx="4" class="tooltip-bg"/>
    <text x="725.6" y="117.1" class="tooltip-text" text-anchor="middle">Aug 2025: 475 total (+43 this month)</text>
  </g>
  <g class="hoverpoint">
    <line x1="738.6" y1="30" x2="738.6" y2="160.0" class="guide"/>
    <circle cx="738.6" cy="125.8" r="16" class="hit"/>
    <circle cx="738.6" cy="125.8" r="4" class="hover-dot"><title>Sep 2025: 526 total (+51 this month)</title></circle>
    <rect x="668.6" y="99.8" width="140" height="20" rx="4" class="tooltip-bg"/>
    <text x="738.6" y="113.8" class="tooltip-text" text-anchor="middle">Sep 2025: 526 total (+51 this month)</text>
  </g>
  <g class="hoverpoint">
    <line x1="750.7" y1="30" x2="750.7" y2="160.0" class="guide"/>
    <circle cx="750.7" cy="115.0" r="16" class="hit"/>
    <circle cx="750.7" cy="115.0" r="4" class="hover-dot"><title>Oct 2025: 692 total (+166 this month)</title></circle>
    <rect x="680.7" y="89.0" width="140" height="20" rx="4" class="tooltip-bg"/>
    <text x="750.7" y="103.0" class="tooltip-text" text-anchor="middle">Oct 2025: 692 total (+166 this month)</text>
  </g>
  <g class="hoverpoint">
    <line x1="762.4" y1="30" x2="762.4" y2="160.0" class="guide"/>
    <circle cx="762.4" cy="112.5" r="16" class="hit"/>
    <circle cx="762.4" cy="112.5" r="4" class="hover-dot"><title>Nov 2025: 731 total (+39 this month)</title></circle>
    <rect x="692.4" y="86.5" width="140" height="20" rx="4" class="tooltip-bg"/>
    <text x="762.4" y="100.5" class="tooltip-text" text-anchor="middle">Nov 2025: 731 total (+39 this month)</text>
  </g>
  <g class="hoverpoint">
    <line x1="774.6" y1="30" x2="774.6" y2="160.0" class="guide"/>
    <circle cx="774.6" cy="109.1" r="16" class="hit"/>
    <circle cx="774.6" cy="109.1" r="4" class="hover-dot"><title>Dec 2025: 783 total (+52 this month)</title></circle>
    <rect x="704.6" y="83.1" width="140" height="20" rx="4" class="tooltip-bg"/>
    <text x="774.6" y="97.1" class="tooltip-text" text-anchor="middle">Dec 2025: 783 total (+52 this month)</text>
  </g>
  <g class="hoverpoint">
    <line x1="786.7" y1="30" x2="786.7" y2="160.0" class="guide"/>
    <circle cx="786.7" cy="93.6" r="16" class="hit"/>
    <circle cx="786.7" cy="93.6" r="4" class="hover-dot"><title>Jan 2026: 1,022 total (+239 this month)</title></circle>
    <rect x="716.7" y="67.6" width="140" height="20" rx="4" class="tooltip-bg"/>
    <text x="786.7" y="81.6" class="tooltip-text" text-anchor="middle">Jan 2026: 1,022 total (+239 this month)</text>
  </g>
  <g class="hoverpoint">
    <line x1="797.7" y1="30" x2="797.7" y2="160.0" class="guide"/>
    <circle cx="797.7" cy="74.1" r="16" class="hit"/>
    <circle cx="797.7" cy="74.1" r="4" class="hover-dot"><title>Feb 2026: 1,321 total (+299 this month)</title></circle>
    <rect x="727.7" y="48.1" width="140" height="20" rx="4" class="tooltip-bg"/>
    <text x="797.7" y="62.1" class="tooltip-text" text-anchor="middle">Feb 2026: 1,321 total (+299 this month)</text>
  </g>
  <g class="hoverpoint">
    <line x1="809.8" y1="30" x2="809.8" y2="160.0" class="guide"/>
    <circle cx="809.8" cy="54.9" r="16" class="hit"/>
    <circle cx="809.8" cy="54.9" r="4" class="hover-dot"><title>Mar 2026: 1,617 total (+296 this month)</title></circle>
    <rect x="739.8" y="28.9" width="140" height="20" rx="4" class="tooltip-bg"/>
    <text x="809.8" y="42.9" class="tooltip-text" text-anchor="middle">Mar 2026: 1,617 total (+296 this month)</text>
  </g>
  <g class="hoverpoint">
    <line x1="820.0" y1="30" x2="820.0" y2="160.0" class="guide"/>
    <circle cx="820.0" cy="47.0" r="16" class="hit"/>
    <circle cx="820.0" cy="47.0" r="4" class="hover-dot"><title>Apr 2026: 1,739 total (+122 this month)</title></circle>
    <rect x="750.0" y="21.0" width="140" height="20" rx="4" class="tooltip-bg"/>
    <text x="820.0" y="35.0" class="tooltip-text" text-anchor="middle">Apr 2026: 1,739 total (+122 this month)</text>
  </g>

  <circle cx="820.0" cy="47.0" r="4" class="dot"/>
  <text x="810.0" y="37.0" class="total">1,739</text>

</svg>