<svg xmlns="http://www.w3.org/2000/svg" width="840" height="196" viewBox="0 0 840 196" fill="none">
  <style>
    .label { font-family: -apple-system, BlinkMacSystemFont, 'Segoe UI', Helvetica, Arial, sans-serif; font-size: 10px; fill: #8b949e; }
    .title { font-family: -apple-system, BlinkMacSystemFont, 'Segoe UI', Helvetica, Arial, sans-serif; font-size: 11px; fill: #8b949e; font-weight: 600; }
    .total { font-family: -apple-system, BlinkMacSystemFont, 'Segoe UI', Helvetica, Arial, sans-serif; font-size: 11px; fill: #7ee787; font-weight: 600; }
    .grid { stroke: #21262d; stroke-width: 1; }
    .line { stroke: #7ee787; stroke-width: 2; stroke-linecap: round; stroke-linejoin: round; fill: none; }
    .dot { fill: #7ee787; }
    .area { fill: url(#areaGrad); }
    /* Hover interaction */
    .hoverpoint .guide { stroke: #7ee787; stroke-width: 1; stroke-dasharray: 2,2; opacity: 0; }
    .hoverpoint .hover-dot { fill: #7ee787; opacity: 0; }
    .hoverpoint .hit { fill: transparent; cursor: pointer; }
    .hoverpoint .tooltip-bg { fill: #161b22; stroke: #30363d; stroke-width: 1; opacity: 0; }
    .hoverpoint .tooltip-text { font-family: -apple-system, BlinkMacSystemFont, 'Segoe UI', Helvetica, Arial, sans-serif; font-size: 9px; fill: #c9d1d9; opacity: 0; }
    .hoverpoint:hover .guide { opacity: 0.5; }
    .hoverpoint:hover .hover-dot { opacity: 1; }
    .hoverpoint:hover .tooltip-bg { opacity: 0.95; }
    .hoverpoint:hover .tooltip-text { opacity: 1; }
  </style>
  <defs>
    <linearGradient id="areaGrad" x1="0" y1="0" x2="0" y2="1">
      <stop offset="0%" stop-color="#7ee787" stop-opacity="0.15"/>
      <stop offset="100%" stop-color="#7ee787" stop-opacity="0.01"/>
    </linearGradient>
  </defs>

  <text x="60" y="18" class="title">Cumulative Commits</text>

  <line x1="60" y1="160.0" x2="820" y2="160.0" class="grid"/>
  <text x="50" y="163.0" class="label" text-anchor="end">0</text>
  <line x1="60" y1="127.5" x2="820" y2="127.5" class="grid" stroke-dasharray="3,3"/>
  <text x="50" y="130.5" class="label" text-anchor="end">750</text>
  <line x1="60" y1="95.0" x2="820" y2="95.0" class="grid" stroke-dasharray="3,3"/>
  <text x="50" y="98.0" class="label" text-anchor="end">1,500</text>
  <line x1="60" y1="62.5" x2="820" y2="62.5" class="grid" stroke-dasharray="3,3"/>
  <text x="50" y="65.5" class="label" text-anchor="end">2,250</text>
  <line x1="60" y1="30.0" x2="820" y2="30.0" class="grid" stroke-dasharray="3,3"/>
  <text x="50" y="33.0" class="label" text-anchor="end">3,000</text>

  <text x="70.0" y="186" class="label" text-anchor="middle">2021</text>
  <text x="201.3" y="186" class="label" text-anchor="middle">2022</text>
  <text x="342.6" y="186" class="label" text-anchor="middle">2023</text>
  <text x="483.9" y="186" class="label" text-anchor="middle">2024</text>
  <text x="625.6" y="186" class="label" text-anchor="middle">2025</text>
  <text x="767.0" y="186" class="label" text-anchor="middle">2026</text>


  <path class="area" d="M60.0,160.0 L60.0,160.0 60.0,160.0 L181.2,159.8 L181.6,159.7 L182.7,159.7 L201.3,159.6 L201.7,159.3 L202.1,159.3 L202.5,159.1 L202.9,159.0 L203.3,159.0 L204.0,158.7 L204.4,158.6 L204.8,158.5 L205.2,158.5 L206.7,158.4 L207.1,158.3 L207.5,158.3 L211.4,158.2 L221.4,158.1 L274.5,158.1 L274.9,157.7 L276.4,157.6 L277.2,157.3 L283.0,157.2 L283.8,157.1 L284.2,156.9 L284.6,156.9 L285.3,156.8 L285.7,156.4 L286.1,156.0 L286.5,155.9 L288.0,155.8 L288.8,155.7 L290.7,155.6 L296.2,155.4 L306.6,155.3 L312.4,155.3 L315.1,155.2 L315.5,155.1 L315.9,155.0 L316.3,154.8 L317.5,154.5 L317.9,154.5 L318.2,154.5 L319.8,154.3 L320.2,154.1 L320.6,154.0 L320.9,153.6 L321.3,153.2 L321.7,153.1 L322.1,153.0 L322.9,152.9 L324.4,152.8 L328.7,152.7 L339.9,152.7 L340.3,152.5 L340.7,152.4 L344.6,152.0 L345.0,151.0 L346.1,150.9 L346.5,150.9 L348.4,150.7 L361.6,150.6 L362.0,150.5 L362.4,150.4 L363.1,150.2 L365.9,150.1 L366.6,149.9 L367.0,149.8 L369.0,149.7 L378.2,149.6 L568.7,149.5 L569.5,149.5 L570.3,149.4 L571.1,149.3 L571.4,149.3 L571.8,149.2 L572.2,149.2 L572.6,149.1 L576.5,149.1 L587.3,149.0 L590.4,149.0 L591.6,148.9 L593.9,148.9 L596.2,148.9 L596.6,148.8 L598.2,148.8 L599.3,148.7 L600.1,148.7 L628.7,148.6 L629.1,148.6 L629.9,148.5 L630.3,148.5 L631.5,148.3 L633.4,148.3 L638.8,148.2 L650.0,147.8 L650.4,147.7 L655.5,147.6 L655.8,147.5 L657.0,147.4 L658.6,147.3 L660.5,146.8 L660.9,145.6 L661.3,145.5 L663.6,145.4 L664.7,145.4 L665.1,145.4 L665.9,145.2 L669.0,145.1 L671.7,144.8 L673.7,144.5 L674.0,144.4 L675.2,144.1 L675.6,143.6 L676.0,143.5 L676.4,143.3 L676.7,143.1 L677.1,142.9 L677.9,142.6 L679.1,142.3 L693.0,142.2 L693.8,141.6 L702.3,141.5 L707.3,141.3 L709.7,141.2 L710.0,141.2 L712.4,141.2 L712.8,141.1 L713.1,141.1 L713.5,140.9 L713.9,140.8 L714.3,140.3 L714.7,140.2 L717.0,139.6 L717.4,139.5 L718.2,139.4 L720.9,139.2 L721.7,139.2 L722.0,139.0 L722.8,139.0 L723.2,138.7 L723.6,138.6 L724.4,138.5 L724.8,138.4 L725.1,138.4 L725.5,138.3 L727.1,138.1 L727.5,138.0 L727.9,137.9 L728.2,137.8 L728.6,137.7 L729.0,137.6 L730.2,137.4 L730.6,137.3 L731.0,137.2 L731.3,137.1 L731.7,136.8 L732.5,136.7 L732.9,136.3 L733.3,136.0 L733.7,135.2 L734.0,135.0 L734.4,134.8 L734.8,134.3 L735.2,134.3 L735.6,134.1 L736.0,134.1 L736.4,133.8 L738.3,133.3 L738.7,133.2 L739.1,132.8 L739.5,132.1 L739.9,132.0 L740.6,131.9 L741.0,131.3 L741.4,130.9 L741.8,130.9 L742.2,130.2 L743.0,130.0 L743.3,129.9 L743.7,129.8 L744.1,129.8 L744.5,129.8 L744.9,129.7 L746.4,129.6 L747.2,129.5 L747.6,129.2 L748.0,129.0 L749.1,129.0 L751.1,128.9 L753.4,128.7 L753.8,128.6 L754.2,128.6 L754.6,128.3 L755.0,127.7 L755.3,127.7 L755.7,127.6 L756.1,127.5 L756.5,127.4 L756.9,127.1 L761.2,127.0 L761.5,126.9 L765.0,126.6 L765.8,126.3 L766.2,126.2 L766.6,126.1 L767.0,126.0 L768.1,125.9 L768.5,125.2 L768.9,123.7 L769.3,122.3 L769.7,122.3 L770.1,122.1 L770.8,121.9 L771.2,121.7 L771.6,121.4 L772.4,121.3 L772.8,120.9 L773.2,120.9 L773.9,120.3 L774.3,120.2 L774.7,119.9 L775.1,119.7 L775.5,119.4 L775.9,119.4 L777.0,119.0 L777.4,118.7 L777.8,117.7 L778.2,116.3 L778.6,115.7 L779.0,115.1 L779.3,115.0 L779.7,114.8 L780.1,114.6 L780.5,114.2 L780.9,113.8 L781.3,113.7 L781.7,113.4 L782.1,113.3 L782.4,113.0 L782.8,112.6 L783.2,112.3 L783.6,111.9 L784.0,111.8 L784.4,111.6 L784.8,110.9 L785.2,109.6 L785.5,109.4 L786.3,109.1 L786.7,109.0 L787.1,108.9 L787.5,106.8 L787.9,105.8 L788.3,104.9 L788.6,104.5 L789.0,102.9 L789.4,102.8 L789.8,102.7 L790.2,102.3 L790.6,101.6 L791.0,100.2 L791.3,98.8 L791.7,98.7 L792.1,98.4 L792.9,98.3 L793.3,97.5 L793.7,96.8 L794.1,95.9 L794.4,95.7 L794.8,95.7 L795.2,94.3 L795.6,92.6 L796.0,91.9 L796.4,91.5 L796.8,91.1 L797.2,90.7 L797.5,90.7 L798.3,90.5 L798.7,90.2 L799.1,90.1 L799.5,90.1 L799.9,90.0 L801.0,90.0 L801.4,89.9 L802.2,89.8 L803.0,89.8 L803.4,89.7 L804.1,89.1 L804.5,88.8 L804.9,88.6 L807.2,88.5 L807.6,88.2 L808.0,88.1 L808.4,87.8 L808.8,87.7 L809.2,87.6 L809.5,87.5 L809.9,86.9 L810.3,86.2 L810.7,86.0 L811.1,84.7 L811.5,84.5 L812.3,84.5 L812.6,84.4 L813.8,84.0 L814.2,83.5 L814.6,83.2 L815.0,82.9 L815.4,81.9 L815.7,78.2 L816.1,76.6 L816.5,76.4 L816.9,76.1 L817.3,75.4 L817.7,75.3 L818.1,70.1 L818.5,63.7 L818.8,61.8 L819.2,61.8 L819.6,60.8 L820.0,60.8 L820.0,160.0 Z"/>
  <polyline class="line" points="60.0,160.0 181.2,159.8 181.6,159.7 182.7,159.7 201.3,159.6 201.7,159.3 202.1,159.3 202.5,159.1 202.9,159.0 203.3,159.0 204.0,158.7 204.4,158.6 204.8,158.5 205.2,158.5 206.7,158.4 207.1,158.3 207.5,158.3 211.4,158.2 221.4,158.1 274.5,158.1 274.9,157.7 276.4,157.6 277.2,157.3 283.0,157.2 283.8,157.1 284.2,156.9 284.6,156.9 285.3,156.8 285.7,156.4 286.1,156.0 286.5,155.9 288.0,155.8 288.8,155.7 290.7,155.6 296.2,155.4 306.6,155.3 312.4,155.3 315.1,155.2 315.5,155.1 315.9,155.0 316.3,154.8 317.5,154.5 317.9,154.5 318.2,154.5 319.8,154.3 320.2,154.1 320.6,154.0 320.9,153.6 321.3,153.2 321.7,153.1 322.1,153.0 322.9,152.9 324.4,152.8 328.7,152.7 339.9,152.7 340.3,152.5 340.7,152.4 344.6,152.0 345.0,151.0 346.1,150.9 346.5,150.9 348.4,150.7 361.6,150.6 362.0,150.5 362.4,150.4 363.1,150.2 365.9,150.1 366.6,149.9 367.0,149.8 369.0,149.7 378.2,149.6 568.7,149.5 569.5,149.5 570.3,149.4 571.1,149.3 571.4,149.3 571.8,149.2 572.2,149.2 572.6,149.1 576.5,149.1 587.3,149.0 590.4,149.0 591.6,148.9 593.9,148.9 596.2,148.9 596.6,148.8 598.2,148.8 599.3,148.7 600.1,148.7 628.7,148.6 629.1,148.6 629.9,148.5 630.3,148.5 631.5,148.3 633.4,148.3 638.8,148.2 650.0,147.8 650.4,147.7 655.5,147.6 655.8,147.5 657.0,147.4 658.6,147.3 660.5,146.8 660.9,145.6 661.3,145.5 663.6,145.4 664.7,145.4 665.1,145.4 665.9,145.2 669.0,145.1 671.7,144.8 673.7,144.5 674.0,144.4 675.2,144.1 675.6,143.6 676.0,143.5 676.4,143.3 676.7,143.1 677.1,142.9 677.9,142.6 679.1,142.3 693.0,142.2 693.8,141.6 702.3,141.5 707.3,141.3 709.7,141.2 710.0,141.2 712.4,141.2 712.8,141.1 713.1,141.1 713.5,140.9 713.9,140.8 714.3,140.3 714.7,140.2 717.0,139.6 717.4,139.5 718.2,139.4 720.9,139.2 721.7,139.2 722.0,139.0 722.8,139.0 723.2,138.7 723.6,138.6 724.4,138.5 724.8,138.4 725.1,138.4 725.5,138.3 727.1,138.1 727.5,138.0 727.9,137.9 728.2,137.8 728.6,137.7 729.0,137.6 730.2,137.4 730.6,137.3 731.0,137.2 731.3,137.1 731.7,136.8 732.5,136.7 732.9,136.3 733.3,136.0 733.7,135.2 734.0,135.0 734.4,134.8 734.8,134.3 735.2,134.3 735.6,134.1 736.0,134.1 736.4,133.8 738.3,133.3 738.7,133.2 739.1,132.8 739.5,132.1 739.9,132.0 740.6,131.9 741.0,131.3 741.4,130.9 741.8,130.9 742.2,130.2 743.0,130.0 743.3,129.9 743.7,129.8 744.1,129.8 744.5,129.8 744.9,129.7 746.4,129.6 747.2,129.5 747.6,129.2 748.0,129.0 749.1,129.0 751.1,128.9 753.4,128.7 753.8,128.6 754.2,128.6 754.6,128.3 755.0,127.7 755.3,127.7 755.7,127.6 756.1,127.5 756.5,127.4 756.9,127.1 761.2,127.0 761.5,126.9 765.0,126.6 765.8,126.3 766.2,126.2 766.6,126.1 767.0,126.0 768.1,125.9 768.5,125.2 768.9,123.7 769.3,122.3 769.7,122.3 770.1,122.1 770.8,121.9 771.2,121.7 771.6,121.4 772.4,121.3 772.8,120.9 773.2,120.9 773.9,120.3 774.3,120.2 774.7,119.9 775.1,119.7 775.5,119.4 775.9,119.4 777.0,119.0 777.4,118.7 777.8,117.7 778.2,116.3 778.6,115.7 779.0,115.1 779.3,115.0 779.7,114.8 780.1,114.6 780.5,114.2 780.9,113.8 781.3,113.7 781.7,113.4 782.1,113.3 782.4,113.0 782.8,112.6 783.2,112.3 783.6,111.9 784.0,111.8 784.4,111.6 784.8,110.9 785.2,109.6 785.5,109.4 786.3,109.1 786.7,109.0 787.1,108.9 787.5,106.8 787.9,105.8 788.3,104.9 788.6,104.5 789.0,102.9 789.4,102.8 789.8,102.7 790.2,102.3 790.6,101.6 791.0,100.2 791.3,98.8 791.7,98.7 792.1,98.4 792.9,98.3 793.3,97.5 793.7,96.8 794.1,95.9 794.4,95.7 794.8,95.7 795.2,94.3 795.6,92.6 796.0,91.9 796.4,91.5 796.8,91.1 797.2,90.7 797.5,90.7 798.3,90.5 798.7,90.2 799.1,90.1 799.5,90.1 799.9,90.0 801.0,90.0 801.4,89.9 802.2,89.8 803.0,89.8 803.4,89.7 804.1,89.1 804.5,88.8 804.9,88.6 807.2,88.5 807.6,88.2 808.0,88.1 808.4,87.8 808.8,87.7 809.2,87.6 809.5,87.5 809.9,86.9 810.3,86.2 810.7,86.0 811.1,84.7 811.5,84.5 812.3,84.5 812.6,84.4 813.8,84.0 814.2,83.5 814.6,83.2 815.0,82.9 815.4,81.9 815.7,78.2 816.1,76.6 816.5,76.4 816.9,76.1 817.3,75.4 817.7,75.3 818.1,70.1 818.5,63.7 818.8,61.8 819.2,61.8 819.6,60.8 820.0,60.8"/>

  <g class="hoverpoint">
    <line x1="182.7" y1="30" x2="182.7" y2="160.0" class="guide"/>
    <circle cx="182.7" cy="159.7" r="16" class="hit"/>
    <circle cx="182.7" cy="159.7" r="4" class="hover-dot"><title>Nov 2021: 7 total (+7 this month)</title></circle>
    <rect x="112.7" y="133.7" width="140" height="20" rx="4" class="tooltip-bg"/>
    <text x="182.7" y="147.7" class="tooltip-text" text-anchor="middle">Nov 2021: 7 total (+7 this month)</text>
  </g>
  <g class="hoverpoint">
    <line x1="211.4" y1="30" x2="211.4" y2="160.0" class="guide"/>
    <circle cx="211.4" cy="158.2" r="16" class="hit"/>
    <circle cx="211.4" cy="158.2" r="4" class="hover-dot"><title>Jan 2022: 41 total (+34 this month)</title></circle>
    <rect x="141.4" y="132.2" width="140" height="20" rx="4" class="tooltip-bg"/>
    <text x="211.4" y="146.2" class="tooltip-text" text-anchor="middle">Jan 2022: 41 total (+34 this month)</text>
  </g>
  <g class="hoverpoint">
    <line x1="221.4" y1="30" x2="221.4" y2="160.0" class="guide"/>
    <circle cx="221.4" cy="158.1" r="16" class="hit"/>
    <circle cx="221.4" cy="158.1" r="4" class="hover-dot"><title>Feb 2022: 44 total (+3 this month)</title></circle>
    <rect x="151.4" y="132.1" width="140" height="20" rx="4" class="tooltip-bg"/>
    <text x="221.4" y="146.1" class="tooltip-text" text-anchor="middle">Feb 2022: 44 total (+3 this month)</text>
  </g>
  <g class="hoverpoint">
    <line x1="283.0" y1="30" x2="283.0" y2="160.0" class="guide"/>
    <circle cx="283.0" cy="157.2" r="16" class="hit"/>
    <circle cx="283.0" cy="157.2" r="4" class="hover-dot"><title>Jul 2022: 65 total (+21 this month)</title></circle>
    <rect x="213.0" y="131.2" width="140" height="20" rx="4" class="tooltip-bg"/>
    <text x="283.0" y="145.2" class="tooltip-text" text-anchor="middle">Jul 2022: 65 total (+21 this month)</text>
  </g>
  <g class="hoverpoint">
    <line x1="290.7" y1="30" x2="290.7" y2="160.0" class="guide"/>
    <circle cx="290.7" cy="155.6" r="16" class="hit"/>
    <circle cx="290.7" cy="155.6" r="4" class="hover-dot"><title>Aug 2022: 101 total (+36 this month)</title></circle>
    <rect x="220.7" y="129.6" width="140" height="20" rx="4" class="tooltip-bg"/>
    <text x="290.7" y="143.6" class="tooltip-text" text-anchor="middle">Aug 2022: 101 total (+36 this month)</text>
  </g>
  <g class="hoverpoint">
    <line x1="306.6" y1="30" x2="306.6" y2="160.0" class="guide"/>
    <circle cx="306.6" cy="155.3" r="16" class="hit"/>
    <circle cx="306.6" cy="155.3" r="4" class="hover-dot"><title>Sep 2022: 108 total (+7 this month)</title></circle>
    <rect x="236.6" y="129.3" width="140" height="20" rx="4" class="tooltip-bg"/>
    <text x="306.6" y="143.3" class="tooltip-text" text-anchor="middle">Sep 2022: 108 total (+7 this month)</text>
  </g>
  <g class="hoverpoint">
    <line x1="318.2" y1="30" x2="318.2" y2="160.0" class="guide"/>
    <circle cx="318.2" cy="154.5" r="16" class="hit"/>
    <circle cx="318.2" cy="154.5" r="4" class="hover-dot"><title>Oct 2022: 128 total (+20 this month)</title></circle>
    <rect x="248.2" y="128.5" width="140" height="20" rx="4" class="tooltip-bg"/>
    <text x="318.2" y="142.5" class="tooltip-text" text-anchor="middle">Oct 2022: 128 total (+20 this month)</text>
  </g>
  <g class="hoverpoint">
    <line x1="328.7" y1="30" x2="328.7" y2="160.0" class="guide"/>
    <circle cx="328.7" cy="152.7" r="16" class="hit"/>
    <circle cx="328.7" cy="152.7" r="4" class="hover-dot"><title>Nov 2022: 168 total (+40 this month)</title></circle>
    <rect x="258.7" y="126.7" width="140" height="20" rx="4" class="tooltip-bg"/>
    <text x="328.7" y="140.7" class="tooltip-text" text-anchor="middle">Nov 2022: 168 total (+40 this month)</text>
  </g>
  <g class="hoverpoint">
    <line x1="340.7" y1="30" x2="340.7" y2="160.0" class="guide"/>
    <circle cx="340.7" cy="152.4" r="16" class="hit"/>
    <circle cx="340.7" cy="152.4" r="4" class="hover-dot"><title>Dec 2022: 175 total (+7 this month)</title></circle>
    <rect x="270.7" y="126.4" width="140" height="20" rx="4" class="tooltip-bg"/>
    <text x="340.7" y="140.4" class="tooltip-text" text-anchor="middle">Dec 2022: 175 total (+7 this month)</text>
  </g>
  <g class="hoverpoint">
    <line x1="348.4" y1="30" x2="348.4" y2="160.0" class="guide"/>
    <circle cx="348.4" cy="150.7" r="16" class="hit"/>
    <circle cx="348.4" cy="150.7" r="4" class="hover-dot"><title>Jan 2023: 214 total (+39 this month)</title></circle>
    <rect x="278.4" y="124.7" width="140" height="20" rx="4" class="tooltip-bg"/>
    <text x="348.4" y="138.7" class="tooltip-text" text-anchor="middle">Jan 2023: 214 total (+39 this month)</text>
  </g>
  <g class="hoverpoint">
    <line x1="363.1" y1="30" x2="363.1" y2="160.0" class="guide"/>
    <circle cx="363.1" cy="150.2" r="16" class="hit"/>
    <circle cx="363.1" cy="150.2" r="4" class="hover-dot"><title>Feb 2023: 225 total (+11 this month)</title></circle>
    <rect x="293.1" y="124.2" width="140" height="20" rx="4" class="tooltip-bg"/>
    <text x="363.1" y="138.2" class="tooltip-text" text-anchor="middle">Feb 2023: 225 total (+11 this month)</text>
  </g>
  <g class="hoverpoint">
    <line x1="369.0" y1="30" x2="369.0" y2="160.0" class="guide"/>
    <circle cx="369.0" cy="149.7" r="16" class="hit"/>
    <circle cx="369.0" cy="149.7" r="4" class="hover-dot"><title>Mar 2023: 237 total (+12 this month)</title></circle>
    <rect x="299.0" y="123.7" width="140" height="20" rx="4" class="tooltip-bg"/>
    <text x="369.0" y="137.7" class="tooltip-text" text-anchor="middle">Mar 2023: 237 total (+12 this month)</text>
  </g>
  <g class="hoverpoint">
    <line x1="378.2" y1="30" x2="378.2" y2="160.0" class="guide"/>
    <circle cx="378.2" cy="149.6" r="16" class="hit"/>
    <circle cx="378.2" cy="149.6" r="4" class="hover-dot"><title>Apr 2023: 240 total (+3 this month)</title></circle>
    <rect x="308.2" y="123.6" width="140" height="20" rx="4" class="tooltip-bg"/>
    <text x="378.2" y="137.6" class="tooltip-text" text-anchor="middle">Apr 2023: 240 total (+3 this month)</text>
  </g>
  <g class="hoverpoint">
    <line x1="576.5" y1="30" x2="576.5" y2="160.0" class="guide"/>
    <circle cx="576.5" cy="149.1" r="16" class="hit"/>
    <circle cx="576.5" cy="149.1" r="4" class="hover-dot"><title>Aug 2024: 252 total (+12 this month)</title></circle>
    <rect x="506.5" y="123.1" width="140" height="20" rx="4" class="tooltip-bg"/>
    <text x="576.5" y="137.1" class="tooltip-text" text-anchor="middle">Aug 2024: 252 total (+12 this month)</text>
  </g>
  <g class="hoverpoint">
    <line x1="587.3" y1="30" x2="587.3" y2="160.0" class="guide"/>
    <circle cx="587.3" cy="149.0" r="16" class="hit"/>
    <circle cx="587.3" cy="149.0" r="4" class="hover-dot"><title>Sep 2024: 253 total (+1 this month)</title></circle>
    <rect x="517.3" y="123.0" width="140" height="20" rx="4" class="tooltip-bg"/>
    <text x="587.3" y="137.0" class="tooltip-text" text-anchor="middle">Sep 2024: 253 total (+1 this month)</text>
  </g>
  <g class="hoverpoint">
    <line x1="600.1" y1="30" x2="600.1" y2="160.0" class="guide"/>
    <circle cx="600.1" cy="148.7" r="16" class="hit"/>
    <circle cx="600.1" cy="148.7" r="4" class="hover-dot"><title>Oct 2024: 261 total (+8 this month)</title></circle>
    <rect x="530.1" y="122.7" width="140" height="20" rx="4" class="tooltip-bg"/>
    <text x="600.1" y="136.7" class="tooltip-text" text-anchor="middle">Oct 2024: 261 total (+8 this month)</text>
  </g>
  <g class="hoverpoint">
    <line x1="633.4" y1="30" x2="633.4" y2="160.0" class="guide"/>
    <circle cx="633.4" cy="148.3" r="16" class="hit"/>
    <circle cx="633.4" cy="148.3" r="4" class="hover-dot"><title>Jan 2025: 270 total (+9 this month)</title></circle>
    <rect x="563.4" y="122.3" width="140" height="20" rx="4" class="tooltip-bg"/>
    <text x="633.4" y="136.3" class="tooltip-text" text-anchor="middle">Jan 2025: 270 total (+9 this month)</text>
  </g>
  <g class="hoverpoint">
    <line x1="638.8" y1="30" x2="638.8" y2="160.0" class="guide"/>
    <circle cx="638.8" cy="148.2" r="16" class="hit"/>
    <circle cx="638.8" cy="148.2" r="4" class="hover-dot"><title>Feb 2025: 272 total (+2 this month)</title></circle>
    <rect x="568.8" y="122.2" width="140" height="20" rx="4" class="tooltip-bg"/>
    <text x="638.8" y="136.2" class="tooltip-text" text-anchor="middle">Feb 2025: 272 total (+2 this month)</text>
  </g>
  <g class="hoverpoint">
    <line x1="658.6" y1="30" x2="658.6" y2="160.0" class="guide"/>
    <circle cx="658.6" cy="147.3" r="16" class="hit"/>
    <circle cx="658.6" cy="147.3" r="4" class="hover-dot"><title>Mar 2025: 294 total (+22 this month)</title></circle>
    <rect x="588.6" y="121.3" width="140" height="20" rx="4" class="tooltip-bg"/>
    <text x="658.6" y="135.3" class="tooltip-text" text-anchor="middle">Mar 2025: 294 total (+22 this month)</text>
  </g>
  <g class="hoverpoint">
    <line x1="671.7" y1="30" x2="671.7" y2="160.0" class="guide"/>
    <circle cx="671.7" cy="144.8" r="16" class="hit"/>
    <circle cx="671.7" cy="144.8" r="4" class="hover-dot"><title>Apr 2025: 351 total (+57 this month)</title></circle>
    <rect x="601.7" y="118.8" width="140" height="20" rx="4" class="tooltip-bg"/>
    <text x="671.7" y="132.8" class="tooltip-text" text-anchor="middle">Apr 2025: 351 total (+57 this month)</text>
  </g>
  <g class="hoverpoint">
    <line x1="679.1" y1="30" x2="679.1" y2="160.0" class="guide"/>
    <circle cx="679.1" cy="142.3" r="16" class="hit"/>
    <circle cx="679.1" cy="142.3" r="4" class="hover-dot"><title>May 2025: 408 total (+57 this month)</title></circle>
    <rect x="609.1" y="116.3" width="140" height="20" rx="4" class="tooltip-bg"/>
    <text x="679.1" y="130.3" class="tooltip-text" text-anchor="middle">May 2025: 408 total (+57 this month)</text>
  </g>
  <g class="hoverpoint">
    <line x1="693.8" y1="30" x2="693.8" y2="160.0" class="guide"/>
    <circle cx="693.8" cy="141.6" r="16" class="hit"/>
    <circle cx="693.8" cy="141.6" r="4" class="hover-dot"><title>Jun 2025: 424 total (+16 this month)</title></circle>
    <rect x="623.8" y="115.6" width="140" height="20" rx="4" class="tooltip-bg"/>
    <text x="693.8" y="129.6" class="tooltip-text" text-anchor="middle">Jun 2025: 424 total (+16 this month)</text>
  </g>
  <g class="hoverpoint">
    <line x1="707.3" y1="30" x2="707.3" y2="160.0" class="guide"/>
    <circle cx="707.3" cy="141.3" r="16" class="hit"/>
    <circle cx="707.3" cy="141.3" r="4" class="hover-dot"><title>Jul 2025: 432 total (+8 this month)</title></circle>
    <rect x="637.3" y="115.3" width="140" height="20" rx="4" class="tooltip-bg"/>
    <text x="707.3" y="129.3" class="tooltip-text" text-anchor="middle">Jul 2025: 432 total (+8 this month)</text>
  </g>
  <g class="hoverpoint">
    <line x1="718.2" y1="30" x2="718.2" y2="160.0" class="guide"/>
    <circle cx="718.2" cy="139.4" r="16" class="hit"/>
    <circle cx="718.2" cy="139.4" r="4" class="hover-dot"><title>Aug 2025: 475 total (+43 this month)</title></circle>
    <rect x="648.2" y="113.4" width="140" height="20" rx="4" class="tooltip-bg"/>
    <text x="718.2" y="127.4" class="tooltip-text" text-anchor="middle">Aug 2025: 475 total (+43 this month)</text>
  </g>
  <g class="hoverpoint">
    <line x1="731.0" y1="30" x2="731.0" y2="160.0" class="guide"/>
    <circle cx="731.0" cy="137.2" r="16" class="hit"/>
    <circle cx="731.0" cy="137.2" r="4" class="hover-dot"><title>Sep 2025: 526 total (+51 this month)</title></circle>
    <rect x="661.0" y="111.2" width="140" height="20" rx="4" class="tooltip-bg"/>
    <text x="731.0" y="125.2" class="tooltip-text" text-anchor="middle">Sep 2025: 526 total (+51 this month)</text>
  </g>
  <g class="hoverpoint">
    <line x1="743.0" y1="30" x2="743.0" y2="160.0" class="guide"/>
    <circle cx="743.0" cy="130.0" r="16" class="hit"/>
    <circle cx="743.0" cy="130.0" r="4" class="hover-dot"><title>Oct 2025: 692 total (+166 this month)</title></circle>
    <rect x="673.0" y="104.0" width="140" height="20" rx="4" class="tooltip-bg"/>
    <text x="743.0" y="118.0" class="tooltip-text" text-anchor="middle">Oct 2025: 692 total (+166 this month)</text>
  </g>
  <g class="hoverpoint">
    <line x1="754.6" y1="30" x2="754.6" y2="160.0" class="guide"/>
    <circle cx="754.6" cy="128.3" r="16" class="hit"/>
    <circle cx="754.6" cy="128.3" r="4" class="hover-dot"><title>Nov 2025: 731 total (+39 this month)</title></circle>
    <rect x="684.6" y="102.3" width="140" height="20" rx="4" class="tooltip-bg"/>
    <text x="754.6" y="116.3" class="tooltip-text" text-anchor="middle">Nov 2025: 731 total (+39 this month)</text>
  </g>
  <g class="hoverpoint">
    <line x1="766.6" y1="30" x2="766.6" y2="160.0" class="guide"/>
    <circle cx="766.6" cy="126.1" r="16" class="hit"/>
    <circle cx="766.6" cy="126.1" r="4" class="hover-dot"><title>Dec 2025: 783 total (+52 this month)</title></circle>
    <rect x="696.6" y="100.1" width="140" height="20" rx="4" class="tooltip-bg"/>
    <text x="766.6" y="114.1" class="tooltip-text" text-anchor="middle">Dec 2025: 783 total (+52 this month)</text>
  </g>
  <g class="hoverpoint">
    <line x1="778.6" y1="30" x2="778.6" y2="160.0" class="guide"/>
    <circle cx="778.6" cy="115.7" r="16" class="hit"/>
    <circle cx="778.6" cy="115.7" r="4" class="hover-dot"><title>Jan 2026: 1,022 total (+239 this month)</title></circle>
    <rect x="708.6" y="89.7" width="140" height="20" rx="4" class="tooltip-bg"/>
    <text x="778.6" y="103.7" class="tooltip-text" text-anchor="middle">Jan 2026: 1,022 total (+239 this month)</text>
  </g>
  <g class="hoverpoint">
    <line x1="789.4" y1="30" x2="789.4" y2="160.0" class="guide"/>
    <circle cx="789.4" cy="102.8" r="16" class="hit"/>
    <circle cx="789.4" cy="102.8" r="4" class="hover-dot"><title>Feb 2026: 1,321 total (+299 this month)</title></circle>
    <rect x="719.4" y="76.8" width="140" height="20" rx="4" class="tooltip-bg"/>
    <text x="789.4" y="90.8" class="tooltip-text" text-anchor="middle">Feb 2026: 1,321 total (+299 this month)</text>
  </g>
  <g class="hoverpoint">
    <line x1="801.4" y1="30" x2="801.4" y2="160.0" class="guide"/>
    <circle cx="801.4" cy="89.9" r="16" class="hit"/>
    <circle cx="801.4" cy="89.9" r="4" class="hover-dot"><title>Mar 2026: 1,617 total (+296 this month)</title></circle>
    <rect x="731.4" y="63.9" width="140" height="20" rx="4" class="tooltip-bg"/>
    <text x="801.4" y="77.9" class="tooltip-text" text-anchor="middle">Mar 2026: 1,617 total (+296 this month)</text>
  </g>
  <g class="hoverpoint">
    <line x1="812.6" y1="30" x2="812.6" y2="160.0" class="guide"/>
    <circle cx="812.6" cy="84.4" r="16" class="hit"/>
    <circle cx="812.6" cy="84.4" r="4" class="hover-dot"><title>Apr 2026: 1,744 total (+127 this month)</title></circle>
    <rect x="742.6" y="58.4" width="140" height="20" rx="4" class="tooltip-bg"/>
    <text x="812.6" y="72.4" class="tooltip-text" text-anchor="middle">Apr 2026: 1,744 total (+127 this month)</text>
  </g>
  <g class="hoverpoint">
    <line x1="820.0" y1="30" x2="820.0" y2="160.0" class="guide"/>
    <circle cx="820.0" cy="60.8" r="16" class="hit"/>
    <circle cx="820.0" cy="60.8" r="4" class="hover-dot"><title>May 2026: 2,290 total (+546 this month)</title></circle>
    <rect x="750.0" y="34.8" width="140" height="20" rx="4" class="tooltip-bg"/>
    <text x="820.0" y="48.8" class="tooltip-text" text-anchor="middle">May 2026: 2,290 total (+546 this month)</text>
  </g>

  <circle cx="820.0" cy="60.8" r="4" class="dot"/>
  <text x="810.0" y="50.8" class="total">2,290</text>

</svg>