<svg xmlns="http://www.w3.org/2000/svg" width="840" height="196" viewBox="0 0 840 196" fill="none">
  <style>
    .label { font-family: -apple-system, BlinkMacSystemFont, 'Segoe UI', Helvetica, Arial, sans-serif; font-size: 10px; fill: #8b949e; }
    .title { font-family: -apple-system, BlinkMacSystemFont, 'Segoe UI', Helvetica, Arial, sans-serif; font-size: 11px; fill: #8b949e; font-weight: 600; }
    .total { font-family: -apple-system, BlinkMacSystemFont, 'Segoe UI', Helvetica, Arial, sans-serif; font-size: 11px; fill: #7ee787; font-weight: 600; }
    .grid { stroke: #21262d; stroke-width: 1; }
    .line { stroke: #7ee787; stroke-width: 2; stroke-linecap: round; stroke-linejoin: round; fill: none; }
    .dot { fill: #7ee787; }
    .area { fill: url(#areaGrad); }
    /* Hover interaction */
    .hoverpoint .guide { stroke: #7ee787; stroke-width: 1; stroke-dasharray: 2,2; opacity: 0; }
    .hoverpoint .hover-dot { fill: #7ee787; opacity: 0; }
    .hoverpoint .hit { fill: transparent; cursor: pointer; }
    .hoverpoint .tooltip-bg { fill: #161b22; stroke: #30363d; stroke-width: 1; opacity: 0; }
    .hoverpoint .tooltip-text { font-family: -apple-system, BlinkMacSystemFont, 'Segoe UI', Helvetica, Arial, sans-serif; font-size: 9px; fill: #c9d1d9; opacity: 0; }
    .hoverpoint:hover .guide { opacity: 0.5; }
    .hoverpoint:hover .hover-dot { opacity: 1; }
    .hoverpoint:hover .tooltip-bg { opacity: 0.95; }
    .hoverpoint:hover .tooltip-text { opacity: 1; }
  </style>
  <defs>
    <linearGradient id="areaGrad" x1="0" y1="0" x2="0" y2="1">
      <stop offset="0%" stop-color="#7ee787" stop-opacity="0.15"/>
      <stop offset="100%" stop-color="#7ee787" stop-opacity="0.01"/>
    </linearGradient>
  </defs>

  <text x="60" y="18" class="title">Cumulative Commits</text>

  <line x1="60" y1="160.0" x2="820" y2="160.0" class="grid"/>
  <text x="50" y="163.0" class="label" text-anchor="end">0</text>
  <line x1="60" y1="127.5" x2="820" y2="127.5" class="grid" stroke-dasharray="3,3"/>
  <text x="50" y="130.5" class="label" text-anchor="end">750</text>
  <line x1="60" y1="95.0" x2="820" y2="95.0" class="grid" stroke-dasharray="3,3"/>
  <text x="50" y="98.0" class="label" text-anchor="end">1,500</text>
  <line x1="60" y1="62.5" x2="820" y2="62.5" class="grid" stroke-dasharray="3,3"/>
  <text x="50" y="65.5" class="label" text-anchor="end">2,250</text>
  <line x1="60" y1="30.0" x2="820" y2="30.0" class="grid" stroke-dasharray="3,3"/>
  <text x="50" y="33.0" class="label" text-anchor="end">3,000</text>

  <text x="70.0" y="186" class="label" text-anchor="middle">2021</text>
  <text x="200.5" y="186" class="label" text-anchor="middle">2022</text>
  <text x="340.9" y="186" class="label" text-anchor="middle">2023</text>
  <text x="481.4" y="186" class="label" text-anchor="middle">2024</text>
  <text x="622.2" y="186" class="label" text-anchor="middle">2025</text>
  <text x="762.7" y="186" class="label" text-anchor="middle">2026</text>


  <path class="area" d="M60.0,160.0 L60.0,160.0 60.0,160.0 L180.4,159.8 L180.8,159.7 L182.0,159.7 L200.5,159.6 L200.8,159.3 L201.2,159.3 L201.6,159.1 L202.0,159.0 L202.4,159.0 L203.1,158.7 L203.5,158.6 L203.9,158.5 L204.3,158.5 L205.8,158.4 L206.2,158.3 L206.6,158.3 L210.5,158.2 L220.5,158.1 L273.2,158.1 L273.6,157.7 L275.1,157.6 L275.9,157.3 L281.7,157.2 L282.4,157.1 L282.8,156.9 L283.2,156.9 L284.0,156.8 L284.3,156.4 L284.7,156.0 L285.1,155.9 L286.7,155.8 L287.4,155.7 L289.3,155.6 L294.7,155.4 L305.1,155.3 L310.9,155.3 L313.6,155.2 L314.0,155.1 L314.4,155.0 L314.7,154.8 L315.9,154.5 L316.3,154.5 L316.7,154.5 L318.2,154.3 L318.6,154.1 L319.0,154.0 L319.4,153.6 L319.7,153.2 L320.1,153.1 L320.5,153.0 L321.3,152.9 L322.8,152.8 L327.1,152.7 L338.2,152.7 L338.6,152.5 L339.0,152.4 L342.8,152.0 L343.2,151.0 L344.4,150.9 L344.8,150.9 L346.7,150.7 L359.8,150.6 L360.2,150.5 L360.5,150.4 L361.3,150.2 L364.0,150.1 L364.8,149.9 L365.2,149.8 L367.1,149.7 L376.3,149.6 L565.6,149.5 L566.4,149.5 L567.2,149.4 L567.9,149.3 L568.3,149.3 L568.7,149.2 L569.1,149.2 L569.5,149.1 L573.3,149.1 L584.1,149.0 L587.2,149.0 L588.3,148.9 L590.7,148.9 L593.0,148.9 L593.3,148.8 L594.9,148.8 L596.0,148.7 L596.8,148.7 L625.3,148.6 L625.7,148.6 L626.4,148.5 L626.8,148.5 L628.0,148.3 L629.9,148.3 L635.3,148.2 L646.5,147.8 L646.8,147.7 L651.8,147.6 L652.2,147.5 L653.4,147.4 L654.9,147.3 L656.8,146.8 L657.2,145.6 L657.6,145.5 L659.9,145.4 L661.1,145.4 L661.5,145.4 L662.2,145.2 L665.3,145.1 L668.0,144.8 L669.9,144.5 L670.3,144.4 L671.5,144.1 L671.8,143.6 L672.2,143.5 L672.6,143.3 L673.0,143.1 L673.4,142.9 L674.2,142.6 L675.3,142.3 L689.2,142.2 L689.9,141.6 L698.4,141.5 L703.4,141.3 L705.7,141.2 L706.1,141.2 L708.4,141.2 L708.8,141.1 L709.2,141.1 L709.6,140.9 L709.9,140.8 L710.3,140.3 L710.7,140.2 L713.0,139.6 L713.4,139.5 L714.2,139.4 L716.9,139.2 L717.6,139.2 L718.0,139.0 L718.8,139.0 L719.2,138.7 L719.6,138.6 L720.3,138.5 L720.7,138.4 L721.1,138.4 L721.5,138.3 L723.0,138.1 L723.4,138.0 L723.8,137.9 L724.2,137.8 L724.6,137.7 L725.0,137.6 L726.1,137.4 L726.5,137.3 L726.9,137.2 L727.3,137.1 L727.6,136.8 L728.4,136.7 L728.8,136.3 L729.2,136.0 L729.6,135.2 L730.0,135.0 L730.3,134.8 L730.7,134.3 L731.1,134.3 L731.5,134.1 L731.9,134.1 L732.3,133.8 L734.2,133.3 L734.6,133.2 L735.0,132.8 L735.3,132.1 L735.7,132.0 L736.5,131.9 L736.9,131.3 L737.3,130.9 L737.7,130.9 L738.0,130.2 L738.8,130.0 L739.2,129.9 L739.6,129.8 L740.0,129.8 L740.3,129.8 L740.7,129.7 L742.3,129.6 L743.0,129.5 L743.4,129.2 L743.8,129.0 L745.0,129.0 L746.9,128.9 L749.2,128.7 L749.6,128.6 L750.0,128.6 L750.3,128.3 L750.7,127.7 L751.1,127.7 L751.5,127.6 L751.9,127.5 L752.3,127.4 L752.7,127.1 L756.9,127.0 L757.3,126.9 L760.7,126.6 L761.5,126.3 L761.9,126.2 L762.3,126.1 L762.7,126.0 L763.8,125.9 L764.2,125.2 L764.6,123.7 L765.0,122.3 L765.4,122.3 L765.7,122.1 L766.5,121.9 L766.9,121.7 L767.3,121.4 L768.1,121.3 L768.4,120.9 L768.8,120.9 L769.6,120.3 L770.0,120.2 L770.4,119.9 L770.7,119.7 L771.1,119.4 L771.5,119.4 L772.7,119.0 L773.1,118.7 L773.4,117.7 L773.8,116.3 L774.2,115.7 L774.6,115.1 L775.0,115.0 L775.4,114.8 L775.7,114.6 L776.1,114.2 L776.5,113.8 L776.9,113.7 L777.3,113.4 L777.7,113.3 L778.1,113.0 L778.4,112.6 L778.8,112.3 L779.2,111.9 L779.6,111.8 L780.0,111.6 L780.4,110.9 L780.7,109.6 L781.1,109.4 L781.9,109.1 L782.3,109.0 L782.7,108.9 L783.1,106.8 L783.4,105.8 L783.8,104.9 L784.2,104.5 L784.6,102.9 L785.0,102.8 L785.4,102.7 L785.8,102.3 L786.1,101.6 L786.5,100.2 L786.9,98.8 L787.3,98.7 L787.7,98.4 L788.4,98.3 L788.8,97.5 L789.2,96.8 L789.6,95.9 L790.0,95.7 L790.4,95.7 L790.8,94.3 L791.1,92.6 L791.5,91.9 L791.9,91.5 L792.3,91.1 L792.7,90.7 L793.1,90.7 L793.8,90.5 L794.2,90.2 L794.6,90.1 L795.0,90.1 L795.4,90.0 L796.5,90.0 L796.9,89.9 L797.7,89.8 L798.5,89.8 L798.8,89.7 L799.6,89.1 L800.0,88.8 L800.4,88.4 L802.7,88.3 L803.1,88.0 L803.5,87.9 L803.8,87.5 L804.2,87.5 L804.6,87.4 L805.0,87.3 L805.4,86.7 L805.8,86.0 L806.1,85.8 L806.5,84.5 L806.9,84.3 L807.7,84.3 L808.1,84.2 L809.2,83.8 L809.6,83.3 L810.0,83.0 L810.4,82.7 L810.8,81.7 L811.1,78.0 L811.5,76.4 L811.9,76.1 L812.3,75.8 L812.7,75.2 L813.1,75.1 L813.5,69.9 L813.8,63.5 L814.2,61.6 L814.6,61.5 L815.0,60.6 L815.4,59.8 L815.8,56.0 L816.2,53.6 L816.5,50.1 L816.9,49.3 L817.3,49.2 L817.7,49.1 L818.1,47.9 L818.5,46.1 L818.8,42.1 L819.2,41.6 L819.6,40.8 L820.0,39.7 L820.0,160.0 Z"/>
  <polyline class="line" points="60.0,160.0 180.4,159.8 180.8,159.7 182.0,159.7 200.5,159.6 200.8,159.3 201.2,159.3 201.6,159.1 202.0,159.0 202.4,159.0 203.1,158.7 203.5,158.6 203.9,158.5 204.3,158.5 205.8,158.4 206.2,158.3 206.6,158.3 210.5,158.2 220.5,158.1 273.2,158.1 273.6,157.7 275.1,157.6 275.9,157.3 281.7,157.2 282.4,157.1 282.8,156.9 283.2,156.9 284.0,156.8 284.3,156.4 284.7,156.0 285.1,155.9 286.7,155.8 287.4,155.7 289.3,155.6 294.7,155.4 305.1,155.3 310.9,155.3 313.6,155.2 314.0,155.1 314.4,155.0 314.7,154.8 315.9,154.5 316.3,154.5 316.7,154.5 318.2,154.3 318.6,154.1 319.0,154.0 319.4,153.6 319.7,153.2 320.1,153.1 320.5,153.0 321.3,152.9 322.8,152.8 327.1,152.7 338.2,152.7 338.6,152.5 339.0,152.4 342.8,152.0 343.2,151.0 344.4,150.9 344.8,150.9 346.7,150.7 359.8,150.6 360.2,150.5 360.5,150.4 361.3,150.2 364.0,150.1 364.8,149.9 365.2,149.8 367.1,149.7 376.3,149.6 565.6,149.5 566.4,149.5 567.2,149.4 567.9,149.3 568.3,149.3 568.7,149.2 569.1,149.2 569.5,149.1 573.3,149.1 584.1,149.0 587.2,149.0 588.3,148.9 590.7,148.9 593.0,148.9 593.3,148.8 594.9,148.8 596.0,148.7 596.8,148.7 625.3,148.6 625.7,148.6 626.4,148.5 626.8,148.5 628.0,148.3 629.9,148.3 635.3,148.2 646.5,147.8 646.8,147.7 651.8,147.6 652.2,147.5 653.4,147.4 654.9,147.3 656.8,146.8 657.2,145.6 657.6,145.5 659.9,145.4 661.1,145.4 661.5,145.4 662.2,145.2 665.3,145.1 668.0,144.8 669.9,144.5 670.3,144.4 671.5,144.1 671.8,143.6 672.2,143.5 672.6,143.3 673.0,143.1 673.4,142.9 674.2,142.6 675.3,142.3 689.2,142.2 689.9,141.6 698.4,141.5 703.4,141.3 705.7,141.2 706.1,141.2 708.4,141.2 708.8,141.1 709.2,141.1 709.6,140.9 709.9,140.8 710.3,140.3 710.7,140.2 713.0,139.6 713.4,139.5 714.2,139.4 716.9,139.2 717.6,139.2 718.0,139.0 718.8,139.0 719.2,138.7 719.6,138.6 720.3,138.5 720.7,138.4 721.1,138.4 721.5,138.3 723.0,138.1 723.4,138.0 723.8,137.9 724.2,137.8 724.6,137.7 725.0,137.6 726.1,137.4 726.5,137.3 726.9,137.2 727.3,137.1 727.6,136.8 728.4,136.7 728.8,136.3 729.2,136.0 729.6,135.2 730.0,135.0 730.3,134.8 730.7,134.3 731.1,134.3 731.5,134.1 731.9,134.1 732.3,133.8 734.2,133.3 734.6,133.2 735.0,132.8 735.3,132.1 735.7,132.0 736.5,131.9 736.9,131.3 737.3,130.9 737.7,130.9 738.0,130.2 738.8,130.0 739.2,129.9 739.6,129.8 740.0,129.8 740.3,129.8 740.7,129.7 742.3,129.6 743.0,129.5 743.4,129.2 743.8,129.0 745.0,129.0 746.9,128.9 749.2,128.7 749.6,128.6 750.0,128.6 750.3,128.3 750.7,127.7 751.1,127.7 751.5,127.6 751.9,127.5 752.3,127.4 752.7,127.1 756.9,127.0 757.3,126.9 760.7,126.6 761.5,126.3 761.9,126.2 762.3,126.1 762.7,126.0 763.8,125.9 764.2,125.2 764.6,123.7 765.0,122.3 765.4,122.3 765.7,122.1 766.5,121.9 766.9,121.7 767.3,121.4 768.1,121.3 768.4,120.9 768.8,120.9 769.6,120.3 770.0,120.2 770.4,119.9 770.7,119.7 771.1,119.4 771.5,119.4 772.7,119.0 773.1,118.7 773.4,117.7 773.8,116.3 774.2,115.7 774.6,115.1 775.0,115.0 775.4,114.8 775.7,114.6 776.1,114.2 776.5,113.8 776.9,113.7 777.3,113.4 777.7,113.3 778.1,113.0 778.4,112.6 778.8,112.3 779.2,111.9 779.6,111.8 780.0,111.6 780.4,110.9 780.7,109.6 781.1,109.4 781.9,109.1 782.3,109.0 782.7,108.9 783.1,106.8 783.4,105.8 783.8,104.9 784.2,104.5 784.6,102.9 785.0,102.8 785.4,102.7 785.8,102.3 786.1,101.6 786.5,100.2 786.9,98.8 787.3,98.7 787.7,98.4 788.4,98.3 788.8,97.5 789.2,96.8 789.6,95.9 790.0,95.7 790.4,95.7 790.8,94.3 791.1,92.6 791.5,91.9 791.9,91.5 792.3,91.1 792.7,90.7 793.1,90.7 793.8,90.5 794.2,90.2 794.6,90.1 795.0,90.1 795.4,90.0 796.5,90.0 796.9,89.9 797.7,89.8 798.5,89.8 798.8,89.7 799.6,89.1 800.0,88.8 800.4,88.4 802.7,88.3 803.1,88.0 803.5,87.9 803.8,87.5 804.2,87.5 804.6,87.4 805.0,87.3 805.4,86.7 805.8,86.0 806.1,85.8 806.5,84.5 806.9,84.3 807.7,84.3 808.1,84.2 809.2,83.8 809.6,83.3 810.0,83.0 810.4,82.7 810.8,81.7 811.1,78.0 811.5,76.4 811.9,76.1 812.3,75.8 812.7,75.2 813.1,75.1 813.5,69.9 813.8,63.5 814.2,61.6 814.6,61.5 815.0,60.6 815.4,59.8 815.8,56.0 816.2,53.6 816.5,50.1 816.9,49.3 817.3,49.2 817.7,49.1 818.1,47.9 818.5,46.1 818.8,42.1 819.2,41.6 819.6,40.8 820.0,39.7"/>

  <g class="hoverpoint">
    <line x1="182.0" y1="30" x2="182.0" y2="160.0" class="guide"/>
    <circle cx="182.0" cy="159.7" r="16" class="hit"/>
    <circle cx="182.0" cy="159.7" r="4" class="hover-dot"><title>Nov 2021: 7 total (+7 this month)</title></circle>
    <rect x="112.0" y="133.7" width="140" height="20" rx="4" class="tooltip-bg"/>
    <text x="182.0" y="147.7" class="tooltip-text" text-anchor="middle">Nov 2021: 7 total (+7 this month)</text>
  </g>
  <g class="hoverpoint">
    <line x1="210.5" y1="30" x2="210.5" y2="160.0" class="guide"/>
    <circle cx="210.5" cy="158.2" r="16" class="hit"/>
    <circle cx="210.5" cy="158.2" r="4" class="hover-dot"><title>Jan 2022: 41 total (+34 this month)</title></circle>
    <rect x="140.5" y="132.2" width="140" height="20" rx="4" class="tooltip-bg"/>
    <text x="210.5" y="146.2" class="tooltip-text" text-anchor="middle">Jan 2022: 41 total (+34 this month)</text>
  </g>
  <g class="hoverpoint">
    <line x1="220.5" y1="30" x2="220.5" y2="160.0" class="guide"/>
    <circle cx="220.5" cy="158.1" r="16" class="hit"/>
    <circle cx="220.5" cy="158.1" r="4" class="hover-dot"><title>Feb 2022: 44 total (+3 this month)</title></circle>
    <rect x="150.5" y="132.1" width="140" height="20" rx="4" class="tooltip-bg"/>
    <text x="220.5" y="146.1" class="tooltip-text" text-anchor="middle">Feb 2022: 44 total (+3 this month)</text>
  </g>
  <g class="hoverpoint">
    <line x1="281.7" y1="30" x2="281.7" y2="160.0" class="guide"/>
    <circle cx="281.7" cy="157.2" r="16" class="hit"/>
    <circle cx="281.7" cy="157.2" r="4" class="hover-dot"><title>Jul 2022: 65 total (+21 this month)</title></circle>
    <rect x="211.7" y="131.2" width="140" height="20" rx="4" class="tooltip-bg"/>
    <text x="281.7" y="145.2" class="tooltip-text" text-anchor="middle">Jul 2022: 65 total (+21 this month)</text>
  </g>
  <g class="hoverpoint">
    <line x1="289.3" y1="30" x2="289.3" y2="160.0" class="guide"/>
    <circle cx="289.3" cy="155.6" r="16" class="hit"/>
    <circle cx="289.3" cy="155.6" r="4" class="hover-dot"><title>Aug 2022: 101 total (+36 this month)</title></circle>
    <rect x="219.3" y="129.6" width="140" height="20" rx="4" class="tooltip-bg"/>
    <text x="289.3" y="143.6" class="tooltip-text" text-anchor="middle">Aug 2022: 101 total (+36 this month)</text>
  </g>
  <g class="hoverpoint">
    <line x1="305.1" y1="30" x2="305.1" y2="160.0" class="guide"/>
    <circle cx="305.1" cy="155.3" r="16" class="hit"/>
    <circle cx="305.1" cy="155.3" r="4" class="hover-dot"><title>Sep 2022: 108 total (+7 this month)</title></circle>
    <rect x="235.1" y="129.3" width="140" height="20" rx="4" class="tooltip-bg"/>
    <text x="305.1" y="143.3" class="tooltip-text" text-anchor="middle">Sep 2022: 108 total (+7 this month)</text>
  </g>
  <g class="hoverpoint">
    <line x1="316.7" y1="30" x2="316.7" y2="160.0" class="guide"/>
    <circle cx="316.7" cy="154.5" r="16" class="hit"/>
    <circle cx="316.7" cy="154.5" r="4" class="hover-dot"><title>Oct 2022: 128 total (+20 this month)</title></circle>
    <rect x="246.7" y="128.5" width="140" height="20" rx="4" class="tooltip-bg"/>
    <text x="316.7" y="142.5" class="tooltip-text" text-anchor="middle">Oct 2022: 128 total (+20 this month)</text>
  </g>
  <g class="hoverpoint">
    <line x1="327.1" y1="30" x2="327.1" y2="160.0" class="guide"/>
    <circle cx="327.1" cy="152.7" r="16" class="hit"/>
    <circle cx="327.1" cy="152.7" r="4" class="hover-dot"><title>Nov 2022: 168 total (+40 this month)</title></circle>
    <rect x="257.1" y="126.7" width="140" height="20" rx="4" class="tooltip-bg"/>
    <text x="327.1" y="140.7" class="tooltip-text" text-anchor="middle">Nov 2022: 168 total (+40 this month)</text>
  </g>
  <g class="hoverpoint">
    <line x1="339.0" y1="30" x2="339.0" y2="160.0" class="guide"/>
    <circle cx="339.0" cy="152.4" r="16" class="hit"/>
    <circle cx="339.0" cy="152.4" r="4" class="hover-dot"><title>Dec 2022: 175 total (+7 this month)</title></circle>
    <rect x="269.0" y="126.4" width="140" height="20" rx="4" class="tooltip-bg"/>
    <text x="339.0" y="140.4" class="tooltip-text" text-anchor="middle">Dec 2022: 175 total (+7 this month)</text>
  </g>
  <g class="hoverpoint">
    <line x1="346.7" y1="30" x2="346.7" y2="160.0" class="guide"/>
    <circle cx="346.7" cy="150.7" r="16" class="hit"/>
    <circle cx="346.7" cy="150.7" r="4" class="hover-dot"><title>Jan 2023: 214 total (+39 this month)</title></circle>
    <rect x="276.7" y="124.7" width="140" height="20" rx="4" class="tooltip-bg"/>
    <text x="346.7" y="138.7" class="tooltip-text" text-anchor="middle">Jan 2023: 214 total (+39 this month)</text>
  </g>
  <g class="hoverpoint">
    <line x1="361.3" y1="30" x2="361.3" y2="160.0" class="guide"/>
    <circle cx="361.3" cy="150.2" r="16" class="hit"/>
    <circle cx="361.3" cy="150.2" r="4" class="hover-dot"><title>Feb 2023: 225 total (+11 this month)</title></circle>
    <rect x="291.3" y="124.2" width="140" height="20" rx="4" class="tooltip-bg"/>
    <text x="361.3" y="138.2" class="tooltip-text" text-anchor="middle">Feb 2023: 225 total (+11 this month)</text>
  </g>
  <g class="hoverpoint">
    <line x1="367.1" y1="30" x2="367.1" y2="160.0" class="guide"/>
    <circle cx="367.1" cy="149.7" r="16" class="hit"/>
    <circle cx="367.1" cy="149.7" r="4" class="hover-dot"><title>Mar 2023: 237 total (+12 this month)</title></circle>
    <rect x="297.1" y="123.7" width="140" height="20" rx="4" class="tooltip-bg"/>
    <text x="367.1" y="137.7" class="tooltip-text" text-anchor="middle">Mar 2023: 237 total (+12 this month)</text>
  </g>
  <g class="hoverpoint">
    <line x1="376.3" y1="30" x2="376.3" y2="160.0" class="guide"/>
    <circle cx="376.3" cy="149.6" r="16" class="hit"/>
    <circle cx="376.3" cy="149.6" r="4" class="hover-dot"><title>Apr 2023: 240 total (+3 this month)</title></circle>
    <rect x="306.3" y="123.6" width="140" height="20" rx="4" class="tooltip-bg"/>
    <text x="376.3" y="137.6" class="tooltip-text" text-anchor="middle">Apr 2023: 240 total (+3 this month)</text>
  </g>
  <g class="hoverpoint">
    <line x1="573.3" y1="30" x2="573.3" y2="160.0" class="guide"/>
    <circle cx="573.3" cy="149.1" r="16" class="hit"/>
    <circle cx="573.3" cy="149.1" r="4" class="hover-dot"><title>Aug 2024: 252 total (+12 this month)</title></circle>
    <rect x="503.3" y="123.1" width="140" height="20" rx="4" class="tooltip-bg"/>
    <text x="573.3" y="137.1" class="tooltip-text" text-anchor="middle">Aug 2024: 252 total (+12 this month)</text>
  </g>
  <g class="hoverpoint">
    <line x1="584.1" y1="30" x2="584.1" y2="160.0" class="guide"/>
    <circle cx="584.1" cy="149.0" r="16" class="hit"/>
    <circle cx="584.1" cy="149.0" r="4" class="hover-dot"><title>Sep 2024: 253 total (+1 this month)</title></circle>
    <rect x="514.1" y="123.0" width="140" height="20" rx="4" class="tooltip-bg"/>
    <text x="584.1" y="137.0" class="tooltip-text" text-anchor="middle">Sep 2024: 253 total (+1 this month)</text>
  </g>
  <g class="hoverpoint">
    <line x1="596.8" y1="30" x2="596.8" y2="160.0" class="guide"/>
    <circle cx="596.8" cy="148.7" r="16" class="hit"/>
    <circle cx="596.8" cy="148.7" r="4" class="hover-dot"><title>Oct 2024: 261 total (+8 this month)</title></circle>
    <rect x="526.8" y="122.7" width="140" height="20" rx="4" class="tooltip-bg"/>
    <text x="596.8" y="136.7" class="tooltip-text" text-anchor="middle">Oct 2024: 261 total (+8 this month)</text>
  </g>
  <g class="hoverpoint">
    <line x1="629.9" y1="30" x2="629.9" y2="160.0" class="guide"/>
    <circle cx="629.9" cy="148.3" r="16" class="hit"/>
    <circle cx="629.9" cy="148.3" r="4" class="hover-dot"><title>Jan 2025: 270 total (+9 this month)</title></circle>
    <rect x="559.9" y="122.3" width="140" height="20" rx="4" class="tooltip-bg"/>
    <text x="629.9" y="136.3" class="tooltip-text" text-anchor="middle">Jan 2025: 270 total (+9 this month)</text>
  </g>
  <g class="hoverpoint">
    <line x1="635.3" y1="30" x2="635.3" y2="160.0" class="guide"/>
    <circle cx="635.3" cy="148.2" r="16" class="hit"/>
    <circle cx="635.3" cy="148.2" r="4" class="hover-dot"><title>Feb 2025: 272 total (+2 this month)</title></circle>
    <rect x="565.3" y="122.2" width="140" height="20" rx="4" class="tooltip-bg"/>
    <text x="635.3" y="136.2" class="tooltip-text" text-anchor="middle">Feb 2025: 272 total (+2 this month)</text>
  </g>
  <g class="hoverpoint">
    <line x1="654.9" y1="30" x2="654.9" y2="160.0" class="guide"/>
    <circle cx="654.9" cy="147.3" r="16" class="hit"/>
    <circle cx="654.9" cy="147.3" r="4" class="hover-dot"><title>Mar 2025: 294 total (+22 this month)</title></circle>
    <rect x="584.9" y="121.3" width="140" height="20" rx="4" class="tooltip-bg"/>
    <text x="654.9" y="135.3" class="tooltip-text" text-anchor="middle">Mar 2025: 294 total (+22 this month)</text>
  </g>
  <g class="hoverpoint">
    <line x1="668.0" y1="30" x2="668.0" y2="160.0" class="guide"/>
    <circle cx="668.0" cy="144.8" r="16" class="hit"/>
    <circle cx="668.0" cy="144.8" r="4" class="hover-dot"><title>Apr 2025: 351 total (+57 this month)</title></circle>
    <rect x="598.0" y="118.8" width="140" height="20" rx="4" class="tooltip-bg"/>
    <text x="668.0" y="132.8" class="tooltip-text" text-anchor="middle">Apr 2025: 351 total (+57 this month)</text>
  </g>
  <g class="hoverpoint">
    <line x1="675.3" y1="30" x2="675.3" y2="160.0" class="guide"/>
    <circle cx="675.3" cy="142.3" r="16" class="hit"/>
    <circle cx="675.3" cy="142.3" r="4" class="hover-dot"><title>May 2025: 408 total (+57 this month)</title></circle>
    <rect x="605.3" y="116.3" width="140" height="20" rx="4" class="tooltip-bg"/>
    <text x="675.3" y="130.3" class="tooltip-text" text-anchor="middle">May 2025: 408 total (+57 this month)</text>
  </g>
  <g class="hoverpoint">
    <line x1="689.9" y1="30" x2="689.9" y2="160.0" class="guide"/>
    <circle cx="689.9" cy="141.6" r="16" class="hit"/>
    <circle cx="689.9" cy="141.6" r="4" class="hover-dot"><title>Jun 2025: 424 total (+16 this month)</title></circle>
    <rect x="619.9" y="115.6" width="140" height="20" rx="4" class="tooltip-bg"/>
    <text x="689.9" y="129.6" class="tooltip-text" text-anchor="middle">Jun 2025: 424 total (+16 this month)</text>
  </g>
  <g class="hoverpoint">
    <line x1="703.4" y1="30" x2="703.4" y2="160.0" class="guide"/>
    <circle cx="703.4" cy="141.3" r="16" class="hit"/>
    <circle cx="703.4" cy="141.3" r="4" class="hover-dot"><title>Jul 2025: 432 total (+8 this month)</title></circle>
    <rect x="633.4" y="115.3" width="140" height="20" rx="4" class="tooltip-bg"/>
    <text x="703.4" y="129.3" class="tooltip-text" text-anchor="middle">Jul 2025: 432 total (+8 this month)</text>
  </g>
  <g class="hoverpoint">
    <line x1="714.2" y1="30" x2="714.2" y2="160.0" class="guide"/>
    <circle cx="714.2" cy="139.4" r="16" class="hit"/>
    <circle cx="714.2" cy="139.4" r="4" class="hover-dot"><title>Aug 2025: 475 total (+43 this month)</title></circle>
    <rect x="644.2" y="113.4" width="140" height="20" rx="4" class="tooltip-bg"/>
    <text x="714.2" y="127.4" class="tooltip-text" text-anchor="middle">Aug 2025: 475 total (+43 this month)</text>
  </g>
  <g class="hoverpoint">
    <line x1="726.9" y1="30" x2="726.9" y2="160.0" class="guide"/>
    <circle cx="726.9" cy="137.2" r="16" class="hit"/>
    <circle cx="726.9" cy="137.2" r="4" class="hover-dot"><title>Sep 2025: 526 total (+51 this month)</title></circle>
    <rect x="656.9" y="111.2" width="140" height="20" rx="4" class="tooltip-bg"/>
    <text x="726.9" y="125.2" class="tooltip-text" text-anchor="middle">Sep 2025: 526 total (+51 this month)</text>
  </g>
  <g class="hoverpoint">
    <line x1="738.8" y1="30" x2="738.8" y2="160.0" class="guide"/>
    <circle cx="738.8" cy="130.0" r="16" class="hit"/>
    <circle cx="738.8" cy="130.0" r="4" class="hover-dot"><title>Oct 2025: 692 total (+166 this month)</title></circle>
    <rect x="668.8" y="104.0" width="140" height="20" rx="4" class="tooltip-bg"/>
    <text x="738.8" y="118.0" class="tooltip-text" text-anchor="middle">Oct 2025: 692 total (+166 this month)</text>
  </g>
  <g class="hoverpoint">
    <line x1="750.3" y1="30" x2="750.3" y2="160.0" class="guide"/>
    <circle cx="750.3" cy="128.3" r="16" class="hit"/>
    <circle cx="750.3" cy="128.3" r="4" class="hover-dot"><title>Nov 2025: 731 total (+39 this month)</title></circle>
    <rect x="680.3" y="102.3" width="140" height="20" rx="4" class="tooltip-bg"/>
    <text x="750.3" y="116.3" class="tooltip-text" text-anchor="middle">Nov 2025: 731 total (+39 this month)</text>
  </g>
  <g class="hoverpoint">
    <line x1="762.3" y1="30" x2="762.3" y2="160.0" class="guide"/>
    <circle cx="762.3" cy="126.1" r="16" class="hit"/>
    <circle cx="762.3" cy="126.1" r="4" class="hover-dot"><title>Dec 2025: 783 total (+52 this month)</title></circle>
    <rect x="692.3" y="100.1" width="140" height="20" rx="4" class="tooltip-bg"/>
    <text x="762.3" y="114.1" class="tooltip-text" text-anchor="middle">Dec 2025: 783 total (+52 this month)</text>
  </g>
  <g class="hoverpoint">
    <line x1="774.2" y1="30" x2="774.2" y2="160.0" class="guide"/>
    <circle cx="774.2" cy="115.7" r="16" class="hit"/>
    <circle cx="774.2" cy="115.7" r="4" class="hover-dot"><title>Jan 2026: 1,022 total (+239 this month)</title></circle>
    <rect x="704.2" y="89.7" width="140" height="20" rx="4" class="tooltip-bg"/>
    <text x="774.2" y="103.7" class="tooltip-text" text-anchor="middle">Jan 2026: 1,022 total (+239 this month)</text>
  </g>
  <g class="hoverpoint">
    <line x1="785.0" y1="30" x2="785.0" y2="160.0" class="guide"/>
    <circle cx="785.0" cy="102.8" r="16" class="hit"/>
    <circle cx="785.0" cy="102.8" r="4" class="hover-dot"><title>Feb 2026: 1,321 total (+299 this month)</title></circle>
    <rect x="715.0" y="76.8" width="140" height="20" rx="4" class="tooltip-bg"/>
    <text x="785.0" y="90.8" class="tooltip-text" text-anchor="middle">Feb 2026: 1,321 total (+299 this month)</text>
  </g>
  <g class="hoverpoint">
    <line x1="796.9" y1="30" x2="796.9" y2="160.0" class="guide"/>
    <circle cx="796.9" cy="89.9" r="16" class="hit"/>
    <circle cx="796.9" cy="89.9" r="4" class="hover-dot"><title>Mar 2026: 1,617 total (+296 this month)</title></circle>
    <rect x="726.9" y="63.9" width="140" height="20" rx="4" class="tooltip-bg"/>
    <text x="796.9" y="77.9" class="tooltip-text" text-anchor="middle">Mar 2026: 1,617 total (+296 this month)</text>
  </g>
  <g class="hoverpoint">
    <line x1="808.1" y1="30" x2="808.1" y2="160.0" class="guide"/>
    <circle cx="808.1" cy="84.2" r="16" class="hit"/>
    <circle cx="808.1" cy="84.2" r="4" class="hover-dot"><title>Apr 2026: 1,749 total (+132 this month)</title></circle>
    <rect x="738.1" y="58.2" width="140" height="20" rx="4" class="tooltip-bg"/>
    <text x="808.1" y="72.2" class="tooltip-text" text-anchor="middle">Apr 2026: 1,749 total (+132 this month)</text>
  </g>
  <g class="hoverpoint">
    <line x1="820.0" y1="30" x2="820.0" y2="160.0" class="guide"/>
    <circle cx="820.0" cy="39.7" r="16" class="hit"/>
    <circle cx="820.0" cy="39.7" r="4" class="hover-dot"><title>May 2026: 2,777 total (+1,028 this month)</title></circle>
    <rect x="750.0" y="13.7" width="140" height="20" rx="4" class="tooltip-bg"/>
    <text x="820.0" y="27.7" class="tooltip-text" text-anchor="middle">May 2026: 2,777 total (+1,028 this month)</text>
  </g>

  <circle cx="820.0" cy="39.7" r="4" class="dot"/>
  <text x="810.0" y="29.7" class="total">2,777</text>

</svg>