<svg xmlns="http://www.w3.org/2000/svg" width="840" height="196" viewBox="0 0 840 196" fill="none">
  <style>
    .label { font-family: -apple-system, BlinkMacSystemFont, 'Segoe UI', Helvetica, Arial, sans-serif; font-size: 10px; fill: #8b949e; }
    .title { font-family: -apple-system, BlinkMacSystemFont, 'Segoe UI', Helvetica, Arial, sans-serif; font-size: 11px; fill: #8b949e; font-weight: 600; }
    .total { font-family: -apple-system, BlinkMacSystemFont, 'Segoe UI', Helvetica, Arial, sans-serif; font-size: 11px; fill: #7ee787; font-weight: 600; }
    .grid { stroke: #21262d; stroke-width: 1; }
    .line { stroke: #7ee787; stroke-width: 2; stroke-linecap: round; stroke-linejoin: round; fill: none; }
    .dot { fill: #7ee787; }
    .area { fill: url(#areaGrad); }
    /* Hover interaction */
    .hoverpoint .guide { stroke: #7ee787; stroke-width: 1; stroke-dasharray: 2,2; opacity: 0; }
    .hoverpoint .hover-dot { fill: #7ee787; opacity: 0; }
    .hoverpoint .hit { fill: transparent; cursor: pointer; }
    .hoverpoint .tooltip-bg { fill: #161b22; stroke: #30363d; stroke-width: 1; opacity: 0; }
    .hoverpoint .tooltip-text { font-family: -apple-system, BlinkMacSystemFont, 'Segoe UI', Helvetica, Arial, sans-serif; font-size: 9px; fill: #c9d1d9; opacity: 0; }
    .hoverpoint:hover .guide { opacity: 0.5; }
    .hoverpoint:hover .hover-dot { opacity: 1; }
    .hoverpoint:hover .tooltip-bg { opacity: 0.95; }
    .hoverpoint:hover .tooltip-text { opacity: 1; }
  </style>
  <defs>
    <linearGradient id="areaGrad" x1="0" y1="0" x2="0" y2="1">
      <stop offset="0%" stop-color="#7ee787" stop-opacity="0.15"/>
      <stop offset="100%" stop-color="#7ee787" stop-opacity="0.01"/>
    </linearGradient>
  </defs>

  <text x="60" y="18" class="title">Cumulative Commits</text>

  <line x1="60" y1="160.0" x2="820" y2="160.0" class="grid"/>
  <text x="50" y="163.0" class="label" text-anchor="end">0</text>
  <line x1="60" y1="127.5" x2="820" y2="127.5" class="grid" stroke-dasharray="3,3"/>
  <text x="50" y="130.5" class="label" text-anchor="end">500</text>
  <line x1="60" y1="95.0" x2="820" y2="95.0" class="grid" stroke-dasharray="3,3"/>
  <text x="50" y="98.0" class="label" text-anchor="end">1,000</text>
  <line x1="60" y1="62.5" x2="820" y2="62.5" class="grid" stroke-dasharray="3,3"/>
  <text x="50" y="65.5" class="label" text-anchor="end">1,500</text>
  <line x1="60" y1="30.0" x2="820" y2="30.0" class="grid" stroke-dasharray="3,3"/>
  <text x="50" y="33.0" class="label" text-anchor="end">2,000</text>

  <text x="70.0" y="186" class="label" text-anchor="middle">2021</text>
  <text x="201.9" y="186" class="label" text-anchor="middle">2022</text>
  <text x="343.8" y="186" class="label" text-anchor="middle">2023</text>
  <text x="485.7" y="186" class="label" text-anchor="middle">2024</text>
  <text x="628.0" y="186" class="label" text-anchor="middle">2025</text>
  <text x="769.9" y="186" class="label" text-anchor="middle">2026</text>


  <path class="area" d="M60.0,160.0 L60.0,160.0 60.0,160.0 L181.7,159.7 L182.1,159.6 L183.2,159.5 L201.9,159.4 L202.3,159.0 L202.7,158.9 L203.1,158.6 L203.4,158.6 L203.8,158.4 L204.6,158.1 L205.0,157.9 L205.4,157.8 L205.8,157.7 L207.3,157.5 L207.7,157.5 L208.1,157.4 L212.0,157.3 L222.1,157.1 L275.4,157.1 L275.8,156.5 L277.3,156.4 L278.1,155.9 L283.9,155.8 L284.7,155.6 L285.1,155.4 L285.5,155.3 L286.3,155.1 L286.6,154.7 L287.0,154.0 L287.4,153.9 L289.0,153.6 L289.7,153.6 L291.7,153.4 L297.1,153.2 L307.6,153.0 L313.5,152.9 L316.2,152.8 L316.6,152.7 L317.0,152.5 L317.4,152.3 L318.5,151.8 L318.9,151.7 L319.3,151.7 L320.8,151.4 L321.2,151.1 L321.6,151.0 L322.0,150.4 L322.4,149.9 L322.8,149.7 L323.2,149.5 L324.0,149.4 L325.5,149.3 L329.8,149.1 L341.1,149.0 L341.5,148.7 L341.8,148.6 L345.7,148.0 L346.1,146.5 L347.3,146.3 L347.7,146.3 L349.6,146.1 L362.8,145.8 L363.2,145.7 L363.6,145.6 L364.4,145.4 L367.1,145.2 L367.9,144.9 L368.3,144.7 L370.2,144.6 L379.5,144.4 L570.8,144.3 L571.6,144.2 L572.4,144.1 L573.1,144.0 L573.5,143.9 L573.9,143.8 L574.3,143.8 L574.7,143.7 L578.6,143.6 L589.5,143.6 L592.6,143.5 L593.7,143.4 L596.1,143.4 L598.4,143.3 L598.8,143.2 L600.4,143.2 L601.5,143.1 L602.3,143.0 L631.1,143.0 L631.5,142.8 L632.2,142.8 L632.6,142.7 L633.8,142.5 L635.7,142.4 L641.2,142.3 L652.5,141.7 L652.8,141.5 L657.9,141.3 L658.3,141.2 L659.4,141.1 L661.0,140.9 L662.9,140.2 L663.3,138.4 L663.7,138.3 L666.1,138.2 L667.2,138.1 L667.6,138.0 L668.4,137.8 L671.5,137.7 L674.2,137.2 L676.2,136.7 L676.6,136.5 L677.7,136.2 L678.1,135.4 L678.5,135.2 L678.9,134.9 L679.3,134.7 L679.7,134.4 L680.4,133.9 L681.6,133.5 L695.6,133.3 L696.4,132.4 L704.9,132.2 L710.0,131.9 L712.3,131.9 L712.7,131.8 L715.0,131.7 L715.4,131.7 L715.8,131.6 L716.2,131.4 L716.6,131.1 L717.0,130.5 L717.4,130.4 L719.7,129.4 L720.1,129.3 L720.9,129.1 L723.6,128.8 L724.4,128.7 L724.8,128.5 L725.5,128.5 L725.9,128.0 L726.3,127.9 L727.1,127.8 L727.5,127.6 L727.9,127.6 L728.3,127.5 L729.8,127.1 L730.2,127.0 L730.6,126.8 L731.0,126.7 L731.4,126.6 L731.8,126.4 L732.9,126.1 L733.3,125.9 L733.7,125.8 L734.1,125.6 L734.5,125.2 L735.3,125.1 L735.6,124.4 L736.0,124.1 L736.4,122.8 L736.8,122.5 L737.2,122.2 L737.6,121.5 L738.0,121.4 L738.4,121.2 L738.8,121.1 L739.1,120.7 L741.1,120.0 L741.5,119.8 L741.9,119.2 L742.3,118.1 L742.6,118.0 L743.4,117.9 L743.8,116.9 L744.2,116.4 L744.6,116.3 L745.0,115.3 L745.7,115.0 L746.1,114.9 L746.5,114.8 L746.9,114.7 L747.3,114.6 L747.7,114.6 L749.2,114.4 L750.0,114.3 L750.4,113.8 L750.8,113.5 L752.0,113.5 L753.9,113.3 L756.2,113.1 L756.6,112.9 L757.0,112.9 L757.4,112.5 L757.8,111.6 L758.2,111.5 L758.6,111.4 L759.0,111.3 L759.4,111.1 L759.7,110.6 L764.0,110.5 L764.4,110.4 L767.9,109.9 L768.7,109.5 L769.1,109.4 L769.5,109.1 L769.9,109.0 L771.0,108.8 L771.4,107.9 L771.8,105.5 L772.2,103.5 L772.6,103.4 L773.0,103.1 L773.7,102.8 L774.1,102.5 L774.5,102.1 L775.3,102.0 L775.7,101.4 L776.1,101.3 L776.8,100.4 L777.2,100.3 L777.6,99.8 L778.0,99.5 L778.4,99.1 L778.8,99.0 L780.0,98.4 L780.3,98.1 L780.7,96.6 L781.1,94.4 L781.5,93.6 L781.9,92.6 L782.3,92.5 L782.7,92.1 L783.1,91.9 L783.5,91.4 L783.8,90.6 L784.2,90.6 L784.6,90.1 L785.0,90.0 L785.4,89.5 L785.8,89.0 L786.2,88.4 L786.6,87.8 L787.0,87.7 L787.3,87.5 L787.7,86.4 L788.1,84.4 L788.5,84.1 L789.3,83.7 L789.7,83.5 L790.1,83.4 L790.5,80.2 L790.8,78.8 L791.2,77.3 L791.6,76.8 L792.0,74.4 L792.4,74.1 L792.8,74.0 L793.2,73.5 L793.6,72.4 L794.0,70.4 L794.3,68.2 L794.7,68.1 L795.1,67.6 L795.9,67.5 L796.3,66.2 L796.7,65.2 L797.1,63.8 L797.5,63.6 L797.8,63.5 L798.2,61.4 L798.6,58.9 L799.0,57.8 L799.4,57.3 L799.8,56.6 L800.2,56.1 L800.6,56.0 L801.3,55.7 L801.7,55.3 L802.1,55.2 L802.5,55.1 L802.9,55.0 L804.1,55.0 L804.5,54.9 L805.2,54.8 L806.0,54.7 L806.4,54.6 L807.2,53.7 L807.6,53.1 L807.9,52.9 L810.3,52.8 L810.7,52.3 L811.1,52.2 L811.4,51.6 L811.8,51.6 L812.2,51.4 L812.6,51.3 L813.0,50.3 L813.4,49.4 L813.8,49.0 L814.2,47.0 L814.6,46.8 L815.3,46.7 L815.7,46.6 L816.9,46.4 L817.3,45.7 L817.7,45.5 L818.1,45.3 L818.8,41.2 L819.2,39.7 L819.6,39.3 L820.0,38.8 L820.0,160.0 Z"/>
  <polyline class="line" points="60.0,160.0 181.7,159.7 182.1,159.6 183.2,159.5 201.9,159.4 202.3,159.0 202.7,158.9 203.1,158.6 203.4,158.6 203.8,158.4 204.6,158.1 205.0,157.9 205.4,157.8 205.8,157.7 207.3,157.5 207.7,157.5 208.1,157.4 212.0,157.3 222.1,157.1 275.4,157.1 275.8,156.5 277.3,156.4 278.1,155.9 283.9,155.8 284.7,155.6 285.1,155.4 285.5,155.3 286.3,155.1 286.6,154.7 287.0,154.0 287.4,153.9 289.0,153.6 289.7,153.6 291.7,153.4 297.1,153.2 307.6,153.0 313.5,152.9 316.2,152.8 316.6,152.7 317.0,152.5 317.4,152.3 318.5,151.8 318.9,151.7 319.3,151.7 320.8,151.4 321.2,151.1 321.6,151.0 322.0,150.4 322.4,149.9 322.8,149.7 323.2,149.5 324.0,149.4 325.5,149.3 329.8,149.1 341.1,149.0 341.5,148.7 341.8,148.6 345.7,148.0 346.1,146.5 347.3,146.3 347.7,146.3 349.6,146.1 362.8,145.8 363.2,145.7 363.6,145.6 364.4,145.4 367.1,145.2 367.9,144.9 368.3,144.7 370.2,144.6 379.5,144.4 570.8,144.3 571.6,144.2 572.4,144.1 573.1,144.0 573.5,143.9 573.9,143.8 574.3,143.8 574.7,143.7 578.6,143.6 589.5,143.6 592.6,143.5 593.7,143.4 596.1,143.4 598.4,143.3 598.8,143.2 600.4,143.2 601.5,143.1 602.3,143.0 631.1,143.0 631.5,142.8 632.2,142.8 632.6,142.7 633.8,142.5 635.7,142.4 641.2,142.3 652.5,141.7 652.8,141.5 657.9,141.3 658.3,141.2 659.4,141.1 661.0,140.9 662.9,140.2 663.3,138.4 663.7,138.3 666.1,138.2 667.2,138.1 667.6,138.0 668.4,137.8 671.5,137.7 674.2,137.2 676.2,136.7 676.6,136.5 677.7,136.2 678.1,135.4 678.5,135.2 678.9,134.9 679.3,134.7 679.7,134.4 680.4,133.9 681.6,133.5 695.6,133.3 696.4,132.4 704.9,132.2 710.0,131.9 712.3,131.9 712.7,131.8 715.0,131.7 715.4,131.7 715.8,131.6 716.2,131.4 716.6,131.1 717.0,130.5 717.4,130.4 719.7,129.4 720.1,129.3 720.9,129.1 723.6,128.8 724.4,128.7 724.8,128.5 725.5,128.5 725.9,128.0 726.3,127.9 727.1,127.8 727.5,127.6 727.9,127.6 728.3,127.5 729.8,127.1 730.2,127.0 730.6,126.8 731.0,126.7 731.4,126.6 731.8,126.4 732.9,126.1 733.3,125.9 733.7,125.8 734.1,125.6 734.5,125.2 735.3,125.1 735.6,124.4 736.0,124.1 736.4,122.8 736.8,122.5 737.2,122.2 737.6,121.5 738.0,121.4 738.4,121.2 738.8,121.1 739.1,120.7 741.1,120.0 741.5,119.8 741.9,119.2 742.3,118.1 742.6,118.0 743.4,117.9 743.8,116.9 744.2,116.4 744.6,116.3 745.0,115.3 745.7,115.0 746.1,114.9 746.5,114.8 746.9,114.7 747.3,114.6 747.7,114.6 749.2,114.4 750.0,114.3 750.4,113.8 750.8,113.5 752.0,113.5 753.9,113.3 756.2,113.1 756.6,112.9 757.0,112.9 757.4,112.5 757.8,111.6 758.2,111.5 758.6,111.4 759.0,111.3 759.4,111.1 759.7,110.6 764.0,110.5 764.4,110.4 767.9,109.9 768.7,109.5 769.1,109.4 769.5,109.1 769.9,109.0 771.0,108.8 771.4,107.9 771.8,105.5 772.2,103.5 772.6,103.4 773.0,103.1 773.7,102.8 774.1,102.5 774.5,102.1 775.3,102.0 775.7,101.4 776.1,101.3 776.8,100.4 777.2,100.3 777.6,99.8 778.0,99.5 778.4,99.1 778.8,99.0 780.0,98.4 780.3,98.1 780.7,96.6 781.1,94.4 781.5,93.6 781.9,92.6 782.3,92.5 782.7,92.1 783.1,91.9 783.5,91.4 783.8,90.6 784.2,90.6 784.6,90.1 785.0,90.0 785.4,89.5 785.8,89.0 786.2,88.4 786.6,87.8 787.0,87.7 787.3,87.5 787.7,86.4 788.1,84.4 788.5,84.1 789.3,83.7 789.7,83.5 790.1,83.4 790.5,80.2 790.8,78.8 791.2,77.3 791.6,76.8 792.0,74.4 792.4,74.1 792.8,74.0 793.2,73.5 793.6,72.4 794.0,70.4 794.3,68.2 794.7,68.1 795.1,67.6 795.9,67.5 796.3,66.2 796.7,65.2 797.1,63.8 797.5,63.6 797.8,63.5 798.2,61.4 798.6,58.9 799.0,57.8 799.4,57.3 799.8,56.6 800.2,56.1 800.6,56.0 801.3,55.7 801.7,55.3 802.1,55.2 802.5,55.1 802.9,55.0 804.1,55.0 804.5,54.9 805.2,54.8 806.0,54.7 806.4,54.6 807.2,53.7 807.6,53.1 807.9,52.9 810.3,52.8 810.7,52.3 811.1,52.2 811.4,51.6 811.8,51.6 812.2,51.4 812.6,51.3 813.0,50.3 813.4,49.4 813.8,49.0 814.2,47.0 814.6,46.8 815.3,46.7 815.7,46.6 816.9,46.4 817.3,45.7 817.7,45.5 818.1,45.3 818.8,41.2 819.2,39.7 819.6,39.3 820.0,38.8"/>

  <g class="hoverpoint">
    <line x1="183.2" y1="30" x2="183.2" y2="160.0" class="guide"/>
    <circle cx="183.2" cy="159.5" r="16" class="hit"/>
    <circle cx="183.2" cy="159.5" r="4" class="hover-dot"><title>Nov 2021: 7 total (+7 this month)</title></circle>
    <rect x="113.2" y="133.5" width="140" height="20" rx="4" class="tooltip-bg"/>
    <text x="183.2" y="147.5" class="tooltip-text" text-anchor="middle">Nov 2021: 7 total (+7 this month)</text>
  </g>
  <g class="hoverpoint">
    <line x1="212.0" y1="30" x2="212.0" y2="160.0" class="guide"/>
    <circle cx="212.0" cy="157.3" r="16" class="hit"/>
    <circle cx="212.0" cy="157.3" r="4" class="hover-dot"><title>Jan 2022: 41 total (+34 this month)</title></circle>
    <rect x="142.0" y="131.3" width="140" height="20" rx="4" class="tooltip-bg"/>
    <text x="212.0" y="145.3" class="tooltip-text" text-anchor="middle">Jan 2022: 41 total (+34 this month)</text>
  </g>
  <g class="hoverpoint">
    <line x1="222.1" y1="30" x2="222.1" y2="160.0" class="guide"/>
    <circle cx="222.1" cy="157.1" r="16" class="hit"/>
    <circle cx="222.1" cy="157.1" r="4" class="hover-dot"><title>Feb 2022: 44 total (+3 this month)</title></circle>
    <rect x="152.1" y="131.1" width="140" height="20" rx="4" class="tooltip-bg"/>
    <text x="222.1" y="145.1" class="tooltip-text" text-anchor="middle">Feb 2022: 44 total (+3 this month)</text>
  </g>
  <g class="hoverpoint">
    <line x1="283.9" y1="30" x2="283.9" y2="160.0" class="guide"/>
    <circle cx="283.9" cy="155.8" r="16" class="hit"/>
    <circle cx="283.9" cy="155.8" r="4" class="hover-dot"><title>Jul 2022: 65 total (+21 this month)</title></circle>
    <rect x="213.9" y="129.8" width="140" height="20" rx="4" class="tooltip-bg"/>
    <text x="283.9" y="143.8" class="tooltip-text" text-anchor="middle">Jul 2022: 65 total (+21 this month)</text>
  </g>
  <g class="hoverpoint">
    <line x1="291.7" y1="30" x2="291.7" y2="160.0" class="guide"/>
    <circle cx="291.7" cy="153.4" r="16" class="hit"/>
    <circle cx="291.7" cy="153.4" r="4" class="hover-dot"><title>Aug 2022: 101 total (+36 this month)</title></circle>
    <rect x="221.7" y="127.4" width="140" height="20" rx="4" class="tooltip-bg"/>
    <text x="291.7" y="141.4" class="tooltip-text" text-anchor="middle">Aug 2022: 101 total (+36 this month)</text>
  </g>
  <g class="hoverpoint">
    <line x1="307.6" y1="30" x2="307.6" y2="160.0" class="guide"/>
    <circle cx="307.6" cy="153.0" r="16" class="hit"/>
    <circle cx="307.6" cy="153.0" r="4" class="hover-dot"><title>Sep 2022: 108 total (+7 this month)</title></circle>
    <rect x="237.6" y="127.0" width="140" height="20" rx="4" class="tooltip-bg"/>
    <text x="307.6" y="141.0" class="tooltip-text" text-anchor="middle">Sep 2022: 108 total (+7 this month)</text>
  </g>
  <g class="hoverpoint">
    <line x1="319.3" y1="30" x2="319.3" y2="160.0" class="guide"/>
    <circle cx="319.3" cy="151.7" r="16" class="hit"/>
    <circle cx="319.3" cy="151.7" r="4" class="hover-dot"><title>Oct 2022: 128 total (+20 this month)</title></circle>
    <rect x="249.3" y="125.7" width="140" height="20" rx="4" class="tooltip-bg"/>
    <text x="319.3" y="139.7" class="tooltip-text" text-anchor="middle">Oct 2022: 128 total (+20 this month)</text>
  </g>
  <g class="hoverpoint">
    <line x1="329.8" y1="30" x2="329.8" y2="160.0" class="guide"/>
    <circle cx="329.8" cy="149.1" r="16" class="hit"/>
    <circle cx="329.8" cy="149.1" r="4" class="hover-dot"><title>Nov 2022: 168 total (+40 this month)</title></circle>
    <rect x="259.8" y="123.1" width="140" height="20" rx="4" class="tooltip-bg"/>
    <text x="329.8" y="137.1" class="tooltip-text" text-anchor="middle">Nov 2022: 168 total (+40 this month)</text>
  </g>
  <g class="hoverpoint">
    <line x1="341.8" y1="30" x2="341.8" y2="160.0" class="guide"/>
    <circle cx="341.8" cy="148.6" r="16" class="hit"/>
    <circle cx="341.8" cy="148.6" r="4" class="hover-dot"><title>Dec 2022: 175 total (+7 this month)</title></circle>
    <rect x="271.8" y="122.6" width="140" height="20" rx="4" class="tooltip-bg"/>
    <text x="341.8" y="136.6" class="tooltip-text" text-anchor="middle">Dec 2022: 175 total (+7 this month)</text>
  </g>
  <g class="hoverpoint">
    <line x1="349.6" y1="30" x2="349.6" y2="160.0" class="guide"/>
    <circle cx="349.6" cy="146.1" r="16" class="hit"/>
    <circle cx="349.6" cy="146.1" r="4" class="hover-dot"><title>Jan 2023: 214 total (+39 this month)</title></circle>
    <rect x="279.6" y="120.1" width="140" height="20" rx="4" class="tooltip-bg"/>
    <text x="349.6" y="134.1" class="tooltip-text" text-anchor="middle">Jan 2023: 214 total (+39 this month)</text>
  </g>
  <g class="hoverpoint">
    <line x1="364.4" y1="30" x2="364.4" y2="160.0" class="guide"/>
    <circle cx="364.4" cy="145.4" r="16" class="hit"/>
    <circle cx="364.4" cy="145.4" r="4" class="hover-dot"><title>Feb 2023: 225 total (+11 this month)</title></circle>
    <rect x="294.4" y="119.4" width="140" height="20" rx="4" class="tooltip-bg"/>
    <text x="364.4" y="133.4" class="tooltip-text" text-anchor="middle">Feb 2023: 225 total (+11 this month)</text>
  </g>
  <g class="hoverpoint">
    <line x1="370.2" y1="30" x2="370.2" y2="160.0" class="guide"/>
    <circle cx="370.2" cy="144.6" r="16" class="hit"/>
    <circle cx="370.2" cy="144.6" r="4" class="hover-dot"><title>Mar 2023: 237 total (+12 this month)</title></circle>
    <rect x="300.2" y="118.6" width="140" height="20" rx="4" class="tooltip-bg"/>
    <text x="370.2" y="132.6" class="tooltip-text" text-anchor="middle">Mar 2023: 237 total (+12 this month)</text>
  </g>
  <g class="hoverpoint">
    <line x1="379.5" y1="30" x2="379.5" y2="160.0" class="guide"/>
    <circle cx="379.5" cy="144.4" r="16" class="hit"/>
    <circle cx="379.5" cy="144.4" r="4" class="hover-dot"><title>Apr 2023: 240 total (+3 this month)</title></circle>
    <rect x="309.5" y="118.4" width="140" height="20" rx="4" class="tooltip-bg"/>
    <text x="379.5" y="132.4" class="tooltip-text" text-anchor="middle">Apr 2023: 240 total (+3 this month)</text>
  </g>
  <g class="hoverpoint">
    <line x1="578.6" y1="30" x2="578.6" y2="160.0" class="guide"/>
    <circle cx="578.6" cy="143.6" r="16" class="hit"/>
    <circle cx="578.6" cy="143.6" r="4" class="hover-dot"><title>Aug 2024: 252 total (+12 this month)</title></circle>
    <rect x="508.6" y="117.6" width="140" height="20" rx="4" class="tooltip-bg"/>
    <text x="578.6" y="131.6" class="tooltip-text" text-anchor="middle">Aug 2024: 252 total (+12 this month)</text>
  </g>
  <g class="hoverpoint">
    <line x1="589.5" y1="30" x2="589.5" y2="160.0" class="guide"/>
    <circle cx="589.5" cy="143.6" r="16" class="hit"/>
    <circle cx="589.5" cy="143.6" r="4" class="hover-dot"><title>Sep 2024: 253 total (+1 this month)</title></circle>
    <rect x="519.5" y="117.6" width="140" height="20" rx="4" class="tooltip-bg"/>
    <text x="589.5" y="131.6" class="tooltip-text" text-anchor="middle">Sep 2024: 253 total (+1 this month)</text>
  </g>
  <g class="hoverpoint">
    <line x1="602.3" y1="30" x2="602.3" y2="160.0" class="guide"/>
    <circle cx="602.3" cy="143.0" r="16" class="hit"/>
    <circle cx="602.3" cy="143.0" r="4" class="hover-dot"><title>Oct 2024: 261 total (+8 this month)</title></circle>
    <rect x="532.3" y="117.0" width="140" height="20" rx="4" class="tooltip-bg"/>
    <text x="602.3" y="131.0" class="tooltip-text" text-anchor="middle">Oct 2024: 261 total (+8 this month)</text>
  </g>
  <g class="hoverpoint">
    <line x1="635.7" y1="30" x2="635.7" y2="160.0" class="guide"/>
    <circle cx="635.7" cy="142.4" r="16" class="hit"/>
    <circle cx="635.7" cy="142.4" r="4" class="hover-dot"><title>Jan 2025: 270 total (+9 this month)</title></circle>
    <rect x="565.7" y="116.4" width="140" height="20" rx="4" class="tooltip-bg"/>
    <text x="635.7" y="130.4" class="tooltip-text" text-anchor="middle">Jan 2025: 270 total (+9 this month)</text>
  </g>
  <g class="hoverpoint">
    <line x1="641.2" y1="30" x2="641.2" y2="160.0" class="guide"/>
    <circle cx="641.2" cy="142.3" r="16" class="hit"/>
    <circle cx="641.2" cy="142.3" r="4" class="hover-dot"><title>Feb 2025: 272 total (+2 this month)</title></circle>
    <rect x="571.2" y="116.3" width="140" height="20" rx="4" class="tooltip-bg"/>
    <text x="641.2" y="130.3" class="tooltip-text" text-anchor="middle">Feb 2025: 272 total (+2 this month)</text>
  </g>
  <g class="hoverpoint">
    <line x1="661.0" y1="30" x2="661.0" y2="160.0" class="guide"/>
    <circle cx="661.0" cy="140.9" r="16" class="hit"/>
    <circle cx="661.0" cy="140.9" r="4" class="hover-dot"><title>Mar 2025: 294 total (+22 this month)</title></circle>
    <rect x="591.0" y="114.9" width="140" height="20" rx="4" class="tooltip-bg"/>
    <text x="661.0" y="128.9" class="tooltip-text" text-anchor="middle">Mar 2025: 294 total (+22 this month)</text>
  </g>
  <g class="hoverpoint">
    <line x1="674.2" y1="30" x2="674.2" y2="160.0" class="guide"/>
    <circle cx="674.2" cy="137.2" r="16" class="hit"/>
    <circle cx="674.2" cy="137.2" r="4" class="hover-dot"><title>Apr 2025: 351 total (+57 this month)</title></circle>
    <rect x="604.2" y="111.2" width="140" height="20" rx="4" class="tooltip-bg"/>
    <text x="674.2" y="125.2" class="tooltip-text" text-anchor="middle">Apr 2025: 351 total (+57 this month)</text>
  </g>
  <g class="hoverpoint">
    <line x1="681.6" y1="30" x2="681.6" y2="160.0" class="guide"/>
    <circle cx="681.6" cy="133.5" r="16" class="hit"/>
    <circle cx="681.6" cy="133.5" r="4" class="hover-dot"><title>May 2025: 408 total (+57 this month)</title></circle>
    <rect x="611.6" y="107.5" width="140" height="20" rx="4" class="tooltip-bg"/>
    <text x="681.6" y="121.5" class="tooltip-text" text-anchor="middle">May 2025: 408 total (+57 this month)</text>
  </g>
  <g class="hoverpoint">
    <line x1="696.4" y1="30" x2="696.4" y2="160.0" class="guide"/>
    <circle cx="696.4" cy="132.4" r="16" class="hit"/>
    <circle cx="696.4" cy="132.4" r="4" class="hover-dot"><title>Jun 2025: 424 total (+16 this month)</title></circle>
    <rect x="626.4" y="106.4" width="140" height="20" rx="4" class="tooltip-bg"/>
    <text x="696.4" y="120.4" class="tooltip-text" text-anchor="middle">Jun 2025: 424 total (+16 this month)</text>
  </g>
  <g class="hoverpoint">
    <line x1="710.0" y1="30" x2="710.0" y2="160.0" class="guide"/>
    <circle cx="710.0" cy="131.9" r="16" class="hit"/>
    <circle cx="710.0" cy="131.9" r="4" class="hover-dot"><title>Jul 2025: 432 total (+8 this month)</title></circle>
    <rect x="640.0" y="105.9" width="140" height="20" rx="4" class="tooltip-bg"/>
    <text x="710.0" y="119.9" class="tooltip-text" text-anchor="middle">Jul 2025: 432 total (+8 this month)</text>
  </g>
  <g class="hoverpoint">
    <line x1="720.9" y1="30" x2="720.9" y2="160.0" class="guide"/>
    <circle cx="720.9" cy="129.1" r="16" class="hit"/>
    <circle cx="720.9" cy="129.1" r="4" class="hover-dot"><title>Aug 2025: 475 total (+43 this month)</title></circle>
    <rect x="650.9" y="103.1" width="140" height="20" rx="4" class="tooltip-bg"/>
    <text x="720.9" y="117.1" class="tooltip-text" text-anchor="middle">Aug 2025: 475 total (+43 this month)</text>
  </g>
  <g class="hoverpoint">
    <line x1="733.7" y1="30" x2="733.7" y2="160.0" class="guide"/>
    <circle cx="733.7" cy="125.8" r="16" class="hit"/>
    <circle cx="733.7" cy="125.8" r="4" class="hover-dot"><title>Sep 2025: 526 total (+51 this month)</title></circle>
    <rect x="663.7" y="99.8" width="140" height="20" rx="4" class="tooltip-bg"/>
    <text x="733.7" y="113.8" class="tooltip-text" text-anchor="middle">Sep 2025: 526 total (+51 this month)</text>
  </g>
  <g class="hoverpoint">
    <line x1="745.7" y1="30" x2="745.7" y2="160.0" class="guide"/>
    <circle cx="745.7" cy="115.0" r="16" class="hit"/>
    <circle cx="745.7" cy="115.0" r="4" class="hover-dot"><title>Oct 2025: 692 total (+166 this month)</title></circle>
    <rect x="675.7" y="89.0" width="140" height="20" rx="4" class="tooltip-bg"/>
    <text x="745.7" y="103.0" class="tooltip-text" text-anchor="middle">Oct 2025: 692 total (+166 this month)</text>
  </g>
  <g class="hoverpoint">
    <line x1="757.4" y1="30" x2="757.4" y2="160.0" class="guide"/>
    <circle cx="757.4" cy="112.5" r="16" class="hit"/>
    <circle cx="757.4" cy="112.5" r="4" class="hover-dot"><title>Nov 2025: 731 total (+39 this month)</title></circle>
    <rect x="687.4" y="86.5" width="140" height="20" rx="4" class="tooltip-bg"/>
    <text x="757.4" y="100.5" class="tooltip-text" text-anchor="middle">Nov 2025: 731 total (+39 this month)</text>
  </g>
  <g class="hoverpoint">
    <line x1="769.5" y1="30" x2="769.5" y2="160.0" class="guide"/>
    <circle cx="769.5" cy="109.1" r="16" class="hit"/>
    <circle cx="769.5" cy="109.1" r="4" class="hover-dot"><title>Dec 2025: 783 total (+52 this month)</title></circle>
    <rect x="699.5" y="83.1" width="140" height="20" rx="4" class="tooltip-bg"/>
    <text x="769.5" y="97.1" class="tooltip-text" text-anchor="middle">Dec 2025: 783 total (+52 this month)</text>
  </g>
  <g class="hoverpoint">
    <line x1="781.5" y1="30" x2="781.5" y2="160.0" class="guide"/>
    <circle cx="781.5" cy="93.6" r="16" class="hit"/>
    <circle cx="781.5" cy="93.6" r="4" class="hover-dot"><title>Jan 2026: 1,022 total (+239 this month)</title></circle>
    <rect x="711.5" y="67.6" width="140" height="20" rx="4" class="tooltip-bg"/>
    <text x="781.5" y="81.6" class="tooltip-text" text-anchor="middle">Jan 2026: 1,022 total (+239 this month)</text>
  </g>
  <g class="hoverpoint">
    <line x1="792.4" y1="30" x2="792.4" y2="160.0" class="guide"/>
    <circle cx="792.4" cy="74.1" r="16" class="hit"/>
    <circle cx="792.4" cy="74.1" r="4" class="hover-dot"><title>Feb 2026: 1,321 total (+299 this month)</title></circle>
    <rect x="722.4" y="48.1" width="140" height="20" rx="4" class="tooltip-bg"/>
    <text x="792.4" y="62.1" class="tooltip-text" text-anchor="middle">Feb 2026: 1,321 total (+299 this month)</text>
  </g>
  <g class="hoverpoint">
    <line x1="804.5" y1="30" x2="804.5" y2="160.0" class="guide"/>
    <circle cx="804.5" cy="54.9" r="16" class="hit"/>
    <circle cx="804.5" cy="54.9" r="4" class="hover-dot"><title>Mar 2026: 1,617 total (+296 this month)</title></circle>
    <rect x="734.5" y="28.9" width="140" height="20" rx="4" class="tooltip-bg"/>
    <text x="804.5" y="42.9" class="tooltip-text" text-anchor="middle">Mar 2026: 1,617 total (+296 this month)</text>
  </g>
  <g class="hoverpoint">
    <line x1="815.7" y1="30" x2="815.7" y2="160.0" class="guide"/>
    <circle cx="815.7" cy="46.6" r="16" class="hit"/>
    <circle cx="815.7" cy="46.6" r="4" class="hover-dot"><title>Apr 2026: 1,744 total (+127 this month)</title></circle>
    <rect x="745.7" y="20.6" width="140" height="20" rx="4" class="tooltip-bg"/>
    <text x="815.7" y="34.6" class="tooltip-text" text-anchor="middle">Apr 2026: 1,744 total (+127 this month)</text>
  </g>
  <g class="hoverpoint">
    <line x1="820.0" y1="30" x2="820.0" y2="160.0" class="guide"/>
    <circle cx="820.0" cy="38.8" r="16" class="hit"/>
    <circle cx="820.0" cy="38.8" r="4" class="hover-dot"><title>May 2026: 1,864 total (+120 this month)</title></circle>
    <rect x="750.0" y="12.8" width="140" height="20" rx="4" class="tooltip-bg"/>
    <text x="820.0" y="26.8" class="tooltip-text" text-anchor="middle">May 2026: 1,864 total (+120 this month)</text>
  </g>

  <circle cx="820.0" cy="38.8" r="4" class="dot"/>
  <text x="810.0" y="28.8" class="total">1,864</text>

</svg>