<svg xmlns="http://www.w3.org/2000/svg" width="840" height="196" viewBox="0 0 840 196" fill="none">
  <style>
    .label { font-family: -apple-system, BlinkMacSystemFont, 'Segoe UI', Helvetica, Arial, sans-serif; font-size: 10px; fill: #8b949e; }
    .title { font-family: -apple-system, BlinkMacSystemFont, 'Segoe UI', Helvetica, Arial, sans-serif; font-size: 11px; fill: #8b949e; font-weight: 600; }
    .total { font-family: -apple-system, BlinkMacSystemFont, 'Segoe UI', Helvetica, Arial, sans-serif; font-size: 11px; fill: #7ee787; font-weight: 600; }
    .grid { stroke: #21262d; stroke-width: 1; }
    .line { stroke: #7ee787; stroke-width: 2; stroke-linecap: round; stroke-linejoin: round; fill: none; }
    .dot { fill: #7ee787; }
    .area { fill: url(#areaGrad); }
    /* Hover interaction */
    .hoverpoint .guide { stroke: #7ee787; stroke-width: 1; stroke-dasharray: 2,2; opacity: 0; }
    .hoverpoint .hover-dot { fill: #7ee787; opacity: 0; }
    .hoverpoint .hit { fill: transparent; cursor: pointer; }
    .hoverpoint .tooltip-bg { fill: #161b22; stroke: #30363d; stroke-width: 1; opacity: 0; }
    .hoverpoint .tooltip-text { font-family: -apple-system, BlinkMacSystemFont, 'Segoe UI', Helvetica, Arial, sans-serif; font-size: 9px; fill: #c9d1d9; opacity: 0; }
    .hoverpoint:hover .guide { opacity: 0.5; }
    .hoverpoint:hover .hover-dot { opacity: 1; }
    .hoverpoint:hover .tooltip-bg { opacity: 0.95; }
    .hoverpoint:hover .tooltip-text { opacity: 1; }
  </style>
  <defs>
    <linearGradient id="areaGrad" x1="0" y1="0" x2="0" y2="1">
      <stop offset="0%" stop-color="#7ee787" stop-opacity="0.15"/>
      <stop offset="100%" stop-color="#7ee787" stop-opacity="0.01"/>
    </linearGradient>
  </defs>

  <text x="60" y="18" class="title">Cumulative Commits</text>

  <line x1="60" y1="160.0" x2="820" y2="160.0" class="grid"/>
  <text x="50" y="163.0" class="label" text-anchor="end">0</text>
  <line x1="60" y1="127.5" x2="820" y2="127.5" class="grid" stroke-dasharray="3,3"/>
  <text x="50" y="130.5" class="label" text-anchor="end">750</text>
  <line x1="60" y1="95.0" x2="820" y2="95.0" class="grid" stroke-dasharray="3,3"/>
  <text x="50" y="98.0" class="label" text-anchor="end">1,500</text>
  <line x1="60" y1="62.5" x2="820" y2="62.5" class="grid" stroke-dasharray="3,3"/>
  <text x="50" y="65.5" class="label" text-anchor="end">2,250</text>
  <line x1="60" y1="30.0" x2="820" y2="30.0" class="grid" stroke-dasharray="3,3"/>
  <text x="50" y="33.0" class="label" text-anchor="end">3,000</text>

  <text x="70.0" y="186" class="label" text-anchor="middle">2021</text>
  <text x="199.8" y="186" class="label" text-anchor="middle">2022</text>
  <text x="339.6" y="186" class="label" text-anchor="middle">2023</text>
  <text x="479.5" y="186" class="label" text-anchor="middle">2024</text>
  <text x="619.7" y="186" class="label" text-anchor="middle">2025</text>
  <text x="759.5" y="186" class="label" text-anchor="middle">2026</text>


  <path class="area" d="M60.0,160.0 L60.0,160.0 60.0,160.0 L179.9,159.8 L180.3,159.7 L181.4,159.7 L199.8,159.6 L200.2,159.3 L200.6,159.3 L201.0,159.1 L201.4,159.0 L201.7,159.0 L202.5,158.7 L202.9,158.6 L203.3,158.5 L203.6,158.5 L205.2,158.4 L205.6,158.3 L205.9,158.3 L209.8,158.2 L219.7,158.1 L272.2,158.1 L272.6,157.7 L274.1,157.6 L274.9,157.3 L280.6,157.2 L281.4,157.1 L281.8,156.9 L282.2,156.9 L282.9,156.8 L283.3,156.4 L283.7,156.0 L284.1,155.9 L285.6,155.8 L286.4,155.7 L288.3,155.6 L293.7,155.4 L304.0,155.3 L309.8,155.3 L312.4,155.2 L312.8,155.1 L313.2,155.0 L313.6,154.8 L314.7,154.5 L315.1,154.5 L315.5,154.5 L317.0,154.3 L317.4,154.1 L317.8,154.0 L318.2,153.6 L318.6,153.2 L319.0,153.1 L319.3,153.0 L320.1,152.9 L321.6,152.8 L325.8,152.7 L337.0,152.7 L337.3,152.5 L337.7,152.4 L341.6,152.0 L341.9,151.0 L343.1,150.9 L343.5,150.9 L345.4,150.7 L358.4,150.6 L358.8,150.5 L359.2,150.4 L359.9,150.2 L362.6,150.1 L363.4,149.9 L363.8,149.8 L365.7,149.7 L374.9,149.6 L563.3,149.5 L564.1,149.5 L564.9,149.4 L565.6,149.3 L566.0,149.3 L566.4,149.2 L566.8,149.2 L567.2,149.1 L571.0,149.1 L581.7,149.0 L584.8,149.0 L585.9,148.9 L588.2,148.9 L590.5,148.9 L590.9,148.8 L592.5,148.8 L593.6,148.7 L594.4,148.7 L622.7,148.6 L623.1,148.6 L623.9,148.5 L624.3,148.5 L625.4,148.3 L627.3,148.3 L632.7,148.2 L643.8,147.8 L644.2,147.7 L649.2,147.6 L649.5,147.5 L650.7,147.4 L652.2,147.3 L654.1,146.8 L654.5,145.6 L654.9,145.5 L657.2,145.4 L658.3,145.4 L658.7,145.4 L659.5,145.2 L662.6,145.1 L665.2,144.8 L667.2,144.5 L667.5,144.4 L668.7,144.1 L669.1,143.6 L669.5,143.5 L669.8,143.3 L670.2,143.1 L670.6,142.9 L671.4,142.6 L672.5,142.3 L686.3,142.2 L687.1,141.6 L695.5,141.5 L700.5,141.3 L702.8,141.2 L703.2,141.2 L705.5,141.2 L705.8,141.1 L706.2,141.1 L706.6,140.9 L707.0,140.8 L707.4,140.3 L707.8,140.2 L710.1,139.6 L710.4,139.5 L711.2,139.4 L713.9,139.2 L714.7,139.2 L715.0,139.0 L715.8,139.0 L716.2,138.7 L716.6,138.6 L717.3,138.5 L717.7,138.4 L718.1,138.4 L718.5,138.3 L720.0,138.1 L720.4,138.0 L720.8,137.9 L721.2,137.8 L721.6,137.7 L721.9,137.6 L723.1,137.4 L723.5,137.3 L723.9,137.2 L724.2,137.1 L724.6,136.8 L725.4,136.7 L725.8,136.3 L726.1,136.0 L726.5,135.2 L726.9,135.0 L727.3,134.8 L727.7,134.3 L728.1,134.3 L728.4,134.1 L728.8,134.1 L729.2,133.8 L731.1,133.3 L731.5,133.2 L731.9,132.8 L732.3,132.1 L732.7,132.0 L733.4,131.9 L733.8,131.3 L734.2,130.9 L734.6,130.9 L735.0,130.2 L735.7,130.0 L736.1,129.9 L736.5,129.8 L736.9,129.8 L737.3,129.8 L737.6,129.7 L739.2,129.6 L739.9,129.5 L740.3,129.2 L740.7,129.0 L741.9,129.0 L743.8,128.9 L746.1,128.7 L746.5,128.6 L746.8,128.6 L747.2,128.3 L747.6,127.7 L748.0,127.7 L748.4,127.6 L748.8,127.5 L749.1,127.4 L749.5,127.1 L753.7,127.0 L754.1,126.9 L757.6,126.6 L758.3,126.3 L758.7,126.2 L759.1,126.1 L759.5,126.0 L760.6,125.9 L761.0,125.2 L761.4,123.7 L761.8,122.3 L762.2,122.3 L762.5,122.1 L763.3,121.9 L763.7,121.7 L764.1,121.4 L764.8,121.3 L765.2,120.9 L765.6,120.9 L766.4,120.3 L766.8,120.2 L767.1,119.9 L767.5,119.7 L767.9,119.4 L768.3,119.4 L769.4,119.0 L769.8,118.7 L770.2,117.7 L770.6,116.3 L771.0,115.7 L771.4,115.1 L771.7,115.0 L772.1,114.8 L772.5,114.6 L772.9,114.2 L773.3,113.8 L773.6,113.7 L774.0,113.4 L774.4,113.3 L774.8,113.0 L775.2,112.6 L775.6,112.3 L775.9,111.9 L776.3,111.8 L776.7,111.6 L777.1,110.9 L777.5,109.6 L777.9,109.4 L778.6,109.1 L779.0,109.0 L779.4,108.9 L779.8,106.8 L780.2,105.8 L780.5,104.9 L780.9,104.5 L781.3,102.9 L781.7,102.8 L782.1,102.7 L782.5,102.3 L782.8,101.6 L783.2,100.2 L783.6,98.8 L784.0,98.7 L784.4,98.4 L785.1,98.3 L785.5,97.5 L785.9,96.8 L786.3,95.9 L786.7,95.7 L787.1,95.7 L787.4,94.3 L787.8,92.6 L788.2,91.9 L788.6,91.5 L789.0,91.1 L789.4,90.7 L789.7,90.7 L790.5,90.5 L790.9,90.2 L791.3,90.1 L791.7,90.1 L792.0,90.0 L793.2,90.0 L793.6,89.9 L794.3,89.8 L795.1,89.8 L795.5,89.7 L796.2,89.1 L796.6,88.8 L797.0,88.4 L799.3,88.3 L799.7,88.0 L800.1,87.9 L800.5,87.5 L800.8,87.5 L801.2,87.4 L801.6,87.3 L802.0,86.7 L802.4,86.0 L802.8,85.8 L803.1,84.5 L803.5,84.3 L804.3,84.3 L804.7,84.2 L805.8,83.8 L806.2,83.3 L806.6,83.0 L807.0,82.7 L807.4,81.7 L807.7,78.0 L808.1,76.4 L808.5,76.1 L808.9,75.8 L809.3,75.2 L809.7,75.1 L810.0,69.9 L810.4,63.5 L810.8,61.6 L811.2,61.5 L811.6,60.6 L812.0,59.8 L812.3,56.0 L812.7,53.6 L813.1,50.1 L813.5,49.3 L813.9,49.2 L814.3,49.1 L814.6,47.9 L815.0,46.1 L815.4,42.1 L815.8,41.5 L816.2,40.7 L816.6,39.5 L816.9,38.9 L817.3,38.5 L817.7,36.8 L818.1,36.2 L818.5,36.1 L818.9,35.8 L819.2,35.6 L819.6,35.5 L820.0,35.3 L820.0,160.0 Z"/>
  <polyline class="line" points="60.0,160.0 179.9,159.8 180.3,159.7 181.4,159.7 199.8,159.6 200.2,159.3 200.6,159.3 201.0,159.1 201.4,159.0 201.7,159.0 202.5,158.7 202.9,158.6 203.3,158.5 203.6,158.5 205.2,158.4 205.6,158.3 205.9,158.3 209.8,158.2 219.7,158.1 272.2,158.1 272.6,157.7 274.1,157.6 274.9,157.3 280.6,157.2 281.4,157.1 281.8,156.9 282.2,156.9 282.9,156.8 283.3,156.4 283.7,156.0 284.1,155.9 285.6,155.8 286.4,155.7 288.3,155.6 293.7,155.4 304.0,155.3 309.8,155.3 312.4,155.2 312.8,155.1 313.2,155.0 313.6,154.8 314.7,154.5 315.1,154.5 315.5,154.5 317.0,154.3 317.4,154.1 317.8,154.0 318.2,153.6 318.6,153.2 319.0,153.1 319.3,153.0 320.1,152.9 321.6,152.8 325.8,152.7 337.0,152.7 337.3,152.5 337.7,152.4 341.6,152.0 341.9,151.0 343.1,150.9 343.5,150.9 345.4,150.7 358.4,150.6 358.8,150.5 359.2,150.4 359.9,150.2 362.6,150.1 363.4,149.9 363.8,149.8 365.7,149.7 374.9,149.6 563.3,149.5 564.1,149.5 564.9,149.4 565.6,149.3 566.0,149.3 566.4,149.2 566.8,149.2 567.2,149.1 571.0,149.1 581.7,149.0 584.8,149.0 585.9,148.9 588.2,148.9 590.5,148.9 590.9,148.8 592.5,148.8 593.6,148.7 594.4,148.7 622.7,148.6 623.1,148.6 623.9,148.5 624.3,148.5 625.4,148.3 627.3,148.3 632.7,148.2 643.8,147.8 644.2,147.7 649.2,147.6 649.5,147.5 650.7,147.4 652.2,147.3 654.1,146.8 654.5,145.6 654.9,145.5 657.2,145.4 658.3,145.4 658.7,145.4 659.5,145.2 662.6,145.1 665.2,144.8 667.2,144.5 667.5,144.4 668.7,144.1 669.1,143.6 669.5,143.5 669.8,143.3 670.2,143.1 670.6,142.9 671.4,142.6 672.5,142.3 686.3,142.2 687.1,141.6 695.5,141.5 700.5,141.3 702.8,141.2 703.2,141.2 705.5,141.2 705.8,141.1 706.2,141.1 706.6,140.9 707.0,140.8 707.4,140.3 707.8,140.2 710.1,139.6 710.4,139.5 711.2,139.4 713.9,139.2 714.7,139.2 715.0,139.0 715.8,139.0 716.2,138.7 716.6,138.6 717.3,138.5 717.7,138.4 718.1,138.4 718.5,138.3 720.0,138.1 720.4,138.0 720.8,137.9 721.2,137.8 721.6,137.7 721.9,137.6 723.1,137.4 723.5,137.3 723.9,137.2 724.2,137.1 724.6,136.8 725.4,136.7 725.8,136.3 726.1,136.0 726.5,135.2 726.9,135.0 727.3,134.8 727.7,134.3 728.1,134.3 728.4,134.1 728.8,134.1 729.2,133.8 731.1,133.3 731.5,133.2 731.9,132.8 732.3,132.1 732.7,132.0 733.4,131.9 733.8,131.3 734.2,130.9 734.6,130.9 735.0,130.2 735.7,130.0 736.1,129.9 736.5,129.8 736.9,129.8 737.3,129.8 737.6,129.7 739.2,129.6 739.9,129.5 740.3,129.2 740.7,129.0 741.9,129.0 743.8,128.9 746.1,128.7 746.5,128.6 746.8,128.6 747.2,128.3 747.6,127.7 748.0,127.7 748.4,127.6 748.8,127.5 749.1,127.4 749.5,127.1 753.7,127.0 754.1,126.9 757.6,126.6 758.3,126.3 758.7,126.2 759.1,126.1 759.5,126.0 760.6,125.9 761.0,125.2 761.4,123.7 761.8,122.3 762.2,122.3 762.5,122.1 763.3,121.9 763.7,121.7 764.1,121.4 764.8,121.3 765.2,120.9 765.6,120.9 766.4,120.3 766.8,120.2 767.1,119.9 767.5,119.7 767.9,119.4 768.3,119.4 769.4,119.0 769.8,118.7 770.2,117.7 770.6,116.3 771.0,115.7 771.4,115.1 771.7,115.0 772.1,114.8 772.5,114.6 772.9,114.2 773.3,113.8 773.6,113.7 774.0,113.4 774.4,113.3 774.8,113.0 775.2,112.6 775.6,112.3 775.9,111.9 776.3,111.8 776.7,111.6 777.1,110.9 777.5,109.6 777.9,109.4 778.6,109.1 779.0,109.0 779.4,108.9 779.8,106.8 780.2,105.8 780.5,104.9 780.9,104.5 781.3,102.9 781.7,102.8 782.1,102.7 782.5,102.3 782.8,101.6 783.2,100.2 783.6,98.8 784.0,98.7 784.4,98.4 785.1,98.3 785.5,97.5 785.9,96.8 786.3,95.9 786.7,95.7 787.1,95.7 787.4,94.3 787.8,92.6 788.2,91.9 788.6,91.5 789.0,91.1 789.4,90.7 789.7,90.7 790.5,90.5 790.9,90.2 791.3,90.1 791.7,90.1 792.0,90.0 793.2,90.0 793.6,89.9 794.3,89.8 795.1,89.8 795.5,89.7 796.2,89.1 796.6,88.8 797.0,88.4 799.3,88.3 799.7,88.0 800.1,87.9 800.5,87.5 800.8,87.5 801.2,87.4 801.6,87.3 802.0,86.7 802.4,86.0 802.8,85.8 803.1,84.5 803.5,84.3 804.3,84.3 804.7,84.2 805.8,83.8 806.2,83.3 806.6,83.0 807.0,82.7 807.4,81.7 807.7,78.0 808.1,76.4 808.5,76.1 808.9,75.8 809.3,75.2 809.7,75.1 810.0,69.9 810.4,63.5 810.8,61.6 811.2,61.5 811.6,60.6 812.0,59.8 812.3,56.0 812.7,53.6 813.1,50.1 813.5,49.3 813.9,49.2 814.3,49.1 814.6,47.9 815.0,46.1 815.4,42.1 815.8,41.5 816.2,40.7 816.6,39.5 816.9,38.9 817.3,38.5 817.7,36.8 818.1,36.2 818.5,36.1 818.9,35.8 819.2,35.6 819.6,35.5 820.0,35.3"/>

  <g class="hoverpoint">
    <line x1="181.4" y1="30" x2="181.4" y2="160.0" class="guide"/>
    <circle cx="181.4" cy="159.7" r="16" class="hit"/>
    <circle cx="181.4" cy="159.7" r="4" class="hover-dot"><title>Nov 2021: 7 total (+7 this month)</title></circle>
    <rect x="111.4" y="133.7" width="140" height="20" rx="4" class="tooltip-bg"/>
    <text x="181.4" y="147.7" class="tooltip-text" text-anchor="middle">Nov 2021: 7 total (+7 this month)</text>
  </g>
  <g class="hoverpoint">
    <line x1="209.8" y1="30" x2="209.8" y2="160.0" class="guide"/>
    <circle cx="209.8" cy="158.2" r="16" class="hit"/>
    <circle cx="209.8" cy="158.2" r="4" class="hover-dot"><title>Jan 2022: 41 total (+34 this month)</title></circle>
    <rect x="139.8" y="132.2" width="140" height="20" rx="4" class="tooltip-bg"/>
    <text x="209.8" y="146.2" class="tooltip-text" text-anchor="middle">Jan 2022: 41 total (+34 this month)</text>
  </g>
  <g class="hoverpoint">
    <line x1="219.7" y1="30" x2="219.7" y2="160.0" class="guide"/>
    <circle cx="219.7" cy="158.1" r="16" class="hit"/>
    <circle cx="219.7" cy="158.1" r="4" class="hover-dot"><title>Feb 2022: 44 total (+3 this month)</title></circle>
    <rect x="149.7" y="132.1" width="140" height="20" rx="4" class="tooltip-bg"/>
    <text x="219.7" y="146.1" class="tooltip-text" text-anchor="middle">Feb 2022: 44 total (+3 this month)</text>
  </g>
  <g class="hoverpoint">
    <line x1="280.6" y1="30" x2="280.6" y2="160.0" class="guide"/>
    <circle cx="280.6" cy="157.2" r="16" class="hit"/>
    <circle cx="280.6" cy="157.2" r="4" class="hover-dot"><title>Jul 2022: 65 total (+21 this month)</title></circle>
    <rect x="210.6" y="131.2" width="140" height="20" rx="4" class="tooltip-bg"/>
    <text x="280.6" y="145.2" class="tooltip-text" text-anchor="middle">Jul 2022: 65 total (+21 this month)</text>
  </g>
  <g class="hoverpoint">
    <line x1="288.3" y1="30" x2="288.3" y2="160.0" class="guide"/>
    <circle cx="288.3" cy="155.6" r="16" class="hit"/>
    <circle cx="288.3" cy="155.6" r="4" class="hover-dot"><title>Aug 2022: 101 total (+36 this month)</title></circle>
    <rect x="218.3" y="129.6" width="140" height="20" rx="4" class="tooltip-bg"/>
    <text x="288.3" y="143.6" class="tooltip-text" text-anchor="middle">Aug 2022: 101 total (+36 this month)</text>
  </g>
  <g class="hoverpoint">
    <line x1="304.0" y1="30" x2="304.0" y2="160.0" class="guide"/>
    <circle cx="304.0" cy="155.3" r="16" class="hit"/>
    <circle cx="304.0" cy="155.3" r="4" class="hover-dot"><title>Sep 2022: 108 total (+7 this month)</title></circle>
    <rect x="234.0" y="129.3" width="140" height="20" rx="4" class="tooltip-bg"/>
    <text x="304.0" y="143.3" class="tooltip-text" text-anchor="middle">Sep 2022: 108 total (+7 this month)</text>
  </g>
  <g class="hoverpoint">
    <line x1="315.5" y1="30" x2="315.5" y2="160.0" class="guide"/>
    <circle cx="315.5" cy="154.5" r="16" class="hit"/>
    <circle cx="315.5" cy="154.5" r="4" class="hover-dot"><title>Oct 2022: 128 total (+20 this month)</title></circle>
    <rect x="245.5" y="128.5" width="140" height="20" rx="4" class="tooltip-bg"/>
    <text x="315.5" y="142.5" class="tooltip-text" text-anchor="middle">Oct 2022: 128 total (+20 this month)</text>
  </g>
  <g class="hoverpoint">
    <line x1="325.8" y1="30" x2="325.8" y2="160.0" class="guide"/>
    <circle cx="325.8" cy="152.7" r="16" class="hit"/>
    <circle cx="325.8" cy="152.7" r="4" class="hover-dot"><title>Nov 2022: 168 total (+40 this month)</title></circle>
    <rect x="255.8" y="126.7" width="140" height="20" rx="4" class="tooltip-bg"/>
    <text x="325.8" y="140.7" class="tooltip-text" text-anchor="middle">Nov 2022: 168 total (+40 this month)</text>
  </g>
  <g class="hoverpoint">
    <line x1="337.7" y1="30" x2="337.7" y2="160.0" class="guide"/>
    <circle cx="337.7" cy="152.4" r="16" class="hit"/>
    <circle cx="337.7" cy="152.4" r="4" class="hover-dot"><title>Dec 2022: 175 total (+7 this month)</title></circle>
    <rect x="267.7" y="126.4" width="140" height="20" rx="4" class="tooltip-bg"/>
    <text x="337.7" y="140.4" class="tooltip-text" text-anchor="middle">Dec 2022: 175 total (+7 this month)</text>
  </g>
  <g class="hoverpoint">
    <line x1="345.4" y1="30" x2="345.4" y2="160.0" class="guide"/>
    <circle cx="345.4" cy="150.7" r="16" class="hit"/>
    <circle cx="345.4" cy="150.7" r="4" class="hover-dot"><title>Jan 2023: 214 total (+39 this month)</title></circle>
    <rect x="275.4" y="124.7" width="140" height="20" rx="4" class="tooltip-bg"/>
    <text x="345.4" y="138.7" class="tooltip-text" text-anchor="middle">Jan 2023: 214 total (+39 this month)</text>
  </g>
  <g class="hoverpoint">
    <line x1="359.9" y1="30" x2="359.9" y2="160.0" class="guide"/>
    <circle cx="359.9" cy="150.2" r="16" class="hit"/>
    <circle cx="359.9" cy="150.2" r="4" class="hover-dot"><title>Feb 2023: 225 total (+11 this month)</title></circle>
    <rect x="289.9" y="124.2" width="140" height="20" rx="4" class="tooltip-bg"/>
    <text x="359.9" y="138.2" class="tooltip-text" text-anchor="middle">Feb 2023: 225 total (+11 this month)</text>
  </g>
  <g class="hoverpoint">
    <line x1="365.7" y1="30" x2="365.7" y2="160.0" class="guide"/>
    <circle cx="365.7" cy="149.7" r="16" class="hit"/>
    <circle cx="365.7" cy="149.7" r="4" class="hover-dot"><title>Mar 2023: 237 total (+12 this month)</title></circle>
    <rect x="295.7" y="123.7" width="140" height="20" rx="4" class="tooltip-bg"/>
    <text x="365.7" y="137.7" class="tooltip-text" text-anchor="middle">Mar 2023: 237 total (+12 this month)</text>
  </g>
  <g class="hoverpoint">
    <line x1="374.9" y1="30" x2="374.9" y2="160.0" class="guide"/>
    <circle cx="374.9" cy="149.6" r="16" class="hit"/>
    <circle cx="374.9" cy="149.6" r="4" class="hover-dot"><title>Apr 2023: 240 total (+3 this month)</title></circle>
    <rect x="304.9" y="123.6" width="140" height="20" rx="4" class="tooltip-bg"/>
    <text x="374.9" y="137.6" class="tooltip-text" text-anchor="middle">Apr 2023: 240 total (+3 this month)</text>
  </g>
  <g class="hoverpoint">
    <line x1="571.0" y1="30" x2="571.0" y2="160.0" class="guide"/>
    <circle cx="571.0" cy="149.1" r="16" class="hit"/>
    <circle cx="571.0" cy="149.1" r="4" class="hover-dot"><title>Aug 2024: 252 total (+12 this month)</title></circle>
    <rect x="501.0" y="123.1" width="140" height="20" rx="4" class="tooltip-bg"/>
    <text x="571.0" y="137.1" class="tooltip-text" text-anchor="middle">Aug 2024: 252 total (+12 this month)</text>
  </g>
  <g class="hoverpoint">
    <line x1="581.7" y1="30" x2="581.7" y2="160.0" class="guide"/>
    <circle cx="581.7" cy="149.0" r="16" class="hit"/>
    <circle cx="581.7" cy="149.0" r="4" class="hover-dot"><title>Sep 2024: 253 total (+1 this month)</title></circle>
    <rect x="511.7" y="123.0" width="140" height="20" rx="4" class="tooltip-bg"/>
    <text x="581.7" y="137.0" class="tooltip-text" text-anchor="middle">Sep 2024: 253 total (+1 this month)</text>
  </g>
  <g class="hoverpoint">
    <line x1="594.4" y1="30" x2="594.4" y2="160.0" class="guide"/>
    <circle cx="594.4" cy="148.7" r="16" class="hit"/>
    <circle cx="594.4" cy="148.7" r="4" class="hover-dot"><title>Oct 2024: 261 total (+8 this month)</title></circle>
    <rect x="524.4" y="122.7" width="140" height="20" rx="4" class="tooltip-bg"/>
    <text x="594.4" y="136.7" class="tooltip-text" text-anchor="middle">Oct 2024: 261 total (+8 this month)</text>
  </g>
  <g class="hoverpoint">
    <line x1="627.3" y1="30" x2="627.3" y2="160.0" class="guide"/>
    <circle cx="627.3" cy="148.3" r="16" class="hit"/>
    <circle cx="627.3" cy="148.3" r="4" class="hover-dot"><title>Jan 2025: 270 total (+9 this month)</title></circle>
    <rect x="557.3" y="122.3" width="140" height="20" rx="4" class="tooltip-bg"/>
    <text x="627.3" y="136.3" class="tooltip-text" text-anchor="middle">Jan 2025: 270 total (+9 this month)</text>
  </g>
  <g class="hoverpoint">
    <line x1="632.7" y1="30" x2="632.7" y2="160.0" class="guide"/>
    <circle cx="632.7" cy="148.2" r="16" class="hit"/>
    <circle cx="632.7" cy="148.2" r="4" class="hover-dot"><title>Feb 2025: 272 total (+2 this month)</title></circle>
    <rect x="562.7" y="122.2" width="140" height="20" rx="4" class="tooltip-bg"/>
    <text x="632.7" y="136.2" class="tooltip-text" text-anchor="middle">Feb 2025: 272 total (+2 this month)</text>
  </g>
  <g class="hoverpoint">
    <line x1="652.2" y1="30" x2="652.2" y2="160.0" class="guide"/>
    <circle cx="652.2" cy="147.3" r="16" class="hit"/>
    <circle cx="652.2" cy="147.3" r="4" class="hover-dot"><title>Mar 2025: 294 total (+22 this month)</title></circle>
    <rect x="582.2" y="121.3" width="140" height="20" rx="4" class="tooltip-bg"/>
    <text x="652.2" y="135.3" class="tooltip-text" text-anchor="middle">Mar 2025: 294 total (+22 this month)</text>
  </g>
  <g class="hoverpoint">
    <line x1="665.2" y1="30" x2="665.2" y2="160.0" class="guide"/>
    <circle cx="665.2" cy="144.8" r="16" class="hit"/>
    <circle cx="665.2" cy="144.8" r="4" class="hover-dot"><title>Apr 2025: 351 total (+57 this month)</title></circle>
    <rect x="595.2" y="118.8" width="140" height="20" rx="4" class="tooltip-bg"/>
    <text x="665.2" y="132.8" class="tooltip-text" text-anchor="middle">Apr 2025: 351 total (+57 this month)</text>
  </g>
  <g class="hoverpoint">
    <line x1="672.5" y1="30" x2="672.5" y2="160.0" class="guide"/>
    <circle cx="672.5" cy="142.3" r="16" class="hit"/>
    <circle cx="672.5" cy="142.3" r="4" class="hover-dot"><title>May 2025: 408 total (+57 this month)</title></circle>
    <rect x="602.5" y="116.3" width="140" height="20" rx="4" class="tooltip-bg"/>
    <text x="672.5" y="130.3" class="tooltip-text" text-anchor="middle">May 2025: 408 total (+57 this month)</text>
  </g>
  <g class="hoverpoint">
    <line x1="687.1" y1="30" x2="687.1" y2="160.0" class="guide"/>
    <circle cx="687.1" cy="141.6" r="16" class="hit"/>
    <circle cx="687.1" cy="141.6" r="4" class="hover-dot"><title>Jun 2025: 424 total (+16 this month)</title></circle>
    <rect x="617.1" y="115.6" width="140" height="20" rx="4" class="tooltip-bg"/>
    <text x="687.1" y="129.6" class="tooltip-text" text-anchor="middle">Jun 2025: 424 total (+16 this month)</text>
  </g>
  <g class="hoverpoint">
    <line x1="700.5" y1="30" x2="700.5" y2="160.0" class="guide"/>
    <circle cx="700.5" cy="141.3" r="16" class="hit"/>
    <circle cx="700.5" cy="141.3" r="4" class="hover-dot"><title>Jul 2025: 432 total (+8 this month)</title></circle>
    <rect x="630.5" y="115.3" width="140" height="20" rx="4" class="tooltip-bg"/>
    <text x="700.5" y="129.3" class="tooltip-text" text-anchor="middle">Jul 2025: 432 total (+8 this month)</text>
  </g>
  <g class="hoverpoint">
    <line x1="711.2" y1="30" x2="711.2" y2="160.0" class="guide"/>
    <circle cx="711.2" cy="139.4" r="16" class="hit"/>
    <circle cx="711.2" cy="139.4" r="4" class="hover-dot"><title>Aug 2025: 475 total (+43 this month)</title></circle>
    <rect x="641.2" y="113.4" width="140" height="20" rx="4" class="tooltip-bg"/>
    <text x="711.2" y="127.4" class="tooltip-text" text-anchor="middle">Aug 2025: 475 total (+43 this month)</text>
  </g>
  <g class="hoverpoint">
    <line x1="723.9" y1="30" x2="723.9" y2="160.0" class="guide"/>
    <circle cx="723.9" cy="137.2" r="16" class="hit"/>
    <circle cx="723.9" cy="137.2" r="4" class="hover-dot"><title>Sep 2025: 526 total (+51 this month)</title></circle>
    <rect x="653.9" y="111.2" width="140" height="20" rx="4" class="tooltip-bg"/>
    <text x="723.9" y="125.2" class="tooltip-text" text-anchor="middle">Sep 2025: 526 total (+51 this month)</text>
  </g>
  <g class="hoverpoint">
    <line x1="735.7" y1="30" x2="735.7" y2="160.0" class="guide"/>
    <circle cx="735.7" cy="130.0" r="16" class="hit"/>
    <circle cx="735.7" cy="130.0" r="4" class="hover-dot"><title>Oct 2025: 692 total (+166 this month)</title></circle>
    <rect x="665.7" y="104.0" width="140" height="20" rx="4" class="tooltip-bg"/>
    <text x="735.7" y="118.0" class="tooltip-text" text-anchor="middle">Oct 2025: 692 total (+166 this month)</text>
  </g>
  <g class="hoverpoint">
    <line x1="747.2" y1="30" x2="747.2" y2="160.0" class="guide"/>
    <circle cx="747.2" cy="128.3" r="16" class="hit"/>
    <circle cx="747.2" cy="128.3" r="4" class="hover-dot"><title>Nov 2025: 731 total (+39 this month)</title></circle>
    <rect x="677.2" y="102.3" width="140" height="20" rx="4" class="tooltip-bg"/>
    <text x="747.2" y="116.3" class="tooltip-text" text-anchor="middle">Nov 2025: 731 total (+39 this month)</text>
  </g>
  <g class="hoverpoint">
    <line x1="759.1" y1="30" x2="759.1" y2="160.0" class="guide"/>
    <circle cx="759.1" cy="126.1" r="16" class="hit"/>
    <circle cx="759.1" cy="126.1" r="4" class="hover-dot"><title>Dec 2025: 783 total (+52 this month)</title></circle>
    <rect x="689.1" y="100.1" width="140" height="20" rx="4" class="tooltip-bg"/>
    <text x="759.1" y="114.1" class="tooltip-text" text-anchor="middle">Dec 2025: 783 total (+52 this month)</text>
  </g>
  <g class="hoverpoint">
    <line x1="771.0" y1="30" x2="771.0" y2="160.0" class="guide"/>
    <circle cx="771.0" cy="115.7" r="16" class="hit"/>
    <circle cx="771.0" cy="115.7" r="4" class="hover-dot"><title>Jan 2026: 1,022 total (+239 this month)</title></circle>
    <rect x="701.0" y="89.7" width="140" height="20" rx="4" class="tooltip-bg"/>
    <text x="771.0" y="103.7" class="tooltip-text" text-anchor="middle">Jan 2026: 1,022 total (+239 this month)</text>
  </g>
  <g class="hoverpoint">
    <line x1="781.7" y1="30" x2="781.7" y2="160.0" class="guide"/>
    <circle cx="781.7" cy="102.8" r="16" class="hit"/>
    <circle cx="781.7" cy="102.8" r="4" class="hover-dot"><title>Feb 2026: 1,321 total (+299 this month)</title></circle>
    <rect x="711.7" y="76.8" width="140" height="20" rx="4" class="tooltip-bg"/>
    <text x="781.7" y="90.8" class="tooltip-text" text-anchor="middle">Feb 2026: 1,321 total (+299 this month)</text>
  </g>
  <g class="hoverpoint">
    <line x1="793.6" y1="30" x2="793.6" y2="160.0" class="guide"/>
    <circle cx="793.6" cy="89.9" r="16" class="hit"/>
    <circle cx="793.6" cy="89.9" r="4" class="hover-dot"><title>Mar 2026: 1,617 total (+296 this month)</title></circle>
    <rect x="723.6" y="63.9" width="140" height="20" rx="4" class="tooltip-bg"/>
    <text x="793.6" y="77.9" class="tooltip-text" text-anchor="middle">Mar 2026: 1,617 total (+296 this month)</text>
  </g>
  <g class="hoverpoint">
    <line x1="804.7" y1="30" x2="804.7" y2="160.0" class="guide"/>
    <circle cx="804.7" cy="84.2" r="16" class="hit"/>
    <circle cx="804.7" cy="84.2" r="4" class="hover-dot"><title>Apr 2026: 1,749 total (+132 this month)</title></circle>
    <rect x="734.7" y="58.2" width="140" height="20" rx="4" class="tooltip-bg"/>
    <text x="804.7" y="72.2" class="tooltip-text" text-anchor="middle">Apr 2026: 1,749 total (+132 this month)</text>
  </g>
  <g class="hoverpoint">
    <line x1="816.9" y1="30" x2="816.9" y2="160.0" class="guide"/>
    <circle cx="816.9" cy="38.9" r="16" class="hit"/>
    <circle cx="816.9" cy="38.9" r="4" class="hover-dot"><title>May 2026: 2,795 total (+1,046 this month)</title></circle>
    <rect x="746.9" y="12.9" width="140" height="20" rx="4" class="tooltip-bg"/>
    <text x="816.9" y="26.9" class="tooltip-text" text-anchor="middle">May 2026: 2,795 total (+1,046 this month)</text>
  </g>
  <g class="hoverpoint">
    <line x1="820.0" y1="30" x2="820.0" y2="160.0" class="guide"/>
    <circle cx="820.0" cy="35.3" r="16" class="hit"/>
    <circle cx="820.0" cy="35.3" r="4" class="hover-dot"><title>Jun 2026: 2,877 total (+82 this month)</title></circle>
    <rect x="750.0" y="9.3" width="140" height="20" rx="4" class="tooltip-bg"/>
    <text x="820.0" y="23.3" class="tooltip-text" text-anchor="middle">Jun 2026: 2,877 total (+82 this month)</text>
  </g>

  <circle cx="820.0" cy="35.3" r="4" class="dot"/>
  <text x="810.0" y="25.3" class="total">2,877</text>

</svg>