<svg xmlns="http://www.w3.org/2000/svg" width="840" height="196" viewBox="0 0 840 196" fill="none">
  <style>
    .label { font-family: -apple-system, BlinkMacSystemFont, 'Segoe UI', Helvetica, Arial, sans-serif; font-size: 10px; fill: #8b949e; }
    .title { font-family: -apple-system, BlinkMacSystemFont, 'Segoe UI', Helvetica, Arial, sans-serif; font-size: 11px; fill: #8b949e; font-weight: 600; }
    .total { font-family: -apple-system, BlinkMacSystemFont, 'Segoe UI', Helvetica, Arial, sans-serif; font-size: 11px; fill: #7ee787; font-weight: 600; }
    .grid { stroke: #21262d; stroke-width: 1; }
    .line { stroke: #7ee787; stroke-width: 2; stroke-linecap: round; stroke-linejoin: round; fill: none; }
    .dot { fill: #7ee787; }
    .area { fill: url(#areaGrad); }
    /* Hover interaction */
    .hoverpoint .guide { stroke: #7ee787; stroke-width: 1; stroke-dasharray: 2,2; opacity: 0; }
    .hoverpoint .hover-dot { fill: #7ee787; opacity: 0; }
    .hoverpoint .hit { fill: transparent; cursor: pointer; }
    .hoverpoint .tooltip-bg { fill: #161b22; stroke: #30363d; stroke-width: 1; opacity: 0; }
    .hoverpoint .tooltip-text { font-family: -apple-system, BlinkMacSystemFont, 'Segoe UI', Helvetica, Arial, sans-serif; font-size: 9px; fill: #c9d1d9; opacity: 0; }
    .hoverpoint:hover .guide { opacity: 0.5; }
    .hoverpoint:hover .hover-dot { opacity: 1; }
    .hoverpoint:hover .tooltip-bg { opacity: 0.95; }
    .hoverpoint:hover .tooltip-text { opacity: 1; }
  </style>
  <defs>
    <linearGradient id="areaGrad" x1="0" y1="0" x2="0" y2="1">
      <stop offset="0%" stop-color="#7ee787" stop-opacity="0.15"/>
      <stop offset="100%" stop-color="#7ee787" stop-opacity="0.01"/>
    </linearGradient>
  </defs>

  <text x="60" y="18" class="title">Cumulative Commits</text>

  <line x1="60" y1="160.0" x2="820" y2="160.0" class="grid"/>
  <text x="50" y="163.0" class="label" text-anchor="end">0</text>
  <line x1="60" y1="127.5" x2="820" y2="127.5" class="grid" stroke-dasharray="3,3"/>
  <text x="50" y="130.5" class="label" text-anchor="end">500</text>
  <line x1="60" y1="95.0" x2="820" y2="95.0" class="grid" stroke-dasharray="3,3"/>
  <text x="50" y="98.0" class="label" text-anchor="end">1,000</text>
  <line x1="60" y1="62.5" x2="820" y2="62.5" class="grid" stroke-dasharray="3,3"/>
  <text x="50" y="65.5" class="label" text-anchor="end">1,500</text>
  <line x1="60" y1="30.0" x2="820" y2="30.0" class="grid" stroke-dasharray="3,3"/>
  <text x="50" y="33.0" class="label" text-anchor="end">2,000</text>

  <text x="70.0" y="186" class="label" text-anchor="middle">2021</text>
  <text x="204.9" y="186" class="label" text-anchor="middle">2022</text>
  <text x="349.9" y="186" class="label" text-anchor="middle">2023</text>
  <text x="494.8" y="186" class="label" text-anchor="middle">2024</text>
  <text x="640.1" y="186" class="label" text-anchor="middle">2025</text>
  <text x="785.1" y="186" class="label" text-anchor="middle">2026</text>


  <path class="area" d="M60.0,160.0 L60.0,160.0 60.0,160.0 L184.3,159.7 L184.7,159.6 L185.9,159.5 L204.9,159.4 L205.3,159.0 L205.7,158.9 L206.1,158.6 L206.5,158.6 L206.9,158.4 L207.7,158.1 L208.1,157.9 L208.5,157.8 L208.9,157.7 L210.5,157.5 L210.9,157.5 L211.3,157.4 L215.3,157.3 L225.6,157.1 L280.0,157.1 L280.4,156.5 L282.0,156.4 L282.8,155.9 L288.7,155.8 L289.5,155.6 L289.9,155.4 L290.3,155.3 L291.1,155.1 L291.5,154.7 L291.9,154.0 L292.3,153.9 L293.9,153.6 L294.7,153.6 L296.7,153.4 L302.2,153.2 L312.9,153.0 L318.9,152.9 L321.7,152.8 L322.1,152.7 L322.5,152.5 L322.9,152.3 L324.1,151.8 L324.5,151.7 L324.8,151.7 L326.4,151.4 L326.8,151.1 L327.2,151.0 L327.6,150.4 L328.0,149.9 L328.4,149.7 L328.8,149.5 L329.6,149.4 L331.2,149.3 L335.6,149.1 L347.1,149.0 L347.5,148.7 L347.9,148.6 L351.8,148.0 L352.2,146.5 L353.4,146.3 L353.8,146.3 L355.8,146.1 L369.3,145.8 L369.7,145.7 L370.1,145.6 L370.9,145.4 L373.7,145.2 L374.5,144.9 L374.9,144.7 L376.9,144.6 L386.4,144.4 L581.8,144.3 L582.5,144.2 L583.3,144.1 L584.1,144.0 L584.5,143.9 L584.9,143.8 L585.3,143.8 L585.7,143.7 L589.7,143.6 L600.8,143.6 L604.0,143.5 L605.2,143.4 L607.6,143.4 L609.9,143.3 L610.3,143.2 L611.9,143.2 L613.1,143.1 L613.9,143.0 L643.3,143.0 L643.7,142.8 L644.5,142.8 L644.9,142.7 L646.1,142.5 L648.1,142.4 L653.6,142.3 L665.1,141.7 L665.5,141.5 L670.7,141.3 L671.1,141.2 L672.3,141.1 L673.9,140.9 L675.9,140.2 L676.3,138.4 L676.7,138.3 L679.0,138.2 L680.2,138.1 L680.6,138.0 L681.4,137.8 L684.6,137.7 L687.4,137.2 L689.4,136.7 L689.8,136.5 L691.0,136.2 L691.3,135.4 L691.7,135.2 L692.1,134.9 L692.5,134.7 L692.9,134.4 L693.7,133.9 L694.9,133.5 L709.2,133.3 L710.0,132.4 L718.7,132.2 L723.9,131.9 L726.3,131.9 L726.7,131.8 L729.1,131.7 L729.5,131.7 L729.9,131.6 L730.3,131.4 L730.7,131.1 L731.1,130.5 L731.5,130.4 L733.8,129.4 L734.2,129.3 L735.0,129.1 L737.8,128.8 L738.6,128.7 L739.0,128.5 L739.8,128.5 L740.2,128.0 L740.6,127.9 L741.4,127.8 L741.8,127.6 L742.2,127.6 L742.6,127.5 L744.2,127.1 L744.6,127.0 L745.0,126.8 L745.4,126.7 L745.7,126.6 L746.1,126.4 L747.3,126.1 L747.7,125.9 L748.1,125.8 L748.5,125.6 L748.9,125.2 L749.7,125.1 L750.1,124.4 L750.5,124.1 L750.9,122.8 L751.3,122.5 L751.7,122.2 L752.1,121.5 L752.5,121.4 L752.9,121.2 L753.3,121.1 L753.7,120.7 L755.7,120.0 L756.1,119.8 L756.5,119.2 L756.9,118.1 L757.3,118.0 L758.1,117.9 L758.5,116.9 L758.9,116.4 L759.2,116.3 L759.6,115.3 L760.4,115.0 L760.8,114.9 L761.2,114.8 L761.6,114.7 L762.0,114.6 L762.4,114.6 L764.0,114.4 L764.8,114.3 L765.2,113.8 L765.6,113.5 L766.8,113.5 L768.8,113.3 L771.2,113.1 L771.6,112.9 L772.0,112.9 L772.4,112.5 L772.7,111.6 L773.1,111.5 L773.5,111.4 L773.9,111.3 L774.3,111.1 L774.7,110.6 L779.1,110.5 L779.5,110.4 L783.1,109.9 L783.9,109.5 L784.3,109.4 L784.7,109.1 L785.1,109.0 L786.2,108.8 L786.6,107.9 L787.0,105.5 L787.4,103.5 L787.8,103.4 L788.2,103.1 L789.0,102.8 L789.4,102.5 L789.8,102.1 L790.6,102.0 L791.0,101.4 L791.4,101.3 L792.2,100.4 L792.6,100.3 L793.0,99.8 L793.4,99.5 L793.8,99.1 L794.2,99.0 L795.4,98.4 L795.8,98.1 L796.2,96.6 L796.6,94.4 L797.0,93.6 L797.4,92.6 L797.8,92.5 L798.2,92.1 L798.6,91.9 L799.0,91.4 L799.4,90.6 L799.7,90.6 L800.1,90.1 L800.5,90.0 L800.9,89.5 L801.3,89.0 L801.7,88.4 L802.1,87.8 L802.5,87.7 L802.9,87.5 L803.3,86.4 L803.7,84.4 L804.1,84.1 L804.9,83.7 L805.3,83.5 L805.7,83.4 L806.1,80.2 L806.5,78.8 L806.9,77.3 L807.3,76.8 L807.7,74.4 L808.1,74.1 L808.5,74.0 L808.9,73.5 L809.3,72.4 L809.7,70.4 L810.1,68.2 L810.5,68.1 L810.9,67.6 L811.7,67.5 L812.1,66.2 L812.5,65.2 L812.9,63.8 L813.2,63.6 L813.6,63.5 L814.0,61.4 L814.4,58.9 L814.8,57.8 L815.2,57.3 L815.6,56.6 L816.0,56.1 L816.4,56.0 L817.2,55.9 L818.4,55.9 L818.8,55.8 L820.0,55.7 L820.0,160.0 Z"/>
  <polyline class="line" points="60.0,160.0 184.3,159.7 184.7,159.6 185.9,159.5 204.9,159.4 205.3,159.0 205.7,158.9 206.1,158.6 206.5,158.6 206.9,158.4 207.7,158.1 208.1,157.9 208.5,157.8 208.9,157.7 210.5,157.5 210.9,157.5 211.3,157.4 215.3,157.3 225.6,157.1 280.0,157.1 280.4,156.5 282.0,156.4 282.8,155.9 288.7,155.8 289.5,155.6 289.9,155.4 290.3,155.3 291.1,155.1 291.5,154.7 291.9,154.0 292.3,153.9 293.9,153.6 294.7,153.6 296.7,153.4 302.2,153.2 312.9,153.0 318.9,152.9 321.7,152.8 322.1,152.7 322.5,152.5 322.9,152.3 324.1,151.8 324.5,151.7 324.8,151.7 326.4,151.4 326.8,151.1 327.2,151.0 327.6,150.4 328.0,149.9 328.4,149.7 328.8,149.5 329.6,149.4 331.2,149.3 335.6,149.1 347.1,149.0 347.5,148.7 347.9,148.6 351.8,148.0 352.2,146.5 353.4,146.3 353.8,146.3 355.8,146.1 369.3,145.8 369.7,145.7 370.1,145.6 370.9,145.4 373.7,145.2 374.5,144.9 374.9,144.7 376.9,144.6 386.4,144.4 581.8,144.3 582.5,144.2 583.3,144.1 584.1,144.0 584.5,143.9 584.9,143.8 585.3,143.8 585.7,143.7 589.7,143.6 600.8,143.6 604.0,143.5 605.2,143.4 607.6,143.4 609.9,143.3 610.3,143.2 611.9,143.2 613.1,143.1 613.9,143.0 643.3,143.0 643.7,142.8 644.5,142.8 644.9,142.7 646.1,142.5 648.1,142.4 653.6,142.3 665.1,141.7 665.5,141.5 670.7,141.3 671.1,141.2 672.3,141.1 673.9,140.9 675.9,140.2 676.3,138.4 676.7,138.3 679.0,138.2 680.2,138.1 680.6,138.0 681.4,137.8 684.6,137.7 687.4,137.2 689.4,136.7 689.8,136.5 691.0,136.2 691.3,135.4 691.7,135.2 692.1,134.9 692.5,134.7 692.9,134.4 693.7,133.9 694.9,133.5 709.2,133.3 710.0,132.4 718.7,132.2 723.9,131.9 726.3,131.9 726.7,131.8 729.1,131.7 729.5,131.7 729.9,131.6 730.3,131.4 730.7,131.1 731.1,130.5 731.5,130.4 733.8,129.4 734.2,129.3 735.0,129.1 737.8,128.8 738.6,128.7 739.0,128.5 739.8,128.5 740.2,128.0 740.6,127.9 741.4,127.8 741.8,127.6 742.2,127.6 742.6,127.5 744.2,127.1 744.6,127.0 745.0,126.8 745.4,126.7 745.7,126.6 746.1,126.4 747.3,126.1 747.7,125.9 748.1,125.8 748.5,125.6 748.9,125.2 749.7,125.1 750.1,124.4 750.5,124.1 750.9,122.8 751.3,122.5 751.7,122.2 752.1,121.5 752.5,121.4 752.9,121.2 753.3,121.1 753.7,120.7 755.7,120.0 756.1,119.8 756.5,119.2 756.9,118.1 757.3,118.0 758.1,117.9 758.5,116.9 758.9,116.4 759.2,116.3 759.6,115.3 760.4,115.0 760.8,114.9 761.2,114.8 761.6,114.7 762.0,114.6 762.4,114.6 764.0,114.4 764.8,114.3 765.2,113.8 765.6,113.5 766.8,113.5 768.8,113.3 771.2,113.1 771.6,112.9 772.0,112.9 772.4,112.5 772.7,111.6 773.1,111.5 773.5,111.4 773.9,111.3 774.3,111.1 774.7,110.6 779.1,110.5 779.5,110.4 783.1,109.9 783.9,109.5 784.3,109.4 784.7,109.1 785.1,109.0 786.2,108.8 786.6,107.9 787.0,105.5 787.4,103.5 787.8,103.4 788.2,103.1 789.0,102.8 789.4,102.5 789.8,102.1 790.6,102.0 791.0,101.4 791.4,101.3 792.2,100.4 792.6,100.3 793.0,99.8 793.4,99.5 793.8,99.1 794.2,99.0 795.4,98.4 795.8,98.1 796.2,96.6 796.6,94.4 797.0,93.6 797.4,92.6 797.8,92.5 798.2,92.1 798.6,91.9 799.0,91.4 799.4,90.6 799.7,90.6 800.1,90.1 800.5,90.0 800.9,89.5 801.3,89.0 801.7,88.4 802.1,87.8 802.5,87.7 802.9,87.5 803.3,86.4 803.7,84.4 804.1,84.1 804.9,83.7 805.3,83.5 805.7,83.4 806.1,80.2 806.5,78.8 806.9,77.3 807.3,76.8 807.7,74.4 808.1,74.1 808.5,74.0 808.9,73.5 809.3,72.4 809.7,70.4 810.1,68.2 810.5,68.1 810.9,67.6 811.7,67.5 812.1,66.2 812.5,65.2 812.9,63.8 813.2,63.6 813.6,63.5 814.0,61.4 814.4,58.9 814.8,57.8 815.2,57.3 815.6,56.6 816.0,56.1 816.4,56.0 817.2,55.9 818.4,55.9 818.8,55.8 820.0,55.7"/>

  <g class="hoverpoint">
    <line x1="185.9" y1="30" x2="185.9" y2="160.0" class="guide"/>
    <circle cx="185.9" cy="159.5" r="16" class="hit"/>
    <circle cx="185.9" cy="159.5" r="4" class="hover-dot"><title>Nov 2021: 7 total (+7 this month)</title></circle>
    <rect x="115.9" y="133.5" width="140" height="20" rx="4" class="tooltip-bg"/>
    <text x="185.9" y="147.5" class="tooltip-text" text-anchor="middle">Nov 2021: 7 total (+7 this month)</text>
  </g>
  <g class="hoverpoint">
    <line x1="215.3" y1="30" x2="215.3" y2="160.0" class="guide"/>
    <circle cx="215.3" cy="157.3" r="16" class="hit"/>
    <circle cx="215.3" cy="157.3" r="4" class="hover-dot"><title>Jan 2022: 41 total (+34 this month)</title></circle>
    <rect x="145.3" y="131.3" width="140" height="20" rx="4" class="tooltip-bg"/>
    <text x="215.3" y="145.3" class="tooltip-text" text-anchor="middle">Jan 2022: 41 total (+34 this month)</text>
  </g>
  <g class="hoverpoint">
    <line x1="225.6" y1="30" x2="225.6" y2="160.0" class="guide"/>
    <circle cx="225.6" cy="157.1" r="16" class="hit"/>
    <circle cx="225.6" cy="157.1" r="4" class="hover-dot"><title>Feb 2022: 44 total (+3 this month)</title></circle>
    <rect x="155.6" y="131.1" width="140" height="20" rx="4" class="tooltip-bg"/>
    <text x="225.6" y="145.1" class="tooltip-text" text-anchor="middle">Feb 2022: 44 total (+3 this month)</text>
  </g>
  <g class="hoverpoint">
    <line x1="288.7" y1="30" x2="288.7" y2="160.0" class="guide"/>
    <circle cx="288.7" cy="155.8" r="16" class="hit"/>
    <circle cx="288.7" cy="155.8" r="4" class="hover-dot"><title>Jul 2022: 65 total (+21 this month)</title></circle>
    <rect x="218.7" y="129.8" width="140" height="20" rx="4" class="tooltip-bg"/>
    <text x="288.7" y="143.8" class="tooltip-text" text-anchor="middle">Jul 2022: 65 total (+21 this month)</text>
  </g>
  <g class="hoverpoint">
    <line x1="296.7" y1="30" x2="296.7" y2="160.0" class="guide"/>
    <circle cx="296.7" cy="153.4" r="16" class="hit"/>
    <circle cx="296.7" cy="153.4" r="4" class="hover-dot"><title>Aug 2022: 101 total (+36 this month)</title></circle>
    <rect x="226.7" y="127.4" width="140" height="20" rx="4" class="tooltip-bg"/>
    <text x="296.7" y="141.4" class="tooltip-text" text-anchor="middle">Aug 2022: 101 total (+36 this month)</text>
  </g>
  <g class="hoverpoint">
    <line x1="312.9" y1="30" x2="312.9" y2="160.0" class="guide"/>
    <circle cx="312.9" cy="153.0" r="16" class="hit"/>
    <circle cx="312.9" cy="153.0" r="4" class="hover-dot"><title>Sep 2022: 108 total (+7 this month)</title></circle>
    <rect x="242.9" y="127.0" width="140" height="20" rx="4" class="tooltip-bg"/>
    <text x="312.9" y="141.0" class="tooltip-text" text-anchor="middle">Sep 2022: 108 total (+7 this month)</text>
  </g>
  <g class="hoverpoint">
    <line x1="324.8" y1="30" x2="324.8" y2="160.0" class="guide"/>
    <circle cx="324.8" cy="151.7" r="16" class="hit"/>
    <circle cx="324.8" cy="151.7" r="4" class="hover-dot"><title>Oct 2022: 128 total (+20 this month)</title></circle>
    <rect x="254.8" y="125.7" width="140" height="20" rx="4" class="tooltip-bg"/>
    <text x="324.8" y="139.7" class="tooltip-text" text-anchor="middle">Oct 2022: 128 total (+20 this month)</text>
  </g>
  <g class="hoverpoint">
    <line x1="335.6" y1="30" x2="335.6" y2="160.0" class="guide"/>
    <circle cx="335.6" cy="149.1" r="16" class="hit"/>
    <circle cx="335.6" cy="149.1" r="4" class="hover-dot"><title>Nov 2022: 168 total (+40 this month)</title></circle>
    <rect x="265.6" y="123.1" width="140" height="20" rx="4" class="tooltip-bg"/>
    <text x="335.6" y="137.1" class="tooltip-text" text-anchor="middle">Nov 2022: 168 total (+40 this month)</text>
  </g>
  <g class="hoverpoint">
    <line x1="347.9" y1="30" x2="347.9" y2="160.0" class="guide"/>
    <circle cx="347.9" cy="148.6" r="16" class="hit"/>
    <circle cx="347.9" cy="148.6" r="4" class="hover-dot"><title>Dec 2022: 175 total (+7 this month)</title></circle>
    <rect x="277.9" y="122.6" width="140" height="20" rx="4" class="tooltip-bg"/>
    <text x="347.9" y="136.6" class="tooltip-text" text-anchor="middle">Dec 2022: 175 total (+7 this month)</text>
  </g>
  <g class="hoverpoint">
    <line x1="355.8" y1="30" x2="355.8" y2="160.0" class="guide"/>
    <circle cx="355.8" cy="146.1" r="16" class="hit"/>
    <circle cx="355.8" cy="146.1" r="4" class="hover-dot"><title>Jan 2023: 214 total (+39 this month)</title></circle>
    <rect x="285.8" y="120.1" width="140" height="20" rx="4" class="tooltip-bg"/>
    <text x="355.8" y="134.1" class="tooltip-text" text-anchor="middle">Jan 2023: 214 total (+39 this month)</text>
  </g>
  <g class="hoverpoint">
    <line x1="370.9" y1="30" x2="370.9" y2="160.0" class="guide"/>
    <circle cx="370.9" cy="145.4" r="16" class="hit"/>
    <circle cx="370.9" cy="145.4" r="4" class="hover-dot"><title>Feb 2023: 225 total (+11 this month)</title></circle>
    <rect x="300.9" y="119.4" width="140" height="20" rx="4" class="tooltip-bg"/>
    <text x="370.9" y="133.4" class="tooltip-text" text-anchor="middle">Feb 2023: 225 total (+11 this month)</text>
  </g>
  <g class="hoverpoint">
    <line x1="376.9" y1="30" x2="376.9" y2="160.0" class="guide"/>
    <circle cx="376.9" cy="144.6" r="16" class="hit"/>
    <circle cx="376.9" cy="144.6" r="4" class="hover-dot"><title>Mar 2023: 237 total (+12 this month)</title></circle>
    <rect x="306.9" y="118.6" width="140" height="20" rx="4" class="tooltip-bg"/>
    <text x="376.9" y="132.6" class="tooltip-text" text-anchor="middle">Mar 2023: 237 total (+12 this month)</text>
  </g>
  <g class="hoverpoint">
    <line x1="386.4" y1="30" x2="386.4" y2="160.0" class="guide"/>
    <circle cx="386.4" cy="144.4" r="16" class="hit"/>
    <circle cx="386.4" cy="144.4" r="4" class="hover-dot"><title>Apr 2023: 240 total (+3 this month)</title></circle>
    <rect x="316.4" y="118.4" width="140" height="20" rx="4" class="tooltip-bg"/>
    <text x="386.4" y="132.4" class="tooltip-text" text-anchor="middle">Apr 2023: 240 total (+3 this month)</text>
  </g>
  <g class="hoverpoint">
    <line x1="589.7" y1="30" x2="589.7" y2="160.0" class="guide"/>
    <circle cx="589.7" cy="143.6" r="16" class="hit"/>
    <circle cx="589.7" cy="143.6" r="4" class="hover-dot"><title>Aug 2024: 252 total (+12 this month)</title></circle>
    <rect x="519.7" y="117.6" width="140" height="20" rx="4" class="tooltip-bg"/>
    <text x="589.7" y="131.6" class="tooltip-text" text-anchor="middle">Aug 2024: 252 total (+12 this month)</text>
  </g>
  <g class="hoverpoint">
    <line x1="600.8" y1="30" x2="600.8" y2="160.0" class="guide"/>
    <circle cx="600.8" cy="143.6" r="16" class="hit"/>
    <circle cx="600.8" cy="143.6" r="4" class="hover-dot"><title>Sep 2024: 253 total (+1 this month)</title></circle>
    <rect x="530.8" y="117.6" width="140" height="20" rx="4" class="tooltip-bg"/>
    <text x="600.8" y="131.6" class="tooltip-text" text-anchor="middle">Sep 2024: 253 total (+1 this month)</text>
  </g>
  <g class="hoverpoint">
    <line x1="613.9" y1="30" x2="613.9" y2="160.0" class="guide"/>
    <circle cx="613.9" cy="143.0" r="16" class="hit"/>
    <circle cx="613.9" cy="143.0" r="4" class="hover-dot"><title>Oct 2024: 261 total (+8 this month)</title></circle>
    <rect x="543.9" y="117.0" width="140" height="20" rx="4" class="tooltip-bg"/>
    <text x="613.9" y="131.0" class="tooltip-text" text-anchor="middle">Oct 2024: 261 total (+8 this month)</text>
  </g>
  <g class="hoverpoint">
    <line x1="648.1" y1="30" x2="648.1" y2="160.0" class="guide"/>
    <circle cx="648.1" cy="142.4" r="16" class="hit"/>
    <circle cx="648.1" cy="142.4" r="4" class="hover-dot"><title>Jan 2025: 270 total (+9 this month)</title></circle>
    <rect x="578.1" y="116.4" width="140" height="20" rx="4" class="tooltip-bg"/>
    <text x="648.1" y="130.4" class="tooltip-text" text-anchor="middle">Jan 2025: 270 total (+9 this month)</text>
  </g>
  <g class="hoverpoint">
    <line x1="653.6" y1="30" x2="653.6" y2="160.0" class="guide"/>
    <circle cx="653.6" cy="142.3" r="16" class="hit"/>
    <circle cx="653.6" cy="142.3" r="4" class="hover-dot"><title>Feb 2025: 272 total (+2 this month)</title></circle>
    <rect x="583.6" y="116.3" width="140" height="20" rx="4" class="tooltip-bg"/>
    <text x="653.6" y="130.3" class="tooltip-text" text-anchor="middle">Feb 2025: 272 total (+2 this month)</text>
  </g>
  <g class="hoverpoint">
    <line x1="673.9" y1="30" x2="673.9" y2="160.0" class="guide"/>
    <circle cx="673.9" cy="140.9" r="16" class="hit"/>
    <circle cx="673.9" cy="140.9" r="4" class="hover-dot"><title>Mar 2025: 294 total (+22 this month)</title></circle>
    <rect x="603.9" y="114.9" width="140" height="20" rx="4" class="tooltip-bg"/>
    <text x="673.9" y="128.9" class="tooltip-text" text-anchor="middle">Mar 2025: 294 total (+22 this month)</text>
  </g>
  <g class="hoverpoint">
    <line x1="687.4" y1="30" x2="687.4" y2="160.0" class="guide"/>
    <circle cx="687.4" cy="137.2" r="16" class="hit"/>
    <circle cx="687.4" cy="137.2" r="4" class="hover-dot"><title>Apr 2025: 351 total (+57 this month)</title></circle>
    <rect x="617.4" y="111.2" width="140" height="20" rx="4" class="tooltip-bg"/>
    <text x="687.4" y="125.2" class="tooltip-text" text-anchor="middle">Apr 2025: 351 total (+57 this month)</text>
  </g>
  <g class="hoverpoint">
    <line x1="694.9" y1="30" x2="694.9" y2="160.0" class="guide"/>
    <circle cx="694.9" cy="133.5" r="16" class="hit"/>
    <circle cx="694.9" cy="133.5" r="4" class="hover-dot"><title>May 2025: 408 total (+57 this month)</title></circle>
    <rect x="624.9" y="107.5" width="140" height="20" rx="4" class="tooltip-bg"/>
    <text x="694.9" y="121.5" class="tooltip-text" text-anchor="middle">May 2025: 408 total (+57 this month)</text>
  </g>
  <g class="hoverpoint">
    <line x1="710.0" y1="30" x2="710.0" y2="160.0" class="guide"/>
    <circle cx="710.0" cy="132.4" r="16" class="hit"/>
    <circle cx="710.0" cy="132.4" r="4" class="hover-dot"><title>Jun 2025: 424 total (+16 this month)</title></circle>
    <rect x="640.0" y="106.4" width="140" height="20" rx="4" class="tooltip-bg"/>
    <text x="710.0" y="120.4" class="tooltip-text" text-anchor="middle">Jun 2025: 424 total (+16 this month)</text>
  </g>
  <g class="hoverpoint">
    <line x1="723.9" y1="30" x2="723.9" y2="160.0" class="guide"/>
    <circle cx="723.9" cy="131.9" r="16" class="hit"/>
    <circle cx="723.9" cy="131.9" r="4" class="hover-dot"><title>Jul 2025: 432 total (+8 this month)</title></circle>
    <rect x="653.9" y="105.9" width="140" height="20" rx="4" class="tooltip-bg"/>
    <text x="723.9" y="119.9" class="tooltip-text" text-anchor="middle">Jul 2025: 432 total (+8 this month)</text>
  </g>
  <g class="hoverpoint">
    <line x1="735.0" y1="30" x2="735.0" y2="160.0" class="guide"/>
    <circle cx="735.0" cy="129.1" r="16" class="hit"/>
    <circle cx="735.0" cy="129.1" r="4" class="hover-dot"><title>Aug 2025: 475 total (+43 this month)</title></circle>
    <rect x="665.0" y="103.1" width="140" height="20" rx="4" class="tooltip-bg"/>
    <text x="735.0" y="117.1" class="tooltip-text" text-anchor="middle">Aug 2025: 475 total (+43 this month)</text>
  </g>
  <g class="hoverpoint">
    <line x1="748.1" y1="30" x2="748.1" y2="160.0" class="guide"/>
    <circle cx="748.1" cy="125.8" r="16" class="hit"/>
    <circle cx="748.1" cy="125.8" r="4" class="hover-dot"><title>Sep 2025: 526 total (+51 this month)</title></circle>
    <rect x="678.1" y="99.8" width="140" height="20" rx="4" class="tooltip-bg"/>
    <text x="748.1" y="113.8" class="tooltip-text" text-anchor="middle">Sep 2025: 526 total (+51 this month)</text>
  </g>
  <g class="hoverpoint">
    <line x1="760.4" y1="30" x2="760.4" y2="160.0" class="guide"/>
    <circle cx="760.4" cy="115.0" r="16" class="hit"/>
    <circle cx="760.4" cy="115.0" r="4" class="hover-dot"><title>Oct 2025: 692 total (+166 this month)</title></circle>
    <rect x="690.4" y="89.0" width="140" height="20" rx="4" class="tooltip-bg"/>
    <text x="760.4" y="103.0" class="tooltip-text" text-anchor="middle">Oct 2025: 692 total (+166 this month)</text>
  </g>
  <g class="hoverpoint">
    <line x1="772.4" y1="30" x2="772.4" y2="160.0" class="guide"/>
    <circle cx="772.4" cy="112.5" r="16" class="hit"/>
    <circle cx="772.4" cy="112.5" r="4" class="hover-dot"><title>Nov 2025: 731 total (+39 this month)</title></circle>
    <rect x="702.4" y="86.5" width="140" height="20" rx="4" class="tooltip-bg"/>
    <text x="772.4" y="100.5" class="tooltip-text" text-anchor="middle">Nov 2025: 731 total (+39 this month)</text>
  </g>
  <g class="hoverpoint">
    <line x1="784.7" y1="30" x2="784.7" y2="160.0" class="guide"/>
    <circle cx="784.7" cy="109.1" r="16" class="hit"/>
    <circle cx="784.7" cy="109.1" r="4" class="hover-dot"><title>Dec 2025: 783 total (+52 this month)</title></circle>
    <rect x="714.7" y="83.1" width="140" height="20" rx="4" class="tooltip-bg"/>
    <text x="784.7" y="97.1" class="tooltip-text" text-anchor="middle">Dec 2025: 783 total (+52 this month)</text>
  </g>
  <g class="hoverpoint">
    <line x1="797.0" y1="30" x2="797.0" y2="160.0" class="guide"/>
    <circle cx="797.0" cy="93.6" r="16" class="hit"/>
    <circle cx="797.0" cy="93.6" r="4" class="hover-dot"><title>Jan 2026: 1,022 total (+239 this month)</title></circle>
    <rect x="727.0" y="67.6" width="140" height="20" rx="4" class="tooltip-bg"/>
    <text x="797.0" y="81.6" class="tooltip-text" text-anchor="middle">Jan 2026: 1,022 total (+239 this month)</text>
  </g>
  <g class="hoverpoint">
    <line x1="808.1" y1="30" x2="808.1" y2="160.0" class="guide"/>
    <circle cx="808.1" cy="74.1" r="16" class="hit"/>
    <circle cx="808.1" cy="74.1" r="4" class="hover-dot"><title>Feb 2026: 1,321 total (+299 this month)</title></circle>
    <rect x="738.1" y="48.1" width="140" height="20" rx="4" class="tooltip-bg"/>
    <text x="808.1" y="62.1" class="tooltip-text" text-anchor="middle">Feb 2026: 1,321 total (+299 this month)</text>
  </g>
  <g class="hoverpoint">
    <line x1="820.0" y1="30" x2="820.0" y2="160.0" class="guide"/>
    <circle cx="820.0" cy="55.7" r="16" class="hit"/>
    <circle cx="820.0" cy="55.7" r="4" class="hover-dot"><title>Mar 2026: 1,604 total (+283 this month)</title></circle>
    <rect x="750.0" y="29.7" width="140" height="20" rx="4" class="tooltip-bg"/>
    <text x="820.0" y="43.7" class="tooltip-text" text-anchor="middle">Mar 2026: 1,604 total (+283 this month)</text>
  </g>

  <circle cx="820.0" cy="55.7" r="4" class="dot"/>
  <text x="810.0" y="45.7" class="total">1,604</text>

</svg>