<svg xmlns="http://www.w3.org/2000/svg" width="840" height="196" viewBox="0 0 840 196" fill="none">
  <style>
    .label { font-family: -apple-system, BlinkMacSystemFont, 'Segoe UI', Helvetica, Arial, sans-serif; font-size: 10px; fill: #8b949e; }
    .title { font-family: -apple-system, BlinkMacSystemFont, 'Segoe UI', Helvetica, Arial, sans-serif; font-size: 11px; fill: #8b949e; font-weight: 600; }
    .total { font-family: -apple-system, BlinkMacSystemFont, 'Segoe UI', Helvetica, Arial, sans-serif; font-size: 11px; fill: #7ee787; font-weight: 600; }
    .grid { stroke: #21262d; stroke-width: 1; }
    .line { stroke: #7ee787; stroke-width: 2; stroke-linecap: round; stroke-linejoin: round; fill: none; }
    .dot { fill: #7ee787; }
    .area { fill: url(#areaGrad); }
    /* Hover interaction */
    .hoverpoint .guide { stroke: #7ee787; stroke-width: 1; stroke-dasharray: 2,2; opacity: 0; }
    .hoverpoint .hover-dot { fill: #7ee787; opacity: 0; }
    .hoverpoint .hit { fill: transparent; cursor: pointer; }
    .hoverpoint .tooltip-bg { fill: #161b22; stroke: #30363d; stroke-width: 1; opacity: 0; }
    .hoverpoint .tooltip-text { font-family: -apple-system, BlinkMacSystemFont, 'Segoe UI', Helvetica, Arial, sans-serif; font-size: 9px; fill: #c9d1d9; opacity: 0; }
    .hoverpoint:hover .guide { opacity: 0.5; }
    .hoverpoint:hover .hover-dot { opacity: 1; }
    .hoverpoint:hover .tooltip-bg { opacity: 0.95; }
    .hoverpoint:hover .tooltip-text { opacity: 1; }
  </style>
  <defs>
    <linearGradient id="areaGrad" x1="0" y1="0" x2="0" y2="1">
      <stop offset="0%" stop-color="#7ee787" stop-opacity="0.15"/>
      <stop offset="100%" stop-color="#7ee787" stop-opacity="0.01"/>
    </linearGradient>
  </defs>

  <text x="60" y="18" class="title">Cumulative Commits</text>

  <line x1="60" y1="160.0" x2="820" y2="160.0" class="grid"/>
  <text x="50" y="163.0" class="label" text-anchor="end">0</text>
  <line x1="60" y1="127.5" x2="820" y2="127.5" class="grid" stroke-dasharray="3,3"/>
  <text x="50" y="130.5" class="label" text-anchor="end">750</text>
  <line x1="60" y1="95.0" x2="820" y2="95.0" class="grid" stroke-dasharray="3,3"/>
  <text x="50" y="98.0" class="label" text-anchor="end">1,500</text>
  <line x1="60" y1="62.5" x2="820" y2="62.5" class="grid" stroke-dasharray="3,3"/>
  <text x="50" y="65.5" class="label" text-anchor="end">2,250</text>
  <line x1="60" y1="30.0" x2="820" y2="30.0" class="grid" stroke-dasharray="3,3"/>
  <text x="50" y="33.0" class="label" text-anchor="end">3,000</text>

  <text x="70.0" y="186" class="label" text-anchor="middle">2021</text>
  <text x="201.2" y="186" class="label" text-anchor="middle">2022</text>
  <text x="342.3" y="186" class="label" text-anchor="middle">2023</text>
  <text x="483.5" y="186" class="label" text-anchor="middle">2024</text>
  <text x="625.1" y="186" class="label" text-anchor="middle">2025</text>
  <text x="766.2" y="186" class="label" text-anchor="middle">2026</text>


  <path class="area" d="M60.0,160.0 L60.0,160.0 60.0,160.0 L181.1,159.8 L181.4,159.7 L182.6,159.7 L201.2,159.6 L201.6,159.3 L201.9,159.3 L202.3,159.1 L202.7,159.0 L203.1,159.0 L203.9,158.7 L204.3,158.6 L204.7,158.5 L205.0,158.5 L206.6,158.4 L207.0,158.3 L207.4,158.3 L211.2,158.2 L221.3,158.1 L274.3,158.1 L274.7,157.7 L276.2,157.6 L277.0,157.3 L282.8,157.2 L283.6,157.1 L283.9,156.9 L284.3,156.9 L285.1,156.8 L285.5,156.4 L285.9,156.0 L286.3,155.9 L287.8,155.8 L288.6,155.7 L290.5,155.6 L295.9,155.4 L306.4,155.3 L312.2,155.3 L314.9,155.2 L315.3,155.1 L315.7,155.0 L316.0,154.8 L317.2,154.5 L317.6,154.5 L318.0,154.5 L319.5,154.3 L319.9,154.1 L320.3,154.0 L320.7,153.6 L321.1,153.2 L321.5,153.1 L321.8,153.0 L322.6,152.9 L324.2,152.8 L328.4,152.7 L339.6,152.7 L340.0,152.5 L340.4,152.4 L344.3,152.0 L344.7,151.0 L345.8,150.9 L346.2,150.9 L348.1,150.7 L361.3,150.6 L361.7,150.5 L362.1,150.4 L362.8,150.2 L365.5,150.1 L366.3,149.9 L366.7,149.8 L368.6,149.7 L377.9,149.6 L568.2,149.5 L569.0,149.5 L569.8,149.4 L570.5,149.3 L570.9,149.3 L571.3,149.2 L571.7,149.2 L572.1,149.1 L575.9,149.1 L586.8,149.0 L589.9,149.0 L591.0,148.9 L593.4,148.9 L595.7,148.9 L596.1,148.8 L597.6,148.8 L598.8,148.7 L599.5,148.7 L628.2,148.6 L628.5,148.6 L629.3,148.5 L629.7,148.5 L630.9,148.3 L632.8,148.3 L638.2,148.2 L649.4,147.8 L649.8,147.7 L654.8,147.6 L655.2,147.5 L656.4,147.4 L657.9,147.3 L659.9,146.8 L660.3,145.6 L660.7,145.5 L663.0,145.4 L664.1,145.4 L664.5,145.4 L665.3,145.2 L668.4,145.1 L671.1,144.8 L673.0,144.5 L673.4,144.4 L674.6,144.1 L675.0,143.6 L675.3,143.5 L675.7,143.3 L676.1,143.1 L676.5,142.9 L677.3,142.6 L678.4,142.3 L692.4,142.2 L693.1,141.6 L701.6,141.5 L706.7,141.3 L709.0,141.2 L709.4,141.2 L711.7,141.2 L712.1,141.1 L712.5,141.1 L712.9,140.9 L713.3,140.8 L713.6,140.3 L714.0,140.2 L716.3,139.6 L716.7,139.5 L717.5,139.4 L720.2,139.2 L721.0,139.2 L721.4,139.0 L722.1,139.0 L722.5,138.7 L722.9,138.6 L723.7,138.5 L724.1,138.4 L724.5,138.4 L724.9,138.3 L726.4,138.1 L726.8,138.0 L727.2,137.9 L727.6,137.8 L727.9,137.7 L728.3,137.6 L729.5,137.4 L729.9,137.3 L730.3,137.2 L730.7,137.1 L731.0,136.8 L731.8,136.7 L732.2,136.3 L732.6,136.0 L733.0,135.2 L733.4,135.0 L733.8,134.8 L734.1,134.3 L734.5,134.3 L734.9,134.1 L735.3,134.1 L735.7,133.8 L737.6,133.3 L738.0,133.2 L738.4,132.8 L738.8,132.1 L739.2,132.0 L739.9,131.9 L740.3,131.3 L740.7,130.9 L741.1,130.9 L741.5,130.2 L742.3,130.0 L742.6,129.9 L743.0,129.8 L743.4,129.8 L743.8,129.8 L744.2,129.7 L745.7,129.6 L746.5,129.5 L746.9,129.2 L747.3,129.0 L748.4,129.0 L750.4,128.9 L752.7,128.7 L753.1,128.6 L753.5,128.6 L753.9,128.3 L754.2,127.7 L754.6,127.7 L755.0,127.6 L755.4,127.5 L755.8,127.4 L756.2,127.1 L760.4,127.0 L760.8,126.9 L764.3,126.6 L765.1,126.3 L765.5,126.2 L765.9,126.1 L766.2,126.0 L767.4,125.9 L767.8,125.2 L768.2,123.7 L768.6,122.3 L768.9,122.3 L769.3,122.1 L770.1,121.9 L770.5,121.7 L770.9,121.4 L771.7,121.3 L772.0,120.9 L772.4,120.9 L773.2,120.3 L773.6,120.2 L774.0,119.9 L774.4,119.7 L774.7,119.4 L775.1,119.4 L776.3,119.0 L776.7,118.7 L777.1,117.7 L777.5,116.3 L777.8,115.7 L778.2,115.1 L778.6,115.0 L779.0,114.8 L779.4,114.6 L779.8,114.2 L780.2,113.8 L780.5,113.7 L780.9,113.4 L781.3,113.3 L781.7,113.0 L782.1,112.6 L782.5,112.3 L782.9,111.9 L783.3,111.8 L783.6,111.6 L784.0,110.9 L784.4,109.6 L784.8,109.4 L785.6,109.1 L786.0,109.0 L786.4,108.9 L786.7,106.8 L787.1,105.8 L787.5,104.9 L787.9,104.5 L788.3,102.9 L788.7,102.8 L789.1,102.7 L789.4,102.3 L789.8,101.6 L790.2,100.2 L790.6,98.8 L791.0,98.7 L791.4,98.4 L792.2,98.3 L792.5,97.5 L792.9,96.8 L793.3,95.9 L793.7,95.7 L794.1,95.7 L794.5,94.3 L794.9,92.6 L795.2,91.9 L795.6,91.5 L796.0,91.1 L796.4,90.7 L796.8,90.7 L797.6,90.5 L798.0,90.2 L798.3,90.1 L798.7,90.1 L799.1,90.0 L800.3,90.0 L800.7,89.9 L801.4,89.8 L802.2,89.8 L802.6,89.7 L803.4,89.1 L803.8,88.8 L804.1,88.6 L806.5,88.5 L806.8,88.2 L807.2,88.1 L807.6,87.8 L808.0,87.7 L808.4,87.6 L808.8,87.5 L809.2,86.9 L809.6,86.2 L809.9,86.0 L810.3,84.7 L810.7,84.5 L811.5,84.5 L811.9,84.4 L813.0,84.0 L813.4,83.5 L813.8,83.2 L814.2,82.9 L814.6,81.9 L815.0,78.2 L815.4,76.6 L815.7,76.4 L816.1,76.1 L816.5,75.4 L816.9,75.3 L817.3,70.1 L817.7,63.7 L818.1,61.8 L818.5,61.8 L818.8,60.8 L819.2,60.0 L819.6,56.2 L820.0,55.5 L820.0,160.0 Z"/>
  <polyline class="line" points="60.0,160.0 181.1,159.8 181.4,159.7 182.6,159.7 201.2,159.6 201.6,159.3 201.9,159.3 202.3,159.1 202.7,159.0 203.1,159.0 203.9,158.7 204.3,158.6 204.7,158.5 205.0,158.5 206.6,158.4 207.0,158.3 207.4,158.3 211.2,158.2 221.3,158.1 274.3,158.1 274.7,157.7 276.2,157.6 277.0,157.3 282.8,157.2 283.6,157.1 283.9,156.9 284.3,156.9 285.1,156.8 285.5,156.4 285.9,156.0 286.3,155.9 287.8,155.8 288.6,155.7 290.5,155.6 295.9,155.4 306.4,155.3 312.2,155.3 314.9,155.2 315.3,155.1 315.7,155.0 316.0,154.8 317.2,154.5 317.6,154.5 318.0,154.5 319.5,154.3 319.9,154.1 320.3,154.0 320.7,153.6 321.1,153.2 321.5,153.1 321.8,153.0 322.6,152.9 324.2,152.8 328.4,152.7 339.6,152.7 340.0,152.5 340.4,152.4 344.3,152.0 344.7,151.0 345.8,150.9 346.2,150.9 348.1,150.7 361.3,150.6 361.7,150.5 362.1,150.4 362.8,150.2 365.5,150.1 366.3,149.9 366.7,149.8 368.6,149.7 377.9,149.6 568.2,149.5 569.0,149.5 569.8,149.4 570.5,149.3 570.9,149.3 571.3,149.2 571.7,149.2 572.1,149.1 575.9,149.1 586.8,149.0 589.9,149.0 591.0,148.9 593.4,148.9 595.7,148.9 596.1,148.8 597.6,148.8 598.8,148.7 599.5,148.7 628.2,148.6 628.5,148.6 629.3,148.5 629.7,148.5 630.9,148.3 632.8,148.3 638.2,148.2 649.4,147.8 649.8,147.7 654.8,147.6 655.2,147.5 656.4,147.4 657.9,147.3 659.9,146.8 660.3,145.6 660.7,145.5 663.0,145.4 664.1,145.4 664.5,145.4 665.3,145.2 668.4,145.1 671.1,144.8 673.0,144.5 673.4,144.4 674.6,144.1 675.0,143.6 675.3,143.5 675.7,143.3 676.1,143.1 676.5,142.9 677.3,142.6 678.4,142.3 692.4,142.2 693.1,141.6 701.6,141.5 706.7,141.3 709.0,141.2 709.4,141.2 711.7,141.2 712.1,141.1 712.5,141.1 712.9,140.9 713.3,140.8 713.6,140.3 714.0,140.2 716.3,139.6 716.7,139.5 717.5,139.4 720.2,139.2 721.0,139.2 721.4,139.0 722.1,139.0 722.5,138.7 722.9,138.6 723.7,138.5 724.1,138.4 724.5,138.4 724.9,138.3 726.4,138.1 726.8,138.0 727.2,137.9 727.6,137.8 727.9,137.7 728.3,137.6 729.5,137.4 729.9,137.3 730.3,137.2 730.7,137.1 731.0,136.8 731.8,136.7 732.2,136.3 732.6,136.0 733.0,135.2 733.4,135.0 733.8,134.8 734.1,134.3 734.5,134.3 734.9,134.1 735.3,134.1 735.7,133.8 737.6,133.3 738.0,133.2 738.4,132.8 738.8,132.1 739.2,132.0 739.9,131.9 740.3,131.3 740.7,130.9 741.1,130.9 741.5,130.2 742.3,130.0 742.6,129.9 743.0,129.8 743.4,129.8 743.8,129.8 744.2,129.7 745.7,129.6 746.5,129.5 746.9,129.2 747.3,129.0 748.4,129.0 750.4,128.9 752.7,128.7 753.1,128.6 753.5,128.6 753.9,128.3 754.2,127.7 754.6,127.7 755.0,127.6 755.4,127.5 755.8,127.4 756.2,127.1 760.4,127.0 760.8,126.9 764.3,126.6 765.1,126.3 765.5,126.2 765.9,126.1 766.2,126.0 767.4,125.9 767.8,125.2 768.2,123.7 768.6,122.3 768.9,122.3 769.3,122.1 770.1,121.9 770.5,121.7 770.9,121.4 771.7,121.3 772.0,120.9 772.4,120.9 773.2,120.3 773.6,120.2 774.0,119.9 774.4,119.7 774.7,119.4 775.1,119.4 776.3,119.0 776.7,118.7 777.1,117.7 777.5,116.3 777.8,115.7 778.2,115.1 778.6,115.0 779.0,114.8 779.4,114.6 779.8,114.2 780.2,113.8 780.5,113.7 780.9,113.4 781.3,113.3 781.7,113.0 782.1,112.6 782.5,112.3 782.9,111.9 783.3,111.8 783.6,111.6 784.0,110.9 784.4,109.6 784.8,109.4 785.6,109.1 786.0,109.0 786.4,108.9 786.7,106.8 787.1,105.8 787.5,104.9 787.9,104.5 788.3,102.9 788.7,102.8 789.1,102.7 789.4,102.3 789.8,101.6 790.2,100.2 790.6,98.8 791.0,98.7 791.4,98.4 792.2,98.3 792.5,97.5 792.9,96.8 793.3,95.9 793.7,95.7 794.1,95.7 794.5,94.3 794.9,92.6 795.2,91.9 795.6,91.5 796.0,91.1 796.4,90.7 796.8,90.7 797.6,90.5 798.0,90.2 798.3,90.1 798.7,90.1 799.1,90.0 800.3,90.0 800.7,89.9 801.4,89.8 802.2,89.8 802.6,89.7 803.4,89.1 803.8,88.8 804.1,88.6 806.5,88.5 806.8,88.2 807.2,88.1 807.6,87.8 808.0,87.7 808.4,87.6 808.8,87.5 809.2,86.9 809.6,86.2 809.9,86.0 810.3,84.7 810.7,84.5 811.5,84.5 811.9,84.4 813.0,84.0 813.4,83.5 813.8,83.2 814.2,82.9 814.6,81.9 815.0,78.2 815.4,76.6 815.7,76.4 816.1,76.1 816.5,75.4 816.9,75.3 817.3,70.1 817.7,63.7 818.1,61.8 818.5,61.8 818.8,60.8 819.2,60.0 819.6,56.2 820.0,55.5"/>

  <g class="hoverpoint">
    <line x1="182.6" y1="30" x2="182.6" y2="160.0" class="guide"/>
    <circle cx="182.6" cy="159.7" r="16" class="hit"/>
    <circle cx="182.6" cy="159.7" r="4" class="hover-dot"><title>Nov 2021: 7 total (+7 this month)</title></circle>
    <rect x="112.6" y="133.7" width="140" height="20" rx="4" class="tooltip-bg"/>
    <text x="182.6" y="147.7" class="tooltip-text" text-anchor="middle">Nov 2021: 7 total (+7 this month)</text>
  </g>
  <g class="hoverpoint">
    <line x1="211.2" y1="30" x2="211.2" y2="160.0" class="guide"/>
    <circle cx="211.2" cy="158.2" r="16" class="hit"/>
    <circle cx="211.2" cy="158.2" r="4" class="hover-dot"><title>Jan 2022: 41 total (+34 this month)</title></circle>
    <rect x="141.2" y="132.2" width="140" height="20" rx="4" class="tooltip-bg"/>
    <text x="211.2" y="146.2" class="tooltip-text" text-anchor="middle">Jan 2022: 41 total (+34 this month)</text>
  </g>
  <g class="hoverpoint">
    <line x1="221.3" y1="30" x2="221.3" y2="160.0" class="guide"/>
    <circle cx="221.3" cy="158.1" r="16" class="hit"/>
    <circle cx="221.3" cy="158.1" r="4" class="hover-dot"><title>Feb 2022: 44 total (+3 this month)</title></circle>
    <rect x="151.3" y="132.1" width="140" height="20" rx="4" class="tooltip-bg"/>
    <text x="221.3" y="146.1" class="tooltip-text" text-anchor="middle">Feb 2022: 44 total (+3 this month)</text>
  </g>
  <g class="hoverpoint">
    <line x1="282.8" y1="30" x2="282.8" y2="160.0" class="guide"/>
    <circle cx="282.8" cy="157.2" r="16" class="hit"/>
    <circle cx="282.8" cy="157.2" r="4" class="hover-dot"><title>Jul 2022: 65 total (+21 this month)</title></circle>
    <rect x="212.8" y="131.2" width="140" height="20" rx="4" class="tooltip-bg"/>
    <text x="282.8" y="145.2" class="tooltip-text" text-anchor="middle">Jul 2022: 65 total (+21 this month)</text>
  </g>
  <g class="hoverpoint">
    <line x1="290.5" y1="30" x2="290.5" y2="160.0" class="guide"/>
    <circle cx="290.5" cy="155.6" r="16" class="hit"/>
    <circle cx="290.5" cy="155.6" r="4" class="hover-dot"><title>Aug 2022: 101 total (+36 this month)</title></circle>
    <rect x="220.5" y="129.6" width="140" height="20" rx="4" class="tooltip-bg"/>
    <text x="290.5" y="143.6" class="tooltip-text" text-anchor="middle">Aug 2022: 101 total (+36 this month)</text>
  </g>
  <g class="hoverpoint">
    <line x1="306.4" y1="30" x2="306.4" y2="160.0" class="guide"/>
    <circle cx="306.4" cy="155.3" r="16" class="hit"/>
    <circle cx="306.4" cy="155.3" r="4" class="hover-dot"><title>Sep 2022: 108 total (+7 this month)</title></circle>
    <rect x="236.4" y="129.3" width="140" height="20" rx="4" class="tooltip-bg"/>
    <text x="306.4" y="143.3" class="tooltip-text" text-anchor="middle">Sep 2022: 108 total (+7 this month)</text>
  </g>
  <g class="hoverpoint">
    <line x1="318.0" y1="30" x2="318.0" y2="160.0" class="guide"/>
    <circle cx="318.0" cy="154.5" r="16" class="hit"/>
    <circle cx="318.0" cy="154.5" r="4" class="hover-dot"><title>Oct 2022: 128 total (+20 this month)</title></circle>
    <rect x="248.0" y="128.5" width="140" height="20" rx="4" class="tooltip-bg"/>
    <text x="318.0" y="142.5" class="tooltip-text" text-anchor="middle">Oct 2022: 128 total (+20 this month)</text>
  </g>
  <g class="hoverpoint">
    <line x1="328.4" y1="30" x2="328.4" y2="160.0" class="guide"/>
    <circle cx="328.4" cy="152.7" r="16" class="hit"/>
    <circle cx="328.4" cy="152.7" r="4" class="hover-dot"><title>Nov 2022: 168 total (+40 this month)</title></circle>
    <rect x="258.4" y="126.7" width="140" height="20" rx="4" class="tooltip-bg"/>
    <text x="328.4" y="140.7" class="tooltip-text" text-anchor="middle">Nov 2022: 168 total (+40 this month)</text>
  </g>
  <g class="hoverpoint">
    <line x1="340.4" y1="30" x2="340.4" y2="160.0" class="guide"/>
    <circle cx="340.4" cy="152.4" r="16" class="hit"/>
    <circle cx="340.4" cy="152.4" r="4" class="hover-dot"><title>Dec 2022: 175 total (+7 this month)</title></circle>
    <rect x="270.4" y="126.4" width="140" height="20" rx="4" class="tooltip-bg"/>
    <text x="340.4" y="140.4" class="tooltip-text" text-anchor="middle">Dec 2022: 175 total (+7 this month)</text>
  </g>
  <g class="hoverpoint">
    <line x1="348.1" y1="30" x2="348.1" y2="160.0" class="guide"/>
    <circle cx="348.1" cy="150.7" r="16" class="hit"/>
    <circle cx="348.1" cy="150.7" r="4" class="hover-dot"><title>Jan 2023: 214 total (+39 this month)</title></circle>
    <rect x="278.1" y="124.7" width="140" height="20" rx="4" class="tooltip-bg"/>
    <text x="348.1" y="138.7" class="tooltip-text" text-anchor="middle">Jan 2023: 214 total (+39 this month)</text>
  </g>
  <g class="hoverpoint">
    <line x1="362.8" y1="30" x2="362.8" y2="160.0" class="guide"/>
    <circle cx="362.8" cy="150.2" r="16" class="hit"/>
    <circle cx="362.8" cy="150.2" r="4" class="hover-dot"><title>Feb 2023: 225 total (+11 this month)</title></circle>
    <rect x="292.8" y="124.2" width="140" height="20" rx="4" class="tooltip-bg"/>
    <text x="362.8" y="138.2" class="tooltip-text" text-anchor="middle">Feb 2023: 225 total (+11 this month)</text>
  </g>
  <g class="hoverpoint">
    <line x1="368.6" y1="30" x2="368.6" y2="160.0" class="guide"/>
    <circle cx="368.6" cy="149.7" r="16" class="hit"/>
    <circle cx="368.6" cy="149.7" r="4" class="hover-dot"><title>Mar 2023: 237 total (+12 this month)</title></circle>
    <rect x="298.6" y="123.7" width="140" height="20" rx="4" class="tooltip-bg"/>
    <text x="368.6" y="137.7" class="tooltip-text" text-anchor="middle">Mar 2023: 237 total (+12 this month)</text>
  </g>
  <g class="hoverpoint">
    <line x1="377.9" y1="30" x2="377.9" y2="160.0" class="guide"/>
    <circle cx="377.9" cy="149.6" r="16" class="hit"/>
    <circle cx="377.9" cy="149.6" r="4" class="hover-dot"><title>Apr 2023: 240 total (+3 this month)</title></circle>
    <rect x="307.9" y="123.6" width="140" height="20" rx="4" class="tooltip-bg"/>
    <text x="377.9" y="137.6" class="tooltip-text" text-anchor="middle">Apr 2023: 240 total (+3 this month)</text>
  </g>
  <g class="hoverpoint">
    <line x1="575.9" y1="30" x2="575.9" y2="160.0" class="guide"/>
    <circle cx="575.9" cy="149.1" r="16" class="hit"/>
    <circle cx="575.9" cy="149.1" r="4" class="hover-dot"><title>Aug 2024: 252 total (+12 this month)</title></circle>
    <rect x="505.9" y="123.1" width="140" height="20" rx="4" class="tooltip-bg"/>
    <text x="575.9" y="137.1" class="tooltip-text" text-anchor="middle">Aug 2024: 252 total (+12 this month)</text>
  </g>
  <g class="hoverpoint">
    <line x1="586.8" y1="30" x2="586.8" y2="160.0" class="guide"/>
    <circle cx="586.8" cy="149.0" r="16" class="hit"/>
    <circle cx="586.8" cy="149.0" r="4" class="hover-dot"><title>Sep 2024: 253 total (+1 this month)</title></circle>
    <rect x="516.8" y="123.0" width="140" height="20" rx="4" class="tooltip-bg"/>
    <text x="586.8" y="137.0" class="tooltip-text" text-anchor="middle">Sep 2024: 253 total (+1 this month)</text>
  </g>
  <g class="hoverpoint">
    <line x1="599.5" y1="30" x2="599.5" y2="160.0" class="guide"/>
    <circle cx="599.5" cy="148.7" r="16" class="hit"/>
    <circle cx="599.5" cy="148.7" r="4" class="hover-dot"><title>Oct 2024: 261 total (+8 this month)</title></circle>
    <rect x="529.5" y="122.7" width="140" height="20" rx="4" class="tooltip-bg"/>
    <text x="599.5" y="136.7" class="tooltip-text" text-anchor="middle">Oct 2024: 261 total (+8 this month)</text>
  </g>
  <g class="hoverpoint">
    <line x1="632.8" y1="30" x2="632.8" y2="160.0" class="guide"/>
    <circle cx="632.8" cy="148.3" r="16" class="hit"/>
    <circle cx="632.8" cy="148.3" r="4" class="hover-dot"><title>Jan 2025: 270 total (+9 this month)</title></circle>
    <rect x="562.8" y="122.3" width="140" height="20" rx="4" class="tooltip-bg"/>
    <text x="632.8" y="136.3" class="tooltip-text" text-anchor="middle">Jan 2025: 270 total (+9 this month)</text>
  </g>
  <g class="hoverpoint">
    <line x1="638.2" y1="30" x2="638.2" y2="160.0" class="guide"/>
    <circle cx="638.2" cy="148.2" r="16" class="hit"/>
    <circle cx="638.2" cy="148.2" r="4" class="hover-dot"><title>Feb 2025: 272 total (+2 this month)</title></circle>
    <rect x="568.2" y="122.2" width="140" height="20" rx="4" class="tooltip-bg"/>
    <text x="638.2" y="136.2" class="tooltip-text" text-anchor="middle">Feb 2025: 272 total (+2 this month)</text>
  </g>
  <g class="hoverpoint">
    <line x1="657.9" y1="30" x2="657.9" y2="160.0" class="guide"/>
    <circle cx="657.9" cy="147.3" r="16" class="hit"/>
    <circle cx="657.9" cy="147.3" r="4" class="hover-dot"><title>Mar 2025: 294 total (+22 this month)</title></circle>
    <rect x="587.9" y="121.3" width="140" height="20" rx="4" class="tooltip-bg"/>
    <text x="657.9" y="135.3" class="tooltip-text" text-anchor="middle">Mar 2025: 294 total (+22 this month)</text>
  </g>
  <g class="hoverpoint">
    <line x1="671.1" y1="30" x2="671.1" y2="160.0" class="guide"/>
    <circle cx="671.1" cy="144.8" r="16" class="hit"/>
    <circle cx="671.1" cy="144.8" r="4" class="hover-dot"><title>Apr 2025: 351 total (+57 this month)</title></circle>
    <rect x="601.1" y="118.8" width="140" height="20" rx="4" class="tooltip-bg"/>
    <text x="671.1" y="132.8" class="tooltip-text" text-anchor="middle">Apr 2025: 351 total (+57 this month)</text>
  </g>
  <g class="hoverpoint">
    <line x1="678.4" y1="30" x2="678.4" y2="160.0" class="guide"/>
    <circle cx="678.4" cy="142.3" r="16" class="hit"/>
    <circle cx="678.4" cy="142.3" r="4" class="hover-dot"><title>May 2025: 408 total (+57 this month)</title></circle>
    <rect x="608.4" y="116.3" width="140" height="20" rx="4" class="tooltip-bg"/>
    <text x="678.4" y="130.3" class="tooltip-text" text-anchor="middle">May 2025: 408 total (+57 this month)</text>
  </g>
  <g class="hoverpoint">
    <line x1="693.1" y1="30" x2="693.1" y2="160.0" class="guide"/>
    <circle cx="693.1" cy="141.6" r="16" class="hit"/>
    <circle cx="693.1" cy="141.6" r="4" class="hover-dot"><title>Jun 2025: 424 total (+16 this month)</title></circle>
    <rect x="623.1" y="115.6" width="140" height="20" rx="4" class="tooltip-bg"/>
    <text x="693.1" y="129.6" class="tooltip-text" text-anchor="middle">Jun 2025: 424 total (+16 this month)</text>
  </g>
  <g class="hoverpoint">
    <line x1="706.7" y1="30" x2="706.7" y2="160.0" class="guide"/>
    <circle cx="706.7" cy="141.3" r="16" class="hit"/>
    <circle cx="706.7" cy="141.3" r="4" class="hover-dot"><title>Jul 2025: 432 total (+8 this month)</title></circle>
    <rect x="636.7" y="115.3" width="140" height="20" rx="4" class="tooltip-bg"/>
    <text x="706.7" y="129.3" class="tooltip-text" text-anchor="middle">Jul 2025: 432 total (+8 this month)</text>
  </g>
  <g class="hoverpoint">
    <line x1="717.5" y1="30" x2="717.5" y2="160.0" class="guide"/>
    <circle cx="717.5" cy="139.4" r="16" class="hit"/>
    <circle cx="717.5" cy="139.4" r="4" class="hover-dot"><title>Aug 2025: 475 total (+43 this month)</title></circle>
    <rect x="647.5" y="113.4" width="140" height="20" rx="4" class="tooltip-bg"/>
    <text x="717.5" y="127.4" class="tooltip-text" text-anchor="middle">Aug 2025: 475 total (+43 this month)</text>
  </g>
  <g class="hoverpoint">
    <line x1="730.3" y1="30" x2="730.3" y2="160.0" class="guide"/>
    <circle cx="730.3" cy="137.2" r="16" class="hit"/>
    <circle cx="730.3" cy="137.2" r="4" class="hover-dot"><title>Sep 2025: 526 total (+51 this month)</title></circle>
    <rect x="660.3" y="111.2" width="140" height="20" rx="4" class="tooltip-bg"/>
    <text x="730.3" y="125.2" class="tooltip-text" text-anchor="middle">Sep 2025: 526 total (+51 this month)</text>
  </g>
  <g class="hoverpoint">
    <line x1="742.3" y1="30" x2="742.3" y2="160.0" class="guide"/>
    <circle cx="742.3" cy="130.0" r="16" class="hit"/>
    <circle cx="742.3" cy="130.0" r="4" class="hover-dot"><title>Oct 2025: 692 total (+166 this month)</title></circle>
    <rect x="672.3" y="104.0" width="140" height="20" rx="4" class="tooltip-bg"/>
    <text x="742.3" y="118.0" class="tooltip-text" text-anchor="middle">Oct 2025: 692 total (+166 this month)</text>
  </g>
  <g class="hoverpoint">
    <line x1="753.9" y1="30" x2="753.9" y2="160.0" class="guide"/>
    <circle cx="753.9" cy="128.3" r="16" class="hit"/>
    <circle cx="753.9" cy="128.3" r="4" class="hover-dot"><title>Nov 2025: 731 total (+39 this month)</title></circle>
    <rect x="683.9" y="102.3" width="140" height="20" rx="4" class="tooltip-bg"/>
    <text x="753.9" y="116.3" class="tooltip-text" text-anchor="middle">Nov 2025: 731 total (+39 this month)</text>
  </g>
  <g class="hoverpoint">
    <line x1="765.9" y1="30" x2="765.9" y2="160.0" class="guide"/>
    <circle cx="765.9" cy="126.1" r="16" class="hit"/>
    <circle cx="765.9" cy="126.1" r="4" class="hover-dot"><title>Dec 2025: 783 total (+52 this month)</title></circle>
    <rect x="695.9" y="100.1" width="140" height="20" rx="4" class="tooltip-bg"/>
    <text x="765.9" y="114.1" class="tooltip-text" text-anchor="middle">Dec 2025: 783 total (+52 this month)</text>
  </g>
  <g class="hoverpoint">
    <line x1="777.8" y1="30" x2="777.8" y2="160.0" class="guide"/>
    <circle cx="777.8" cy="115.7" r="16" class="hit"/>
    <circle cx="777.8" cy="115.7" r="4" class="hover-dot"><title>Jan 2026: 1,022 total (+239 this month)</title></circle>
    <rect x="707.8" y="89.7" width="140" height="20" rx="4" class="tooltip-bg"/>
    <text x="777.8" y="103.7" class="tooltip-text" text-anchor="middle">Jan 2026: 1,022 total (+239 this month)</text>
  </g>
  <g class="hoverpoint">
    <line x1="788.7" y1="30" x2="788.7" y2="160.0" class="guide"/>
    <circle cx="788.7" cy="102.8" r="16" class="hit"/>
    <circle cx="788.7" cy="102.8" r="4" class="hover-dot"><title>Feb 2026: 1,321 total (+299 this month)</title></circle>
    <rect x="718.7" y="76.8" width="140" height="20" rx="4" class="tooltip-bg"/>
    <text x="788.7" y="90.8" class="tooltip-text" text-anchor="middle">Feb 2026: 1,321 total (+299 this month)</text>
  </g>
  <g class="hoverpoint">
    <line x1="800.7" y1="30" x2="800.7" y2="160.0" class="guide"/>
    <circle cx="800.7" cy="89.9" r="16" class="hit"/>
    <circle cx="800.7" cy="89.9" r="4" class="hover-dot"><title>Mar 2026: 1,617 total (+296 this month)</title></circle>
    <rect x="730.7" y="63.9" width="140" height="20" rx="4" class="tooltip-bg"/>
    <text x="800.7" y="77.9" class="tooltip-text" text-anchor="middle">Mar 2026: 1,617 total (+296 this month)</text>
  </g>
  <g class="hoverpoint">
    <line x1="811.9" y1="30" x2="811.9" y2="160.0" class="guide"/>
    <circle cx="811.9" cy="84.4" r="16" class="hit"/>
    <circle cx="811.9" cy="84.4" r="4" class="hover-dot"><title>Apr 2026: 1,744 total (+127 this month)</title></circle>
    <rect x="741.9" y="58.4" width="140" height="20" rx="4" class="tooltip-bg"/>
    <text x="811.9" y="72.4" class="tooltip-text" text-anchor="middle">Apr 2026: 1,744 total (+127 this month)</text>
  </g>
  <g class="hoverpoint">
    <line x1="820.0" y1="30" x2="820.0" y2="160.0" class="guide"/>
    <circle cx="820.0" cy="55.5" r="16" class="hit"/>
    <circle cx="820.0" cy="55.5" r="4" class="hover-dot"><title>May 2026: 2,412 total (+668 this month)</title></circle>
    <rect x="750.0" y="29.5" width="140" height="20" rx="4" class="tooltip-bg"/>
    <text x="820.0" y="43.5" class="tooltip-text" text-anchor="middle">May 2026: 2,412 total (+668 this month)</text>
  </g>

  <circle cx="820.0" cy="55.5" r="4" class="dot"/>
  <text x="810.0" y="45.5" class="total">2,412</text>

</svg>