<svg xmlns="http://www.w3.org/2000/svg" width="840" height="196" viewBox="0 0 840 196" fill="none">
  <style>
    .label { font-family: -apple-system, BlinkMacSystemFont, 'Segoe UI', Helvetica, Arial, sans-serif; font-size: 10px; fill: #8b949e; }
    .title { font-family: -apple-system, BlinkMacSystemFont, 'Segoe UI', Helvetica, Arial, sans-serif; font-size: 11px; fill: #8b949e; font-weight: 600; }
    .total { font-family: -apple-system, BlinkMacSystemFont, 'Segoe UI', Helvetica, Arial, sans-serif; font-size: 11px; fill: #7ee787; font-weight: 600; }
    .grid { stroke: #21262d; stroke-width: 1; }
    .line { stroke: #7ee787; stroke-width: 2; stroke-linecap: round; stroke-linejoin: round; fill: none; }
    .dot { fill: #7ee787; }
    .area { fill: url(#areaGrad); }
    /* Hover interaction */
    .hoverpoint .guide { stroke: #7ee787; stroke-width: 1; stroke-dasharray: 2,2; opacity: 0; }
    .hoverpoint .hover-dot { fill: #7ee787; opacity: 0; }
    .hoverpoint .hit { fill: transparent; cursor: pointer; }
    .hoverpoint .tooltip-bg { fill: #161b22; stroke: #30363d; stroke-width: 1; opacity: 0; }
    .hoverpoint .tooltip-text { font-family: -apple-system, BlinkMacSystemFont, 'Segoe UI', Helvetica, Arial, sans-serif; font-size: 9px; fill: #c9d1d9; opacity: 0; }
    .hoverpoint:hover .guide { opacity: 0.5; }
    .hoverpoint:hover .hover-dot { opacity: 1; }
    .hoverpoint:hover .tooltip-bg { opacity: 0.95; }
    .hoverpoint:hover .tooltip-text { opacity: 1; }
  </style>
  <defs>
    <linearGradient id="areaGrad" x1="0" y1="0" x2="0" y2="1">
      <stop offset="0%" stop-color="#7ee787" stop-opacity="0.15"/>
      <stop offset="100%" stop-color="#7ee787" stop-opacity="0.01"/>
    </linearGradient>
  </defs>

  <text x="60" y="18" class="title">Cumulative Commits</text>

  <line x1="60" y1="160.0" x2="820" y2="160.0" class="grid"/>
  <text x="50" y="163.0" class="label" text-anchor="end">0</text>
  <line x1="60" y1="127.5" x2="820" y2="127.5" class="grid" stroke-dasharray="3,3"/>
  <text x="50" y="130.5" class="label" text-anchor="end">750</text>
  <line x1="60" y1="95.0" x2="820" y2="95.0" class="grid" stroke-dasharray="3,3"/>
  <text x="50" y="98.0" class="label" text-anchor="end">1,500</text>
  <line x1="60" y1="62.5" x2="820" y2="62.5" class="grid" stroke-dasharray="3,3"/>
  <text x="50" y="65.5" class="label" text-anchor="end">2,250</text>
  <line x1="60" y1="30.0" x2="820" y2="30.0" class="grid" stroke-dasharray="3,3"/>
  <text x="50" y="33.0" class="label" text-anchor="end">3,000</text>

  <text x="70.0" y="186" class="label" text-anchor="middle">2021</text>
  <text x="200.7" y="186" class="label" text-anchor="middle">2022</text>
  <text x="341.3" y="186" class="label" text-anchor="middle">2023</text>
  <text x="482.0" y="186" class="label" text-anchor="middle">2024</text>
  <text x="623.1" y="186" class="label" text-anchor="middle">2025</text>
  <text x="763.7" y="186" class="label" text-anchor="middle">2026</text>


  <path class="area" d="M60.0,160.0 L60.0,160.0 60.0,160.0 L180.6,159.8 L181.0,159.7 L182.2,159.7 L200.7,159.6 L201.1,159.3 L201.4,159.3 L201.8,159.1 L202.2,159.0 L202.6,159.0 L203.4,158.7 L203.8,158.6 L204.1,158.5 L204.5,158.5 L206.1,158.4 L206.5,158.3 L206.8,158.3 L210.7,158.2 L220.7,158.1 L273.5,158.1 L273.9,157.7 L275.4,157.6 L276.2,157.3 L282.0,157.2 L282.8,157.1 L283.1,156.9 L283.5,156.9 L284.3,156.8 L284.7,156.4 L285.1,156.0 L285.5,155.9 L287.0,155.8 L287.8,155.7 L289.7,155.6 L295.1,155.4 L305.5,155.3 L311.3,155.3 L314.0,155.2 L314.4,155.1 L314.7,155.0 L315.1,154.8 L316.3,154.5 L316.7,154.5 L317.1,154.5 L318.6,154.3 L319.0,154.1 L319.4,154.0 L319.8,153.6 L320.1,153.2 L320.5,153.1 L320.9,153.0 L321.7,152.9 L323.2,152.8 L327.5,152.7 L338.6,152.7 L339.0,152.5 L339.4,152.4 L343.3,152.0 L343.7,151.0 L344.8,150.9 L345.2,150.9 L347.1,150.7 L360.2,150.6 L360.6,150.5 L361.0,150.4 L361.8,150.2 L364.5,150.1 L365.2,149.9 L365.6,149.8 L367.5,149.7 L376.8,149.6 L566.4,149.5 L567.2,149.5 L568.0,149.4 L568.7,149.3 L569.1,149.3 L569.5,149.2 L569.9,149.2 L570.3,149.1 L574.1,149.1 L584.9,149.0 L588.0,149.0 L589.1,148.9 L591.5,148.9 L593.8,148.9 L594.2,148.8 L595.7,148.8 L596.9,148.7 L597.6,148.7 L626.1,148.6 L626.5,148.6 L627.3,148.5 L627.7,148.5 L628.8,148.3 L630.8,148.3 L636.2,148.2 L647.3,147.8 L647.7,147.7 L652.7,147.6 L653.1,147.5 L654.3,147.4 L655.8,147.3 L657.7,146.8 L658.1,145.6 L658.5,145.5 L660.8,145.4 L662.0,145.4 L662.4,145.4 L663.1,145.2 L666.2,145.1 L668.9,144.8 L670.9,144.5 L671.2,144.4 L672.4,144.1 L672.8,143.6 L673.2,143.5 L673.5,143.3 L673.9,143.1 L674.3,142.9 L675.1,142.6 L676.2,142.3 L690.1,142.2 L690.9,141.6 L699.4,141.5 L704.4,141.3 L706.7,141.2 L707.1,141.2 L709.4,141.2 L709.8,141.1 L710.2,141.1 L710.5,140.9 L710.9,140.8 L711.3,140.3 L711.7,140.2 L714.0,139.6 L714.4,139.5 L715.2,139.4 L717.9,139.2 L718.6,139.2 L719.0,139.0 L719.8,139.0 L720.2,138.7 L720.6,138.6 L721.3,138.5 L721.7,138.4 L722.1,138.4 L722.5,138.3 L724.0,138.1 L724.4,138.0 L724.8,137.9 L725.2,137.8 L725.6,137.7 L726.0,137.6 L727.1,137.4 L727.5,137.3 L727.9,137.2 L728.3,137.1 L728.7,136.8 L729.4,136.7 L729.8,136.3 L730.2,136.0 L730.6,135.2 L731.0,135.0 L731.4,134.8 L731.7,134.3 L732.1,134.3 L732.5,134.1 L732.9,134.1 L733.3,133.8 L735.2,133.3 L735.6,133.2 L736.0,132.8 L736.4,132.1 L736.8,132.0 L737.5,131.9 L737.9,131.3 L738.3,130.9 L738.7,130.9 L739.1,130.2 L739.8,130.0 L740.2,129.9 L740.6,129.8 L741.0,129.8 L741.4,129.8 L741.8,129.7 L743.3,129.6 L744.1,129.5 L744.5,129.2 L744.8,129.0 L746.0,129.0 L747.9,128.9 L750.2,128.7 L750.6,128.6 L751.0,128.6 L751.4,128.3 L751.8,127.7 L752.2,127.7 L752.6,127.6 L752.9,127.5 L753.3,127.4 L753.7,127.1 L758.0,127.0 L758.3,126.9 L761.8,126.6 L762.6,126.3 L763.0,126.2 L763.3,126.1 L763.7,126.0 L764.9,125.9 L765.3,125.2 L765.7,123.7 L766.0,122.3 L766.4,122.3 L766.8,122.1 L767.6,121.9 L768.0,121.7 L768.4,121.4 L769.1,121.3 L769.5,120.9 L769.9,120.9 L770.7,120.3 L771.1,120.2 L771.4,119.9 L771.8,119.7 L772.2,119.4 L772.6,119.4 L773.8,119.0 L774.1,118.7 L774.5,117.7 L774.9,116.3 L775.3,115.7 L775.7,115.1 L776.1,115.0 L776.5,114.8 L776.8,114.6 L777.2,114.2 L777.6,113.8 L778.0,113.7 L778.4,113.4 L778.8,113.3 L779.1,113.0 L779.5,112.6 L779.9,112.3 L780.3,111.9 L780.7,111.8 L781.1,111.6 L781.5,110.9 L781.8,109.6 L782.2,109.4 L783.0,109.1 L783.4,109.0 L783.8,108.9 L784.2,106.8 L784.5,105.8 L784.9,104.9 L785.3,104.5 L785.7,102.9 L786.1,102.8 L786.5,102.7 L786.9,102.3 L787.2,101.6 L787.6,100.2 L788.0,98.8 L788.4,98.7 L788.8,98.4 L789.6,98.3 L789.9,97.5 L790.3,96.8 L790.7,95.9 L791.1,95.7 L791.5,95.7 L791.9,94.3 L792.3,92.6 L792.6,91.9 L793.0,91.5 L793.4,91.1 L793.8,90.7 L794.2,90.7 L794.9,90.5 L795.3,90.2 L795.7,90.1 L796.1,90.1 L796.5,90.0 L797.6,90.0 L798.0,89.9 L798.8,89.8 L799.6,89.8 L800.0,89.7 L800.7,89.1 L801.1,88.8 L801.5,88.6 L803.8,88.5 L804.2,88.2 L804.6,88.1 L805.0,87.8 L805.4,87.7 L805.7,87.6 L806.1,87.5 L806.5,86.9 L806.9,86.2 L807.3,86.0 L807.7,84.7 L808.1,84.5 L808.8,84.5 L809.2,84.4 L810.4,84.0 L810.8,83.5 L811.1,83.2 L811.5,82.9 L811.9,81.9 L812.3,78.2 L812.7,76.6 L813.1,76.4 L813.4,76.1 L813.8,75.4 L814.2,75.3 L814.6,70.1 L815.0,63.7 L815.4,61.8 L815.8,61.8 L816.1,60.8 L816.5,60.0 L816.9,56.2 L817.3,54.7 L817.7,53.4 L818.1,52.7 L818.5,52.6 L818.8,52.4 L819.2,51.7 L819.6,50.6 L820.0,50.5 L820.0,160.0 Z"/>
  <polyline class="line" points="60.0,160.0 180.6,159.8 181.0,159.7 182.2,159.7 200.7,159.6 201.1,159.3 201.4,159.3 201.8,159.1 202.2,159.0 202.6,159.0 203.4,158.7 203.8,158.6 204.1,158.5 204.5,158.5 206.1,158.4 206.5,158.3 206.8,158.3 210.7,158.2 220.7,158.1 273.5,158.1 273.9,157.7 275.4,157.6 276.2,157.3 282.0,157.2 282.8,157.1 283.1,156.9 283.5,156.9 284.3,156.8 284.7,156.4 285.1,156.0 285.5,155.9 287.0,155.8 287.8,155.7 289.7,155.6 295.1,155.4 305.5,155.3 311.3,155.3 314.0,155.2 314.4,155.1 314.7,155.0 315.1,154.8 316.3,154.5 316.7,154.5 317.1,154.5 318.6,154.3 319.0,154.1 319.4,154.0 319.8,153.6 320.1,153.2 320.5,153.1 320.9,153.0 321.7,152.9 323.2,152.8 327.5,152.7 338.6,152.7 339.0,152.5 339.4,152.4 343.3,152.0 343.7,151.0 344.8,150.9 345.2,150.9 347.1,150.7 360.2,150.6 360.6,150.5 361.0,150.4 361.8,150.2 364.5,150.1 365.2,149.9 365.6,149.8 367.5,149.7 376.8,149.6 566.4,149.5 567.2,149.5 568.0,149.4 568.7,149.3 569.1,149.3 569.5,149.2 569.9,149.2 570.3,149.1 574.1,149.1 584.9,149.0 588.0,149.0 589.1,148.9 591.5,148.9 593.8,148.9 594.2,148.8 595.7,148.8 596.9,148.7 597.6,148.7 626.1,148.6 626.5,148.6 627.3,148.5 627.7,148.5 628.8,148.3 630.8,148.3 636.2,148.2 647.3,147.8 647.7,147.7 652.7,147.6 653.1,147.5 654.3,147.4 655.8,147.3 657.7,146.8 658.1,145.6 658.5,145.5 660.8,145.4 662.0,145.4 662.4,145.4 663.1,145.2 666.2,145.1 668.9,144.8 670.9,144.5 671.2,144.4 672.4,144.1 672.8,143.6 673.2,143.5 673.5,143.3 673.9,143.1 674.3,142.9 675.1,142.6 676.2,142.3 690.1,142.2 690.9,141.6 699.4,141.5 704.4,141.3 706.7,141.2 707.1,141.2 709.4,141.2 709.8,141.1 710.2,141.1 710.5,140.9 710.9,140.8 711.3,140.3 711.7,140.2 714.0,139.6 714.4,139.5 715.2,139.4 717.9,139.2 718.6,139.2 719.0,139.0 719.8,139.0 720.2,138.7 720.6,138.6 721.3,138.5 721.7,138.4 722.1,138.4 722.5,138.3 724.0,138.1 724.4,138.0 724.8,137.9 725.2,137.8 725.6,137.7 726.0,137.6 727.1,137.4 727.5,137.3 727.9,137.2 728.3,137.1 728.7,136.8 729.4,136.7 729.8,136.3 730.2,136.0 730.6,135.2 731.0,135.0 731.4,134.8 731.7,134.3 732.1,134.3 732.5,134.1 732.9,134.1 733.3,133.8 735.2,133.3 735.6,133.2 736.0,132.8 736.4,132.1 736.8,132.0 737.5,131.9 737.9,131.3 738.3,130.9 738.7,130.9 739.1,130.2 739.8,130.0 740.2,129.9 740.6,129.8 741.0,129.8 741.4,129.8 741.8,129.7 743.3,129.6 744.1,129.5 744.5,129.2 744.8,129.0 746.0,129.0 747.9,128.9 750.2,128.7 750.6,128.6 751.0,128.6 751.4,128.3 751.8,127.7 752.2,127.7 752.6,127.6 752.9,127.5 753.3,127.4 753.7,127.1 758.0,127.0 758.3,126.9 761.8,126.6 762.6,126.3 763.0,126.2 763.3,126.1 763.7,126.0 764.9,125.9 765.3,125.2 765.7,123.7 766.0,122.3 766.4,122.3 766.8,122.1 767.6,121.9 768.0,121.7 768.4,121.4 769.1,121.3 769.5,120.9 769.9,120.9 770.7,120.3 771.1,120.2 771.4,119.9 771.8,119.7 772.2,119.4 772.6,119.4 773.8,119.0 774.1,118.7 774.5,117.7 774.9,116.3 775.3,115.7 775.7,115.1 776.1,115.0 776.5,114.8 776.8,114.6 777.2,114.2 777.6,113.8 778.0,113.7 778.4,113.4 778.8,113.3 779.1,113.0 779.5,112.6 779.9,112.3 780.3,111.9 780.7,111.8 781.1,111.6 781.5,110.9 781.8,109.6 782.2,109.4 783.0,109.1 783.4,109.0 783.8,108.9 784.2,106.8 784.5,105.8 784.9,104.9 785.3,104.5 785.7,102.9 786.1,102.8 786.5,102.7 786.9,102.3 787.2,101.6 787.6,100.2 788.0,98.8 788.4,98.7 788.8,98.4 789.6,98.3 789.9,97.5 790.3,96.8 790.7,95.9 791.1,95.7 791.5,95.7 791.9,94.3 792.3,92.6 792.6,91.9 793.0,91.5 793.4,91.1 793.8,90.7 794.2,90.7 794.9,90.5 795.3,90.2 795.7,90.1 796.1,90.1 796.5,90.0 797.6,90.0 798.0,89.9 798.8,89.8 799.6,89.8 800.0,89.7 800.7,89.1 801.1,88.8 801.5,88.6 803.8,88.5 804.2,88.2 804.6,88.1 805.0,87.8 805.4,87.7 805.7,87.6 806.1,87.5 806.5,86.9 806.9,86.2 807.3,86.0 807.7,84.7 808.1,84.5 808.8,84.5 809.2,84.4 810.4,84.0 810.8,83.5 811.1,83.2 811.5,82.9 811.9,81.9 812.3,78.2 812.7,76.6 813.1,76.4 813.4,76.1 813.8,75.4 814.2,75.3 814.6,70.1 815.0,63.7 815.4,61.8 815.8,61.8 816.1,60.8 816.5,60.0 816.9,56.2 817.3,54.7 817.7,53.4 818.1,52.7 818.5,52.6 818.8,52.4 819.2,51.7 819.6,50.6 820.0,50.5"/>

  <g class="hoverpoint">
    <line x1="182.2" y1="30" x2="182.2" y2="160.0" class="guide"/>
    <circle cx="182.2" cy="159.7" r="16" class="hit"/>
    <circle cx="182.2" cy="159.7" r="4" class="hover-dot"><title>Nov 2021: 7 total (+7 this month)</title></circle>
    <rect x="112.2" y="133.7" width="140" height="20" rx="4" class="tooltip-bg"/>
    <text x="182.2" y="147.7" class="tooltip-text" text-anchor="middle">Nov 2021: 7 total (+7 this month)</text>
  </g>
  <g class="hoverpoint">
    <line x1="210.7" y1="30" x2="210.7" y2="160.0" class="guide"/>
    <circle cx="210.7" cy="158.2" r="16" class="hit"/>
    <circle cx="210.7" cy="158.2" r="4" class="hover-dot"><title>Jan 2022: 41 total (+34 this month)</title></circle>
    <rect x="140.7" y="132.2" width="140" height="20" rx="4" class="tooltip-bg"/>
    <text x="210.7" y="146.2" class="tooltip-text" text-anchor="middle">Jan 2022: 41 total (+34 this month)</text>
  </g>
  <g class="hoverpoint">
    <line x1="220.7" y1="30" x2="220.7" y2="160.0" class="guide"/>
    <circle cx="220.7" cy="158.1" r="16" class="hit"/>
    <circle cx="220.7" cy="158.1" r="4" class="hover-dot"><title>Feb 2022: 44 total (+3 this month)</title></circle>
    <rect x="150.7" y="132.1" width="140" height="20" rx="4" class="tooltip-bg"/>
    <text x="220.7" y="146.1" class="tooltip-text" text-anchor="middle">Feb 2022: 44 total (+3 this month)</text>
  </g>
  <g class="hoverpoint">
    <line x1="282.0" y1="30" x2="282.0" y2="160.0" class="guide"/>
    <circle cx="282.0" cy="157.2" r="16" class="hit"/>
    <circle cx="282.0" cy="157.2" r="4" class="hover-dot"><title>Jul 2022: 65 total (+21 this month)</title></circle>
    <rect x="212.0" y="131.2" width="140" height="20" rx="4" class="tooltip-bg"/>
    <text x="282.0" y="145.2" class="tooltip-text" text-anchor="middle">Jul 2022: 65 total (+21 this month)</text>
  </g>
  <g class="hoverpoint">
    <line x1="289.7" y1="30" x2="289.7" y2="160.0" class="guide"/>
    <circle cx="289.7" cy="155.6" r="16" class="hit"/>
    <circle cx="289.7" cy="155.6" r="4" class="hover-dot"><title>Aug 2022: 101 total (+36 this month)</title></circle>
    <rect x="219.7" y="129.6" width="140" height="20" rx="4" class="tooltip-bg"/>
    <text x="289.7" y="143.6" class="tooltip-text" text-anchor="middle">Aug 2022: 101 total (+36 this month)</text>
  </g>
  <g class="hoverpoint">
    <line x1="305.5" y1="30" x2="305.5" y2="160.0" class="guide"/>
    <circle cx="305.5" cy="155.3" r="16" class="hit"/>
    <circle cx="305.5" cy="155.3" r="4" class="hover-dot"><title>Sep 2022: 108 total (+7 this month)</title></circle>
    <rect x="235.5" y="129.3" width="140" height="20" rx="4" class="tooltip-bg"/>
    <text x="305.5" y="143.3" class="tooltip-text" text-anchor="middle">Sep 2022: 108 total (+7 this month)</text>
  </g>
  <g class="hoverpoint">
    <line x1="317.1" y1="30" x2="317.1" y2="160.0" class="guide"/>
    <circle cx="317.1" cy="154.5" r="16" class="hit"/>
    <circle cx="317.1" cy="154.5" r="4" class="hover-dot"><title>Oct 2022: 128 total (+20 this month)</title></circle>
    <rect x="247.1" y="128.5" width="140" height="20" rx="4" class="tooltip-bg"/>
    <text x="317.1" y="142.5" class="tooltip-text" text-anchor="middle">Oct 2022: 128 total (+20 this month)</text>
  </g>
  <g class="hoverpoint">
    <line x1="327.5" y1="30" x2="327.5" y2="160.0" class="guide"/>
    <circle cx="327.5" cy="152.7" r="16" class="hit"/>
    <circle cx="327.5" cy="152.7" r="4" class="hover-dot"><title>Nov 2022: 168 total (+40 this month)</title></circle>
    <rect x="257.5" y="126.7" width="140" height="20" rx="4" class="tooltip-bg"/>
    <text x="327.5" y="140.7" class="tooltip-text" text-anchor="middle">Nov 2022: 168 total (+40 this month)</text>
  </g>
  <g class="hoverpoint">
    <line x1="339.4" y1="30" x2="339.4" y2="160.0" class="guide"/>
    <circle cx="339.4" cy="152.4" r="16" class="hit"/>
    <circle cx="339.4" cy="152.4" r="4" class="hover-dot"><title>Dec 2022: 175 total (+7 this month)</title></circle>
    <rect x="269.4" y="126.4" width="140" height="20" rx="4" class="tooltip-bg"/>
    <text x="339.4" y="140.4" class="tooltip-text" text-anchor="middle">Dec 2022: 175 total (+7 this month)</text>
  </g>
  <g class="hoverpoint">
    <line x1="347.1" y1="30" x2="347.1" y2="160.0" class="guide"/>
    <circle cx="347.1" cy="150.7" r="16" class="hit"/>
    <circle cx="347.1" cy="150.7" r="4" class="hover-dot"><title>Jan 2023: 214 total (+39 this month)</title></circle>
    <rect x="277.1" y="124.7" width="140" height="20" rx="4" class="tooltip-bg"/>
    <text x="347.1" y="138.7" class="tooltip-text" text-anchor="middle">Jan 2023: 214 total (+39 this month)</text>
  </g>
  <g class="hoverpoint">
    <line x1="361.8" y1="30" x2="361.8" y2="160.0" class="guide"/>
    <circle cx="361.8" cy="150.2" r="16" class="hit"/>
    <circle cx="361.8" cy="150.2" r="4" class="hover-dot"><title>Feb 2023: 225 total (+11 this month)</title></circle>
    <rect x="291.8" y="124.2" width="140" height="20" rx="4" class="tooltip-bg"/>
    <text x="361.8" y="138.2" class="tooltip-text" text-anchor="middle">Feb 2023: 225 total (+11 this month)</text>
  </g>
  <g class="hoverpoint">
    <line x1="367.5" y1="30" x2="367.5" y2="160.0" class="guide"/>
    <circle cx="367.5" cy="149.7" r="16" class="hit"/>
    <circle cx="367.5" cy="149.7" r="4" class="hover-dot"><title>Mar 2023: 237 total (+12 this month)</title></circle>
    <rect x="297.5" y="123.7" width="140" height="20" rx="4" class="tooltip-bg"/>
    <text x="367.5" y="137.7" class="tooltip-text" text-anchor="middle">Mar 2023: 237 total (+12 this month)</text>
  </g>
  <g class="hoverpoint">
    <line x1="376.8" y1="30" x2="376.8" y2="160.0" class="guide"/>
    <circle cx="376.8" cy="149.6" r="16" class="hit"/>
    <circle cx="376.8" cy="149.6" r="4" class="hover-dot"><title>Apr 2023: 240 total (+3 this month)</title></circle>
    <rect x="306.8" y="123.6" width="140" height="20" rx="4" class="tooltip-bg"/>
    <text x="376.8" y="137.6" class="tooltip-text" text-anchor="middle">Apr 2023: 240 total (+3 this month)</text>
  </g>
  <g class="hoverpoint">
    <line x1="574.1" y1="30" x2="574.1" y2="160.0" class="guide"/>
    <circle cx="574.1" cy="149.1" r="16" class="hit"/>
    <circle cx="574.1" cy="149.1" r="4" class="hover-dot"><title>Aug 2024: 252 total (+12 this month)</title></circle>
    <rect x="504.1" y="123.1" width="140" height="20" rx="4" class="tooltip-bg"/>
    <text x="574.1" y="137.1" class="tooltip-text" text-anchor="middle">Aug 2024: 252 total (+12 this month)</text>
  </g>
  <g class="hoverpoint">
    <line x1="584.9" y1="30" x2="584.9" y2="160.0" class="guide"/>
    <circle cx="584.9" cy="149.0" r="16" class="hit"/>
    <circle cx="584.9" cy="149.0" r="4" class="hover-dot"><title>Sep 2024: 253 total (+1 this month)</title></circle>
    <rect x="514.9" y="123.0" width="140" height="20" rx="4" class="tooltip-bg"/>
    <text x="584.9" y="137.0" class="tooltip-text" text-anchor="middle">Sep 2024: 253 total (+1 this month)</text>
  </g>
  <g class="hoverpoint">
    <line x1="597.6" y1="30" x2="597.6" y2="160.0" class="guide"/>
    <circle cx="597.6" cy="148.7" r="16" class="hit"/>
    <circle cx="597.6" cy="148.7" r="4" class="hover-dot"><title>Oct 2024: 261 total (+8 this month)</title></circle>
    <rect x="527.6" y="122.7" width="140" height="20" rx="4" class="tooltip-bg"/>
    <text x="597.6" y="136.7" class="tooltip-text" text-anchor="middle">Oct 2024: 261 total (+8 this month)</text>
  </g>
  <g class="hoverpoint">
    <line x1="630.8" y1="30" x2="630.8" y2="160.0" class="guide"/>
    <circle cx="630.8" cy="148.3" r="16" class="hit"/>
    <circle cx="630.8" cy="148.3" r="4" class="hover-dot"><title>Jan 2025: 270 total (+9 this month)</title></circle>
    <rect x="560.8" y="122.3" width="140" height="20" rx="4" class="tooltip-bg"/>
    <text x="630.8" y="136.3" class="tooltip-text" text-anchor="middle">Jan 2025: 270 total (+9 this month)</text>
  </g>
  <g class="hoverpoint">
    <line x1="636.2" y1="30" x2="636.2" y2="160.0" class="guide"/>
    <circle cx="636.2" cy="148.2" r="16" class="hit"/>
    <circle cx="636.2" cy="148.2" r="4" class="hover-dot"><title>Feb 2025: 272 total (+2 this month)</title></circle>
    <rect x="566.2" y="122.2" width="140" height="20" rx="4" class="tooltip-bg"/>
    <text x="636.2" y="136.2" class="tooltip-text" text-anchor="middle">Feb 2025: 272 total (+2 this month)</text>
  </g>
  <g class="hoverpoint">
    <line x1="655.8" y1="30" x2="655.8" y2="160.0" class="guide"/>
    <circle cx="655.8" cy="147.3" r="16" class="hit"/>
    <circle cx="655.8" cy="147.3" r="4" class="hover-dot"><title>Mar 2025: 294 total (+22 this month)</title></circle>
    <rect x="585.8" y="121.3" width="140" height="20" rx="4" class="tooltip-bg"/>
    <text x="655.8" y="135.3" class="tooltip-text" text-anchor="middle">Mar 2025: 294 total (+22 this month)</text>
  </g>
  <g class="hoverpoint">
    <line x1="668.9" y1="30" x2="668.9" y2="160.0" class="guide"/>
    <circle cx="668.9" cy="144.8" r="16" class="hit"/>
    <circle cx="668.9" cy="144.8" r="4" class="hover-dot"><title>Apr 2025: 351 total (+57 this month)</title></circle>
    <rect x="598.9" y="118.8" width="140" height="20" rx="4" class="tooltip-bg"/>
    <text x="668.9" y="132.8" class="tooltip-text" text-anchor="middle">Apr 2025: 351 total (+57 this month)</text>
  </g>
  <g class="hoverpoint">
    <line x1="676.2" y1="30" x2="676.2" y2="160.0" class="guide"/>
    <circle cx="676.2" cy="142.3" r="16" class="hit"/>
    <circle cx="676.2" cy="142.3" r="4" class="hover-dot"><title>May 2025: 408 total (+57 this month)</title></circle>
    <rect x="606.2" y="116.3" width="140" height="20" rx="4" class="tooltip-bg"/>
    <text x="676.2" y="130.3" class="tooltip-text" text-anchor="middle">May 2025: 408 total (+57 this month)</text>
  </g>
  <g class="hoverpoint">
    <line x1="690.9" y1="30" x2="690.9" y2="160.0" class="guide"/>
    <circle cx="690.9" cy="141.6" r="16" class="hit"/>
    <circle cx="690.9" cy="141.6" r="4" class="hover-dot"><title>Jun 2025: 424 total (+16 this month)</title></circle>
    <rect x="620.9" y="115.6" width="140" height="20" rx="4" class="tooltip-bg"/>
    <text x="690.9" y="129.6" class="tooltip-text" text-anchor="middle">Jun 2025: 424 total (+16 this month)</text>
  </g>
  <g class="hoverpoint">
    <line x1="704.4" y1="30" x2="704.4" y2="160.0" class="guide"/>
    <circle cx="704.4" cy="141.3" r="16" class="hit"/>
    <circle cx="704.4" cy="141.3" r="4" class="hover-dot"><title>Jul 2025: 432 total (+8 this month)</title></circle>
    <rect x="634.4" y="115.3" width="140" height="20" rx="4" class="tooltip-bg"/>
    <text x="704.4" y="129.3" class="tooltip-text" text-anchor="middle">Jul 2025: 432 total (+8 this month)</text>
  </g>
  <g class="hoverpoint">
    <line x1="715.2" y1="30" x2="715.2" y2="160.0" class="guide"/>
    <circle cx="715.2" cy="139.4" r="16" class="hit"/>
    <circle cx="715.2" cy="139.4" r="4" class="hover-dot"><title>Aug 2025: 475 total (+43 this month)</title></circle>
    <rect x="645.2" y="113.4" width="140" height="20" rx="4" class="tooltip-bg"/>
    <text x="715.2" y="127.4" class="tooltip-text" text-anchor="middle">Aug 2025: 475 total (+43 this month)</text>
  </g>
  <g class="hoverpoint">
    <line x1="727.9" y1="30" x2="727.9" y2="160.0" class="guide"/>
    <circle cx="727.9" cy="137.2" r="16" class="hit"/>
    <circle cx="727.9" cy="137.2" r="4" class="hover-dot"><title>Sep 2025: 526 total (+51 this month)</title></circle>
    <rect x="657.9" y="111.2" width="140" height="20" rx="4" class="tooltip-bg"/>
    <text x="727.9" y="125.2" class="tooltip-text" text-anchor="middle">Sep 2025: 526 total (+51 this month)</text>
  </g>
  <g class="hoverpoint">
    <line x1="739.8" y1="30" x2="739.8" y2="160.0" class="guide"/>
    <circle cx="739.8" cy="130.0" r="16" class="hit"/>
    <circle cx="739.8" cy="130.0" r="4" class="hover-dot"><title>Oct 2025: 692 total (+166 this month)</title></circle>
    <rect x="669.8" y="104.0" width="140" height="20" rx="4" class="tooltip-bg"/>
    <text x="739.8" y="118.0" class="tooltip-text" text-anchor="middle">Oct 2025: 692 total (+166 this month)</text>
  </g>
  <g class="hoverpoint">
    <line x1="751.4" y1="30" x2="751.4" y2="160.0" class="guide"/>
    <circle cx="751.4" cy="128.3" r="16" class="hit"/>
    <circle cx="751.4" cy="128.3" r="4" class="hover-dot"><title>Nov 2025: 731 total (+39 this month)</title></circle>
    <rect x="681.4" y="102.3" width="140" height="20" rx="4" class="tooltip-bg"/>
    <text x="751.4" y="116.3" class="tooltip-text" text-anchor="middle">Nov 2025: 731 total (+39 this month)</text>
  </g>
  <g class="hoverpoint">
    <line x1="763.3" y1="30" x2="763.3" y2="160.0" class="guide"/>
    <circle cx="763.3" cy="126.1" r="16" class="hit"/>
    <circle cx="763.3" cy="126.1" r="4" class="hover-dot"><title>Dec 2025: 783 total (+52 this month)</title></circle>
    <rect x="693.3" y="100.1" width="140" height="20" rx="4" class="tooltip-bg"/>
    <text x="763.3" y="114.1" class="tooltip-text" text-anchor="middle">Dec 2025: 783 total (+52 this month)</text>
  </g>
  <g class="hoverpoint">
    <line x1="775.3" y1="30" x2="775.3" y2="160.0" class="guide"/>
    <circle cx="775.3" cy="115.7" r="16" class="hit"/>
    <circle cx="775.3" cy="115.7" r="4" class="hover-dot"><title>Jan 2026: 1,022 total (+239 this month)</title></circle>
    <rect x="705.3" y="89.7" width="140" height="20" rx="4" class="tooltip-bg"/>
    <text x="775.3" y="103.7" class="tooltip-text" text-anchor="middle">Jan 2026: 1,022 total (+239 this month)</text>
  </g>
  <g class="hoverpoint">
    <line x1="786.1" y1="30" x2="786.1" y2="160.0" class="guide"/>
    <circle cx="786.1" cy="102.8" r="16" class="hit"/>
    <circle cx="786.1" cy="102.8" r="4" class="hover-dot"><title>Feb 2026: 1,321 total (+299 this month)</title></circle>
    <rect x="716.1" y="76.8" width="140" height="20" rx="4" class="tooltip-bg"/>
    <text x="786.1" y="90.8" class="tooltip-text" text-anchor="middle">Feb 2026: 1,321 total (+299 this month)</text>
  </g>
  <g class="hoverpoint">
    <line x1="798.0" y1="30" x2="798.0" y2="160.0" class="guide"/>
    <circle cx="798.0" cy="89.9" r="16" class="hit"/>
    <circle cx="798.0" cy="89.9" r="4" class="hover-dot"><title>Mar 2026: 1,617 total (+296 this month)</title></circle>
    <rect x="728.0" y="63.9" width="140" height="20" rx="4" class="tooltip-bg"/>
    <text x="798.0" y="77.9" class="tooltip-text" text-anchor="middle">Mar 2026: 1,617 total (+296 this month)</text>
  </g>
  <g class="hoverpoint">
    <line x1="809.2" y1="30" x2="809.2" y2="160.0" class="guide"/>
    <circle cx="809.2" cy="84.4" r="16" class="hit"/>
    <circle cx="809.2" cy="84.4" r="4" class="hover-dot"><title>Apr 2026: 1,744 total (+127 this month)</title></circle>
    <rect x="739.2" y="58.4" width="140" height="20" rx="4" class="tooltip-bg"/>
    <text x="809.2" y="72.4" class="tooltip-text" text-anchor="middle">Apr 2026: 1,744 total (+127 this month)</text>
  </g>
  <g class="hoverpoint">
    <line x1="820.0" y1="30" x2="820.0" y2="160.0" class="guide"/>
    <circle cx="820.0" cy="50.5" r="16" class="hit"/>
    <circle cx="820.0" cy="50.5" r="4" class="hover-dot"><title>May 2026: 2,527 total (+783 this month)</title></circle>
    <rect x="750.0" y="24.5" width="140" height="20" rx="4" class="tooltip-bg"/>
    <text x="820.0" y="38.5" class="tooltip-text" text-anchor="middle">May 2026: 2,527 total (+783 this month)</text>
  </g>

  <circle cx="820.0" cy="50.5" r="4" class="dot"/>
  <text x="810.0" y="40.5" class="total">2,527</text>

</svg>