<svg xmlns="http://www.w3.org/2000/svg" width="840" height="196" viewBox="0 0 840 196" fill="none">
  <style>
    .label { font-family: -apple-system, BlinkMacSystemFont, 'Segoe UI', Helvetica, Arial, sans-serif; font-size: 10px; fill: #8b949e; }
    .title { font-family: -apple-system, BlinkMacSystemFont, 'Segoe UI', Helvetica, Arial, sans-serif; font-size: 11px; fill: #8b949e; font-weight: 600; }
    .total { font-family: -apple-system, BlinkMacSystemFont, 'Segoe UI', Helvetica, Arial, sans-serif; font-size: 11px; fill: #7ee787; font-weight: 600; }
    .grid { stroke: #21262d; stroke-width: 1; }
    .line { stroke: #7ee787; stroke-width: 2; stroke-linecap: round; stroke-linejoin: round; fill: none; }
    .dot { fill: #7ee787; }
    .area { fill: url(#areaGrad); }
    /* Hover interaction */
    .hoverpoint .guide { stroke: #7ee787; stroke-width: 1; stroke-dasharray: 2,2; opacity: 0; }
    .hoverpoint .hover-dot { fill: #7ee787; opacity: 0; }
    .hoverpoint .hit { fill: transparent; cursor: pointer; }
    .hoverpoint .tooltip-bg { fill: #161b22; stroke: #30363d; stroke-width: 1; opacity: 0; }
    .hoverpoint .tooltip-text { font-family: -apple-system, BlinkMacSystemFont, 'Segoe UI', Helvetica, Arial, sans-serif; font-size: 9px; fill: #c9d1d9; opacity: 0; }
    .hoverpoint:hover .guide { opacity: 0.5; }
    .hoverpoint:hover .hover-dot { opacity: 1; }
    .hoverpoint:hover .tooltip-bg { opacity: 0.95; }
    .hoverpoint:hover .tooltip-text { opacity: 1; }
  </style>
  <defs>
    <linearGradient id="areaGrad" x1="0" y1="0" x2="0" y2="1">
      <stop offset="0%" stop-color="#7ee787" stop-opacity="0.15"/>
      <stop offset="100%" stop-color="#7ee787" stop-opacity="0.01"/>
    </linearGradient>
  </defs>

  <text x="60" y="18" class="title">Cumulative Commits</text>

  <line x1="60" y1="160.0" x2="820" y2="160.0" class="grid"/>
  <text x="50" y="163.0" class="label" text-anchor="end">0</text>
  <line x1="60" y1="127.5" x2="820" y2="127.5" class="grid" stroke-dasharray="3,3"/>
  <text x="50" y="130.5" class="label" text-anchor="end">1,000</text>
  <line x1="60" y1="95.0" x2="820" y2="95.0" class="grid" stroke-dasharray="3,3"/>
  <text x="50" y="98.0" class="label" text-anchor="end">2,000</text>
  <line x1="60" y1="62.5" x2="820" y2="62.5" class="grid" stroke-dasharray="3,3"/>
  <text x="50" y="65.5" class="label" text-anchor="end">3,000</text>
  <line x1="60" y1="30.0" x2="820" y2="30.0" class="grid" stroke-dasharray="3,3"/>
  <text x="50" y="33.0" class="label" text-anchor="end">4,000</text>

  <text x="70.0" y="186" class="label" text-anchor="middle">2021</text>
  <text x="198.8" y="186" class="label" text-anchor="middle">2022</text>
  <text x="337.7" y="186" class="label" text-anchor="middle">2023</text>
  <text x="476.5" y="186" class="label" text-anchor="middle">2024</text>
  <text x="615.7" y="186" class="label" text-anchor="middle">2025</text>
  <text x="754.6" y="186" class="label" text-anchor="middle">2026</text>


  <path class="area" d="M60.0,160.0 L60.0,160.0 60.0,160.0 L179.1,159.8 L179.4,159.8 L180.6,159.8 L198.8,159.7 L199.2,159.5 L199.6,159.4 L200.0,159.3 L200.4,159.3 L200.7,159.2 L201.5,159.1 L201.9,159.0 L202.3,158.9 L202.6,158.9 L204.2,158.8 L204.5,158.7 L204.9,158.7 L208.7,158.7 L218.6,158.6 L270.7,158.5 L271.1,158.2 L272.6,158.2 L273.4,158.0 L279.1,157.9 L279.9,157.8 L280.2,157.7 L280.6,157.7 L281.4,157.6 L281.8,157.3 L282.1,157.0 L282.5,156.9 L284.0,156.8 L284.8,156.8 L286.7,156.7 L292.0,156.6 L302.3,156.5 L308.0,156.5 L310.7,156.4 L311.1,156.4 L311.4,156.3 L311.8,156.1 L313.0,155.9 L313.3,155.9 L313.7,155.8 L315.2,155.7 L315.6,155.5 L316.0,155.5 L316.4,155.2 L316.8,154.9 L317.1,154.8 L317.5,154.8 L318.3,154.7 L319.8,154.6 L324.0,154.5 L335.0,154.5 L335.4,154.3 L335.8,154.3 L339.6,154.0 L340.0,153.3 L341.1,153.2 L341.5,153.1 L343.4,153.0 L356.3,152.9 L356.7,152.8 L357.1,152.8 L357.8,152.7 L360.5,152.6 L361.3,152.4 L361.6,152.4 L363.5,152.3 L372.7,152.2 L559.8,152.1 L560.6,152.1 L561.3,152.1 L562.1,152.0 L562.5,151.9 L562.9,151.9 L563.2,151.9 L563.6,151.8 L567.4,151.8 L578.1,151.8 L581.1,151.7 L582.3,151.7 L584.5,151.7 L586.8,151.6 L587.2,151.6 L588.7,151.6 L589.9,151.6 L590.6,151.5 L618.8,151.5 L619.2,151.4 L619.9,151.4 L620.3,151.4 L621.4,151.3 L623.3,151.2 L628.7,151.2 L639.7,150.9 L640.1,150.7 L645.0,150.7 L645.4,150.6 L646.5,150.5 L648.1,150.4 L650.0,150.1 L650.4,149.2 L650.7,149.1 L653.0,149.1 L654.2,149.0 L654.5,149.0 L655.3,148.9 L658.3,148.9 L661.0,148.6 L662.9,148.4 L663.3,148.3 L664.4,148.1 L664.8,147.7 L665.2,147.6 L665.6,147.5 L665.9,147.4 L666.3,147.2 L667.1,146.9 L668.2,146.7 L681.9,146.6 L682.7,146.2 L691.1,146.1 L696.0,146.0 L698.3,145.9 L698.7,145.9 L700.9,145.9 L701.3,145.8 L701.7,145.8 L702.1,145.7 L702.5,145.6 L702.8,145.2 L703.2,145.2 L705.5,144.7 L705.9,144.6 L706.6,144.6 L709.3,144.4 L710.1,144.4 L710.5,144.3 L711.2,144.2 L711.6,144.0 L712.0,143.9 L712.7,143.9 L713.1,143.8 L713.5,143.8 L713.9,143.8 L715.4,143.6 L715.8,143.5 L716.2,143.4 L716.5,143.4 L716.9,143.3 L717.3,143.2 L718.4,143.1 L718.8,143.0 L719.2,142.9 L719.6,142.8 L720.0,142.6 L720.7,142.5 L721.1,142.2 L721.5,142.0 L721.9,141.4 L722.2,141.2 L722.6,141.1 L723.0,140.8 L723.4,140.7 L723.8,140.6 L724.1,140.6 L724.5,140.3 L726.4,140.0 L726.8,139.9 L727.2,139.6 L727.6,139.0 L727.9,139.0 L728.7,138.9 L729.1,138.5 L729.5,138.2 L729.8,138.2 L730.2,137.6 L731.0,137.5 L731.4,137.4 L731.8,137.4 L732.1,137.3 L732.5,137.3 L732.9,137.3 L734.4,137.2 L735.2,137.2 L735.6,136.9 L735.9,136.8 L737.1,136.7 L739.0,136.7 L741.3,136.5 L741.6,136.5 L742.0,136.4 L742.4,136.2 L742.8,135.8 L743.2,135.8 L743.5,135.7 L743.9,135.7 L744.3,135.6 L744.7,135.3 L748.9,135.2 L749.2,135.2 L752.7,135.0 L753.4,134.7 L753.8,134.7 L754.2,134.6 L754.6,134.5 L755.7,134.4 L756.1,133.9 L756.5,132.8 L756.9,131.7 L757.2,131.7 L757.6,131.6 L758.4,131.4 L758.8,131.3 L759.1,131.0 L759.9,131.0 L760.3,130.7 L760.7,130.7 L761.4,130.2 L761.8,130.2 L762.2,129.9 L762.6,129.7 L762.9,129.5 L763.3,129.5 L764.5,129.2 L764.8,129.1 L765.2,128.3 L765.6,127.2 L766.0,126.8 L766.4,126.3 L766.7,126.2 L767.1,126.1 L767.5,125.9 L767.9,125.7 L768.3,125.3 L768.6,125.3 L769.0,125.0 L769.4,125.0 L769.8,124.7 L770.2,124.5 L770.6,124.2 L770.9,123.9 L771.3,123.8 L771.7,123.7 L772.1,123.2 L772.5,122.2 L772.8,122.0 L773.6,121.8 L774.0,121.7 L774.4,121.7 L774.7,120.1 L775.1,119.4 L775.5,118.7 L775.9,118.4 L776.3,117.2 L776.6,117.1 L777.0,117.0 L777.4,116.7 L777.8,116.2 L778.2,115.2 L778.5,114.1 L778.9,114.0 L779.3,113.8 L780.1,113.8 L780.4,113.1 L780.8,112.6 L781.2,111.9 L781.6,111.8 L782.0,111.8 L782.3,110.7 L782.7,109.5 L783.1,108.9 L783.5,108.7 L783.9,108.3 L784.2,108.0 L784.6,108.0 L785.4,107.8 L785.8,107.6 L786.1,107.6 L786.5,107.5 L786.9,107.5 L788.0,107.5 L788.4,107.4 L789.2,107.4 L789.9,107.3 L790.3,107.3 L791.1,106.9 L791.5,106.6 L791.9,106.3 L794.1,106.2 L794.5,106.0 L794.9,105.9 L795.3,105.7 L795.7,105.6 L796.0,105.5 L796.4,105.5 L796.8,105.0 L797.2,104.5 L797.6,104.3 L797.9,103.4 L798.3,103.2 L799.1,103.2 L799.5,103.2 L800.6,102.9 L801.0,102.5 L801.4,102.2 L801.7,102.0 L802.1,101.3 L802.5,98.5 L802.9,97.3 L803.3,97.1 L803.6,96.9 L804.0,96.4 L804.4,96.3 L804.8,92.4 L805.2,87.6 L805.5,86.2 L805.9,86.2 L806.3,85.4 L806.7,84.9 L807.1,82.0 L807.4,80.2 L807.8,77.5 L808.2,77.0 L808.6,76.9 L809.0,76.8 L809.3,75.9 L809.7,74.6 L810.1,71.6 L810.5,71.1 L810.9,70.5 L811.3,69.7 L811.6,69.2 L812.0,68.7 L812.4,66.9 L812.8,66.5 L813.2,66.4 L813.5,66.1 L813.9,66.0 L814.3,65.7 L814.7,65.6 L815.1,64.7 L815.4,63.4 L815.8,62.3 L816.2,62.2 L816.6,61.2 L817.0,60.5 L817.3,60.4 L817.7,60.2 L818.1,60.1 L818.5,59.8 L818.9,59.0 L819.2,58.1 L819.6,57.8 L820.0,52.8 L820.0,160.0 Z"/>
  <polyline class="line" points="60.0,160.0 179.1,159.8 179.4,159.8 180.6,159.8 198.8,159.7 199.2,159.5 199.6,159.4 200.0,159.3 200.4,159.3 200.7,159.2 201.5,159.1 201.9,159.0 202.3,158.9 202.6,158.9 204.2,158.8 204.5,158.7 204.9,158.7 208.7,158.7 218.6,158.6 270.7,158.5 271.1,158.2 272.6,158.2 273.4,158.0 279.1,157.9 279.9,157.8 280.2,157.7 280.6,157.7 281.4,157.6 281.8,157.3 282.1,157.0 282.5,156.9 284.0,156.8 284.8,156.8 286.7,156.7 292.0,156.6 302.3,156.5 308.0,156.5 310.7,156.4 311.1,156.4 311.4,156.3 311.8,156.1 313.0,155.9 313.3,155.9 313.7,155.8 315.2,155.7 315.6,155.5 316.0,155.5 316.4,155.2 316.8,154.9 317.1,154.8 317.5,154.8 318.3,154.7 319.8,154.6 324.0,154.5 335.0,154.5 335.4,154.3 335.8,154.3 339.6,154.0 340.0,153.3 341.1,153.2 341.5,153.1 343.4,153.0 356.3,152.9 356.7,152.8 357.1,152.8 357.8,152.7 360.5,152.6 361.3,152.4 361.6,152.4 363.5,152.3 372.7,152.2 559.8,152.1 560.6,152.1 561.3,152.1 562.1,152.0 562.5,151.9 562.9,151.9 563.2,151.9 563.6,151.8 567.4,151.8 578.1,151.8 581.1,151.7 582.3,151.7 584.5,151.7 586.8,151.6 587.2,151.6 588.7,151.6 589.9,151.6 590.6,151.5 618.8,151.5 619.2,151.4 619.9,151.4 620.3,151.4 621.4,151.3 623.3,151.2 628.7,151.2 639.7,150.9 640.1,150.7 645.0,150.7 645.4,150.6 646.5,150.5 648.1,150.4 650.0,150.1 650.4,149.2 650.7,149.1 653.0,149.1 654.2,149.0 654.5,149.0 655.3,148.9 658.3,148.9 661.0,148.6 662.9,148.4 663.3,148.3 664.4,148.1 664.8,147.7 665.2,147.6 665.6,147.5 665.9,147.4 666.3,147.2 667.1,146.9 668.2,146.7 681.9,146.6 682.7,146.2 691.1,146.1 696.0,146.0 698.3,145.9 698.7,145.9 700.9,145.9 701.3,145.8 701.7,145.8 702.1,145.7 702.5,145.6 702.8,145.2 703.2,145.2 705.5,144.7 705.9,144.6 706.6,144.6 709.3,144.4 710.1,144.4 710.5,144.3 711.2,144.2 711.6,144.0 712.0,143.9 712.7,143.9 713.1,143.8 713.5,143.8 713.9,143.8 715.4,143.6 715.8,143.5 716.2,143.4 716.5,143.4 716.9,143.3 717.3,143.2 718.4,143.1 718.8,143.0 719.2,142.9 719.6,142.8 720.0,142.6 720.7,142.5 721.1,142.2 721.5,142.0 721.9,141.4 722.2,141.2 722.6,141.1 723.0,140.8 723.4,140.7 723.8,140.6 724.1,140.6 724.5,140.3 726.4,140.0 726.8,139.9 727.2,139.6 727.6,139.0 727.9,139.0 728.7,138.9 729.1,138.5 729.5,138.2 729.8,138.2 730.2,137.6 731.0,137.5 731.4,137.4 731.8,137.4 732.1,137.3 732.5,137.3 732.9,137.3 734.4,137.2 735.2,137.2 735.6,136.9 735.9,136.8 737.1,136.7 739.0,136.7 741.3,136.5 741.6,136.5 742.0,136.4 742.4,136.2 742.8,135.8 743.2,135.8 743.5,135.7 743.9,135.7 744.3,135.6 744.7,135.3 748.9,135.2 749.2,135.2 752.7,135.0 753.4,134.7 753.8,134.7 754.2,134.6 754.6,134.5 755.7,134.4 756.1,133.9 756.5,132.8 756.9,131.7 757.2,131.7 757.6,131.6 758.4,131.4 758.8,131.3 759.1,131.0 759.9,131.0 760.3,130.7 760.7,130.7 761.4,130.2 761.8,130.2 762.2,129.9 762.6,129.7 762.9,129.5 763.3,129.5 764.5,129.2 764.8,129.1 765.2,128.3 765.6,127.2 766.0,126.8 766.4,126.3 766.7,126.2 767.1,126.1 767.5,125.9 767.9,125.7 768.3,125.3 768.6,125.3 769.0,125.0 769.4,125.0 769.8,124.7 770.2,124.5 770.6,124.2 770.9,123.9 771.3,123.8 771.7,123.7 772.1,123.2 772.5,122.2 772.8,122.0 773.6,121.8 774.0,121.7 774.4,121.7 774.7,120.1 775.1,119.4 775.5,118.7 775.9,118.4 776.3,117.2 776.6,117.1 777.0,117.0 777.4,116.7 777.8,116.2 778.2,115.2 778.5,114.1 778.9,114.0 779.3,113.8 780.1,113.8 780.4,113.1 780.8,112.6 781.2,111.9 781.6,111.8 782.0,111.8 782.3,110.7 782.7,109.5 783.1,108.9 783.5,108.7 783.9,108.3 784.2,108.0 784.6,108.0 785.4,107.8 785.8,107.6 786.1,107.6 786.5,107.5 786.9,107.5 788.0,107.5 788.4,107.4 789.2,107.4 789.9,107.3 790.3,107.3 791.1,106.9 791.5,106.6 791.9,106.3 794.1,106.2 794.5,106.0 794.9,105.9 795.3,105.7 795.7,105.6 796.0,105.5 796.4,105.5 796.8,105.0 797.2,104.5 797.6,104.3 797.9,103.4 798.3,103.2 799.1,103.2 799.5,103.2 800.6,102.9 801.0,102.5 801.4,102.2 801.7,102.0 802.1,101.3 802.5,98.5 802.9,97.3 803.3,97.1 803.6,96.9 804.0,96.4 804.4,96.3 804.8,92.4 805.2,87.6 805.5,86.2 805.9,86.2 806.3,85.4 806.7,84.9 807.1,82.0 807.4,80.2 807.8,77.5 808.2,77.0 808.6,76.9 809.0,76.8 809.3,75.9 809.7,74.6 810.1,71.6 810.5,71.1 810.9,70.5 811.3,69.7 811.6,69.2 812.0,68.7 812.4,66.9 812.8,66.5 813.2,66.4 813.5,66.1 813.9,66.0 814.3,65.7 814.7,65.6 815.1,64.7 815.4,63.4 815.8,62.3 816.2,62.2 816.6,61.2 817.0,60.5 817.3,60.4 817.7,60.2 818.1,60.1 818.5,59.8 818.9,59.0 819.2,58.1 819.6,57.8 820.0,52.8"/>

  <g class="hoverpoint">
    <line x1="180.6" y1="30" x2="180.6" y2="160.0" class="guide"/>
    <circle cx="180.6" cy="159.8" r="16" class="hit"/>
    <circle cx="180.6" cy="159.8" r="4" class="hover-dot"><title>Nov 2021: 7 total (+7 this month)</title></circle>
    <rect x="110.6" y="133.8" width="140" height="20" rx="4" class="tooltip-bg"/>
    <text x="180.6" y="147.8" class="tooltip-text" text-anchor="middle">Nov 2021: 7 total (+7 this month)</text>
  </g>
  <g class="hoverpoint">
    <line x1="208.7" y1="30" x2="208.7" y2="160.0" class="guide"/>
    <circle cx="208.7" cy="158.7" r="16" class="hit"/>
    <circle cx="208.7" cy="158.7" r="4" class="hover-dot"><title>Jan 2022: 41 total (+34 this month)</title></circle>
    <rect x="138.7" y="132.7" width="140" height="20" rx="4" class="tooltip-bg"/>
    <text x="208.7" y="146.7" class="tooltip-text" text-anchor="middle">Jan 2022: 41 total (+34 this month)</text>
  </g>
  <g class="hoverpoint">
    <line x1="218.6" y1="30" x2="218.6" y2="160.0" class="guide"/>
    <circle cx="218.6" cy="158.6" r="16" class="hit"/>
    <circle cx="218.6" cy="158.6" r="4" class="hover-dot"><title>Feb 2022: 44 total (+3 this month)</title></circle>
    <rect x="148.6" y="132.6" width="140" height="20" rx="4" class="tooltip-bg"/>
    <text x="218.6" y="146.6" class="tooltip-text" text-anchor="middle">Feb 2022: 44 total (+3 this month)</text>
  </g>
  <g class="hoverpoint">
    <line x1="279.1" y1="30" x2="279.1" y2="160.0" class="guide"/>
    <circle cx="279.1" cy="157.9" r="16" class="hit"/>
    <circle cx="279.1" cy="157.9" r="4" class="hover-dot"><title>Jul 2022: 65 total (+21 this month)</title></circle>
    <rect x="209.1" y="131.9" width="140" height="20" rx="4" class="tooltip-bg"/>
    <text x="279.1" y="145.9" class="tooltip-text" text-anchor="middle">Jul 2022: 65 total (+21 this month)</text>
  </g>
  <g class="hoverpoint">
    <line x1="286.7" y1="30" x2="286.7" y2="160.0" class="guide"/>
    <circle cx="286.7" cy="156.7" r="16" class="hit"/>
    <circle cx="286.7" cy="156.7" r="4" class="hover-dot"><title>Aug 2022: 101 total (+36 this month)</title></circle>
    <rect x="216.7" y="130.7" width="140" height="20" rx="4" class="tooltip-bg"/>
    <text x="286.7" y="144.7" class="tooltip-text" text-anchor="middle">Aug 2022: 101 total (+36 this month)</text>
  </g>
  <g class="hoverpoint">
    <line x1="302.3" y1="30" x2="302.3" y2="160.0" class="guide"/>
    <circle cx="302.3" cy="156.5" r="16" class="hit"/>
    <circle cx="302.3" cy="156.5" r="4" class="hover-dot"><title>Sep 2022: 108 total (+7 this month)</title></circle>
    <rect x="232.3" y="130.5" width="140" height="20" rx="4" class="tooltip-bg"/>
    <text x="302.3" y="144.5" class="tooltip-text" text-anchor="middle">Sep 2022: 108 total (+7 this month)</text>
  </g>
  <g class="hoverpoint">
    <line x1="313.7" y1="30" x2="313.7" y2="160.0" class="guide"/>
    <circle cx="313.7" cy="155.8" r="16" class="hit"/>
    <circle cx="313.7" cy="155.8" r="4" class="hover-dot"><title>Oct 2022: 128 total (+20 this month)</title></circle>
    <rect x="243.7" y="129.8" width="140" height="20" rx="4" class="tooltip-bg"/>
    <text x="313.7" y="143.8" class="tooltip-text" text-anchor="middle">Oct 2022: 128 total (+20 this month)</text>
  </g>
  <g class="hoverpoint">
    <line x1="324.0" y1="30" x2="324.0" y2="160.0" class="guide"/>
    <circle cx="324.0" cy="154.5" r="16" class="hit"/>
    <circle cx="324.0" cy="154.5" r="4" class="hover-dot"><title>Nov 2022: 168 total (+40 this month)</title></circle>
    <rect x="254.0" y="128.5" width="140" height="20" rx="4" class="tooltip-bg"/>
    <text x="324.0" y="142.5" class="tooltip-text" text-anchor="middle">Nov 2022: 168 total (+40 this month)</text>
  </g>
  <g class="hoverpoint">
    <line x1="335.8" y1="30" x2="335.8" y2="160.0" class="guide"/>
    <circle cx="335.8" cy="154.3" r="16" class="hit"/>
    <circle cx="335.8" cy="154.3" r="4" class="hover-dot"><title>Dec 2022: 175 total (+7 this month)</title></circle>
    <rect x="265.8" y="128.3" width="140" height="20" rx="4" class="tooltip-bg"/>
    <text x="335.8" y="142.3" class="tooltip-text" text-anchor="middle">Dec 2022: 175 total (+7 this month)</text>
  </g>
  <g class="hoverpoint">
    <line x1="343.4" y1="30" x2="343.4" y2="160.0" class="guide"/>
    <circle cx="343.4" cy="153.0" r="16" class="hit"/>
    <circle cx="343.4" cy="153.0" r="4" class="hover-dot"><title>Jan 2023: 214 total (+39 this month)</title></circle>
    <rect x="273.4" y="127.0" width="140" height="20" rx="4" class="tooltip-bg"/>
    <text x="343.4" y="141.0" class="tooltip-text" text-anchor="middle">Jan 2023: 214 total (+39 this month)</text>
  </g>
  <g class="hoverpoint">
    <line x1="357.8" y1="30" x2="357.8" y2="160.0" class="guide"/>
    <circle cx="357.8" cy="152.7" r="16" class="hit"/>
    <circle cx="357.8" cy="152.7" r="4" class="hover-dot"><title>Feb 2023: 225 total (+11 this month)</title></circle>
    <rect x="287.8" y="126.7" width="140" height="20" rx="4" class="tooltip-bg"/>
    <text x="357.8" y="140.7" class="tooltip-text" text-anchor="middle">Feb 2023: 225 total (+11 this month)</text>
  </g>
  <g class="hoverpoint">
    <line x1="363.5" y1="30" x2="363.5" y2="160.0" class="guide"/>
    <circle cx="363.5" cy="152.3" r="16" class="hit"/>
    <circle cx="363.5" cy="152.3" r="4" class="hover-dot"><title>Mar 2023: 237 total (+12 this month)</title></circle>
    <rect x="293.5" y="126.3" width="140" height="20" rx="4" class="tooltip-bg"/>
    <text x="363.5" y="140.3" class="tooltip-text" text-anchor="middle">Mar 2023: 237 total (+12 this month)</text>
  </g>
  <g class="hoverpoint">
    <line x1="372.7" y1="30" x2="372.7" y2="160.0" class="guide"/>
    <circle cx="372.7" cy="152.2" r="16" class="hit"/>
    <circle cx="372.7" cy="152.2" r="4" class="hover-dot"><title>Apr 2023: 240 total (+3 this month)</title></circle>
    <rect x="302.7" y="126.2" width="140" height="20" rx="4" class="tooltip-bg"/>
    <text x="372.7" y="140.2" class="tooltip-text" text-anchor="middle">Apr 2023: 240 total (+3 this month)</text>
  </g>
  <g class="hoverpoint">
    <line x1="567.4" y1="30" x2="567.4" y2="160.0" class="guide"/>
    <circle cx="567.4" cy="151.8" r="16" class="hit"/>
    <circle cx="567.4" cy="151.8" r="4" class="hover-dot"><title>Aug 2024: 252 total (+12 this month)</title></circle>
    <rect x="497.4" y="125.8" width="140" height="20" rx="4" class="tooltip-bg"/>
    <text x="567.4" y="139.8" class="tooltip-text" text-anchor="middle">Aug 2024: 252 total (+12 this month)</text>
  </g>
  <g class="hoverpoint">
    <line x1="578.1" y1="30" x2="578.1" y2="160.0" class="guide"/>
    <circle cx="578.1" cy="151.8" r="16" class="hit"/>
    <circle cx="578.1" cy="151.8" r="4" class="hover-dot"><title>Sep 2024: 253 total (+1 this month)</title></circle>
    <rect x="508.1" y="125.8" width="140" height="20" rx="4" class="tooltip-bg"/>
    <text x="578.1" y="139.8" class="tooltip-text" text-anchor="middle">Sep 2024: 253 total (+1 this month)</text>
  </g>
  <g class="hoverpoint">
    <line x1="590.6" y1="30" x2="590.6" y2="160.0" class="guide"/>
    <circle cx="590.6" cy="151.5" r="16" class="hit"/>
    <circle cx="590.6" cy="151.5" r="4" class="hover-dot"><title>Oct 2024: 261 total (+8 this month)</title></circle>
    <rect x="520.6" y="125.5" width="140" height="20" rx="4" class="tooltip-bg"/>
    <text x="590.6" y="139.5" class="tooltip-text" text-anchor="middle">Oct 2024: 261 total (+8 this month)</text>
  </g>
  <g class="hoverpoint">
    <line x1="623.3" y1="30" x2="623.3" y2="160.0" class="guide"/>
    <circle cx="623.3" cy="151.2" r="16" class="hit"/>
    <circle cx="623.3" cy="151.2" r="4" class="hover-dot"><title>Jan 2025: 270 total (+9 this month)</title></circle>
    <rect x="553.3" y="125.2" width="140" height="20" rx="4" class="tooltip-bg"/>
    <text x="623.3" y="139.2" class="tooltip-text" text-anchor="middle">Jan 2025: 270 total (+9 this month)</text>
  </g>
  <g class="hoverpoint">
    <line x1="628.7" y1="30" x2="628.7" y2="160.0" class="guide"/>
    <circle cx="628.7" cy="151.2" r="16" class="hit"/>
    <circle cx="628.7" cy="151.2" r="4" class="hover-dot"><title>Feb 2025: 272 total (+2 this month)</title></circle>
    <rect x="558.7" y="125.2" width="140" height="20" rx="4" class="tooltip-bg"/>
    <text x="628.7" y="139.2" class="tooltip-text" text-anchor="middle">Feb 2025: 272 total (+2 this month)</text>
  </g>
  <g class="hoverpoint">
    <line x1="648.1" y1="30" x2="648.1" y2="160.0" class="guide"/>
    <circle cx="648.1" cy="150.4" r="16" class="hit"/>
    <circle cx="648.1" cy="150.4" r="4" class="hover-dot"><title>Mar 2025: 294 total (+22 this month)</title></circle>
    <rect x="578.1" y="124.4" width="140" height="20" rx="4" class="tooltip-bg"/>
    <text x="648.1" y="138.4" class="tooltip-text" text-anchor="middle">Mar 2025: 294 total (+22 this month)</text>
  </g>
  <g class="hoverpoint">
    <line x1="661.0" y1="30" x2="661.0" y2="160.0" class="guide"/>
    <circle cx="661.0" cy="148.6" r="16" class="hit"/>
    <circle cx="661.0" cy="148.6" r="4" class="hover-dot"><title>Apr 2025: 351 total (+57 this month)</title></circle>
    <rect x="591.0" y="122.6" width="140" height="20" rx="4" class="tooltip-bg"/>
    <text x="661.0" y="136.6" class="tooltip-text" text-anchor="middle">Apr 2025: 351 total (+57 this month)</text>
  </g>
  <g class="hoverpoint">
    <line x1="668.2" y1="30" x2="668.2" y2="160.0" class="guide"/>
    <circle cx="668.2" cy="146.7" r="16" class="hit"/>
    <circle cx="668.2" cy="146.7" r="4" class="hover-dot"><title>May 2025: 408 total (+57 this month)</title></circle>
    <rect x="598.2" y="120.7" width="140" height="20" rx="4" class="tooltip-bg"/>
    <text x="668.2" y="134.7" class="tooltip-text" text-anchor="middle">May 2025: 408 total (+57 this month)</text>
  </g>
  <g class="hoverpoint">
    <line x1="682.7" y1="30" x2="682.7" y2="160.0" class="guide"/>
    <circle cx="682.7" cy="146.2" r="16" class="hit"/>
    <circle cx="682.7" cy="146.2" r="4" class="hover-dot"><title>Jun 2025: 424 total (+16 this month)</title></circle>
    <rect x="612.7" y="120.2" width="140" height="20" rx="4" class="tooltip-bg"/>
    <text x="682.7" y="134.2" class="tooltip-text" text-anchor="middle">Jun 2025: 424 total (+16 this month)</text>
  </g>
  <g class="hoverpoint">
    <line x1="696.0" y1="30" x2="696.0" y2="160.0" class="guide"/>
    <circle cx="696.0" cy="146.0" r="16" class="hit"/>
    <circle cx="696.0" cy="146.0" r="4" class="hover-dot"><title>Jul 2025: 432 total (+8 this month)</title></circle>
    <rect x="626.0" y="120.0" width="140" height="20" rx="4" class="tooltip-bg"/>
    <text x="696.0" y="134.0" class="tooltip-text" text-anchor="middle">Jul 2025: 432 total (+8 this month)</text>
  </g>
  <g class="hoverpoint">
    <line x1="706.6" y1="30" x2="706.6" y2="160.0" class="guide"/>
    <circle cx="706.6" cy="144.6" r="16" class="hit"/>
    <circle cx="706.6" cy="144.6" r="4" class="hover-dot"><title>Aug 2025: 475 total (+43 this month)</title></circle>
    <rect x="636.6" y="118.6" width="140" height="20" rx="4" class="tooltip-bg"/>
    <text x="706.6" y="132.6" class="tooltip-text" text-anchor="middle">Aug 2025: 475 total (+43 this month)</text>
  </g>
  <g class="hoverpoint">
    <line x1="719.2" y1="30" x2="719.2" y2="160.0" class="guide"/>
    <circle cx="719.2" cy="142.9" r="16" class="hit"/>
    <circle cx="719.2" cy="142.9" r="4" class="hover-dot"><title>Sep 2025: 526 total (+51 this month)</title></circle>
    <rect x="649.2" y="116.9" width="140" height="20" rx="4" class="tooltip-bg"/>
    <text x="719.2" y="130.9" class="tooltip-text" text-anchor="middle">Sep 2025: 526 total (+51 this month)</text>
  </g>
  <g class="hoverpoint">
    <line x1="731.0" y1="30" x2="731.0" y2="160.0" class="guide"/>
    <circle cx="731.0" cy="137.5" r="16" class="hit"/>
    <circle cx="731.0" cy="137.5" r="4" class="hover-dot"><title>Oct 2025: 692 total (+166 this month)</title></circle>
    <rect x="661.0" y="111.5" width="140" height="20" rx="4" class="tooltip-bg"/>
    <text x="731.0" y="125.5" class="tooltip-text" text-anchor="middle">Oct 2025: 692 total (+166 this month)</text>
  </g>
  <g class="hoverpoint">
    <line x1="742.4" y1="30" x2="742.4" y2="160.0" class="guide"/>
    <circle cx="742.4" cy="136.2" r="16" class="hit"/>
    <circle cx="742.4" cy="136.2" r="4" class="hover-dot"><title>Nov 2025: 731 total (+39 this month)</title></circle>
    <rect x="672.4" y="110.2" width="140" height="20" rx="4" class="tooltip-bg"/>
    <text x="742.4" y="124.2" class="tooltip-text" text-anchor="middle">Nov 2025: 731 total (+39 this month)</text>
  </g>
  <g class="hoverpoint">
    <line x1="754.2" y1="30" x2="754.2" y2="160.0" class="guide"/>
    <circle cx="754.2" cy="134.6" r="16" class="hit"/>
    <circle cx="754.2" cy="134.6" r="4" class="hover-dot"><title>Dec 2025: 783 total (+52 this month)</title></circle>
    <rect x="684.2" y="108.6" width="140" height="20" rx="4" class="tooltip-bg"/>
    <text x="754.2" y="122.6" class="tooltip-text" text-anchor="middle">Dec 2025: 783 total (+52 this month)</text>
  </g>
  <g class="hoverpoint">
    <line x1="766.0" y1="30" x2="766.0" y2="160.0" class="guide"/>
    <circle cx="766.0" cy="126.8" r="16" class="hit"/>
    <circle cx="766.0" cy="126.8" r="4" class="hover-dot"><title>Jan 2026: 1,022 total (+239 this month)</title></circle>
    <rect x="696.0" y="100.8" width="140" height="20" rx="4" class="tooltip-bg"/>
    <text x="766.0" y="114.8" class="tooltip-text" text-anchor="middle">Jan 2026: 1,022 total (+239 this month)</text>
  </g>
  <g class="hoverpoint">
    <line x1="776.6" y1="30" x2="776.6" y2="160.0" class="guide"/>
    <circle cx="776.6" cy="117.1" r="16" class="hit"/>
    <circle cx="776.6" cy="117.1" r="4" class="hover-dot"><title>Feb 2026: 1,321 total (+299 this month)</title></circle>
    <rect x="706.6" y="91.1" width="140" height="20" rx="4" class="tooltip-bg"/>
    <text x="776.6" y="105.1" class="tooltip-text" text-anchor="middle">Feb 2026: 1,321 total (+299 this month)</text>
  </g>
  <g class="hoverpoint">
    <line x1="788.4" y1="30" x2="788.4" y2="160.0" class="guide"/>
    <circle cx="788.4" cy="107.4" r="16" class="hit"/>
    <circle cx="788.4" cy="107.4" r="4" class="hover-dot"><title>Mar 2026: 1,617 total (+296 this month)</title></circle>
    <rect x="718.4" y="81.4" width="140" height="20" rx="4" class="tooltip-bg"/>
    <text x="788.4" y="95.4" class="tooltip-text" text-anchor="middle">Mar 2026: 1,617 total (+296 this month)</text>
  </g>
  <g class="hoverpoint">
    <line x1="799.5" y1="30" x2="799.5" y2="160.0" class="guide"/>
    <circle cx="799.5" cy="103.2" r="16" class="hit"/>
    <circle cx="799.5" cy="103.2" r="4" class="hover-dot"><title>Apr 2026: 1,749 total (+132 this month)</title></circle>
    <rect x="729.5" y="77.2" width="140" height="20" rx="4" class="tooltip-bg"/>
    <text x="799.5" y="91.2" class="tooltip-text" text-anchor="middle">Apr 2026: 1,749 total (+132 this month)</text>
  </g>
  <g class="hoverpoint">
    <line x1="811.6" y1="30" x2="811.6" y2="160.0" class="guide"/>
    <circle cx="811.6" cy="69.2" r="16" class="hit"/>
    <circle cx="811.6" cy="69.2" r="4" class="hover-dot"><title>May 2026: 2,795 total (+1,046 this month)</title></circle>
    <rect x="741.6" y="43.2" width="140" height="20" rx="4" class="tooltip-bg"/>
    <text x="811.6" y="57.2" class="tooltip-text" text-anchor="middle">May 2026: 2,795 total (+1,046 this month)</text>
  </g>
  <g class="hoverpoint">
    <line x1="820.0" y1="30" x2="820.0" y2="160.0" class="guide"/>
    <circle cx="820.0" cy="52.8" r="16" class="hit"/>
    <circle cx="820.0" cy="52.8" r="4" class="hover-dot"><title>Jun 2026: 3,298 total (+503 this month)</title></circle>
    <rect x="750.0" y="26.8" width="140" height="20" rx="4" class="tooltip-bg"/>
    <text x="820.0" y="40.8" class="tooltip-text" text-anchor="middle">Jun 2026: 3,298 total (+503 this month)</text>
  </g>

  <circle cx="820.0" cy="52.8" r="4" class="dot"/>
  <text x="810.0" y="42.8" class="total">3,298</text>

</svg>