<svg xmlns="http://www.w3.org/2000/svg" width="840" height="196" viewBox="0 0 840 196" fill="none">
  <style>
    .label { font-family: -apple-system, BlinkMacSystemFont, 'Segoe UI', Helvetica, Arial, sans-serif; font-size: 10px; fill: #8b949e; }
    .title { font-family: -apple-system, BlinkMacSystemFont, 'Segoe UI', Helvetica, Arial, sans-serif; font-size: 11px; fill: #8b949e; font-weight: 600; }
    .total { font-family: -apple-system, BlinkMacSystemFont, 'Segoe UI', Helvetica, Arial, sans-serif; font-size: 11px; fill: #7ee787; font-weight: 600; }
    .grid { stroke: #21262d; stroke-width: 1; }
    .line { stroke: #7ee787; stroke-width: 2; stroke-linecap: round; stroke-linejoin: round; fill: none; }
    .dot { fill: #7ee787; }
    .area { fill: url(#areaGrad); }
    /* Hover interaction */
    .hoverpoint .guide { stroke: #7ee787; stroke-width: 1; stroke-dasharray: 2,2; opacity: 0; }
    .hoverpoint .hover-dot { fill: #7ee787; opacity: 0; }
    .hoverpoint .hit { fill: transparent; cursor: pointer; }
    .hoverpoint .tooltip-bg { fill: #161b22; stroke: #30363d; stroke-width: 1; opacity: 0; }
    .hoverpoint .tooltip-text { font-family: -apple-system, BlinkMacSystemFont, 'Segoe UI', Helvetica, Arial, sans-serif; font-size: 9px; fill: #c9d1d9; opacity: 0; }
    .hoverpoint:hover .guide { opacity: 0.5; }
    .hoverpoint:hover .hover-dot { opacity: 1; }
    .hoverpoint:hover .tooltip-bg { opacity: 0.95; }
    .hoverpoint:hover .tooltip-text { opacity: 1; }
  </style>
  <defs>
    <linearGradient id="areaGrad" x1="0" y1="0" x2="0" y2="1">
      <stop offset="0%" stop-color="#7ee787" stop-opacity="0.15"/>
      <stop offset="100%" stop-color="#7ee787" stop-opacity="0.01"/>
    </linearGradient>
  </defs>

  <text x="60" y="18" class="title">Cumulative Commits</text>

  <line x1="60" y1="160.0" x2="820" y2="160.0" class="grid"/>
  <text x="50" y="163.0" class="label" text-anchor="end">0</text>
  <line x1="60" y1="127.5" x2="820" y2="127.5" class="grid" stroke-dasharray="3,3"/>
  <text x="50" y="130.5" class="label" text-anchor="end">750</text>
  <line x1="60" y1="95.0" x2="820" y2="95.0" class="grid" stroke-dasharray="3,3"/>
  <text x="50" y="98.0" class="label" text-anchor="end">1,500</text>
  <line x1="60" y1="62.5" x2="820" y2="62.5" class="grid" stroke-dasharray="3,3"/>
  <text x="50" y="65.5" class="label" text-anchor="end">2,250</text>
  <line x1="60" y1="30.0" x2="820" y2="30.0" class="grid" stroke-dasharray="3,3"/>
  <text x="50" y="33.0" class="label" text-anchor="end">3,000</text>

  <text x="70.0" y="186" class="label" text-anchor="middle">2021</text>
  <text x="200.6" y="186" class="label" text-anchor="middle">2022</text>
  <text x="341.2" y="186" class="label" text-anchor="middle">2023</text>
  <text x="481.8" y="186" class="label" text-anchor="middle">2024</text>
  <text x="622.8" y="186" class="label" text-anchor="middle">2025</text>
  <text x="763.4" y="186" class="label" text-anchor="middle">2026</text>


  <path class="area" d="M60.0,160.0 L60.0,160.0 60.0,160.0 L180.6,159.8 L181.0,159.7 L182.1,159.7 L200.6,159.6 L201.0,159.3 L201.4,159.3 L201.8,159.1 L202.1,159.0 L202.5,159.0 L203.3,158.7 L203.7,158.6 L204.1,158.5 L204.5,158.5 L206.0,158.4 L206.4,158.3 L206.8,158.3 L210.6,158.2 L220.6,158.1 L273.4,158.1 L273.8,157.7 L275.3,157.6 L276.1,157.3 L281.9,157.2 L282.6,157.1 L283.0,156.9 L283.4,156.9 L284.2,156.8 L284.6,156.4 L285.0,156.0 L285.3,155.9 L286.9,155.8 L287.7,155.7 L289.6,155.6 L295.0,155.4 L305.4,155.3 L311.2,155.3 L313.8,155.2 L314.2,155.1 L314.6,155.0 L315.0,154.8 L316.2,154.5 L316.5,154.5 L316.9,154.5 L318.5,154.3 L318.9,154.1 L319.2,154.0 L319.6,153.6 L320.0,153.2 L320.4,153.1 L320.8,153.0 L321.6,152.9 L323.1,152.8 L327.3,152.7 L338.5,152.7 L338.9,152.5 L339.3,152.4 L343.1,152.0 L343.5,151.0 L344.7,150.9 L345.0,150.9 L347.0,150.7 L360.1,150.6 L360.5,150.5 L360.8,150.4 L361.6,150.2 L364.3,150.1 L365.1,149.9 L365.5,149.8 L367.4,149.7 L376.6,149.6 L566.2,149.5 L566.9,149.5 L567.7,149.4 L568.5,149.3 L568.8,149.3 L569.2,149.2 L569.6,149.2 L570.0,149.1 L573.9,149.1 L584.6,149.0 L587.7,149.0 L588.9,148.9 L591.2,148.9 L593.5,148.9 L593.9,148.8 L595.4,148.8 L596.6,148.7 L597.4,148.7 L625.9,148.6 L626.2,148.6 L627.0,148.5 L627.4,148.5 L628.6,148.3 L630.5,148.3 L635.9,148.2 L647.0,147.8 L647.4,147.7 L652.4,147.6 L652.8,147.5 L654.0,147.4 L655.5,147.3 L657.4,146.8 L657.8,145.6 L658.2,145.5 L660.5,145.4 L661.7,145.4 L662.1,145.4 L662.8,145.2 L665.9,145.1 L668.6,144.8 L670.5,144.5 L670.9,144.4 L672.1,144.1 L672.5,143.6 L672.9,143.5 L673.2,143.3 L673.6,143.1 L674.0,142.9 L674.8,142.6 L675.9,142.3 L689.8,142.2 L690.6,141.6 L699.0,141.5 L704.1,141.3 L706.4,141.2 L706.8,141.2 L709.1,141.2 L709.4,141.1 L709.8,141.1 L710.2,140.9 L710.6,140.8 L711.0,140.3 L711.4,140.2 L713.7,139.6 L714.1,139.5 L714.8,139.4 L717.5,139.2 L718.3,139.2 L718.7,139.0 L719.5,139.0 L719.8,138.7 L720.2,138.6 L721.0,138.5 L721.4,138.4 L721.8,138.4 L722.2,138.3 L723.7,138.1 L724.1,138.0 L724.5,137.9 L724.9,137.8 L725.2,137.7 L725.6,137.6 L726.8,137.4 L727.2,137.3 L727.6,137.2 L727.9,137.1 L728.3,136.8 L729.1,136.7 L729.5,136.3 L729.9,136.0 L730.2,135.2 L730.6,135.0 L731.0,134.8 L731.4,134.3 L731.8,134.3 L732.2,134.1 L732.6,134.1 L732.9,133.8 L734.9,133.3 L735.3,133.2 L735.6,132.8 L736.0,132.1 L736.4,132.0 L737.2,131.9 L737.6,131.3 L738.0,130.9 L738.3,130.9 L738.7,130.2 L739.5,130.0 L739.9,129.9 L740.3,129.8 L740.6,129.8 L741.0,129.8 L741.4,129.7 L743.0,129.6 L743.7,129.5 L744.1,129.2 L744.5,129.0 L745.7,129.0 L747.6,128.9 L749.9,128.7 L750.3,128.6 L750.7,128.6 L751.0,128.3 L751.4,127.7 L751.8,127.7 L752.2,127.6 L752.6,127.5 L753.0,127.4 L753.4,127.1 L757.6,127.0 L758.0,126.9 L761.4,126.6 L762.2,126.3 L762.6,126.2 L763.0,126.1 L763.4,126.0 L764.5,125.9 L764.9,125.2 L765.3,123.7 L765.7,122.3 L766.1,122.3 L766.5,122.1 L767.2,121.9 L767.6,121.7 L768.0,121.4 L768.8,121.3 L769.2,120.9 L769.5,120.9 L770.3,120.3 L770.7,120.2 L771.1,119.9 L771.5,119.7 L771.8,119.4 L772.2,119.4 L773.4,119.0 L773.8,118.7 L774.2,117.7 L774.5,116.3 L774.9,115.7 L775.3,115.1 L775.7,115.0 L776.1,114.8 L776.5,114.6 L776.9,114.2 L777.2,113.8 L777.6,113.7 L778.0,113.4 L778.4,113.3 L778.8,113.0 L779.2,112.6 L779.6,112.3 L779.9,111.9 L780.3,111.8 L780.7,111.6 L781.1,110.9 L781.5,109.6 L781.9,109.4 L782.6,109.1 L783.0,109.0 L783.4,108.9 L783.8,106.8 L784.2,105.8 L784.6,104.9 L784.9,104.5 L785.3,102.9 L785.7,102.8 L786.1,102.7 L786.5,102.3 L786.9,101.6 L787.3,100.2 L787.6,98.8 L788.0,98.7 L788.4,98.4 L789.2,98.3 L789.6,97.5 L790.0,96.8 L790.3,95.9 L790.7,95.7 L791.1,95.7 L791.5,94.3 L791.9,92.6 L792.3,91.9 L792.7,91.5 L793.0,91.1 L793.4,90.7 L793.8,90.7 L794.6,90.5 L795.0,90.2 L795.3,90.1 L795.7,90.1 L796.1,90.0 L797.3,90.0 L797.7,89.9 L798.4,89.8 L799.2,89.8 L799.6,89.7 L800.4,89.1 L800.7,88.8 L801.1,88.4 L803.4,88.3 L803.8,88.0 L804.2,87.9 L804.6,87.5 L805.0,87.5 L805.4,87.4 L805.7,87.3 L806.1,86.7 L806.5,86.0 L806.9,85.8 L807.3,84.5 L807.7,84.3 L808.4,84.3 L808.8,84.2 L810.0,83.8 L810.4,83.3 L810.8,83.0 L811.1,82.7 L811.5,81.7 L811.9,78.0 L812.3,76.4 L812.7,76.1 L813.1,75.8 L813.5,75.2 L813.8,75.1 L814.2,69.9 L814.6,63.5 L815.0,61.6 L815.4,61.5 L815.8,60.6 L816.1,59.8 L816.5,56.0 L816.9,53.6 L817.3,50.1 L817.7,49.3 L818.1,49.2 L818.5,49.1 L818.8,47.9 L819.2,46.8 L819.6,45.6 L820.0,45.5 L820.0,160.0 Z"/>
  <polyline class="line" points="60.0,160.0 180.6,159.8 181.0,159.7 182.1,159.7 200.6,159.6 201.0,159.3 201.4,159.3 201.8,159.1 202.1,159.0 202.5,159.0 203.3,158.7 203.7,158.6 204.1,158.5 204.5,158.5 206.0,158.4 206.4,158.3 206.8,158.3 210.6,158.2 220.6,158.1 273.4,158.1 273.8,157.7 275.3,157.6 276.1,157.3 281.9,157.2 282.6,157.1 283.0,156.9 283.4,156.9 284.2,156.8 284.6,156.4 285.0,156.0 285.3,155.9 286.9,155.8 287.7,155.7 289.6,155.6 295.0,155.4 305.4,155.3 311.2,155.3 313.8,155.2 314.2,155.1 314.6,155.0 315.0,154.8 316.2,154.5 316.5,154.5 316.9,154.5 318.5,154.3 318.9,154.1 319.2,154.0 319.6,153.6 320.0,153.2 320.4,153.1 320.8,153.0 321.6,152.9 323.1,152.8 327.3,152.7 338.5,152.7 338.9,152.5 339.3,152.4 343.1,152.0 343.5,151.0 344.7,150.9 345.0,150.9 347.0,150.7 360.1,150.6 360.5,150.5 360.8,150.4 361.6,150.2 364.3,150.1 365.1,149.9 365.5,149.8 367.4,149.7 376.6,149.6 566.2,149.5 566.9,149.5 567.7,149.4 568.5,149.3 568.8,149.3 569.2,149.2 569.6,149.2 570.0,149.1 573.9,149.1 584.6,149.0 587.7,149.0 588.9,148.9 591.2,148.9 593.5,148.9 593.9,148.8 595.4,148.8 596.6,148.7 597.4,148.7 625.9,148.6 626.2,148.6 627.0,148.5 627.4,148.5 628.6,148.3 630.5,148.3 635.9,148.2 647.0,147.8 647.4,147.7 652.4,147.6 652.8,147.5 654.0,147.4 655.5,147.3 657.4,146.8 657.8,145.6 658.2,145.5 660.5,145.4 661.7,145.4 662.1,145.4 662.8,145.2 665.9,145.1 668.6,144.8 670.5,144.5 670.9,144.4 672.1,144.1 672.5,143.6 672.9,143.5 673.2,143.3 673.6,143.1 674.0,142.9 674.8,142.6 675.9,142.3 689.8,142.2 690.6,141.6 699.0,141.5 704.1,141.3 706.4,141.2 706.8,141.2 709.1,141.2 709.4,141.1 709.8,141.1 710.2,140.9 710.6,140.8 711.0,140.3 711.4,140.2 713.7,139.6 714.1,139.5 714.8,139.4 717.5,139.2 718.3,139.2 718.7,139.0 719.5,139.0 719.8,138.7 720.2,138.6 721.0,138.5 721.4,138.4 721.8,138.4 722.2,138.3 723.7,138.1 724.1,138.0 724.5,137.9 724.9,137.8 725.2,137.7 725.6,137.6 726.8,137.4 727.2,137.3 727.6,137.2 727.9,137.1 728.3,136.8 729.1,136.7 729.5,136.3 729.9,136.0 730.2,135.2 730.6,135.0 731.0,134.8 731.4,134.3 731.8,134.3 732.2,134.1 732.6,134.1 732.9,133.8 734.9,133.3 735.3,133.2 735.6,132.8 736.0,132.1 736.4,132.0 737.2,131.9 737.6,131.3 738.0,130.9 738.3,130.9 738.7,130.2 739.5,130.0 739.9,129.9 740.3,129.8 740.6,129.8 741.0,129.8 741.4,129.7 743.0,129.6 743.7,129.5 744.1,129.2 744.5,129.0 745.7,129.0 747.6,128.9 749.9,128.7 750.3,128.6 750.7,128.6 751.0,128.3 751.4,127.7 751.8,127.7 752.2,127.6 752.6,127.5 753.0,127.4 753.4,127.1 757.6,127.0 758.0,126.9 761.4,126.6 762.2,126.3 762.6,126.2 763.0,126.1 763.4,126.0 764.5,125.9 764.9,125.2 765.3,123.7 765.7,122.3 766.1,122.3 766.5,122.1 767.2,121.9 767.6,121.7 768.0,121.4 768.8,121.3 769.2,120.9 769.5,120.9 770.3,120.3 770.7,120.2 771.1,119.9 771.5,119.7 771.8,119.4 772.2,119.4 773.4,119.0 773.8,118.7 774.2,117.7 774.5,116.3 774.9,115.7 775.3,115.1 775.7,115.0 776.1,114.8 776.5,114.6 776.9,114.2 777.2,113.8 777.6,113.7 778.0,113.4 778.4,113.3 778.8,113.0 779.2,112.6 779.6,112.3 779.9,111.9 780.3,111.8 780.7,111.6 781.1,110.9 781.5,109.6 781.9,109.4 782.6,109.1 783.0,109.0 783.4,108.9 783.8,106.8 784.2,105.8 784.6,104.9 784.9,104.5 785.3,102.9 785.7,102.8 786.1,102.7 786.5,102.3 786.9,101.6 787.3,100.2 787.6,98.8 788.0,98.7 788.4,98.4 789.2,98.3 789.6,97.5 790.0,96.8 790.3,95.9 790.7,95.7 791.1,95.7 791.5,94.3 791.9,92.6 792.3,91.9 792.7,91.5 793.0,91.1 793.4,90.7 793.8,90.7 794.6,90.5 795.0,90.2 795.3,90.1 795.7,90.1 796.1,90.0 797.3,90.0 797.7,89.9 798.4,89.8 799.2,89.8 799.6,89.7 800.4,89.1 800.7,88.8 801.1,88.4 803.4,88.3 803.8,88.0 804.2,87.9 804.6,87.5 805.0,87.5 805.4,87.4 805.7,87.3 806.1,86.7 806.5,86.0 806.9,85.8 807.3,84.5 807.7,84.3 808.4,84.3 808.8,84.2 810.0,83.8 810.4,83.3 810.8,83.0 811.1,82.7 811.5,81.7 811.9,78.0 812.3,76.4 812.7,76.1 813.1,75.8 813.5,75.2 813.8,75.1 814.2,69.9 814.6,63.5 815.0,61.6 815.4,61.5 815.8,60.6 816.1,59.8 816.5,56.0 816.9,53.6 817.3,50.1 817.7,49.3 818.1,49.2 818.5,49.1 818.8,47.9 819.2,46.8 819.6,45.6 820.0,45.5"/>

  <g class="hoverpoint">
    <line x1="182.1" y1="30" x2="182.1" y2="160.0" class="guide"/>
    <circle cx="182.1" cy="159.7" r="16" class="hit"/>
    <circle cx="182.1" cy="159.7" r="4" class="hover-dot"><title>Nov 2021: 7 total (+7 this month)</title></circle>
    <rect x="112.1" y="133.7" width="140" height="20" rx="4" class="tooltip-bg"/>
    <text x="182.1" y="147.7" class="tooltip-text" text-anchor="middle">Nov 2021: 7 total (+7 this month)</text>
  </g>
  <g class="hoverpoint">
    <line x1="210.6" y1="30" x2="210.6" y2="160.0" class="guide"/>
    <circle cx="210.6" cy="158.2" r="16" class="hit"/>
    <circle cx="210.6" cy="158.2" r="4" class="hover-dot"><title>Jan 2022: 41 total (+34 this month)</title></circle>
    <rect x="140.6" y="132.2" width="140" height="20" rx="4" class="tooltip-bg"/>
    <text x="210.6" y="146.2" class="tooltip-text" text-anchor="middle">Jan 2022: 41 total (+34 this month)</text>
  </g>
  <g class="hoverpoint">
    <line x1="220.6" y1="30" x2="220.6" y2="160.0" class="guide"/>
    <circle cx="220.6" cy="158.1" r="16" class="hit"/>
    <circle cx="220.6" cy="158.1" r="4" class="hover-dot"><title>Feb 2022: 44 total (+3 this month)</title></circle>
    <rect x="150.6" y="132.1" width="140" height="20" rx="4" class="tooltip-bg"/>
    <text x="220.6" y="146.1" class="tooltip-text" text-anchor="middle">Feb 2022: 44 total (+3 this month)</text>
  </g>
  <g class="hoverpoint">
    <line x1="281.9" y1="30" x2="281.9" y2="160.0" class="guide"/>
    <circle cx="281.9" cy="157.2" r="16" class="hit"/>
    <circle cx="281.9" cy="157.2" r="4" class="hover-dot"><title>Jul 2022: 65 total (+21 this month)</title></circle>
    <rect x="211.9" y="131.2" width="140" height="20" rx="4" class="tooltip-bg"/>
    <text x="281.9" y="145.2" class="tooltip-text" text-anchor="middle">Jul 2022: 65 total (+21 this month)</text>
  </g>
  <g class="hoverpoint">
    <line x1="289.6" y1="30" x2="289.6" y2="160.0" class="guide"/>
    <circle cx="289.6" cy="155.6" r="16" class="hit"/>
    <circle cx="289.6" cy="155.6" r="4" class="hover-dot"><title>Aug 2022: 101 total (+36 this month)</title></circle>
    <rect x="219.6" y="129.6" width="140" height="20" rx="4" class="tooltip-bg"/>
    <text x="289.6" y="143.6" class="tooltip-text" text-anchor="middle">Aug 2022: 101 total (+36 this month)</text>
  </g>
  <g class="hoverpoint">
    <line x1="305.4" y1="30" x2="305.4" y2="160.0" class="guide"/>
    <circle cx="305.4" cy="155.3" r="16" class="hit"/>
    <circle cx="305.4" cy="155.3" r="4" class="hover-dot"><title>Sep 2022: 108 total (+7 this month)</title></circle>
    <rect x="235.4" y="129.3" width="140" height="20" rx="4" class="tooltip-bg"/>
    <text x="305.4" y="143.3" class="tooltip-text" text-anchor="middle">Sep 2022: 108 total (+7 this month)</text>
  </g>
  <g class="hoverpoint">
    <line x1="316.9" y1="30" x2="316.9" y2="160.0" class="guide"/>
    <circle cx="316.9" cy="154.5" r="16" class="hit"/>
    <circle cx="316.9" cy="154.5" r="4" class="hover-dot"><title>Oct 2022: 128 total (+20 this month)</title></circle>
    <rect x="246.9" y="128.5" width="140" height="20" rx="4" class="tooltip-bg"/>
    <text x="316.9" y="142.5" class="tooltip-text" text-anchor="middle">Oct 2022: 128 total (+20 this month)</text>
  </g>
  <g class="hoverpoint">
    <line x1="327.3" y1="30" x2="327.3" y2="160.0" class="guide"/>
    <circle cx="327.3" cy="152.7" r="16" class="hit"/>
    <circle cx="327.3" cy="152.7" r="4" class="hover-dot"><title>Nov 2022: 168 total (+40 this month)</title></circle>
    <rect x="257.3" y="126.7" width="140" height="20" rx="4" class="tooltip-bg"/>
    <text x="327.3" y="140.7" class="tooltip-text" text-anchor="middle">Nov 2022: 168 total (+40 this month)</text>
  </g>
  <g class="hoverpoint">
    <line x1="339.3" y1="30" x2="339.3" y2="160.0" class="guide"/>
    <circle cx="339.3" cy="152.4" r="16" class="hit"/>
    <circle cx="339.3" cy="152.4" r="4" class="hover-dot"><title>Dec 2022: 175 total (+7 this month)</title></circle>
    <rect x="269.3" y="126.4" width="140" height="20" rx="4" class="tooltip-bg"/>
    <text x="339.3" y="140.4" class="tooltip-text" text-anchor="middle">Dec 2022: 175 total (+7 this month)</text>
  </g>
  <g class="hoverpoint">
    <line x1="347.0" y1="30" x2="347.0" y2="160.0" class="guide"/>
    <circle cx="347.0" cy="150.7" r="16" class="hit"/>
    <circle cx="347.0" cy="150.7" r="4" class="hover-dot"><title>Jan 2023: 214 total (+39 this month)</title></circle>
    <rect x="277.0" y="124.7" width="140" height="20" rx="4" class="tooltip-bg"/>
    <text x="347.0" y="138.7" class="tooltip-text" text-anchor="middle">Jan 2023: 214 total (+39 this month)</text>
  </g>
  <g class="hoverpoint">
    <line x1="361.6" y1="30" x2="361.6" y2="160.0" class="guide"/>
    <circle cx="361.6" cy="150.2" r="16" class="hit"/>
    <circle cx="361.6" cy="150.2" r="4" class="hover-dot"><title>Feb 2023: 225 total (+11 this month)</title></circle>
    <rect x="291.6" y="124.2" width="140" height="20" rx="4" class="tooltip-bg"/>
    <text x="361.6" y="138.2" class="tooltip-text" text-anchor="middle">Feb 2023: 225 total (+11 this month)</text>
  </g>
  <g class="hoverpoint">
    <line x1="367.4" y1="30" x2="367.4" y2="160.0" class="guide"/>
    <circle cx="367.4" cy="149.7" r="16" class="hit"/>
    <circle cx="367.4" cy="149.7" r="4" class="hover-dot"><title>Mar 2023: 237 total (+12 this month)</title></circle>
    <rect x="297.4" y="123.7" width="140" height="20" rx="4" class="tooltip-bg"/>
    <text x="367.4" y="137.7" class="tooltip-text" text-anchor="middle">Mar 2023: 237 total (+12 this month)</text>
  </g>
  <g class="hoverpoint">
    <line x1="376.6" y1="30" x2="376.6" y2="160.0" class="guide"/>
    <circle cx="376.6" cy="149.6" r="16" class="hit"/>
    <circle cx="376.6" cy="149.6" r="4" class="hover-dot"><title>Apr 2023: 240 total (+3 this month)</title></circle>
    <rect x="306.6" y="123.6" width="140" height="20" rx="4" class="tooltip-bg"/>
    <text x="376.6" y="137.6" class="tooltip-text" text-anchor="middle">Apr 2023: 240 total (+3 this month)</text>
  </g>
  <g class="hoverpoint">
    <line x1="573.9" y1="30" x2="573.9" y2="160.0" class="guide"/>
    <circle cx="573.9" cy="149.1" r="16" class="hit"/>
    <circle cx="573.9" cy="149.1" r="4" class="hover-dot"><title>Aug 2024: 252 total (+12 this month)</title></circle>
    <rect x="503.9" y="123.1" width="140" height="20" rx="4" class="tooltip-bg"/>
    <text x="573.9" y="137.1" class="tooltip-text" text-anchor="middle">Aug 2024: 252 total (+12 this month)</text>
  </g>
  <g class="hoverpoint">
    <line x1="584.6" y1="30" x2="584.6" y2="160.0" class="guide"/>
    <circle cx="584.6" cy="149.0" r="16" class="hit"/>
    <circle cx="584.6" cy="149.0" r="4" class="hover-dot"><title>Sep 2024: 253 total (+1 this month)</title></circle>
    <rect x="514.6" y="123.0" width="140" height="20" rx="4" class="tooltip-bg"/>
    <text x="584.6" y="137.0" class="tooltip-text" text-anchor="middle">Sep 2024: 253 total (+1 this month)</text>
  </g>
  <g class="hoverpoint">
    <line x1="597.4" y1="30" x2="597.4" y2="160.0" class="guide"/>
    <circle cx="597.4" cy="148.7" r="16" class="hit"/>
    <circle cx="597.4" cy="148.7" r="4" class="hover-dot"><title>Oct 2024: 261 total (+8 this month)</title></circle>
    <rect x="527.4" y="122.7" width="140" height="20" rx="4" class="tooltip-bg"/>
    <text x="597.4" y="136.7" class="tooltip-text" text-anchor="middle">Oct 2024: 261 total (+8 this month)</text>
  </g>
  <g class="hoverpoint">
    <line x1="630.5" y1="30" x2="630.5" y2="160.0" class="guide"/>
    <circle cx="630.5" cy="148.3" r="16" class="hit"/>
    <circle cx="630.5" cy="148.3" r="4" class="hover-dot"><title>Jan 2025: 270 total (+9 this month)</title></circle>
    <rect x="560.5" y="122.3" width="140" height="20" rx="4" class="tooltip-bg"/>
    <text x="630.5" y="136.3" class="tooltip-text" text-anchor="middle">Jan 2025: 270 total (+9 this month)</text>
  </g>
  <g class="hoverpoint">
    <line x1="635.9" y1="30" x2="635.9" y2="160.0" class="guide"/>
    <circle cx="635.9" cy="148.2" r="16" class="hit"/>
    <circle cx="635.9" cy="148.2" r="4" class="hover-dot"><title>Feb 2025: 272 total (+2 this month)</title></circle>
    <rect x="565.9" y="122.2" width="140" height="20" rx="4" class="tooltip-bg"/>
    <text x="635.9" y="136.2" class="tooltip-text" text-anchor="middle">Feb 2025: 272 total (+2 this month)</text>
  </g>
  <g class="hoverpoint">
    <line x1="655.5" y1="30" x2="655.5" y2="160.0" class="guide"/>
    <circle cx="655.5" cy="147.3" r="16" class="hit"/>
    <circle cx="655.5" cy="147.3" r="4" class="hover-dot"><title>Mar 2025: 294 total (+22 this month)</title></circle>
    <rect x="585.5" y="121.3" width="140" height="20" rx="4" class="tooltip-bg"/>
    <text x="655.5" y="135.3" class="tooltip-text" text-anchor="middle">Mar 2025: 294 total (+22 this month)</text>
  </g>
  <g class="hoverpoint">
    <line x1="668.6" y1="30" x2="668.6" y2="160.0" class="guide"/>
    <circle cx="668.6" cy="144.8" r="16" class="hit"/>
    <circle cx="668.6" cy="144.8" r="4" class="hover-dot"><title>Apr 2025: 351 total (+57 this month)</title></circle>
    <rect x="598.6" y="118.8" width="140" height="20" rx="4" class="tooltip-bg"/>
    <text x="668.6" y="132.8" class="tooltip-text" text-anchor="middle">Apr 2025: 351 total (+57 this month)</text>
  </g>
  <g class="hoverpoint">
    <line x1="675.9" y1="30" x2="675.9" y2="160.0" class="guide"/>
    <circle cx="675.9" cy="142.3" r="16" class="hit"/>
    <circle cx="675.9" cy="142.3" r="4" class="hover-dot"><title>May 2025: 408 total (+57 this month)</title></circle>
    <rect x="605.9" y="116.3" width="140" height="20" rx="4" class="tooltip-bg"/>
    <text x="675.9" y="130.3" class="tooltip-text" text-anchor="middle">May 2025: 408 total (+57 this month)</text>
  </g>
  <g class="hoverpoint">
    <line x1="690.6" y1="30" x2="690.6" y2="160.0" class="guide"/>
    <circle cx="690.6" cy="141.6" r="16" class="hit"/>
    <circle cx="690.6" cy="141.6" r="4" class="hover-dot"><title>Jun 2025: 424 total (+16 this month)</title></circle>
    <rect x="620.6" y="115.6" width="140" height="20" rx="4" class="tooltip-bg"/>
    <text x="690.6" y="129.6" class="tooltip-text" text-anchor="middle">Jun 2025: 424 total (+16 this month)</text>
  </g>
  <g class="hoverpoint">
    <line x1="704.1" y1="30" x2="704.1" y2="160.0" class="guide"/>
    <circle cx="704.1" cy="141.3" r="16" class="hit"/>
    <circle cx="704.1" cy="141.3" r="4" class="hover-dot"><title>Jul 2025: 432 total (+8 this month)</title></circle>
    <rect x="634.1" y="115.3" width="140" height="20" rx="4" class="tooltip-bg"/>
    <text x="704.1" y="129.3" class="tooltip-text" text-anchor="middle">Jul 2025: 432 total (+8 this month)</text>
  </g>
  <g class="hoverpoint">
    <line x1="714.8" y1="30" x2="714.8" y2="160.0" class="guide"/>
    <circle cx="714.8" cy="139.4" r="16" class="hit"/>
    <circle cx="714.8" cy="139.4" r="4" class="hover-dot"><title>Aug 2025: 475 total (+43 this month)</title></circle>
    <rect x="644.8" y="113.4" width="140" height="20" rx="4" class="tooltip-bg"/>
    <text x="714.8" y="127.4" class="tooltip-text" text-anchor="middle">Aug 2025: 475 total (+43 this month)</text>
  </g>
  <g class="hoverpoint">
    <line x1="727.6" y1="30" x2="727.6" y2="160.0" class="guide"/>
    <circle cx="727.6" cy="137.2" r="16" class="hit"/>
    <circle cx="727.6" cy="137.2" r="4" class="hover-dot"><title>Sep 2025: 526 total (+51 this month)</title></circle>
    <rect x="657.6" y="111.2" width="140" height="20" rx="4" class="tooltip-bg"/>
    <text x="727.6" y="125.2" class="tooltip-text" text-anchor="middle">Sep 2025: 526 total (+51 this month)</text>
  </g>
  <g class="hoverpoint">
    <line x1="739.5" y1="30" x2="739.5" y2="160.0" class="guide"/>
    <circle cx="739.5" cy="130.0" r="16" class="hit"/>
    <circle cx="739.5" cy="130.0" r="4" class="hover-dot"><title>Oct 2025: 692 total (+166 this month)</title></circle>
    <rect x="669.5" y="104.0" width="140" height="20" rx="4" class="tooltip-bg"/>
    <text x="739.5" y="118.0" class="tooltip-text" text-anchor="middle">Oct 2025: 692 total (+166 this month)</text>
  </g>
  <g class="hoverpoint">
    <line x1="751.0" y1="30" x2="751.0" y2="160.0" class="guide"/>
    <circle cx="751.0" cy="128.3" r="16" class="hit"/>
    <circle cx="751.0" cy="128.3" r="4" class="hover-dot"><title>Nov 2025: 731 total (+39 this month)</title></circle>
    <rect x="681.0" y="102.3" width="140" height="20" rx="4" class="tooltip-bg"/>
    <text x="751.0" y="116.3" class="tooltip-text" text-anchor="middle">Nov 2025: 731 total (+39 this month)</text>
  </g>
  <g class="hoverpoint">
    <line x1="763.0" y1="30" x2="763.0" y2="160.0" class="guide"/>
    <circle cx="763.0" cy="126.1" r="16" class="hit"/>
    <circle cx="763.0" cy="126.1" r="4" class="hover-dot"><title>Dec 2025: 783 total (+52 this month)</title></circle>
    <rect x="693.0" y="100.1" width="140" height="20" rx="4" class="tooltip-bg"/>
    <text x="763.0" y="114.1" class="tooltip-text" text-anchor="middle">Dec 2025: 783 total (+52 this month)</text>
  </g>
  <g class="hoverpoint">
    <line x1="774.9" y1="30" x2="774.9" y2="160.0" class="guide"/>
    <circle cx="774.9" cy="115.7" r="16" class="hit"/>
    <circle cx="774.9" cy="115.7" r="4" class="hover-dot"><title>Jan 2026: 1,022 total (+239 this month)</title></circle>
    <rect x="704.9" y="89.7" width="140" height="20" rx="4" class="tooltip-bg"/>
    <text x="774.9" y="103.7" class="tooltip-text" text-anchor="middle">Jan 2026: 1,022 total (+239 this month)</text>
  </g>
  <g class="hoverpoint">
    <line x1="785.7" y1="30" x2="785.7" y2="160.0" class="guide"/>
    <circle cx="785.7" cy="102.8" r="16" class="hit"/>
    <circle cx="785.7" cy="102.8" r="4" class="hover-dot"><title>Feb 2026: 1,321 total (+299 this month)</title></circle>
    <rect x="715.7" y="76.8" width="140" height="20" rx="4" class="tooltip-bg"/>
    <text x="785.7" y="90.8" class="tooltip-text" text-anchor="middle">Feb 2026: 1,321 total (+299 this month)</text>
  </g>
  <g class="hoverpoint">
    <line x1="797.7" y1="30" x2="797.7" y2="160.0" class="guide"/>
    <circle cx="797.7" cy="89.9" r="16" class="hit"/>
    <circle cx="797.7" cy="89.9" r="4" class="hover-dot"><title>Mar 2026: 1,617 total (+296 this month)</title></circle>
    <rect x="727.7" y="63.9" width="140" height="20" rx="4" class="tooltip-bg"/>
    <text x="797.7" y="77.9" class="tooltip-text" text-anchor="middle">Mar 2026: 1,617 total (+296 this month)</text>
  </g>
  <g class="hoverpoint">
    <line x1="808.8" y1="30" x2="808.8" y2="160.0" class="guide"/>
    <circle cx="808.8" cy="84.2" r="16" class="hit"/>
    <circle cx="808.8" cy="84.2" r="4" class="hover-dot"><title>Apr 2026: 1,749 total (+132 this month)</title></circle>
    <rect x="738.8" y="58.2" width="140" height="20" rx="4" class="tooltip-bg"/>
    <text x="808.8" y="72.2" class="tooltip-text" text-anchor="middle">Apr 2026: 1,749 total (+132 this month)</text>
  </g>
  <g class="hoverpoint">
    <line x1="820.0" y1="30" x2="820.0" y2="160.0" class="guide"/>
    <circle cx="820.0" cy="45.5" r="16" class="hit"/>
    <circle cx="820.0" cy="45.5" r="4" class="hover-dot"><title>May 2026: 2,642 total (+893 this month)</title></circle>
    <rect x="750.0" y="19.5" width="140" height="20" rx="4" class="tooltip-bg"/>
    <text x="820.0" y="33.5" class="tooltip-text" text-anchor="middle">May 2026: 2,642 total (+893 this month)</text>
  </g>

  <circle cx="820.0" cy="45.5" r="4" class="dot"/>
  <text x="810.0" y="35.5" class="total">2,642</text>

</svg>