<svg xmlns="http://www.w3.org/2000/svg" width="840" height="196" viewBox="0 0 840 196" fill="none">
  <style>
    .label { font-family: -apple-system, BlinkMacSystemFont, 'Segoe UI', Helvetica, Arial, sans-serif; font-size: 10px; fill: #8b949e; }
    .title { font-family: -apple-system, BlinkMacSystemFont, 'Segoe UI', Helvetica, Arial, sans-serif; font-size: 11px; fill: #8b949e; font-weight: 600; }
    .total { font-family: -apple-system, BlinkMacSystemFont, 'Segoe UI', Helvetica, Arial, sans-serif; font-size: 11px; fill: #7ee787; font-weight: 600; }
    .grid { stroke: #21262d; stroke-width: 1; }
    .line { stroke: #7ee787; stroke-width: 2; stroke-linecap: round; stroke-linejoin: round; fill: none; }
    .dot { fill: #7ee787; }
    .area { fill: url(#areaGrad); }
    /* Hover interaction */
    .hoverpoint .guide { stroke: #7ee787; stroke-width: 1; stroke-dasharray: 2,2; opacity: 0; }
    .hoverpoint .hover-dot { fill: #7ee787; opacity: 0; }
    .hoverpoint .hit { fill: transparent; cursor: pointer; }
    .hoverpoint .tooltip-bg { fill: #161b22; stroke: #30363d; stroke-width: 1; opacity: 0; }
    .hoverpoint .tooltip-text { font-family: -apple-system, BlinkMacSystemFont, 'Segoe UI', Helvetica, Arial, sans-serif; font-size: 9px; fill: #c9d1d9; opacity: 0; }
    .hoverpoint:hover .guide { opacity: 0.5; }
    .hoverpoint:hover .hover-dot { opacity: 1; }
    .hoverpoint:hover .tooltip-bg { opacity: 0.95; }
    .hoverpoint:hover .tooltip-text { opacity: 1; }
  </style>
  <defs>
    <linearGradient id="areaGrad" x1="0" y1="0" x2="0" y2="1">
      <stop offset="0%" stop-color="#7ee787" stop-opacity="0.15"/>
      <stop offset="100%" stop-color="#7ee787" stop-opacity="0.01"/>
    </linearGradient>
  </defs>

  <text x="60" y="18" class="title">Cumulative Commits</text>

  <line x1="60" y1="160.0" x2="820" y2="160.0" class="grid"/>
  <text x="50" y="163.0" class="label" text-anchor="end">0</text>
  <line x1="60" y1="127.5" x2="820" y2="127.5" class="grid" stroke-dasharray="3,3"/>
  <text x="50" y="130.5" class="label" text-anchor="end">500</text>
  <line x1="60" y1="95.0" x2="820" y2="95.0" class="grid" stroke-dasharray="3,3"/>
  <text x="50" y="98.0" class="label" text-anchor="end">1,000</text>
  <line x1="60" y1="62.5" x2="820" y2="62.5" class="grid" stroke-dasharray="3,3"/>
  <text x="50" y="65.5" class="label" text-anchor="end">1,500</text>
  <line x1="60" y1="30.0" x2="820" y2="30.0" class="grid" stroke-dasharray="3,3"/>
  <text x="50" y="33.0" class="label" text-anchor="end">2,000</text>

  <text x="70.0" y="186" class="label" text-anchor="middle">2021</text>
  <text x="201.7" y="186" class="label" text-anchor="middle">2022</text>
  <text x="343.4" y="186" class="label" text-anchor="middle">2023</text>
  <text x="485.0" y="186" class="label" text-anchor="middle">2024</text>
  <text x="627.1" y="186" class="label" text-anchor="middle">2025</text>
  <text x="768.8" y="186" class="label" text-anchor="middle">2026</text>


  <path class="area" d="M60.0,160.0 L60.0,160.0 60.0,160.0 L181.5,159.7 L181.9,159.6 L183.0,159.5 L201.7,159.4 L202.1,159.0 L202.5,158.9 L202.8,158.6 L203.2,158.6 L203.6,158.4 L204.4,158.1 L204.8,157.9 L205.2,157.8 L205.6,157.7 L207.1,157.5 L207.5,157.5 L207.9,157.4 L211.8,157.3 L221.9,157.1 L275.0,157.1 L275.4,156.5 L277.0,156.4 L277.8,155.9 L283.6,155.8 L284.4,155.6 L284.7,155.4 L285.1,155.3 L285.9,155.1 L286.3,154.7 L286.7,154.0 L287.1,153.9 L288.6,153.6 L289.4,153.6 L291.3,153.4 L296.8,153.2 L307.3,153.0 L313.1,152.9 L315.8,152.8 L316.2,152.7 L316.6,152.5 L317.0,152.3 L318.1,151.8 L318.5,151.7 L318.9,151.7 L320.4,151.4 L320.8,151.1 L321.2,151.0 L321.6,150.4 L322.0,149.9 L322.4,149.7 L322.8,149.5 L323.6,149.4 L325.1,149.3 L329.4,149.1 L340.6,149.0 L341.0,148.7 L341.4,148.6 L345.3,148.0 L345.7,146.5 L346.8,146.3 L347.2,146.3 L349.2,146.1 L362.4,145.8 L362.8,145.7 L363.1,145.6 L363.9,145.4 L366.6,145.2 L367.4,144.9 L367.8,144.7 L369.7,144.6 L379.1,144.4 L570.0,144.3 L570.8,144.2 L571.6,144.1 L572.4,144.0 L572.7,143.9 L573.1,143.8 L573.5,143.8 L573.9,143.7 L577.8,143.6 L588.7,143.6 L591.8,143.5 L592.9,143.4 L595.3,143.4 L597.6,143.3 L598.0,143.2 L599.5,143.2 L600.7,143.1 L601.5,143.0 L630.2,143.0 L630.6,142.8 L631.4,142.8 L631.7,142.7 L632.9,142.5 L634.9,142.4 L640.3,142.3 L651.5,141.7 L651.9,141.5 L657.0,141.3 L657.4,141.2 L658.5,141.1 L660.1,140.9 L662.0,140.2 L662.4,138.4 L662.8,138.3 L665.1,138.2 L666.3,138.1 L666.7,138.0 L667.5,137.8 L670.6,137.7 L673.3,137.2 L675.2,136.7 L675.6,136.5 L676.8,136.2 L677.2,135.4 L677.5,135.2 L677.9,134.9 L678.3,134.7 L678.7,134.4 L679.5,133.9 L680.7,133.5 L694.6,133.3 L695.4,132.4 L703.9,132.2 L709.0,131.9 L711.3,131.9 L711.7,131.8 L714.0,131.7 L714.4,131.7 L714.8,131.6 L715.2,131.4 L715.6,131.1 L716.0,130.5 L716.4,130.4 L718.7,129.4 L719.1,129.3 L719.9,129.1 L722.6,128.8 L723.4,128.7 L723.7,128.5 L724.5,128.5 L724.9,128.0 L725.3,127.9 L726.1,127.8 L726.5,127.6 L726.8,127.6 L727.2,127.5 L728.8,127.1 L729.2,127.0 L729.6,126.8 L729.9,126.7 L730.3,126.6 L730.7,126.4 L731.9,126.1 L732.3,125.9 L732.7,125.8 L733.1,125.6 L733.4,125.2 L734.2,125.1 L734.6,124.4 L735.0,124.1 L735.4,122.8 L735.8,122.5 L736.2,122.2 L736.5,121.5 L736.9,121.4 L737.3,121.2 L737.7,121.1 L738.1,120.7 L740.0,120.0 L740.4,119.8 L740.8,119.2 L741.2,118.1 L741.6,118.0 L742.4,117.9 L742.8,116.9 L743.1,116.4 L743.5,116.3 L743.9,115.3 L744.7,115.0 L745.1,114.9 L745.5,114.8 L745.9,114.7 L746.3,114.6 L746.6,114.6 L748.2,114.4 L749.0,114.3 L749.4,113.8 L749.7,113.5 L750.9,113.5 L752.8,113.3 L755.2,113.1 L755.6,112.9 L756.0,112.9 L756.3,112.5 L756.7,111.6 L757.1,111.5 L757.5,111.4 L757.9,111.3 L758.3,111.1 L758.7,110.6 L762.9,110.5 L763.3,110.4 L766.8,109.9 L767.6,109.5 L768.0,109.4 L768.4,109.1 L768.8,109.0 L769.9,108.8 L770.3,107.9 L770.7,105.5 L771.1,103.5 L771.5,103.4 L771.9,103.1 L772.6,102.8 L773.0,102.5 L773.4,102.1 L774.2,102.0 L774.6,101.4 L775.0,101.3 L775.8,100.4 L776.1,100.3 L776.5,99.8 L776.9,99.5 L777.3,99.1 L777.7,99.0 L778.9,98.4 L779.2,98.1 L779.6,96.6 L780.0,94.4 L780.4,93.6 L780.8,92.6 L781.2,92.5 L781.6,92.1 L782.0,91.9 L782.3,91.4 L782.7,90.6 L783.1,90.6 L783.5,90.1 L783.9,90.0 L784.3,89.5 L784.7,89.0 L785.1,88.4 L785.5,87.8 L785.8,87.7 L786.2,87.5 L786.6,86.4 L787.0,84.4 L787.4,84.1 L788.2,83.7 L788.6,83.5 L788.9,83.4 L789.3,80.2 L789.7,78.8 L790.1,77.3 L790.5,76.8 L790.9,74.4 L791.3,74.1 L791.7,74.0 L792.1,73.5 L792.4,72.4 L792.8,70.4 L793.2,68.2 L793.6,68.1 L794.0,67.6 L794.8,67.5 L795.2,66.2 L795.5,65.2 L795.9,63.8 L796.3,63.6 L796.7,63.5 L797.1,61.4 L797.5,58.9 L797.9,57.8 L798.3,57.3 L798.7,56.6 L799.0,56.1 L799.4,56.0 L800.2,55.7 L800.6,55.3 L801.0,55.2 L801.4,55.1 L801.8,55.0 L802.9,55.0 L803.3,54.9 L804.1,54.8 L804.9,54.7 L805.3,54.6 L806.0,53.7 L806.4,53.1 L806.8,52.9 L809.1,52.8 L809.5,52.3 L809.9,52.2 L810.3,51.6 L810.7,51.6 L811.1,51.4 L811.5,51.3 L811.8,50.3 L812.2,49.4 L812.6,49.0 L813.0,47.0 L813.4,46.8 L814.2,46.7 L814.6,46.6 L815.7,46.4 L816.1,45.7 L816.5,45.5 L816.9,45.3 L817.3,43.8 L817.7,39.8 L818.1,38.2 L818.4,37.8 L818.8,37.3 L819.2,36.6 L819.6,36.5 L820.0,36.3 L820.0,160.0 Z"/>
  <polyline class="line" points="60.0,160.0 181.5,159.7 181.9,159.6 183.0,159.5 201.7,159.4 202.1,159.0 202.5,158.9 202.8,158.6 203.2,158.6 203.6,158.4 204.4,158.1 204.8,157.9 205.2,157.8 205.6,157.7 207.1,157.5 207.5,157.5 207.9,157.4 211.8,157.3 221.9,157.1 275.0,157.1 275.4,156.5 277.0,156.4 277.8,155.9 283.6,155.8 284.4,155.6 284.7,155.4 285.1,155.3 285.9,155.1 286.3,154.7 286.7,154.0 287.1,153.9 288.6,153.6 289.4,153.6 291.3,153.4 296.8,153.2 307.3,153.0 313.1,152.9 315.8,152.8 316.2,152.7 316.6,152.5 317.0,152.3 318.1,151.8 318.5,151.7 318.9,151.7 320.4,151.4 320.8,151.1 321.2,151.0 321.6,150.4 322.0,149.9 322.4,149.7 322.8,149.5 323.6,149.4 325.1,149.3 329.4,149.1 340.6,149.0 341.0,148.7 341.4,148.6 345.3,148.0 345.7,146.5 346.8,146.3 347.2,146.3 349.2,146.1 362.4,145.8 362.8,145.7 363.1,145.6 363.9,145.4 366.6,145.2 367.4,144.9 367.8,144.7 369.7,144.6 379.1,144.4 570.0,144.3 570.8,144.2 571.6,144.1 572.4,144.0 572.7,143.9 573.1,143.8 573.5,143.8 573.9,143.7 577.8,143.6 588.7,143.6 591.8,143.5 592.9,143.4 595.3,143.4 597.6,143.3 598.0,143.2 599.5,143.2 600.7,143.1 601.5,143.0 630.2,143.0 630.6,142.8 631.4,142.8 631.7,142.7 632.9,142.5 634.9,142.4 640.3,142.3 651.5,141.7 651.9,141.5 657.0,141.3 657.4,141.2 658.5,141.1 660.1,140.9 662.0,140.2 662.4,138.4 662.8,138.3 665.1,138.2 666.3,138.1 666.7,138.0 667.5,137.8 670.6,137.7 673.3,137.2 675.2,136.7 675.6,136.5 676.8,136.2 677.2,135.4 677.5,135.2 677.9,134.9 678.3,134.7 678.7,134.4 679.5,133.9 680.7,133.5 694.6,133.3 695.4,132.4 703.9,132.2 709.0,131.9 711.3,131.9 711.7,131.8 714.0,131.7 714.4,131.7 714.8,131.6 715.2,131.4 715.6,131.1 716.0,130.5 716.4,130.4 718.7,129.4 719.1,129.3 719.9,129.1 722.6,128.8 723.4,128.7 723.7,128.5 724.5,128.5 724.9,128.0 725.3,127.9 726.1,127.8 726.5,127.6 726.8,127.6 727.2,127.5 728.8,127.1 729.2,127.0 729.6,126.8 729.9,126.7 730.3,126.6 730.7,126.4 731.9,126.1 732.3,125.9 732.7,125.8 733.1,125.6 733.4,125.2 734.2,125.1 734.6,124.4 735.0,124.1 735.4,122.8 735.8,122.5 736.2,122.2 736.5,121.5 736.9,121.4 737.3,121.2 737.7,121.1 738.1,120.7 740.0,120.0 740.4,119.8 740.8,119.2 741.2,118.1 741.6,118.0 742.4,117.9 742.8,116.9 743.1,116.4 743.5,116.3 743.9,115.3 744.7,115.0 745.1,114.9 745.5,114.8 745.9,114.7 746.3,114.6 746.6,114.6 748.2,114.4 749.0,114.3 749.4,113.8 749.7,113.5 750.9,113.5 752.8,113.3 755.2,113.1 755.6,112.9 756.0,112.9 756.3,112.5 756.7,111.6 757.1,111.5 757.5,111.4 757.9,111.3 758.3,111.1 758.7,110.6 762.9,110.5 763.3,110.4 766.8,109.9 767.6,109.5 768.0,109.4 768.4,109.1 768.8,109.0 769.9,108.8 770.3,107.9 770.7,105.5 771.1,103.5 771.5,103.4 771.9,103.1 772.6,102.8 773.0,102.5 773.4,102.1 774.2,102.0 774.6,101.4 775.0,101.3 775.8,100.4 776.1,100.3 776.5,99.8 776.9,99.5 777.3,99.1 777.7,99.0 778.9,98.4 779.2,98.1 779.6,96.6 780.0,94.4 780.4,93.6 780.8,92.6 781.2,92.5 781.6,92.1 782.0,91.9 782.3,91.4 782.7,90.6 783.1,90.6 783.5,90.1 783.9,90.0 784.3,89.5 784.7,89.0 785.1,88.4 785.5,87.8 785.8,87.7 786.2,87.5 786.6,86.4 787.0,84.4 787.4,84.1 788.2,83.7 788.6,83.5 788.9,83.4 789.3,80.2 789.7,78.8 790.1,77.3 790.5,76.8 790.9,74.4 791.3,74.1 791.7,74.0 792.1,73.5 792.4,72.4 792.8,70.4 793.2,68.2 793.6,68.1 794.0,67.6 794.8,67.5 795.2,66.2 795.5,65.2 795.9,63.8 796.3,63.6 796.7,63.5 797.1,61.4 797.5,58.9 797.9,57.8 798.3,57.3 798.7,56.6 799.0,56.1 799.4,56.0 800.2,55.7 800.6,55.3 801.0,55.2 801.4,55.1 801.8,55.0 802.9,55.0 803.3,54.9 804.1,54.8 804.9,54.7 805.3,54.6 806.0,53.7 806.4,53.1 806.8,52.9 809.1,52.8 809.5,52.3 809.9,52.2 810.3,51.6 810.7,51.6 811.1,51.4 811.5,51.3 811.8,50.3 812.2,49.4 812.6,49.0 813.0,47.0 813.4,46.8 814.2,46.7 814.6,46.6 815.7,46.4 816.1,45.7 816.5,45.5 816.9,45.3 817.3,43.8 817.7,39.8 818.1,38.2 818.4,37.8 818.8,37.3 819.2,36.6 819.6,36.5 820.0,36.3"/>

  <g class="hoverpoint">
    <line x1="183.0" y1="30" x2="183.0" y2="160.0" class="guide"/>
    <circle cx="183.0" cy="159.5" r="16" class="hit"/>
    <circle cx="183.0" cy="159.5" r="4" class="hover-dot"><title>Nov 2021: 7 total (+7 this month)</title></circle>
    <rect x="113.0" y="133.5" width="140" height="20" rx="4" class="tooltip-bg"/>
    <text x="183.0" y="147.5" class="tooltip-text" text-anchor="middle">Nov 2021: 7 total (+7 this month)</text>
  </g>
  <g class="hoverpoint">
    <line x1="211.8" y1="30" x2="211.8" y2="160.0" class="guide"/>
    <circle cx="211.8" cy="157.3" r="16" class="hit"/>
    <circle cx="211.8" cy="157.3" r="4" class="hover-dot"><title>Jan 2022: 41 total (+34 this month)</title></circle>
    <rect x="141.8" y="131.3" width="140" height="20" rx="4" class="tooltip-bg"/>
    <text x="211.8" y="145.3" class="tooltip-text" text-anchor="middle">Jan 2022: 41 total (+34 this month)</text>
  </g>
  <g class="hoverpoint">
    <line x1="221.9" y1="30" x2="221.9" y2="160.0" class="guide"/>
    <circle cx="221.9" cy="157.1" r="16" class="hit"/>
    <circle cx="221.9" cy="157.1" r="4" class="hover-dot"><title>Feb 2022: 44 total (+3 this month)</title></circle>
    <rect x="151.9" y="131.1" width="140" height="20" rx="4" class="tooltip-bg"/>
    <text x="221.9" y="145.1" class="tooltip-text" text-anchor="middle">Feb 2022: 44 total (+3 this month)</text>
  </g>
  <g class="hoverpoint">
    <line x1="283.6" y1="30" x2="283.6" y2="160.0" class="guide"/>
    <circle cx="283.6" cy="155.8" r="16" class="hit"/>
    <circle cx="283.6" cy="155.8" r="4" class="hover-dot"><title>Jul 2022: 65 total (+21 this month)</title></circle>
    <rect x="213.6" y="129.8" width="140" height="20" rx="4" class="tooltip-bg"/>
    <text x="283.6" y="143.8" class="tooltip-text" text-anchor="middle">Jul 2022: 65 total (+21 this month)</text>
  </g>
  <g class="hoverpoint">
    <line x1="291.3" y1="30" x2="291.3" y2="160.0" class="guide"/>
    <circle cx="291.3" cy="153.4" r="16" class="hit"/>
    <circle cx="291.3" cy="153.4" r="4" class="hover-dot"><title>Aug 2022: 101 total (+36 this month)</title></circle>
    <rect x="221.3" y="127.4" width="140" height="20" rx="4" class="tooltip-bg"/>
    <text x="291.3" y="141.4" class="tooltip-text" text-anchor="middle">Aug 2022: 101 total (+36 this month)</text>
  </g>
  <g class="hoverpoint">
    <line x1="307.3" y1="30" x2="307.3" y2="160.0" class="guide"/>
    <circle cx="307.3" cy="153.0" r="16" class="hit"/>
    <circle cx="307.3" cy="153.0" r="4" class="hover-dot"><title>Sep 2022: 108 total (+7 this month)</title></circle>
    <rect x="237.3" y="127.0" width="140" height="20" rx="4" class="tooltip-bg"/>
    <text x="307.3" y="141.0" class="tooltip-text" text-anchor="middle">Sep 2022: 108 total (+7 this month)</text>
  </g>
  <g class="hoverpoint">
    <line x1="318.9" y1="30" x2="318.9" y2="160.0" class="guide"/>
    <circle cx="318.9" cy="151.7" r="16" class="hit"/>
    <circle cx="318.9" cy="151.7" r="4" class="hover-dot"><title>Oct 2022: 128 total (+20 this month)</title></circle>
    <rect x="248.9" y="125.7" width="140" height="20" rx="4" class="tooltip-bg"/>
    <text x="318.9" y="139.7" class="tooltip-text" text-anchor="middle">Oct 2022: 128 total (+20 this month)</text>
  </g>
  <g class="hoverpoint">
    <line x1="329.4" y1="30" x2="329.4" y2="160.0" class="guide"/>
    <circle cx="329.4" cy="149.1" r="16" class="hit"/>
    <circle cx="329.4" cy="149.1" r="4" class="hover-dot"><title>Nov 2022: 168 total (+40 this month)</title></circle>
    <rect x="259.4" y="123.1" width="140" height="20" rx="4" class="tooltip-bg"/>
    <text x="329.4" y="137.1" class="tooltip-text" text-anchor="middle">Nov 2022: 168 total (+40 this month)</text>
  </g>
  <g class="hoverpoint">
    <line x1="341.4" y1="30" x2="341.4" y2="160.0" class="guide"/>
    <circle cx="341.4" cy="148.6" r="16" class="hit"/>
    <circle cx="341.4" cy="148.6" r="4" class="hover-dot"><title>Dec 2022: 175 total (+7 this month)</title></circle>
    <rect x="271.4" y="122.6" width="140" height="20" rx="4" class="tooltip-bg"/>
    <text x="341.4" y="136.6" class="tooltip-text" text-anchor="middle">Dec 2022: 175 total (+7 this month)</text>
  </g>
  <g class="hoverpoint">
    <line x1="349.2" y1="30" x2="349.2" y2="160.0" class="guide"/>
    <circle cx="349.2" cy="146.1" r="16" class="hit"/>
    <circle cx="349.2" cy="146.1" r="4" class="hover-dot"><title>Jan 2023: 214 total (+39 this month)</title></circle>
    <rect x="279.2" y="120.1" width="140" height="20" rx="4" class="tooltip-bg"/>
    <text x="349.2" y="134.1" class="tooltip-text" text-anchor="middle">Jan 2023: 214 total (+39 this month)</text>
  </g>
  <g class="hoverpoint">
    <line x1="363.9" y1="30" x2="363.9" y2="160.0" class="guide"/>
    <circle cx="363.9" cy="145.4" r="16" class="hit"/>
    <circle cx="363.9" cy="145.4" r="4" class="hover-dot"><title>Feb 2023: 225 total (+11 this month)</title></circle>
    <rect x="293.9" y="119.4" width="140" height="20" rx="4" class="tooltip-bg"/>
    <text x="363.9" y="133.4" class="tooltip-text" text-anchor="middle">Feb 2023: 225 total (+11 this month)</text>
  </g>
  <g class="hoverpoint">
    <line x1="369.7" y1="30" x2="369.7" y2="160.0" class="guide"/>
    <circle cx="369.7" cy="144.6" r="16" class="hit"/>
    <circle cx="369.7" cy="144.6" r="4" class="hover-dot"><title>Mar 2023: 237 total (+12 this month)</title></circle>
    <rect x="299.7" y="118.6" width="140" height="20" rx="4" class="tooltip-bg"/>
    <text x="369.7" y="132.6" class="tooltip-text" text-anchor="middle">Mar 2023: 237 total (+12 this month)</text>
  </g>
  <g class="hoverpoint">
    <line x1="379.1" y1="30" x2="379.1" y2="160.0" class="guide"/>
    <circle cx="379.1" cy="144.4" r="16" class="hit"/>
    <circle cx="379.1" cy="144.4" r="4" class="hover-dot"><title>Apr 2023: 240 total (+3 this month)</title></circle>
    <rect x="309.1" y="118.4" width="140" height="20" rx="4" class="tooltip-bg"/>
    <text x="379.1" y="132.4" class="tooltip-text" text-anchor="middle">Apr 2023: 240 total (+3 this month)</text>
  </g>
  <g class="hoverpoint">
    <line x1="577.8" y1="30" x2="577.8" y2="160.0" class="guide"/>
    <circle cx="577.8" cy="143.6" r="16" class="hit"/>
    <circle cx="577.8" cy="143.6" r="4" class="hover-dot"><title>Aug 2024: 252 total (+12 this month)</title></circle>
    <rect x="507.8" y="117.6" width="140" height="20" rx="4" class="tooltip-bg"/>
    <text x="577.8" y="131.6" class="tooltip-text" text-anchor="middle">Aug 2024: 252 total (+12 this month)</text>
  </g>
  <g class="hoverpoint">
    <line x1="588.7" y1="30" x2="588.7" y2="160.0" class="guide"/>
    <circle cx="588.7" cy="143.6" r="16" class="hit"/>
    <circle cx="588.7" cy="143.6" r="4" class="hover-dot"><title>Sep 2024: 253 total (+1 this month)</title></circle>
    <rect x="518.7" y="117.6" width="140" height="20" rx="4" class="tooltip-bg"/>
    <text x="588.7" y="131.6" class="tooltip-text" text-anchor="middle">Sep 2024: 253 total (+1 this month)</text>
  </g>
  <g class="hoverpoint">
    <line x1="601.5" y1="30" x2="601.5" y2="160.0" class="guide"/>
    <circle cx="601.5" cy="143.0" r="16" class="hit"/>
    <circle cx="601.5" cy="143.0" r="4" class="hover-dot"><title>Oct 2024: 261 total (+8 this month)</title></circle>
    <rect x="531.5" y="117.0" width="140" height="20" rx="4" class="tooltip-bg"/>
    <text x="601.5" y="131.0" class="tooltip-text" text-anchor="middle">Oct 2024: 261 total (+8 this month)</text>
  </g>
  <g class="hoverpoint">
    <line x1="634.9" y1="30" x2="634.9" y2="160.0" class="guide"/>
    <circle cx="634.9" cy="142.4" r="16" class="hit"/>
    <circle cx="634.9" cy="142.4" r="4" class="hover-dot"><title>Jan 2025: 270 total (+9 this month)</title></circle>
    <rect x="564.9" y="116.4" width="140" height="20" rx="4" class="tooltip-bg"/>
    <text x="634.9" y="130.4" class="tooltip-text" text-anchor="middle">Jan 2025: 270 total (+9 this month)</text>
  </g>
  <g class="hoverpoint">
    <line x1="640.3" y1="30" x2="640.3" y2="160.0" class="guide"/>
    <circle cx="640.3" cy="142.3" r="16" class="hit"/>
    <circle cx="640.3" cy="142.3" r="4" class="hover-dot"><title>Feb 2025: 272 total (+2 this month)</title></circle>
    <rect x="570.3" y="116.3" width="140" height="20" rx="4" class="tooltip-bg"/>
    <text x="640.3" y="130.3" class="tooltip-text" text-anchor="middle">Feb 2025: 272 total (+2 this month)</text>
  </g>
  <g class="hoverpoint">
    <line x1="660.1" y1="30" x2="660.1" y2="160.0" class="guide"/>
    <circle cx="660.1" cy="140.9" r="16" class="hit"/>
    <circle cx="660.1" cy="140.9" r="4" class="hover-dot"><title>Mar 2025: 294 total (+22 this month)</title></circle>
    <rect x="590.1" y="114.9" width="140" height="20" rx="4" class="tooltip-bg"/>
    <text x="660.1" y="128.9" class="tooltip-text" text-anchor="middle">Mar 2025: 294 total (+22 this month)</text>
  </g>
  <g class="hoverpoint">
    <line x1="673.3" y1="30" x2="673.3" y2="160.0" class="guide"/>
    <circle cx="673.3" cy="137.2" r="16" class="hit"/>
    <circle cx="673.3" cy="137.2" r="4" class="hover-dot"><title>Apr 2025: 351 total (+57 this month)</title></circle>
    <rect x="603.3" y="111.2" width="140" height="20" rx="4" class="tooltip-bg"/>
    <text x="673.3" y="125.2" class="tooltip-text" text-anchor="middle">Apr 2025: 351 total (+57 this month)</text>
  </g>
  <g class="hoverpoint">
    <line x1="680.7" y1="30" x2="680.7" y2="160.0" class="guide"/>
    <circle cx="680.7" cy="133.5" r="16" class="hit"/>
    <circle cx="680.7" cy="133.5" r="4" class="hover-dot"><title>May 2025: 408 total (+57 this month)</title></circle>
    <rect x="610.7" y="107.5" width="140" height="20" rx="4" class="tooltip-bg"/>
    <text x="680.7" y="121.5" class="tooltip-text" text-anchor="middle">May 2025: 408 total (+57 this month)</text>
  </g>
  <g class="hoverpoint">
    <line x1="695.4" y1="30" x2="695.4" y2="160.0" class="guide"/>
    <circle cx="695.4" cy="132.4" r="16" class="hit"/>
    <circle cx="695.4" cy="132.4" r="4" class="hover-dot"><title>Jun 2025: 424 total (+16 this month)</title></circle>
    <rect x="625.4" y="106.4" width="140" height="20" rx="4" class="tooltip-bg"/>
    <text x="695.4" y="120.4" class="tooltip-text" text-anchor="middle">Jun 2025: 424 total (+16 this month)</text>
  </g>
  <g class="hoverpoint">
    <line x1="709.0" y1="30" x2="709.0" y2="160.0" class="guide"/>
    <circle cx="709.0" cy="131.9" r="16" class="hit"/>
    <circle cx="709.0" cy="131.9" r="4" class="hover-dot"><title>Jul 2025: 432 total (+8 this month)</title></circle>
    <rect x="639.0" y="105.9" width="140" height="20" rx="4" class="tooltip-bg"/>
    <text x="709.0" y="119.9" class="tooltip-text" text-anchor="middle">Jul 2025: 432 total (+8 this month)</text>
  </g>
  <g class="hoverpoint">
    <line x1="719.9" y1="30" x2="719.9" y2="160.0" class="guide"/>
    <circle cx="719.9" cy="129.1" r="16" class="hit"/>
    <circle cx="719.9" cy="129.1" r="4" class="hover-dot"><title>Aug 2025: 475 total (+43 this month)</title></circle>
    <rect x="649.9" y="103.1" width="140" height="20" rx="4" class="tooltip-bg"/>
    <text x="719.9" y="117.1" class="tooltip-text" text-anchor="middle">Aug 2025: 475 total (+43 this month)</text>
  </g>
  <g class="hoverpoint">
    <line x1="732.7" y1="30" x2="732.7" y2="160.0" class="guide"/>
    <circle cx="732.7" cy="125.8" r="16" class="hit"/>
    <circle cx="732.7" cy="125.8" r="4" class="hover-dot"><title>Sep 2025: 526 total (+51 this month)</title></circle>
    <rect x="662.7" y="99.8" width="140" height="20" rx="4" class="tooltip-bg"/>
    <text x="732.7" y="113.8" class="tooltip-text" text-anchor="middle">Sep 2025: 526 total (+51 this month)</text>
  </g>
  <g class="hoverpoint">
    <line x1="744.7" y1="30" x2="744.7" y2="160.0" class="guide"/>
    <circle cx="744.7" cy="115.0" r="16" class="hit"/>
    <circle cx="744.7" cy="115.0" r="4" class="hover-dot"><title>Oct 2025: 692 total (+166 this month)</title></circle>
    <rect x="674.7" y="89.0" width="140" height="20" rx="4" class="tooltip-bg"/>
    <text x="744.7" y="103.0" class="tooltip-text" text-anchor="middle">Oct 2025: 692 total (+166 this month)</text>
  </g>
  <g class="hoverpoint">
    <line x1="756.3" y1="30" x2="756.3" y2="160.0" class="guide"/>
    <circle cx="756.3" cy="112.5" r="16" class="hit"/>
    <circle cx="756.3" cy="112.5" r="4" class="hover-dot"><title>Nov 2025: 731 total (+39 this month)</title></circle>
    <rect x="686.3" y="86.5" width="140" height="20" rx="4" class="tooltip-bg"/>
    <text x="756.3" y="100.5" class="tooltip-text" text-anchor="middle">Nov 2025: 731 total (+39 this month)</text>
  </g>
  <g class="hoverpoint">
    <line x1="768.4" y1="30" x2="768.4" y2="160.0" class="guide"/>
    <circle cx="768.4" cy="109.1" r="16" class="hit"/>
    <circle cx="768.4" cy="109.1" r="4" class="hover-dot"><title>Dec 2025: 783 total (+52 this month)</title></circle>
    <rect x="698.4" y="83.1" width="140" height="20" rx="4" class="tooltip-bg"/>
    <text x="768.4" y="97.1" class="tooltip-text" text-anchor="middle">Dec 2025: 783 total (+52 this month)</text>
  </g>
  <g class="hoverpoint">
    <line x1="780.4" y1="30" x2="780.4" y2="160.0" class="guide"/>
    <circle cx="780.4" cy="93.6" r="16" class="hit"/>
    <circle cx="780.4" cy="93.6" r="4" class="hover-dot"><title>Jan 2026: 1,022 total (+239 this month)</title></circle>
    <rect x="710.4" y="67.6" width="140" height="20" rx="4" class="tooltip-bg"/>
    <text x="780.4" y="81.6" class="tooltip-text" text-anchor="middle">Jan 2026: 1,022 total (+239 this month)</text>
  </g>
  <g class="hoverpoint">
    <line x1="791.3" y1="30" x2="791.3" y2="160.0" class="guide"/>
    <circle cx="791.3" cy="74.1" r="16" class="hit"/>
    <circle cx="791.3" cy="74.1" r="4" class="hover-dot"><title>Feb 2026: 1,321 total (+299 this month)</title></circle>
    <rect x="721.3" y="48.1" width="140" height="20" rx="4" class="tooltip-bg"/>
    <text x="791.3" y="62.1" class="tooltip-text" text-anchor="middle">Feb 2026: 1,321 total (+299 this month)</text>
  </g>
  <g class="hoverpoint">
    <line x1="803.3" y1="30" x2="803.3" y2="160.0" class="guide"/>
    <circle cx="803.3" cy="54.9" r="16" class="hit"/>
    <circle cx="803.3" cy="54.9" r="4" class="hover-dot"><title>Mar 2026: 1,617 total (+296 this month)</title></circle>
    <rect x="733.3" y="28.9" width="140" height="20" rx="4" class="tooltip-bg"/>
    <text x="803.3" y="42.9" class="tooltip-text" text-anchor="middle">Mar 2026: 1,617 total (+296 this month)</text>
  </g>
  <g class="hoverpoint">
    <line x1="814.6" y1="30" x2="814.6" y2="160.0" class="guide"/>
    <circle cx="814.6" cy="46.6" r="16" class="hit"/>
    <circle cx="814.6" cy="46.6" r="4" class="hover-dot"><title>Apr 2026: 1,744 total (+127 this month)</title></circle>
    <rect x="744.6" y="20.6" width="140" height="20" rx="4" class="tooltip-bg"/>
    <text x="814.6" y="34.6" class="tooltip-text" text-anchor="middle">Apr 2026: 1,744 total (+127 this month)</text>
  </g>
  <g class="hoverpoint">
    <line x1="820.0" y1="30" x2="820.0" y2="160.0" class="guide"/>
    <circle cx="820.0" cy="36.3" r="16" class="hit"/>
    <circle cx="820.0" cy="36.3" r="4" class="hover-dot"><title>May 2026: 1,903 total (+159 this month)</title></circle>
    <rect x="750.0" y="10.3" width="140" height="20" rx="4" class="tooltip-bg"/>
    <text x="820.0" y="24.3" class="tooltip-text" text-anchor="middle">May 2026: 1,903 total (+159 this month)</text>
  </g>

  <circle cx="820.0" cy="36.3" r="4" class="dot"/>
  <text x="810.0" y="26.3" class="total">1,903</text>

</svg>