<svg xmlns="http://www.w3.org/2000/svg" width="840" height="196" viewBox="0 0 840 196" fill="none">
  <style>
    .label { font-family: -apple-system, BlinkMacSystemFont, 'Segoe UI', Helvetica, Arial, sans-serif; font-size: 10px; fill: #8b949e; }
    .title { font-family: -apple-system, BlinkMacSystemFont, 'Segoe UI', Helvetica, Arial, sans-serif; font-size: 11px; fill: #8b949e; font-weight: 600; }
    .total { font-family: -apple-system, BlinkMacSystemFont, 'Segoe UI', Helvetica, Arial, sans-serif; font-size: 11px; fill: #7ee787; font-weight: 600; }
    .grid { stroke: #21262d; stroke-width: 1; }
    .line { stroke: #7ee787; stroke-width: 2; stroke-linecap: round; stroke-linejoin: round; fill: none; }
    .dot { fill: #7ee787; }
    .area { fill: url(#areaGrad); }
    /* Hover interaction */
    .hoverpoint .guide { stroke: #7ee787; stroke-width: 1; stroke-dasharray: 2,2; opacity: 0; }
    .hoverpoint .hover-dot { fill: #7ee787; opacity: 0; }
    .hoverpoint .hit { fill: transparent; cursor: pointer; }
    .hoverpoint .tooltip-bg { fill: #161b22; stroke: #30363d; stroke-width: 1; opacity: 0; }
    .hoverpoint .tooltip-text { font-family: -apple-system, BlinkMacSystemFont, 'Segoe UI', Helvetica, Arial, sans-serif; font-size: 9px; fill: #c9d1d9; opacity: 0; }
    .hoverpoint:hover .guide { opacity: 0.5; }
    .hoverpoint:hover .hover-dot { opacity: 1; }
    .hoverpoint:hover .tooltip-bg { opacity: 0.95; }
    .hoverpoint:hover .tooltip-text { opacity: 1; }
  </style>
  <defs>
    <linearGradient id="areaGrad" x1="0" y1="0" x2="0" y2="1">
      <stop offset="0%" stop-color="#7ee787" stop-opacity="0.15"/>
      <stop offset="100%" stop-color="#7ee787" stop-opacity="0.01"/>
    </linearGradient>
  </defs>

  <text x="60" y="18" class="title">Cumulative Commits</text>

  <line x1="60" y1="160.0" x2="820" y2="160.0" class="grid"/>
  <text x="50" y="163.0" class="label" text-anchor="end">0</text>
  <line x1="60" y1="127.5" x2="820" y2="127.5" class="grid" stroke-dasharray="3,3"/>
  <text x="50" y="130.5" class="label" text-anchor="end">500</text>
  <line x1="60" y1="95.0" x2="820" y2="95.0" class="grid" stroke-dasharray="3,3"/>
  <text x="50" y="98.0" class="label" text-anchor="end">1,000</text>
  <line x1="60" y1="62.5" x2="820" y2="62.5" class="grid" stroke-dasharray="3,3"/>
  <text x="50" y="65.5" class="label" text-anchor="end">1,500</text>
  <line x1="60" y1="30.0" x2="820" y2="30.0" class="grid" stroke-dasharray="3,3"/>
  <text x="50" y="33.0" class="label" text-anchor="end">2,000</text>

  <text x="70.0" y="186" class="label" text-anchor="middle">2021</text>
  <text x="203.1" y="186" class="label" text-anchor="middle">2022</text>
  <text x="346.1" y="186" class="label" text-anchor="middle">2023</text>
  <text x="489.2" y="186" class="label" text-anchor="middle">2024</text>
  <text x="632.6" y="186" class="label" text-anchor="middle">2025</text>
  <text x="775.7" y="186" class="label" text-anchor="middle">2026</text>


  <path class="area" d="M60.0,160.0 L60.0,160.0 60.0,160.0 L182.7,159.7 L183.1,159.6 L184.2,159.5 L203.1,159.4 L203.5,159.0 L203.8,158.9 L204.2,158.6 L204.6,158.6 L205.0,158.4 L205.8,158.1 L206.2,157.9 L206.6,157.8 L207.0,157.7 L208.6,157.5 L208.9,157.5 L209.3,157.4 L213.3,157.3 L223.4,157.1 L277.1,157.1 L277.5,156.5 L279.1,156.4 L279.9,155.9 L285.8,155.8 L286.5,155.6 L286.9,155.4 L287.3,155.3 L288.1,155.1 L288.5,154.7 L288.9,154.0 L289.3,153.9 L290.9,153.6 L291.6,153.6 L293.6,153.4 L299.1,153.2 L309.7,153.0 L315.6,152.9 L318.3,152.8 L318.7,152.7 L319.1,152.5 L319.5,152.3 L320.6,151.8 L321.0,151.7 L321.4,151.7 L323.0,151.4 L323.4,151.1 L323.8,151.0 L324.2,150.4 L324.6,149.9 L325.0,149.7 L325.4,149.5 L326.1,149.4 L327.7,149.3 L332.0,149.1 L343.4,149.0 L343.8,148.7 L344.2,148.6 L348.1,148.0 L348.5,146.5 L349.7,146.3 L350.0,146.3 L352.0,146.1 L365.3,145.8 L365.7,145.7 L366.1,145.6 L366.9,145.4 L369.6,145.2 L370.4,144.9 L370.8,144.7 L372.8,144.6 L382.2,144.4 L575.0,144.3 L575.8,144.2 L576.6,144.1 L577.4,144.0 L577.8,143.9 L578.2,143.8 L578.6,143.8 L578.9,143.7 L582.9,143.6 L593.8,143.6 L597.0,143.5 L598.2,143.4 L600.5,143.4 L602.9,143.3 L603.2,143.2 L604.8,143.2 L606.0,143.1 L606.8,143.0 L635.8,143.0 L636.2,142.8 L637.0,142.8 L637.3,142.7 L638.5,142.5 L640.5,142.4 L646.0,142.3 L657.3,141.7 L657.7,141.5 L662.8,141.3 L663.2,141.2 L664.4,141.1 L666.0,140.9 L667.9,140.2 L668.3,138.4 L668.7,138.3 L671.1,138.2 L672.2,138.1 L672.6,138.0 L673.4,137.8 L676.5,137.7 L679.3,137.2 L681.2,136.7 L681.6,136.5 L682.8,136.2 L683.2,135.4 L683.6,135.2 L684.0,134.9 L684.4,134.7 L684.8,134.4 L685.6,133.9 L686.7,133.5 L700.8,133.3 L701.6,132.4 L710.3,132.2 L715.3,131.9 L717.7,131.9 L718.1,131.8 L720.4,131.7 L720.8,131.7 L721.2,131.6 L721.6,131.4 L722.0,131.1 L722.4,130.5 L722.8,130.4 L725.1,129.4 L725.5,129.3 L726.3,129.1 L729.1,128.8 L729.9,128.7 L730.2,128.5 L731.0,128.5 L731.4,128.0 L731.8,127.9 L732.6,127.8 L733.0,127.6 L733.4,127.6 L733.8,127.5 L735.3,127.1 L735.7,127.0 L736.1,126.8 L736.5,126.7 L736.9,126.6 L737.3,126.4 L738.5,126.1 L738.9,125.9 L739.3,125.8 L739.6,125.6 L740.0,125.2 L740.8,125.1 L741.2,124.4 L741.6,124.1 L742.0,122.8 L742.4,122.5 L742.8,122.2 L743.2,121.5 L743.6,121.4 L744.0,121.2 L744.4,121.1 L744.7,120.7 L746.7,120.0 L747.1,119.8 L747.5,119.2 L747.9,118.1 L748.3,118.0 L749.1,117.9 L749.4,116.9 L749.8,116.4 L750.2,116.3 L750.6,115.3 L751.4,115.0 L751.8,114.9 L752.2,114.8 L752.6,114.7 L753.0,114.6 L753.4,114.6 L754.9,114.4 L755.7,114.3 L756.1,113.8 L756.5,113.5 L757.7,113.5 L759.6,113.3 L762.0,113.1 L762.4,112.9 L762.8,112.9 L763.2,112.5 L763.6,111.6 L764.0,111.5 L764.3,111.4 L764.7,111.3 L765.1,111.1 L765.5,110.6 L769.8,110.5 L770.2,110.4 L773.7,109.9 L774.5,109.5 L774.9,109.4 L775.3,109.1 L775.7,109.0 L776.9,108.8 L777.3,107.9 L777.7,105.5 L778.1,103.5 L778.5,103.4 L778.8,103.1 L779.6,102.8 L780.0,102.5 L780.4,102.1 L781.2,102.0 L781.6,101.4 L782.0,101.3 L782.8,100.4 L783.2,100.3 L783.5,99.8 L783.9,99.5 L784.3,99.1 L784.7,99.0 L785.9,98.4 L786.3,98.1 L786.7,96.6 L787.1,94.4 L787.5,93.6 L787.9,92.6 L788.3,92.5 L788.6,92.1 L789.0,91.9 L789.4,91.4 L789.8,90.6 L790.2,90.6 L790.6,90.1 L791.0,90.0 L791.4,89.5 L791.8,89.0 L792.2,88.4 L792.6,87.8 L793.0,87.7 L793.3,87.5 L793.7,86.4 L794.1,84.4 L794.5,84.1 L795.3,83.7 L795.7,83.5 L796.1,83.4 L796.5,80.2 L796.9,78.8 L797.3,77.3 L797.7,76.8 L798.1,74.4 L798.4,74.1 L798.8,74.0 L799.2,73.5 L799.6,72.4 L800.0,70.4 L800.4,68.2 L800.8,68.1 L801.2,67.6 L802.0,67.5 L802.4,66.2 L802.8,65.2 L803.1,63.8 L803.5,63.6 L803.9,63.5 L804.3,61.4 L804.7,58.9 L805.1,57.8 L805.5,57.3 L805.9,56.6 L806.3,56.1 L806.7,56.0 L807.5,55.7 L807.8,55.3 L808.2,55.2 L808.6,55.1 L809.0,55.0 L810.2,55.0 L810.6,54.9 L811.4,54.8 L812.2,54.7 L812.6,54.6 L813.3,53.7 L813.7,53.1 L814.1,52.9 L816.5,52.8 L816.9,52.3 L817.3,52.2 L817.6,51.6 L818.0,51.6 L818.4,51.4 L818.8,51.3 L819.2,50.3 L819.6,50.2 L820.0,50.2 L820.0,160.0 Z"/>
  <polyline class="line" points="60.0,160.0 182.7,159.7 183.1,159.6 184.2,159.5 203.1,159.4 203.5,159.0 203.8,158.9 204.2,158.6 204.6,158.6 205.0,158.4 205.8,158.1 206.2,157.9 206.6,157.8 207.0,157.7 208.6,157.5 208.9,157.5 209.3,157.4 213.3,157.3 223.4,157.1 277.1,157.1 277.5,156.5 279.1,156.4 279.9,155.9 285.8,155.8 286.5,155.6 286.9,155.4 287.3,155.3 288.1,155.1 288.5,154.7 288.9,154.0 289.3,153.9 290.9,153.6 291.6,153.6 293.6,153.4 299.1,153.2 309.7,153.0 315.6,152.9 318.3,152.8 318.7,152.7 319.1,152.5 319.5,152.3 320.6,151.8 321.0,151.7 321.4,151.7 323.0,151.4 323.4,151.1 323.8,151.0 324.2,150.4 324.6,149.9 325.0,149.7 325.4,149.5 326.1,149.4 327.7,149.3 332.0,149.1 343.4,149.0 343.8,148.7 344.2,148.6 348.1,148.0 348.5,146.5 349.7,146.3 350.0,146.3 352.0,146.1 365.3,145.8 365.7,145.7 366.1,145.6 366.9,145.4 369.6,145.2 370.4,144.9 370.8,144.7 372.8,144.6 382.2,144.4 575.0,144.3 575.8,144.2 576.6,144.1 577.4,144.0 577.8,143.9 578.2,143.8 578.6,143.8 578.9,143.7 582.9,143.6 593.8,143.6 597.0,143.5 598.2,143.4 600.5,143.4 602.9,143.3 603.2,143.2 604.8,143.2 606.0,143.1 606.8,143.0 635.8,143.0 636.2,142.8 637.0,142.8 637.3,142.7 638.5,142.5 640.5,142.4 646.0,142.3 657.3,141.7 657.7,141.5 662.8,141.3 663.2,141.2 664.4,141.1 666.0,140.9 667.9,140.2 668.3,138.4 668.7,138.3 671.1,138.2 672.2,138.1 672.6,138.0 673.4,137.8 676.5,137.7 679.3,137.2 681.2,136.7 681.6,136.5 682.8,136.2 683.2,135.4 683.6,135.2 684.0,134.9 684.4,134.7 684.8,134.4 685.6,133.9 686.7,133.5 700.8,133.3 701.6,132.4 710.3,132.2 715.3,131.9 717.7,131.9 718.1,131.8 720.4,131.7 720.8,131.7 721.2,131.6 721.6,131.4 722.0,131.1 722.4,130.5 722.8,130.4 725.1,129.4 725.5,129.3 726.3,129.1 729.1,128.8 729.9,128.7 730.2,128.5 731.0,128.5 731.4,128.0 731.8,127.9 732.6,127.8 733.0,127.6 733.4,127.6 733.8,127.5 735.3,127.1 735.7,127.0 736.1,126.8 736.5,126.7 736.9,126.6 737.3,126.4 738.5,126.1 738.9,125.9 739.3,125.8 739.6,125.6 740.0,125.2 740.8,125.1 741.2,124.4 741.6,124.1 742.0,122.8 742.4,122.5 742.8,122.2 743.2,121.5 743.6,121.4 744.0,121.2 744.4,121.1 744.7,120.7 746.7,120.0 747.1,119.8 747.5,119.2 747.9,118.1 748.3,118.0 749.1,117.9 749.4,116.9 749.8,116.4 750.2,116.3 750.6,115.3 751.4,115.0 751.8,114.9 752.2,114.8 752.6,114.7 753.0,114.6 753.4,114.6 754.9,114.4 755.7,114.3 756.1,113.8 756.5,113.5 757.7,113.5 759.6,113.3 762.0,113.1 762.4,112.9 762.8,112.9 763.2,112.5 763.6,111.6 764.0,111.5 764.3,111.4 764.7,111.3 765.1,111.1 765.5,110.6 769.8,110.5 770.2,110.4 773.7,109.9 774.5,109.5 774.9,109.4 775.3,109.1 775.7,109.0 776.9,108.8 777.3,107.9 777.7,105.5 778.1,103.5 778.5,103.4 778.8,103.1 779.6,102.8 780.0,102.5 780.4,102.1 781.2,102.0 781.6,101.4 782.0,101.3 782.8,100.4 783.2,100.3 783.5,99.8 783.9,99.5 784.3,99.1 784.7,99.0 785.9,98.4 786.3,98.1 786.7,96.6 787.1,94.4 787.5,93.6 787.9,92.6 788.3,92.5 788.6,92.1 789.0,91.9 789.4,91.4 789.8,90.6 790.2,90.6 790.6,90.1 791.0,90.0 791.4,89.5 791.8,89.0 792.2,88.4 792.6,87.8 793.0,87.7 793.3,87.5 793.7,86.4 794.1,84.4 794.5,84.1 795.3,83.7 795.7,83.5 796.1,83.4 796.5,80.2 796.9,78.8 797.3,77.3 797.7,76.8 798.1,74.4 798.4,74.1 798.8,74.0 799.2,73.5 799.6,72.4 800.0,70.4 800.4,68.2 800.8,68.1 801.2,67.6 802.0,67.5 802.4,66.2 802.8,65.2 803.1,63.8 803.5,63.6 803.9,63.5 804.3,61.4 804.7,58.9 805.1,57.8 805.5,57.3 805.9,56.6 806.3,56.1 806.7,56.0 807.5,55.7 807.8,55.3 808.2,55.2 808.6,55.1 809.0,55.0 810.2,55.0 810.6,54.9 811.4,54.8 812.2,54.7 812.6,54.6 813.3,53.7 813.7,53.1 814.1,52.9 816.5,52.8 816.9,52.3 817.3,52.2 817.6,51.6 818.0,51.6 818.4,51.4 818.8,51.3 819.2,50.3 819.6,50.2 820.0,50.2"/>

  <g class="hoverpoint">
    <line x1="184.2" y1="30" x2="184.2" y2="160.0" class="guide"/>
    <circle cx="184.2" cy="159.5" r="16" class="hit"/>
    <circle cx="184.2" cy="159.5" r="4" class="hover-dot"><title>Nov 2021: 7 total (+7 this month)</title></circle>
    <rect x="114.2" y="133.5" width="140" height="20" rx="4" class="tooltip-bg"/>
    <text x="184.2" y="147.5" class="tooltip-text" text-anchor="middle">Nov 2021: 7 total (+7 this month)</text>
  </g>
  <g class="hoverpoint">
    <line x1="213.3" y1="30" x2="213.3" y2="160.0" class="guide"/>
    <circle cx="213.3" cy="157.3" r="16" class="hit"/>
    <circle cx="213.3" cy="157.3" r="4" class="hover-dot"><title>Jan 2022: 41 total (+34 this month)</title></circle>
    <rect x="143.3" y="131.3" width="140" height="20" rx="4" class="tooltip-bg"/>
    <text x="213.3" y="145.3" class="tooltip-text" text-anchor="middle">Jan 2022: 41 total (+34 this month)</text>
  </g>
  <g class="hoverpoint">
    <line x1="223.4" y1="30" x2="223.4" y2="160.0" class="guide"/>
    <circle cx="223.4" cy="157.1" r="16" class="hit"/>
    <circle cx="223.4" cy="157.1" r="4" class="hover-dot"><title>Feb 2022: 44 total (+3 this month)</title></circle>
    <rect x="153.4" y="131.1" width="140" height="20" rx="4" class="tooltip-bg"/>
    <text x="223.4" y="145.1" class="tooltip-text" text-anchor="middle">Feb 2022: 44 total (+3 this month)</text>
  </g>
  <g class="hoverpoint">
    <line x1="285.8" y1="30" x2="285.8" y2="160.0" class="guide"/>
    <circle cx="285.8" cy="155.8" r="16" class="hit"/>
    <circle cx="285.8" cy="155.8" r="4" class="hover-dot"><title>Jul 2022: 65 total (+21 this month)</title></circle>
    <rect x="215.8" y="129.8" width="140" height="20" rx="4" class="tooltip-bg"/>
    <text x="285.8" y="143.8" class="tooltip-text" text-anchor="middle">Jul 2022: 65 total (+21 this month)</text>
  </g>
  <g class="hoverpoint">
    <line x1="293.6" y1="30" x2="293.6" y2="160.0" class="guide"/>
    <circle cx="293.6" cy="153.4" r="16" class="hit"/>
    <circle cx="293.6" cy="153.4" r="4" class="hover-dot"><title>Aug 2022: 101 total (+36 this month)</title></circle>
    <rect x="223.6" y="127.4" width="140" height="20" rx="4" class="tooltip-bg"/>
    <text x="293.6" y="141.4" class="tooltip-text" text-anchor="middle">Aug 2022: 101 total (+36 this month)</text>
  </g>
  <g class="hoverpoint">
    <line x1="309.7" y1="30" x2="309.7" y2="160.0" class="guide"/>
    <circle cx="309.7" cy="153.0" r="16" class="hit"/>
    <circle cx="309.7" cy="153.0" r="4" class="hover-dot"><title>Sep 2022: 108 total (+7 this month)</title></circle>
    <rect x="239.7" y="127.0" width="140" height="20" rx="4" class="tooltip-bg"/>
    <text x="309.7" y="141.0" class="tooltip-text" text-anchor="middle">Sep 2022: 108 total (+7 this month)</text>
  </g>
  <g class="hoverpoint">
    <line x1="321.4" y1="30" x2="321.4" y2="160.0" class="guide"/>
    <circle cx="321.4" cy="151.7" r="16" class="hit"/>
    <circle cx="321.4" cy="151.7" r="4" class="hover-dot"><title>Oct 2022: 128 total (+20 this month)</title></circle>
    <rect x="251.4" y="125.7" width="140" height="20" rx="4" class="tooltip-bg"/>
    <text x="321.4" y="139.7" class="tooltip-text" text-anchor="middle">Oct 2022: 128 total (+20 this month)</text>
  </g>
  <g class="hoverpoint">
    <line x1="332.0" y1="30" x2="332.0" y2="160.0" class="guide"/>
    <circle cx="332.0" cy="149.1" r="16" class="hit"/>
    <circle cx="332.0" cy="149.1" r="4" class="hover-dot"><title>Nov 2022: 168 total (+40 this month)</title></circle>
    <rect x="262.0" y="123.1" width="140" height="20" rx="4" class="tooltip-bg"/>
    <text x="332.0" y="137.1" class="tooltip-text" text-anchor="middle">Nov 2022: 168 total (+40 this month)</text>
  </g>
  <g class="hoverpoint">
    <line x1="344.2" y1="30" x2="344.2" y2="160.0" class="guide"/>
    <circle cx="344.2" cy="148.6" r="16" class="hit"/>
    <circle cx="344.2" cy="148.6" r="4" class="hover-dot"><title>Dec 2022: 175 total (+7 this month)</title></circle>
    <rect x="274.2" y="122.6" width="140" height="20" rx="4" class="tooltip-bg"/>
    <text x="344.2" y="136.6" class="tooltip-text" text-anchor="middle">Dec 2022: 175 total (+7 this month)</text>
  </g>
  <g class="hoverpoint">
    <line x1="352.0" y1="30" x2="352.0" y2="160.0" class="guide"/>
    <circle cx="352.0" cy="146.1" r="16" class="hit"/>
    <circle cx="352.0" cy="146.1" r="4" class="hover-dot"><title>Jan 2023: 214 total (+39 this month)</title></circle>
    <rect x="282.0" y="120.1" width="140" height="20" rx="4" class="tooltip-bg"/>
    <text x="352.0" y="134.1" class="tooltip-text" text-anchor="middle">Jan 2023: 214 total (+39 this month)</text>
  </g>
  <g class="hoverpoint">
    <line x1="366.9" y1="30" x2="366.9" y2="160.0" class="guide"/>
    <circle cx="366.9" cy="145.4" r="16" class="hit"/>
    <circle cx="366.9" cy="145.4" r="4" class="hover-dot"><title>Feb 2023: 225 total (+11 this month)</title></circle>
    <rect x="296.9" y="119.4" width="140" height="20" rx="4" class="tooltip-bg"/>
    <text x="366.9" y="133.4" class="tooltip-text" text-anchor="middle">Feb 2023: 225 total (+11 this month)</text>
  </g>
  <g class="hoverpoint">
    <line x1="372.8" y1="30" x2="372.8" y2="160.0" class="guide"/>
    <circle cx="372.8" cy="144.6" r="16" class="hit"/>
    <circle cx="372.8" cy="144.6" r="4" class="hover-dot"><title>Mar 2023: 237 total (+12 this month)</title></circle>
    <rect x="302.8" y="118.6" width="140" height="20" rx="4" class="tooltip-bg"/>
    <text x="372.8" y="132.6" class="tooltip-text" text-anchor="middle">Mar 2023: 237 total (+12 this month)</text>
  </g>
  <g class="hoverpoint">
    <line x1="382.2" y1="30" x2="382.2" y2="160.0" class="guide"/>
    <circle cx="382.2" cy="144.4" r="16" class="hit"/>
    <circle cx="382.2" cy="144.4" r="4" class="hover-dot"><title>Apr 2023: 240 total (+3 this month)</title></circle>
    <rect x="312.2" y="118.4" width="140" height="20" rx="4" class="tooltip-bg"/>
    <text x="382.2" y="132.4" class="tooltip-text" text-anchor="middle">Apr 2023: 240 total (+3 this month)</text>
  </g>
  <g class="hoverpoint">
    <line x1="582.9" y1="30" x2="582.9" y2="160.0" class="guide"/>
    <circle cx="582.9" cy="143.6" r="16" class="hit"/>
    <circle cx="582.9" cy="143.6" r="4" class="hover-dot"><title>Aug 2024: 252 total (+12 this month)</title></circle>
    <rect x="512.9" y="117.6" width="140" height="20" rx="4" class="tooltip-bg"/>
    <text x="582.9" y="131.6" class="tooltip-text" text-anchor="middle">Aug 2024: 252 total (+12 this month)</text>
  </g>
  <g class="hoverpoint">
    <line x1="593.8" y1="30" x2="593.8" y2="160.0" class="guide"/>
    <circle cx="593.8" cy="143.6" r="16" class="hit"/>
    <circle cx="593.8" cy="143.6" r="4" class="hover-dot"><title>Sep 2024: 253 total (+1 this month)</title></circle>
    <rect x="523.8" y="117.6" width="140" height="20" rx="4" class="tooltip-bg"/>
    <text x="593.8" y="131.6" class="tooltip-text" text-anchor="middle">Sep 2024: 253 total (+1 this month)</text>
  </g>
  <g class="hoverpoint">
    <line x1="606.8" y1="30" x2="606.8" y2="160.0" class="guide"/>
    <circle cx="606.8" cy="143.0" r="16" class="hit"/>
    <circle cx="606.8" cy="143.0" r="4" class="hover-dot"><title>Oct 2024: 261 total (+8 this month)</title></circle>
    <rect x="536.8" y="117.0" width="140" height="20" rx="4" class="tooltip-bg"/>
    <text x="606.8" y="131.0" class="tooltip-text" text-anchor="middle">Oct 2024: 261 total (+8 this month)</text>
  </g>
  <g class="hoverpoint">
    <line x1="640.5" y1="30" x2="640.5" y2="160.0" class="guide"/>
    <circle cx="640.5" cy="142.4" r="16" class="hit"/>
    <circle cx="640.5" cy="142.4" r="4" class="hover-dot"><title>Jan 2025: 270 total (+9 this month)</title></circle>
    <rect x="570.5" y="116.4" width="140" height="20" rx="4" class="tooltip-bg"/>
    <text x="640.5" y="130.4" class="tooltip-text" text-anchor="middle">Jan 2025: 270 total (+9 this month)</text>
  </g>
  <g class="hoverpoint">
    <line x1="646.0" y1="30" x2="646.0" y2="160.0" class="guide"/>
    <circle cx="646.0" cy="142.3" r="16" class="hit"/>
    <circle cx="646.0" cy="142.3" r="4" class="hover-dot"><title>Feb 2025: 272 total (+2 this month)</title></circle>
    <rect x="576.0" y="116.3" width="140" height="20" rx="4" class="tooltip-bg"/>
    <text x="646.0" y="130.3" class="tooltip-text" text-anchor="middle">Feb 2025: 272 total (+2 this month)</text>
  </g>
  <g class="hoverpoint">
    <line x1="666.0" y1="30" x2="666.0" y2="160.0" class="guide"/>
    <circle cx="666.0" cy="140.9" r="16" class="hit"/>
    <circle cx="666.0" cy="140.9" r="4" class="hover-dot"><title>Mar 2025: 294 total (+22 this month)</title></circle>
    <rect x="596.0" y="114.9" width="140" height="20" rx="4" class="tooltip-bg"/>
    <text x="666.0" y="128.9" class="tooltip-text" text-anchor="middle">Mar 2025: 294 total (+22 this month)</text>
  </g>
  <g class="hoverpoint">
    <line x1="679.3" y1="30" x2="679.3" y2="160.0" class="guide"/>
    <circle cx="679.3" cy="137.2" r="16" class="hit"/>
    <circle cx="679.3" cy="137.2" r="4" class="hover-dot"><title>Apr 2025: 351 total (+57 this month)</title></circle>
    <rect x="609.3" y="111.2" width="140" height="20" rx="4" class="tooltip-bg"/>
    <text x="679.3" y="125.2" class="tooltip-text" text-anchor="middle">Apr 2025: 351 total (+57 this month)</text>
  </g>
  <g class="hoverpoint">
    <line x1="686.7" y1="30" x2="686.7" y2="160.0" class="guide"/>
    <circle cx="686.7" cy="133.5" r="16" class="hit"/>
    <circle cx="686.7" cy="133.5" r="4" class="hover-dot"><title>May 2025: 408 total (+57 this month)</title></circle>
    <rect x="616.7" y="107.5" width="140" height="20" rx="4" class="tooltip-bg"/>
    <text x="686.7" y="121.5" class="tooltip-text" text-anchor="middle">May 2025: 408 total (+57 this month)</text>
  </g>
  <g class="hoverpoint">
    <line x1="701.6" y1="30" x2="701.6" y2="160.0" class="guide"/>
    <circle cx="701.6" cy="132.4" r="16" class="hit"/>
    <circle cx="701.6" cy="132.4" r="4" class="hover-dot"><title>Jun 2025: 424 total (+16 this month)</title></circle>
    <rect x="631.6" y="106.4" width="140" height="20" rx="4" class="tooltip-bg"/>
    <text x="701.6" y="120.4" class="tooltip-text" text-anchor="middle">Jun 2025: 424 total (+16 this month)</text>
  </g>
  <g class="hoverpoint">
    <line x1="715.3" y1="30" x2="715.3" y2="160.0" class="guide"/>
    <circle cx="715.3" cy="131.9" r="16" class="hit"/>
    <circle cx="715.3" cy="131.9" r="4" class="hover-dot"><title>Jul 2025: 432 total (+8 this month)</title></circle>
    <rect x="645.3" y="105.9" width="140" height="20" rx="4" class="tooltip-bg"/>
    <text x="715.3" y="119.9" class="tooltip-text" text-anchor="middle">Jul 2025: 432 total (+8 this month)</text>
  </g>
  <g class="hoverpoint">
    <line x1="726.3" y1="30" x2="726.3" y2="160.0" class="guide"/>
    <circle cx="726.3" cy="129.1" r="16" class="hit"/>
    <circle cx="726.3" cy="129.1" r="4" class="hover-dot"><title>Aug 2025: 475 total (+43 this month)</title></circle>
    <rect x="656.3" y="103.1" width="140" height="20" rx="4" class="tooltip-bg"/>
    <text x="726.3" y="117.1" class="tooltip-text" text-anchor="middle">Aug 2025: 475 total (+43 this month)</text>
  </g>
  <g class="hoverpoint">
    <line x1="739.3" y1="30" x2="739.3" y2="160.0" class="guide"/>
    <circle cx="739.3" cy="125.8" r="16" class="hit"/>
    <circle cx="739.3" cy="125.8" r="4" class="hover-dot"><title>Sep 2025: 526 total (+51 this month)</title></circle>
    <rect x="669.3" y="99.8" width="140" height="20" rx="4" class="tooltip-bg"/>
    <text x="739.3" y="113.8" class="tooltip-text" text-anchor="middle">Sep 2025: 526 total (+51 this month)</text>
  </g>
  <g class="hoverpoint">
    <line x1="751.4" y1="30" x2="751.4" y2="160.0" class="guide"/>
    <circle cx="751.4" cy="115.0" r="16" class="hit"/>
    <circle cx="751.4" cy="115.0" r="4" class="hover-dot"><title>Oct 2025: 692 total (+166 this month)</title></circle>
    <rect x="681.4" y="89.0" width="140" height="20" rx="4" class="tooltip-bg"/>
    <text x="751.4" y="103.0" class="tooltip-text" text-anchor="middle">Oct 2025: 692 total (+166 this month)</text>
  </g>
  <g class="hoverpoint">
    <line x1="763.2" y1="30" x2="763.2" y2="160.0" class="guide"/>
    <circle cx="763.2" cy="112.5" r="16" class="hit"/>
    <circle cx="763.2" cy="112.5" r="4" class="hover-dot"><title>Nov 2025: 731 total (+39 this month)</title></circle>
    <rect x="693.2" y="86.5" width="140" height="20" rx="4" class="tooltip-bg"/>
    <text x="763.2" y="100.5" class="tooltip-text" text-anchor="middle">Nov 2025: 731 total (+39 this month)</text>
  </g>
  <g class="hoverpoint">
    <line x1="775.3" y1="30" x2="775.3" y2="160.0" class="guide"/>
    <circle cx="775.3" cy="109.1" r="16" class="hit"/>
    <circle cx="775.3" cy="109.1" r="4" class="hover-dot"><title>Dec 2025: 783 total (+52 this month)</title></circle>
    <rect x="705.3" y="83.1" width="140" height="20" rx="4" class="tooltip-bg"/>
    <text x="775.3" y="97.1" class="tooltip-text" text-anchor="middle">Dec 2025: 783 total (+52 this month)</text>
  </g>
  <g class="hoverpoint">
    <line x1="787.5" y1="30" x2="787.5" y2="160.0" class="guide"/>
    <circle cx="787.5" cy="93.6" r="16" class="hit"/>
    <circle cx="787.5" cy="93.6" r="4" class="hover-dot"><title>Jan 2026: 1,022 total (+239 this month)</title></circle>
    <rect x="717.5" y="67.6" width="140" height="20" rx="4" class="tooltip-bg"/>
    <text x="787.5" y="81.6" class="tooltip-text" text-anchor="middle">Jan 2026: 1,022 total (+239 this month)</text>
  </g>
  <g class="hoverpoint">
    <line x1="798.4" y1="30" x2="798.4" y2="160.0" class="guide"/>
    <circle cx="798.4" cy="74.1" r="16" class="hit"/>
    <circle cx="798.4" cy="74.1" r="4" class="hover-dot"><title>Feb 2026: 1,321 total (+299 this month)</title></circle>
    <rect x="728.4" y="48.1" width="140" height="20" rx="4" class="tooltip-bg"/>
    <text x="798.4" y="62.1" class="tooltip-text" text-anchor="middle">Feb 2026: 1,321 total (+299 this month)</text>
  </g>
  <g class="hoverpoint">
    <line x1="810.6" y1="30" x2="810.6" y2="160.0" class="guide"/>
    <circle cx="810.6" cy="54.9" r="16" class="hit"/>
    <circle cx="810.6" cy="54.9" r="4" class="hover-dot"><title>Mar 2026: 1,617 total (+296 this month)</title></circle>
    <rect x="740.6" y="28.9" width="140" height="20" rx="4" class="tooltip-bg"/>
    <text x="810.6" y="42.9" class="tooltip-text" text-anchor="middle">Mar 2026: 1,617 total (+296 this month)</text>
  </g>
  <g class="hoverpoint">
    <line x1="820.0" y1="30" x2="820.0" y2="160.0" class="guide"/>
    <circle cx="820.0" cy="50.2" r="16" class="hit"/>
    <circle cx="820.0" cy="50.2" r="4" class="hover-dot"><title>Apr 2026: 1,690 total (+73 this month)</title></circle>
    <rect x="750.0" y="24.2" width="140" height="20" rx="4" class="tooltip-bg"/>
    <text x="820.0" y="38.2" class="tooltip-text" text-anchor="middle">Apr 2026: 1,690 total (+73 this month)</text>
  </g>

  <circle cx="820.0" cy="50.2" r="4" class="dot"/>
  <text x="810.0" y="40.2" class="total">1,690</text>

</svg>