<svg xmlns="http://www.w3.org/2000/svg" width="840" height="196" viewBox="0 0 840 196" fill="none">
  <style>
    .label { font-family: -apple-system, BlinkMacSystemFont, 'Segoe UI', Helvetica, Arial, sans-serif; font-size: 10px; fill: #8b949e; }
    .title { font-family: -apple-system, BlinkMacSystemFont, 'Segoe UI', Helvetica, Arial, sans-serif; font-size: 11px; fill: #8b949e; font-weight: 600; }
    .total { font-family: -apple-system, BlinkMacSystemFont, 'Segoe UI', Helvetica, Arial, sans-serif; font-size: 11px; fill: #7ee787; font-weight: 600; }
    .grid { stroke: #21262d; stroke-width: 1; }
    .line { stroke: #7ee787; stroke-width: 2; stroke-linecap: round; stroke-linejoin: round; fill: none; }
    .dot { fill: #7ee787; }
    .area { fill: url(#areaGrad); }
    /* Hover interaction */
    .hoverpoint .guide { stroke: #7ee787; stroke-width: 1; stroke-dasharray: 2,2; opacity: 0; }
    .hoverpoint .hover-dot { fill: #7ee787; opacity: 0; }
    .hoverpoint .hit { fill: transparent; cursor: pointer; }
    .hoverpoint .tooltip-bg { fill: #161b22; stroke: #30363d; stroke-width: 1; opacity: 0; }
    .hoverpoint .tooltip-text { font-family: -apple-system, BlinkMacSystemFont, 'Segoe UI', Helvetica, Arial, sans-serif; font-size: 9px; fill: #c9d1d9; opacity: 0; }
    .hoverpoint:hover .guide { opacity: 0.5; }
    .hoverpoint:hover .hover-dot { opacity: 1; }
    .hoverpoint:hover .tooltip-bg { opacity: 0.95; }
    .hoverpoint:hover .tooltip-text { opacity: 1; }
  </style>
  <defs>
    <linearGradient id="areaGrad" x1="0" y1="0" x2="0" y2="1">
      <stop offset="0%" stop-color="#7ee787" stop-opacity="0.15"/>
      <stop offset="100%" stop-color="#7ee787" stop-opacity="0.01"/>
    </linearGradient>
  </defs>

  <text x="60" y="18" class="title">Cumulative Commits</text>

  <line x1="60" y1="160.0" x2="820" y2="160.0" class="grid"/>
  <text x="50" y="163.0" class="label" text-anchor="end">0</text>
  <line x1="60" y1="127.5" x2="820" y2="127.5" class="grid" stroke-dasharray="3,3"/>
  <text x="50" y="130.5" class="label" text-anchor="end">500</text>
  <line x1="60" y1="95.0" x2="820" y2="95.0" class="grid" stroke-dasharray="3,3"/>
  <text x="50" y="98.0" class="label" text-anchor="end">1,000</text>
  <line x1="60" y1="62.5" x2="820" y2="62.5" class="grid" stroke-dasharray="3,3"/>
  <text x="50" y="65.5" class="label" text-anchor="end">1,500</text>
  <line x1="60" y1="30.0" x2="820" y2="30.0" class="grid" stroke-dasharray="3,3"/>
  <text x="50" y="33.0" class="label" text-anchor="end">2,000</text>

  <text x="70.0" y="186" class="label" text-anchor="middle">2021</text>
  <text x="205.2" y="186" class="label" text-anchor="middle">2022</text>
  <text x="350.5" y="186" class="label" text-anchor="middle">2023</text>
  <text x="495.7" y="186" class="label" text-anchor="middle">2024</text>
  <text x="641.3" y="186" class="label" text-anchor="middle">2025</text>
  <text x="786.6" y="186" class="label" text-anchor="middle">2026</text>


  <path class="area" d="M60.0,160.0 L60.0,160.0 60.0,160.0 L184.5,159.7 L184.9,159.6 L186.1,159.5 L205.2,159.4 L205.6,159.0 L206.0,158.9 L206.4,158.6 L206.8,158.6 L207.2,158.4 L208.0,158.1 L208.4,157.9 L208.8,157.8 L209.2,157.7 L210.8,157.5 L211.2,157.5 L211.6,157.4 L215.6,157.3 L225.9,157.1 L280.4,157.1 L280.8,156.5 L282.4,156.4 L283.2,155.9 L289.2,155.8 L290.0,155.6 L290.4,155.4 L290.8,155.3 L291.6,155.1 L292.0,154.7 L292.4,154.0 L292.8,153.9 L294.4,153.6 L295.2,153.6 L297.2,153.4 L302.7,153.2 L313.5,153.0 L319.4,152.9 L322.2,152.8 L322.6,152.7 L323.0,152.5 L323.4,152.3 L324.6,151.8 L325.0,151.7 L325.4,151.7 L327.0,151.4 L327.4,151.1 L327.8,151.0 L328.2,150.4 L328.6,149.9 L329.0,149.7 L329.4,149.5 L330.2,149.4 L331.8,149.3 L336.1,149.1 L347.7,149.0 L348.1,148.7 L348.5,148.6 L352.5,148.0 L352.9,146.5 L354.1,146.3 L354.5,146.3 L356.4,146.1 L370.0,145.8 L370.4,145.7 L370.8,145.6 L371.6,145.4 L374.3,145.2 L375.1,144.9 L375.5,144.7 L377.5,144.6 L387.1,144.4 L582.8,144.3 L583.6,144.2 L584.4,144.1 L585.2,144.0 L585.6,143.9 L586.0,143.8 L586.4,143.8 L586.8,143.7 L590.8,143.6 L601.9,143.6 L605.1,143.5 L606.3,143.4 L608.7,143.4 L611.1,143.3 L611.5,143.2 L613.1,143.2 L614.3,143.1 L615.1,143.0 L644.5,143.0 L644.9,142.8 L645.7,142.8 L646.1,142.7 L647.3,142.5 L649.3,142.4 L654.9,142.3 L666.4,141.7 L666.8,141.5 L672.0,141.3 L672.4,141.2 L673.6,141.1 L675.2,140.9 L677.2,140.2 L677.5,138.4 L677.9,138.3 L680.3,138.2 L681.5,138.1 L681.9,138.0 L682.7,137.8 L685.9,137.7 L688.7,137.2 L690.7,136.7 L691.1,136.5 L692.3,136.2 L692.7,135.4 L693.1,135.2 L693.5,134.9 L693.9,134.7 L694.3,134.4 L695.1,133.9 L696.3,133.5 L710.6,133.3 L711.4,132.4 L720.1,132.2 L725.3,131.9 L727.7,131.9 L728.1,131.8 L730.5,131.7 L730.9,131.7 L731.3,131.6 L731.7,131.4 L732.1,131.1 L732.5,130.5 L732.9,130.4 L735.2,129.4 L735.6,129.3 L736.4,129.1 L739.2,128.8 L740.0,128.7 L740.4,128.5 L741.2,128.5 L741.6,128.0 L742.0,127.9 L742.8,127.8 L743.2,127.6 L743.6,127.6 L744.0,127.5 L745.6,127.1 L746.0,127.0 L746.4,126.8 L746.8,126.7 L747.2,126.6 L747.6,126.4 L748.8,126.1 L749.2,125.9 L749.6,125.8 L750.0,125.6 L750.4,125.2 L751.2,125.1 L751.6,124.4 L752.0,124.1 L752.4,122.8 L752.8,122.5 L753.2,122.2 L753.5,121.5 L753.9,121.4 L754.3,121.2 L754.7,121.1 L755.1,120.7 L757.1,120.0 L757.5,119.8 L757.9,119.2 L758.3,118.1 L758.7,118.0 L759.5,117.9 L759.9,116.9 L760.3,116.4 L760.7,116.3 L761.1,115.3 L761.9,115.0 L762.3,114.9 L762.7,114.8 L763.1,114.7 L763.5,114.6 L763.9,114.6 L765.5,114.4 L766.3,114.3 L766.7,113.8 L767.1,113.5 L768.3,113.5 L770.3,113.3 L772.6,113.1 L773.0,112.9 L773.4,112.9 L773.8,112.5 L774.2,111.6 L774.6,111.5 L775.0,111.4 L775.4,111.3 L775.8,111.1 L776.2,110.6 L780.6,110.5 L781.0,110.4 L784.6,109.9 L785.4,109.5 L785.8,109.4 L786.2,109.1 L786.6,109.0 L787.8,108.8 L788.2,107.9 L788.6,105.5 L789.0,103.5 L789.4,103.4 L789.8,103.1 L790.6,102.8 L791.0,102.5 L791.4,102.1 L792.1,102.0 L792.5,101.4 L792.9,101.3 L793.7,100.4 L794.1,100.3 L794.5,99.8 L794.9,99.5 L795.3,99.1 L795.7,99.0 L796.9,98.4 L797.3,98.1 L797.7,96.6 L798.1,94.4 L798.5,93.6 L798.9,92.6 L799.3,92.5 L799.7,92.1 L800.1,91.9 L800.5,91.4 L800.9,90.6 L801.3,90.6 L801.7,90.1 L802.1,90.0 L802.5,89.5 L802.9,89.0 L803.3,88.4 L803.7,87.8 L804.1,87.7 L804.5,87.5 L804.9,86.4 L805.3,84.4 L805.7,84.1 L806.5,83.7 L806.9,83.5 L807.3,83.4 L807.7,80.2 L808.1,78.8 L808.5,77.3 L808.9,76.8 L809.3,74.4 L809.7,74.1 L810.1,74.0 L810.5,73.5 L810.8,72.4 L811.2,70.4 L811.6,68.2 L812.0,68.1 L812.4,67.6 L813.2,67.5 L813.6,66.2 L814.0,65.2 L814.4,63.8 L814.8,63.6 L815.2,63.5 L815.6,61.4 L816.0,58.9 L816.4,57.8 L816.8,57.3 L817.2,56.6 L817.6,56.1 L818.0,56.0 L818.8,55.9 L820.0,55.9 L820.0,160.0 Z"/>
  <polyline class="line" points="60.0,160.0 184.5,159.7 184.9,159.6 186.1,159.5 205.2,159.4 205.6,159.0 206.0,158.9 206.4,158.6 206.8,158.6 207.2,158.4 208.0,158.1 208.4,157.9 208.8,157.8 209.2,157.7 210.8,157.5 211.2,157.5 211.6,157.4 215.6,157.3 225.9,157.1 280.4,157.1 280.8,156.5 282.4,156.4 283.2,155.9 289.2,155.8 290.0,155.6 290.4,155.4 290.8,155.3 291.6,155.1 292.0,154.7 292.4,154.0 292.8,153.9 294.4,153.6 295.2,153.6 297.2,153.4 302.7,153.2 313.5,153.0 319.4,152.9 322.2,152.8 322.6,152.7 323.0,152.5 323.4,152.3 324.6,151.8 325.0,151.7 325.4,151.7 327.0,151.4 327.4,151.1 327.8,151.0 328.2,150.4 328.6,149.9 329.0,149.7 329.4,149.5 330.2,149.4 331.8,149.3 336.1,149.1 347.7,149.0 348.1,148.7 348.5,148.6 352.5,148.0 352.9,146.5 354.1,146.3 354.5,146.3 356.4,146.1 370.0,145.8 370.4,145.7 370.8,145.6 371.6,145.4 374.3,145.2 375.1,144.9 375.5,144.7 377.5,144.6 387.1,144.4 582.8,144.3 583.6,144.2 584.4,144.1 585.2,144.0 585.6,143.9 586.0,143.8 586.4,143.8 586.8,143.7 590.8,143.6 601.9,143.6 605.1,143.5 606.3,143.4 608.7,143.4 611.1,143.3 611.5,143.2 613.1,143.2 614.3,143.1 615.1,143.0 644.5,143.0 644.9,142.8 645.7,142.8 646.1,142.7 647.3,142.5 649.3,142.4 654.9,142.3 666.4,141.7 666.8,141.5 672.0,141.3 672.4,141.2 673.6,141.1 675.2,140.9 677.2,140.2 677.5,138.4 677.9,138.3 680.3,138.2 681.5,138.1 681.9,138.0 682.7,137.8 685.9,137.7 688.7,137.2 690.7,136.7 691.1,136.5 692.3,136.2 692.7,135.4 693.1,135.2 693.5,134.9 693.9,134.7 694.3,134.4 695.1,133.9 696.3,133.5 710.6,133.3 711.4,132.4 720.1,132.2 725.3,131.9 727.7,131.9 728.1,131.8 730.5,131.7 730.9,131.7 731.3,131.6 731.7,131.4 732.1,131.1 732.5,130.5 732.9,130.4 735.2,129.4 735.6,129.3 736.4,129.1 739.2,128.8 740.0,128.7 740.4,128.5 741.2,128.5 741.6,128.0 742.0,127.9 742.8,127.8 743.2,127.6 743.6,127.6 744.0,127.5 745.6,127.1 746.0,127.0 746.4,126.8 746.8,126.7 747.2,126.6 747.6,126.4 748.8,126.1 749.2,125.9 749.6,125.8 750.0,125.6 750.4,125.2 751.2,125.1 751.6,124.4 752.0,124.1 752.4,122.8 752.8,122.5 753.2,122.2 753.5,121.5 753.9,121.4 754.3,121.2 754.7,121.1 755.1,120.7 757.1,120.0 757.5,119.8 757.9,119.2 758.3,118.1 758.7,118.0 759.5,117.9 759.9,116.9 760.3,116.4 760.7,116.3 761.1,115.3 761.9,115.0 762.3,114.9 762.7,114.8 763.1,114.7 763.5,114.6 763.9,114.6 765.5,114.4 766.3,114.3 766.7,113.8 767.1,113.5 768.3,113.5 770.3,113.3 772.6,113.1 773.0,112.9 773.4,112.9 773.8,112.5 774.2,111.6 774.6,111.5 775.0,111.4 775.4,111.3 775.8,111.1 776.2,110.6 780.6,110.5 781.0,110.4 784.6,109.9 785.4,109.5 785.8,109.4 786.2,109.1 786.6,109.0 787.8,108.8 788.2,107.9 788.6,105.5 789.0,103.5 789.4,103.4 789.8,103.1 790.6,102.8 791.0,102.5 791.4,102.1 792.1,102.0 792.5,101.4 792.9,101.3 793.7,100.4 794.1,100.3 794.5,99.8 794.9,99.5 795.3,99.1 795.7,99.0 796.9,98.4 797.3,98.1 797.7,96.6 798.1,94.4 798.5,93.6 798.9,92.6 799.3,92.5 799.7,92.1 800.1,91.9 800.5,91.4 800.9,90.6 801.3,90.6 801.7,90.1 802.1,90.0 802.5,89.5 802.9,89.0 803.3,88.4 803.7,87.8 804.1,87.7 804.5,87.5 804.9,86.4 805.3,84.4 805.7,84.1 806.5,83.7 806.9,83.5 807.3,83.4 807.7,80.2 808.1,78.8 808.5,77.3 808.9,76.8 809.3,74.4 809.7,74.1 810.1,74.0 810.5,73.5 810.8,72.4 811.2,70.4 811.6,68.2 812.0,68.1 812.4,67.6 813.2,67.5 813.6,66.2 814.0,65.2 814.4,63.8 814.8,63.6 815.2,63.5 815.6,61.4 816.0,58.9 816.4,57.8 816.8,57.3 817.2,56.6 817.6,56.1 818.0,56.0 818.8,55.9 820.0,55.9"/>

  <g class="hoverpoint">
    <line x1="186.1" y1="30" x2="186.1" y2="160.0" class="guide"/>
    <circle cx="186.1" cy="159.5" r="16" class="hit"/>
    <circle cx="186.1" cy="159.5" r="4" class="hover-dot"><title>Nov 2021: 7 total (+7 this month)</title></circle>
    <rect x="116.1" y="133.5" width="140" height="20" rx="4" class="tooltip-bg"/>
    <text x="186.1" y="147.5" class="tooltip-text" text-anchor="middle">Nov 2021: 7 total (+7 this month)</text>
  </g>
  <g class="hoverpoint">
    <line x1="215.6" y1="30" x2="215.6" y2="160.0" class="guide"/>
    <circle cx="215.6" cy="157.3" r="16" class="hit"/>
    <circle cx="215.6" cy="157.3" r="4" class="hover-dot"><title>Jan 2022: 41 total (+34 this month)</title></circle>
    <rect x="145.6" y="131.3" width="140" height="20" rx="4" class="tooltip-bg"/>
    <text x="215.6" y="145.3" class="tooltip-text" text-anchor="middle">Jan 2022: 41 total (+34 this month)</text>
  </g>
  <g class="hoverpoint">
    <line x1="225.9" y1="30" x2="225.9" y2="160.0" class="guide"/>
    <circle cx="225.9" cy="157.1" r="16" class="hit"/>
    <circle cx="225.9" cy="157.1" r="4" class="hover-dot"><title>Feb 2022: 44 total (+3 this month)</title></circle>
    <rect x="155.9" y="131.1" width="140" height="20" rx="4" class="tooltip-bg"/>
    <text x="225.9" y="145.1" class="tooltip-text" text-anchor="middle">Feb 2022: 44 total (+3 this month)</text>
  </g>
  <g class="hoverpoint">
    <line x1="289.2" y1="30" x2="289.2" y2="160.0" class="guide"/>
    <circle cx="289.2" cy="155.8" r="16" class="hit"/>
    <circle cx="289.2" cy="155.8" r="4" class="hover-dot"><title>Jul 2022: 65 total (+21 this month)</title></circle>
    <rect x="219.2" y="129.8" width="140" height="20" rx="4" class="tooltip-bg"/>
    <text x="289.2" y="143.8" class="tooltip-text" text-anchor="middle">Jul 2022: 65 total (+21 this month)</text>
  </g>
  <g class="hoverpoint">
    <line x1="297.2" y1="30" x2="297.2" y2="160.0" class="guide"/>
    <circle cx="297.2" cy="153.4" r="16" class="hit"/>
    <circle cx="297.2" cy="153.4" r="4" class="hover-dot"><title>Aug 2022: 101 total (+36 this month)</title></circle>
    <rect x="227.2" y="127.4" width="140" height="20" rx="4" class="tooltip-bg"/>
    <text x="297.2" y="141.4" class="tooltip-text" text-anchor="middle">Aug 2022: 101 total (+36 this month)</text>
  </g>
  <g class="hoverpoint">
    <line x1="313.5" y1="30" x2="313.5" y2="160.0" class="guide"/>
    <circle cx="313.5" cy="153.0" r="16" class="hit"/>
    <circle cx="313.5" cy="153.0" r="4" class="hover-dot"><title>Sep 2022: 108 total (+7 this month)</title></circle>
    <rect x="243.5" y="127.0" width="140" height="20" rx="4" class="tooltip-bg"/>
    <text x="313.5" y="141.0" class="tooltip-text" text-anchor="middle">Sep 2022: 108 total (+7 this month)</text>
  </g>
  <g class="hoverpoint">
    <line x1="325.4" y1="30" x2="325.4" y2="160.0" class="guide"/>
    <circle cx="325.4" cy="151.7" r="16" class="hit"/>
    <circle cx="325.4" cy="151.7" r="4" class="hover-dot"><title>Oct 2022: 128 total (+20 this month)</title></circle>
    <rect x="255.4" y="125.7" width="140" height="20" rx="4" class="tooltip-bg"/>
    <text x="325.4" y="139.7" class="tooltip-text" text-anchor="middle">Oct 2022: 128 total (+20 this month)</text>
  </g>
  <g class="hoverpoint">
    <line x1="336.1" y1="30" x2="336.1" y2="160.0" class="guide"/>
    <circle cx="336.1" cy="149.1" r="16" class="hit"/>
    <circle cx="336.1" cy="149.1" r="4" class="hover-dot"><title>Nov 2022: 168 total (+40 this month)</title></circle>
    <rect x="266.1" y="123.1" width="140" height="20" rx="4" class="tooltip-bg"/>
    <text x="336.1" y="137.1" class="tooltip-text" text-anchor="middle">Nov 2022: 168 total (+40 this month)</text>
  </g>
  <g class="hoverpoint">
    <line x1="348.5" y1="30" x2="348.5" y2="160.0" class="guide"/>
    <circle cx="348.5" cy="148.6" r="16" class="hit"/>
    <circle cx="348.5" cy="148.6" r="4" class="hover-dot"><title>Dec 2022: 175 total (+7 this month)</title></circle>
    <rect x="278.5" y="122.6" width="140" height="20" rx="4" class="tooltip-bg"/>
    <text x="348.5" y="136.6" class="tooltip-text" text-anchor="middle">Dec 2022: 175 total (+7 this month)</text>
  </g>
  <g class="hoverpoint">
    <line x1="356.4" y1="30" x2="356.4" y2="160.0" class="guide"/>
    <circle cx="356.4" cy="146.1" r="16" class="hit"/>
    <circle cx="356.4" cy="146.1" r="4" class="hover-dot"><title>Jan 2023: 214 total (+39 this month)</title></circle>
    <rect x="286.4" y="120.1" width="140" height="20" rx="4" class="tooltip-bg"/>
    <text x="356.4" y="134.1" class="tooltip-text" text-anchor="middle">Jan 2023: 214 total (+39 this month)</text>
  </g>
  <g class="hoverpoint">
    <line x1="371.6" y1="30" x2="371.6" y2="160.0" class="guide"/>
    <circle cx="371.6" cy="145.4" r="16" class="hit"/>
    <circle cx="371.6" cy="145.4" r="4" class="hover-dot"><title>Feb 2023: 225 total (+11 this month)</title></circle>
    <rect x="301.6" y="119.4" width="140" height="20" rx="4" class="tooltip-bg"/>
    <text x="371.6" y="133.4" class="tooltip-text" text-anchor="middle">Feb 2023: 225 total (+11 this month)</text>
  </g>
  <g class="hoverpoint">
    <line x1="377.5" y1="30" x2="377.5" y2="160.0" class="guide"/>
    <circle cx="377.5" cy="144.6" r="16" class="hit"/>
    <circle cx="377.5" cy="144.6" r="4" class="hover-dot"><title>Mar 2023: 237 total (+12 this month)</title></circle>
    <rect x="307.5" y="118.6" width="140" height="20" rx="4" class="tooltip-bg"/>
    <text x="377.5" y="132.6" class="tooltip-text" text-anchor="middle">Mar 2023: 237 total (+12 this month)</text>
  </g>
  <g class="hoverpoint">
    <line x1="387.1" y1="30" x2="387.1" y2="160.0" class="guide"/>
    <circle cx="387.1" cy="144.4" r="16" class="hit"/>
    <circle cx="387.1" cy="144.4" r="4" class="hover-dot"><title>Apr 2023: 240 total (+3 this month)</title></circle>
    <rect x="317.1" y="118.4" width="140" height="20" rx="4" class="tooltip-bg"/>
    <text x="387.1" y="132.4" class="tooltip-text" text-anchor="middle">Apr 2023: 240 total (+3 this month)</text>
  </g>
  <g class="hoverpoint">
    <line x1="590.8" y1="30" x2="590.8" y2="160.0" class="guide"/>
    <circle cx="590.8" cy="143.6" r="16" class="hit"/>
    <circle cx="590.8" cy="143.6" r="4" class="hover-dot"><title>Aug 2024: 252 total (+12 this month)</title></circle>
    <rect x="520.8" y="117.6" width="140" height="20" rx="4" class="tooltip-bg"/>
    <text x="590.8" y="131.6" class="tooltip-text" text-anchor="middle">Aug 2024: 252 total (+12 this month)</text>
  </g>
  <g class="hoverpoint">
    <line x1="601.9" y1="30" x2="601.9" y2="160.0" class="guide"/>
    <circle cx="601.9" cy="143.6" r="16" class="hit"/>
    <circle cx="601.9" cy="143.6" r="4" class="hover-dot"><title>Sep 2024: 253 total (+1 this month)</title></circle>
    <rect x="531.9" y="117.6" width="140" height="20" rx="4" class="tooltip-bg"/>
    <text x="601.9" y="131.6" class="tooltip-text" text-anchor="middle">Sep 2024: 253 total (+1 this month)</text>
  </g>
  <g class="hoverpoint">
    <line x1="615.1" y1="30" x2="615.1" y2="160.0" class="guide"/>
    <circle cx="615.1" cy="143.0" r="16" class="hit"/>
    <circle cx="615.1" cy="143.0" r="4" class="hover-dot"><title>Oct 2024: 261 total (+8 this month)</title></circle>
    <rect x="545.1" y="117.0" width="140" height="20" rx="4" class="tooltip-bg"/>
    <text x="615.1" y="131.0" class="tooltip-text" text-anchor="middle">Oct 2024: 261 total (+8 this month)</text>
  </g>
  <g class="hoverpoint">
    <line x1="649.3" y1="30" x2="649.3" y2="160.0" class="guide"/>
    <circle cx="649.3" cy="142.4" r="16" class="hit"/>
    <circle cx="649.3" cy="142.4" r="4" class="hover-dot"><title>Jan 2025: 270 total (+9 this month)</title></circle>
    <rect x="579.3" y="116.4" width="140" height="20" rx="4" class="tooltip-bg"/>
    <text x="649.3" y="130.4" class="tooltip-text" text-anchor="middle">Jan 2025: 270 total (+9 this month)</text>
  </g>
  <g class="hoverpoint">
    <line x1="654.9" y1="30" x2="654.9" y2="160.0" class="guide"/>
    <circle cx="654.9" cy="142.3" r="16" class="hit"/>
    <circle cx="654.9" cy="142.3" r="4" class="hover-dot"><title>Feb 2025: 272 total (+2 this month)</title></circle>
    <rect x="584.9" y="116.3" width="140" height="20" rx="4" class="tooltip-bg"/>
    <text x="654.9" y="130.3" class="tooltip-text" text-anchor="middle">Feb 2025: 272 total (+2 this month)</text>
  </g>
  <g class="hoverpoint">
    <line x1="675.2" y1="30" x2="675.2" y2="160.0" class="guide"/>
    <circle cx="675.2" cy="140.9" r="16" class="hit"/>
    <circle cx="675.2" cy="140.9" r="4" class="hover-dot"><title>Mar 2025: 294 total (+22 this month)</title></circle>
    <rect x="605.2" y="114.9" width="140" height="20" rx="4" class="tooltip-bg"/>
    <text x="675.2" y="128.9" class="tooltip-text" text-anchor="middle">Mar 2025: 294 total (+22 this month)</text>
  </g>
  <g class="hoverpoint">
    <line x1="688.7" y1="30" x2="688.7" y2="160.0" class="guide"/>
    <circle cx="688.7" cy="137.2" r="16" class="hit"/>
    <circle cx="688.7" cy="137.2" r="4" class="hover-dot"><title>Apr 2025: 351 total (+57 this month)</title></circle>
    <rect x="618.7" y="111.2" width="140" height="20" rx="4" class="tooltip-bg"/>
    <text x="688.7" y="125.2" class="tooltip-text" text-anchor="middle">Apr 2025: 351 total (+57 this month)</text>
  </g>
  <g class="hoverpoint">
    <line x1="696.3" y1="30" x2="696.3" y2="160.0" class="guide"/>
    <circle cx="696.3" cy="133.5" r="16" class="hit"/>
    <circle cx="696.3" cy="133.5" r="4" class="hover-dot"><title>May 2025: 408 total (+57 this month)</title></circle>
    <rect x="626.3" y="107.5" width="140" height="20" rx="4" class="tooltip-bg"/>
    <text x="696.3" y="121.5" class="tooltip-text" text-anchor="middle">May 2025: 408 total (+57 this month)</text>
  </g>
  <g class="hoverpoint">
    <line x1="711.4" y1="30" x2="711.4" y2="160.0" class="guide"/>
    <circle cx="711.4" cy="132.4" r="16" class="hit"/>
    <circle cx="711.4" cy="132.4" r="4" class="hover-dot"><title>Jun 2025: 424 total (+16 this month)</title></circle>
    <rect x="641.4" y="106.4" width="140" height="20" rx="4" class="tooltip-bg"/>
    <text x="711.4" y="120.4" class="tooltip-text" text-anchor="middle">Jun 2025: 424 total (+16 this month)</text>
  </g>
  <g class="hoverpoint">
    <line x1="725.3" y1="30" x2="725.3" y2="160.0" class="guide"/>
    <circle cx="725.3" cy="131.9" r="16" class="hit"/>
    <circle cx="725.3" cy="131.9" r="4" class="hover-dot"><title>Jul 2025: 432 total (+8 this month)</title></circle>
    <rect x="655.3" y="105.9" width="140" height="20" rx="4" class="tooltip-bg"/>
    <text x="725.3" y="119.9" class="tooltip-text" text-anchor="middle">Jul 2025: 432 total (+8 this month)</text>
  </g>
  <g class="hoverpoint">
    <line x1="736.4" y1="30" x2="736.4" y2="160.0" class="guide"/>
    <circle cx="736.4" cy="129.1" r="16" class="hit"/>
    <circle cx="736.4" cy="129.1" r="4" class="hover-dot"><title>Aug 2025: 475 total (+43 this month)</title></circle>
    <rect x="666.4" y="103.1" width="140" height="20" rx="4" class="tooltip-bg"/>
    <text x="736.4" y="117.1" class="tooltip-text" text-anchor="middle">Aug 2025: 475 total (+43 this month)</text>
  </g>
  <g class="hoverpoint">
    <line x1="749.6" y1="30" x2="749.6" y2="160.0" class="guide"/>
    <circle cx="749.6" cy="125.8" r="16" class="hit"/>
    <circle cx="749.6" cy="125.8" r="4" class="hover-dot"><title>Sep 2025: 526 total (+51 this month)</title></circle>
    <rect x="679.6" y="99.8" width="140" height="20" rx="4" class="tooltip-bg"/>
    <text x="749.6" y="113.8" class="tooltip-text" text-anchor="middle">Sep 2025: 526 total (+51 this month)</text>
  </g>
  <g class="hoverpoint">
    <line x1="761.9" y1="30" x2="761.9" y2="160.0" class="guide"/>
    <circle cx="761.9" cy="115.0" r="16" class="hit"/>
    <circle cx="761.9" cy="115.0" r="4" class="hover-dot"><title>Oct 2025: 692 total (+166 this month)</title></circle>
    <rect x="691.9" y="89.0" width="140" height="20" rx="4" class="tooltip-bg"/>
    <text x="761.9" y="103.0" class="tooltip-text" text-anchor="middle">Oct 2025: 692 total (+166 this month)</text>
  </g>
  <g class="hoverpoint">
    <line x1="773.8" y1="30" x2="773.8" y2="160.0" class="guide"/>
    <circle cx="773.8" cy="112.5" r="16" class="hit"/>
    <circle cx="773.8" cy="112.5" r="4" class="hover-dot"><title>Nov 2025: 731 total (+39 this month)</title></circle>
    <rect x="703.8" y="86.5" width="140" height="20" rx="4" class="tooltip-bg"/>
    <text x="773.8" y="100.5" class="tooltip-text" text-anchor="middle">Nov 2025: 731 total (+39 this month)</text>
  </g>
  <g class="hoverpoint">
    <line x1="786.2" y1="30" x2="786.2" y2="160.0" class="guide"/>
    <circle cx="786.2" cy="109.1" r="16" class="hit"/>
    <circle cx="786.2" cy="109.1" r="4" class="hover-dot"><title>Dec 2025: 783 total (+52 this month)</title></circle>
    <rect x="716.2" y="83.1" width="140" height="20" rx="4" class="tooltip-bg"/>
    <text x="786.2" y="97.1" class="tooltip-text" text-anchor="middle">Dec 2025: 783 total (+52 this month)</text>
  </g>
  <g class="hoverpoint">
    <line x1="798.5" y1="30" x2="798.5" y2="160.0" class="guide"/>
    <circle cx="798.5" cy="93.6" r="16" class="hit"/>
    <circle cx="798.5" cy="93.6" r="4" class="hover-dot"><title>Jan 2026: 1,022 total (+239 this month)</title></circle>
    <rect x="728.5" y="67.6" width="140" height="20" rx="4" class="tooltip-bg"/>
    <text x="798.5" y="81.6" class="tooltip-text" text-anchor="middle">Jan 2026: 1,022 total (+239 this month)</text>
  </g>
  <g class="hoverpoint">
    <line x1="809.7" y1="30" x2="809.7" y2="160.0" class="guide"/>
    <circle cx="809.7" cy="74.1" r="16" class="hit"/>
    <circle cx="809.7" cy="74.1" r="4" class="hover-dot"><title>Feb 2026: 1,321 total (+299 this month)</title></circle>
    <rect x="739.7" y="48.1" width="140" height="20" rx="4" class="tooltip-bg"/>
    <text x="809.7" y="62.1" class="tooltip-text" text-anchor="middle">Feb 2026: 1,321 total (+299 this month)</text>
  </g>
  <g class="hoverpoint">
    <line x1="820.0" y1="30" x2="820.0" y2="160.0" class="guide"/>
    <circle cx="820.0" cy="55.9" r="16" class="hit"/>
    <circle cx="820.0" cy="55.9" r="4" class="hover-dot"><title>Mar 2026: 1,602 total (+281 this month)</title></circle>
    <rect x="750.0" y="29.9" width="140" height="20" rx="4" class="tooltip-bg"/>
    <text x="820.0" y="43.9" class="tooltip-text" text-anchor="middle">Mar 2026: 1,602 total (+281 this month)</text>
  </g>

  <circle cx="820.0" cy="55.9" r="4" class="dot"/>
  <text x="810.0" y="45.9" class="total">1,602</text>

</svg>