<svg xmlns="http://www.w3.org/2000/svg" width="840" height="196" viewBox="0 0 840 196" fill="none">
  <style>
    .label { font-family: -apple-system, BlinkMacSystemFont, 'Segoe UI', Helvetica, Arial, sans-serif; font-size: 10px; fill: #8b949e; }
    .title { font-family: -apple-system, BlinkMacSystemFont, 'Segoe UI', Helvetica, Arial, sans-serif; font-size: 11px; fill: #8b949e; font-weight: 600; }
    .total { font-family: -apple-system, BlinkMacSystemFont, 'Segoe UI', Helvetica, Arial, sans-serif; font-size: 11px; fill: #7ee787; font-weight: 600; }
    .grid { stroke: #21262d; stroke-width: 1; }
    .line { stroke: #7ee787; stroke-width: 2; stroke-linecap: round; stroke-linejoin: round; fill: none; }
    .dot { fill: #7ee787; }
    .area { fill: url(#areaGrad); }
    /* Hover interaction */
    .hoverpoint .guide { stroke: #7ee787; stroke-width: 1; stroke-dasharray: 2,2; opacity: 0; }
    .hoverpoint .hover-dot { fill: #7ee787; opacity: 0; }
    .hoverpoint .hit { fill: transparent; cursor: pointer; }
    .hoverpoint .tooltip-bg { fill: #161b22; stroke: #30363d; stroke-width: 1; opacity: 0; }
    .hoverpoint .tooltip-text { font-family: -apple-system, BlinkMacSystemFont, 'Segoe UI', Helvetica, Arial, sans-serif; font-size: 9px; fill: #c9d1d9; opacity: 0; }
    .hoverpoint:hover .guide { opacity: 0.5; }
    .hoverpoint:hover .hover-dot { opacity: 1; }
    .hoverpoint:hover .tooltip-bg { opacity: 0.95; }
    .hoverpoint:hover .tooltip-text { opacity: 1; }
  </style>
  <defs>
    <linearGradient id="areaGrad" x1="0" y1="0" x2="0" y2="1">
      <stop offset="0%" stop-color="#7ee787" stop-opacity="0.15"/>
      <stop offset="100%" stop-color="#7ee787" stop-opacity="0.01"/>
    </linearGradient>
  </defs>

  <text x="60" y="18" class="title">Cumulative Commits</text>

  <line x1="60" y1="160.0" x2="820" y2="160.0" class="grid"/>
  <text x="50" y="163.0" class="label" text-anchor="end">0</text>
  <line x1="60" y1="127.5" x2="820" y2="127.5" class="grid" stroke-dasharray="3,3"/>
  <text x="50" y="130.5" class="label" text-anchor="end">500</text>
  <line x1="60" y1="95.0" x2="820" y2="95.0" class="grid" stroke-dasharray="3,3"/>
  <text x="50" y="98.0" class="label" text-anchor="end">1,000</text>
  <line x1="60" y1="62.5" x2="820" y2="62.5" class="grid" stroke-dasharray="3,3"/>
  <text x="50" y="65.5" class="label" text-anchor="end">1,500</text>
  <line x1="60" y1="30.0" x2="820" y2="30.0" class="grid" stroke-dasharray="3,3"/>
  <text x="50" y="33.0" class="label" text-anchor="end">2,000</text>

  <text x="70.0" y="186" class="label" text-anchor="middle">2021</text>
  <text x="203.1" y="186" class="label" text-anchor="middle">2022</text>
  <text x="346.3" y="186" class="label" text-anchor="middle">2023</text>
  <text x="489.4" y="186" class="label" text-anchor="middle">2024</text>
  <text x="632.9" y="186" class="label" text-anchor="middle">2025</text>
  <text x="776.1" y="186" class="label" text-anchor="middle">2026</text>


  <path class="area" d="M60.0,160.0 L60.0,160.0 60.0,160.0 L182.7,159.7 L183.1,159.6 L184.3,159.5 L203.1,159.4 L203.5,159.0 L203.9,158.9 L204.3,158.6 L204.7,158.6 L205.1,158.4 L205.9,158.1 L206.3,157.9 L206.7,157.8 L207.1,157.7 L208.6,157.5 L209.0,157.5 L209.4,157.4 L213.3,157.3 L223.5,157.1 L277.3,157.1 L277.6,156.5 L279.2,156.4 L280.0,155.9 L285.9,155.8 L286.7,155.6 L287.1,155.4 L287.5,155.3 L288.2,155.1 L288.6,154.7 L289.0,154.0 L289.4,153.9 L291.0,153.6 L291.8,153.6 L293.7,153.4 L299.2,153.2 L309.8,153.0 L315.7,152.9 L318.4,152.8 L318.8,152.7 L319.2,152.5 L319.6,152.3 L320.8,151.8 L321.2,151.7 L321.6,151.7 L323.1,151.4 L323.5,151.1 L323.9,151.0 L324.3,150.4 L324.7,149.9 L325.1,149.7 L325.5,149.5 L326.3,149.4 L327.8,149.3 L332.2,149.1 L343.5,149.0 L343.9,148.7 L344.3,148.6 L348.2,148.0 L348.6,146.5 L349.8,146.3 L350.2,146.3 L352.2,146.1 L365.5,145.8 L365.9,145.7 L366.3,145.6 L367.1,145.4 L369.8,145.2 L370.6,144.9 L371.0,144.7 L372.9,144.6 L382.4,144.4 L575.3,144.3 L576.1,144.2 L576.9,144.1 L577.6,144.0 L578.0,143.9 L578.4,143.8 L578.8,143.8 L579.2,143.7 L583.1,143.6 L594.1,143.6 L597.3,143.5 L598.4,143.4 L600.8,143.4 L603.1,143.3 L603.5,143.2 L605.1,143.2 L606.3,143.1 L607.1,143.0 L636.1,143.0 L636.5,142.8 L637.3,142.8 L637.6,142.7 L638.8,142.5 L640.8,142.4 L646.3,142.3 L657.6,141.7 L658.0,141.5 L663.1,141.3 L663.5,141.2 L664.7,141.1 L666.3,140.9 L668.2,140.2 L668.6,138.4 L669.0,138.3 L671.4,138.2 L672.5,138.1 L672.9,138.0 L673.7,137.8 L676.9,137.7 L679.6,137.2 L681.6,136.7 L682.0,136.5 L683.1,136.2 L683.5,135.4 L683.9,135.2 L684.3,134.9 L684.7,134.7 L685.1,134.4 L685.9,133.9 L687.1,133.5 L701.2,133.3 L702.0,132.4 L710.6,132.2 L715.7,131.9 L718.0,131.9 L718.4,131.8 L720.8,131.7 L721.2,131.7 L721.6,131.6 L722.0,131.4 L722.4,131.1 L722.7,130.5 L723.1,130.4 L725.5,129.4 L725.9,129.3 L726.7,129.1 L729.4,128.8 L730.2,128.7 L730.6,128.5 L731.4,128.5 L731.8,128.0 L732.2,127.9 L732.9,127.8 L733.3,127.6 L733.7,127.6 L734.1,127.5 L735.7,127.1 L736.1,127.0 L736.5,126.8 L736.9,126.7 L737.3,126.6 L737.6,126.4 L738.8,126.1 L739.2,125.9 L739.6,125.8 L740.0,125.6 L740.4,125.2 L741.2,125.1 L741.6,124.4 L742.0,124.1 L742.4,122.8 L742.7,122.5 L743.1,122.2 L743.5,121.5 L743.9,121.4 L744.3,121.2 L744.7,121.1 L745.1,120.7 L747.1,120.0 L747.5,119.8 L747.8,119.2 L748.2,118.1 L748.6,118.0 L749.4,117.9 L749.8,116.9 L750.2,116.4 L750.6,116.3 L751.0,115.3 L751.8,115.0 L752.2,114.9 L752.5,114.8 L752.9,114.7 L753.3,114.6 L753.7,114.6 L755.3,114.4 L756.1,114.3 L756.5,113.8 L756.9,113.5 L758.0,113.5 L760.0,113.3 L762.4,113.1 L762.7,112.9 L763.1,112.9 L763.5,112.5 L763.9,111.6 L764.3,111.5 L764.7,111.4 L765.1,111.3 L765.5,111.1 L765.9,110.6 L770.2,110.5 L770.6,110.4 L774.1,109.9 L774.9,109.5 L775.3,109.4 L775.7,109.1 L776.1,109.0 L777.3,108.8 L777.6,107.9 L778.0,105.5 L778.4,103.5 L778.8,103.4 L779.2,103.1 L780.0,102.8 L780.4,102.5 L780.8,102.1 L781.6,102.0 L782.0,101.4 L782.4,101.3 L783.1,100.4 L783.5,100.3 L783.9,99.8 L784.3,99.5 L784.7,99.1 L785.1,99.0 L786.3,98.4 L786.7,98.1 L787.1,96.6 L787.5,94.4 L787.8,93.6 L788.2,92.6 L788.6,92.5 L789.0,92.1 L789.4,91.9 L789.8,91.4 L790.2,90.6 L790.6,90.6 L791.0,90.1 L791.4,90.0 L791.8,89.5 L792.2,89.0 L792.5,88.4 L792.9,87.8 L793.3,87.7 L793.7,87.5 L794.1,86.4 L794.5,84.4 L794.9,84.1 L795.7,83.7 L796.1,83.5 L796.5,83.4 L796.9,80.2 L797.3,78.8 L797.6,77.3 L798.0,76.8 L798.4,74.4 L798.8,74.1 L799.2,74.0 L799.6,73.5 L800.0,72.4 L800.4,70.4 L800.8,68.2 L801.2,68.1 L801.6,67.6 L802.4,67.5 L802.7,66.2 L803.1,65.2 L803.5,63.8 L803.9,63.6 L804.3,63.5 L804.7,61.4 L805.1,58.9 L805.5,57.8 L805.9,57.3 L806.3,56.6 L806.7,56.1 L807.1,56.0 L807.8,55.7 L808.2,55.3 L808.6,55.2 L809.0,55.1 L809.4,55.0 L810.6,55.0 L811.0,54.9 L811.8,54.8 L812.5,54.7 L812.9,54.6 L813.7,53.7 L814.1,53.1 L814.5,52.9 L816.9,52.8 L817.3,52.3 L817.6,52.2 L818.0,51.6 L818.4,51.6 L818.8,51.4 L819.2,51.3 L819.6,50.3 L820.0,50.2 L820.0,160.0 Z"/>
  <polyline class="line" points="60.0,160.0 182.7,159.7 183.1,159.6 184.3,159.5 203.1,159.4 203.5,159.0 203.9,158.9 204.3,158.6 204.7,158.6 205.1,158.4 205.9,158.1 206.3,157.9 206.7,157.8 207.1,157.7 208.6,157.5 209.0,157.5 209.4,157.4 213.3,157.3 223.5,157.1 277.3,157.1 277.6,156.5 279.2,156.4 280.0,155.9 285.9,155.8 286.7,155.6 287.1,155.4 287.5,155.3 288.2,155.1 288.6,154.7 289.0,154.0 289.4,153.9 291.0,153.6 291.8,153.6 293.7,153.4 299.2,153.2 309.8,153.0 315.7,152.9 318.4,152.8 318.8,152.7 319.2,152.5 319.6,152.3 320.8,151.8 321.2,151.7 321.6,151.7 323.1,151.4 323.5,151.1 323.9,151.0 324.3,150.4 324.7,149.9 325.1,149.7 325.5,149.5 326.3,149.4 327.8,149.3 332.2,149.1 343.5,149.0 343.9,148.7 344.3,148.6 348.2,148.0 348.6,146.5 349.8,146.3 350.2,146.3 352.2,146.1 365.5,145.8 365.9,145.7 366.3,145.6 367.1,145.4 369.8,145.2 370.6,144.9 371.0,144.7 372.9,144.6 382.4,144.4 575.3,144.3 576.1,144.2 576.9,144.1 577.6,144.0 578.0,143.9 578.4,143.8 578.8,143.8 579.2,143.7 583.1,143.6 594.1,143.6 597.3,143.5 598.4,143.4 600.8,143.4 603.1,143.3 603.5,143.2 605.1,143.2 606.3,143.1 607.1,143.0 636.1,143.0 636.5,142.8 637.3,142.8 637.6,142.7 638.8,142.5 640.8,142.4 646.3,142.3 657.6,141.7 658.0,141.5 663.1,141.3 663.5,141.2 664.7,141.1 666.3,140.9 668.2,140.2 668.6,138.4 669.0,138.3 671.4,138.2 672.5,138.1 672.9,138.0 673.7,137.8 676.9,137.7 679.6,137.2 681.6,136.7 682.0,136.5 683.1,136.2 683.5,135.4 683.9,135.2 684.3,134.9 684.7,134.7 685.1,134.4 685.9,133.9 687.1,133.5 701.2,133.3 702.0,132.4 710.6,132.2 715.7,131.9 718.0,131.9 718.4,131.8 720.8,131.7 721.2,131.7 721.6,131.6 722.0,131.4 722.4,131.1 722.7,130.5 723.1,130.4 725.5,129.4 725.9,129.3 726.7,129.1 729.4,128.8 730.2,128.7 730.6,128.5 731.4,128.5 731.8,128.0 732.2,127.9 732.9,127.8 733.3,127.6 733.7,127.6 734.1,127.5 735.7,127.1 736.1,127.0 736.5,126.8 736.9,126.7 737.3,126.6 737.6,126.4 738.8,126.1 739.2,125.9 739.6,125.8 740.0,125.6 740.4,125.2 741.2,125.1 741.6,124.4 742.0,124.1 742.4,122.8 742.7,122.5 743.1,122.2 743.5,121.5 743.9,121.4 744.3,121.2 744.7,121.1 745.1,120.7 747.1,120.0 747.5,119.8 747.8,119.2 748.2,118.1 748.6,118.0 749.4,117.9 749.8,116.9 750.2,116.4 750.6,116.3 751.0,115.3 751.8,115.0 752.2,114.9 752.5,114.8 752.9,114.7 753.3,114.6 753.7,114.6 755.3,114.4 756.1,114.3 756.5,113.8 756.9,113.5 758.0,113.5 760.0,113.3 762.4,113.1 762.7,112.9 763.1,112.9 763.5,112.5 763.9,111.6 764.3,111.5 764.7,111.4 765.1,111.3 765.5,111.1 765.9,110.6 770.2,110.5 770.6,110.4 774.1,109.9 774.9,109.5 775.3,109.4 775.7,109.1 776.1,109.0 777.3,108.8 777.6,107.9 778.0,105.5 778.4,103.5 778.8,103.4 779.2,103.1 780.0,102.8 780.4,102.5 780.8,102.1 781.6,102.0 782.0,101.4 782.4,101.3 783.1,100.4 783.5,100.3 783.9,99.8 784.3,99.5 784.7,99.1 785.1,99.0 786.3,98.4 786.7,98.1 787.1,96.6 787.5,94.4 787.8,93.6 788.2,92.6 788.6,92.5 789.0,92.1 789.4,91.9 789.8,91.4 790.2,90.6 790.6,90.6 791.0,90.1 791.4,90.0 791.8,89.5 792.2,89.0 792.5,88.4 792.9,87.8 793.3,87.7 793.7,87.5 794.1,86.4 794.5,84.4 794.9,84.1 795.7,83.7 796.1,83.5 796.5,83.4 796.9,80.2 797.3,78.8 797.6,77.3 798.0,76.8 798.4,74.4 798.8,74.1 799.2,74.0 799.6,73.5 800.0,72.4 800.4,70.4 800.8,68.2 801.2,68.1 801.6,67.6 802.4,67.5 802.7,66.2 803.1,65.2 803.5,63.8 803.9,63.6 804.3,63.5 804.7,61.4 805.1,58.9 805.5,57.8 805.9,57.3 806.3,56.6 806.7,56.1 807.1,56.0 807.8,55.7 808.2,55.3 808.6,55.2 809.0,55.1 809.4,55.0 810.6,55.0 811.0,54.9 811.8,54.8 812.5,54.7 812.9,54.6 813.7,53.7 814.1,53.1 814.5,52.9 816.9,52.8 817.3,52.3 817.6,52.2 818.0,51.6 818.4,51.6 818.8,51.4 819.2,51.3 819.6,50.3 820.0,50.2"/>

  <g class="hoverpoint">
    <line x1="184.3" y1="30" x2="184.3" y2="160.0" class="guide"/>
    <circle cx="184.3" cy="159.5" r="16" class="hit"/>
    <circle cx="184.3" cy="159.5" r="4" class="hover-dot"><title>Nov 2021: 7 total (+7 this month)</title></circle>
    <rect x="114.3" y="133.5" width="140" height="20" rx="4" class="tooltip-bg"/>
    <text x="184.3" y="147.5" class="tooltip-text" text-anchor="middle">Nov 2021: 7 total (+7 this month)</text>
  </g>
  <g class="hoverpoint">
    <line x1="213.3" y1="30" x2="213.3" y2="160.0" class="guide"/>
    <circle cx="213.3" cy="157.3" r="16" class="hit"/>
    <circle cx="213.3" cy="157.3" r="4" class="hover-dot"><title>Jan 2022: 41 total (+34 this month)</title></circle>
    <rect x="143.3" y="131.3" width="140" height="20" rx="4" class="tooltip-bg"/>
    <text x="213.3" y="145.3" class="tooltip-text" text-anchor="middle">Jan 2022: 41 total (+34 this month)</text>
  </g>
  <g class="hoverpoint">
    <line x1="223.5" y1="30" x2="223.5" y2="160.0" class="guide"/>
    <circle cx="223.5" cy="157.1" r="16" class="hit"/>
    <circle cx="223.5" cy="157.1" r="4" class="hover-dot"><title>Feb 2022: 44 total (+3 this month)</title></circle>
    <rect x="153.5" y="131.1" width="140" height="20" rx="4" class="tooltip-bg"/>
    <text x="223.5" y="145.1" class="tooltip-text" text-anchor="middle">Feb 2022: 44 total (+3 this month)</text>
  </g>
  <g class="hoverpoint">
    <line x1="285.9" y1="30" x2="285.9" y2="160.0" class="guide"/>
    <circle cx="285.9" cy="155.8" r="16" class="hit"/>
    <circle cx="285.9" cy="155.8" r="4" class="hover-dot"><title>Jul 2022: 65 total (+21 this month)</title></circle>
    <rect x="215.9" y="129.8" width="140" height="20" rx="4" class="tooltip-bg"/>
    <text x="285.9" y="143.8" class="tooltip-text" text-anchor="middle">Jul 2022: 65 total (+21 this month)</text>
  </g>
  <g class="hoverpoint">
    <line x1="293.7" y1="30" x2="293.7" y2="160.0" class="guide"/>
    <circle cx="293.7" cy="153.4" r="16" class="hit"/>
    <circle cx="293.7" cy="153.4" r="4" class="hover-dot"><title>Aug 2022: 101 total (+36 this month)</title></circle>
    <rect x="223.7" y="127.4" width="140" height="20" rx="4" class="tooltip-bg"/>
    <text x="293.7" y="141.4" class="tooltip-text" text-anchor="middle">Aug 2022: 101 total (+36 this month)</text>
  </g>
  <g class="hoverpoint">
    <line x1="309.8" y1="30" x2="309.8" y2="160.0" class="guide"/>
    <circle cx="309.8" cy="153.0" r="16" class="hit"/>
    <circle cx="309.8" cy="153.0" r="4" class="hover-dot"><title>Sep 2022: 108 total (+7 this month)</title></circle>
    <rect x="239.8" y="127.0" width="140" height="20" rx="4" class="tooltip-bg"/>
    <text x="309.8" y="141.0" class="tooltip-text" text-anchor="middle">Sep 2022: 108 total (+7 this month)</text>
  </g>
  <g class="hoverpoint">
    <line x1="321.6" y1="30" x2="321.6" y2="160.0" class="guide"/>
    <circle cx="321.6" cy="151.7" r="16" class="hit"/>
    <circle cx="321.6" cy="151.7" r="4" class="hover-dot"><title>Oct 2022: 128 total (+20 this month)</title></circle>
    <rect x="251.6" y="125.7" width="140" height="20" rx="4" class="tooltip-bg"/>
    <text x="321.6" y="139.7" class="tooltip-text" text-anchor="middle">Oct 2022: 128 total (+20 this month)</text>
  </g>
  <g class="hoverpoint">
    <line x1="332.2" y1="30" x2="332.2" y2="160.0" class="guide"/>
    <circle cx="332.2" cy="149.1" r="16" class="hit"/>
    <circle cx="332.2" cy="149.1" r="4" class="hover-dot"><title>Nov 2022: 168 total (+40 this month)</title></circle>
    <rect x="262.2" y="123.1" width="140" height="20" rx="4" class="tooltip-bg"/>
    <text x="332.2" y="137.1" class="tooltip-text" text-anchor="middle">Nov 2022: 168 total (+40 this month)</text>
  </g>
  <g class="hoverpoint">
    <line x1="344.3" y1="30" x2="344.3" y2="160.0" class="guide"/>
    <circle cx="344.3" cy="148.6" r="16" class="hit"/>
    <circle cx="344.3" cy="148.6" r="4" class="hover-dot"><title>Dec 2022: 175 total (+7 this month)</title></circle>
    <rect x="274.3" y="122.6" width="140" height="20" rx="4" class="tooltip-bg"/>
    <text x="344.3" y="136.6" class="tooltip-text" text-anchor="middle">Dec 2022: 175 total (+7 this month)</text>
  </g>
  <g class="hoverpoint">
    <line x1="352.2" y1="30" x2="352.2" y2="160.0" class="guide"/>
    <circle cx="352.2" cy="146.1" r="16" class="hit"/>
    <circle cx="352.2" cy="146.1" r="4" class="hover-dot"><title>Jan 2023: 214 total (+39 this month)</title></circle>
    <rect x="282.2" y="120.1" width="140" height="20" rx="4" class="tooltip-bg"/>
    <text x="352.2" y="134.1" class="tooltip-text" text-anchor="middle">Jan 2023: 214 total (+39 this month)</text>
  </g>
  <g class="hoverpoint">
    <line x1="367.1" y1="30" x2="367.1" y2="160.0" class="guide"/>
    <circle cx="367.1" cy="145.4" r="16" class="hit"/>
    <circle cx="367.1" cy="145.4" r="4" class="hover-dot"><title>Feb 2023: 225 total (+11 this month)</title></circle>
    <rect x="297.1" y="119.4" width="140" height="20" rx="4" class="tooltip-bg"/>
    <text x="367.1" y="133.4" class="tooltip-text" text-anchor="middle">Feb 2023: 225 total (+11 this month)</text>
  </g>
  <g class="hoverpoint">
    <line x1="372.9" y1="30" x2="372.9" y2="160.0" class="guide"/>
    <circle cx="372.9" cy="144.6" r="16" class="hit"/>
    <circle cx="372.9" cy="144.6" r="4" class="hover-dot"><title>Mar 2023: 237 total (+12 this month)</title></circle>
    <rect x="302.9" y="118.6" width="140" height="20" rx="4" class="tooltip-bg"/>
    <text x="372.9" y="132.6" class="tooltip-text" text-anchor="middle">Mar 2023: 237 total (+12 this month)</text>
  </g>
  <g class="hoverpoint">
    <line x1="382.4" y1="30" x2="382.4" y2="160.0" class="guide"/>
    <circle cx="382.4" cy="144.4" r="16" class="hit"/>
    <circle cx="382.4" cy="144.4" r="4" class="hover-dot"><title>Apr 2023: 240 total (+3 this month)</title></circle>
    <rect x="312.4" y="118.4" width="140" height="20" rx="4" class="tooltip-bg"/>
    <text x="382.4" y="132.4" class="tooltip-text" text-anchor="middle">Apr 2023: 240 total (+3 this month)</text>
  </g>
  <g class="hoverpoint">
    <line x1="583.1" y1="30" x2="583.1" y2="160.0" class="guide"/>
    <circle cx="583.1" cy="143.6" r="16" class="hit"/>
    <circle cx="583.1" cy="143.6" r="4" class="hover-dot"><title>Aug 2024: 252 total (+12 this month)</title></circle>
    <rect x="513.1" y="117.6" width="140" height="20" rx="4" class="tooltip-bg"/>
    <text x="583.1" y="131.6" class="tooltip-text" text-anchor="middle">Aug 2024: 252 total (+12 this month)</text>
  </g>
  <g class="hoverpoint">
    <line x1="594.1" y1="30" x2="594.1" y2="160.0" class="guide"/>
    <circle cx="594.1" cy="143.6" r="16" class="hit"/>
    <circle cx="594.1" cy="143.6" r="4" class="hover-dot"><title>Sep 2024: 253 total (+1 this month)</title></circle>
    <rect x="524.1" y="117.6" width="140" height="20" rx="4" class="tooltip-bg"/>
    <text x="594.1" y="131.6" class="tooltip-text" text-anchor="middle">Sep 2024: 253 total (+1 this month)</text>
  </g>
  <g class="hoverpoint">
    <line x1="607.1" y1="30" x2="607.1" y2="160.0" class="guide"/>
    <circle cx="607.1" cy="143.0" r="16" class="hit"/>
    <circle cx="607.1" cy="143.0" r="4" class="hover-dot"><title>Oct 2024: 261 total (+8 this month)</title></circle>
    <rect x="537.1" y="117.0" width="140" height="20" rx="4" class="tooltip-bg"/>
    <text x="607.1" y="131.0" class="tooltip-text" text-anchor="middle">Oct 2024: 261 total (+8 this month)</text>
  </g>
  <g class="hoverpoint">
    <line x1="640.8" y1="30" x2="640.8" y2="160.0" class="guide"/>
    <circle cx="640.8" cy="142.4" r="16" class="hit"/>
    <circle cx="640.8" cy="142.4" r="4" class="hover-dot"><title>Jan 2025: 270 total (+9 this month)</title></circle>
    <rect x="570.8" y="116.4" width="140" height="20" rx="4" class="tooltip-bg"/>
    <text x="640.8" y="130.4" class="tooltip-text" text-anchor="middle">Jan 2025: 270 total (+9 this month)</text>
  </g>
  <g class="hoverpoint">
    <line x1="646.3" y1="30" x2="646.3" y2="160.0" class="guide"/>
    <circle cx="646.3" cy="142.3" r="16" class="hit"/>
    <circle cx="646.3" cy="142.3" r="4" class="hover-dot"><title>Feb 2025: 272 total (+2 this month)</title></circle>
    <rect x="576.3" y="116.3" width="140" height="20" rx="4" class="tooltip-bg"/>
    <text x="646.3" y="130.3" class="tooltip-text" text-anchor="middle">Feb 2025: 272 total (+2 this month)</text>
  </g>
  <g class="hoverpoint">
    <line x1="666.3" y1="30" x2="666.3" y2="160.0" class="guide"/>
    <circle cx="666.3" cy="140.9" r="16" class="hit"/>
    <circle cx="666.3" cy="140.9" r="4" class="hover-dot"><title>Mar 2025: 294 total (+22 this month)</title></circle>
    <rect x="596.3" y="114.9" width="140" height="20" rx="4" class="tooltip-bg"/>
    <text x="666.3" y="128.9" class="tooltip-text" text-anchor="middle">Mar 2025: 294 total (+22 this month)</text>
  </g>
  <g class="hoverpoint">
    <line x1="679.6" y1="30" x2="679.6" y2="160.0" class="guide"/>
    <circle cx="679.6" cy="137.2" r="16" class="hit"/>
    <circle cx="679.6" cy="137.2" r="4" class="hover-dot"><title>Apr 2025: 351 total (+57 this month)</title></circle>
    <rect x="609.6" y="111.2" width="140" height="20" rx="4" class="tooltip-bg"/>
    <text x="679.6" y="125.2" class="tooltip-text" text-anchor="middle">Apr 2025: 351 total (+57 this month)</text>
  </g>
  <g class="hoverpoint">
    <line x1="687.1" y1="30" x2="687.1" y2="160.0" class="guide"/>
    <circle cx="687.1" cy="133.5" r="16" class="hit"/>
    <circle cx="687.1" cy="133.5" r="4" class="hover-dot"><title>May 2025: 408 total (+57 this month)</title></circle>
    <rect x="617.1" y="107.5" width="140" height="20" rx="4" class="tooltip-bg"/>
    <text x="687.1" y="121.5" class="tooltip-text" text-anchor="middle">May 2025: 408 total (+57 this month)</text>
  </g>
  <g class="hoverpoint">
    <line x1="702.0" y1="30" x2="702.0" y2="160.0" class="guide"/>
    <circle cx="702.0" cy="132.4" r="16" class="hit"/>
    <circle cx="702.0" cy="132.4" r="4" class="hover-dot"><title>Jun 2025: 424 total (+16 this month)</title></circle>
    <rect x="632.0" y="106.4" width="140" height="20" rx="4" class="tooltip-bg"/>
    <text x="702.0" y="120.4" class="tooltip-text" text-anchor="middle">Jun 2025: 424 total (+16 this month)</text>
  </g>
  <g class="hoverpoint">
    <line x1="715.7" y1="30" x2="715.7" y2="160.0" class="guide"/>
    <circle cx="715.7" cy="131.9" r="16" class="hit"/>
    <circle cx="715.7" cy="131.9" r="4" class="hover-dot"><title>Jul 2025: 432 total (+8 this month)</title></circle>
    <rect x="645.7" y="105.9" width="140" height="20" rx="4" class="tooltip-bg"/>
    <text x="715.7" y="119.9" class="tooltip-text" text-anchor="middle">Jul 2025: 432 total (+8 this month)</text>
  </g>
  <g class="hoverpoint">
    <line x1="726.7" y1="30" x2="726.7" y2="160.0" class="guide"/>
    <circle cx="726.7" cy="129.1" r="16" class="hit"/>
    <circle cx="726.7" cy="129.1" r="4" class="hover-dot"><title>Aug 2025: 475 total (+43 this month)</title></circle>
    <rect x="656.7" y="103.1" width="140" height="20" rx="4" class="tooltip-bg"/>
    <text x="726.7" y="117.1" class="tooltip-text" text-anchor="middle">Aug 2025: 475 total (+43 this month)</text>
  </g>
  <g class="hoverpoint">
    <line x1="739.6" y1="30" x2="739.6" y2="160.0" class="guide"/>
    <circle cx="739.6" cy="125.8" r="16" class="hit"/>
    <circle cx="739.6" cy="125.8" r="4" class="hover-dot"><title>Sep 2025: 526 total (+51 this month)</title></circle>
    <rect x="669.6" y="99.8" width="140" height="20" rx="4" class="tooltip-bg"/>
    <text x="739.6" y="113.8" class="tooltip-text" text-anchor="middle">Sep 2025: 526 total (+51 this month)</text>
  </g>
  <g class="hoverpoint">
    <line x1="751.8" y1="30" x2="751.8" y2="160.0" class="guide"/>
    <circle cx="751.8" cy="115.0" r="16" class="hit"/>
    <circle cx="751.8" cy="115.0" r="4" class="hover-dot"><title>Oct 2025: 692 total (+166 this month)</title></circle>
    <rect x="681.8" y="89.0" width="140" height="20" rx="4" class="tooltip-bg"/>
    <text x="751.8" y="103.0" class="tooltip-text" text-anchor="middle">Oct 2025: 692 total (+166 this month)</text>
  </g>
  <g class="hoverpoint">
    <line x1="763.5" y1="30" x2="763.5" y2="160.0" class="guide"/>
    <circle cx="763.5" cy="112.5" r="16" class="hit"/>
    <circle cx="763.5" cy="112.5" r="4" class="hover-dot"><title>Nov 2025: 731 total (+39 this month)</title></circle>
    <rect x="693.5" y="86.5" width="140" height="20" rx="4" class="tooltip-bg"/>
    <text x="763.5" y="100.5" class="tooltip-text" text-anchor="middle">Nov 2025: 731 total (+39 this month)</text>
  </g>
  <g class="hoverpoint">
    <line x1="775.7" y1="30" x2="775.7" y2="160.0" class="guide"/>
    <circle cx="775.7" cy="109.1" r="16" class="hit"/>
    <circle cx="775.7" cy="109.1" r="4" class="hover-dot"><title>Dec 2025: 783 total (+52 this month)</title></circle>
    <rect x="705.7" y="83.1" width="140" height="20" rx="4" class="tooltip-bg"/>
    <text x="775.7" y="97.1" class="tooltip-text" text-anchor="middle">Dec 2025: 783 total (+52 this month)</text>
  </g>
  <g class="hoverpoint">
    <line x1="787.8" y1="30" x2="787.8" y2="160.0" class="guide"/>
    <circle cx="787.8" cy="93.6" r="16" class="hit"/>
    <circle cx="787.8" cy="93.6" r="4" class="hover-dot"><title>Jan 2026: 1,022 total (+239 this month)</title></circle>
    <rect x="717.8" y="67.6" width="140" height="20" rx="4" class="tooltip-bg"/>
    <text x="787.8" y="81.6" class="tooltip-text" text-anchor="middle">Jan 2026: 1,022 total (+239 this month)</text>
  </g>
  <g class="hoverpoint">
    <line x1="798.8" y1="30" x2="798.8" y2="160.0" class="guide"/>
    <circle cx="798.8" cy="74.1" r="16" class="hit"/>
    <circle cx="798.8" cy="74.1" r="4" class="hover-dot"><title>Feb 2026: 1,321 total (+299 this month)</title></circle>
    <rect x="728.8" y="48.1" width="140" height="20" rx="4" class="tooltip-bg"/>
    <text x="798.8" y="62.1" class="tooltip-text" text-anchor="middle">Feb 2026: 1,321 total (+299 this month)</text>
  </g>
  <g class="hoverpoint">
    <line x1="811.0" y1="30" x2="811.0" y2="160.0" class="guide"/>
    <circle cx="811.0" cy="54.9" r="16" class="hit"/>
    <circle cx="811.0" cy="54.9" r="4" class="hover-dot"><title>Mar 2026: 1,617 total (+296 this month)</title></circle>
    <rect x="741.0" y="28.9" width="140" height="20" rx="4" class="tooltip-bg"/>
    <text x="811.0" y="42.9" class="tooltip-text" text-anchor="middle">Mar 2026: 1,617 total (+296 this month)</text>
  </g>
  <g class="hoverpoint">
    <line x1="820.0" y1="30" x2="820.0" y2="160.0" class="guide"/>
    <circle cx="820.0" cy="50.2" r="16" class="hit"/>
    <circle cx="820.0" cy="50.2" r="4" class="hover-dot"><title>Apr 2026: 1,689 total (+72 this month)</title></circle>
    <rect x="750.0" y="24.2" width="140" height="20" rx="4" class="tooltip-bg"/>
    <text x="820.0" y="38.2" class="tooltip-text" text-anchor="middle">Apr 2026: 1,689 total (+72 this month)</text>
  </g>

  <circle cx="820.0" cy="50.2" r="4" class="dot"/>
  <text x="810.0" y="40.2" class="total">1,689</text>

</svg>