<svg xmlns="http://www.w3.org/2000/svg" width="840" height="196" viewBox="0 0 840 196" fill="none">
  <style>
    .label { font-family: -apple-system, BlinkMacSystemFont, 'Segoe UI', Helvetica, Arial, sans-serif; font-size: 10px; fill: #8b949e; }
    .title { font-family: -apple-system, BlinkMacSystemFont, 'Segoe UI', Helvetica, Arial, sans-serif; font-size: 11px; fill: #8b949e; font-weight: 600; }
    .total { font-family: -apple-system, BlinkMacSystemFont, 'Segoe UI', Helvetica, Arial, sans-serif; font-size: 11px; fill: #7ee787; font-weight: 600; }
    .grid { stroke: #21262d; stroke-width: 1; }
    .line { stroke: #7ee787; stroke-width: 2; stroke-linecap: round; stroke-linejoin: round; fill: none; }
    .dot { fill: #7ee787; }
    .area { fill: url(#areaGrad); }
    /* Hover interaction */
    .hoverpoint .guide { stroke: #7ee787; stroke-width: 1; stroke-dasharray: 2,2; opacity: 0; }
    .hoverpoint .hover-dot { fill: #7ee787; opacity: 0; }
    .hoverpoint .hit { fill: transparent; cursor: pointer; }
    .hoverpoint .tooltip-bg { fill: #161b22; stroke: #30363d; stroke-width: 1; opacity: 0; }
    .hoverpoint .tooltip-text { font-family: -apple-system, BlinkMacSystemFont, 'Segoe UI', Helvetica, Arial, sans-serif; font-size: 9px; fill: #c9d1d9; opacity: 0; }
    .hoverpoint:hover .guide { opacity: 0.5; }
    .hoverpoint:hover .hover-dot { opacity: 1; }
    .hoverpoint:hover .tooltip-bg { opacity: 0.95; }
    .hoverpoint:hover .tooltip-text { opacity: 1; }
  </style>
  <defs>
    <linearGradient id="areaGrad" x1="0" y1="0" x2="0" y2="1">
      <stop offset="0%" stop-color="#7ee787" stop-opacity="0.15"/>
      <stop offset="100%" stop-color="#7ee787" stop-opacity="0.01"/>
    </linearGradient>
  </defs>

  <text x="60" y="18" class="title">Cumulative Commits</text>

  <line x1="60" y1="160.0" x2="820" y2="160.0" class="grid"/>
  <text x="50" y="163.0" class="label" text-anchor="end">0</text>
  <line x1="60" y1="127.5" x2="820" y2="127.5" class="grid" stroke-dasharray="3,3"/>
  <text x="50" y="130.5" class="label" text-anchor="end">1,000</text>
  <line x1="60" y1="95.0" x2="820" y2="95.0" class="grid" stroke-dasharray="3,3"/>
  <text x="50" y="98.0" class="label" text-anchor="end">2,000</text>
  <line x1="60" y1="62.5" x2="820" y2="62.5" class="grid" stroke-dasharray="3,3"/>
  <text x="50" y="65.5" class="label" text-anchor="end">3,000</text>
  <line x1="60" y1="30.0" x2="820" y2="30.0" class="grid" stroke-dasharray="3,3"/>
  <text x="50" y="33.0" class="label" text-anchor="end">4,000</text>

  <text x="70.0" y="186" class="label" text-anchor="middle">2021</text>
  <text x="198.4" y="186" class="label" text-anchor="middle">2022</text>
  <text x="336.7" y="186" class="label" text-anchor="middle">2023</text>
  <text x="475.1" y="186" class="label" text-anchor="middle">2024</text>
  <text x="613.8" y="186" class="label" text-anchor="middle">2025</text>
  <text x="752.1" y="186" class="label" text-anchor="middle">2026</text>


  <path class="area" d="M60.0,160.0 L60.0,160.0 60.0,160.0 L178.6,159.8 L179.0,159.8 L180.2,159.8 L198.4,159.7 L198.7,159.5 L199.1,159.4 L199.5,159.3 L199.9,159.3 L200.2,159.2 L201.0,159.1 L201.4,159.0 L201.8,158.9 L202.1,158.9 L203.7,158.8 L204.0,158.7 L204.4,158.7 L208.2,158.7 L218.1,158.6 L270.0,158.5 L270.4,158.2 L271.9,158.2 L272.6,158.0 L278.3,157.9 L279.1,157.8 L279.5,157.7 L279.9,157.7 L280.6,157.6 L281.0,157.3 L281.4,157.0 L281.7,156.9 L283.3,156.8 L284.0,156.8 L285.9,156.7 L291.2,156.6 L301.5,156.5 L307.1,156.5 L309.8,156.4 L310.2,156.4 L310.6,156.3 L310.9,156.1 L312.1,155.9 L312.4,155.9 L312.8,155.8 L314.3,155.7 L314.7,155.5 L315.1,155.5 L315.5,155.2 L315.9,154.9 L316.2,154.8 L316.6,154.8 L317.4,154.7 L318.9,154.6 L323.1,154.5 L334.1,154.5 L334.4,154.3 L334.8,154.3 L338.6,154.0 L339.0,153.3 L340.1,153.2 L340.5,153.1 L342.4,153.0 L355.3,152.9 L355.7,152.8 L356.0,152.8 L356.8,152.7 L359.5,152.6 L360.2,152.4 L360.6,152.4 L362.5,152.3 L371.6,152.2 L558.1,152.1 L558.8,152.1 L559.6,152.1 L560.3,152.0 L560.7,151.9 L561.1,151.9 L561.5,151.9 L561.9,151.8 L565.7,151.8 L576.3,151.8 L579.3,151.7 L580.4,151.7 L582.7,151.7 L585.0,151.6 L585.4,151.6 L586.9,151.6 L588.0,151.6 L588.8,151.5 L616.8,151.5 L617.2,151.4 L618.0,151.4 L618.3,151.4 L619.5,151.3 L621.4,151.2 L626.7,151.2 L637.7,150.9 L638.1,150.7 L643.0,150.7 L643.4,150.6 L644.5,150.5 L646.0,150.4 L647.9,150.1 L648.3,149.2 L648.7,149.1 L650.9,149.1 L652.1,149.0 L652.5,149.0 L653.2,148.9 L656.2,148.9 L658.9,148.6 L660.8,148.4 L661.2,148.3 L662.3,148.1 L662.7,147.7 L663.1,147.6 L663.5,147.5 L663.8,147.4 L664.2,147.2 L665.0,146.9 L666.1,146.7 L679.8,146.6 L680.5,146.2 L688.8,146.1 L693.8,146.0 L696.0,145.9 L696.4,145.9 L698.7,145.9 L699.1,145.8 L699.5,145.8 L699.8,145.7 L700.2,145.6 L700.6,145.2 L701.0,145.2 L703.3,144.7 L703.6,144.6 L704.4,144.6 L707.0,144.4 L707.8,144.4 L708.2,144.3 L708.9,144.2 L709.3,144.0 L709.7,143.9 L710.5,143.9 L710.8,143.8 L711.2,143.8 L711.6,143.8 L713.1,143.6 L713.5,143.5 L713.9,143.4 L714.2,143.4 L714.6,143.3 L715.0,143.2 L716.1,143.1 L716.5,143.0 L716.9,142.9 L717.3,142.8 L717.7,142.6 L718.4,142.5 L718.8,142.2 L719.2,142.0 L719.6,141.4 L719.9,141.2 L720.3,141.1 L720.7,140.8 L721.1,140.7 L721.4,140.6 L721.8,140.6 L722.2,140.3 L724.1,140.0 L724.5,139.9 L724.9,139.6 L725.2,139.0 L725.6,139.0 L726.4,138.9 L726.8,138.5 L727.1,138.2 L727.5,138.2 L727.9,137.6 L728.6,137.5 L729.0,137.4 L729.4,137.4 L729.8,137.3 L730.2,137.3 L730.5,137.3 L732.1,137.2 L732.8,137.2 L733.2,136.9 L733.6,136.8 L734.7,136.7 L736.6,136.7 L738.9,136.5 L739.3,136.5 L739.6,136.4 L740.0,136.2 L740.4,135.8 L740.8,135.8 L741.2,135.7 L741.5,135.7 L741.9,135.6 L742.3,135.3 L746.5,135.2 L746.8,135.2 L750.3,135.0 L751.0,134.7 L751.4,134.7 L751.8,134.6 L752.1,134.5 L753.3,134.4 L753.7,133.9 L754.0,132.8 L754.4,131.7 L754.8,131.7 L755.2,131.6 L755.9,131.4 L756.3,131.3 L756.7,131.0 L757.5,131.0 L757.8,130.7 L758.2,130.7 L759.0,130.2 L759.4,130.2 L759.7,129.9 L760.1,129.7 L760.5,129.5 L760.9,129.5 L762.0,129.2 L762.4,129.1 L762.8,128.3 L763.1,127.2 L763.5,126.8 L763.9,126.3 L764.3,126.2 L764.7,126.1 L765.0,125.9 L765.4,125.7 L765.8,125.3 L766.2,125.3 L766.6,125.0 L766.9,125.0 L767.3,124.7 L767.7,124.5 L768.1,124.2 L768.4,123.9 L768.8,123.8 L769.2,123.7 L769.6,123.2 L770.0,122.2 L770.3,122.0 L771.1,121.8 L771.5,121.7 L771.9,121.7 L772.2,120.1 L772.6,119.4 L773.0,118.7 L773.4,118.4 L773.8,117.2 L774.1,117.1 L774.5,117.0 L774.9,116.7 L775.3,116.2 L775.7,115.2 L776.0,114.1 L776.4,114.0 L776.8,113.8 L777.5,113.8 L777.9,113.1 L778.3,112.6 L778.7,111.9 L779.1,111.8 L779.4,111.8 L779.8,110.7 L780.2,109.5 L780.6,108.9 L781.0,108.7 L781.3,108.3 L781.7,108.0 L782.1,108.0 L782.9,107.8 L783.2,107.6 L783.6,107.6 L784.0,107.5 L784.4,107.5 L785.5,107.5 L785.9,107.4 L786.6,107.4 L787.4,107.3 L787.8,107.3 L788.5,106.9 L788.9,106.6 L789.3,106.3 L791.6,106.2 L792.0,106.0 L792.3,105.9 L792.7,105.7 L793.1,105.6 L793.5,105.5 L793.8,105.5 L794.2,105.0 L794.6,104.5 L795.0,104.3 L795.4,103.4 L795.7,103.2 L796.5,103.2 L796.9,103.2 L798.0,102.9 L798.4,102.5 L798.8,102.2 L799.2,102.0 L799.5,101.3 L799.9,98.5 L800.3,97.3 L800.7,97.1 L801.0,96.9 L801.4,96.4 L801.8,96.3 L802.2,92.4 L802.6,87.6 L802.9,86.2 L803.3,86.2 L803.7,85.4 L804.1,84.9 L804.5,82.0 L804.8,80.2 L805.2,77.5 L805.6,77.0 L806.0,76.9 L806.4,76.8 L806.7,75.9 L807.1,74.6 L807.5,71.6 L807.9,71.1 L808.2,70.5 L808.6,69.7 L809.0,69.2 L809.4,68.7 L809.8,66.9 L810.1,66.5 L810.5,66.4 L810.9,66.1 L811.3,66.0 L811.7,65.7 L812.0,65.6 L812.4,64.7 L812.8,63.4 L813.2,62.3 L813.6,62.2 L813.9,61.2 L814.3,60.5 L814.7,60.4 L815.1,60.2 L815.5,60.1 L815.8,59.8 L816.2,59.0 L816.6,58.1 L817.0,57.8 L817.3,52.8 L817.7,52.7 L818.1,52.6 L818.9,52.2 L819.6,52.0 L820.0,51.8 L820.0,160.0 Z"/>
  <polyline class="line" points="60.0,160.0 178.6,159.8 179.0,159.8 180.2,159.8 198.4,159.7 198.7,159.5 199.1,159.4 199.5,159.3 199.9,159.3 200.2,159.2 201.0,159.1 201.4,159.0 201.8,158.9 202.1,158.9 203.7,158.8 204.0,158.7 204.4,158.7 208.2,158.7 218.1,158.6 270.0,158.5 270.4,158.2 271.9,158.2 272.6,158.0 278.3,157.9 279.1,157.8 279.5,157.7 279.9,157.7 280.6,157.6 281.0,157.3 281.4,157.0 281.7,156.9 283.3,156.8 284.0,156.8 285.9,156.7 291.2,156.6 301.5,156.5 307.1,156.5 309.8,156.4 310.2,156.4 310.6,156.3 310.9,156.1 312.1,155.9 312.4,155.9 312.8,155.8 314.3,155.7 314.7,155.5 315.1,155.5 315.5,155.2 315.9,154.9 316.2,154.8 316.6,154.8 317.4,154.7 318.9,154.6 323.1,154.5 334.1,154.5 334.4,154.3 334.8,154.3 338.6,154.0 339.0,153.3 340.1,153.2 340.5,153.1 342.4,153.0 355.3,152.9 355.7,152.8 356.0,152.8 356.8,152.7 359.5,152.6 360.2,152.4 360.6,152.4 362.5,152.3 371.6,152.2 558.1,152.1 558.8,152.1 559.6,152.1 560.3,152.0 560.7,151.9 561.1,151.9 561.5,151.9 561.9,151.8 565.7,151.8 576.3,151.8 579.3,151.7 580.4,151.7 582.7,151.7 585.0,151.6 585.4,151.6 586.9,151.6 588.0,151.6 588.8,151.5 616.8,151.5 617.2,151.4 618.0,151.4 618.3,151.4 619.5,151.3 621.4,151.2 626.7,151.2 637.7,150.9 638.1,150.7 643.0,150.7 643.4,150.6 644.5,150.5 646.0,150.4 647.9,150.1 648.3,149.2 648.7,149.1 650.9,149.1 652.1,149.0 652.5,149.0 653.2,148.9 656.2,148.9 658.9,148.6 660.8,148.4 661.2,148.3 662.3,148.1 662.7,147.7 663.1,147.6 663.5,147.5 663.8,147.4 664.2,147.2 665.0,146.9 666.1,146.7 679.8,146.6 680.5,146.2 688.8,146.1 693.8,146.0 696.0,145.9 696.4,145.9 698.7,145.9 699.1,145.8 699.5,145.8 699.8,145.7 700.2,145.6 700.6,145.2 701.0,145.2 703.3,144.7 703.6,144.6 704.4,144.6 707.0,144.4 707.8,144.4 708.2,144.3 708.9,144.2 709.3,144.0 709.7,143.9 710.5,143.9 710.8,143.8 711.2,143.8 711.6,143.8 713.1,143.6 713.5,143.5 713.9,143.4 714.2,143.4 714.6,143.3 715.0,143.2 716.1,143.1 716.5,143.0 716.9,142.9 717.3,142.8 717.7,142.6 718.4,142.5 718.8,142.2 719.2,142.0 719.6,141.4 719.9,141.2 720.3,141.1 720.7,140.8 721.1,140.7 721.4,140.6 721.8,140.6 722.2,140.3 724.1,140.0 724.5,139.9 724.9,139.6 725.2,139.0 725.6,139.0 726.4,138.9 726.8,138.5 727.1,138.2 727.5,138.2 727.9,137.6 728.6,137.5 729.0,137.4 729.4,137.4 729.8,137.3 730.2,137.3 730.5,137.3 732.1,137.2 732.8,137.2 733.2,136.9 733.6,136.8 734.7,136.7 736.6,136.7 738.9,136.5 739.3,136.5 739.6,136.4 740.0,136.2 740.4,135.8 740.8,135.8 741.2,135.7 741.5,135.7 741.9,135.6 742.3,135.3 746.5,135.2 746.8,135.2 750.3,135.0 751.0,134.7 751.4,134.7 751.8,134.6 752.1,134.5 753.3,134.4 753.7,133.9 754.0,132.8 754.4,131.7 754.8,131.7 755.2,131.6 755.9,131.4 756.3,131.3 756.7,131.0 757.5,131.0 757.8,130.7 758.2,130.7 759.0,130.2 759.4,130.2 759.7,129.9 760.1,129.7 760.5,129.5 760.9,129.5 762.0,129.2 762.4,129.1 762.8,128.3 763.1,127.2 763.5,126.8 763.9,126.3 764.3,126.2 764.7,126.1 765.0,125.9 765.4,125.7 765.8,125.3 766.2,125.3 766.6,125.0 766.9,125.0 767.3,124.7 767.7,124.5 768.1,124.2 768.4,123.9 768.8,123.8 769.2,123.7 769.6,123.2 770.0,122.2 770.3,122.0 771.1,121.8 771.5,121.7 771.9,121.7 772.2,120.1 772.6,119.4 773.0,118.7 773.4,118.4 773.8,117.2 774.1,117.1 774.5,117.0 774.9,116.7 775.3,116.2 775.7,115.2 776.0,114.1 776.4,114.0 776.8,113.8 777.5,113.8 777.9,113.1 778.3,112.6 778.7,111.9 779.1,111.8 779.4,111.8 779.8,110.7 780.2,109.5 780.6,108.9 781.0,108.7 781.3,108.3 781.7,108.0 782.1,108.0 782.9,107.8 783.2,107.6 783.6,107.6 784.0,107.5 784.4,107.5 785.5,107.5 785.9,107.4 786.6,107.4 787.4,107.3 787.8,107.3 788.5,106.9 788.9,106.6 789.3,106.3 791.6,106.2 792.0,106.0 792.3,105.9 792.7,105.7 793.1,105.6 793.5,105.5 793.8,105.5 794.2,105.0 794.6,104.5 795.0,104.3 795.4,103.4 795.7,103.2 796.5,103.2 796.9,103.2 798.0,102.9 798.4,102.5 798.8,102.2 799.2,102.0 799.5,101.3 799.9,98.5 800.3,97.3 800.7,97.1 801.0,96.9 801.4,96.4 801.8,96.3 802.2,92.4 802.6,87.6 802.9,86.2 803.3,86.2 803.7,85.4 804.1,84.9 804.5,82.0 804.8,80.2 805.2,77.5 805.6,77.0 806.0,76.9 806.4,76.8 806.7,75.9 807.1,74.6 807.5,71.6 807.9,71.1 808.2,70.5 808.6,69.7 809.0,69.2 809.4,68.7 809.8,66.9 810.1,66.5 810.5,66.4 810.9,66.1 811.3,66.0 811.7,65.7 812.0,65.6 812.4,64.7 812.8,63.4 813.2,62.3 813.6,62.2 813.9,61.2 814.3,60.5 814.7,60.4 815.1,60.2 815.5,60.1 815.8,59.8 816.2,59.0 816.6,58.1 817.0,57.8 817.3,52.8 817.7,52.7 818.1,52.6 818.9,52.2 819.6,52.0 820.0,51.8"/>

  <g class="hoverpoint">
    <line x1="180.2" y1="30" x2="180.2" y2="160.0" class="guide"/>
    <circle cx="180.2" cy="159.8" r="16" class="hit"/>
    <circle cx="180.2" cy="159.8" r="4" class="hover-dot"><title>Nov 2021: 7 total (+7 this month)</title></circle>
    <rect x="110.2" y="133.8" width="140" height="20" rx="4" class="tooltip-bg"/>
    <text x="180.2" y="147.8" class="tooltip-text" text-anchor="middle">Nov 2021: 7 total (+7 this month)</text>
  </g>
  <g class="hoverpoint">
    <line x1="208.2" y1="30" x2="208.2" y2="160.0" class="guide"/>
    <circle cx="208.2" cy="158.7" r="16" class="hit"/>
    <circle cx="208.2" cy="158.7" r="4" class="hover-dot"><title>Jan 2022: 41 total (+34 this month)</title></circle>
    <rect x="138.2" y="132.7" width="140" height="20" rx="4" class="tooltip-bg"/>
    <text x="208.2" y="146.7" class="tooltip-text" text-anchor="middle">Jan 2022: 41 total (+34 this month)</text>
  </g>
  <g class="hoverpoint">
    <line x1="218.1" y1="30" x2="218.1" y2="160.0" class="guide"/>
    <circle cx="218.1" cy="158.6" r="16" class="hit"/>
    <circle cx="218.1" cy="158.6" r="4" class="hover-dot"><title>Feb 2022: 44 total (+3 this month)</title></circle>
    <rect x="148.1" y="132.6" width="140" height="20" rx="4" class="tooltip-bg"/>
    <text x="218.1" y="146.6" class="tooltip-text" text-anchor="middle">Feb 2022: 44 total (+3 this month)</text>
  </g>
  <g class="hoverpoint">
    <line x1="278.3" y1="30" x2="278.3" y2="160.0" class="guide"/>
    <circle cx="278.3" cy="157.9" r="16" class="hit"/>
    <circle cx="278.3" cy="157.9" r="4" class="hover-dot"><title>Jul 2022: 65 total (+21 this month)</title></circle>
    <rect x="208.3" y="131.9" width="140" height="20" rx="4" class="tooltip-bg"/>
    <text x="278.3" y="145.9" class="tooltip-text" text-anchor="middle">Jul 2022: 65 total (+21 this month)</text>
  </g>
  <g class="hoverpoint">
    <line x1="285.9" y1="30" x2="285.9" y2="160.0" class="guide"/>
    <circle cx="285.9" cy="156.7" r="16" class="hit"/>
    <circle cx="285.9" cy="156.7" r="4" class="hover-dot"><title>Aug 2022: 101 total (+36 this month)</title></circle>
    <rect x="215.9" y="130.7" width="140" height="20" rx="4" class="tooltip-bg"/>
    <text x="285.9" y="144.7" class="tooltip-text" text-anchor="middle">Aug 2022: 101 total (+36 this month)</text>
  </g>
  <g class="hoverpoint">
    <line x1="301.5" y1="30" x2="301.5" y2="160.0" class="guide"/>
    <circle cx="301.5" cy="156.5" r="16" class="hit"/>
    <circle cx="301.5" cy="156.5" r="4" class="hover-dot"><title>Sep 2022: 108 total (+7 this month)</title></circle>
    <rect x="231.5" y="130.5" width="140" height="20" rx="4" class="tooltip-bg"/>
    <text x="301.5" y="144.5" class="tooltip-text" text-anchor="middle">Sep 2022: 108 total (+7 this month)</text>
  </g>
  <g class="hoverpoint">
    <line x1="312.8" y1="30" x2="312.8" y2="160.0" class="guide"/>
    <circle cx="312.8" cy="155.8" r="16" class="hit"/>
    <circle cx="312.8" cy="155.8" r="4" class="hover-dot"><title>Oct 2022: 128 total (+20 this month)</title></circle>
    <rect x="242.8" y="129.8" width="140" height="20" rx="4" class="tooltip-bg"/>
    <text x="312.8" y="143.8" class="tooltip-text" text-anchor="middle">Oct 2022: 128 total (+20 this month)</text>
  </g>
  <g class="hoverpoint">
    <line x1="323.1" y1="30" x2="323.1" y2="160.0" class="guide"/>
    <circle cx="323.1" cy="154.5" r="16" class="hit"/>
    <circle cx="323.1" cy="154.5" r="4" class="hover-dot"><title>Nov 2022: 168 total (+40 this month)</title></circle>
    <rect x="253.1" y="128.5" width="140" height="20" rx="4" class="tooltip-bg"/>
    <text x="323.1" y="142.5" class="tooltip-text" text-anchor="middle">Nov 2022: 168 total (+40 this month)</text>
  </g>
  <g class="hoverpoint">
    <line x1="334.8" y1="30" x2="334.8" y2="160.0" class="guide"/>
    <circle cx="334.8" cy="154.3" r="16" class="hit"/>
    <circle cx="334.8" cy="154.3" r="4" class="hover-dot"><title>Dec 2022: 175 total (+7 this month)</title></circle>
    <rect x="264.8" y="128.3" width="140" height="20" rx="4" class="tooltip-bg"/>
    <text x="334.8" y="142.3" class="tooltip-text" text-anchor="middle">Dec 2022: 175 total (+7 this month)</text>
  </g>
  <g class="hoverpoint">
    <line x1="342.4" y1="30" x2="342.4" y2="160.0" class="guide"/>
    <circle cx="342.4" cy="153.0" r="16" class="hit"/>
    <circle cx="342.4" cy="153.0" r="4" class="hover-dot"><title>Jan 2023: 214 total (+39 this month)</title></circle>
    <rect x="272.4" y="127.0" width="140" height="20" rx="4" class="tooltip-bg"/>
    <text x="342.4" y="141.0" class="tooltip-text" text-anchor="middle">Jan 2023: 214 total (+39 this month)</text>
  </g>
  <g class="hoverpoint">
    <line x1="356.8" y1="30" x2="356.8" y2="160.0" class="guide"/>
    <circle cx="356.8" cy="152.7" r="16" class="hit"/>
    <circle cx="356.8" cy="152.7" r="4" class="hover-dot"><title>Feb 2023: 225 total (+11 this month)</title></circle>
    <rect x="286.8" y="126.7" width="140" height="20" rx="4" class="tooltip-bg"/>
    <text x="356.8" y="140.7" class="tooltip-text" text-anchor="middle">Feb 2023: 225 total (+11 this month)</text>
  </g>
  <g class="hoverpoint">
    <line x1="362.5" y1="30" x2="362.5" y2="160.0" class="guide"/>
    <circle cx="362.5" cy="152.3" r="16" class="hit"/>
    <circle cx="362.5" cy="152.3" r="4" class="hover-dot"><title>Mar 2023: 237 total (+12 this month)</title></circle>
    <rect x="292.5" y="126.3" width="140" height="20" rx="4" class="tooltip-bg"/>
    <text x="362.5" y="140.3" class="tooltip-text" text-anchor="middle">Mar 2023: 237 total (+12 this month)</text>
  </g>
  <g class="hoverpoint">
    <line x1="371.6" y1="30" x2="371.6" y2="160.0" class="guide"/>
    <circle cx="371.6" cy="152.2" r="16" class="hit"/>
    <circle cx="371.6" cy="152.2" r="4" class="hover-dot"><title>Apr 2023: 240 total (+3 this month)</title></circle>
    <rect x="301.6" y="126.2" width="140" height="20" rx="4" class="tooltip-bg"/>
    <text x="371.6" y="140.2" class="tooltip-text" text-anchor="middle">Apr 2023: 240 total (+3 this month)</text>
  </g>
  <g class="hoverpoint">
    <line x1="565.7" y1="30" x2="565.7" y2="160.0" class="guide"/>
    <circle cx="565.7" cy="151.8" r="16" class="hit"/>
    <circle cx="565.7" cy="151.8" r="4" class="hover-dot"><title>Aug 2024: 252 total (+12 this month)</title></circle>
    <rect x="495.7" y="125.8" width="140" height="20" rx="4" class="tooltip-bg"/>
    <text x="565.7" y="139.8" class="tooltip-text" text-anchor="middle">Aug 2024: 252 total (+12 this month)</text>
  </g>
  <g class="hoverpoint">
    <line x1="576.3" y1="30" x2="576.3" y2="160.0" class="guide"/>
    <circle cx="576.3" cy="151.8" r="16" class="hit"/>
    <circle cx="576.3" cy="151.8" r="4" class="hover-dot"><title>Sep 2024: 253 total (+1 this month)</title></circle>
    <rect x="506.3" y="125.8" width="140" height="20" rx="4" class="tooltip-bg"/>
    <text x="576.3" y="139.8" class="tooltip-text" text-anchor="middle">Sep 2024: 253 total (+1 this month)</text>
  </g>
  <g class="hoverpoint">
    <line x1="588.8" y1="30" x2="588.8" y2="160.0" class="guide"/>
    <circle cx="588.8" cy="151.5" r="16" class="hit"/>
    <circle cx="588.8" cy="151.5" r="4" class="hover-dot"><title>Oct 2024: 261 total (+8 this month)</title></circle>
    <rect x="518.8" y="125.5" width="140" height="20" rx="4" class="tooltip-bg"/>
    <text x="588.8" y="139.5" class="tooltip-text" text-anchor="middle">Oct 2024: 261 total (+8 this month)</text>
  </g>
  <g class="hoverpoint">
    <line x1="621.4" y1="30" x2="621.4" y2="160.0" class="guide"/>
    <circle cx="621.4" cy="151.2" r="16" class="hit"/>
    <circle cx="621.4" cy="151.2" r="4" class="hover-dot"><title>Jan 2025: 270 total (+9 this month)</title></circle>
    <rect x="551.4" y="125.2" width="140" height="20" rx="4" class="tooltip-bg"/>
    <text x="621.4" y="139.2" class="tooltip-text" text-anchor="middle">Jan 2025: 270 total (+9 this month)</text>
  </g>
  <g class="hoverpoint">
    <line x1="626.7" y1="30" x2="626.7" y2="160.0" class="guide"/>
    <circle cx="626.7" cy="151.2" r="16" class="hit"/>
    <circle cx="626.7" cy="151.2" r="4" class="hover-dot"><title>Feb 2025: 272 total (+2 this month)</title></circle>
    <rect x="556.7" y="125.2" width="140" height="20" rx="4" class="tooltip-bg"/>
    <text x="626.7" y="139.2" class="tooltip-text" text-anchor="middle">Feb 2025: 272 total (+2 this month)</text>
  </g>
  <g class="hoverpoint">
    <line x1="646.0" y1="30" x2="646.0" y2="160.0" class="guide"/>
    <circle cx="646.0" cy="150.4" r="16" class="hit"/>
    <circle cx="646.0" cy="150.4" r="4" class="hover-dot"><title>Mar 2025: 294 total (+22 this month)</title></circle>
    <rect x="576.0" y="124.4" width="140" height="20" rx="4" class="tooltip-bg"/>
    <text x="646.0" y="138.4" class="tooltip-text" text-anchor="middle">Mar 2025: 294 total (+22 this month)</text>
  </g>
  <g class="hoverpoint">
    <line x1="658.9" y1="30" x2="658.9" y2="160.0" class="guide"/>
    <circle cx="658.9" cy="148.6" r="16" class="hit"/>
    <circle cx="658.9" cy="148.6" r="4" class="hover-dot"><title>Apr 2025: 351 total (+57 this month)</title></circle>
    <rect x="588.9" y="122.6" width="140" height="20" rx="4" class="tooltip-bg"/>
    <text x="658.9" y="136.6" class="tooltip-text" text-anchor="middle">Apr 2025: 351 total (+57 this month)</text>
  </g>
  <g class="hoverpoint">
    <line x1="666.1" y1="30" x2="666.1" y2="160.0" class="guide"/>
    <circle cx="666.1" cy="146.7" r="16" class="hit"/>
    <circle cx="666.1" cy="146.7" r="4" class="hover-dot"><title>May 2025: 408 total (+57 this month)</title></circle>
    <rect x="596.1" y="120.7" width="140" height="20" rx="4" class="tooltip-bg"/>
    <text x="666.1" y="134.7" class="tooltip-text" text-anchor="middle">May 2025: 408 total (+57 this month)</text>
  </g>
  <g class="hoverpoint">
    <line x1="680.5" y1="30" x2="680.5" y2="160.0" class="guide"/>
    <circle cx="680.5" cy="146.2" r="16" class="hit"/>
    <circle cx="680.5" cy="146.2" r="4" class="hover-dot"><title>Jun 2025: 424 total (+16 this month)</title></circle>
    <rect x="610.5" y="120.2" width="140" height="20" rx="4" class="tooltip-bg"/>
    <text x="680.5" y="134.2" class="tooltip-text" text-anchor="middle">Jun 2025: 424 total (+16 this month)</text>
  </g>
  <g class="hoverpoint">
    <line x1="693.8" y1="30" x2="693.8" y2="160.0" class="guide"/>
    <circle cx="693.8" cy="146.0" r="16" class="hit"/>
    <circle cx="693.8" cy="146.0" r="4" class="hover-dot"><title>Jul 2025: 432 total (+8 this month)</title></circle>
    <rect x="623.8" y="120.0" width="140" height="20" rx="4" class="tooltip-bg"/>
    <text x="693.8" y="134.0" class="tooltip-text" text-anchor="middle">Jul 2025: 432 total (+8 this month)</text>
  </g>
  <g class="hoverpoint">
    <line x1="704.4" y1="30" x2="704.4" y2="160.0" class="guide"/>
    <circle cx="704.4" cy="144.6" r="16" class="hit"/>
    <circle cx="704.4" cy="144.6" r="4" class="hover-dot"><title>Aug 2025: 475 total (+43 this month)</title></circle>
    <rect x="634.4" y="118.6" width="140" height="20" rx="4" class="tooltip-bg"/>
    <text x="704.4" y="132.6" class="tooltip-text" text-anchor="middle">Aug 2025: 475 total (+43 this month)</text>
  </g>
  <g class="hoverpoint">
    <line x1="716.9" y1="30" x2="716.9" y2="160.0" class="guide"/>
    <circle cx="716.9" cy="142.9" r="16" class="hit"/>
    <circle cx="716.9" cy="142.9" r="4" class="hover-dot"><title>Sep 2025: 526 total (+51 this month)</title></circle>
    <rect x="646.9" y="116.9" width="140" height="20" rx="4" class="tooltip-bg"/>
    <text x="716.9" y="130.9" class="tooltip-text" text-anchor="middle">Sep 2025: 526 total (+51 this month)</text>
  </g>
  <g class="hoverpoint">
    <line x1="728.6" y1="30" x2="728.6" y2="160.0" class="guide"/>
    <circle cx="728.6" cy="137.5" r="16" class="hit"/>
    <circle cx="728.6" cy="137.5" r="4" class="hover-dot"><title>Oct 2025: 692 total (+166 this month)</title></circle>
    <rect x="658.6" y="111.5" width="140" height="20" rx="4" class="tooltip-bg"/>
    <text x="728.6" y="125.5" class="tooltip-text" text-anchor="middle">Oct 2025: 692 total (+166 this month)</text>
  </g>
  <g class="hoverpoint">
    <line x1="740.0" y1="30" x2="740.0" y2="160.0" class="guide"/>
    <circle cx="740.0" cy="136.2" r="16" class="hit"/>
    <circle cx="740.0" cy="136.2" r="4" class="hover-dot"><title>Nov 2025: 731 total (+39 this month)</title></circle>
    <rect x="670.0" y="110.2" width="140" height="20" rx="4" class="tooltip-bg"/>
    <text x="740.0" y="124.2" class="tooltip-text" text-anchor="middle">Nov 2025: 731 total (+39 this month)</text>
  </g>
  <g class="hoverpoint">
    <line x1="751.8" y1="30" x2="751.8" y2="160.0" class="guide"/>
    <circle cx="751.8" cy="134.6" r="16" class="hit"/>
    <circle cx="751.8" cy="134.6" r="4" class="hover-dot"><title>Dec 2025: 783 total (+52 this month)</title></circle>
    <rect x="681.8" y="108.6" width="140" height="20" rx="4" class="tooltip-bg"/>
    <text x="751.8" y="122.6" class="tooltip-text" text-anchor="middle">Dec 2025: 783 total (+52 this month)</text>
  </g>
  <g class="hoverpoint">
    <line x1="763.5" y1="30" x2="763.5" y2="160.0" class="guide"/>
    <circle cx="763.5" cy="126.8" r="16" class="hit"/>
    <circle cx="763.5" cy="126.8" r="4" class="hover-dot"><title>Jan 2026: 1,022 total (+239 this month)</title></circle>
    <rect x="693.5" y="100.8" width="140" height="20" rx="4" class="tooltip-bg"/>
    <text x="763.5" y="114.8" class="tooltip-text" text-anchor="middle">Jan 2026: 1,022 total (+239 this month)</text>
  </g>
  <g class="hoverpoint">
    <line x1="774.1" y1="30" x2="774.1" y2="160.0" class="guide"/>
    <circle cx="774.1" cy="117.1" r="16" class="hit"/>
    <circle cx="774.1" cy="117.1" r="4" class="hover-dot"><title>Feb 2026: 1,321 total (+299 this month)</title></circle>
    <rect x="704.1" y="91.1" width="140" height="20" rx="4" class="tooltip-bg"/>
    <text x="774.1" y="105.1" class="tooltip-text" text-anchor="middle">Feb 2026: 1,321 total (+299 this month)</text>
  </g>
  <g class="hoverpoint">
    <line x1="785.9" y1="30" x2="785.9" y2="160.0" class="guide"/>
    <circle cx="785.9" cy="107.4" r="16" class="hit"/>
    <circle cx="785.9" cy="107.4" r="4" class="hover-dot"><title>Mar 2026: 1,617 total (+296 this month)</title></circle>
    <rect x="715.9" y="81.4" width="140" height="20" rx="4" class="tooltip-bg"/>
    <text x="785.9" y="95.4" class="tooltip-text" text-anchor="middle">Mar 2026: 1,617 total (+296 this month)</text>
  </g>
  <g class="hoverpoint">
    <line x1="796.9" y1="30" x2="796.9" y2="160.0" class="guide"/>
    <circle cx="796.9" cy="103.2" r="16" class="hit"/>
    <circle cx="796.9" cy="103.2" r="4" class="hover-dot"><title>Apr 2026: 1,749 total (+132 this month)</title></circle>
    <rect x="726.9" y="77.2" width="140" height="20" rx="4" class="tooltip-bg"/>
    <text x="796.9" y="91.2" class="tooltip-text" text-anchor="middle">Apr 2026: 1,749 total (+132 this month)</text>
  </g>
  <g class="hoverpoint">
    <line x1="809.0" y1="30" x2="809.0" y2="160.0" class="guide"/>
    <circle cx="809.0" cy="69.2" r="16" class="hit"/>
    <circle cx="809.0" cy="69.2" r="4" class="hover-dot"><title>May 2026: 2,795 total (+1,046 this month)</title></circle>
    <rect x="739.0" y="43.2" width="140" height="20" rx="4" class="tooltip-bg"/>
    <text x="809.0" y="57.2" class="tooltip-text" text-anchor="middle">May 2026: 2,795 total (+1,046 this month)</text>
  </g>
  <g class="hoverpoint">
    <line x1="820.0" y1="30" x2="820.0" y2="160.0" class="guide"/>
    <circle cx="820.0" cy="51.8" r="16" class="hit"/>
    <circle cx="820.0" cy="51.8" r="4" class="hover-dot"><title>Jun 2026: 3,330 total (+535 this month)</title></circle>
    <rect x="750.0" y="25.8" width="140" height="20" rx="4" class="tooltip-bg"/>
    <text x="820.0" y="39.8" class="tooltip-text" text-anchor="middle">Jun 2026: 3,330 total (+535 this month)</text>
  </g>

  <circle cx="820.0" cy="51.8" r="4" class="dot"/>
  <text x="810.0" y="41.8" class="total">3,330</text>

</svg>