<svg xmlns="http://www.w3.org/2000/svg" width="840" height="196" viewBox="0 0 840 196" fill="none">
  <style>
    .label { font-family: -apple-system, BlinkMacSystemFont, 'Segoe UI', Helvetica, Arial, sans-serif; font-size: 10px; fill: #8b949e; }
    .title { font-family: -apple-system, BlinkMacSystemFont, 'Segoe UI', Helvetica, Arial, sans-serif; font-size: 11px; fill: #8b949e; font-weight: 600; }
    .total { font-family: -apple-system, BlinkMacSystemFont, 'Segoe UI', Helvetica, Arial, sans-serif; font-size: 11px; fill: #7ee787; font-weight: 600; }
    .grid { stroke: #21262d; stroke-width: 1; }
    .line { stroke: #7ee787; stroke-width: 2; stroke-linecap: round; stroke-linejoin: round; fill: none; }
    .dot { fill: #7ee787; }
    .area { fill: url(#areaGrad); }
    /* Hover interaction */
    .hoverpoint .guide { stroke: #7ee787; stroke-width: 1; stroke-dasharray: 2,2; opacity: 0; }
    .hoverpoint .hover-dot { fill: #7ee787; opacity: 0; }
    .hoverpoint .hit { fill: transparent; cursor: pointer; }
    .hoverpoint .tooltip-bg { fill: #161b22; stroke: #30363d; stroke-width: 1; opacity: 0; }
    .hoverpoint .tooltip-text { font-family: -apple-system, BlinkMacSystemFont, 'Segoe UI', Helvetica, Arial, sans-serif; font-size: 9px; fill: #c9d1d9; opacity: 0; }
    .hoverpoint:hover .guide { opacity: 0.5; }
    .hoverpoint:hover .hover-dot { opacity: 1; }
    .hoverpoint:hover .tooltip-bg { opacity: 0.95; }
    .hoverpoint:hover .tooltip-text { opacity: 1; }
  </style>
  <defs>
    <linearGradient id="areaGrad" x1="0" y1="0" x2="0" y2="1">
      <stop offset="0%" stop-color="#7ee787" stop-opacity="0.15"/>
      <stop offset="100%" stop-color="#7ee787" stop-opacity="0.01"/>
    </linearGradient>
  </defs>

  <text x="60" y="18" class="title">Cumulative Commits</text>

  <line x1="60" y1="160.0" x2="820" y2="160.0" class="grid"/>
  <text x="50" y="163.0" class="label" text-anchor="end">0</text>
  <line x1="60" y1="127.5" x2="820" y2="127.5" class="grid" stroke-dasharray="3,3"/>
  <text x="50" y="130.5" class="label" text-anchor="end">500</text>
  <line x1="60" y1="95.0" x2="820" y2="95.0" class="grid" stroke-dasharray="3,3"/>
  <text x="50" y="98.0" class="label" text-anchor="end">1,000</text>
  <line x1="60" y1="62.5" x2="820" y2="62.5" class="grid" stroke-dasharray="3,3"/>
  <text x="50" y="65.5" class="label" text-anchor="end">1,500</text>
  <line x1="60" y1="30.0" x2="820" y2="30.0" class="grid" stroke-dasharray="3,3"/>
  <text x="50" y="33.0" class="label" text-anchor="end">2,000</text>

  <text x="70.0" y="186" class="label" text-anchor="middle">2021</text>
  <text x="203.7" y="186" class="label" text-anchor="middle">2022</text>
  <text x="347.3" y="186" class="label" text-anchor="middle">2023</text>
  <text x="491.0" y="186" class="label" text-anchor="middle">2024</text>
  <text x="635.0" y="186" class="label" text-anchor="middle">2025</text>
  <text x="778.7" y="186" class="label" text-anchor="middle">2026</text>


  <path class="area" d="M60.0,160.0 L60.0,160.0 60.0,160.0 L183.2,159.7 L183.6,159.6 L184.8,159.5 L203.7,159.4 L204.0,159.0 L204.4,158.9 L204.8,158.6 L205.2,158.6 L205.6,158.4 L206.4,158.1 L206.8,157.9 L207.2,157.8 L207.6,157.7 L209.2,157.5 L209.6,157.5 L210.0,157.4 L213.9,157.3 L224.1,157.1 L278.0,157.1 L278.4,156.5 L280.0,156.4 L280.8,155.9 L286.7,155.8 L287.5,155.6 L287.9,155.4 L288.3,155.3 L289.1,155.1 L289.5,154.7 L289.8,154.0 L290.2,153.9 L291.8,153.6 L292.6,153.6 L294.6,153.4 L300.1,153.2 L310.7,153.0 L316.6,152.9 L319.4,152.8 L319.8,152.7 L320.2,152.5 L320.5,152.3 L321.7,151.8 L322.1,151.7 L322.5,151.7 L324.1,151.4 L324.5,151.1 L324.9,151.0 L325.3,150.4 L325.7,149.9 L326.1,149.7 L326.5,149.5 L327.2,149.4 L328.8,149.3 L333.1,149.1 L344.6,149.0 L345.0,148.7 L345.3,148.6 L349.3,148.0 L349.7,146.5 L350.9,146.3 L351.2,146.3 L353.2,146.1 L366.6,145.8 L367.0,145.7 L367.4,145.6 L368.2,145.4 L370.9,145.2 L371.7,144.9 L372.1,144.7 L374.1,144.6 L383.5,144.4 L577.2,144.3 L577.9,144.2 L578.7,144.1 L579.5,144.0 L579.9,143.9 L580.3,143.8 L580.7,143.8 L581.1,143.7 L585.0,143.6 L596.1,143.6 L599.2,143.5 L600.4,143.4 L602.7,143.4 L605.1,143.3 L605.5,143.2 L607.1,143.2 L608.3,143.1 L609.0,143.0 L638.2,143.0 L638.6,142.8 L639.3,142.8 L639.7,142.7 L640.9,142.5 L642.9,142.4 L648.4,142.3 L659.8,141.7 L660.2,141.5 L665.3,141.3 L665.7,141.2 L666.9,141.1 L668.5,140.9 L670.4,140.2 L670.8,138.4 L671.2,138.3 L673.6,138.2 L674.8,138.1 L675.2,138.0 L676.0,137.8 L679.1,137.7 L681.9,137.2 L683.8,136.7 L684.2,136.5 L685.4,136.2 L685.8,135.4 L686.2,135.2 L686.6,134.9 L687.0,134.7 L687.4,134.4 L688.2,133.9 L689.3,133.5 L703.5,133.3 L704.3,132.4 L712.9,132.2 L718.1,131.9 L720.4,131.9 L720.8,131.8 L723.2,131.7 L723.6,131.7 L724.0,131.6 L724.4,131.4 L724.8,131.1 L725.1,130.5 L725.5,130.4 L727.9,129.4 L728.3,129.3 L729.1,129.1 L731.8,128.8 L732.6,128.7 L733.0,128.5 L733.8,128.5 L734.2,128.0 L734.6,127.9 L735.4,127.8 L735.8,127.6 L736.2,127.6 L736.6,127.5 L738.1,127.1 L738.5,127.0 L738.9,126.8 L739.3,126.7 L739.7,126.6 L740.1,126.4 L741.3,126.1 L741.7,125.9 L742.1,125.8 L742.5,125.6 L742.9,125.2 L743.6,125.1 L744.0,124.4 L744.4,124.1 L744.8,122.8 L745.2,122.5 L745.6,122.2 L746.0,121.5 L746.4,121.4 L746.8,121.2 L747.2,121.1 L747.6,120.7 L749.5,120.0 L749.9,119.8 L750.3,119.2 L750.7,118.1 L751.1,118.0 L751.9,117.9 L752.3,116.9 L752.7,116.4 L753.1,116.3 L753.5,115.3 L754.3,115.0 L754.7,114.9 L755.1,114.8 L755.5,114.7 L755.8,114.6 L756.2,114.6 L757.8,114.4 L758.6,114.3 L759.0,113.8 L759.4,113.5 L760.6,113.5 L762.5,113.3 L764.9,113.1 L765.3,112.9 L765.7,112.9 L766.1,112.5 L766.5,111.6 L766.9,111.5 L767.3,111.4 L767.7,111.3 L768.0,111.1 L768.4,110.6 L772.8,110.5 L773.2,110.4 L776.7,109.9 L777.5,109.5 L777.9,109.4 L778.3,109.1 L778.7,109.0 L779.9,108.8 L780.2,107.9 L780.6,105.5 L781.0,103.5 L781.4,103.4 L781.8,103.1 L782.6,102.8 L783.0,102.5 L783.4,102.1 L784.2,102.0 L784.6,101.4 L785.0,101.3 L785.8,100.4 L786.2,100.3 L786.5,99.8 L786.9,99.5 L787.3,99.1 L787.7,99.0 L788.9,98.4 L789.3,98.1 L789.7,96.6 L790.1,94.4 L790.5,93.6 L790.9,92.6 L791.3,92.5 L791.7,92.1 L792.1,91.9 L792.4,91.4 L792.8,90.6 L793.2,90.6 L793.6,90.1 L794.0,90.0 L794.4,89.5 L794.8,89.0 L795.2,88.4 L795.6,87.8 L796.0,87.7 L796.4,87.5 L796.8,86.4 L797.2,84.4 L797.6,84.1 L798.4,83.7 L798.7,83.5 L799.1,83.4 L799.5,80.2 L799.9,78.8 L800.3,77.3 L800.7,76.8 L801.1,74.4 L801.5,74.1 L801.9,74.0 L802.3,73.5 L802.7,72.4 L803.1,70.4 L803.5,68.2 L803.9,68.1 L804.3,67.6 L805.0,67.5 L805.4,66.2 L805.8,65.2 L806.2,63.8 L806.6,63.6 L807.0,63.5 L807.4,61.4 L807.8,58.9 L808.2,57.8 L808.6,57.3 L809.0,56.6 L809.4,56.1 L809.8,56.0 L810.6,55.7 L810.9,55.3 L811.3,55.2 L811.7,55.1 L812.1,55.0 L813.3,55.0 L813.7,54.9 L814.5,54.8 L815.3,54.7 L815.7,54.6 L816.5,53.7 L816.9,53.1 L817.2,52.9 L820.0,52.9 L820.0,160.0 Z"/>
  <polyline class="line" points="60.0,160.0 183.2,159.7 183.6,159.6 184.8,159.5 203.7,159.4 204.0,159.0 204.4,158.9 204.8,158.6 205.2,158.6 205.6,158.4 206.4,158.1 206.8,157.9 207.2,157.8 207.6,157.7 209.2,157.5 209.6,157.5 210.0,157.4 213.9,157.3 224.1,157.1 278.0,157.1 278.4,156.5 280.0,156.4 280.8,155.9 286.7,155.8 287.5,155.6 287.9,155.4 288.3,155.3 289.1,155.1 289.5,154.7 289.8,154.0 290.2,153.9 291.8,153.6 292.6,153.6 294.6,153.4 300.1,153.2 310.7,153.0 316.6,152.9 319.4,152.8 319.8,152.7 320.2,152.5 320.5,152.3 321.7,151.8 322.1,151.7 322.5,151.7 324.1,151.4 324.5,151.1 324.9,151.0 325.3,150.4 325.7,149.9 326.1,149.7 326.5,149.5 327.2,149.4 328.8,149.3 333.1,149.1 344.6,149.0 345.0,148.7 345.3,148.6 349.3,148.0 349.7,146.5 350.9,146.3 351.2,146.3 353.2,146.1 366.6,145.8 367.0,145.7 367.4,145.6 368.2,145.4 370.9,145.2 371.7,144.9 372.1,144.7 374.1,144.6 383.5,144.4 577.2,144.3 577.9,144.2 578.7,144.1 579.5,144.0 579.9,143.9 580.3,143.8 580.7,143.8 581.1,143.7 585.0,143.6 596.1,143.6 599.2,143.5 600.4,143.4 602.7,143.4 605.1,143.3 605.5,143.2 607.1,143.2 608.3,143.1 609.0,143.0 638.2,143.0 638.6,142.8 639.3,142.8 639.7,142.7 640.9,142.5 642.9,142.4 648.4,142.3 659.8,141.7 660.2,141.5 665.3,141.3 665.7,141.2 666.9,141.1 668.5,140.9 670.4,140.2 670.8,138.4 671.2,138.3 673.6,138.2 674.8,138.1 675.2,138.0 676.0,137.8 679.1,137.7 681.9,137.2 683.8,136.7 684.2,136.5 685.4,136.2 685.8,135.4 686.2,135.2 686.6,134.9 687.0,134.7 687.4,134.4 688.2,133.9 689.3,133.5 703.5,133.3 704.3,132.4 712.9,132.2 718.1,131.9 720.4,131.9 720.8,131.8 723.2,131.7 723.6,131.7 724.0,131.6 724.4,131.4 724.8,131.1 725.1,130.5 725.5,130.4 727.9,129.4 728.3,129.3 729.1,129.1 731.8,128.8 732.6,128.7 733.0,128.5 733.8,128.5 734.2,128.0 734.6,127.9 735.4,127.8 735.8,127.6 736.2,127.6 736.6,127.5 738.1,127.1 738.5,127.0 738.9,126.8 739.3,126.7 739.7,126.6 740.1,126.4 741.3,126.1 741.7,125.9 742.1,125.8 742.5,125.6 742.9,125.2 743.6,125.1 744.0,124.4 744.4,124.1 744.8,122.8 745.2,122.5 745.6,122.2 746.0,121.5 746.4,121.4 746.8,121.2 747.2,121.1 747.6,120.7 749.5,120.0 749.9,119.8 750.3,119.2 750.7,118.1 751.1,118.0 751.9,117.9 752.3,116.9 752.7,116.4 753.1,116.3 753.5,115.3 754.3,115.0 754.7,114.9 755.1,114.8 755.5,114.7 755.8,114.6 756.2,114.6 757.8,114.4 758.6,114.3 759.0,113.8 759.4,113.5 760.6,113.5 762.5,113.3 764.9,113.1 765.3,112.9 765.7,112.9 766.1,112.5 766.5,111.6 766.9,111.5 767.3,111.4 767.7,111.3 768.0,111.1 768.4,110.6 772.8,110.5 773.2,110.4 776.7,109.9 777.5,109.5 777.9,109.4 778.3,109.1 778.7,109.0 779.9,108.8 780.2,107.9 780.6,105.5 781.0,103.5 781.4,103.4 781.8,103.1 782.6,102.8 783.0,102.5 783.4,102.1 784.2,102.0 784.6,101.4 785.0,101.3 785.8,100.4 786.2,100.3 786.5,99.8 786.9,99.5 787.3,99.1 787.7,99.0 788.9,98.4 789.3,98.1 789.7,96.6 790.1,94.4 790.5,93.6 790.9,92.6 791.3,92.5 791.7,92.1 792.1,91.9 792.4,91.4 792.8,90.6 793.2,90.6 793.6,90.1 794.0,90.0 794.4,89.5 794.8,89.0 795.2,88.4 795.6,87.8 796.0,87.7 796.4,87.5 796.8,86.4 797.2,84.4 797.6,84.1 798.4,83.7 798.7,83.5 799.1,83.4 799.5,80.2 799.9,78.8 800.3,77.3 800.7,76.8 801.1,74.4 801.5,74.1 801.9,74.0 802.3,73.5 802.7,72.4 803.1,70.4 803.5,68.2 803.9,68.1 804.3,67.6 805.0,67.5 805.4,66.2 805.8,65.2 806.2,63.8 806.6,63.6 807.0,63.5 807.4,61.4 807.8,58.9 808.2,57.8 808.6,57.3 809.0,56.6 809.4,56.1 809.8,56.0 810.6,55.7 810.9,55.3 811.3,55.2 811.7,55.1 812.1,55.0 813.3,55.0 813.7,54.9 814.5,54.8 815.3,54.7 815.7,54.6 816.5,53.7 816.9,53.1 817.2,52.9 820.0,52.9"/>

  <g class="hoverpoint">
    <line x1="184.8" y1="30" x2="184.8" y2="160.0" class="guide"/>
    <circle cx="184.8" cy="159.5" r="16" class="hit"/>
    <circle cx="184.8" cy="159.5" r="4" class="hover-dot"><title>Nov 2021: 7 total (+7 this month)</title></circle>
    <rect x="114.8" y="133.5" width="140" height="20" rx="4" class="tooltip-bg"/>
    <text x="184.8" y="147.5" class="tooltip-text" text-anchor="middle">Nov 2021: 7 total (+7 this month)</text>
  </g>
  <g class="hoverpoint">
    <line x1="213.9" y1="30" x2="213.9" y2="160.0" class="guide"/>
    <circle cx="213.9" cy="157.3" r="16" class="hit"/>
    <circle cx="213.9" cy="157.3" r="4" class="hover-dot"><title>Jan 2022: 41 total (+34 this month)</title></circle>
    <rect x="143.9" y="131.3" width="140" height="20" rx="4" class="tooltip-bg"/>
    <text x="213.9" y="145.3" class="tooltip-text" text-anchor="middle">Jan 2022: 41 total (+34 this month)</text>
  </g>
  <g class="hoverpoint">
    <line x1="224.1" y1="30" x2="224.1" y2="160.0" class="guide"/>
    <circle cx="224.1" cy="157.1" r="16" class="hit"/>
    <circle cx="224.1" cy="157.1" r="4" class="hover-dot"><title>Feb 2022: 44 total (+3 this month)</title></circle>
    <rect x="154.1" y="131.1" width="140" height="20" rx="4" class="tooltip-bg"/>
    <text x="224.1" y="145.1" class="tooltip-text" text-anchor="middle">Feb 2022: 44 total (+3 this month)</text>
  </g>
  <g class="hoverpoint">
    <line x1="286.7" y1="30" x2="286.7" y2="160.0" class="guide"/>
    <circle cx="286.7" cy="155.8" r="16" class="hit"/>
    <circle cx="286.7" cy="155.8" r="4" class="hover-dot"><title>Jul 2022: 65 total (+21 this month)</title></circle>
    <rect x="216.7" y="129.8" width="140" height="20" rx="4" class="tooltip-bg"/>
    <text x="286.7" y="143.8" class="tooltip-text" text-anchor="middle">Jul 2022: 65 total (+21 this month)</text>
  </g>
  <g class="hoverpoint">
    <line x1="294.6" y1="30" x2="294.6" y2="160.0" class="guide"/>
    <circle cx="294.6" cy="153.4" r="16" class="hit"/>
    <circle cx="294.6" cy="153.4" r="4" class="hover-dot"><title>Aug 2022: 101 total (+36 this month)</title></circle>
    <rect x="224.6" y="127.4" width="140" height="20" rx="4" class="tooltip-bg"/>
    <text x="294.6" y="141.4" class="tooltip-text" text-anchor="middle">Aug 2022: 101 total (+36 this month)</text>
  </g>
  <g class="hoverpoint">
    <line x1="310.7" y1="30" x2="310.7" y2="160.0" class="guide"/>
    <circle cx="310.7" cy="153.0" r="16" class="hit"/>
    <circle cx="310.7" cy="153.0" r="4" class="hover-dot"><title>Sep 2022: 108 total (+7 this month)</title></circle>
    <rect x="240.7" y="127.0" width="140" height="20" rx="4" class="tooltip-bg"/>
    <text x="310.7" y="141.0" class="tooltip-text" text-anchor="middle">Sep 2022: 108 total (+7 this month)</text>
  </g>
  <g class="hoverpoint">
    <line x1="322.5" y1="30" x2="322.5" y2="160.0" class="guide"/>
    <circle cx="322.5" cy="151.7" r="16" class="hit"/>
    <circle cx="322.5" cy="151.7" r="4" class="hover-dot"><title>Oct 2022: 128 total (+20 this month)</title></circle>
    <rect x="252.5" y="125.7" width="140" height="20" rx="4" class="tooltip-bg"/>
    <text x="322.5" y="139.7" class="tooltip-text" text-anchor="middle">Oct 2022: 128 total (+20 this month)</text>
  </g>
  <g class="hoverpoint">
    <line x1="333.1" y1="30" x2="333.1" y2="160.0" class="guide"/>
    <circle cx="333.1" cy="149.1" r="16" class="hit"/>
    <circle cx="333.1" cy="149.1" r="4" class="hover-dot"><title>Nov 2022: 168 total (+40 this month)</title></circle>
    <rect x="263.1" y="123.1" width="140" height="20" rx="4" class="tooltip-bg"/>
    <text x="333.1" y="137.1" class="tooltip-text" text-anchor="middle">Nov 2022: 168 total (+40 this month)</text>
  </g>
  <g class="hoverpoint">
    <line x1="345.3" y1="30" x2="345.3" y2="160.0" class="guide"/>
    <circle cx="345.3" cy="148.6" r="16" class="hit"/>
    <circle cx="345.3" cy="148.6" r="4" class="hover-dot"><title>Dec 2022: 175 total (+7 this month)</title></circle>
    <rect x="275.3" y="122.6" width="140" height="20" rx="4" class="tooltip-bg"/>
    <text x="345.3" y="136.6" class="tooltip-text" text-anchor="middle">Dec 2022: 175 total (+7 this month)</text>
  </g>
  <g class="hoverpoint">
    <line x1="353.2" y1="30" x2="353.2" y2="160.0" class="guide"/>
    <circle cx="353.2" cy="146.1" r="16" class="hit"/>
    <circle cx="353.2" cy="146.1" r="4" class="hover-dot"><title>Jan 2023: 214 total (+39 this month)</title></circle>
    <rect x="283.2" y="120.1" width="140" height="20" rx="4" class="tooltip-bg"/>
    <text x="353.2" y="134.1" class="tooltip-text" text-anchor="middle">Jan 2023: 214 total (+39 this month)</text>
  </g>
  <g class="hoverpoint">
    <line x1="368.2" y1="30" x2="368.2" y2="160.0" class="guide"/>
    <circle cx="368.2" cy="145.4" r="16" class="hit"/>
    <circle cx="368.2" cy="145.4" r="4" class="hover-dot"><title>Feb 2023: 225 total (+11 this month)</title></circle>
    <rect x="298.2" y="119.4" width="140" height="20" rx="4" class="tooltip-bg"/>
    <text x="368.2" y="133.4" class="tooltip-text" text-anchor="middle">Feb 2023: 225 total (+11 this month)</text>
  </g>
  <g class="hoverpoint">
    <line x1="374.1" y1="30" x2="374.1" y2="160.0" class="guide"/>
    <circle cx="374.1" cy="144.6" r="16" class="hit"/>
    <circle cx="374.1" cy="144.6" r="4" class="hover-dot"><title>Mar 2023: 237 total (+12 this month)</title></circle>
    <rect x="304.1" y="118.6" width="140" height="20" rx="4" class="tooltip-bg"/>
    <text x="374.1" y="132.6" class="tooltip-text" text-anchor="middle">Mar 2023: 237 total (+12 this month)</text>
  </g>
  <g class="hoverpoint">
    <line x1="383.5" y1="30" x2="383.5" y2="160.0" class="guide"/>
    <circle cx="383.5" cy="144.4" r="16" class="hit"/>
    <circle cx="383.5" cy="144.4" r="4" class="hover-dot"><title>Apr 2023: 240 total (+3 this month)</title></circle>
    <rect x="313.5" y="118.4" width="140" height="20" rx="4" class="tooltip-bg"/>
    <text x="383.5" y="132.4" class="tooltip-text" text-anchor="middle">Apr 2023: 240 total (+3 this month)</text>
  </g>
  <g class="hoverpoint">
    <line x1="585.0" y1="30" x2="585.0" y2="160.0" class="guide"/>
    <circle cx="585.0" cy="143.6" r="16" class="hit"/>
    <circle cx="585.0" cy="143.6" r="4" class="hover-dot"><title>Aug 2024: 252 total (+12 this month)</title></circle>
    <rect x="515.0" y="117.6" width="140" height="20" rx="4" class="tooltip-bg"/>
    <text x="585.0" y="131.6" class="tooltip-text" text-anchor="middle">Aug 2024: 252 total (+12 this month)</text>
  </g>
  <g class="hoverpoint">
    <line x1="596.1" y1="30" x2="596.1" y2="160.0" class="guide"/>
    <circle cx="596.1" cy="143.6" r="16" class="hit"/>
    <circle cx="596.1" cy="143.6" r="4" class="hover-dot"><title>Sep 2024: 253 total (+1 this month)</title></circle>
    <rect x="526.1" y="117.6" width="140" height="20" rx="4" class="tooltip-bg"/>
    <text x="596.1" y="131.6" class="tooltip-text" text-anchor="middle">Sep 2024: 253 total (+1 this month)</text>
  </g>
  <g class="hoverpoint">
    <line x1="609.0" y1="30" x2="609.0" y2="160.0" class="guide"/>
    <circle cx="609.0" cy="143.0" r="16" class="hit"/>
    <circle cx="609.0" cy="143.0" r="4" class="hover-dot"><title>Oct 2024: 261 total (+8 this month)</title></circle>
    <rect x="539.0" y="117.0" width="140" height="20" rx="4" class="tooltip-bg"/>
    <text x="609.0" y="131.0" class="tooltip-text" text-anchor="middle">Oct 2024: 261 total (+8 this month)</text>
  </g>
  <g class="hoverpoint">
    <line x1="642.9" y1="30" x2="642.9" y2="160.0" class="guide"/>
    <circle cx="642.9" cy="142.4" r="16" class="hit"/>
    <circle cx="642.9" cy="142.4" r="4" class="hover-dot"><title>Jan 2025: 270 total (+9 this month)</title></circle>
    <rect x="572.9" y="116.4" width="140" height="20" rx="4" class="tooltip-bg"/>
    <text x="642.9" y="130.4" class="tooltip-text" text-anchor="middle">Jan 2025: 270 total (+9 this month)</text>
  </g>
  <g class="hoverpoint">
    <line x1="648.4" y1="30" x2="648.4" y2="160.0" class="guide"/>
    <circle cx="648.4" cy="142.3" r="16" class="hit"/>
    <circle cx="648.4" cy="142.3" r="4" class="hover-dot"><title>Feb 2025: 272 total (+2 this month)</title></circle>
    <rect x="578.4" y="116.3" width="140" height="20" rx="4" class="tooltip-bg"/>
    <text x="648.4" y="130.3" class="tooltip-text" text-anchor="middle">Feb 2025: 272 total (+2 this month)</text>
  </g>
  <g class="hoverpoint">
    <line x1="668.5" y1="30" x2="668.5" y2="160.0" class="guide"/>
    <circle cx="668.5" cy="140.9" r="16" class="hit"/>
    <circle cx="668.5" cy="140.9" r="4" class="hover-dot"><title>Mar 2025: 294 total (+22 this month)</title></circle>
    <rect x="598.5" y="114.9" width="140" height="20" rx="4" class="tooltip-bg"/>
    <text x="668.5" y="128.9" class="tooltip-text" text-anchor="middle">Mar 2025: 294 total (+22 this month)</text>
  </g>
  <g class="hoverpoint">
    <line x1="681.9" y1="30" x2="681.9" y2="160.0" class="guide"/>
    <circle cx="681.9" cy="137.2" r="16" class="hit"/>
    <circle cx="681.9" cy="137.2" r="4" class="hover-dot"><title>Apr 2025: 351 total (+57 this month)</title></circle>
    <rect x="611.9" y="111.2" width="140" height="20" rx="4" class="tooltip-bg"/>
    <text x="681.9" y="125.2" class="tooltip-text" text-anchor="middle">Apr 2025: 351 total (+57 this month)</text>
  </g>
  <g class="hoverpoint">
    <line x1="689.3" y1="30" x2="689.3" y2="160.0" class="guide"/>
    <circle cx="689.3" cy="133.5" r="16" class="hit"/>
    <circle cx="689.3" cy="133.5" r="4" class="hover-dot"><title>May 2025: 408 total (+57 this month)</title></circle>
    <rect x="619.3" y="107.5" width="140" height="20" rx="4" class="tooltip-bg"/>
    <text x="689.3" y="121.5" class="tooltip-text" text-anchor="middle">May 2025: 408 total (+57 this month)</text>
  </g>
  <g class="hoverpoint">
    <line x1="704.3" y1="30" x2="704.3" y2="160.0" class="guide"/>
    <circle cx="704.3" cy="132.4" r="16" class="hit"/>
    <circle cx="704.3" cy="132.4" r="4" class="hover-dot"><title>Jun 2025: 424 total (+16 this month)</title></circle>
    <rect x="634.3" y="106.4" width="140" height="20" rx="4" class="tooltip-bg"/>
    <text x="704.3" y="120.4" class="tooltip-text" text-anchor="middle">Jun 2025: 424 total (+16 this month)</text>
  </g>
  <g class="hoverpoint">
    <line x1="718.1" y1="30" x2="718.1" y2="160.0" class="guide"/>
    <circle cx="718.1" cy="131.9" r="16" class="hit"/>
    <circle cx="718.1" cy="131.9" r="4" class="hover-dot"><title>Jul 2025: 432 total (+8 this month)</title></circle>
    <rect x="648.1" y="105.9" width="140" height="20" rx="4" class="tooltip-bg"/>
    <text x="718.1" y="119.9" class="tooltip-text" text-anchor="middle">Jul 2025: 432 total (+8 this month)</text>
  </g>
  <g class="hoverpoint">
    <line x1="729.1" y1="30" x2="729.1" y2="160.0" class="guide"/>
    <circle cx="729.1" cy="129.1" r="16" class="hit"/>
    <circle cx="729.1" cy="129.1" r="4" class="hover-dot"><title>Aug 2025: 475 total (+43 this month)</title></circle>
    <rect x="659.1" y="103.1" width="140" height="20" rx="4" class="tooltip-bg"/>
    <text x="729.1" y="117.1" class="tooltip-text" text-anchor="middle">Aug 2025: 475 total (+43 this month)</text>
  </g>
  <g class="hoverpoint">
    <line x1="742.1" y1="30" x2="742.1" y2="160.0" class="guide"/>
    <circle cx="742.1" cy="125.8" r="16" class="hit"/>
    <circle cx="742.1" cy="125.8" r="4" class="hover-dot"><title>Sep 2025: 526 total (+51 this month)</title></circle>
    <rect x="672.1" y="99.8" width="140" height="20" rx="4" class="tooltip-bg"/>
    <text x="742.1" y="113.8" class="tooltip-text" text-anchor="middle">Sep 2025: 526 total (+51 this month)</text>
  </g>
  <g class="hoverpoint">
    <line x1="754.3" y1="30" x2="754.3" y2="160.0" class="guide"/>
    <circle cx="754.3" cy="115.0" r="16" class="hit"/>
    <circle cx="754.3" cy="115.0" r="4" class="hover-dot"><title>Oct 2025: 692 total (+166 this month)</title></circle>
    <rect x="684.3" y="89.0" width="140" height="20" rx="4" class="tooltip-bg"/>
    <text x="754.3" y="103.0" class="tooltip-text" text-anchor="middle">Oct 2025: 692 total (+166 this month)</text>
  </g>
  <g class="hoverpoint">
    <line x1="766.1" y1="30" x2="766.1" y2="160.0" class="guide"/>
    <circle cx="766.1" cy="112.5" r="16" class="hit"/>
    <circle cx="766.1" cy="112.5" r="4" class="hover-dot"><title>Nov 2025: 731 total (+39 this month)</title></circle>
    <rect x="696.1" y="86.5" width="140" height="20" rx="4" class="tooltip-bg"/>
    <text x="766.1" y="100.5" class="tooltip-text" text-anchor="middle">Nov 2025: 731 total (+39 this month)</text>
  </g>
  <g class="hoverpoint">
    <line x1="778.3" y1="30" x2="778.3" y2="160.0" class="guide"/>
    <circle cx="778.3" cy="109.1" r="16" class="hit"/>
    <circle cx="778.3" cy="109.1" r="4" class="hover-dot"><title>Dec 2025: 783 total (+52 this month)</title></circle>
    <rect x="708.3" y="83.1" width="140" height="20" rx="4" class="tooltip-bg"/>
    <text x="778.3" y="97.1" class="tooltip-text" text-anchor="middle">Dec 2025: 783 total (+52 this month)</text>
  </g>
  <g class="hoverpoint">
    <line x1="790.5" y1="30" x2="790.5" y2="160.0" class="guide"/>
    <circle cx="790.5" cy="93.6" r="16" class="hit"/>
    <circle cx="790.5" cy="93.6" r="4" class="hover-dot"><title>Jan 2026: 1,022 total (+239 this month)</title></circle>
    <rect x="720.5" y="67.6" width="140" height="20" rx="4" class="tooltip-bg"/>
    <text x="790.5" y="81.6" class="tooltip-text" text-anchor="middle">Jan 2026: 1,022 total (+239 this month)</text>
  </g>
  <g class="hoverpoint">
    <line x1="801.5" y1="30" x2="801.5" y2="160.0" class="guide"/>
    <circle cx="801.5" cy="74.1" r="16" class="hit"/>
    <circle cx="801.5" cy="74.1" r="4" class="hover-dot"><title>Feb 2026: 1,321 total (+299 this month)</title></circle>
    <rect x="731.5" y="48.1" width="140" height="20" rx="4" class="tooltip-bg"/>
    <text x="801.5" y="62.1" class="tooltip-text" text-anchor="middle">Feb 2026: 1,321 total (+299 this month)</text>
  </g>
  <g class="hoverpoint">
    <line x1="813.7" y1="30" x2="813.7" y2="160.0" class="guide"/>
    <circle cx="813.7" cy="54.9" r="16" class="hit"/>
    <circle cx="813.7" cy="54.9" r="4" class="hover-dot"><title>Mar 2026: 1,617 total (+296 this month)</title></circle>
    <rect x="743.7" y="28.9" width="140" height="20" rx="4" class="tooltip-bg"/>
    <text x="813.7" y="42.9" class="tooltip-text" text-anchor="middle">Mar 2026: 1,617 total (+296 this month)</text>
  </g>
  <g class="hoverpoint">
    <line x1="820.0" y1="30" x2="820.0" y2="160.0" class="guide"/>
    <circle cx="820.0" cy="52.9" r="16" class="hit"/>
    <circle cx="820.0" cy="52.9" r="4" class="hover-dot"><title>Apr 2026: 1,648 total (+31 this month)</title></circle>
    <rect x="750.0" y="26.9" width="140" height="20" rx="4" class="tooltip-bg"/>
    <text x="820.0" y="40.9" class="tooltip-text" text-anchor="middle">Apr 2026: 1,648 total (+31 this month)</text>
  </g>

  <circle cx="820.0" cy="52.9" r="4" class="dot"/>
  <text x="810.0" y="42.9" class="total">1,648</text>

</svg>