<svg xmlns="http://www.w3.org/2000/svg" width="840" height="196" viewBox="0 0 840 196" fill="none">
  <style>
    .label { font-family: -apple-system, BlinkMacSystemFont, 'Segoe UI', Helvetica, Arial, sans-serif; font-size: 10px; fill: #8b949e; }
    .title { font-family: -apple-system, BlinkMacSystemFont, 'Segoe UI', Helvetica, Arial, sans-serif; font-size: 11px; fill: #8b949e; font-weight: 600; }
    .total { font-family: -apple-system, BlinkMacSystemFont, 'Segoe UI', Helvetica, Arial, sans-serif; font-size: 11px; fill: #7ee787; font-weight: 600; }
    .grid { stroke: #21262d; stroke-width: 1; }
    .line { stroke: #7ee787; stroke-width: 2; stroke-linecap: round; stroke-linejoin: round; fill: none; }
    .dot { fill: #7ee787; }
    .area { fill: url(#areaGrad); }
    /* Hover interaction */
    .hoverpoint .guide { stroke: #7ee787; stroke-width: 1; stroke-dasharray: 2,2; opacity: 0; }
    .hoverpoint .hover-dot { fill: #7ee787; opacity: 0; }
    .hoverpoint .hit { fill: transparent; cursor: pointer; }
    .hoverpoint .tooltip-bg { fill: #161b22; stroke: #30363d; stroke-width: 1; opacity: 0; }
    .hoverpoint .tooltip-text { font-family: -apple-system, BlinkMacSystemFont, 'Segoe UI', Helvetica, Arial, sans-serif; font-size: 9px; fill: #c9d1d9; opacity: 0; }
    .hoverpoint:hover .guide { opacity: 0.5; }
    .hoverpoint:hover .hover-dot { opacity: 1; }
    .hoverpoint:hover .tooltip-bg { opacity: 0.95; }
    .hoverpoint:hover .tooltip-text { opacity: 1; }
  </style>
  <defs>
    <linearGradient id="areaGrad" x1="0" y1="0" x2="0" y2="1">
      <stop offset="0%" stop-color="#7ee787" stop-opacity="0.15"/>
      <stop offset="100%" stop-color="#7ee787" stop-opacity="0.01"/>
    </linearGradient>
  </defs>

  <text x="60" y="18" class="title">Cumulative Commits</text>

  <line x1="60" y1="160.0" x2="820" y2="160.0" class="grid"/>
  <text x="50" y="163.0" class="label" text-anchor="end">0</text>
  <line x1="60" y1="127.5" x2="820" y2="127.5" class="grid" stroke-dasharray="3,3"/>
  <text x="50" y="130.5" class="label" text-anchor="end">750</text>
  <line x1="60" y1="95.0" x2="820" y2="95.0" class="grid" stroke-dasharray="3,3"/>
  <text x="50" y="98.0" class="label" text-anchor="end">1,500</text>
  <line x1="60" y1="62.5" x2="820" y2="62.5" class="grid" stroke-dasharray="3,3"/>
  <text x="50" y="65.5" class="label" text-anchor="end">2,250</text>
  <line x1="60" y1="30.0" x2="820" y2="30.0" class="grid" stroke-dasharray="3,3"/>
  <text x="50" y="33.0" class="label" text-anchor="end">3,000</text>

  <text x="70.0" y="186" class="label" text-anchor="middle">2021</text>
  <text x="201.5" y="186" class="label" text-anchor="middle">2022</text>
  <text x="342.9" y="186" class="label" text-anchor="middle">2023</text>
  <text x="484.4" y="186" class="label" text-anchor="middle">2024</text>
  <text x="626.2" y="186" class="label" text-anchor="middle">2025</text>
  <text x="767.7" y="186" class="label" text-anchor="middle">2026</text>


  <path class="area" d="M60.0,160.0 L60.0,160.0 60.0,160.0 L181.3,159.8 L181.7,159.7 L182.9,159.7 L201.5,159.6 L201.8,159.3 L202.2,159.3 L202.6,159.1 L203.0,159.0 L203.4,159.0 L204.2,158.7 L204.6,158.6 L204.9,158.5 L205.3,158.5 L206.9,158.4 L207.3,158.3 L207.7,158.3 L211.5,158.2 L221.6,158.1 L274.7,158.1 L275.1,157.7 L276.6,157.6 L277.4,157.3 L283.2,157.2 L284.0,157.1 L284.4,156.9 L284.8,156.9 L285.6,156.8 L285.9,156.4 L286.3,156.0 L286.7,155.9 L288.3,155.8 L289.0,155.7 L291.0,155.6 L296.4,155.4 L306.9,155.3 L312.7,155.3 L315.4,155.2 L315.8,155.1 L316.2,155.0 L316.6,154.8 L317.7,154.5 L318.1,154.5 L318.5,154.5 L320.1,154.3 L320.4,154.1 L320.8,154.0 L321.2,153.6 L321.6,153.2 L322.0,153.1 L322.4,153.0 L323.2,152.9 L324.7,152.8 L329.0,152.7 L340.2,152.7 L340.6,152.5 L341.0,152.4 L344.9,152.0 L345.2,151.0 L346.4,150.9 L346.8,150.9 L348.7,150.7 L361.9,150.6 L362.3,150.5 L362.7,150.4 L363.5,150.2 L366.2,150.1 L366.9,149.9 L367.3,149.8 L369.3,149.7 L378.6,149.6 L569.3,149.5 L570.0,149.5 L570.8,149.4 L571.6,149.3 L572.0,149.3 L572.4,149.2 L572.7,149.2 L573.1,149.1 L577.0,149.1 L587.9,149.0 L591.0,149.0 L592.1,148.9 L594.4,148.9 L596.8,148.9 L597.2,148.8 L598.7,148.8 L599.9,148.7 L600.6,148.7 L629.3,148.6 L629.7,148.6 L630.5,148.5 L630.9,148.5 L632.0,148.3 L634.0,148.3 L639.4,148.2 L650.6,147.8 L651.0,147.7 L656.1,147.6 L656.5,147.5 L657.6,147.4 L659.2,147.3 L661.1,146.8 L661.5,145.6 L661.9,145.5 L664.2,145.4 L665.4,145.4 L665.8,145.4 L666.5,145.2 L669.6,145.1 L672.3,144.8 L674.3,144.5 L674.7,144.4 L675.8,144.1 L676.2,143.6 L676.6,143.5 L677.0,143.3 L677.4,143.1 L677.8,142.9 L678.5,142.6 L679.7,142.3 L693.7,142.2 L694.4,141.6 L703.0,141.5 L708.0,141.3 L710.3,141.2 L710.7,141.2 L713.0,141.2 L713.4,141.1 L713.8,141.1 L714.2,140.9 L714.6,140.8 L715.0,140.3 L715.4,140.2 L717.7,139.6 L718.1,139.5 L718.8,139.4 L721.6,139.2 L722.3,139.2 L722.7,139.0 L723.5,139.0 L723.9,138.7 L724.3,138.6 L725.0,138.5 L725.4,138.4 L725.8,138.4 L726.2,138.3 L727.8,138.1 L728.1,138.0 L728.5,137.9 L728.9,137.8 L729.3,137.7 L729.7,137.6 L730.9,137.4 L731.2,137.3 L731.6,137.2 L732.0,137.1 L732.4,136.8 L733.2,136.7 L733.6,136.3 L734.0,136.0 L734.3,135.2 L734.7,135.0 L735.1,134.8 L735.5,134.3 L735.9,134.3 L736.3,134.1 L736.7,134.1 L737.1,133.8 L739.0,133.3 L739.4,133.2 L739.8,132.8 L740.2,132.1 L740.6,132.0 L741.3,131.9 L741.7,131.3 L742.1,130.9 L742.5,130.9 L742.9,130.2 L743.7,130.0 L744.0,129.9 L744.4,129.8 L744.8,129.8 L745.2,129.8 L745.6,129.7 L747.1,129.6 L747.9,129.5 L748.3,129.2 L748.7,129.0 L749.9,129.0 L751.8,128.9 L754.1,128.7 L754.5,128.6 L754.9,128.6 L755.3,128.3 L755.7,127.7 L756.1,127.7 L756.4,127.6 L756.8,127.5 L757.2,127.4 L757.6,127.1 L761.9,127.0 L762.3,126.9 L765.7,126.6 L766.5,126.3 L766.9,126.2 L767.3,126.1 L767.7,126.0 L768.8,125.9 L769.2,125.2 L769.6,123.7 L770.0,122.3 L770.4,122.3 L770.8,122.1 L771.6,121.9 L771.9,121.7 L772.3,121.4 L773.1,121.3 L773.5,120.9 L773.9,120.9 L774.7,120.3 L775.0,120.2 L775.4,119.9 L775.8,119.7 L776.2,119.4 L776.6,119.4 L777.8,119.0 L778.1,118.7 L778.5,117.7 L778.9,116.3 L779.3,115.7 L779.7,115.1 L780.1,115.0 L780.5,114.8 L780.9,114.6 L781.2,114.2 L781.6,113.8 L782.0,113.7 L782.4,113.4 L782.8,113.3 L783.2,113.0 L783.6,112.6 L784.0,112.3 L784.3,111.9 L784.7,111.8 L785.1,111.6 L785.5,110.9 L785.9,109.6 L786.3,109.4 L787.1,109.1 L787.4,109.0 L787.8,108.9 L788.2,106.8 L788.6,105.8 L789.0,104.9 L789.4,104.5 L789.8,102.9 L790.2,102.8 L790.5,102.7 L790.9,102.3 L791.3,101.6 L791.7,100.2 L792.1,98.8 L792.5,98.7 L792.9,98.4 L793.6,98.3 L794.0,97.5 L794.4,96.8 L794.8,95.9 L795.2,95.7 L795.6,95.7 L796.0,94.3 L796.4,92.6 L796.7,91.9 L797.1,91.5 L797.5,91.1 L797.9,90.7 L798.3,90.7 L799.1,90.5 L799.5,90.2 L799.8,90.1 L800.2,90.1 L800.6,90.0 L801.8,90.0 L802.2,89.9 L802.9,89.8 L803.7,89.8 L804.1,89.7 L804.9,89.1 L805.3,88.8 L805.7,88.6 L808.0,88.5 L808.4,88.2 L808.8,88.1 L809.1,87.8 L809.5,87.7 L809.9,87.6 L810.3,87.5 L810.7,86.9 L811.1,86.2 L811.5,86.0 L811.9,84.7 L812.2,84.5 L813.0,84.5 L813.4,84.4 L814.6,84.0 L815.0,83.6 L815.3,83.3 L815.7,83.0 L816.1,82.0 L816.5,79.2 L816.9,78.2 L817.3,77.9 L817.7,77.6 L818.1,77.1 L818.4,77.1 L818.8,72.0 L819.2,65.6 L819.6,64.4 L820.0,64.4 L820.0,160.0 Z"/>
  <polyline class="line" points="60.0,160.0 181.3,159.8 181.7,159.7 182.9,159.7 201.5,159.6 201.8,159.3 202.2,159.3 202.6,159.1 203.0,159.0 203.4,159.0 204.2,158.7 204.6,158.6 204.9,158.5 205.3,158.5 206.9,158.4 207.3,158.3 207.7,158.3 211.5,158.2 221.6,158.1 274.7,158.1 275.1,157.7 276.6,157.6 277.4,157.3 283.2,157.2 284.0,157.1 284.4,156.9 284.8,156.9 285.6,156.8 285.9,156.4 286.3,156.0 286.7,155.9 288.3,155.8 289.0,155.7 291.0,155.6 296.4,155.4 306.9,155.3 312.7,155.3 315.4,155.2 315.8,155.1 316.2,155.0 316.6,154.8 317.7,154.5 318.1,154.5 318.5,154.5 320.1,154.3 320.4,154.1 320.8,154.0 321.2,153.6 321.6,153.2 322.0,153.1 322.4,153.0 323.2,152.9 324.7,152.8 329.0,152.7 340.2,152.7 340.6,152.5 341.0,152.4 344.9,152.0 345.2,151.0 346.4,150.9 346.8,150.9 348.7,150.7 361.9,150.6 362.3,150.5 362.7,150.4 363.5,150.2 366.2,150.1 366.9,149.9 367.3,149.8 369.3,149.7 378.6,149.6 569.3,149.5 570.0,149.5 570.8,149.4 571.6,149.3 572.0,149.3 572.4,149.2 572.7,149.2 573.1,149.1 577.0,149.1 587.9,149.0 591.0,149.0 592.1,148.9 594.4,148.9 596.8,148.9 597.2,148.8 598.7,148.8 599.9,148.7 600.6,148.7 629.3,148.6 629.7,148.6 630.5,148.5 630.9,148.5 632.0,148.3 634.0,148.3 639.4,148.2 650.6,147.8 651.0,147.7 656.1,147.6 656.5,147.5 657.6,147.4 659.2,147.3 661.1,146.8 661.5,145.6 661.9,145.5 664.2,145.4 665.4,145.4 665.8,145.4 666.5,145.2 669.6,145.1 672.3,144.8 674.3,144.5 674.7,144.4 675.8,144.1 676.2,143.6 676.6,143.5 677.0,143.3 677.4,143.1 677.8,142.9 678.5,142.6 679.7,142.3 693.7,142.2 694.4,141.6 703.0,141.5 708.0,141.3 710.3,141.2 710.7,141.2 713.0,141.2 713.4,141.1 713.8,141.1 714.2,140.9 714.6,140.8 715.0,140.3 715.4,140.2 717.7,139.6 718.1,139.5 718.8,139.4 721.6,139.2 722.3,139.2 722.7,139.0 723.5,139.0 723.9,138.7 724.3,138.6 725.0,138.5 725.4,138.4 725.8,138.4 726.2,138.3 727.8,138.1 728.1,138.0 728.5,137.9 728.9,137.8 729.3,137.7 729.7,137.6 730.9,137.4 731.2,137.3 731.6,137.2 732.0,137.1 732.4,136.8 733.2,136.7 733.6,136.3 734.0,136.0 734.3,135.2 734.7,135.0 735.1,134.8 735.5,134.3 735.9,134.3 736.3,134.1 736.7,134.1 737.1,133.8 739.0,133.3 739.4,133.2 739.8,132.8 740.2,132.1 740.6,132.0 741.3,131.9 741.7,131.3 742.1,130.9 742.5,130.9 742.9,130.2 743.7,130.0 744.0,129.9 744.4,129.8 744.8,129.8 745.2,129.8 745.6,129.7 747.1,129.6 747.9,129.5 748.3,129.2 748.7,129.0 749.9,129.0 751.8,128.9 754.1,128.7 754.5,128.6 754.9,128.6 755.3,128.3 755.7,127.7 756.1,127.7 756.4,127.6 756.8,127.5 757.2,127.4 757.6,127.1 761.9,127.0 762.3,126.9 765.7,126.6 766.5,126.3 766.9,126.2 767.3,126.1 767.7,126.0 768.8,125.9 769.2,125.2 769.6,123.7 770.0,122.3 770.4,122.3 770.8,122.1 771.6,121.9 771.9,121.7 772.3,121.4 773.1,121.3 773.5,120.9 773.9,120.9 774.7,120.3 775.0,120.2 775.4,119.9 775.8,119.7 776.2,119.4 776.6,119.4 777.8,119.0 778.1,118.7 778.5,117.7 778.9,116.3 779.3,115.7 779.7,115.1 780.1,115.0 780.5,114.8 780.9,114.6 781.2,114.2 781.6,113.8 782.0,113.7 782.4,113.4 782.8,113.3 783.2,113.0 783.6,112.6 784.0,112.3 784.3,111.9 784.7,111.8 785.1,111.6 785.5,110.9 785.9,109.6 786.3,109.4 787.1,109.1 787.4,109.0 787.8,108.9 788.2,106.8 788.6,105.8 789.0,104.9 789.4,104.5 789.8,102.9 790.2,102.8 790.5,102.7 790.9,102.3 791.3,101.6 791.7,100.2 792.1,98.8 792.5,98.7 792.9,98.4 793.6,98.3 794.0,97.5 794.4,96.8 794.8,95.9 795.2,95.7 795.6,95.7 796.0,94.3 796.4,92.6 796.7,91.9 797.1,91.5 797.5,91.1 797.9,90.7 798.3,90.7 799.1,90.5 799.5,90.2 799.8,90.1 800.2,90.1 800.6,90.0 801.8,90.0 802.2,89.9 802.9,89.8 803.7,89.8 804.1,89.7 804.9,89.1 805.3,88.8 805.7,88.6 808.0,88.5 808.4,88.2 808.8,88.1 809.1,87.8 809.5,87.7 809.9,87.6 810.3,87.5 810.7,86.9 811.1,86.2 811.5,86.0 811.9,84.7 812.2,84.5 813.0,84.5 813.4,84.4 814.6,84.0 815.0,83.6 815.3,83.3 815.7,83.0 816.1,82.0 816.5,79.2 816.9,78.2 817.3,77.9 817.7,77.6 818.1,77.1 818.4,77.1 818.8,72.0 819.2,65.6 819.6,64.4 820.0,64.4"/>

  <g class="hoverpoint">
    <line x1="182.9" y1="30" x2="182.9" y2="160.0" class="guide"/>
    <circle cx="182.9" cy="159.7" r="16" class="hit"/>
    <circle cx="182.9" cy="159.7" r="4" class="hover-dot"><title>Nov 2021: 7 total (+7 this month)</title></circle>
    <rect x="112.9" y="133.7" width="140" height="20" rx="4" class="tooltip-bg"/>
    <text x="182.9" y="147.7" class="tooltip-text" text-anchor="middle">Nov 2021: 7 total (+7 this month)</text>
  </g>
  <g class="hoverpoint">
    <line x1="211.5" y1="30" x2="211.5" y2="160.0" class="guide"/>
    <circle cx="211.5" cy="158.2" r="16" class="hit"/>
    <circle cx="211.5" cy="158.2" r="4" class="hover-dot"><title>Jan 2022: 41 total (+34 this month)</title></circle>
    <rect x="141.5" y="132.2" width="140" height="20" rx="4" class="tooltip-bg"/>
    <text x="211.5" y="146.2" class="tooltip-text" text-anchor="middle">Jan 2022: 41 total (+34 this month)</text>
  </g>
  <g class="hoverpoint">
    <line x1="221.6" y1="30" x2="221.6" y2="160.0" class="guide"/>
    <circle cx="221.6" cy="158.1" r="16" class="hit"/>
    <circle cx="221.6" cy="158.1" r="4" class="hover-dot"><title>Feb 2022: 44 total (+3 this month)</title></circle>
    <rect x="151.6" y="132.1" width="140" height="20" rx="4" class="tooltip-bg"/>
    <text x="221.6" y="146.1" class="tooltip-text" text-anchor="middle">Feb 2022: 44 total (+3 this month)</text>
  </g>
  <g class="hoverpoint">
    <line x1="283.2" y1="30" x2="283.2" y2="160.0" class="guide"/>
    <circle cx="283.2" cy="157.2" r="16" class="hit"/>
    <circle cx="283.2" cy="157.2" r="4" class="hover-dot"><title>Jul 2022: 65 total (+21 this month)</title></circle>
    <rect x="213.2" y="131.2" width="140" height="20" rx="4" class="tooltip-bg"/>
    <text x="283.2" y="145.2" class="tooltip-text" text-anchor="middle">Jul 2022: 65 total (+21 this month)</text>
  </g>
  <g class="hoverpoint">
    <line x1="291.0" y1="30" x2="291.0" y2="160.0" class="guide"/>
    <circle cx="291.0" cy="155.6" r="16" class="hit"/>
    <circle cx="291.0" cy="155.6" r="4" class="hover-dot"><title>Aug 2022: 101 total (+36 this month)</title></circle>
    <rect x="221.0" y="129.6" width="140" height="20" rx="4" class="tooltip-bg"/>
    <text x="291.0" y="143.6" class="tooltip-text" text-anchor="middle">Aug 2022: 101 total (+36 this month)</text>
  </g>
  <g class="hoverpoint">
    <line x1="306.9" y1="30" x2="306.9" y2="160.0" class="guide"/>
    <circle cx="306.9" cy="155.3" r="16" class="hit"/>
    <circle cx="306.9" cy="155.3" r="4" class="hover-dot"><title>Sep 2022: 108 total (+7 this month)</title></circle>
    <rect x="236.9" y="129.3" width="140" height="20" rx="4" class="tooltip-bg"/>
    <text x="306.9" y="143.3" class="tooltip-text" text-anchor="middle">Sep 2022: 108 total (+7 this month)</text>
  </g>
  <g class="hoverpoint">
    <line x1="318.5" y1="30" x2="318.5" y2="160.0" class="guide"/>
    <circle cx="318.5" cy="154.5" r="16" class="hit"/>
    <circle cx="318.5" cy="154.5" r="4" class="hover-dot"><title>Oct 2022: 128 total (+20 this month)</title></circle>
    <rect x="248.5" y="128.5" width="140" height="20" rx="4" class="tooltip-bg"/>
    <text x="318.5" y="142.5" class="tooltip-text" text-anchor="middle">Oct 2022: 128 total (+20 this month)</text>
  </g>
  <g class="hoverpoint">
    <line x1="329.0" y1="30" x2="329.0" y2="160.0" class="guide"/>
    <circle cx="329.0" cy="152.7" r="16" class="hit"/>
    <circle cx="329.0" cy="152.7" r="4" class="hover-dot"><title>Nov 2022: 168 total (+40 this month)</title></circle>
    <rect x="259.0" y="126.7" width="140" height="20" rx="4" class="tooltip-bg"/>
    <text x="329.0" y="140.7" class="tooltip-text" text-anchor="middle">Nov 2022: 168 total (+40 this month)</text>
  </g>
  <g class="hoverpoint">
    <line x1="341.0" y1="30" x2="341.0" y2="160.0" class="guide"/>
    <circle cx="341.0" cy="152.4" r="16" class="hit"/>
    <circle cx="341.0" cy="152.4" r="4" class="hover-dot"><title>Dec 2022: 175 total (+7 this month)</title></circle>
    <rect x="271.0" y="126.4" width="140" height="20" rx="4" class="tooltip-bg"/>
    <text x="341.0" y="140.4" class="tooltip-text" text-anchor="middle">Dec 2022: 175 total (+7 this month)</text>
  </g>
  <g class="hoverpoint">
    <line x1="348.7" y1="30" x2="348.7" y2="160.0" class="guide"/>
    <circle cx="348.7" cy="150.7" r="16" class="hit"/>
    <circle cx="348.7" cy="150.7" r="4" class="hover-dot"><title>Jan 2023: 214 total (+39 this month)</title></circle>
    <rect x="278.7" y="124.7" width="140" height="20" rx="4" class="tooltip-bg"/>
    <text x="348.7" y="138.7" class="tooltip-text" text-anchor="middle">Jan 2023: 214 total (+39 this month)</text>
  </g>
  <g class="hoverpoint">
    <line x1="363.5" y1="30" x2="363.5" y2="160.0" class="guide"/>
    <circle cx="363.5" cy="150.2" r="16" class="hit"/>
    <circle cx="363.5" cy="150.2" r="4" class="hover-dot"><title>Feb 2023: 225 total (+11 this month)</title></circle>
    <rect x="293.5" y="124.2" width="140" height="20" rx="4" class="tooltip-bg"/>
    <text x="363.5" y="138.2" class="tooltip-text" text-anchor="middle">Feb 2023: 225 total (+11 this month)</text>
  </g>
  <g class="hoverpoint">
    <line x1="369.3" y1="30" x2="369.3" y2="160.0" class="guide"/>
    <circle cx="369.3" cy="149.7" r="16" class="hit"/>
    <circle cx="369.3" cy="149.7" r="4" class="hover-dot"><title>Mar 2023: 237 total (+12 this month)</title></circle>
    <rect x="299.3" y="123.7" width="140" height="20" rx="4" class="tooltip-bg"/>
    <text x="369.3" y="137.7" class="tooltip-text" text-anchor="middle">Mar 2023: 237 total (+12 this month)</text>
  </g>
  <g class="hoverpoint">
    <line x1="378.6" y1="30" x2="378.6" y2="160.0" class="guide"/>
    <circle cx="378.6" cy="149.6" r="16" class="hit"/>
    <circle cx="378.6" cy="149.6" r="4" class="hover-dot"><title>Apr 2023: 240 total (+3 this month)</title></circle>
    <rect x="308.6" y="123.6" width="140" height="20" rx="4" class="tooltip-bg"/>
    <text x="378.6" y="137.6" class="tooltip-text" text-anchor="middle">Apr 2023: 240 total (+3 this month)</text>
  </g>
  <g class="hoverpoint">
    <line x1="577.0" y1="30" x2="577.0" y2="160.0" class="guide"/>
    <circle cx="577.0" cy="149.1" r="16" class="hit"/>
    <circle cx="577.0" cy="149.1" r="4" class="hover-dot"><title>Aug 2024: 252 total (+12 this month)</title></circle>
    <rect x="507.0" y="123.1" width="140" height="20" rx="4" class="tooltip-bg"/>
    <text x="577.0" y="137.1" class="tooltip-text" text-anchor="middle">Aug 2024: 252 total (+12 this month)</text>
  </g>
  <g class="hoverpoint">
    <line x1="587.9" y1="30" x2="587.9" y2="160.0" class="guide"/>
    <circle cx="587.9" cy="149.0" r="16" class="hit"/>
    <circle cx="587.9" cy="149.0" r="4" class="hover-dot"><title>Sep 2024: 253 total (+1 this month)</title></circle>
    <rect x="517.9" y="123.0" width="140" height="20" rx="4" class="tooltip-bg"/>
    <text x="587.9" y="137.0" class="tooltip-text" text-anchor="middle">Sep 2024: 253 total (+1 this month)</text>
  </g>
  <g class="hoverpoint">
    <line x1="600.6" y1="30" x2="600.6" y2="160.0" class="guide"/>
    <circle cx="600.6" cy="148.7" r="16" class="hit"/>
    <circle cx="600.6" cy="148.7" r="4" class="hover-dot"><title>Oct 2024: 261 total (+8 this month)</title></circle>
    <rect x="530.6" y="122.7" width="140" height="20" rx="4" class="tooltip-bg"/>
    <text x="600.6" y="136.7" class="tooltip-text" text-anchor="middle">Oct 2024: 261 total (+8 this month)</text>
  </g>
  <g class="hoverpoint">
    <line x1="634.0" y1="30" x2="634.0" y2="160.0" class="guide"/>
    <circle cx="634.0" cy="148.3" r="16" class="hit"/>
    <circle cx="634.0" cy="148.3" r="4" class="hover-dot"><title>Jan 2025: 270 total (+9 this month)</title></circle>
    <rect x="564.0" y="122.3" width="140" height="20" rx="4" class="tooltip-bg"/>
    <text x="634.0" y="136.3" class="tooltip-text" text-anchor="middle">Jan 2025: 270 total (+9 this month)</text>
  </g>
  <g class="hoverpoint">
    <line x1="639.4" y1="30" x2="639.4" y2="160.0" class="guide"/>
    <circle cx="639.4" cy="148.2" r="16" class="hit"/>
    <circle cx="639.4" cy="148.2" r="4" class="hover-dot"><title>Feb 2025: 272 total (+2 this month)</title></circle>
    <rect x="569.4" y="122.2" width="140" height="20" rx="4" class="tooltip-bg"/>
    <text x="639.4" y="136.2" class="tooltip-text" text-anchor="middle">Feb 2025: 272 total (+2 this month)</text>
  </g>
  <g class="hoverpoint">
    <line x1="659.2" y1="30" x2="659.2" y2="160.0" class="guide"/>
    <circle cx="659.2" cy="147.3" r="16" class="hit"/>
    <circle cx="659.2" cy="147.3" r="4" class="hover-dot"><title>Mar 2025: 294 total (+22 this month)</title></circle>
    <rect x="589.2" y="121.3" width="140" height="20" rx="4" class="tooltip-bg"/>
    <text x="659.2" y="135.3" class="tooltip-text" text-anchor="middle">Mar 2025: 294 total (+22 this month)</text>
  </g>
  <g class="hoverpoint">
    <line x1="672.3" y1="30" x2="672.3" y2="160.0" class="guide"/>
    <circle cx="672.3" cy="144.8" r="16" class="hit"/>
    <circle cx="672.3" cy="144.8" r="4" class="hover-dot"><title>Apr 2025: 351 total (+57 this month)</title></circle>
    <rect x="602.3" y="118.8" width="140" height="20" rx="4" class="tooltip-bg"/>
    <text x="672.3" y="132.8" class="tooltip-text" text-anchor="middle">Apr 2025: 351 total (+57 this month)</text>
  </g>
  <g class="hoverpoint">
    <line x1="679.7" y1="30" x2="679.7" y2="160.0" class="guide"/>
    <circle cx="679.7" cy="142.3" r="16" class="hit"/>
    <circle cx="679.7" cy="142.3" r="4" class="hover-dot"><title>May 2025: 408 total (+57 this month)</title></circle>
    <rect x="609.7" y="116.3" width="140" height="20" rx="4" class="tooltip-bg"/>
    <text x="679.7" y="130.3" class="tooltip-text" text-anchor="middle">May 2025: 408 total (+57 this month)</text>
  </g>
  <g class="hoverpoint">
    <line x1="694.4" y1="30" x2="694.4" y2="160.0" class="guide"/>
    <circle cx="694.4" cy="141.6" r="16" class="hit"/>
    <circle cx="694.4" cy="141.6" r="4" class="hover-dot"><title>Jun 2025: 424 total (+16 this month)</title></circle>
    <rect x="624.4" y="115.6" width="140" height="20" rx="4" class="tooltip-bg"/>
    <text x="694.4" y="129.6" class="tooltip-text" text-anchor="middle">Jun 2025: 424 total (+16 this month)</text>
  </g>
  <g class="hoverpoint">
    <line x1="708.0" y1="30" x2="708.0" y2="160.0" class="guide"/>
    <circle cx="708.0" cy="141.3" r="16" class="hit"/>
    <circle cx="708.0" cy="141.3" r="4" class="hover-dot"><title>Jul 2025: 432 total (+8 this month)</title></circle>
    <rect x="638.0" y="115.3" width="140" height="20" rx="4" class="tooltip-bg"/>
    <text x="708.0" y="129.3" class="tooltip-text" text-anchor="middle">Jul 2025: 432 total (+8 this month)</text>
  </g>
  <g class="hoverpoint">
    <line x1="718.8" y1="30" x2="718.8" y2="160.0" class="guide"/>
    <circle cx="718.8" cy="139.4" r="16" class="hit"/>
    <circle cx="718.8" cy="139.4" r="4" class="hover-dot"><title>Aug 2025: 475 total (+43 this month)</title></circle>
    <rect x="648.8" y="113.4" width="140" height="20" rx="4" class="tooltip-bg"/>
    <text x="718.8" y="127.4" class="tooltip-text" text-anchor="middle">Aug 2025: 475 total (+43 this month)</text>
  </g>
  <g class="hoverpoint">
    <line x1="731.6" y1="30" x2="731.6" y2="160.0" class="guide"/>
    <circle cx="731.6" cy="137.2" r="16" class="hit"/>
    <circle cx="731.6" cy="137.2" r="4" class="hover-dot"><title>Sep 2025: 526 total (+51 this month)</title></circle>
    <rect x="661.6" y="111.2" width="140" height="20" rx="4" class="tooltip-bg"/>
    <text x="731.6" y="125.2" class="tooltip-text" text-anchor="middle">Sep 2025: 526 total (+51 this month)</text>
  </g>
  <g class="hoverpoint">
    <line x1="743.7" y1="30" x2="743.7" y2="160.0" class="guide"/>
    <circle cx="743.7" cy="130.0" r="16" class="hit"/>
    <circle cx="743.7" cy="130.0" r="4" class="hover-dot"><title>Oct 2025: 692 total (+166 this month)</title></circle>
    <rect x="673.7" y="104.0" width="140" height="20" rx="4" class="tooltip-bg"/>
    <text x="743.7" y="118.0" class="tooltip-text" text-anchor="middle">Oct 2025: 692 total (+166 this month)</text>
  </g>
  <g class="hoverpoint">
    <line x1="755.3" y1="30" x2="755.3" y2="160.0" class="guide"/>
    <circle cx="755.3" cy="128.3" r="16" class="hit"/>
    <circle cx="755.3" cy="128.3" r="4" class="hover-dot"><title>Nov 2025: 731 total (+39 this month)</title></circle>
    <rect x="685.3" y="102.3" width="140" height="20" rx="4" class="tooltip-bg"/>
    <text x="755.3" y="116.3" class="tooltip-text" text-anchor="middle">Nov 2025: 731 total (+39 this month)</text>
  </g>
  <g class="hoverpoint">
    <line x1="767.3" y1="30" x2="767.3" y2="160.0" class="guide"/>
    <circle cx="767.3" cy="126.1" r="16" class="hit"/>
    <circle cx="767.3" cy="126.1" r="4" class="hover-dot"><title>Dec 2025: 783 total (+52 this month)</title></circle>
    <rect x="697.3" y="100.1" width="140" height="20" rx="4" class="tooltip-bg"/>
    <text x="767.3" y="114.1" class="tooltip-text" text-anchor="middle">Dec 2025: 783 total (+52 this month)</text>
  </g>
  <g class="hoverpoint">
    <line x1="779.3" y1="30" x2="779.3" y2="160.0" class="guide"/>
    <circle cx="779.3" cy="115.7" r="16" class="hit"/>
    <circle cx="779.3" cy="115.7" r="4" class="hover-dot"><title>Jan 2026: 1,022 total (+239 this month)</title></circle>
    <rect x="709.3" y="89.7" width="140" height="20" rx="4" class="tooltip-bg"/>
    <text x="779.3" y="103.7" class="tooltip-text" text-anchor="middle">Jan 2026: 1,022 total (+239 this month)</text>
  </g>
  <g class="hoverpoint">
    <line x1="790.2" y1="30" x2="790.2" y2="160.0" class="guide"/>
    <circle cx="790.2" cy="102.8" r="16" class="hit"/>
    <circle cx="790.2" cy="102.8" r="4" class="hover-dot"><title>Feb 2026: 1,321 total (+299 this month)</title></circle>
    <rect x="720.2" y="76.8" width="140" height="20" rx="4" class="tooltip-bg"/>
    <text x="790.2" y="90.8" class="tooltip-text" text-anchor="middle">Feb 2026: 1,321 total (+299 this month)</text>
  </g>
  <g class="hoverpoint">
    <line x1="802.2" y1="30" x2="802.2" y2="160.0" class="guide"/>
    <circle cx="802.2" cy="89.9" r="16" class="hit"/>
    <circle cx="802.2" cy="89.9" r="4" class="hover-dot"><title>Mar 2026: 1,617 total (+296 this month)</title></circle>
    <rect x="732.2" y="63.9" width="140" height="20" rx="4" class="tooltip-bg"/>
    <text x="802.2" y="77.9" class="tooltip-text" text-anchor="middle">Mar 2026: 1,617 total (+296 this month)</text>
  </g>
  <g class="hoverpoint">
    <line x1="813.4" y1="30" x2="813.4" y2="160.0" class="guide"/>
    <circle cx="813.4" cy="84.4" r="16" class="hit"/>
    <circle cx="813.4" cy="84.4" r="4" class="hover-dot"><title>Apr 2026: 1,744 total (+127 this month)</title></circle>
    <rect x="743.4" y="58.4" width="140" height="20" rx="4" class="tooltip-bg"/>
    <text x="813.4" y="72.4" class="tooltip-text" text-anchor="middle">Apr 2026: 1,744 total (+127 this month)</text>
  </g>
  <g class="hoverpoint">
    <line x1="820.0" y1="30" x2="820.0" y2="160.0" class="guide"/>
    <circle cx="820.0" cy="64.4" r="16" class="hit"/>
    <circle cx="820.0" cy="64.4" r="4" class="hover-dot"><title>May 2026: 2,207 total (+463 this month)</title></circle>
    <rect x="750.0" y="38.4" width="140" height="20" rx="4" class="tooltip-bg"/>
    <text x="820.0" y="52.4" class="tooltip-text" text-anchor="middle">May 2026: 2,207 total (+463 this month)</text>
  </g>

  <circle cx="820.0" cy="64.4" r="4" class="dot"/>
  <text x="810.0" y="54.4" class="total">2,207</text>

</svg>