<svg xmlns="http://www.w3.org/2000/svg" width="840" height="196" viewBox="0 0 840 196" fill="none">
  <style>
    .label { font-family: -apple-system, BlinkMacSystemFont, 'Segoe UI', Helvetica, Arial, sans-serif; font-size: 10px; fill: #8b949e; }
    .title { font-family: -apple-system, BlinkMacSystemFont, 'Segoe UI', Helvetica, Arial, sans-serif; font-size: 11px; fill: #8b949e; font-weight: 600; }
    .total { font-family: -apple-system, BlinkMacSystemFont, 'Segoe UI', Helvetica, Arial, sans-serif; font-size: 11px; fill: #7ee787; font-weight: 600; }
    .grid { stroke: #21262d; stroke-width: 1; }
    .line { stroke: #7ee787; stroke-width: 2; stroke-linecap: round; stroke-linejoin: round; fill: none; }
    .dot { fill: #7ee787; }
    .area { fill: url(#areaGrad); }
    /* Hover interaction */
    .hoverpoint .guide { stroke: #7ee787; stroke-width: 1; stroke-dasharray: 2,2; opacity: 0; }
    .hoverpoint .hover-dot { fill: #7ee787; opacity: 0; }
    .hoverpoint .hit { fill: transparent; cursor: pointer; }
    .hoverpoint .tooltip-bg { fill: #161b22; stroke: #30363d; stroke-width: 1; opacity: 0; }
    .hoverpoint .tooltip-text { font-family: -apple-system, BlinkMacSystemFont, 'Segoe UI', Helvetica, Arial, sans-serif; font-size: 9px; fill: #c9d1d9; opacity: 0; }
    .hoverpoint:hover .guide { opacity: 0.5; }
    .hoverpoint:hover .hover-dot { opacity: 1; }
    .hoverpoint:hover .tooltip-bg { opacity: 0.95; }
    .hoverpoint:hover .tooltip-text { opacity: 1; }
  </style>
  <defs>
    <linearGradient id="areaGrad" x1="0" y1="0" x2="0" y2="1">
      <stop offset="0%" stop-color="#7ee787" stop-opacity="0.15"/>
      <stop offset="100%" stop-color="#7ee787" stop-opacity="0.01"/>
    </linearGradient>
  </defs>

  <text x="60" y="18" class="title">Cumulative Commits</text>

  <line x1="60" y1="160.0" x2="820" y2="160.0" class="grid"/>
  <text x="50" y="163.0" class="label" text-anchor="end">0</text>
  <line x1="60" y1="127.5" x2="820" y2="127.5" class="grid" stroke-dasharray="3,3"/>
  <text x="50" y="130.5" class="label" text-anchor="end">500</text>
  <line x1="60" y1="95.0" x2="820" y2="95.0" class="grid" stroke-dasharray="3,3"/>
  <text x="50" y="98.0" class="label" text-anchor="end">1,000</text>
  <line x1="60" y1="62.5" x2="820" y2="62.5" class="grid" stroke-dasharray="3,3"/>
  <text x="50" y="65.5" class="label" text-anchor="end">1,500</text>
  <line x1="60" y1="30.0" x2="820" y2="30.0" class="grid" stroke-dasharray="3,3"/>
  <text x="50" y="33.0" class="label" text-anchor="end">2,000</text>

  <text x="70.0" y="186" class="label" text-anchor="middle">2021</text>
  <text x="205.5" y="186" class="label" text-anchor="middle">2022</text>
  <text x="350.9" y="186" class="label" text-anchor="middle">2023</text>
  <text x="496.4" y="186" class="label" text-anchor="middle">2024</text>
  <text x="642.3" y="186" class="label" text-anchor="middle">2025</text>
  <text x="787.7" y="186" class="label" text-anchor="middle">2026</text>


  <path class="area" d="M60.0,160.0 L60.0,160.0 60.0,160.0 L184.7,159.7 L185.1,159.6 L186.3,159.5 L205.5,159.4 L205.9,159.0 L206.3,158.9 L206.7,158.6 L207.1,158.6 L207.5,158.4 L208.3,158.1 L208.7,157.9 L209.1,157.8 L209.4,157.7 L211.0,157.5 L211.4,157.5 L211.8,157.4 L215.8,157.3 L226.2,157.1 L280.8,157.1 L281.2,156.5 L282.8,156.4 L283.6,155.9 L289.6,155.8 L290.4,155.6 L290.7,155.4 L291.1,155.3 L291.9,155.1 L292.3,154.7 L292.7,154.0 L293.1,153.9 L294.7,153.6 L295.5,153.6 L297.5,153.4 L303.1,153.2 L313.9,153.0 L319.8,152.9 L322.6,152.8 L323.0,152.7 L323.4,152.5 L323.8,152.3 L325.0,151.8 L325.4,151.7 L325.8,151.7 L327.4,151.4 L327.8,151.1 L328.2,151.0 L328.6,150.4 L329.0,149.9 L329.4,149.7 L329.8,149.5 L330.6,149.4 L332.2,149.3 L336.6,149.1 L348.1,149.0 L348.5,148.7 L348.9,148.6 L352.9,148.0 L353.3,146.5 L354.5,146.3 L354.9,146.3 L356.9,146.1 L370.5,145.8 L370.9,145.7 L371.3,145.6 L372.1,145.4 L374.8,145.2 L375.6,144.9 L376.0,144.7 L378.0,144.6 L387.6,144.4 L583.7,144.3 L584.5,144.2 L585.3,144.1 L586.1,144.0 L586.5,143.9 L586.9,143.8 L587.3,143.8 L587.7,143.7 L591.6,143.6 L602.8,143.6 L606.0,143.5 L607.2,143.4 L609.6,143.4 L612.0,143.3 L612.4,143.2 L614.0,143.2 L615.2,143.1 L616.0,143.0 L645.4,143.0 L645.8,142.8 L646.6,142.8 L647.0,142.7 L648.2,142.5 L650.2,142.4 L655.8,142.3 L667.4,141.7 L667.8,141.5 L672.9,141.3 L673.3,141.2 L674.5,141.1 L676.1,140.9 L678.1,140.2 L678.5,138.4 L678.9,138.3 L681.3,138.2 L682.5,138.1 L682.9,138.0 L683.7,137.8 L686.9,137.7 L689.7,137.2 L691.7,136.7 L692.1,136.5 L693.3,136.2 L693.7,135.4 L694.1,135.2 L694.5,134.9 L694.9,134.7 L695.3,134.4 L696.1,133.9 L697.3,133.5 L711.6,133.3 L712.4,132.4 L721.2,132.2 L726.3,131.9 L728.7,131.9 L729.1,131.8 L731.5,131.7 L731.9,131.7 L732.3,131.6 L732.7,131.4 L733.1,131.1 L733.5,130.5 L733.9,130.4 L736.3,129.4 L736.7,129.3 L737.5,129.1 L740.3,128.8 L741.1,128.7 L741.5,128.5 L742.3,128.5 L742.7,128.0 L743.1,127.9 L743.9,127.8 L744.3,127.6 L744.7,127.6 L745.1,127.5 L746.7,127.1 L747.1,127.0 L747.5,126.8 L747.9,126.7 L748.3,126.6 L748.7,126.4 L749.9,126.1 L750.3,125.9 L750.7,125.8 L751.1,125.6 L751.5,125.2 L752.2,125.1 L752.6,124.4 L753.0,124.1 L753.4,122.8 L753.8,122.5 L754.2,122.2 L754.6,121.5 L755.0,121.4 L755.4,121.2 L755.8,121.1 L756.2,120.7 L758.2,120.0 L758.6,119.8 L759.0,119.2 L759.4,118.1 L759.8,118.0 L760.6,117.9 L761.0,116.9 L761.4,116.4 L761.8,116.3 L762.2,115.3 L763.0,115.0 L763.4,114.9 L763.8,114.8 L764.2,114.7 L764.6,114.6 L765.0,114.6 L766.6,114.4 L767.4,114.3 L767.8,113.8 L768.2,113.5 L769.4,113.5 L771.4,113.3 L773.8,113.1 L774.2,112.9 L774.6,112.9 L775.0,112.5 L775.4,111.6 L775.8,111.5 L776.2,111.4 L776.6,111.3 L777.0,111.1 L777.4,110.6 L781.7,110.5 L782.1,110.4 L785.7,109.9 L786.5,109.5 L786.9,109.4 L787.3,109.1 L787.7,109.0 L788.9,108.8 L789.3,107.9 L789.7,105.5 L790.1,103.5 L790.5,103.4 L790.9,103.1 L791.7,102.8 L792.1,102.5 L792.5,102.1 L793.3,102.0 L793.7,101.4 L794.1,101.3 L794.9,100.4 L795.3,100.3 L795.7,99.8 L796.1,99.5 L796.5,99.1 L796.9,99.0 L798.1,98.4 L798.5,98.1 L798.9,96.6 L799.3,94.4 L799.7,93.6 L800.1,92.6 L800.5,92.5 L800.9,92.1 L801.3,91.9 L801.7,91.4 L802.1,90.6 L802.5,90.6 L802.9,90.1 L803.3,90.0 L803.7,89.5 L804.1,89.0 L804.5,88.4 L804.9,87.8 L805.3,87.7 L805.7,87.5 L806.1,86.4 L806.4,84.4 L806.8,84.1 L807.6,83.7 L808.0,83.5 L808.4,83.4 L808.8,80.2 L809.2,78.8 L809.6,77.3 L810.0,76.8 L810.4,74.4 L810.8,74.1 L811.2,74.0 L811.6,73.5 L812.0,72.4 L812.4,70.4 L812.8,68.2 L813.2,68.1 L813.6,67.6 L814.4,67.5 L814.8,66.2 L815.2,65.2 L815.6,63.8 L816.0,63.6 L816.4,63.5 L816.8,61.4 L817.2,58.9 L817.6,57.8 L818.0,57.3 L818.4,56.6 L818.8,56.1 L819.2,56.0 L820.0,55.9 L820.0,160.0 Z"/>
  <polyline class="line" points="60.0,160.0 184.7,159.7 185.1,159.6 186.3,159.5 205.5,159.4 205.9,159.0 206.3,158.9 206.7,158.6 207.1,158.6 207.5,158.4 208.3,158.1 208.7,157.9 209.1,157.8 209.4,157.7 211.0,157.5 211.4,157.5 211.8,157.4 215.8,157.3 226.2,157.1 280.8,157.1 281.2,156.5 282.8,156.4 283.6,155.9 289.6,155.8 290.4,155.6 290.7,155.4 291.1,155.3 291.9,155.1 292.3,154.7 292.7,154.0 293.1,153.9 294.7,153.6 295.5,153.6 297.5,153.4 303.1,153.2 313.9,153.0 319.8,152.9 322.6,152.8 323.0,152.7 323.4,152.5 323.8,152.3 325.0,151.8 325.4,151.7 325.8,151.7 327.4,151.4 327.8,151.1 328.2,151.0 328.6,150.4 329.0,149.9 329.4,149.7 329.8,149.5 330.6,149.4 332.2,149.3 336.6,149.1 348.1,149.0 348.5,148.7 348.9,148.6 352.9,148.0 353.3,146.5 354.5,146.3 354.9,146.3 356.9,146.1 370.5,145.8 370.9,145.7 371.3,145.6 372.1,145.4 374.8,145.2 375.6,144.9 376.0,144.7 378.0,144.6 387.6,144.4 583.7,144.3 584.5,144.2 585.3,144.1 586.1,144.0 586.5,143.9 586.9,143.8 587.3,143.8 587.7,143.7 591.6,143.6 602.8,143.6 606.0,143.5 607.2,143.4 609.6,143.4 612.0,143.3 612.4,143.2 614.0,143.2 615.2,143.1 616.0,143.0 645.4,143.0 645.8,142.8 646.6,142.8 647.0,142.7 648.2,142.5 650.2,142.4 655.8,142.3 667.4,141.7 667.8,141.5 672.9,141.3 673.3,141.2 674.5,141.1 676.1,140.9 678.1,140.2 678.5,138.4 678.9,138.3 681.3,138.2 682.5,138.1 682.9,138.0 683.7,137.8 686.9,137.7 689.7,137.2 691.7,136.7 692.1,136.5 693.3,136.2 693.7,135.4 694.1,135.2 694.5,134.9 694.9,134.7 695.3,134.4 696.1,133.9 697.3,133.5 711.6,133.3 712.4,132.4 721.2,132.2 726.3,131.9 728.7,131.9 729.1,131.8 731.5,131.7 731.9,131.7 732.3,131.6 732.7,131.4 733.1,131.1 733.5,130.5 733.9,130.4 736.3,129.4 736.7,129.3 737.5,129.1 740.3,128.8 741.1,128.7 741.5,128.5 742.3,128.5 742.7,128.0 743.1,127.9 743.9,127.8 744.3,127.6 744.7,127.6 745.1,127.5 746.7,127.1 747.1,127.0 747.5,126.8 747.9,126.7 748.3,126.6 748.7,126.4 749.9,126.1 750.3,125.9 750.7,125.8 751.1,125.6 751.5,125.2 752.2,125.1 752.6,124.4 753.0,124.1 753.4,122.8 753.8,122.5 754.2,122.2 754.6,121.5 755.0,121.4 755.4,121.2 755.8,121.1 756.2,120.7 758.2,120.0 758.6,119.8 759.0,119.2 759.4,118.1 759.8,118.0 760.6,117.9 761.0,116.9 761.4,116.4 761.8,116.3 762.2,115.3 763.0,115.0 763.4,114.9 763.8,114.8 764.2,114.7 764.6,114.6 765.0,114.6 766.6,114.4 767.4,114.3 767.8,113.8 768.2,113.5 769.4,113.5 771.4,113.3 773.8,113.1 774.2,112.9 774.6,112.9 775.0,112.5 775.4,111.6 775.8,111.5 776.2,111.4 776.6,111.3 777.0,111.1 777.4,110.6 781.7,110.5 782.1,110.4 785.7,109.9 786.5,109.5 786.9,109.4 787.3,109.1 787.7,109.0 788.9,108.8 789.3,107.9 789.7,105.5 790.1,103.5 790.5,103.4 790.9,103.1 791.7,102.8 792.1,102.5 792.5,102.1 793.3,102.0 793.7,101.4 794.1,101.3 794.9,100.4 795.3,100.3 795.7,99.8 796.1,99.5 796.5,99.1 796.9,99.0 798.1,98.4 798.5,98.1 798.9,96.6 799.3,94.4 799.7,93.6 800.1,92.6 800.5,92.5 800.9,92.1 801.3,91.9 801.7,91.4 802.1,90.6 802.5,90.6 802.9,90.1 803.3,90.0 803.7,89.5 804.1,89.0 804.5,88.4 804.9,87.8 805.3,87.7 805.7,87.5 806.1,86.4 806.4,84.4 806.8,84.1 807.6,83.7 808.0,83.5 808.4,83.4 808.8,80.2 809.2,78.8 809.6,77.3 810.0,76.8 810.4,74.4 810.8,74.1 811.2,74.0 811.6,73.5 812.0,72.4 812.4,70.4 812.8,68.2 813.2,68.1 813.6,67.6 814.4,67.5 814.8,66.2 815.2,65.2 815.6,63.8 816.0,63.6 816.4,63.5 816.8,61.4 817.2,58.9 817.6,57.8 818.0,57.3 818.4,56.6 818.8,56.1 819.2,56.0 820.0,55.9"/>

  <g class="hoverpoint">
    <line x1="186.3" y1="30" x2="186.3" y2="160.0" class="guide"/>
    <circle cx="186.3" cy="159.5" r="16" class="hit"/>
    <circle cx="186.3" cy="159.5" r="4" class="hover-dot"><title>Nov 2021: 7 total (+7 this month)</title></circle>
    <rect x="116.3" y="133.5" width="140" height="20" rx="4" class="tooltip-bg"/>
    <text x="186.3" y="147.5" class="tooltip-text" text-anchor="middle">Nov 2021: 7 total (+7 this month)</text>
  </g>
  <g class="hoverpoint">
    <line x1="215.8" y1="30" x2="215.8" y2="160.0" class="guide"/>
    <circle cx="215.8" cy="157.3" r="16" class="hit"/>
    <circle cx="215.8" cy="157.3" r="4" class="hover-dot"><title>Jan 2022: 41 total (+34 this month)</title></circle>
    <rect x="145.8" y="131.3" width="140" height="20" rx="4" class="tooltip-bg"/>
    <text x="215.8" y="145.3" class="tooltip-text" text-anchor="middle">Jan 2022: 41 total (+34 this month)</text>
  </g>
  <g class="hoverpoint">
    <line x1="226.2" y1="30" x2="226.2" y2="160.0" class="guide"/>
    <circle cx="226.2" cy="157.1" r="16" class="hit"/>
    <circle cx="226.2" cy="157.1" r="4" class="hover-dot"><title>Feb 2022: 44 total (+3 this month)</title></circle>
    <rect x="156.2" y="131.1" width="140" height="20" rx="4" class="tooltip-bg"/>
    <text x="226.2" y="145.1" class="tooltip-text" text-anchor="middle">Feb 2022: 44 total (+3 this month)</text>
  </g>
  <g class="hoverpoint">
    <line x1="289.6" y1="30" x2="289.6" y2="160.0" class="guide"/>
    <circle cx="289.6" cy="155.8" r="16" class="hit"/>
    <circle cx="289.6" cy="155.8" r="4" class="hover-dot"><title>Jul 2022: 65 total (+21 this month)</title></circle>
    <rect x="219.6" y="129.8" width="140" height="20" rx="4" class="tooltip-bg"/>
    <text x="289.6" y="143.8" class="tooltip-text" text-anchor="middle">Jul 2022: 65 total (+21 this month)</text>
  </g>
  <g class="hoverpoint">
    <line x1="297.5" y1="30" x2="297.5" y2="160.0" class="guide"/>
    <circle cx="297.5" cy="153.4" r="16" class="hit"/>
    <circle cx="297.5" cy="153.4" r="4" class="hover-dot"><title>Aug 2022: 101 total (+36 this month)</title></circle>
    <rect x="227.5" y="127.4" width="140" height="20" rx="4" class="tooltip-bg"/>
    <text x="297.5" y="141.4" class="tooltip-text" text-anchor="middle">Aug 2022: 101 total (+36 this month)</text>
  </g>
  <g class="hoverpoint">
    <line x1="313.9" y1="30" x2="313.9" y2="160.0" class="guide"/>
    <circle cx="313.9" cy="153.0" r="16" class="hit"/>
    <circle cx="313.9" cy="153.0" r="4" class="hover-dot"><title>Sep 2022: 108 total (+7 this month)</title></circle>
    <rect x="243.9" y="127.0" width="140" height="20" rx="4" class="tooltip-bg"/>
    <text x="313.9" y="141.0" class="tooltip-text" text-anchor="middle">Sep 2022: 108 total (+7 this month)</text>
  </g>
  <g class="hoverpoint">
    <line x1="325.8" y1="30" x2="325.8" y2="160.0" class="guide"/>
    <circle cx="325.8" cy="151.7" r="16" class="hit"/>
    <circle cx="325.8" cy="151.7" r="4" class="hover-dot"><title>Oct 2022: 128 total (+20 this month)</title></circle>
    <rect x="255.8" y="125.7" width="140" height="20" rx="4" class="tooltip-bg"/>
    <text x="325.8" y="139.7" class="tooltip-text" text-anchor="middle">Oct 2022: 128 total (+20 this month)</text>
  </g>
  <g class="hoverpoint">
    <line x1="336.6" y1="30" x2="336.6" y2="160.0" class="guide"/>
    <circle cx="336.6" cy="149.1" r="16" class="hit"/>
    <circle cx="336.6" cy="149.1" r="4" class="hover-dot"><title>Nov 2022: 168 total (+40 this month)</title></circle>
    <rect x="266.6" y="123.1" width="140" height="20" rx="4" class="tooltip-bg"/>
    <text x="336.6" y="137.1" class="tooltip-text" text-anchor="middle">Nov 2022: 168 total (+40 this month)</text>
  </g>
  <g class="hoverpoint">
    <line x1="348.9" y1="30" x2="348.9" y2="160.0" class="guide"/>
    <circle cx="348.9" cy="148.6" r="16" class="hit"/>
    <circle cx="348.9" cy="148.6" r="4" class="hover-dot"><title>Dec 2022: 175 total (+7 this month)</title></circle>
    <rect x="278.9" y="122.6" width="140" height="20" rx="4" class="tooltip-bg"/>
    <text x="348.9" y="136.6" class="tooltip-text" text-anchor="middle">Dec 2022: 175 total (+7 this month)</text>
  </g>
  <g class="hoverpoint">
    <line x1="356.9" y1="30" x2="356.9" y2="160.0" class="guide"/>
    <circle cx="356.9" cy="146.1" r="16" class="hit"/>
    <circle cx="356.9" cy="146.1" r="4" class="hover-dot"><title>Jan 2023: 214 total (+39 this month)</title></circle>
    <rect x="286.9" y="120.1" width="140" height="20" rx="4" class="tooltip-bg"/>
    <text x="356.9" y="134.1" class="tooltip-text" text-anchor="middle">Jan 2023: 214 total (+39 this month)</text>
  </g>
  <g class="hoverpoint">
    <line x1="372.1" y1="30" x2="372.1" y2="160.0" class="guide"/>
    <circle cx="372.1" cy="145.4" r="16" class="hit"/>
    <circle cx="372.1" cy="145.4" r="4" class="hover-dot"><title>Feb 2023: 225 total (+11 this month)</title></circle>
    <rect x="302.1" y="119.4" width="140" height="20" rx="4" class="tooltip-bg"/>
    <text x="372.1" y="133.4" class="tooltip-text" text-anchor="middle">Feb 2023: 225 total (+11 this month)</text>
  </g>
  <g class="hoverpoint">
    <line x1="378.0" y1="30" x2="378.0" y2="160.0" class="guide"/>
    <circle cx="378.0" cy="144.6" r="16" class="hit"/>
    <circle cx="378.0" cy="144.6" r="4" class="hover-dot"><title>Mar 2023: 237 total (+12 this month)</title></circle>
    <rect x="308.0" y="118.6" width="140" height="20" rx="4" class="tooltip-bg"/>
    <text x="378.0" y="132.6" class="tooltip-text" text-anchor="middle">Mar 2023: 237 total (+12 this month)</text>
  </g>
  <g class="hoverpoint">
    <line x1="387.6" y1="30" x2="387.6" y2="160.0" class="guide"/>
    <circle cx="387.6" cy="144.4" r="16" class="hit"/>
    <circle cx="387.6" cy="144.4" r="4" class="hover-dot"><title>Apr 2023: 240 total (+3 this month)</title></circle>
    <rect x="317.6" y="118.4" width="140" height="20" rx="4" class="tooltip-bg"/>
    <text x="387.6" y="132.4" class="tooltip-text" text-anchor="middle">Apr 2023: 240 total (+3 this month)</text>
  </g>
  <g class="hoverpoint">
    <line x1="591.6" y1="30" x2="591.6" y2="160.0" class="guide"/>
    <circle cx="591.6" cy="143.6" r="16" class="hit"/>
    <circle cx="591.6" cy="143.6" r="4" class="hover-dot"><title>Aug 2024: 252 total (+12 this month)</title></circle>
    <rect x="521.6" y="117.6" width="140" height="20" rx="4" class="tooltip-bg"/>
    <text x="591.6" y="131.6" class="tooltip-text" text-anchor="middle">Aug 2024: 252 total (+12 this month)</text>
  </g>
  <g class="hoverpoint">
    <line x1="602.8" y1="30" x2="602.8" y2="160.0" class="guide"/>
    <circle cx="602.8" cy="143.6" r="16" class="hit"/>
    <circle cx="602.8" cy="143.6" r="4" class="hover-dot"><title>Sep 2024: 253 total (+1 this month)</title></circle>
    <rect x="532.8" y="117.6" width="140" height="20" rx="4" class="tooltip-bg"/>
    <text x="602.8" y="131.6" class="tooltip-text" text-anchor="middle">Sep 2024: 253 total (+1 this month)</text>
  </g>
  <g class="hoverpoint">
    <line x1="616.0" y1="30" x2="616.0" y2="160.0" class="guide"/>
    <circle cx="616.0" cy="143.0" r="16" class="hit"/>
    <circle cx="616.0" cy="143.0" r="4" class="hover-dot"><title>Oct 2024: 261 total (+8 this month)</title></circle>
    <rect x="546.0" y="117.0" width="140" height="20" rx="4" class="tooltip-bg"/>
    <text x="616.0" y="131.0" class="tooltip-text" text-anchor="middle">Oct 2024: 261 total (+8 this month)</text>
  </g>
  <g class="hoverpoint">
    <line x1="650.2" y1="30" x2="650.2" y2="160.0" class="guide"/>
    <circle cx="650.2" cy="142.4" r="16" class="hit"/>
    <circle cx="650.2" cy="142.4" r="4" class="hover-dot"><title>Jan 2025: 270 total (+9 this month)</title></circle>
    <rect x="580.2" y="116.4" width="140" height="20" rx="4" class="tooltip-bg"/>
    <text x="650.2" y="130.4" class="tooltip-text" text-anchor="middle">Jan 2025: 270 total (+9 this month)</text>
  </g>
  <g class="hoverpoint">
    <line x1="655.8" y1="30" x2="655.8" y2="160.0" class="guide"/>
    <circle cx="655.8" cy="142.3" r="16" class="hit"/>
    <circle cx="655.8" cy="142.3" r="4" class="hover-dot"><title>Feb 2025: 272 total (+2 this month)</title></circle>
    <rect x="585.8" y="116.3" width="140" height="20" rx="4" class="tooltip-bg"/>
    <text x="655.8" y="130.3" class="tooltip-text" text-anchor="middle">Feb 2025: 272 total (+2 this month)</text>
  </g>
  <g class="hoverpoint">
    <line x1="676.1" y1="30" x2="676.1" y2="160.0" class="guide"/>
    <circle cx="676.1" cy="140.9" r="16" class="hit"/>
    <circle cx="676.1" cy="140.9" r="4" class="hover-dot"><title>Mar 2025: 294 total (+22 this month)</title></circle>
    <rect x="606.1" y="114.9" width="140" height="20" rx="4" class="tooltip-bg"/>
    <text x="676.1" y="128.9" class="tooltip-text" text-anchor="middle">Mar 2025: 294 total (+22 this month)</text>
  </g>
  <g class="hoverpoint">
    <line x1="689.7" y1="30" x2="689.7" y2="160.0" class="guide"/>
    <circle cx="689.7" cy="137.2" r="16" class="hit"/>
    <circle cx="689.7" cy="137.2" r="4" class="hover-dot"><title>Apr 2025: 351 total (+57 this month)</title></circle>
    <rect x="619.7" y="111.2" width="140" height="20" rx="4" class="tooltip-bg"/>
    <text x="689.7" y="125.2" class="tooltip-text" text-anchor="middle">Apr 2025: 351 total (+57 this month)</text>
  </g>
  <g class="hoverpoint">
    <line x1="697.3" y1="30" x2="697.3" y2="160.0" class="guide"/>
    <circle cx="697.3" cy="133.5" r="16" class="hit"/>
    <circle cx="697.3" cy="133.5" r="4" class="hover-dot"><title>May 2025: 408 total (+57 this month)</title></circle>
    <rect x="627.3" y="107.5" width="140" height="20" rx="4" class="tooltip-bg"/>
    <text x="697.3" y="121.5" class="tooltip-text" text-anchor="middle">May 2025: 408 total (+57 this month)</text>
  </g>
  <g class="hoverpoint">
    <line x1="712.4" y1="30" x2="712.4" y2="160.0" class="guide"/>
    <circle cx="712.4" cy="132.4" r="16" class="hit"/>
    <circle cx="712.4" cy="132.4" r="4" class="hover-dot"><title>Jun 2025: 424 total (+16 this month)</title></circle>
    <rect x="642.4" y="106.4" width="140" height="20" rx="4" class="tooltip-bg"/>
    <text x="712.4" y="120.4" class="tooltip-text" text-anchor="middle">Jun 2025: 424 total (+16 this month)</text>
  </g>
  <g class="hoverpoint">
    <line x1="726.3" y1="30" x2="726.3" y2="160.0" class="guide"/>
    <circle cx="726.3" cy="131.9" r="16" class="hit"/>
    <circle cx="726.3" cy="131.9" r="4" class="hover-dot"><title>Jul 2025: 432 total (+8 this month)</title></circle>
    <rect x="656.3" y="105.9" width="140" height="20" rx="4" class="tooltip-bg"/>
    <text x="726.3" y="119.9" class="tooltip-text" text-anchor="middle">Jul 2025: 432 total (+8 this month)</text>
  </g>
  <g class="hoverpoint">
    <line x1="737.5" y1="30" x2="737.5" y2="160.0" class="guide"/>
    <circle cx="737.5" cy="129.1" r="16" class="hit"/>
    <circle cx="737.5" cy="129.1" r="4" class="hover-dot"><title>Aug 2025: 475 total (+43 this month)</title></circle>
    <rect x="667.5" y="103.1" width="140" height="20" rx="4" class="tooltip-bg"/>
    <text x="737.5" y="117.1" class="tooltip-text" text-anchor="middle">Aug 2025: 475 total (+43 this month)</text>
  </g>
  <g class="hoverpoint">
    <line x1="750.7" y1="30" x2="750.7" y2="160.0" class="guide"/>
    <circle cx="750.7" cy="125.8" r="16" class="hit"/>
    <circle cx="750.7" cy="125.8" r="4" class="hover-dot"><title>Sep 2025: 526 total (+51 this month)</title></circle>
    <rect x="680.7" y="99.8" width="140" height="20" rx="4" class="tooltip-bg"/>
    <text x="750.7" y="113.8" class="tooltip-text" text-anchor="middle">Sep 2025: 526 total (+51 this month)</text>
  </g>
  <g class="hoverpoint">
    <line x1="763.0" y1="30" x2="763.0" y2="160.0" class="guide"/>
    <circle cx="763.0" cy="115.0" r="16" class="hit"/>
    <circle cx="763.0" cy="115.0" r="4" class="hover-dot"><title>Oct 2025: 692 total (+166 this month)</title></circle>
    <rect x="693.0" y="89.0" width="140" height="20" rx="4" class="tooltip-bg"/>
    <text x="763.0" y="103.0" class="tooltip-text" text-anchor="middle">Oct 2025: 692 total (+166 this month)</text>
  </g>
  <g class="hoverpoint">
    <line x1="775.0" y1="30" x2="775.0" y2="160.0" class="guide"/>
    <circle cx="775.0" cy="112.5" r="16" class="hit"/>
    <circle cx="775.0" cy="112.5" r="4" class="hover-dot"><title>Nov 2025: 731 total (+39 this month)</title></circle>
    <rect x="705.0" y="86.5" width="140" height="20" rx="4" class="tooltip-bg"/>
    <text x="775.0" y="100.5" class="tooltip-text" text-anchor="middle">Nov 2025: 731 total (+39 this month)</text>
  </g>
  <g class="hoverpoint">
    <line x1="787.3" y1="30" x2="787.3" y2="160.0" class="guide"/>
    <circle cx="787.3" cy="109.1" r="16" class="hit"/>
    <circle cx="787.3" cy="109.1" r="4" class="hover-dot"><title>Dec 2025: 783 total (+52 this month)</title></circle>
    <rect x="717.3" y="83.1" width="140" height="20" rx="4" class="tooltip-bg"/>
    <text x="787.3" y="97.1" class="tooltip-text" text-anchor="middle">Dec 2025: 783 total (+52 this month)</text>
  </g>
  <g class="hoverpoint">
    <line x1="799.7" y1="30" x2="799.7" y2="160.0" class="guide"/>
    <circle cx="799.7" cy="93.6" r="16" class="hit"/>
    <circle cx="799.7" cy="93.6" r="4" class="hover-dot"><title>Jan 2026: 1,022 total (+239 this month)</title></circle>
    <rect x="729.7" y="67.6" width="140" height="20" rx="4" class="tooltip-bg"/>
    <text x="799.7" y="81.6" class="tooltip-text" text-anchor="middle">Jan 2026: 1,022 total (+239 this month)</text>
  </g>
  <g class="hoverpoint">
    <line x1="810.8" y1="30" x2="810.8" y2="160.0" class="guide"/>
    <circle cx="810.8" cy="74.1" r="16" class="hit"/>
    <circle cx="810.8" cy="74.1" r="4" class="hover-dot"><title>Feb 2026: 1,321 total (+299 this month)</title></circle>
    <rect x="740.8" y="48.1" width="140" height="20" rx="4" class="tooltip-bg"/>
    <text x="810.8" y="62.1" class="tooltip-text" text-anchor="middle">Feb 2026: 1,321 total (+299 this month)</text>
  </g>
  <g class="hoverpoint">
    <line x1="820.0" y1="30" x2="820.0" y2="160.0" class="guide"/>
    <circle cx="820.0" cy="55.9" r="16" class="hit"/>
    <circle cx="820.0" cy="55.9" r="4" class="hover-dot"><title>Mar 2026: 1,601 total (+280 this month)</title></circle>
    <rect x="750.0" y="29.9" width="140" height="20" rx="4" class="tooltip-bg"/>
    <text x="820.0" y="43.9" class="tooltip-text" text-anchor="middle">Mar 2026: 1,601 total (+280 this month)</text>
  </g>

  <circle cx="820.0" cy="55.9" r="4" class="dot"/>
  <text x="810.0" y="45.9" class="total">1,601</text>

</svg>