<svg xmlns="http://www.w3.org/2000/svg" width="840" height="196" viewBox="0 0 840 196" fill="none">
  <style>
    .label { font-family: -apple-system, BlinkMacSystemFont, 'Segoe UI', Helvetica, Arial, sans-serif; font-size: 10px; fill: #8b949e; }
    .title { font-family: -apple-system, BlinkMacSystemFont, 'Segoe UI', Helvetica, Arial, sans-serif; font-size: 11px; fill: #8b949e; font-weight: 600; }
    .total { font-family: -apple-system, BlinkMacSystemFont, 'Segoe UI', Helvetica, Arial, sans-serif; font-size: 11px; fill: #7ee787; font-weight: 600; }
    .grid { stroke: #21262d; stroke-width: 1; }
    .line { stroke: #7ee787; stroke-width: 2; stroke-linecap: round; stroke-linejoin: round; fill: none; }
    .dot { fill: #7ee787; }
    .area { fill: url(#areaGrad); }
    /* Hover interaction */
    .hoverpoint .guide { stroke: #7ee787; stroke-width: 1; stroke-dasharray: 2,2; opacity: 0; }
    .hoverpoint .hover-dot { fill: #7ee787; opacity: 0; }
    .hoverpoint .hit { fill: transparent; cursor: pointer; }
    .hoverpoint .tooltip-bg { fill: #161b22; stroke: #30363d; stroke-width: 1; opacity: 0; }
    .hoverpoint .tooltip-text { font-family: -apple-system, BlinkMacSystemFont, 'Segoe UI', Helvetica, Arial, sans-serif; font-size: 9px; fill: #c9d1d9; opacity: 0; }
    .hoverpoint:hover .guide { opacity: 0.5; }
    .hoverpoint:hover .hover-dot { opacity: 1; }
    .hoverpoint:hover .tooltip-bg { opacity: 0.95; }
    .hoverpoint:hover .tooltip-text { opacity: 1; }
  </style>
  <defs>
    <linearGradient id="areaGrad" x1="0" y1="0" x2="0" y2="1">
      <stop offset="0%" stop-color="#7ee787" stop-opacity="0.15"/>
      <stop offset="100%" stop-color="#7ee787" stop-opacity="0.01"/>
    </linearGradient>
  </defs>

  <text x="60" y="18" class="title">Cumulative Commits</text>

  <line x1="60" y1="160.0" x2="820" y2="160.0" class="grid"/>
  <text x="50" y="163.0" class="label" text-anchor="end">0</text>
  <line x1="60" y1="127.5" x2="820" y2="127.5" class="grid" stroke-dasharray="3,3"/>
  <text x="50" y="130.5" class="label" text-anchor="end">1,000</text>
  <line x1="60" y1="95.0" x2="820" y2="95.0" class="grid" stroke-dasharray="3,3"/>
  <text x="50" y="98.0" class="label" text-anchor="end">2,000</text>
  <line x1="60" y1="62.5" x2="820" y2="62.5" class="grid" stroke-dasharray="3,3"/>
  <text x="50" y="65.5" class="label" text-anchor="end">3,000</text>
  <line x1="60" y1="30.0" x2="820" y2="30.0" class="grid" stroke-dasharray="3,3"/>
  <text x="50" y="33.0" class="label" text-anchor="end">4,000</text>

  <text x="70.0" y="186" class="label" text-anchor="middle">2021</text>
  <text x="198.6" y="186" class="label" text-anchor="middle">2022</text>
  <text x="337.1" y="186" class="label" text-anchor="middle">2023</text>
  <text x="475.7" y="186" class="label" text-anchor="middle">2024</text>
  <text x="614.6" y="186" class="label" text-anchor="middle">2025</text>
  <text x="753.2" y="186" class="label" text-anchor="middle">2026</text>


  <path class="area" d="M60.0,160.0 L60.0,160.0 60.0,160.0 L178.8,159.8 L179.2,159.8 L180.3,159.8 L198.6,159.7 L198.9,159.5 L199.3,159.4 L199.7,159.3 L200.1,159.3 L200.5,159.2 L201.2,159.1 L201.6,159.0 L202.0,158.9 L202.4,158.9 L203.9,158.8 L204.3,158.7 L204.6,158.7 L208.4,158.7 L218.3,158.6 L270.3,158.5 L270.7,158.2 L272.2,158.2 L273.0,158.0 L278.7,157.9 L279.4,157.8 L279.8,157.7 L280.2,157.7 L280.9,157.6 L281.3,157.3 L281.7,157.0 L282.1,156.9 L283.6,156.8 L284.4,156.8 L286.3,156.7 L291.6,156.6 L301.8,156.5 L307.5,156.5 L310.2,156.4 L310.5,156.4 L310.9,156.3 L311.3,156.1 L312.4,155.9 L312.8,155.9 L313.2,155.8 L314.7,155.7 L315.1,155.5 L315.5,155.5 L315.9,155.2 L316.2,154.9 L316.6,154.8 L317.0,154.8 L317.8,154.7 L319.3,154.6 L323.5,154.5 L334.5,154.5 L334.8,154.3 L335.2,154.3 L339.0,154.0 L339.4,153.3 L340.5,153.2 L340.9,153.1 L342.8,153.0 L355.7,152.9 L356.1,152.8 L356.5,152.8 L357.2,152.7 L359.9,152.6 L360.7,152.4 L361.0,152.4 L362.9,152.3 L372.0,152.2 L558.8,152.1 L559.6,152.1 L560.3,152.1 L561.1,152.0 L561.5,151.9 L561.9,151.9 L562.2,151.9 L562.6,151.8 L566.4,151.8 L577.0,151.8 L580.1,151.7 L581.2,151.7 L583.5,151.7 L585.8,151.6 L586.2,151.6 L587.7,151.6 L588.8,151.6 L589.6,151.5 L617.7,151.5 L618.0,151.4 L618.8,151.4 L619.2,151.4 L620.3,151.3 L622.2,151.2 L627.5,151.2 L638.5,150.9 L638.9,150.7 L643.9,150.7 L644.2,150.6 L645.4,150.5 L646.9,150.4 L648.8,150.1 L649.2,149.2 L649.6,149.1 L651.8,149.1 L653.0,149.0 L653.3,149.0 L654.1,148.9 L657.1,148.9 L659.8,148.6 L661.7,148.4 L662.1,148.3 L663.2,148.1 L663.6,147.7 L664.0,147.6 L664.4,147.5 L664.7,147.4 L665.1,147.2 L665.9,146.9 L667.0,146.7 L680.7,146.6 L681.4,146.2 L689.8,146.1 L694.7,146.0 L697.0,145.9 L697.4,145.9 L699.7,145.9 L700.0,145.8 L700.4,145.8 L700.8,145.7 L701.2,145.6 L701.6,145.2 L701.9,145.2 L704.2,144.7 L704.6,144.6 L705.4,144.6 L708.0,144.4 L708.8,144.4 L709.2,144.3 L709.9,144.2 L710.3,144.0 L710.7,143.9 L711.4,143.9 L711.8,143.8 L712.2,143.8 L712.6,143.8 L714.1,143.6 L714.5,143.5 L714.8,143.4 L715.2,143.4 L715.6,143.3 L716.0,143.2 L717.1,143.1 L717.5,143.0 L717.9,142.9 L718.3,142.8 L718.6,142.6 L719.4,142.5 L719.8,142.2 L720.2,142.0 L720.5,141.4 L720.9,141.2 L721.3,141.1 L721.7,140.8 L722.1,140.7 L722.4,140.6 L722.8,140.6 L723.2,140.3 L725.1,140.0 L725.5,139.9 L725.9,139.6 L726.2,139.0 L726.6,139.0 L727.4,138.9 L727.8,138.5 L728.1,138.2 L728.5,138.2 L728.9,137.6 L729.7,137.5 L730.0,137.4 L730.4,137.4 L730.8,137.3 L731.2,137.3 L731.5,137.3 L733.1,137.2 L733.8,137.2 L734.2,136.9 L734.6,136.8 L735.7,136.7 L737.6,136.7 L739.9,136.5 L740.3,136.5 L740.7,136.4 L741.0,136.2 L741.4,135.8 L741.8,135.8 L742.2,135.7 L742.6,135.7 L742.9,135.6 L743.3,135.3 L747.5,135.2 L747.9,135.2 L751.3,135.0 L752.0,134.7 L752.4,134.7 L752.8,134.6 L753.2,134.5 L754.3,134.4 L754.7,133.9 L755.1,132.8 L755.5,131.7 L755.8,131.7 L756.2,131.6 L757.0,131.4 L757.4,131.3 L757.7,131.0 L758.5,131.0 L758.9,130.7 L759.3,130.7 L760.0,130.2 L760.4,130.2 L760.8,129.9 L761.2,129.7 L761.5,129.5 L761.9,129.5 L763.1,129.2 L763.4,129.1 L763.8,128.3 L764.2,127.2 L764.6,126.8 L765.0,126.3 L765.3,126.2 L765.7,126.1 L766.1,125.9 L766.5,125.7 L766.9,125.3 L767.2,125.3 L767.6,125.0 L768.0,125.0 L768.4,124.7 L768.8,124.5 L769.1,124.2 L769.5,123.9 L769.9,123.8 L770.3,123.7 L770.6,123.2 L771.0,122.2 L771.4,122.0 L772.2,121.8 L772.5,121.7 L772.9,121.7 L773.3,120.1 L773.7,119.4 L774.1,118.7 L774.4,118.4 L774.8,117.2 L775.2,117.1 L775.6,117.0 L776.0,116.7 L776.3,116.2 L776.7,115.2 L777.1,114.1 L777.5,114.0 L777.9,113.8 L778.6,113.8 L779.0,113.1 L779.4,112.6 L779.8,111.9 L780.1,111.8 L780.5,111.8 L780.9,110.7 L781.3,109.5 L781.7,108.9 L782.0,108.7 L782.4,108.3 L782.8,108.0 L783.2,108.0 L783.9,107.8 L784.3,107.6 L784.7,107.6 L785.1,107.5 L785.5,107.5 L786.6,107.5 L787.0,107.4 L787.7,107.4 L788.5,107.3 L788.9,107.3 L789.6,106.9 L790.0,106.6 L790.4,106.3 L792.7,106.2 L793.0,106.0 L793.4,105.9 L793.8,105.7 L794.2,105.6 L794.6,105.5 L794.9,105.5 L795.3,105.0 L795.7,104.5 L796.1,104.3 L796.5,103.4 L796.8,103.2 L797.6,103.2 L798.0,103.2 L799.1,102.9 L799.5,102.5 L799.9,102.2 L800.3,102.0 L800.6,101.3 L801.0,98.5 L801.4,97.3 L801.8,97.1 L802.2,96.9 L802.5,96.4 L802.9,96.3 L803.3,92.4 L803.7,87.6 L804.1,86.2 L804.4,86.2 L804.8,85.4 L805.2,84.9 L805.6,82.0 L806.0,80.2 L806.3,77.5 L806.7,77.0 L807.1,76.9 L807.5,76.8 L807.9,75.9 L808.2,74.6 L808.6,71.6 L809.0,71.1 L809.4,70.5 L809.8,69.7 L810.1,69.2 L810.5,68.7 L810.9,66.9 L811.3,66.5 L811.6,66.4 L812.0,66.1 L812.4,66.0 L812.8,65.7 L813.2,65.6 L813.5,64.7 L813.9,63.4 L814.3,62.3 L814.7,62.2 L815.1,61.2 L815.4,60.5 L815.8,60.4 L816.2,60.2 L816.6,60.1 L817.0,59.8 L817.3,59.0 L817.7,58.1 L818.1,57.8 L818.5,52.8 L818.9,52.7 L819.2,52.6 L820.0,52.2 L820.0,160.0 Z"/>
  <polyline class="line" points="60.0,160.0 178.8,159.8 179.2,159.8 180.3,159.8 198.6,159.7 198.9,159.5 199.3,159.4 199.7,159.3 200.1,159.3 200.5,159.2 201.2,159.1 201.6,159.0 202.0,158.9 202.4,158.9 203.9,158.8 204.3,158.7 204.6,158.7 208.4,158.7 218.3,158.6 270.3,158.5 270.7,158.2 272.2,158.2 273.0,158.0 278.7,157.9 279.4,157.8 279.8,157.7 280.2,157.7 280.9,157.6 281.3,157.3 281.7,157.0 282.1,156.9 283.6,156.8 284.4,156.8 286.3,156.7 291.6,156.6 301.8,156.5 307.5,156.5 310.2,156.4 310.5,156.4 310.9,156.3 311.3,156.1 312.4,155.9 312.8,155.9 313.2,155.8 314.7,155.7 315.1,155.5 315.5,155.5 315.9,155.2 316.2,154.9 316.6,154.8 317.0,154.8 317.8,154.7 319.3,154.6 323.5,154.5 334.5,154.5 334.8,154.3 335.2,154.3 339.0,154.0 339.4,153.3 340.5,153.2 340.9,153.1 342.8,153.0 355.7,152.9 356.1,152.8 356.5,152.8 357.2,152.7 359.9,152.6 360.7,152.4 361.0,152.4 362.9,152.3 372.0,152.2 558.8,152.1 559.6,152.1 560.3,152.1 561.1,152.0 561.5,151.9 561.9,151.9 562.2,151.9 562.6,151.8 566.4,151.8 577.0,151.8 580.1,151.7 581.2,151.7 583.5,151.7 585.8,151.6 586.2,151.6 587.7,151.6 588.8,151.6 589.6,151.5 617.7,151.5 618.0,151.4 618.8,151.4 619.2,151.4 620.3,151.3 622.2,151.2 627.5,151.2 638.5,150.9 638.9,150.7 643.9,150.7 644.2,150.6 645.4,150.5 646.9,150.4 648.8,150.1 649.2,149.2 649.6,149.1 651.8,149.1 653.0,149.0 653.3,149.0 654.1,148.9 657.1,148.9 659.8,148.6 661.7,148.4 662.1,148.3 663.2,148.1 663.6,147.7 664.0,147.6 664.4,147.5 664.7,147.4 665.1,147.2 665.9,146.9 667.0,146.7 680.7,146.6 681.4,146.2 689.8,146.1 694.7,146.0 697.0,145.9 697.4,145.9 699.7,145.9 700.0,145.8 700.4,145.8 700.8,145.7 701.2,145.6 701.6,145.2 701.9,145.2 704.2,144.7 704.6,144.6 705.4,144.6 708.0,144.4 708.8,144.4 709.2,144.3 709.9,144.2 710.3,144.0 710.7,143.9 711.4,143.9 711.8,143.8 712.2,143.8 712.6,143.8 714.1,143.6 714.5,143.5 714.8,143.4 715.2,143.4 715.6,143.3 716.0,143.2 717.1,143.1 717.5,143.0 717.9,142.9 718.3,142.8 718.6,142.6 719.4,142.5 719.8,142.2 720.2,142.0 720.5,141.4 720.9,141.2 721.3,141.1 721.7,140.8 722.1,140.7 722.4,140.6 722.8,140.6 723.2,140.3 725.1,140.0 725.5,139.9 725.9,139.6 726.2,139.0 726.6,139.0 727.4,138.9 727.8,138.5 728.1,138.2 728.5,138.2 728.9,137.6 729.7,137.5 730.0,137.4 730.4,137.4 730.8,137.3 731.2,137.3 731.5,137.3 733.1,137.2 733.8,137.2 734.2,136.9 734.6,136.8 735.7,136.7 737.6,136.7 739.9,136.5 740.3,136.5 740.7,136.4 741.0,136.2 741.4,135.8 741.8,135.8 742.2,135.7 742.6,135.7 742.9,135.6 743.3,135.3 747.5,135.2 747.9,135.2 751.3,135.0 752.0,134.7 752.4,134.7 752.8,134.6 753.2,134.5 754.3,134.4 754.7,133.9 755.1,132.8 755.5,131.7 755.8,131.7 756.2,131.6 757.0,131.4 757.4,131.3 757.7,131.0 758.5,131.0 758.9,130.7 759.3,130.7 760.0,130.2 760.4,130.2 760.8,129.9 761.2,129.7 761.5,129.5 761.9,129.5 763.1,129.2 763.4,129.1 763.8,128.3 764.2,127.2 764.6,126.8 765.0,126.3 765.3,126.2 765.7,126.1 766.1,125.9 766.5,125.7 766.9,125.3 767.2,125.3 767.6,125.0 768.0,125.0 768.4,124.7 768.8,124.5 769.1,124.2 769.5,123.9 769.9,123.8 770.3,123.7 770.6,123.2 771.0,122.2 771.4,122.0 772.2,121.8 772.5,121.7 772.9,121.7 773.3,120.1 773.7,119.4 774.1,118.7 774.4,118.4 774.8,117.2 775.2,117.1 775.6,117.0 776.0,116.7 776.3,116.2 776.7,115.2 777.1,114.1 777.5,114.0 777.9,113.8 778.6,113.8 779.0,113.1 779.4,112.6 779.8,111.9 780.1,111.8 780.5,111.8 780.9,110.7 781.3,109.5 781.7,108.9 782.0,108.7 782.4,108.3 782.8,108.0 783.2,108.0 783.9,107.8 784.3,107.6 784.7,107.6 785.1,107.5 785.5,107.5 786.6,107.5 787.0,107.4 787.7,107.4 788.5,107.3 788.9,107.3 789.6,106.9 790.0,106.6 790.4,106.3 792.7,106.2 793.0,106.0 793.4,105.9 793.8,105.7 794.2,105.6 794.6,105.5 794.9,105.5 795.3,105.0 795.7,104.5 796.1,104.3 796.5,103.4 796.8,103.2 797.6,103.2 798.0,103.2 799.1,102.9 799.5,102.5 799.9,102.2 800.3,102.0 800.6,101.3 801.0,98.5 801.4,97.3 801.8,97.1 802.2,96.9 802.5,96.4 802.9,96.3 803.3,92.4 803.7,87.6 804.1,86.2 804.4,86.2 804.8,85.4 805.2,84.9 805.6,82.0 806.0,80.2 806.3,77.5 806.7,77.0 807.1,76.9 807.5,76.8 807.9,75.9 808.2,74.6 808.6,71.6 809.0,71.1 809.4,70.5 809.8,69.7 810.1,69.2 810.5,68.7 810.9,66.9 811.3,66.5 811.6,66.4 812.0,66.1 812.4,66.0 812.8,65.7 813.2,65.6 813.5,64.7 813.9,63.4 814.3,62.3 814.7,62.2 815.1,61.2 815.4,60.5 815.8,60.4 816.2,60.2 816.6,60.1 817.0,59.8 817.3,59.0 817.7,58.1 818.1,57.8 818.5,52.8 818.9,52.7 819.2,52.6 820.0,52.2"/>

  <g class="hoverpoint">
    <line x1="180.3" y1="30" x2="180.3" y2="160.0" class="guide"/>
    <circle cx="180.3" cy="159.8" r="16" class="hit"/>
    <circle cx="180.3" cy="159.8" r="4" class="hover-dot"><title>Nov 2021: 7 total (+7 this month)</title></circle>
    <rect x="110.3" y="133.8" width="140" height="20" rx="4" class="tooltip-bg"/>
    <text x="180.3" y="147.8" class="tooltip-text" text-anchor="middle">Nov 2021: 7 total (+7 this month)</text>
  </g>
  <g class="hoverpoint">
    <line x1="208.4" y1="30" x2="208.4" y2="160.0" class="guide"/>
    <circle cx="208.4" cy="158.7" r="16" class="hit"/>
    <circle cx="208.4" cy="158.7" r="4" class="hover-dot"><title>Jan 2022: 41 total (+34 this month)</title></circle>
    <rect x="138.4" y="132.7" width="140" height="20" rx="4" class="tooltip-bg"/>
    <text x="208.4" y="146.7" class="tooltip-text" text-anchor="middle">Jan 2022: 41 total (+34 this month)</text>
  </g>
  <g class="hoverpoint">
    <line x1="218.3" y1="30" x2="218.3" y2="160.0" class="guide"/>
    <circle cx="218.3" cy="158.6" r="16" class="hit"/>
    <circle cx="218.3" cy="158.6" r="4" class="hover-dot"><title>Feb 2022: 44 total (+3 this month)</title></circle>
    <rect x="148.3" y="132.6" width="140" height="20" rx="4" class="tooltip-bg"/>
    <text x="218.3" y="146.6" class="tooltip-text" text-anchor="middle">Feb 2022: 44 total (+3 this month)</text>
  </g>
  <g class="hoverpoint">
    <line x1="278.7" y1="30" x2="278.7" y2="160.0" class="guide"/>
    <circle cx="278.7" cy="157.9" r="16" class="hit"/>
    <circle cx="278.7" cy="157.9" r="4" class="hover-dot"><title>Jul 2022: 65 total (+21 this month)</title></circle>
    <rect x="208.7" y="131.9" width="140" height="20" rx="4" class="tooltip-bg"/>
    <text x="278.7" y="145.9" class="tooltip-text" text-anchor="middle">Jul 2022: 65 total (+21 this month)</text>
  </g>
  <g class="hoverpoint">
    <line x1="286.3" y1="30" x2="286.3" y2="160.0" class="guide"/>
    <circle cx="286.3" cy="156.7" r="16" class="hit"/>
    <circle cx="286.3" cy="156.7" r="4" class="hover-dot"><title>Aug 2022: 101 total (+36 this month)</title></circle>
    <rect x="216.3" y="130.7" width="140" height="20" rx="4" class="tooltip-bg"/>
    <text x="286.3" y="144.7" class="tooltip-text" text-anchor="middle">Aug 2022: 101 total (+36 this month)</text>
  </g>
  <g class="hoverpoint">
    <line x1="301.8" y1="30" x2="301.8" y2="160.0" class="guide"/>
    <circle cx="301.8" cy="156.5" r="16" class="hit"/>
    <circle cx="301.8" cy="156.5" r="4" class="hover-dot"><title>Sep 2022: 108 total (+7 this month)</title></circle>
    <rect x="231.8" y="130.5" width="140" height="20" rx="4" class="tooltip-bg"/>
    <text x="301.8" y="144.5" class="tooltip-text" text-anchor="middle">Sep 2022: 108 total (+7 this month)</text>
  </g>
  <g class="hoverpoint">
    <line x1="313.2" y1="30" x2="313.2" y2="160.0" class="guide"/>
    <circle cx="313.2" cy="155.8" r="16" class="hit"/>
    <circle cx="313.2" cy="155.8" r="4" class="hover-dot"><title>Oct 2022: 128 total (+20 this month)</title></circle>
    <rect x="243.2" y="129.8" width="140" height="20" rx="4" class="tooltip-bg"/>
    <text x="313.2" y="143.8" class="tooltip-text" text-anchor="middle">Oct 2022: 128 total (+20 this month)</text>
  </g>
  <g class="hoverpoint">
    <line x1="323.5" y1="30" x2="323.5" y2="160.0" class="guide"/>
    <circle cx="323.5" cy="154.5" r="16" class="hit"/>
    <circle cx="323.5" cy="154.5" r="4" class="hover-dot"><title>Nov 2022: 168 total (+40 this month)</title></circle>
    <rect x="253.5" y="128.5" width="140" height="20" rx="4" class="tooltip-bg"/>
    <text x="323.5" y="142.5" class="tooltip-text" text-anchor="middle">Nov 2022: 168 total (+40 this month)</text>
  </g>
  <g class="hoverpoint">
    <line x1="335.2" y1="30" x2="335.2" y2="160.0" class="guide"/>
    <circle cx="335.2" cy="154.3" r="16" class="hit"/>
    <circle cx="335.2" cy="154.3" r="4" class="hover-dot"><title>Dec 2022: 175 total (+7 this month)</title></circle>
    <rect x="265.2" y="128.3" width="140" height="20" rx="4" class="tooltip-bg"/>
    <text x="335.2" y="142.3" class="tooltip-text" text-anchor="middle">Dec 2022: 175 total (+7 this month)</text>
  </g>
  <g class="hoverpoint">
    <line x1="342.8" y1="30" x2="342.8" y2="160.0" class="guide"/>
    <circle cx="342.8" cy="153.0" r="16" class="hit"/>
    <circle cx="342.8" cy="153.0" r="4" class="hover-dot"><title>Jan 2023: 214 total (+39 this month)</title></circle>
    <rect x="272.8" y="127.0" width="140" height="20" rx="4" class="tooltip-bg"/>
    <text x="342.8" y="141.0" class="tooltip-text" text-anchor="middle">Jan 2023: 214 total (+39 this month)</text>
  </g>
  <g class="hoverpoint">
    <line x1="357.2" y1="30" x2="357.2" y2="160.0" class="guide"/>
    <circle cx="357.2" cy="152.7" r="16" class="hit"/>
    <circle cx="357.2" cy="152.7" r="4" class="hover-dot"><title>Feb 2023: 225 total (+11 this month)</title></circle>
    <rect x="287.2" y="126.7" width="140" height="20" rx="4" class="tooltip-bg"/>
    <text x="357.2" y="140.7" class="tooltip-text" text-anchor="middle">Feb 2023: 225 total (+11 this month)</text>
  </g>
  <g class="hoverpoint">
    <line x1="362.9" y1="30" x2="362.9" y2="160.0" class="guide"/>
    <circle cx="362.9" cy="152.3" r="16" class="hit"/>
    <circle cx="362.9" cy="152.3" r="4" class="hover-dot"><title>Mar 2023: 237 total (+12 this month)</title></circle>
    <rect x="292.9" y="126.3" width="140" height="20" rx="4" class="tooltip-bg"/>
    <text x="362.9" y="140.3" class="tooltip-text" text-anchor="middle">Mar 2023: 237 total (+12 this month)</text>
  </g>
  <g class="hoverpoint">
    <line x1="372.0" y1="30" x2="372.0" y2="160.0" class="guide"/>
    <circle cx="372.0" cy="152.2" r="16" class="hit"/>
    <circle cx="372.0" cy="152.2" r="4" class="hover-dot"><title>Apr 2023: 240 total (+3 this month)</title></circle>
    <rect x="302.0" y="126.2" width="140" height="20" rx="4" class="tooltip-bg"/>
    <text x="372.0" y="140.2" class="tooltip-text" text-anchor="middle">Apr 2023: 240 total (+3 this month)</text>
  </g>
  <g class="hoverpoint">
    <line x1="566.4" y1="30" x2="566.4" y2="160.0" class="guide"/>
    <circle cx="566.4" cy="151.8" r="16" class="hit"/>
    <circle cx="566.4" cy="151.8" r="4" class="hover-dot"><title>Aug 2024: 252 total (+12 this month)</title></circle>
    <rect x="496.4" y="125.8" width="140" height="20" rx="4" class="tooltip-bg"/>
    <text x="566.4" y="139.8" class="tooltip-text" text-anchor="middle">Aug 2024: 252 total (+12 this month)</text>
  </g>
  <g class="hoverpoint">
    <line x1="577.0" y1="30" x2="577.0" y2="160.0" class="guide"/>
    <circle cx="577.0" cy="151.8" r="16" class="hit"/>
    <circle cx="577.0" cy="151.8" r="4" class="hover-dot"><title>Sep 2024: 253 total (+1 this month)</title></circle>
    <rect x="507.0" y="125.8" width="140" height="20" rx="4" class="tooltip-bg"/>
    <text x="577.0" y="139.8" class="tooltip-text" text-anchor="middle">Sep 2024: 253 total (+1 this month)</text>
  </g>
  <g class="hoverpoint">
    <line x1="589.6" y1="30" x2="589.6" y2="160.0" class="guide"/>
    <circle cx="589.6" cy="151.5" r="16" class="hit"/>
    <circle cx="589.6" cy="151.5" r="4" class="hover-dot"><title>Oct 2024: 261 total (+8 this month)</title></circle>
    <rect x="519.6" y="125.5" width="140" height="20" rx="4" class="tooltip-bg"/>
    <text x="589.6" y="139.5" class="tooltip-text" text-anchor="middle">Oct 2024: 261 total (+8 this month)</text>
  </g>
  <g class="hoverpoint">
    <line x1="622.2" y1="30" x2="622.2" y2="160.0" class="guide"/>
    <circle cx="622.2" cy="151.2" r="16" class="hit"/>
    <circle cx="622.2" cy="151.2" r="4" class="hover-dot"><title>Jan 2025: 270 total (+9 this month)</title></circle>
    <rect x="552.2" y="125.2" width="140" height="20" rx="4" class="tooltip-bg"/>
    <text x="622.2" y="139.2" class="tooltip-text" text-anchor="middle">Jan 2025: 270 total (+9 this month)</text>
  </g>
  <g class="hoverpoint">
    <line x1="627.5" y1="30" x2="627.5" y2="160.0" class="guide"/>
    <circle cx="627.5" cy="151.2" r="16" class="hit"/>
    <circle cx="627.5" cy="151.2" r="4" class="hover-dot"><title>Feb 2025: 272 total (+2 this month)</title></circle>
    <rect x="557.5" y="125.2" width="140" height="20" rx="4" class="tooltip-bg"/>
    <text x="627.5" y="139.2" class="tooltip-text" text-anchor="middle">Feb 2025: 272 total (+2 this month)</text>
  </g>
  <g class="hoverpoint">
    <line x1="646.9" y1="30" x2="646.9" y2="160.0" class="guide"/>
    <circle cx="646.9" cy="150.4" r="16" class="hit"/>
    <circle cx="646.9" cy="150.4" r="4" class="hover-dot"><title>Mar 2025: 294 total (+22 this month)</title></circle>
    <rect x="576.9" y="124.4" width="140" height="20" rx="4" class="tooltip-bg"/>
    <text x="646.9" y="138.4" class="tooltip-text" text-anchor="middle">Mar 2025: 294 total (+22 this month)</text>
  </g>
  <g class="hoverpoint">
    <line x1="659.8" y1="30" x2="659.8" y2="160.0" class="guide"/>
    <circle cx="659.8" cy="148.6" r="16" class="hit"/>
    <circle cx="659.8" cy="148.6" r="4" class="hover-dot"><title>Apr 2025: 351 total (+57 this month)</title></circle>
    <rect x="589.8" y="122.6" width="140" height="20" rx="4" class="tooltip-bg"/>
    <text x="659.8" y="136.6" class="tooltip-text" text-anchor="middle">Apr 2025: 351 total (+57 this month)</text>
  </g>
  <g class="hoverpoint">
    <line x1="667.0" y1="30" x2="667.0" y2="160.0" class="guide"/>
    <circle cx="667.0" cy="146.7" r="16" class="hit"/>
    <circle cx="667.0" cy="146.7" r="4" class="hover-dot"><title>May 2025: 408 total (+57 this month)</title></circle>
    <rect x="597.0" y="120.7" width="140" height="20" rx="4" class="tooltip-bg"/>
    <text x="667.0" y="134.7" class="tooltip-text" text-anchor="middle">May 2025: 408 total (+57 this month)</text>
  </g>
  <g class="hoverpoint">
    <line x1="681.4" y1="30" x2="681.4" y2="160.0" class="guide"/>
    <circle cx="681.4" cy="146.2" r="16" class="hit"/>
    <circle cx="681.4" cy="146.2" r="4" class="hover-dot"><title>Jun 2025: 424 total (+16 this month)</title></circle>
    <rect x="611.4" y="120.2" width="140" height="20" rx="4" class="tooltip-bg"/>
    <text x="681.4" y="134.2" class="tooltip-text" text-anchor="middle">Jun 2025: 424 total (+16 this month)</text>
  </g>
  <g class="hoverpoint">
    <line x1="694.7" y1="30" x2="694.7" y2="160.0" class="guide"/>
    <circle cx="694.7" cy="146.0" r="16" class="hit"/>
    <circle cx="694.7" cy="146.0" r="4" class="hover-dot"><title>Jul 2025: 432 total (+8 this month)</title></circle>
    <rect x="624.7" y="120.0" width="140" height="20" rx="4" class="tooltip-bg"/>
    <text x="694.7" y="134.0" class="tooltip-text" text-anchor="middle">Jul 2025: 432 total (+8 this month)</text>
  </g>
  <g class="hoverpoint">
    <line x1="705.4" y1="30" x2="705.4" y2="160.0" class="guide"/>
    <circle cx="705.4" cy="144.6" r="16" class="hit"/>
    <circle cx="705.4" cy="144.6" r="4" class="hover-dot"><title>Aug 2025: 475 total (+43 this month)</title></circle>
    <rect x="635.4" y="118.6" width="140" height="20" rx="4" class="tooltip-bg"/>
    <text x="705.4" y="132.6" class="tooltip-text" text-anchor="middle">Aug 2025: 475 total (+43 this month)</text>
  </g>
  <g class="hoverpoint">
    <line x1="717.9" y1="30" x2="717.9" y2="160.0" class="guide"/>
    <circle cx="717.9" cy="142.9" r="16" class="hit"/>
    <circle cx="717.9" cy="142.9" r="4" class="hover-dot"><title>Sep 2025: 526 total (+51 this month)</title></circle>
    <rect x="647.9" y="116.9" width="140" height="20" rx="4" class="tooltip-bg"/>
    <text x="717.9" y="130.9" class="tooltip-text" text-anchor="middle">Sep 2025: 526 total (+51 this month)</text>
  </g>
  <g class="hoverpoint">
    <line x1="729.7" y1="30" x2="729.7" y2="160.0" class="guide"/>
    <circle cx="729.7" cy="137.5" r="16" class="hit"/>
    <circle cx="729.7" cy="137.5" r="4" class="hover-dot"><title>Oct 2025: 692 total (+166 this month)</title></circle>
    <rect x="659.7" y="111.5" width="140" height="20" rx="4" class="tooltip-bg"/>
    <text x="729.7" y="125.5" class="tooltip-text" text-anchor="middle">Oct 2025: 692 total (+166 this month)</text>
  </g>
  <g class="hoverpoint">
    <line x1="741.0" y1="30" x2="741.0" y2="160.0" class="guide"/>
    <circle cx="741.0" cy="136.2" r="16" class="hit"/>
    <circle cx="741.0" cy="136.2" r="4" class="hover-dot"><title>Nov 2025: 731 total (+39 this month)</title></circle>
    <rect x="671.0" y="110.2" width="140" height="20" rx="4" class="tooltip-bg"/>
    <text x="741.0" y="124.2" class="tooltip-text" text-anchor="middle">Nov 2025: 731 total (+39 this month)</text>
  </g>
  <g class="hoverpoint">
    <line x1="752.8" y1="30" x2="752.8" y2="160.0" class="guide"/>
    <circle cx="752.8" cy="134.6" r="16" class="hit"/>
    <circle cx="752.8" cy="134.6" r="4" class="hover-dot"><title>Dec 2025: 783 total (+52 this month)</title></circle>
    <rect x="682.8" y="108.6" width="140" height="20" rx="4" class="tooltip-bg"/>
    <text x="752.8" y="122.6" class="tooltip-text" text-anchor="middle">Dec 2025: 783 total (+52 this month)</text>
  </g>
  <g class="hoverpoint">
    <line x1="764.6" y1="30" x2="764.6" y2="160.0" class="guide"/>
    <circle cx="764.6" cy="126.8" r="16" class="hit"/>
    <circle cx="764.6" cy="126.8" r="4" class="hover-dot"><title>Jan 2026: 1,022 total (+239 this month)</title></circle>
    <rect x="694.6" y="100.8" width="140" height="20" rx="4" class="tooltip-bg"/>
    <text x="764.6" y="114.8" class="tooltip-text" text-anchor="middle">Jan 2026: 1,022 total (+239 this month)</text>
  </g>
  <g class="hoverpoint">
    <line x1="775.2" y1="30" x2="775.2" y2="160.0" class="guide"/>
    <circle cx="775.2" cy="117.1" r="16" class="hit"/>
    <circle cx="775.2" cy="117.1" r="4" class="hover-dot"><title>Feb 2026: 1,321 total (+299 this month)</title></circle>
    <rect x="705.2" y="91.1" width="140" height="20" rx="4" class="tooltip-bg"/>
    <text x="775.2" y="105.1" class="tooltip-text" text-anchor="middle">Feb 2026: 1,321 total (+299 this month)</text>
  </g>
  <g class="hoverpoint">
    <line x1="787.0" y1="30" x2="787.0" y2="160.0" class="guide"/>
    <circle cx="787.0" cy="107.4" r="16" class="hit"/>
    <circle cx="787.0" cy="107.4" r="4" class="hover-dot"><title>Mar 2026: 1,617 total (+296 this month)</title></circle>
    <rect x="717.0" y="81.4" width="140" height="20" rx="4" class="tooltip-bg"/>
    <text x="787.0" y="95.4" class="tooltip-text" text-anchor="middle">Mar 2026: 1,617 total (+296 this month)</text>
  </g>
  <g class="hoverpoint">
    <line x1="798.0" y1="30" x2="798.0" y2="160.0" class="guide"/>
    <circle cx="798.0" cy="103.2" r="16" class="hit"/>
    <circle cx="798.0" cy="103.2" r="4" class="hover-dot"><title>Apr 2026: 1,749 total (+132 this month)</title></circle>
    <rect x="728.0" y="77.2" width="140" height="20" rx="4" class="tooltip-bg"/>
    <text x="798.0" y="91.2" class="tooltip-text" text-anchor="middle">Apr 2026: 1,749 total (+132 this month)</text>
  </g>
  <g class="hoverpoint">
    <line x1="810.1" y1="30" x2="810.1" y2="160.0" class="guide"/>
    <circle cx="810.1" cy="69.2" r="16" class="hit"/>
    <circle cx="810.1" cy="69.2" r="4" class="hover-dot"><title>May 2026: 2,795 total (+1,046 this month)</title></circle>
    <rect x="740.1" y="43.2" width="140" height="20" rx="4" class="tooltip-bg"/>
    <text x="810.1" y="57.2" class="tooltip-text" text-anchor="middle">May 2026: 2,795 total (+1,046 this month)</text>
  </g>
  <g class="hoverpoint">
    <line x1="820.0" y1="30" x2="820.0" y2="160.0" class="guide"/>
    <circle cx="820.0" cy="52.2" r="16" class="hit"/>
    <circle cx="820.0" cy="52.2" r="4" class="hover-dot"><title>Jun 2026: 3,316 total (+521 this month)</title></circle>
    <rect x="750.0" y="26.2" width="140" height="20" rx="4" class="tooltip-bg"/>
    <text x="820.0" y="40.2" class="tooltip-text" text-anchor="middle">Jun 2026: 3,316 total (+521 this month)</text>
  </g>

  <circle cx="820.0" cy="52.2" r="4" class="dot"/>
  <text x="810.0" y="42.2" class="total">3,316</text>

</svg>