<svg xmlns="http://www.w3.org/2000/svg" width="840" height="196" viewBox="0 0 840 196" fill="none">
  <style>
    .label { font-family: -apple-system, BlinkMacSystemFont, 'Segoe UI', Helvetica, Arial, sans-serif; font-size: 10px; fill: #8b949e; }
    .title { font-family: -apple-system, BlinkMacSystemFont, 'Segoe UI', Helvetica, Arial, sans-serif; font-size: 11px; fill: #8b949e; font-weight: 600; }
    .total { font-family: -apple-system, BlinkMacSystemFont, 'Segoe UI', Helvetica, Arial, sans-serif; font-size: 11px; fill: #7ee787; font-weight: 600; }
    .grid { stroke: #21262d; stroke-width: 1; }
    .line { stroke: #7ee787; stroke-width: 2; stroke-linecap: round; stroke-linejoin: round; fill: none; }
    .dot { fill: #7ee787; }
    .area { fill: url(#areaGrad); }
    /* Hover interaction */
    .hoverpoint .guide { stroke: #7ee787; stroke-width: 1; stroke-dasharray: 2,2; opacity: 0; }
    .hoverpoint .hover-dot { fill: #7ee787; opacity: 0; }
    .hoverpoint .hit { fill: transparent; cursor: pointer; }
    .hoverpoint .tooltip-bg { fill: #161b22; stroke: #30363d; stroke-width: 1; opacity: 0; }
    .hoverpoint .tooltip-text { font-family: -apple-system, BlinkMacSystemFont, 'Segoe UI', Helvetica, Arial, sans-serif; font-size: 9px; fill: #c9d1d9; opacity: 0; }
    .hoverpoint:hover .guide { opacity: 0.5; }
    .hoverpoint:hover .hover-dot { opacity: 1; }
    .hoverpoint:hover .tooltip-bg { opacity: 0.95; }
    .hoverpoint:hover .tooltip-text { opacity: 1; }
  </style>
  <defs>
    <linearGradient id="areaGrad" x1="0" y1="0" x2="0" y2="1">
      <stop offset="0%" stop-color="#7ee787" stop-opacity="0.15"/>
      <stop offset="100%" stop-color="#7ee787" stop-opacity="0.01"/>
    </linearGradient>
  </defs>

  <text x="60" y="18" class="title">Cumulative Commits</text>

  <line x1="60" y1="160.0" x2="820" y2="160.0" class="grid"/>
  <text x="50" y="163.0" class="label" text-anchor="end">0</text>
  <line x1="60" y1="127.5" x2="820" y2="127.5" class="grid" stroke-dasharray="3,3"/>
  <text x="50" y="130.5" class="label" text-anchor="end">750</text>
  <line x1="60" y1="95.0" x2="820" y2="95.0" class="grid" stroke-dasharray="3,3"/>
  <text x="50" y="98.0" class="label" text-anchor="end">1,500</text>
  <line x1="60" y1="62.5" x2="820" y2="62.5" class="grid" stroke-dasharray="3,3"/>
  <text x="50" y="65.5" class="label" text-anchor="end">2,250</text>
  <line x1="60" y1="30.0" x2="820" y2="30.0" class="grid" stroke-dasharray="3,3"/>
  <text x="50" y="33.0" class="label" text-anchor="end">3,000</text>

  <text x="70.0" y="186" class="label" text-anchor="middle">2021</text>
  <text x="200.5" y="186" class="label" text-anchor="middle">2022</text>
  <text x="341.1" y="186" class="label" text-anchor="middle">2023</text>
  <text x="481.6" y="186" class="label" text-anchor="middle">2024</text>
  <text x="622.5" y="186" class="label" text-anchor="middle">2025</text>
  <text x="763.0" y="186" class="label" text-anchor="middle">2026</text>


  <path class="area" d="M60.0,160.0 L60.0,160.0 60.0,160.0 L180.5,159.8 L180.9,159.7 L182.0,159.7 L200.5,159.6 L200.9,159.3 L201.3,159.3 L201.7,159.1 L202.1,159.0 L202.5,159.0 L203.2,158.7 L203.6,158.6 L204.0,158.5 L204.4,158.5 L205.9,158.4 L206.3,158.3 L206.7,158.3 L210.5,158.2 L220.5,158.1 L273.3,158.1 L273.7,157.7 L275.2,157.6 L276.0,157.3 L281.8,157.2 L282.5,157.1 L282.9,156.9 L283.3,156.9 L284.1,156.8 L284.5,156.4 L284.8,156.0 L285.2,155.9 L286.8,155.8 L287.5,155.7 L289.5,155.6 L294.9,155.4 L305.2,155.3 L311.0,155.3 L313.7,155.2 L314.1,155.1 L314.5,155.0 L314.9,154.8 L316.0,154.5 L316.4,154.5 L316.8,154.5 L318.3,154.3 L318.7,154.1 L319.1,154.0 L319.5,153.6 L319.9,153.2 L320.3,153.1 L320.6,153.0 L321.4,152.9 L323.0,152.8 L327.2,152.7 L338.4,152.7 L338.7,152.5 L339.1,152.4 L343.0,152.0 L343.4,151.0 L344.5,150.9 L344.9,150.9 L346.8,150.7 L359.9,150.6 L360.3,150.5 L360.7,150.4 L361.5,150.2 L364.2,150.1 L364.9,149.9 L365.3,149.8 L367.2,149.7 L376.5,149.6 L565.9,149.5 L566.7,149.5 L567.4,149.4 L568.2,149.3 L568.6,149.3 L569.0,149.2 L569.4,149.2 L569.7,149.1 L573.6,149.1 L584.4,149.0 L587.5,149.0 L588.6,148.9 L590.9,148.9 L593.2,148.9 L593.6,148.8 L595.2,148.8 L596.3,148.7 L597.1,148.7 L625.6,148.6 L626.0,148.6 L626.7,148.5 L627.1,148.5 L628.3,148.3 L630.2,148.3 L635.6,148.2 L646.7,147.8 L647.1,147.7 L652.1,147.6 L652.5,147.5 L653.7,147.4 L655.2,147.3 L657.1,146.8 L657.5,145.6 L657.9,145.5 L660.2,145.4 L661.4,145.4 L661.8,145.4 L662.5,145.2 L665.6,145.1 L668.3,144.8 L670.2,144.5 L670.6,144.4 L671.8,144.1 L672.2,143.6 L672.5,143.5 L672.9,143.3 L673.3,143.1 L673.7,142.9 L674.5,142.6 L675.6,142.3 L689.5,142.2 L690.3,141.6 L698.7,141.5 L703.7,141.3 L706.0,141.2 L706.4,141.2 L708.7,141.2 L709.1,141.1 L709.5,141.1 L709.9,140.9 L710.3,140.8 L710.7,140.3 L711.0,140.2 L713.4,139.6 L713.7,139.5 L714.5,139.4 L717.2,139.2 L718.0,139.2 L718.4,139.0 L719.1,139.0 L719.5,138.7 L719.9,138.6 L720.7,138.5 L721.1,138.4 L721.4,138.4 L721.8,138.3 L723.4,138.1 L723.7,138.0 L724.1,137.9 L724.5,137.8 L724.9,137.7 L725.3,137.6 L726.4,137.4 L726.8,137.3 L727.2,137.2 L727.6,137.1 L728.0,136.8 L728.8,136.7 L729.1,136.3 L729.5,136.0 L729.9,135.2 L730.3,135.0 L730.7,134.8 L731.1,134.3 L731.4,134.3 L731.8,134.1 L732.2,134.1 L732.6,133.8 L734.5,133.3 L734.9,133.2 L735.3,132.8 L735.7,132.1 L736.1,132.0 L736.8,131.9 L737.2,131.3 L737.6,130.9 L738.0,130.9 L738.4,130.2 L739.1,130.0 L739.5,129.9 L739.9,129.8 L740.3,129.8 L740.7,129.8 L741.1,129.7 L742.6,129.6 L743.4,129.5 L743.8,129.2 L744.2,129.0 L745.3,129.0 L747.2,128.9 L749.5,128.7 L749.9,128.6 L750.3,128.6 L750.7,128.3 L751.1,127.7 L751.5,127.7 L751.9,127.6 L752.2,127.5 L752.6,127.4 L753.0,127.1 L757.2,127.0 L757.6,126.9 L761.1,126.6 L761.9,126.3 L762.2,126.2 L762.6,126.1 L763.0,126.0 L764.2,125.9 L764.6,125.2 L764.9,123.7 L765.3,122.3 L765.7,122.3 L766.1,122.1 L766.9,121.9 L767.3,121.7 L767.6,121.4 L768.4,121.3 L768.8,120.9 L769.2,120.9 L769.9,120.3 L770.3,120.2 L770.7,119.9 L771.1,119.7 L771.5,119.4 L771.9,119.4 L773.0,119.0 L773.4,118.7 L773.8,117.7 L774.2,116.3 L774.6,115.7 L775.0,115.1 L775.3,115.0 L775.7,114.8 L776.1,114.6 L776.5,114.2 L776.9,113.8 L777.3,113.7 L777.6,113.4 L778.0,113.3 L778.4,113.0 L778.8,112.6 L779.2,112.3 L779.6,111.9 L780.0,111.8 L780.3,111.6 L780.7,110.9 L781.1,109.6 L781.5,109.4 L782.3,109.1 L782.7,109.0 L783.0,108.9 L783.4,106.8 L783.8,105.8 L784.2,104.9 L784.6,104.5 L785.0,102.9 L785.3,102.8 L785.7,102.7 L786.1,102.3 L786.5,101.6 L786.9,100.2 L787.3,98.8 L787.7,98.7 L788.0,98.4 L788.8,98.3 L789.2,97.5 L789.6,96.8 L790.0,95.9 L790.4,95.7 L790.7,95.7 L791.1,94.3 L791.5,92.6 L791.9,91.9 L792.3,91.5 L792.7,91.1 L793.0,90.7 L793.4,90.7 L794.2,90.5 L794.6,90.2 L795.0,90.1 L795.4,90.1 L795.7,90.0 L796.9,90.0 L797.3,89.9 L798.1,89.8 L798.8,89.8 L799.2,89.7 L800.0,89.1 L800.4,88.8 L800.7,88.4 L803.1,88.3 L803.4,88.0 L803.8,87.9 L804.2,87.5 L804.6,87.5 L805.0,87.4 L805.4,87.3 L805.8,86.7 L806.1,86.0 L806.5,85.8 L806.9,84.5 L807.3,84.3 L808.1,84.3 L808.4,84.2 L809.6,83.8 L810.0,83.3 L810.4,83.0 L810.8,82.7 L811.1,81.7 L811.5,78.0 L811.9,76.4 L812.3,76.1 L812.7,75.8 L813.1,75.2 L813.5,75.1 L813.8,69.9 L814.2,63.5 L814.6,61.6 L815.0,61.5 L815.4,60.6 L815.8,59.8 L816.1,56.0 L816.5,53.6 L816.9,50.1 L817.3,49.3 L817.7,49.2 L818.1,49.1 L818.5,47.9 L818.8,46.8 L819.2,45.5 L819.6,45.5 L820.0,45.0 L820.0,160.0 Z"/>
  <polyline class="line" points="60.0,160.0 180.5,159.8 180.9,159.7 182.0,159.7 200.5,159.6 200.9,159.3 201.3,159.3 201.7,159.1 202.1,159.0 202.5,159.0 203.2,158.7 203.6,158.6 204.0,158.5 204.4,158.5 205.9,158.4 206.3,158.3 206.7,158.3 210.5,158.2 220.5,158.1 273.3,158.1 273.7,157.7 275.2,157.6 276.0,157.3 281.8,157.2 282.5,157.1 282.9,156.9 283.3,156.9 284.1,156.8 284.5,156.4 284.8,156.0 285.2,155.9 286.8,155.8 287.5,155.7 289.5,155.6 294.9,155.4 305.2,155.3 311.0,155.3 313.7,155.2 314.1,155.1 314.5,155.0 314.9,154.8 316.0,154.5 316.4,154.5 316.8,154.5 318.3,154.3 318.7,154.1 319.1,154.0 319.5,153.6 319.9,153.2 320.3,153.1 320.6,153.0 321.4,152.9 323.0,152.8 327.2,152.7 338.4,152.7 338.7,152.5 339.1,152.4 343.0,152.0 343.4,151.0 344.5,150.9 344.9,150.9 346.8,150.7 359.9,150.6 360.3,150.5 360.7,150.4 361.5,150.2 364.2,150.1 364.9,149.9 365.3,149.8 367.2,149.7 376.5,149.6 565.9,149.5 566.7,149.5 567.4,149.4 568.2,149.3 568.6,149.3 569.0,149.2 569.4,149.2 569.7,149.1 573.6,149.1 584.4,149.0 587.5,149.0 588.6,148.9 590.9,148.9 593.2,148.9 593.6,148.8 595.2,148.8 596.3,148.7 597.1,148.7 625.6,148.6 626.0,148.6 626.7,148.5 627.1,148.5 628.3,148.3 630.2,148.3 635.6,148.2 646.7,147.8 647.1,147.7 652.1,147.6 652.5,147.5 653.7,147.4 655.2,147.3 657.1,146.8 657.5,145.6 657.9,145.5 660.2,145.4 661.4,145.4 661.8,145.4 662.5,145.2 665.6,145.1 668.3,144.8 670.2,144.5 670.6,144.4 671.8,144.1 672.2,143.6 672.5,143.5 672.9,143.3 673.3,143.1 673.7,142.9 674.5,142.6 675.6,142.3 689.5,142.2 690.3,141.6 698.7,141.5 703.7,141.3 706.0,141.2 706.4,141.2 708.7,141.2 709.1,141.1 709.5,141.1 709.9,140.9 710.3,140.8 710.7,140.3 711.0,140.2 713.4,139.6 713.7,139.5 714.5,139.4 717.2,139.2 718.0,139.2 718.4,139.0 719.1,139.0 719.5,138.7 719.9,138.6 720.7,138.5 721.1,138.4 721.4,138.4 721.8,138.3 723.4,138.1 723.7,138.0 724.1,137.9 724.5,137.8 724.9,137.7 725.3,137.6 726.4,137.4 726.8,137.3 727.2,137.2 727.6,137.1 728.0,136.8 728.8,136.7 729.1,136.3 729.5,136.0 729.9,135.2 730.3,135.0 730.7,134.8 731.1,134.3 731.4,134.3 731.8,134.1 732.2,134.1 732.6,133.8 734.5,133.3 734.9,133.2 735.3,132.8 735.7,132.1 736.1,132.0 736.8,131.9 737.2,131.3 737.6,130.9 738.0,130.9 738.4,130.2 739.1,130.0 739.5,129.9 739.9,129.8 740.3,129.8 740.7,129.8 741.1,129.7 742.6,129.6 743.4,129.5 743.8,129.2 744.2,129.0 745.3,129.0 747.2,128.9 749.5,128.7 749.9,128.6 750.3,128.6 750.7,128.3 751.1,127.7 751.5,127.7 751.9,127.6 752.2,127.5 752.6,127.4 753.0,127.1 757.2,127.0 757.6,126.9 761.1,126.6 761.9,126.3 762.2,126.2 762.6,126.1 763.0,126.0 764.2,125.9 764.6,125.2 764.9,123.7 765.3,122.3 765.7,122.3 766.1,122.1 766.9,121.9 767.3,121.7 767.6,121.4 768.4,121.3 768.8,120.9 769.2,120.9 769.9,120.3 770.3,120.2 770.7,119.9 771.1,119.7 771.5,119.4 771.9,119.4 773.0,119.0 773.4,118.7 773.8,117.7 774.2,116.3 774.6,115.7 775.0,115.1 775.3,115.0 775.7,114.8 776.1,114.6 776.5,114.2 776.9,113.8 777.3,113.7 777.6,113.4 778.0,113.3 778.4,113.0 778.8,112.6 779.2,112.3 779.6,111.9 780.0,111.8 780.3,111.6 780.7,110.9 781.1,109.6 781.5,109.4 782.3,109.1 782.7,109.0 783.0,108.9 783.4,106.8 783.8,105.8 784.2,104.9 784.6,104.5 785.0,102.9 785.3,102.8 785.7,102.7 786.1,102.3 786.5,101.6 786.9,100.2 787.3,98.8 787.7,98.7 788.0,98.4 788.8,98.3 789.2,97.5 789.6,96.8 790.0,95.9 790.4,95.7 790.7,95.7 791.1,94.3 791.5,92.6 791.9,91.9 792.3,91.5 792.7,91.1 793.0,90.7 793.4,90.7 794.2,90.5 794.6,90.2 795.0,90.1 795.4,90.1 795.7,90.0 796.9,90.0 797.3,89.9 798.1,89.8 798.8,89.8 799.2,89.7 800.0,89.1 800.4,88.8 800.7,88.4 803.1,88.3 803.4,88.0 803.8,87.9 804.2,87.5 804.6,87.5 805.0,87.4 805.4,87.3 805.8,86.7 806.1,86.0 806.5,85.8 806.9,84.5 807.3,84.3 808.1,84.3 808.4,84.2 809.6,83.8 810.0,83.3 810.4,83.0 810.8,82.7 811.1,81.7 811.5,78.0 811.9,76.4 812.3,76.1 812.7,75.8 813.1,75.2 813.5,75.1 813.8,69.9 814.2,63.5 814.6,61.6 815.0,61.5 815.4,60.6 815.8,59.8 816.1,56.0 816.5,53.6 816.9,50.1 817.3,49.3 817.7,49.2 818.1,49.1 818.5,47.9 818.8,46.8 819.2,45.5 819.6,45.5 820.0,45.0"/>

  <g class="hoverpoint">
    <line x1="182.0" y1="30" x2="182.0" y2="160.0" class="guide"/>
    <circle cx="182.0" cy="159.7" r="16" class="hit"/>
    <circle cx="182.0" cy="159.7" r="4" class="hover-dot"><title>Nov 2021: 7 total (+7 this month)</title></circle>
    <rect x="112.0" y="133.7" width="140" height="20" rx="4" class="tooltip-bg"/>
    <text x="182.0" y="147.7" class="tooltip-text" text-anchor="middle">Nov 2021: 7 total (+7 this month)</text>
  </g>
  <g class="hoverpoint">
    <line x1="210.5" y1="30" x2="210.5" y2="160.0" class="guide"/>
    <circle cx="210.5" cy="158.2" r="16" class="hit"/>
    <circle cx="210.5" cy="158.2" r="4" class="hover-dot"><title>Jan 2022: 41 total (+34 this month)</title></circle>
    <rect x="140.5" y="132.2" width="140" height="20" rx="4" class="tooltip-bg"/>
    <text x="210.5" y="146.2" class="tooltip-text" text-anchor="middle">Jan 2022: 41 total (+34 this month)</text>
  </g>
  <g class="hoverpoint">
    <line x1="220.5" y1="30" x2="220.5" y2="160.0" class="guide"/>
    <circle cx="220.5" cy="158.1" r="16" class="hit"/>
    <circle cx="220.5" cy="158.1" r="4" class="hover-dot"><title>Feb 2022: 44 total (+3 this month)</title></circle>
    <rect x="150.5" y="132.1" width="140" height="20" rx="4" class="tooltip-bg"/>
    <text x="220.5" y="146.1" class="tooltip-text" text-anchor="middle">Feb 2022: 44 total (+3 this month)</text>
  </g>
  <g class="hoverpoint">
    <line x1="281.8" y1="30" x2="281.8" y2="160.0" class="guide"/>
    <circle cx="281.8" cy="157.2" r="16" class="hit"/>
    <circle cx="281.8" cy="157.2" r="4" class="hover-dot"><title>Jul 2022: 65 total (+21 this month)</title></circle>
    <rect x="211.8" y="131.2" width="140" height="20" rx="4" class="tooltip-bg"/>
    <text x="281.8" y="145.2" class="tooltip-text" text-anchor="middle">Jul 2022: 65 total (+21 this month)</text>
  </g>
  <g class="hoverpoint">
    <line x1="289.5" y1="30" x2="289.5" y2="160.0" class="guide"/>
    <circle cx="289.5" cy="155.6" r="16" class="hit"/>
    <circle cx="289.5" cy="155.6" r="4" class="hover-dot"><title>Aug 2022: 101 total (+36 this month)</title></circle>
    <rect x="219.5" y="129.6" width="140" height="20" rx="4" class="tooltip-bg"/>
    <text x="289.5" y="143.6" class="tooltip-text" text-anchor="middle">Aug 2022: 101 total (+36 this month)</text>
  </g>
  <g class="hoverpoint">
    <line x1="305.2" y1="30" x2="305.2" y2="160.0" class="guide"/>
    <circle cx="305.2" cy="155.3" r="16" class="hit"/>
    <circle cx="305.2" cy="155.3" r="4" class="hover-dot"><title>Sep 2022: 108 total (+7 this month)</title></circle>
    <rect x="235.2" y="129.3" width="140" height="20" rx="4" class="tooltip-bg"/>
    <text x="305.2" y="143.3" class="tooltip-text" text-anchor="middle">Sep 2022: 108 total (+7 this month)</text>
  </g>
  <g class="hoverpoint">
    <line x1="316.8" y1="30" x2="316.8" y2="160.0" class="guide"/>
    <circle cx="316.8" cy="154.5" r="16" class="hit"/>
    <circle cx="316.8" cy="154.5" r="4" class="hover-dot"><title>Oct 2022: 128 total (+20 this month)</title></circle>
    <rect x="246.8" y="128.5" width="140" height="20" rx="4" class="tooltip-bg"/>
    <text x="316.8" y="142.5" class="tooltip-text" text-anchor="middle">Oct 2022: 128 total (+20 this month)</text>
  </g>
  <g class="hoverpoint">
    <line x1="327.2" y1="30" x2="327.2" y2="160.0" class="guide"/>
    <circle cx="327.2" cy="152.7" r="16" class="hit"/>
    <circle cx="327.2" cy="152.7" r="4" class="hover-dot"><title>Nov 2022: 168 total (+40 this month)</title></circle>
    <rect x="257.2" y="126.7" width="140" height="20" rx="4" class="tooltip-bg"/>
    <text x="327.2" y="140.7" class="tooltip-text" text-anchor="middle">Nov 2022: 168 total (+40 this month)</text>
  </g>
  <g class="hoverpoint">
    <line x1="339.1" y1="30" x2="339.1" y2="160.0" class="guide"/>
    <circle cx="339.1" cy="152.4" r="16" class="hit"/>
    <circle cx="339.1" cy="152.4" r="4" class="hover-dot"><title>Dec 2022: 175 total (+7 this month)</title></circle>
    <rect x="269.1" y="126.4" width="140" height="20" rx="4" class="tooltip-bg"/>
    <text x="339.1" y="140.4" class="tooltip-text" text-anchor="middle">Dec 2022: 175 total (+7 this month)</text>
  </g>
  <g class="hoverpoint">
    <line x1="346.8" y1="30" x2="346.8" y2="160.0" class="guide"/>
    <circle cx="346.8" cy="150.7" r="16" class="hit"/>
    <circle cx="346.8" cy="150.7" r="4" class="hover-dot"><title>Jan 2023: 214 total (+39 this month)</title></circle>
    <rect x="276.8" y="124.7" width="140" height="20" rx="4" class="tooltip-bg"/>
    <text x="346.8" y="138.7" class="tooltip-text" text-anchor="middle">Jan 2023: 214 total (+39 this month)</text>
  </g>
  <g class="hoverpoint">
    <line x1="361.5" y1="30" x2="361.5" y2="160.0" class="guide"/>
    <circle cx="361.5" cy="150.2" r="16" class="hit"/>
    <circle cx="361.5" cy="150.2" r="4" class="hover-dot"><title>Feb 2023: 225 total (+11 this month)</title></circle>
    <rect x="291.5" y="124.2" width="140" height="20" rx="4" class="tooltip-bg"/>
    <text x="361.5" y="138.2" class="tooltip-text" text-anchor="middle">Feb 2023: 225 total (+11 this month)</text>
  </g>
  <g class="hoverpoint">
    <line x1="367.2" y1="30" x2="367.2" y2="160.0" class="guide"/>
    <circle cx="367.2" cy="149.7" r="16" class="hit"/>
    <circle cx="367.2" cy="149.7" r="4" class="hover-dot"><title>Mar 2023: 237 total (+12 this month)</title></circle>
    <rect x="297.2" y="123.7" width="140" height="20" rx="4" class="tooltip-bg"/>
    <text x="367.2" y="137.7" class="tooltip-text" text-anchor="middle">Mar 2023: 237 total (+12 this month)</text>
  </g>
  <g class="hoverpoint">
    <line x1="376.5" y1="30" x2="376.5" y2="160.0" class="guide"/>
    <circle cx="376.5" cy="149.6" r="16" class="hit"/>
    <circle cx="376.5" cy="149.6" r="4" class="hover-dot"><title>Apr 2023: 240 total (+3 this month)</title></circle>
    <rect x="306.5" y="123.6" width="140" height="20" rx="4" class="tooltip-bg"/>
    <text x="376.5" y="137.6" class="tooltip-text" text-anchor="middle">Apr 2023: 240 total (+3 this month)</text>
  </g>
  <g class="hoverpoint">
    <line x1="573.6" y1="30" x2="573.6" y2="160.0" class="guide"/>
    <circle cx="573.6" cy="149.1" r="16" class="hit"/>
    <circle cx="573.6" cy="149.1" r="4" class="hover-dot"><title>Aug 2024: 252 total (+12 this month)</title></circle>
    <rect x="503.6" y="123.1" width="140" height="20" rx="4" class="tooltip-bg"/>
    <text x="573.6" y="137.1" class="tooltip-text" text-anchor="middle">Aug 2024: 252 total (+12 this month)</text>
  </g>
  <g class="hoverpoint">
    <line x1="584.4" y1="30" x2="584.4" y2="160.0" class="guide"/>
    <circle cx="584.4" cy="149.0" r="16" class="hit"/>
    <circle cx="584.4" cy="149.0" r="4" class="hover-dot"><title>Sep 2024: 253 total (+1 this month)</title></circle>
    <rect x="514.4" y="123.0" width="140" height="20" rx="4" class="tooltip-bg"/>
    <text x="584.4" y="137.0" class="tooltip-text" text-anchor="middle">Sep 2024: 253 total (+1 this month)</text>
  </g>
  <g class="hoverpoint">
    <line x1="597.1" y1="30" x2="597.1" y2="160.0" class="guide"/>
    <circle cx="597.1" cy="148.7" r="16" class="hit"/>
    <circle cx="597.1" cy="148.7" r="4" class="hover-dot"><title>Oct 2024: 261 total (+8 this month)</title></circle>
    <rect x="527.1" y="122.7" width="140" height="20" rx="4" class="tooltip-bg"/>
    <text x="597.1" y="136.7" class="tooltip-text" text-anchor="middle">Oct 2024: 261 total (+8 this month)</text>
  </g>
  <g class="hoverpoint">
    <line x1="630.2" y1="30" x2="630.2" y2="160.0" class="guide"/>
    <circle cx="630.2" cy="148.3" r="16" class="hit"/>
    <circle cx="630.2" cy="148.3" r="4" class="hover-dot"><title>Jan 2025: 270 total (+9 this month)</title></circle>
    <rect x="560.2" y="122.3" width="140" height="20" rx="4" class="tooltip-bg"/>
    <text x="630.2" y="136.3" class="tooltip-text" text-anchor="middle">Jan 2025: 270 total (+9 this month)</text>
  </g>
  <g class="hoverpoint">
    <line x1="635.6" y1="30" x2="635.6" y2="160.0" class="guide"/>
    <circle cx="635.6" cy="148.2" r="16" class="hit"/>
    <circle cx="635.6" cy="148.2" r="4" class="hover-dot"><title>Feb 2025: 272 total (+2 this month)</title></circle>
    <rect x="565.6" y="122.2" width="140" height="20" rx="4" class="tooltip-bg"/>
    <text x="635.6" y="136.2" class="tooltip-text" text-anchor="middle">Feb 2025: 272 total (+2 this month)</text>
  </g>
  <g class="hoverpoint">
    <line x1="655.2" y1="30" x2="655.2" y2="160.0" class="guide"/>
    <circle cx="655.2" cy="147.3" r="16" class="hit"/>
    <circle cx="655.2" cy="147.3" r="4" class="hover-dot"><title>Mar 2025: 294 total (+22 this month)</title></circle>
    <rect x="585.2" y="121.3" width="140" height="20" rx="4" class="tooltip-bg"/>
    <text x="655.2" y="135.3" class="tooltip-text" text-anchor="middle">Mar 2025: 294 total (+22 this month)</text>
  </g>
  <g class="hoverpoint">
    <line x1="668.3" y1="30" x2="668.3" y2="160.0" class="guide"/>
    <circle cx="668.3" cy="144.8" r="16" class="hit"/>
    <circle cx="668.3" cy="144.8" r="4" class="hover-dot"><title>Apr 2025: 351 total (+57 this month)</title></circle>
    <rect x="598.3" y="118.8" width="140" height="20" rx="4" class="tooltip-bg"/>
    <text x="668.3" y="132.8" class="tooltip-text" text-anchor="middle">Apr 2025: 351 total (+57 this month)</text>
  </g>
  <g class="hoverpoint">
    <line x1="675.6" y1="30" x2="675.6" y2="160.0" class="guide"/>
    <circle cx="675.6" cy="142.3" r="16" class="hit"/>
    <circle cx="675.6" cy="142.3" r="4" class="hover-dot"><title>May 2025: 408 total (+57 this month)</title></circle>
    <rect x="605.6" y="116.3" width="140" height="20" rx="4" class="tooltip-bg"/>
    <text x="675.6" y="130.3" class="tooltip-text" text-anchor="middle">May 2025: 408 total (+57 this month)</text>
  </g>
  <g class="hoverpoint">
    <line x1="690.3" y1="30" x2="690.3" y2="160.0" class="guide"/>
    <circle cx="690.3" cy="141.6" r="16" class="hit"/>
    <circle cx="690.3" cy="141.6" r="4" class="hover-dot"><title>Jun 2025: 424 total (+16 this month)</title></circle>
    <rect x="620.3" y="115.6" width="140" height="20" rx="4" class="tooltip-bg"/>
    <text x="690.3" y="129.6" class="tooltip-text" text-anchor="middle">Jun 2025: 424 total (+16 this month)</text>
  </g>
  <g class="hoverpoint">
    <line x1="703.7" y1="30" x2="703.7" y2="160.0" class="guide"/>
    <circle cx="703.7" cy="141.3" r="16" class="hit"/>
    <circle cx="703.7" cy="141.3" r="4" class="hover-dot"><title>Jul 2025: 432 total (+8 this month)</title></circle>
    <rect x="633.7" y="115.3" width="140" height="20" rx="4" class="tooltip-bg"/>
    <text x="703.7" y="129.3" class="tooltip-text" text-anchor="middle">Jul 2025: 432 total (+8 this month)</text>
  </g>
  <g class="hoverpoint">
    <line x1="714.5" y1="30" x2="714.5" y2="160.0" class="guide"/>
    <circle cx="714.5" cy="139.4" r="16" class="hit"/>
    <circle cx="714.5" cy="139.4" r="4" class="hover-dot"><title>Aug 2025: 475 total (+43 this month)</title></circle>
    <rect x="644.5" y="113.4" width="140" height="20" rx="4" class="tooltip-bg"/>
    <text x="714.5" y="127.4" class="tooltip-text" text-anchor="middle">Aug 2025: 475 total (+43 this month)</text>
  </g>
  <g class="hoverpoint">
    <line x1="727.2" y1="30" x2="727.2" y2="160.0" class="guide"/>
    <circle cx="727.2" cy="137.2" r="16" class="hit"/>
    <circle cx="727.2" cy="137.2" r="4" class="hover-dot"><title>Sep 2025: 526 total (+51 this month)</title></circle>
    <rect x="657.2" y="111.2" width="140" height="20" rx="4" class="tooltip-bg"/>
    <text x="727.2" y="125.2" class="tooltip-text" text-anchor="middle">Sep 2025: 526 total (+51 this month)</text>
  </g>
  <g class="hoverpoint">
    <line x1="739.1" y1="30" x2="739.1" y2="160.0" class="guide"/>
    <circle cx="739.1" cy="130.0" r="16" class="hit"/>
    <circle cx="739.1" cy="130.0" r="4" class="hover-dot"><title>Oct 2025: 692 total (+166 this month)</title></circle>
    <rect x="669.1" y="104.0" width="140" height="20" rx="4" class="tooltip-bg"/>
    <text x="739.1" y="118.0" class="tooltip-text" text-anchor="middle">Oct 2025: 692 total (+166 this month)</text>
  </g>
  <g class="hoverpoint">
    <line x1="750.7" y1="30" x2="750.7" y2="160.0" class="guide"/>
    <circle cx="750.7" cy="128.3" r="16" class="hit"/>
    <circle cx="750.7" cy="128.3" r="4" class="hover-dot"><title>Nov 2025: 731 total (+39 this month)</title></circle>
    <rect x="680.7" y="102.3" width="140" height="20" rx="4" class="tooltip-bg"/>
    <text x="750.7" y="116.3" class="tooltip-text" text-anchor="middle">Nov 2025: 731 total (+39 this month)</text>
  </g>
  <g class="hoverpoint">
    <line x1="762.6" y1="30" x2="762.6" y2="160.0" class="guide"/>
    <circle cx="762.6" cy="126.1" r="16" class="hit"/>
    <circle cx="762.6" cy="126.1" r="4" class="hover-dot"><title>Dec 2025: 783 total (+52 this month)</title></circle>
    <rect x="692.6" y="100.1" width="140" height="20" rx="4" class="tooltip-bg"/>
    <text x="762.6" y="114.1" class="tooltip-text" text-anchor="middle">Dec 2025: 783 total (+52 this month)</text>
  </g>
  <g class="hoverpoint">
    <line x1="774.6" y1="30" x2="774.6" y2="160.0" class="guide"/>
    <circle cx="774.6" cy="115.7" r="16" class="hit"/>
    <circle cx="774.6" cy="115.7" r="4" class="hover-dot"><title>Jan 2026: 1,022 total (+239 this month)</title></circle>
    <rect x="704.6" y="89.7" width="140" height="20" rx="4" class="tooltip-bg"/>
    <text x="774.6" y="103.7" class="tooltip-text" text-anchor="middle">Jan 2026: 1,022 total (+239 this month)</text>
  </g>
  <g class="hoverpoint">
    <line x1="785.3" y1="30" x2="785.3" y2="160.0" class="guide"/>
    <circle cx="785.3" cy="102.8" r="16" class="hit"/>
    <circle cx="785.3" cy="102.8" r="4" class="hover-dot"><title>Feb 2026: 1,321 total (+299 this month)</title></circle>
    <rect x="715.3" y="76.8" width="140" height="20" rx="4" class="tooltip-bg"/>
    <text x="785.3" y="90.8" class="tooltip-text" text-anchor="middle">Feb 2026: 1,321 total (+299 this month)</text>
  </g>
  <g class="hoverpoint">
    <line x1="797.3" y1="30" x2="797.3" y2="160.0" class="guide"/>
    <circle cx="797.3" cy="89.9" r="16" class="hit"/>
    <circle cx="797.3" cy="89.9" r="4" class="hover-dot"><title>Mar 2026: 1,617 total (+296 this month)</title></circle>
    <rect x="727.3" y="63.9" width="140" height="20" rx="4" class="tooltip-bg"/>
    <text x="797.3" y="77.9" class="tooltip-text" text-anchor="middle">Mar 2026: 1,617 total (+296 this month)</text>
  </g>
  <g class="hoverpoint">
    <line x1="808.4" y1="30" x2="808.4" y2="160.0" class="guide"/>
    <circle cx="808.4" cy="84.2" r="16" class="hit"/>
    <circle cx="808.4" cy="84.2" r="4" class="hover-dot"><title>Apr 2026: 1,749 total (+132 this month)</title></circle>
    <rect x="738.4" y="58.2" width="140" height="20" rx="4" class="tooltip-bg"/>
    <text x="808.4" y="72.2" class="tooltip-text" text-anchor="middle">Apr 2026: 1,749 total (+132 this month)</text>
  </g>
  <g class="hoverpoint">
    <line x1="820.0" y1="30" x2="820.0" y2="160.0" class="guide"/>
    <circle cx="820.0" cy="45.0" r="16" class="hit"/>
    <circle cx="820.0" cy="45.0" r="4" class="hover-dot"><title>May 2026: 2,654 total (+905 this month)</title></circle>
    <rect x="750.0" y="19.0" width="140" height="20" rx="4" class="tooltip-bg"/>
    <text x="820.0" y="33.0" class="tooltip-text" text-anchor="middle">May 2026: 2,654 total (+905 this month)</text>
  </g>

  <circle cx="820.0" cy="45.0" r="4" class="dot"/>
  <text x="810.0" y="35.0" class="total">2,654</text>

</svg>