<svg xmlns="http://www.w3.org/2000/svg" width="840" height="196" viewBox="0 0 840 196" fill="none">
  <style>
    .label { font-family: -apple-system, BlinkMacSystemFont, 'Segoe UI', Helvetica, Arial, sans-serif; font-size: 10px; fill: #8b949e; }
    .title { font-family: -apple-system, BlinkMacSystemFont, 'Segoe UI', Helvetica, Arial, sans-serif; font-size: 11px; fill: #8b949e; font-weight: 600; }
    .total { font-family: -apple-system, BlinkMacSystemFont, 'Segoe UI', Helvetica, Arial, sans-serif; font-size: 11px; fill: #7ee787; font-weight: 600; }
    .grid { stroke: #21262d; stroke-width: 1; }
    .line { stroke: #7ee787; stroke-width: 2; stroke-linecap: round; stroke-linejoin: round; fill: none; }
    .dot { fill: #7ee787; }
    .area { fill: url(#areaGrad); }
    /* Hover interaction */
    .hoverpoint .guide { stroke: #7ee787; stroke-width: 1; stroke-dasharray: 2,2; opacity: 0; }
    .hoverpoint .hover-dot { fill: #7ee787; opacity: 0; }
    .hoverpoint .hit { fill: transparent; cursor: pointer; }
    .hoverpoint .tooltip-bg { fill: #161b22; stroke: #30363d; stroke-width: 1; opacity: 0; }
    .hoverpoint .tooltip-text { font-family: -apple-system, BlinkMacSystemFont, 'Segoe UI', Helvetica, Arial, sans-serif; font-size: 9px; fill: #c9d1d9; opacity: 0; }
    .hoverpoint:hover .guide { opacity: 0.5; }
    .hoverpoint:hover .hover-dot { opacity: 1; }
    .hoverpoint:hover .tooltip-bg { opacity: 0.95; }
    .hoverpoint:hover .tooltip-text { opacity: 1; }
  </style>
  <defs>
    <linearGradient id="areaGrad" x1="0" y1="0" x2="0" y2="1">
      <stop offset="0%" stop-color="#7ee787" stop-opacity="0.15"/>
      <stop offset="100%" stop-color="#7ee787" stop-opacity="0.01"/>
    </linearGradient>
  </defs>

  <text x="60" y="18" class="title">Cumulative Commits</text>

  <line x1="60" y1="160.0" x2="820" y2="160.0" class="grid"/>
  <text x="50" y="163.0" class="label" text-anchor="end">0</text>
  <line x1="60" y1="127.5" x2="820" y2="127.5" class="grid" stroke-dasharray="3,3"/>
  <text x="50" y="130.5" class="label" text-anchor="end">1,000</text>
  <line x1="60" y1="95.0" x2="820" y2="95.0" class="grid" stroke-dasharray="3,3"/>
  <text x="50" y="98.0" class="label" text-anchor="end">2,000</text>
  <line x1="60" y1="62.5" x2="820" y2="62.5" class="grid" stroke-dasharray="3,3"/>
  <text x="50" y="65.5" class="label" text-anchor="end">3,000</text>
  <line x1="60" y1="30.0" x2="820" y2="30.0" class="grid" stroke-dasharray="3,3"/>
  <text x="50" y="33.0" class="label" text-anchor="end">4,000</text>

  <text x="70.0" y="186" class="label" text-anchor="middle">2021</text>
  <text x="198.7" y="186" class="label" text-anchor="middle">2022</text>
  <text x="337.4" y="186" class="label" text-anchor="middle">2023</text>
  <text x="476.1" y="186" class="label" text-anchor="middle">2024</text>
  <text x="615.2" y="186" class="label" text-anchor="middle">2025</text>
  <text x="753.9" y="186" class="label" text-anchor="middle">2026</text>


  <path class="area" d="M60.0,160.0 L60.0,160.0 60.0,160.0 L178.9,159.8 L179.3,159.8 L180.5,159.8 L198.7,159.7 L199.1,159.5 L199.5,159.4 L199.8,159.3 L200.2,159.3 L200.6,159.2 L201.4,159.1 L201.7,159.0 L202.1,158.9 L202.5,158.9 L204.0,158.8 L204.4,158.7 L204.8,158.7 L208.6,158.7 L218.5,158.6 L270.5,158.5 L270.9,158.2 L272.4,158.2 L273.2,158.0 L278.9,157.9 L279.6,157.8 L280.0,157.7 L280.4,157.7 L281.2,157.6 L281.5,157.3 L281.9,157.0 L282.3,156.9 L283.8,156.8 L284.6,156.8 L286.5,156.7 L291.8,156.6 L302.1,156.5 L307.8,156.5 L310.4,156.4 L310.8,156.4 L311.2,156.3 L311.6,156.1 L312.7,155.9 L313.1,155.9 L313.5,155.8 L315.0,155.7 L315.4,155.5 L315.7,155.5 L316.1,155.2 L316.5,154.9 L316.9,154.8 L317.3,154.8 L318.0,154.7 L319.5,154.6 L323.7,154.5 L334.7,154.5 L335.1,154.3 L335.5,154.3 L339.3,154.0 L339.7,153.3 L340.8,153.2 L341.2,153.1 L343.1,153.0 L356.0,152.9 L356.4,152.8 L356.8,152.8 L357.5,152.7 L360.2,152.6 L361.0,152.4 L361.3,152.4 L363.2,152.3 L372.4,152.2 L559.3,152.1 L560.1,152.1 L560.8,152.1 L561.6,152.0 L562.0,151.9 L562.4,151.9 L562.7,151.9 L563.1,151.8 L566.9,151.8 L577.6,151.8 L580.6,151.7 L581.7,151.7 L584.0,151.7 L586.3,151.6 L586.7,151.6 L588.2,151.6 L589.3,151.6 L590.1,151.5 L618.2,151.5 L618.6,151.4 L619.4,151.4 L619.7,151.4 L620.9,151.3 L622.8,151.2 L628.1,151.2 L639.1,150.9 L639.5,150.7 L644.4,150.7 L644.8,150.6 L646.0,150.5 L647.5,150.4 L649.4,150.1 L649.8,149.2 L650.1,149.1 L652.4,149.1 L653.6,149.0 L653.9,149.0 L654.7,148.9 L657.7,148.9 L660.4,148.6 L662.3,148.4 L662.7,148.3 L663.8,148.1 L664.2,147.7 L664.6,147.6 L665.0,147.5 L665.3,147.4 L665.7,147.2 L666.5,146.9 L667.6,146.7 L681.3,146.6 L682.1,146.2 L690.4,146.1 L695.4,146.0 L697.6,145.9 L698.0,145.9 L700.3,145.9 L700.7,145.8 L701.1,145.8 L701.4,145.7 L701.8,145.6 L702.2,145.2 L702.6,145.2 L704.9,144.7 L705.2,144.6 L706.0,144.6 L708.7,144.4 L709.4,144.4 L709.8,144.3 L710.6,144.2 L710.9,144.0 L711.3,143.9 L712.1,143.9 L712.5,143.8 L712.8,143.8 L713.2,143.8 L714.7,143.6 L715.1,143.5 L715.5,143.4 L715.9,143.4 L716.3,143.3 L716.6,143.2 L717.8,143.1 L718.2,143.0 L718.5,142.9 L718.9,142.8 L719.3,142.6 L720.1,142.5 L720.4,142.2 L720.8,142.0 L721.2,141.4 L721.6,141.2 L722.0,141.1 L722.3,140.8 L722.7,140.7 L723.1,140.6 L723.5,140.6 L723.9,140.3 L725.8,140.0 L726.1,139.9 L726.5,139.6 L726.9,139.0 L727.3,139.0 L728.0,138.9 L728.4,138.5 L728.8,138.2 L729.2,138.2 L729.6,137.6 L730.3,137.5 L730.7,137.4 L731.1,137.4 L731.5,137.3 L731.8,137.3 L732.2,137.3 L733.7,137.2 L734.5,137.2 L734.9,136.9 L735.3,136.8 L736.4,136.7 L738.3,136.7 L740.6,136.5 L741.0,136.5 L741.3,136.4 L741.7,136.2 L742.1,135.8 L742.5,135.8 L742.9,135.7 L743.2,135.7 L743.6,135.6 L744.0,135.3 L748.2,135.2 L748.6,135.2 L752.0,135.0 L752.7,134.7 L753.1,134.7 L753.5,134.6 L753.9,134.5 L755.0,134.4 L755.4,133.9 L755.8,132.8 L756.2,131.7 L756.5,131.7 L756.9,131.6 L757.7,131.4 L758.1,131.3 L758.4,131.0 L759.2,131.0 L759.6,130.7 L760.0,130.7 L760.7,130.2 L761.1,130.2 L761.5,129.9 L761.9,129.7 L762.2,129.5 L762.6,129.5 L763.8,129.2 L764.1,129.1 L764.5,128.3 L764.9,127.2 L765.3,126.8 L765.7,126.3 L766.0,126.2 L766.4,126.1 L766.8,125.9 L767.2,125.7 L767.6,125.3 L767.9,125.3 L768.3,125.0 L768.7,125.0 L769.1,124.7 L769.5,124.5 L769.8,124.2 L770.2,123.9 L770.6,123.8 L771.0,123.7 L771.4,123.2 L771.7,122.2 L772.1,122.0 L772.9,121.8 L773.3,121.7 L773.6,121.7 L774.0,120.1 L774.4,119.4 L774.8,118.7 L775.2,118.4 L775.5,117.2 L775.9,117.1 L776.3,117.0 L776.7,116.7 L777.1,116.2 L777.4,115.2 L777.8,114.1 L778.2,114.0 L778.6,113.8 L779.3,113.8 L779.7,113.1 L780.1,112.6 L780.5,111.9 L780.9,111.8 L781.2,111.8 L781.6,110.7 L782.0,109.5 L782.4,108.9 L782.8,108.7 L783.1,108.3 L783.5,108.0 L783.9,108.0 L784.7,107.8 L785.0,107.6 L785.4,107.6 L785.8,107.5 L786.2,107.5 L787.3,107.5 L787.7,107.4 L788.5,107.4 L789.2,107.3 L789.6,107.3 L790.4,106.9 L790.7,106.6 L791.1,106.3 L793.4,106.2 L793.8,106.0 L794.2,105.9 L794.5,105.7 L794.9,105.6 L795.3,105.5 L795.7,105.5 L796.1,105.0 L796.4,104.5 L796.8,104.3 L797.2,103.4 L797.6,103.2 L798.3,103.2 L798.7,103.2 L799.9,102.9 L800.2,102.5 L800.6,102.2 L801.0,102.0 L801.4,101.3 L801.8,98.5 L802.1,97.3 L802.5,97.1 L802.9,96.9 L803.3,96.4 L803.7,96.3 L804.0,92.4 L804.4,87.6 L804.8,86.2 L805.2,86.2 L805.6,85.4 L805.9,84.9 L806.3,82.0 L806.7,80.2 L807.1,77.5 L807.5,77.0 L807.8,76.9 L808.2,76.8 L808.6,75.9 L809.0,74.6 L809.4,71.6 L809.7,71.1 L810.1,70.5 L810.5,69.7 L810.9,69.2 L811.3,68.7 L811.6,66.9 L812.0,66.5 L812.4,66.4 L812.8,66.1 L813.2,66.0 L813.5,65.7 L813.9,65.6 L814.3,64.7 L814.7,63.4 L815.1,62.3 L815.4,62.2 L815.8,61.2 L816.2,60.5 L816.6,60.4 L817.0,60.2 L817.3,60.1 L817.7,59.8 L818.1,59.0 L818.5,58.1 L818.9,57.8 L819.2,52.8 L819.6,52.7 L820.0,52.6 L820.0,160.0 Z"/>
  <polyline class="line" points="60.0,160.0 178.9,159.8 179.3,159.8 180.5,159.8 198.7,159.7 199.1,159.5 199.5,159.4 199.8,159.3 200.2,159.3 200.6,159.2 201.4,159.1 201.7,159.0 202.1,158.9 202.5,158.9 204.0,158.8 204.4,158.7 204.8,158.7 208.6,158.7 218.5,158.6 270.5,158.5 270.9,158.2 272.4,158.2 273.2,158.0 278.9,157.9 279.6,157.8 280.0,157.7 280.4,157.7 281.2,157.6 281.5,157.3 281.9,157.0 282.3,156.9 283.8,156.8 284.6,156.8 286.5,156.7 291.8,156.6 302.1,156.5 307.8,156.5 310.4,156.4 310.8,156.4 311.2,156.3 311.6,156.1 312.7,155.9 313.1,155.9 313.5,155.8 315.0,155.7 315.4,155.5 315.7,155.5 316.1,155.2 316.5,154.9 316.9,154.8 317.3,154.8 318.0,154.7 319.5,154.6 323.7,154.5 334.7,154.5 335.1,154.3 335.5,154.3 339.3,154.0 339.7,153.3 340.8,153.2 341.2,153.1 343.1,153.0 356.0,152.9 356.4,152.8 356.8,152.8 357.5,152.7 360.2,152.6 361.0,152.4 361.3,152.4 363.2,152.3 372.4,152.2 559.3,152.1 560.1,152.1 560.8,152.1 561.6,152.0 562.0,151.9 562.4,151.9 562.7,151.9 563.1,151.8 566.9,151.8 577.6,151.8 580.6,151.7 581.7,151.7 584.0,151.7 586.3,151.6 586.7,151.6 588.2,151.6 589.3,151.6 590.1,151.5 618.2,151.5 618.6,151.4 619.4,151.4 619.7,151.4 620.9,151.3 622.8,151.2 628.1,151.2 639.1,150.9 639.5,150.7 644.4,150.7 644.8,150.6 646.0,150.5 647.5,150.4 649.4,150.1 649.8,149.2 650.1,149.1 652.4,149.1 653.6,149.0 653.9,149.0 654.7,148.9 657.7,148.9 660.4,148.6 662.3,148.4 662.7,148.3 663.8,148.1 664.2,147.7 664.6,147.6 665.0,147.5 665.3,147.4 665.7,147.2 666.5,146.9 667.6,146.7 681.3,146.6 682.1,146.2 690.4,146.1 695.4,146.0 697.6,145.9 698.0,145.9 700.3,145.9 700.7,145.8 701.1,145.8 701.4,145.7 701.8,145.6 702.2,145.2 702.6,145.2 704.9,144.7 705.2,144.6 706.0,144.6 708.7,144.4 709.4,144.4 709.8,144.3 710.6,144.2 710.9,144.0 711.3,143.9 712.1,143.9 712.5,143.8 712.8,143.8 713.2,143.8 714.7,143.6 715.1,143.5 715.5,143.4 715.9,143.4 716.3,143.3 716.6,143.2 717.8,143.1 718.2,143.0 718.5,142.9 718.9,142.8 719.3,142.6 720.1,142.5 720.4,142.2 720.8,142.0 721.2,141.4 721.6,141.2 722.0,141.1 722.3,140.8 722.7,140.7 723.1,140.6 723.5,140.6 723.9,140.3 725.8,140.0 726.1,139.9 726.5,139.6 726.9,139.0 727.3,139.0 728.0,138.9 728.4,138.5 728.8,138.2 729.2,138.2 729.6,137.6 730.3,137.5 730.7,137.4 731.1,137.4 731.5,137.3 731.8,137.3 732.2,137.3 733.7,137.2 734.5,137.2 734.9,136.9 735.3,136.8 736.4,136.7 738.3,136.7 740.6,136.5 741.0,136.5 741.3,136.4 741.7,136.2 742.1,135.8 742.5,135.8 742.9,135.7 743.2,135.7 743.6,135.6 744.0,135.3 748.2,135.2 748.6,135.2 752.0,135.0 752.7,134.7 753.1,134.7 753.5,134.6 753.9,134.5 755.0,134.4 755.4,133.9 755.8,132.8 756.2,131.7 756.5,131.7 756.9,131.6 757.7,131.4 758.1,131.3 758.4,131.0 759.2,131.0 759.6,130.7 760.0,130.7 760.7,130.2 761.1,130.2 761.5,129.9 761.9,129.7 762.2,129.5 762.6,129.5 763.8,129.2 764.1,129.1 764.5,128.3 764.9,127.2 765.3,126.8 765.7,126.3 766.0,126.2 766.4,126.1 766.8,125.9 767.2,125.7 767.6,125.3 767.9,125.3 768.3,125.0 768.7,125.0 769.1,124.7 769.5,124.5 769.8,124.2 770.2,123.9 770.6,123.8 771.0,123.7 771.4,123.2 771.7,122.2 772.1,122.0 772.9,121.8 773.3,121.7 773.6,121.7 774.0,120.1 774.4,119.4 774.8,118.7 775.2,118.4 775.5,117.2 775.9,117.1 776.3,117.0 776.7,116.7 777.1,116.2 777.4,115.2 777.8,114.1 778.2,114.0 778.6,113.8 779.3,113.8 779.7,113.1 780.1,112.6 780.5,111.9 780.9,111.8 781.2,111.8 781.6,110.7 782.0,109.5 782.4,108.9 782.8,108.7 783.1,108.3 783.5,108.0 783.9,108.0 784.7,107.8 785.0,107.6 785.4,107.6 785.8,107.5 786.2,107.5 787.3,107.5 787.7,107.4 788.5,107.4 789.2,107.3 789.6,107.3 790.4,106.9 790.7,106.6 791.1,106.3 793.4,106.2 793.8,106.0 794.2,105.9 794.5,105.7 794.9,105.6 795.3,105.5 795.7,105.5 796.1,105.0 796.4,104.5 796.8,104.3 797.2,103.4 797.6,103.2 798.3,103.2 798.7,103.2 799.9,102.9 800.2,102.5 800.6,102.2 801.0,102.0 801.4,101.3 801.8,98.5 802.1,97.3 802.5,97.1 802.9,96.9 803.3,96.4 803.7,96.3 804.0,92.4 804.4,87.6 804.8,86.2 805.2,86.2 805.6,85.4 805.9,84.9 806.3,82.0 806.7,80.2 807.1,77.5 807.5,77.0 807.8,76.9 808.2,76.8 808.6,75.9 809.0,74.6 809.4,71.6 809.7,71.1 810.1,70.5 810.5,69.7 810.9,69.2 811.3,68.7 811.6,66.9 812.0,66.5 812.4,66.4 812.8,66.1 813.2,66.0 813.5,65.7 813.9,65.6 814.3,64.7 814.7,63.4 815.1,62.3 815.4,62.2 815.8,61.2 816.2,60.5 816.6,60.4 817.0,60.2 817.3,60.1 817.7,59.8 818.1,59.0 818.5,58.1 818.9,57.8 819.2,52.8 819.6,52.7 820.0,52.6"/>

  <g class="hoverpoint">
    <line x1="180.5" y1="30" x2="180.5" y2="160.0" class="guide"/>
    <circle cx="180.5" cy="159.8" r="16" class="hit"/>
    <circle cx="180.5" cy="159.8" r="4" class="hover-dot"><title>Nov 2021: 7 total (+7 this month)</title></circle>
    <rect x="110.5" y="133.8" width="140" height="20" rx="4" class="tooltip-bg"/>
    <text x="180.5" y="147.8" class="tooltip-text" text-anchor="middle">Nov 2021: 7 total (+7 this month)</text>
  </g>
  <g class="hoverpoint">
    <line x1="208.6" y1="30" x2="208.6" y2="160.0" class="guide"/>
    <circle cx="208.6" cy="158.7" r="16" class="hit"/>
    <circle cx="208.6" cy="158.7" r="4" class="hover-dot"><title>Jan 2022: 41 total (+34 this month)</title></circle>
    <rect x="138.6" y="132.7" width="140" height="20" rx="4" class="tooltip-bg"/>
    <text x="208.6" y="146.7" class="tooltip-text" text-anchor="middle">Jan 2022: 41 total (+34 this month)</text>
  </g>
  <g class="hoverpoint">
    <line x1="218.5" y1="30" x2="218.5" y2="160.0" class="guide"/>
    <circle cx="218.5" cy="158.6" r="16" class="hit"/>
    <circle cx="218.5" cy="158.6" r="4" class="hover-dot"><title>Feb 2022: 44 total (+3 this month)</title></circle>
    <rect x="148.5" y="132.6" width="140" height="20" rx="4" class="tooltip-bg"/>
    <text x="218.5" y="146.6" class="tooltip-text" text-anchor="middle">Feb 2022: 44 total (+3 this month)</text>
  </g>
  <g class="hoverpoint">
    <line x1="278.9" y1="30" x2="278.9" y2="160.0" class="guide"/>
    <circle cx="278.9" cy="157.9" r="16" class="hit"/>
    <circle cx="278.9" cy="157.9" r="4" class="hover-dot"><title>Jul 2022: 65 total (+21 this month)</title></circle>
    <rect x="208.9" y="131.9" width="140" height="20" rx="4" class="tooltip-bg"/>
    <text x="278.9" y="145.9" class="tooltip-text" text-anchor="middle">Jul 2022: 65 total (+21 this month)</text>
  </g>
  <g class="hoverpoint">
    <line x1="286.5" y1="30" x2="286.5" y2="160.0" class="guide"/>
    <circle cx="286.5" cy="156.7" r="16" class="hit"/>
    <circle cx="286.5" cy="156.7" r="4" class="hover-dot"><title>Aug 2022: 101 total (+36 this month)</title></circle>
    <rect x="216.5" y="130.7" width="140" height="20" rx="4" class="tooltip-bg"/>
    <text x="286.5" y="144.7" class="tooltip-text" text-anchor="middle">Aug 2022: 101 total (+36 this month)</text>
  </g>
  <g class="hoverpoint">
    <line x1="302.1" y1="30" x2="302.1" y2="160.0" class="guide"/>
    <circle cx="302.1" cy="156.5" r="16" class="hit"/>
    <circle cx="302.1" cy="156.5" r="4" class="hover-dot"><title>Sep 2022: 108 total (+7 this month)</title></circle>
    <rect x="232.1" y="130.5" width="140" height="20" rx="4" class="tooltip-bg"/>
    <text x="302.1" y="144.5" class="tooltip-text" text-anchor="middle">Sep 2022: 108 total (+7 this month)</text>
  </g>
  <g class="hoverpoint">
    <line x1="313.5" y1="30" x2="313.5" y2="160.0" class="guide"/>
    <circle cx="313.5" cy="155.8" r="16" class="hit"/>
    <circle cx="313.5" cy="155.8" r="4" class="hover-dot"><title>Oct 2022: 128 total (+20 this month)</title></circle>
    <rect x="243.5" y="129.8" width="140" height="20" rx="4" class="tooltip-bg"/>
    <text x="313.5" y="143.8" class="tooltip-text" text-anchor="middle">Oct 2022: 128 total (+20 this month)</text>
  </g>
  <g class="hoverpoint">
    <line x1="323.7" y1="30" x2="323.7" y2="160.0" class="guide"/>
    <circle cx="323.7" cy="154.5" r="16" class="hit"/>
    <circle cx="323.7" cy="154.5" r="4" class="hover-dot"><title>Nov 2022: 168 total (+40 this month)</title></circle>
    <rect x="253.7" y="128.5" width="140" height="20" rx="4" class="tooltip-bg"/>
    <text x="323.7" y="142.5" class="tooltip-text" text-anchor="middle">Nov 2022: 168 total (+40 this month)</text>
  </g>
  <g class="hoverpoint">
    <line x1="335.5" y1="30" x2="335.5" y2="160.0" class="guide"/>
    <circle cx="335.5" cy="154.3" r="16" class="hit"/>
    <circle cx="335.5" cy="154.3" r="4" class="hover-dot"><title>Dec 2022: 175 total (+7 this month)</title></circle>
    <rect x="265.5" y="128.3" width="140" height="20" rx="4" class="tooltip-bg"/>
    <text x="335.5" y="142.3" class="tooltip-text" text-anchor="middle">Dec 2022: 175 total (+7 this month)</text>
  </g>
  <g class="hoverpoint">
    <line x1="343.1" y1="30" x2="343.1" y2="160.0" class="guide"/>
    <circle cx="343.1" cy="153.0" r="16" class="hit"/>
    <circle cx="343.1" cy="153.0" r="4" class="hover-dot"><title>Jan 2023: 214 total (+39 this month)</title></circle>
    <rect x="273.1" y="127.0" width="140" height="20" rx="4" class="tooltip-bg"/>
    <text x="343.1" y="141.0" class="tooltip-text" text-anchor="middle">Jan 2023: 214 total (+39 this month)</text>
  </g>
  <g class="hoverpoint">
    <line x1="357.5" y1="30" x2="357.5" y2="160.0" class="guide"/>
    <circle cx="357.5" cy="152.7" r="16" class="hit"/>
    <circle cx="357.5" cy="152.7" r="4" class="hover-dot"><title>Feb 2023: 225 total (+11 this month)</title></circle>
    <rect x="287.5" y="126.7" width="140" height="20" rx="4" class="tooltip-bg"/>
    <text x="357.5" y="140.7" class="tooltip-text" text-anchor="middle">Feb 2023: 225 total (+11 this month)</text>
  </g>
  <g class="hoverpoint">
    <line x1="363.2" y1="30" x2="363.2" y2="160.0" class="guide"/>
    <circle cx="363.2" cy="152.3" r="16" class="hit"/>
    <circle cx="363.2" cy="152.3" r="4" class="hover-dot"><title>Mar 2023: 237 total (+12 this month)</title></circle>
    <rect x="293.2" y="126.3" width="140" height="20" rx="4" class="tooltip-bg"/>
    <text x="363.2" y="140.3" class="tooltip-text" text-anchor="middle">Mar 2023: 237 total (+12 this month)</text>
  </g>
  <g class="hoverpoint">
    <line x1="372.4" y1="30" x2="372.4" y2="160.0" class="guide"/>
    <circle cx="372.4" cy="152.2" r="16" class="hit"/>
    <circle cx="372.4" cy="152.2" r="4" class="hover-dot"><title>Apr 2023: 240 total (+3 this month)</title></circle>
    <rect x="302.4" y="126.2" width="140" height="20" rx="4" class="tooltip-bg"/>
    <text x="372.4" y="140.2" class="tooltip-text" text-anchor="middle">Apr 2023: 240 total (+3 this month)</text>
  </g>
  <g class="hoverpoint">
    <line x1="566.9" y1="30" x2="566.9" y2="160.0" class="guide"/>
    <circle cx="566.9" cy="151.8" r="16" class="hit"/>
    <circle cx="566.9" cy="151.8" r="4" class="hover-dot"><title>Aug 2024: 252 total (+12 this month)</title></circle>
    <rect x="496.9" y="125.8" width="140" height="20" rx="4" class="tooltip-bg"/>
    <text x="566.9" y="139.8" class="tooltip-text" text-anchor="middle">Aug 2024: 252 total (+12 this month)</text>
  </g>
  <g class="hoverpoint">
    <line x1="577.6" y1="30" x2="577.6" y2="160.0" class="guide"/>
    <circle cx="577.6" cy="151.8" r="16" class="hit"/>
    <circle cx="577.6" cy="151.8" r="4" class="hover-dot"><title>Sep 2024: 253 total (+1 this month)</title></circle>
    <rect x="507.6" y="125.8" width="140" height="20" rx="4" class="tooltip-bg"/>
    <text x="577.6" y="139.8" class="tooltip-text" text-anchor="middle">Sep 2024: 253 total (+1 this month)</text>
  </g>
  <g class="hoverpoint">
    <line x1="590.1" y1="30" x2="590.1" y2="160.0" class="guide"/>
    <circle cx="590.1" cy="151.5" r="16" class="hit"/>
    <circle cx="590.1" cy="151.5" r="4" class="hover-dot"><title>Oct 2024: 261 total (+8 this month)</title></circle>
    <rect x="520.1" y="125.5" width="140" height="20" rx="4" class="tooltip-bg"/>
    <text x="590.1" y="139.5" class="tooltip-text" text-anchor="middle">Oct 2024: 261 total (+8 this month)</text>
  </g>
  <g class="hoverpoint">
    <line x1="622.8" y1="30" x2="622.8" y2="160.0" class="guide"/>
    <circle cx="622.8" cy="151.2" r="16" class="hit"/>
    <circle cx="622.8" cy="151.2" r="4" class="hover-dot"><title>Jan 2025: 270 total (+9 this month)</title></circle>
    <rect x="552.8" y="125.2" width="140" height="20" rx="4" class="tooltip-bg"/>
    <text x="622.8" y="139.2" class="tooltip-text" text-anchor="middle">Jan 2025: 270 total (+9 this month)</text>
  </g>
  <g class="hoverpoint">
    <line x1="628.1" y1="30" x2="628.1" y2="160.0" class="guide"/>
    <circle cx="628.1" cy="151.2" r="16" class="hit"/>
    <circle cx="628.1" cy="151.2" r="4" class="hover-dot"><title>Feb 2025: 272 total (+2 this month)</title></circle>
    <rect x="558.1" y="125.2" width="140" height="20" rx="4" class="tooltip-bg"/>
    <text x="628.1" y="139.2" class="tooltip-text" text-anchor="middle">Feb 2025: 272 total (+2 this month)</text>
  </g>
  <g class="hoverpoint">
    <line x1="647.5" y1="30" x2="647.5" y2="160.0" class="guide"/>
    <circle cx="647.5" cy="150.4" r="16" class="hit"/>
    <circle cx="647.5" cy="150.4" r="4" class="hover-dot"><title>Mar 2025: 294 total (+22 this month)</title></circle>
    <rect x="577.5" y="124.4" width="140" height="20" rx="4" class="tooltip-bg"/>
    <text x="647.5" y="138.4" class="tooltip-text" text-anchor="middle">Mar 2025: 294 total (+22 this month)</text>
  </g>
  <g class="hoverpoint">
    <line x1="660.4" y1="30" x2="660.4" y2="160.0" class="guide"/>
    <circle cx="660.4" cy="148.6" r="16" class="hit"/>
    <circle cx="660.4" cy="148.6" r="4" class="hover-dot"><title>Apr 2025: 351 total (+57 this month)</title></circle>
    <rect x="590.4" y="122.6" width="140" height="20" rx="4" class="tooltip-bg"/>
    <text x="660.4" y="136.6" class="tooltip-text" text-anchor="middle">Apr 2025: 351 total (+57 this month)</text>
  </g>
  <g class="hoverpoint">
    <line x1="667.6" y1="30" x2="667.6" y2="160.0" class="guide"/>
    <circle cx="667.6" cy="146.7" r="16" class="hit"/>
    <circle cx="667.6" cy="146.7" r="4" class="hover-dot"><title>May 2025: 408 total (+57 this month)</title></circle>
    <rect x="597.6" y="120.7" width="140" height="20" rx="4" class="tooltip-bg"/>
    <text x="667.6" y="134.7" class="tooltip-text" text-anchor="middle">May 2025: 408 total (+57 this month)</text>
  </g>
  <g class="hoverpoint">
    <line x1="682.1" y1="30" x2="682.1" y2="160.0" class="guide"/>
    <circle cx="682.1" cy="146.2" r="16" class="hit"/>
    <circle cx="682.1" cy="146.2" r="4" class="hover-dot"><title>Jun 2025: 424 total (+16 this month)</title></circle>
    <rect x="612.1" y="120.2" width="140" height="20" rx="4" class="tooltip-bg"/>
    <text x="682.1" y="134.2" class="tooltip-text" text-anchor="middle">Jun 2025: 424 total (+16 this month)</text>
  </g>
  <g class="hoverpoint">
    <line x1="695.4" y1="30" x2="695.4" y2="160.0" class="guide"/>
    <circle cx="695.4" cy="146.0" r="16" class="hit"/>
    <circle cx="695.4" cy="146.0" r="4" class="hover-dot"><title>Jul 2025: 432 total (+8 this month)</title></circle>
    <rect x="625.4" y="120.0" width="140" height="20" rx="4" class="tooltip-bg"/>
    <text x="695.4" y="134.0" class="tooltip-text" text-anchor="middle">Jul 2025: 432 total (+8 this month)</text>
  </g>
  <g class="hoverpoint">
    <line x1="706.0" y1="30" x2="706.0" y2="160.0" class="guide"/>
    <circle cx="706.0" cy="144.6" r="16" class="hit"/>
    <circle cx="706.0" cy="144.6" r="4" class="hover-dot"><title>Aug 2025: 475 total (+43 this month)</title></circle>
    <rect x="636.0" y="118.6" width="140" height="20" rx="4" class="tooltip-bg"/>
    <text x="706.0" y="132.6" class="tooltip-text" text-anchor="middle">Aug 2025: 475 total (+43 this month)</text>
  </g>
  <g class="hoverpoint">
    <line x1="718.5" y1="30" x2="718.5" y2="160.0" class="guide"/>
    <circle cx="718.5" cy="142.9" r="16" class="hit"/>
    <circle cx="718.5" cy="142.9" r="4" class="hover-dot"><title>Sep 2025: 526 total (+51 this month)</title></circle>
    <rect x="648.5" y="116.9" width="140" height="20" rx="4" class="tooltip-bg"/>
    <text x="718.5" y="130.9" class="tooltip-text" text-anchor="middle">Sep 2025: 526 total (+51 this month)</text>
  </g>
  <g class="hoverpoint">
    <line x1="730.3" y1="30" x2="730.3" y2="160.0" class="guide"/>
    <circle cx="730.3" cy="137.5" r="16" class="hit"/>
    <circle cx="730.3" cy="137.5" r="4" class="hover-dot"><title>Oct 2025: 692 total (+166 this month)</title></circle>
    <rect x="660.3" y="111.5" width="140" height="20" rx="4" class="tooltip-bg"/>
    <text x="730.3" y="125.5" class="tooltip-text" text-anchor="middle">Oct 2025: 692 total (+166 this month)</text>
  </g>
  <g class="hoverpoint">
    <line x1="741.7" y1="30" x2="741.7" y2="160.0" class="guide"/>
    <circle cx="741.7" cy="136.2" r="16" class="hit"/>
    <circle cx="741.7" cy="136.2" r="4" class="hover-dot"><title>Nov 2025: 731 total (+39 this month)</title></circle>
    <rect x="671.7" y="110.2" width="140" height="20" rx="4" class="tooltip-bg"/>
    <text x="741.7" y="124.2" class="tooltip-text" text-anchor="middle">Nov 2025: 731 total (+39 this month)</text>
  </g>
  <g class="hoverpoint">
    <line x1="753.5" y1="30" x2="753.5" y2="160.0" class="guide"/>
    <circle cx="753.5" cy="134.6" r="16" class="hit"/>
    <circle cx="753.5" cy="134.6" r="4" class="hover-dot"><title>Dec 2025: 783 total (+52 this month)</title></circle>
    <rect x="683.5" y="108.6" width="140" height="20" rx="4" class="tooltip-bg"/>
    <text x="753.5" y="122.6" class="tooltip-text" text-anchor="middle">Dec 2025: 783 total (+52 this month)</text>
  </g>
  <g class="hoverpoint">
    <line x1="765.3" y1="30" x2="765.3" y2="160.0" class="guide"/>
    <circle cx="765.3" cy="126.8" r="16" class="hit"/>
    <circle cx="765.3" cy="126.8" r="4" class="hover-dot"><title>Jan 2026: 1,022 total (+239 this month)</title></circle>
    <rect x="695.3" y="100.8" width="140" height="20" rx="4" class="tooltip-bg"/>
    <text x="765.3" y="114.8" class="tooltip-text" text-anchor="middle">Jan 2026: 1,022 total (+239 this month)</text>
  </g>
  <g class="hoverpoint">
    <line x1="775.9" y1="30" x2="775.9" y2="160.0" class="guide"/>
    <circle cx="775.9" cy="117.1" r="16" class="hit"/>
    <circle cx="775.9" cy="117.1" r="4" class="hover-dot"><title>Feb 2026: 1,321 total (+299 this month)</title></circle>
    <rect x="705.9" y="91.1" width="140" height="20" rx="4" class="tooltip-bg"/>
    <text x="775.9" y="105.1" class="tooltip-text" text-anchor="middle">Feb 2026: 1,321 total (+299 this month)</text>
  </g>
  <g class="hoverpoint">
    <line x1="787.7" y1="30" x2="787.7" y2="160.0" class="guide"/>
    <circle cx="787.7" cy="107.4" r="16" class="hit"/>
    <circle cx="787.7" cy="107.4" r="4" class="hover-dot"><title>Mar 2026: 1,617 total (+296 this month)</title></circle>
    <rect x="717.7" y="81.4" width="140" height="20" rx="4" class="tooltip-bg"/>
    <text x="787.7" y="95.4" class="tooltip-text" text-anchor="middle">Mar 2026: 1,617 total (+296 this month)</text>
  </g>
  <g class="hoverpoint">
    <line x1="798.7" y1="30" x2="798.7" y2="160.0" class="guide"/>
    <circle cx="798.7" cy="103.2" r="16" class="hit"/>
    <circle cx="798.7" cy="103.2" r="4" class="hover-dot"><title>Apr 2026: 1,749 total (+132 this month)</title></circle>
    <rect x="728.7" y="77.2" width="140" height="20" rx="4" class="tooltip-bg"/>
    <text x="798.7" y="91.2" class="tooltip-text" text-anchor="middle">Apr 2026: 1,749 total (+132 this month)</text>
  </g>
  <g class="hoverpoint">
    <line x1="810.9" y1="30" x2="810.9" y2="160.0" class="guide"/>
    <circle cx="810.9" cy="69.2" r="16" class="hit"/>
    <circle cx="810.9" cy="69.2" r="4" class="hover-dot"><title>May 2026: 2,795 total (+1,046 this month)</title></circle>
    <rect x="740.9" y="43.2" width="140" height="20" rx="4" class="tooltip-bg"/>
    <text x="810.9" y="57.2" class="tooltip-text" text-anchor="middle">May 2026: 2,795 total (+1,046 this month)</text>
  </g>
  <g class="hoverpoint">
    <line x1="820.0" y1="30" x2="820.0" y2="160.0" class="guide"/>
    <circle cx="820.0" cy="52.6" r="16" class="hit"/>
    <circle cx="820.0" cy="52.6" r="4" class="hover-dot"><title>Jun 2026: 3,306 total (+511 this month)</title></circle>
    <rect x="750.0" y="26.6" width="140" height="20" rx="4" class="tooltip-bg"/>
    <text x="820.0" y="40.6" class="tooltip-text" text-anchor="middle">Jun 2026: 3,306 total (+511 this month)</text>
  </g>

  <circle cx="820.0" cy="52.6" r="4" class="dot"/>
  <text x="810.0" y="42.6" class="total">3,306</text>

</svg>