<svg xmlns="http://www.w3.org/2000/svg" width="480" height="160" viewBox="0 0 480 160" fill="none">
  <style>
    .label { font-family: -apple-system, BlinkMacSystemFont, 'Segoe UI', Helvetica, Arial, sans-serif; font-size: 10px; fill: #8b949e; }
    .title { font-family: -apple-system, BlinkMacSystemFont, 'Segoe UI', Helvetica, Arial, sans-serif; font-size: 11px; fill: #8b949e; font-weight: 600; }
    .total { font-family: -apple-system, BlinkMacSystemFont, 'Segoe UI', Helvetica, Arial, sans-serif; font-size: 11px; fill: #58a6ff; font-weight: 600; }
    .grid { stroke: #21262d; stroke-width: 1; }
    .line { stroke: #58a6ff; stroke-width: 2; stroke-linecap: round; stroke-linejoin: round; fill: none; }
    .dot { fill: #58a6ff; }
    .area { fill: url(#areaGrad); }
  </style>
  <defs>
    <linearGradient id="areaGrad" x1="0" y1="0" x2="0" y2="1">
      <stop offset="0%" stop-color="#58a6ff" stop-opacity="0.15"/>
      <stop offset="100%" stop-color="#58a6ff" stop-opacity="0.01"/>
    </linearGradient>
  </defs>

  <text x="48" y="16" class="title">Cumulative Commits</text>

  <line x1="48" y1="132.0" x2="464" y2="132.0" class="grid"/>
  <text x="42" y="135.0" class="label" text-anchor="end">0</text>
  <line x1="48" y1="106.0" x2="464" y2="106.0" class="grid" stroke-dasharray="3,3"/>
  <text x="42" y="109.0" class="label" text-anchor="end">750</text>
  <line x1="48" y1="80.0" x2="464" y2="80.0" class="grid" stroke-dasharray="3,3"/>
  <text x="42" y="83.0" class="label" text-anchor="end">1500</text>
  <line x1="48" y1="54.0" x2="464" y2="54.0" class="grid" stroke-dasharray="3,3"/>
  <text x="42" y="57.0" class="label" text-anchor="end">2250</text>
  <line x1="48" y1="28.0" x2="464" y2="28.0" class="grid" stroke-dasharray="3,3"/>
  <text x="42" y="31.0" class="label" text-anchor="end">3000</text>

  <text x="48.0" y="154" class="label" text-anchor="middle">2023</text>
  <text x="130.5" y="154" class="label" text-anchor="middle">2024</text>
  <text x="282.3" y="154" class="label" text-anchor="middle">2025</text>
  <text x="433.7" y="154" class="label" text-anchor="middle">2026</text>


  <path class="area" d="M48.0,132.0 L48.0,131.8 48.0,131.8 L48.4,131.7 L50.1,131.5 L50.5,131.4 L50.9,131.1 L53.0,130.8 L54.2,130.7 L55.1,130.6 L55.5,130.4 L55.9,130.2 L56.3,130.0 L58.8,129.6 L59.2,129.3 L61.3,129.1 L63.3,128.8 L64.2,128.6 L64.6,128.3 L65.0,127.9 L66.2,127.5 L66.7,127.2 L67.1,126.8 L67.9,126.6 L69.2,126.6 L70.0,126.5 L70.4,126.1 L71.2,125.8 L72.9,125.7 L73.3,125.3 L74.5,125.0 L75.0,124.9 L75.8,124.6 L76.2,124.5 L77.0,124.4 L77.9,124.4 L78.3,124.0 L80.4,123.6 L80.8,123.3 L82.0,123.1 L82.4,122.8 L82.8,122.4 L83.7,122.1 L84.9,121.7 L85.3,121.4 L86.2,121.1 L88.2,120.9 L89.1,120.7 L90.3,120.7 L90.7,120.4 L91.5,120.1 L93.2,119.7 L94.5,119.3 L94.9,119.2 L96.9,118.8 L97.8,118.5 L98.6,118.4 L99.0,118.1 L100.3,117.7 L101.1,117.6 L101.9,117.5 L102.3,117.2 L102.7,117.1 L104.4,116.9 L105.2,116.8 L106.1,116.5 L108.1,116.3 L109.4,116.2 L109.8,115.9 L110.2,115.8 L110.6,115.6 L111.5,115.3 L111.9,114.9 L114.4,114.7 L116.0,114.6 L116.8,114.4 L117.3,113.9 L119.3,113.8 L119.8,113.7 L121.4,113.4 L123.1,113.1 L123.5,113.0 L123.9,112.9 L124.7,112.8 L126.4,112.8 L126.8,112.4 L127.6,112.2 L128.0,111.8 L128.5,111.7 L128.9,111.3 L131.0,110.9 L132.2,110.8 L133.0,110.6 L134.3,110.5 L134.7,110.2 L136.8,109.8 L137.2,109.5 L137.6,109.4 L138.0,109.3 L138.8,109.1 L140.1,108.7 L141.3,108.7 L141.7,108.5 L142.6,108.3 L143.8,107.8 L144.2,107.4 L144.6,107.4 L145.1,107.0 L147.1,106.9 L147.5,106.7 L149.6,106.5 L150.4,106.2 L151.3,105.9 L152.5,105.8 L154.2,105.3 L155.4,105.0 L156.7,104.5 L157.1,104.5 L157.9,104.2 L158.3,104.1 L158.7,103.7 L159.2,103.5 L159.6,103.4 L160.4,103.1 L162.1,103.0 L162.5,102.8 L162.9,102.7 L163.3,102.3 L163.7,101.9 L164.5,101.6 L165.0,101.3 L165.4,101.2 L166.2,100.9 L167.9,100.7 L168.3,100.3 L169.9,100.1 L171.2,99.7 L171.6,99.6 L172.0,99.2 L174.1,98.9 L174.9,98.8 L175.3,98.4 L176.2,98.1 L176.6,98.0 L179.1,97.6 L179.9,97.5 L180.7,97.3 L181.1,97.3 L181.6,97.0 L184.5,96.8 L184.9,96.4 L187.4,96.0 L188.2,95.8 L189.0,95.7 L195.2,95.6 L196.1,95.3 L196.9,95.0 L197.3,94.8 L197.7,94.6 L198.1,94.3 L198.6,94.2 L199.0,93.8 L199.4,93.7 L199.8,93.4 L200.2,93.1 L200.6,93.0 L201.5,92.7 L202.3,92.3 L202.7,92.3 L203.5,92.0 L204.8,91.6 L206.9,91.3 L207.3,91.1 L211.8,90.9 L212.2,90.6 L212.7,90.4 L213.1,90.3 L213.9,90.1 L214.3,89.8 L214.7,89.7 L216.0,89.5 L216.4,89.5 L218.5,89.4 L219.3,89.2 L220.5,88.7 L221.0,88.5 L221.4,88.2 L223.0,88.0 L223.4,88.0 L225.1,87.6 L225.5,87.2 L226.8,87.0 L228.0,86.7 L228.8,86.4 L229.7,86.1 L230.1,85.8 L230.9,85.6 L232.6,85.2 L236.3,85.1 L237.1,84.8 L237.5,84.5 L238.8,84.2 L239.6,84.1 L240.0,83.9 L240.4,83.6 L241.3,83.5 L242.1,83.4 L245.4,83.3 L245.8,83.1 L246.3,82.8 L246.7,82.5 L247.5,82.0 L248.3,81.8 L248.7,81.6 L249.2,81.2 L249.6,81.1 L251.2,80.7 L253.3,80.6 L254.1,80.4 L254.5,80.4 L255.4,80.3 L257.0,80.1 L257.5,80.0 L258.7,79.9 L259.5,79.7 L259.9,79.6 L260.4,79.5 L261.6,79.2 L262.4,79.0 L262.8,78.8 L264.1,78.5 L264.5,78.2 L264.9,77.9 L265.7,77.5 L266.2,77.1 L266.6,76.9 L267.4,76.9 L267.8,76.8 L268.7,76.5 L269.9,76.4 L270.3,76.2 L274.0,75.9 L274.5,75.8 L275.7,75.7 L277.8,75.4 L280.3,75.4 L281.9,75.3 L284.8,75.2 L285.7,74.9 L286.9,74.6 L287.3,74.3 L288.6,74.1 L289.8,73.7 L291.0,73.3 L291.5,73.3 L291.9,73.1 L292.3,72.8 L293.5,72.5 L294.4,72.2 L294.8,71.9 L296.0,71.6 L296.4,71.4 L296.9,71.0 L297.7,70.6 L298.5,70.5 L298.9,70.5 L299.8,70.4 L300.6,70.3 L302.2,70.1 L303.1,69.7 L303.5,69.6 L305.6,69.4 L306.0,69.0 L306.4,69.0 L306.8,68.8 L308.9,68.6 L309.3,68.2 L310.1,68.0 L311.4,67.8 L311.8,67.6 L312.2,67.1 L313.4,66.8 L314.7,66.7 L315.1,66.4 L315.5,66.3 L316.3,66.0 L317.2,65.9 L317.6,65.5 L318.4,65.3 L318.8,64.9 L319.3,64.9 L320.9,64.6 L323.4,64.3 L325.1,64.2 L326.3,64.1 L327.5,64.1 L328.0,63.8 L328.4,63.7 L330.0,63.6 L330.9,63.3 L331.3,62.9 L331.7,62.6 L334.2,62.3 L334.6,62.0 L335.8,61.8 L337.1,61.6 L337.9,61.3 L339.6,60.9 L340.0,60.9 L341.6,60.6 L343.7,60.3 L344.1,60.2 L347.9,59.9 L348.3,59.7 L349.1,59.5 L349.5,59.3 L349.9,59.2 L351.2,58.9 L352.4,58.6 L353.3,58.4 L354.5,58.3 L357.0,58.0 L357.4,57.7 L357.8,57.5 L360.3,57.4 L362.0,57.0 L362.4,56.9 L364.5,56.9 L365.3,56.6 L365.7,56.5 L366.5,56.2 L366.9,55.8 L371.1,55.4 L371.5,55.1 L371.9,55.0 L372.8,54.6 L373.2,54.2 L373.6,54.0 L374.0,53.9 L375.2,53.8 L376.5,53.5 L376.9,53.4 L377.7,53.1 L378.1,53.0 L379.0,52.9 L380.2,52.8 L381.9,52.8 L382.3,52.5 L383.1,52.3 L383.5,52.2 L384.0,51.7 L384.4,51.7 L386.4,51.4 L386.9,51.0 L387.3,50.6 L388.9,50.4 L389.8,50.3 L391.0,50.2 L391.4,50.1 L391.8,49.9 L393.5,49.6 L395.2,49.2 L395.6,48.8 L397.2,48.5 L398.1,48.2 L398.5,47.8 L398.9,47.6 L399.3,47.4 L399.7,47.3 L401.0,47.2 L401.4,47.2 L402.2,47.1 L403.9,47.0 L404.3,46.6 L405.1,46.2 L405.5,46.0 L406.3,45.7 L407.2,45.4 L407.6,45.3 L408.0,45.0 L408.4,44.8 L411.7,44.5 L412.6,44.4 L413.0,44.2 L413.8,44.1 L415.1,44.0 L416.3,43.7 L416.7,43.4 L417.5,43.3 L419.2,43.2 L419.6,42.9 L420.0,42.8 L420.5,42.4 L420.9,42.1 L421.3,41.9 L421.7,41.6 L422.1,41.3 L422.5,41.0 L424.2,40.7 L425.0,40.6 L425.4,40.4 L426.7,40.4 L427.1,40.0 L427.5,39.9 L427.9,39.4 L428.3,39.1 L429.6,38.7 L430.0,38.7 L430.8,38.5 L432.5,38.4 L432.9,38.2 L433.3,37.8 L434.6,37.6 L435.4,37.3 L435.8,37.2 L436.2,37.0 L437.0,36.9 L437.5,36.5 L437.9,36.2 L438.3,36.0 L438.7,35.6 L439.5,35.5 L439.9,35.4 L441.6,35.0 L443.3,34.7 L444.5,34.3 L444.9,34.0 L445.3,33.8 L447.0,33.7 L447.4,33.4 L447.8,33.2 L448.7,33.1 L451.6,32.8 L452.4,32.5 L455.3,32.1 L455.7,32.0 L457.8,31.8 L458.2,31.6 L459.0,31.2 L459.9,31.2 L460.7,31.0 L462.8,30.6 L464.0,30.3 L464.0,132.0 Z"/>
  <polyline class="line" points="48.0,131.8 48.4,131.7 50.1,131.5 50.5,131.4 50.9,131.1 53.0,130.8 54.2,130.7 55.1,130.6 55.5,130.4 55.9,130.2 56.3,130.0 58.8,129.6 59.2,129.3 61.3,129.1 63.3,128.8 64.2,128.6 64.6,128.3 65.0,127.9 66.2,127.5 66.7,127.2 67.1,126.8 67.9,126.6 69.2,126.6 70.0,126.5 70.4,126.1 71.2,125.8 72.9,125.7 73.3,125.3 74.5,125.0 75.0,124.9 75.8,124.6 76.2,124.5 77.0,124.4 77.9,124.4 78.3,124.0 80.4,123.6 80.8,123.3 82.0,123.1 82.4,122.8 82.8,122.4 83.7,122.1 84.9,121.7 85.3,121.4 86.2,121.1 88.2,120.9 89.1,120.7 90.3,120.7 90.7,120.4 91.5,120.1 93.2,119.7 94.5,119.3 94.9,119.2 96.9,118.8 97.8,118.5 98.6,118.4 99.0,118.1 100.3,117.7 101.1,117.6 101.9,117.5 102.3,117.2 102.7,117.1 104.4,116.9 105.2,116.8 106.1,116.5 108.1,116.3 109.4,116.2 109.8,115.9 110.2,115.8 110.6,115.6 111.5,115.3 111.9,114.9 114.4,114.7 116.0,114.6 116.8,114.4 117.3,113.9 119.3,113.8 119.8,113.7 121.4,113.4 123.1,113.1 123.5,113.0 123.9,112.9 124.7,112.8 126.4,112.8 126.8,112.4 127.6,112.2 128.0,111.8 128.5,111.7 128.9,111.3 131.0,110.9 132.2,110.8 133.0,110.6 134.3,110.5 134.7,110.2 136.8,109.8 137.2,109.5 137.6,109.4 138.0,109.3 138.8,109.1 140.1,108.7 141.3,108.7 141.7,108.5 142.6,108.3 143.8,107.8 144.2,107.4 144.6,107.4 145.1,107.0 147.1,106.9 147.5,106.7 149.6,106.5 150.4,106.2 151.3,105.9 152.5,105.8 154.2,105.3 155.4,105.0 156.7,104.5 157.1,104.5 157.9,104.2 158.3,104.1 158.7,103.7 159.2,103.5 159.6,103.4 160.4,103.1 162.1,103.0 162.5,102.8 162.9,102.7 163.3,102.3 163.7,101.9 164.5,101.6 165.0,101.3 165.4,101.2 166.2,100.9 167.9,100.7 168.3,100.3 169.9,100.1 171.2,99.7 171.6,99.6 172.0,99.2 174.1,98.9 174.9,98.8 175.3,98.4 176.2,98.1 176.6,98.0 179.1,97.6 179.9,97.5 180.7,97.3 181.1,97.3 181.6,97.0 184.5,96.8 184.9,96.4 187.4,96.0 188.2,95.8 189.0,95.7 195.2,95.6 196.1,95.3 196.9,95.0 197.3,94.8 197.7,94.6 198.1,94.3 198.6,94.2 199.0,93.8 199.4,93.7 199.8,93.4 200.2,93.1 200.6,93.0 201.5,92.7 202.3,92.3 202.7,92.3 203.5,92.0 204.8,91.6 206.9,91.3 207.3,91.1 211.8,90.9 212.2,90.6 212.7,90.4 213.1,90.3 213.9,90.1 214.3,89.8 214.7,89.7 216.0,89.5 216.4,89.5 218.5,89.4 219.3,89.2 220.5,88.7 221.0,88.5 221.4,88.2 223.0,88.0 223.4,88.0 225.1,87.6 225.5,87.2 226.8,87.0 228.0,86.7 228.8,86.4 229.7,86.1 230.1,85.8 230.9,85.6 232.6,85.2 236.3,85.1 237.1,84.8 237.5,84.5 238.8,84.2 239.6,84.1 240.0,83.9 240.4,83.6 241.3,83.5 242.1,83.4 245.4,83.3 245.8,83.1 246.3,82.8 246.7,82.5 247.5,82.0 248.3,81.8 248.7,81.6 249.2,81.2 249.6,81.1 251.2,80.7 253.3,80.6 254.1,80.4 254.5,80.4 255.4,80.3 257.0,80.1 257.5,80.0 258.7,79.9 259.5,79.7 259.9,79.6 260.4,79.5 261.6,79.2 262.4,79.0 262.8,78.8 264.1,78.5 264.5,78.2 264.9,77.9 265.7,77.5 266.2,77.1 266.6,76.9 267.4,76.9 267.8,76.8 268.7,76.5 269.9,76.4 270.3,76.2 274.0,75.9 274.5,75.8 275.7,75.7 277.8,75.4 280.3,75.4 281.9,75.3 284.8,75.2 285.7,74.9 286.9,74.6 287.3,74.3 288.6,74.1 289.8,73.7 291.0,73.3 291.5,73.3 291.9,73.1 292.3,72.8 293.5,72.5 294.4,72.2 294.8,71.9 296.0,71.6 296.4,71.4 296.9,71.0 297.7,70.6 298.5,70.5 298.9,70.5 299.8,70.4 300.6,70.3 302.2,70.1 303.1,69.7 303.5,69.6 305.6,69.4 306.0,69.0 306.4,69.0 306.8,68.8 308.9,68.6 309.3,68.2 310.1,68.0 311.4,67.8 311.8,67.6 312.2,67.1 313.4,66.8 314.7,66.7 315.1,66.4 315.5,66.3 316.3,66.0 317.2,65.9 317.6,65.5 318.4,65.3 318.8,64.9 319.3,64.9 320.9,64.6 323.4,64.3 325.1,64.2 326.3,64.1 327.5,64.1 328.0,63.8 328.4,63.7 330.0,63.6 330.9,63.3 331.3,62.9 331.7,62.6 334.2,62.3 334.6,62.0 335.8,61.8 337.1,61.6 337.9,61.3 339.6,60.9 340.0,60.9 341.6,60.6 343.7,60.3 344.1,60.2 347.9,59.9 348.3,59.7 349.1,59.5 349.5,59.3 349.9,59.2 351.2,58.9 352.4,58.6 353.3,58.4 354.5,58.3 357.0,58.0 357.4,57.7 357.8,57.5 360.3,57.4 362.0,57.0 362.4,56.9 364.5,56.9 365.3,56.6 365.7,56.5 366.5,56.2 366.9,55.8 371.1,55.4 371.5,55.1 371.9,55.0 372.8,54.6 373.2,54.2 373.6,54.0 374.0,53.9 375.2,53.8 376.5,53.5 376.9,53.4 377.7,53.1 378.1,53.0 379.0,52.9 380.2,52.8 381.9,52.8 382.3,52.5 383.1,52.3 383.5,52.2 384.0,51.7 384.4,51.7 386.4,51.4 386.9,51.0 387.3,50.6 388.9,50.4 389.8,50.3 391.0,50.2 391.4,50.1 391.8,49.9 393.5,49.6 395.2,49.2 395.6,48.8 397.2,48.5 398.1,48.2 398.5,47.8 398.9,47.6 399.3,47.4 399.7,47.3 401.0,47.2 401.4,47.2 402.2,47.1 403.9,47.0 404.3,46.6 405.1,46.2 405.5,46.0 406.3,45.7 407.2,45.4 407.6,45.3 408.0,45.0 408.4,44.8 411.7,44.5 412.6,44.4 413.0,44.2 413.8,44.1 415.1,44.0 416.3,43.7 416.7,43.4 417.5,43.3 419.2,43.2 419.6,42.9 420.0,42.8 420.5,42.4 420.9,42.1 421.3,41.9 421.7,41.6 422.1,41.3 422.5,41.0 424.2,40.7 425.0,40.6 425.4,40.4 426.7,40.4 427.1,40.0 427.5,39.9 427.9,39.4 428.3,39.1 429.6,38.7 430.0,38.7 430.8,38.5 432.5,38.4 432.9,38.2 433.3,37.8 434.6,37.6 435.4,37.3 435.8,37.2 436.2,37.0 437.0,36.9 437.5,36.5 437.9,36.2 438.3,36.0 438.7,35.6 439.5,35.5 439.9,35.4 441.6,35.0 443.3,34.7 444.5,34.3 444.9,34.0 445.3,33.8 447.0,33.7 447.4,33.4 447.8,33.2 448.7,33.1 451.6,32.8 452.4,32.5 455.3,32.1 455.7,32.0 457.8,31.8 458.2,31.6 459.0,31.2 459.9,31.2 460.7,31.0 462.8,30.6 464.0,30.3"/>

  <circle cx="464.0" cy="30.3" r="3" class="dot"/>
  <text x="456.0" y="22.3" class="total">2935</text>

</svg>