<svg xmlns="http://www.w3.org/2000/svg" width="840" height="196" viewBox="0 0 840 196" fill="none">
  <style>
    .label { font-family: -apple-system, BlinkMacSystemFont, 'Segoe UI', Helvetica, Arial, sans-serif; font-size: 10px; fill: #8b949e; }
    .title { font-family: -apple-system, BlinkMacSystemFont, 'Segoe UI', Helvetica, Arial, sans-serif; font-size: 11px; fill: #8b949e; font-weight: 600; }
    .total { font-family: -apple-system, BlinkMacSystemFont, 'Segoe UI', Helvetica, Arial, sans-serif; font-size: 11px; fill: #7ee787; font-weight: 600; }
    .grid { stroke: #21262d; stroke-width: 1; }
    .line { stroke: #7ee787; stroke-width: 2; stroke-linecap: round; stroke-linejoin: round; fill: none; }
    .dot { fill: #7ee787; }
    .area { fill: url(#areaGrad); }
    /* Hover interaction */
    .hoverpoint .guide { stroke: #7ee787; stroke-width: 1; stroke-dasharray: 2,2; opacity: 0; }
    .hoverpoint .hover-dot { fill: #7ee787; opacity: 0; }
    .hoverpoint .hit { fill: transparent; cursor: pointer; }
    .hoverpoint .tooltip-bg { fill: #161b22; stroke: #30363d; stroke-width: 1; opacity: 0; }
    .hoverpoint .tooltip-text { font-family: -apple-system, BlinkMacSystemFont, 'Segoe UI', Helvetica, Arial, sans-serif; font-size: 9px; fill: #c9d1d9; opacity: 0; }
    .hoverpoint:hover .guide { opacity: 0.5; }
    .hoverpoint:hover .hover-dot { opacity: 1; }
    .hoverpoint:hover .tooltip-bg { opacity: 0.95; }
    .hoverpoint:hover .tooltip-text { opacity: 1; }
  </style>
  <defs>
    <linearGradient id="areaGrad" x1="0" y1="0" x2="0" y2="1">
      <stop offset="0%" stop-color="#7ee787" stop-opacity="0.15"/>
      <stop offset="100%" stop-color="#7ee787" stop-opacity="0.01"/>
    </linearGradient>
  </defs>

  <text x="60" y="18" class="title">Cumulative Commits</text>

  <line x1="60" y1="160.0" x2="820" y2="160.0" class="grid"/>
  <text x="50" y="163.0" class="label" text-anchor="end">0</text>
  <line x1="60" y1="127.5" x2="820" y2="127.5" class="grid" stroke-dasharray="3,3"/>
  <text x="50" y="130.5" class="label" text-anchor="end">1,000</text>
  <line x1="60" y1="95.0" x2="820" y2="95.0" class="grid" stroke-dasharray="3,3"/>
  <text x="50" y="98.0" class="label" text-anchor="end">2,000</text>
  <line x1="60" y1="62.5" x2="820" y2="62.5" class="grid" stroke-dasharray="3,3"/>
  <text x="50" y="65.5" class="label" text-anchor="end">3,000</text>
  <line x1="60" y1="30.0" x2="820" y2="30.0" class="grid" stroke-dasharray="3,3"/>
  <text x="50" y="33.0" class="label" text-anchor="end">4,000</text>

  <text x="70.0" y="186" class="label" text-anchor="middle">2021</text>
  <text x="198.8" y="186" class="label" text-anchor="middle">2022</text>
  <text x="337.5" y="186" class="label" text-anchor="middle">2023</text>
  <text x="476.3" y="186" class="label" text-anchor="middle">2024</text>
  <text x="615.5" y="186" class="label" text-anchor="middle">2025</text>
  <text x="754.2" y="186" class="label" text-anchor="middle">2026</text>


  <path class="area" d="M60.0,160.0 L60.0,160.0 60.0,160.0 L179.0,159.8 L179.4,159.8 L180.5,159.8 L198.8,159.7 L199.1,159.5 L199.5,159.4 L199.9,159.3 L200.3,159.3 L200.7,159.2 L201.4,159.1 L201.8,159.0 L202.2,158.9 L202.6,158.9 L204.1,158.8 L204.5,158.7 L204.9,158.7 L208.7,158.7 L218.5,158.6 L270.6,158.5 L271.0,158.2 L272.5,158.2 L273.3,158.0 L279.0,157.9 L279.7,157.8 L280.1,157.7 L280.5,157.7 L281.3,157.6 L281.7,157.3 L282.0,157.0 L282.4,156.9 L283.9,156.8 L284.7,156.8 L286.6,156.7 L291.9,156.6 L302.2,156.5 L307.9,156.5 L310.5,156.4 L310.9,156.4 L311.3,156.3 L311.7,156.1 L312.8,155.9 L313.2,155.9 L313.6,155.8 L315.1,155.7 L315.5,155.5 L315.9,155.5 L316.2,155.2 L316.6,154.9 L317.0,154.8 L317.4,154.8 L318.1,154.7 L319.7,154.6 L323.9,154.5 L334.9,154.5 L335.3,154.3 L335.6,154.3 L339.4,154.0 L339.8,153.3 L341.0,153.2 L341.3,153.1 L343.2,153.0 L356.2,152.9 L356.5,152.8 L356.9,152.8 L357.7,152.7 L360.4,152.6 L361.1,152.4 L361.5,152.4 L363.4,152.3 L372.5,152.2 L559.6,152.1 L560.3,152.1 L561.1,152.1 L561.9,152.0 L562.2,151.9 L562.6,151.9 L563.0,151.9 L563.4,151.8 L567.2,151.8 L577.8,151.8 L580.9,151.7 L582.0,151.7 L584.3,151.7 L586.6,151.6 L586.9,151.6 L588.5,151.6 L589.6,151.6 L590.4,151.5 L618.5,151.5 L618.9,151.4 L619.6,151.4 L620.0,151.4 L621.2,151.3 L623.1,151.2 L628.4,151.2 L639.4,150.9 L639.8,150.7 L644.7,150.7 L645.1,150.6 L646.3,150.5 L647.8,150.4 L649.7,150.1 L650.1,149.2 L650.4,149.1 L652.7,149.1 L653.9,149.0 L654.2,149.0 L655.0,148.9 L658.0,148.9 L660.7,148.6 L662.6,148.4 L663.0,148.3 L664.1,148.1 L664.5,147.7 L664.9,147.6 L665.3,147.5 L665.6,147.4 L666.0,147.2 L666.8,146.9 L667.9,146.7 L681.6,146.6 L682.4,146.2 L690.7,146.1 L695.7,146.0 L698.0,145.9 L698.3,145.9 L700.6,145.9 L701.0,145.8 L701.4,145.8 L701.8,145.7 L702.1,145.6 L702.5,145.2 L702.9,145.2 L705.2,144.7 L705.6,144.6 L706.3,144.6 L709.0,144.4 L709.7,144.4 L710.1,144.3 L710.9,144.2 L711.3,144.0 L711.6,143.9 L712.4,143.9 L712.8,143.8 L713.2,143.8 L713.5,143.8 L715.1,143.6 L715.4,143.5 L715.8,143.4 L716.2,143.4 L716.6,143.3 L717.0,143.2 L718.1,143.1 L718.5,143.0 L718.9,142.9 L719.2,142.8 L719.6,142.6 L720.4,142.5 L720.8,142.2 L721.2,142.0 L721.5,141.4 L721.9,141.2 L722.3,141.1 L722.7,140.8 L723.1,140.7 L723.4,140.6 L723.8,140.6 L724.2,140.3 L726.1,140.0 L726.5,139.9 L726.9,139.6 L727.2,139.0 L727.6,139.0 L728.4,138.9 L728.8,138.5 L729.1,138.2 L729.5,138.2 L729.9,137.6 L730.7,137.5 L731.0,137.4 L731.4,137.4 L731.8,137.3 L732.2,137.3 L732.6,137.3 L734.1,137.2 L734.8,137.2 L735.2,136.9 L735.6,136.8 L736.7,136.7 L738.6,136.7 L740.9,136.5 L741.3,136.5 L741.7,136.4 L742.1,136.2 L742.4,135.8 L742.8,135.8 L743.2,135.7 L743.6,135.7 L744.0,135.6 L744.3,135.3 L748.5,135.2 L748.9,135.2 L752.3,135.0 L753.1,134.7 L753.5,134.7 L753.8,134.6 L754.2,134.5 L755.4,134.4 L755.7,133.9 L756.1,132.8 L756.5,131.7 L756.9,131.7 L757.3,131.6 L758.0,131.4 L758.4,131.3 L758.8,131.0 L759.5,131.0 L759.9,130.7 L760.3,130.7 L761.1,130.2 L761.5,130.2 L761.8,129.9 L762.2,129.7 L762.6,129.5 L763.0,129.5 L764.1,129.2 L764.5,129.1 L764.9,128.3 L765.3,127.2 L765.6,126.8 L766.0,126.3 L766.4,126.2 L766.8,126.1 L767.2,125.9 L767.5,125.7 L767.9,125.3 L768.3,125.3 L768.7,125.0 L769.1,125.0 L769.4,124.7 L769.8,124.5 L770.2,124.2 L770.6,123.9 L771.0,123.8 L771.3,123.7 L771.7,123.2 L772.1,122.2 L772.5,122.0 L773.2,121.8 L773.6,121.7 L774.0,121.7 L774.4,120.1 L774.8,119.4 L775.1,118.7 L775.5,118.4 L775.9,117.2 L776.3,117.1 L776.7,117.0 L777.0,116.7 L777.4,116.2 L777.8,115.2 L778.2,114.1 L778.6,114.0 L778.9,113.8 L779.7,113.8 L780.1,113.1 L780.5,112.6 L780.8,111.9 L781.2,111.8 L781.6,111.8 L782.0,110.7 L782.4,109.5 L782.7,108.9 L783.1,108.7 L783.5,108.3 L783.9,108.0 L784.3,108.0 L785.0,107.8 L785.4,107.6 L785.8,107.6 L786.2,107.5 L786.5,107.5 L787.7,107.5 L788.1,107.4 L788.8,107.4 L789.6,107.3 L790.0,107.3 L790.7,106.9 L791.1,106.6 L791.5,106.3 L793.8,106.2 L794.1,106.0 L794.5,105.9 L794.9,105.7 L795.3,105.6 L795.7,105.5 L796.0,105.5 L796.4,105.0 L796.8,104.5 L797.2,104.3 L797.6,103.4 L797.9,103.2 L798.7,103.2 L799.1,103.2 L800.2,102.9 L800.6,102.5 L801.0,102.2 L801.4,102.0 L801.8,101.3 L802.1,98.5 L802.5,97.3 L802.9,97.1 L803.3,96.9 L803.7,96.4 L804.0,96.3 L804.4,92.4 L804.8,87.6 L805.2,86.2 L805.6,86.2 L805.9,85.4 L806.3,84.9 L806.7,82.0 L807.1,80.2 L807.5,77.5 L807.8,77.0 L808.2,76.9 L808.6,76.8 L809.0,75.9 L809.4,74.6 L809.7,71.6 L810.1,71.1 L810.5,70.5 L810.9,69.7 L811.3,69.2 L811.6,68.7 L812.0,66.9 L812.4,66.5 L812.8,66.4 L813.2,66.1 L813.5,66.0 L813.9,65.7 L814.3,65.6 L814.7,64.7 L815.1,63.4 L815.4,62.3 L815.8,62.2 L816.2,61.2 L816.6,60.5 L817.0,60.4 L817.3,60.2 L817.7,60.1 L818.1,59.8 L818.5,59.0 L818.9,58.1 L819.2,57.8 L819.6,52.8 L820.0,52.7 L820.0,160.0 Z"/>
  <polyline class="line" points="60.0,160.0 179.0,159.8 179.4,159.8 180.5,159.8 198.8,159.7 199.1,159.5 199.5,159.4 199.9,159.3 200.3,159.3 200.7,159.2 201.4,159.1 201.8,159.0 202.2,158.9 202.6,158.9 204.1,158.8 204.5,158.7 204.9,158.7 208.7,158.7 218.5,158.6 270.6,158.5 271.0,158.2 272.5,158.2 273.3,158.0 279.0,157.9 279.7,157.8 280.1,157.7 280.5,157.7 281.3,157.6 281.7,157.3 282.0,157.0 282.4,156.9 283.9,156.8 284.7,156.8 286.6,156.7 291.9,156.6 302.2,156.5 307.9,156.5 310.5,156.4 310.9,156.4 311.3,156.3 311.7,156.1 312.8,155.9 313.2,155.9 313.6,155.8 315.1,155.7 315.5,155.5 315.9,155.5 316.2,155.2 316.6,154.9 317.0,154.8 317.4,154.8 318.1,154.7 319.7,154.6 323.9,154.5 334.9,154.5 335.3,154.3 335.6,154.3 339.4,154.0 339.8,153.3 341.0,153.2 341.3,153.1 343.2,153.0 356.2,152.9 356.5,152.8 356.9,152.8 357.7,152.7 360.4,152.6 361.1,152.4 361.5,152.4 363.4,152.3 372.5,152.2 559.6,152.1 560.3,152.1 561.1,152.1 561.9,152.0 562.2,151.9 562.6,151.9 563.0,151.9 563.4,151.8 567.2,151.8 577.8,151.8 580.9,151.7 582.0,151.7 584.3,151.7 586.6,151.6 586.9,151.6 588.5,151.6 589.6,151.6 590.4,151.5 618.5,151.5 618.9,151.4 619.6,151.4 620.0,151.4 621.2,151.3 623.1,151.2 628.4,151.2 639.4,150.9 639.8,150.7 644.7,150.7 645.1,150.6 646.3,150.5 647.8,150.4 649.7,150.1 650.1,149.2 650.4,149.1 652.7,149.1 653.9,149.0 654.2,149.0 655.0,148.9 658.0,148.9 660.7,148.6 662.6,148.4 663.0,148.3 664.1,148.1 664.5,147.7 664.9,147.6 665.3,147.5 665.6,147.4 666.0,147.2 666.8,146.9 667.9,146.7 681.6,146.6 682.4,146.2 690.7,146.1 695.7,146.0 698.0,145.9 698.3,145.9 700.6,145.9 701.0,145.8 701.4,145.8 701.8,145.7 702.1,145.6 702.5,145.2 702.9,145.2 705.2,144.7 705.6,144.6 706.3,144.6 709.0,144.4 709.7,144.4 710.1,144.3 710.9,144.2 711.3,144.0 711.6,143.9 712.4,143.9 712.8,143.8 713.2,143.8 713.5,143.8 715.1,143.6 715.4,143.5 715.8,143.4 716.2,143.4 716.6,143.3 717.0,143.2 718.1,143.1 718.5,143.0 718.9,142.9 719.2,142.8 719.6,142.6 720.4,142.5 720.8,142.2 721.2,142.0 721.5,141.4 721.9,141.2 722.3,141.1 722.7,140.8 723.1,140.7 723.4,140.6 723.8,140.6 724.2,140.3 726.1,140.0 726.5,139.9 726.9,139.6 727.2,139.0 727.6,139.0 728.4,138.9 728.8,138.5 729.1,138.2 729.5,138.2 729.9,137.6 730.7,137.5 731.0,137.4 731.4,137.4 731.8,137.3 732.2,137.3 732.6,137.3 734.1,137.2 734.8,137.2 735.2,136.9 735.6,136.8 736.7,136.7 738.6,136.7 740.9,136.5 741.3,136.5 741.7,136.4 742.1,136.2 742.4,135.8 742.8,135.8 743.2,135.7 743.6,135.7 744.0,135.6 744.3,135.3 748.5,135.2 748.9,135.2 752.3,135.0 753.1,134.7 753.5,134.7 753.8,134.6 754.2,134.5 755.4,134.4 755.7,133.9 756.1,132.8 756.5,131.7 756.9,131.7 757.3,131.6 758.0,131.4 758.4,131.3 758.8,131.0 759.5,131.0 759.9,130.7 760.3,130.7 761.1,130.2 761.5,130.2 761.8,129.9 762.2,129.7 762.6,129.5 763.0,129.5 764.1,129.2 764.5,129.1 764.9,128.3 765.3,127.2 765.6,126.8 766.0,126.3 766.4,126.2 766.8,126.1 767.2,125.9 767.5,125.7 767.9,125.3 768.3,125.3 768.7,125.0 769.1,125.0 769.4,124.7 769.8,124.5 770.2,124.2 770.6,123.9 771.0,123.8 771.3,123.7 771.7,123.2 772.1,122.2 772.5,122.0 773.2,121.8 773.6,121.7 774.0,121.7 774.4,120.1 774.8,119.4 775.1,118.7 775.5,118.4 775.9,117.2 776.3,117.1 776.7,117.0 777.0,116.7 777.4,116.2 777.8,115.2 778.2,114.1 778.6,114.0 778.9,113.8 779.7,113.8 780.1,113.1 780.5,112.6 780.8,111.9 781.2,111.8 781.6,111.8 782.0,110.7 782.4,109.5 782.7,108.9 783.1,108.7 783.5,108.3 783.9,108.0 784.3,108.0 785.0,107.8 785.4,107.6 785.8,107.6 786.2,107.5 786.5,107.5 787.7,107.5 788.1,107.4 788.8,107.4 789.6,107.3 790.0,107.3 790.7,106.9 791.1,106.6 791.5,106.3 793.8,106.2 794.1,106.0 794.5,105.9 794.9,105.7 795.3,105.6 795.7,105.5 796.0,105.5 796.4,105.0 796.8,104.5 797.2,104.3 797.6,103.4 797.9,103.2 798.7,103.2 799.1,103.2 800.2,102.9 800.6,102.5 801.0,102.2 801.4,102.0 801.8,101.3 802.1,98.5 802.5,97.3 802.9,97.1 803.3,96.9 803.7,96.4 804.0,96.3 804.4,92.4 804.8,87.6 805.2,86.2 805.6,86.2 805.9,85.4 806.3,84.9 806.7,82.0 807.1,80.2 807.5,77.5 807.8,77.0 808.2,76.9 808.6,76.8 809.0,75.9 809.4,74.6 809.7,71.6 810.1,71.1 810.5,70.5 810.9,69.7 811.3,69.2 811.6,68.7 812.0,66.9 812.4,66.5 812.8,66.4 813.2,66.1 813.5,66.0 813.9,65.7 814.3,65.6 814.7,64.7 815.1,63.4 815.4,62.3 815.8,62.2 816.2,61.2 816.6,60.5 817.0,60.4 817.3,60.2 817.7,60.1 818.1,59.8 818.5,59.0 818.9,58.1 819.2,57.8 819.6,52.8 820.0,52.7"/>

  <g class="hoverpoint">
    <line x1="180.5" y1="30" x2="180.5" y2="160.0" class="guide"/>
    <circle cx="180.5" cy="159.8" r="16" class="hit"/>
    <circle cx="180.5" cy="159.8" r="4" class="hover-dot"><title>Nov 2021: 7 total (+7 this month)</title></circle>
    <rect x="110.5" y="133.8" width="140" height="20" rx="4" class="tooltip-bg"/>
    <text x="180.5" y="147.8" class="tooltip-text" text-anchor="middle">Nov 2021: 7 total (+7 this month)</text>
  </g>
  <g class="hoverpoint">
    <line x1="208.7" y1="30" x2="208.7" y2="160.0" class="guide"/>
    <circle cx="208.7" cy="158.7" r="16" class="hit"/>
    <circle cx="208.7" cy="158.7" r="4" class="hover-dot"><title>Jan 2022: 41 total (+34 this month)</title></circle>
    <rect x="138.7" y="132.7" width="140" height="20" rx="4" class="tooltip-bg"/>
    <text x="208.7" y="146.7" class="tooltip-text" text-anchor="middle">Jan 2022: 41 total (+34 this month)</text>
  </g>
  <g class="hoverpoint">
    <line x1="218.5" y1="30" x2="218.5" y2="160.0" class="guide"/>
    <circle cx="218.5" cy="158.6" r="16" class="hit"/>
    <circle cx="218.5" cy="158.6" r="4" class="hover-dot"><title>Feb 2022: 44 total (+3 this month)</title></circle>
    <rect x="148.5" y="132.6" width="140" height="20" rx="4" class="tooltip-bg"/>
    <text x="218.5" y="146.6" class="tooltip-text" text-anchor="middle">Feb 2022: 44 total (+3 this month)</text>
  </g>
  <g class="hoverpoint">
    <line x1="279.0" y1="30" x2="279.0" y2="160.0" class="guide"/>
    <circle cx="279.0" cy="157.9" r="16" class="hit"/>
    <circle cx="279.0" cy="157.9" r="4" class="hover-dot"><title>Jul 2022: 65 total (+21 this month)</title></circle>
    <rect x="209.0" y="131.9" width="140" height="20" rx="4" class="tooltip-bg"/>
    <text x="279.0" y="145.9" class="tooltip-text" text-anchor="middle">Jul 2022: 65 total (+21 this month)</text>
  </g>
  <g class="hoverpoint">
    <line x1="286.6" y1="30" x2="286.6" y2="160.0" class="guide"/>
    <circle cx="286.6" cy="156.7" r="16" class="hit"/>
    <circle cx="286.6" cy="156.7" r="4" class="hover-dot"><title>Aug 2022: 101 total (+36 this month)</title></circle>
    <rect x="216.6" y="130.7" width="140" height="20" rx="4" class="tooltip-bg"/>
    <text x="286.6" y="144.7" class="tooltip-text" text-anchor="middle">Aug 2022: 101 total (+36 this month)</text>
  </g>
  <g class="hoverpoint">
    <line x1="302.2" y1="30" x2="302.2" y2="160.0" class="guide"/>
    <circle cx="302.2" cy="156.5" r="16" class="hit"/>
    <circle cx="302.2" cy="156.5" r="4" class="hover-dot"><title>Sep 2022: 108 total (+7 this month)</title></circle>
    <rect x="232.2" y="130.5" width="140" height="20" rx="4" class="tooltip-bg"/>
    <text x="302.2" y="144.5" class="tooltip-text" text-anchor="middle">Sep 2022: 108 total (+7 this month)</text>
  </g>
  <g class="hoverpoint">
    <line x1="313.6" y1="30" x2="313.6" y2="160.0" class="guide"/>
    <circle cx="313.6" cy="155.8" r="16" class="hit"/>
    <circle cx="313.6" cy="155.8" r="4" class="hover-dot"><title>Oct 2022: 128 total (+20 this month)</title></circle>
    <rect x="243.6" y="129.8" width="140" height="20" rx="4" class="tooltip-bg"/>
    <text x="313.6" y="143.8" class="tooltip-text" text-anchor="middle">Oct 2022: 128 total (+20 this month)</text>
  </g>
  <g class="hoverpoint">
    <line x1="323.9" y1="30" x2="323.9" y2="160.0" class="guide"/>
    <circle cx="323.9" cy="154.5" r="16" class="hit"/>
    <circle cx="323.9" cy="154.5" r="4" class="hover-dot"><title>Nov 2022: 168 total (+40 this month)</title></circle>
    <rect x="253.9" y="128.5" width="140" height="20" rx="4" class="tooltip-bg"/>
    <text x="323.9" y="142.5" class="tooltip-text" text-anchor="middle">Nov 2022: 168 total (+40 this month)</text>
  </g>
  <g class="hoverpoint">
    <line x1="335.6" y1="30" x2="335.6" y2="160.0" class="guide"/>
    <circle cx="335.6" cy="154.3" r="16" class="hit"/>
    <circle cx="335.6" cy="154.3" r="4" class="hover-dot"><title>Dec 2022: 175 total (+7 this month)</title></circle>
    <rect x="265.6" y="128.3" width="140" height="20" rx="4" class="tooltip-bg"/>
    <text x="335.6" y="142.3" class="tooltip-text" text-anchor="middle">Dec 2022: 175 total (+7 this month)</text>
  </g>
  <g class="hoverpoint">
    <line x1="343.2" y1="30" x2="343.2" y2="160.0" class="guide"/>
    <circle cx="343.2" cy="153.0" r="16" class="hit"/>
    <circle cx="343.2" cy="153.0" r="4" class="hover-dot"><title>Jan 2023: 214 total (+39 this month)</title></circle>
    <rect x="273.2" y="127.0" width="140" height="20" rx="4" class="tooltip-bg"/>
    <text x="343.2" y="141.0" class="tooltip-text" text-anchor="middle">Jan 2023: 214 total (+39 this month)</text>
  </g>
  <g class="hoverpoint">
    <line x1="357.7" y1="30" x2="357.7" y2="160.0" class="guide"/>
    <circle cx="357.7" cy="152.7" r="16" class="hit"/>
    <circle cx="357.7" cy="152.7" r="4" class="hover-dot"><title>Feb 2023: 225 total (+11 this month)</title></circle>
    <rect x="287.7" y="126.7" width="140" height="20" rx="4" class="tooltip-bg"/>
    <text x="357.7" y="140.7" class="tooltip-text" text-anchor="middle">Feb 2023: 225 total (+11 this month)</text>
  </g>
  <g class="hoverpoint">
    <line x1="363.4" y1="30" x2="363.4" y2="160.0" class="guide"/>
    <circle cx="363.4" cy="152.3" r="16" class="hit"/>
    <circle cx="363.4" cy="152.3" r="4" class="hover-dot"><title>Mar 2023: 237 total (+12 this month)</title></circle>
    <rect x="293.4" y="126.3" width="140" height="20" rx="4" class="tooltip-bg"/>
    <text x="363.4" y="140.3" class="tooltip-text" text-anchor="middle">Mar 2023: 237 total (+12 this month)</text>
  </g>
  <g class="hoverpoint">
    <line x1="372.5" y1="30" x2="372.5" y2="160.0" class="guide"/>
    <circle cx="372.5" cy="152.2" r="16" class="hit"/>
    <circle cx="372.5" cy="152.2" r="4" class="hover-dot"><title>Apr 2023: 240 total (+3 this month)</title></circle>
    <rect x="302.5" y="126.2" width="140" height="20" rx="4" class="tooltip-bg"/>
    <text x="372.5" y="140.2" class="tooltip-text" text-anchor="middle">Apr 2023: 240 total (+3 this month)</text>
  </g>
  <g class="hoverpoint">
    <line x1="567.2" y1="30" x2="567.2" y2="160.0" class="guide"/>
    <circle cx="567.2" cy="151.8" r="16" class="hit"/>
    <circle cx="567.2" cy="151.8" r="4" class="hover-dot"><title>Aug 2024: 252 total (+12 this month)</title></circle>
    <rect x="497.2" y="125.8" width="140" height="20" rx="4" class="tooltip-bg"/>
    <text x="567.2" y="139.8" class="tooltip-text" text-anchor="middle">Aug 2024: 252 total (+12 this month)</text>
  </g>
  <g class="hoverpoint">
    <line x1="577.8" y1="30" x2="577.8" y2="160.0" class="guide"/>
    <circle cx="577.8" cy="151.8" r="16" class="hit"/>
    <circle cx="577.8" cy="151.8" r="4" class="hover-dot"><title>Sep 2024: 253 total (+1 this month)</title></circle>
    <rect x="507.8" y="125.8" width="140" height="20" rx="4" class="tooltip-bg"/>
    <text x="577.8" y="139.8" class="tooltip-text" text-anchor="middle">Sep 2024: 253 total (+1 this month)</text>
  </g>
  <g class="hoverpoint">
    <line x1="590.4" y1="30" x2="590.4" y2="160.0" class="guide"/>
    <circle cx="590.4" cy="151.5" r="16" class="hit"/>
    <circle cx="590.4" cy="151.5" r="4" class="hover-dot"><title>Oct 2024: 261 total (+8 this month)</title></circle>
    <rect x="520.4" y="125.5" width="140" height="20" rx="4" class="tooltip-bg"/>
    <text x="590.4" y="139.5" class="tooltip-text" text-anchor="middle">Oct 2024: 261 total (+8 this month)</text>
  </g>
  <g class="hoverpoint">
    <line x1="623.1" y1="30" x2="623.1" y2="160.0" class="guide"/>
    <circle cx="623.1" cy="151.2" r="16" class="hit"/>
    <circle cx="623.1" cy="151.2" r="4" class="hover-dot"><title>Jan 2025: 270 total (+9 this month)</title></circle>
    <rect x="553.1" y="125.2" width="140" height="20" rx="4" class="tooltip-bg"/>
    <text x="623.1" y="139.2" class="tooltip-text" text-anchor="middle">Jan 2025: 270 total (+9 this month)</text>
  </g>
  <g class="hoverpoint">
    <line x1="628.4" y1="30" x2="628.4" y2="160.0" class="guide"/>
    <circle cx="628.4" cy="151.2" r="16" class="hit"/>
    <circle cx="628.4" cy="151.2" r="4" class="hover-dot"><title>Feb 2025: 272 total (+2 this month)</title></circle>
    <rect x="558.4" y="125.2" width="140" height="20" rx="4" class="tooltip-bg"/>
    <text x="628.4" y="139.2" class="tooltip-text" text-anchor="middle">Feb 2025: 272 total (+2 this month)</text>
  </g>
  <g class="hoverpoint">
    <line x1="647.8" y1="30" x2="647.8" y2="160.0" class="guide"/>
    <circle cx="647.8" cy="150.4" r="16" class="hit"/>
    <circle cx="647.8" cy="150.4" r="4" class="hover-dot"><title>Mar 2025: 294 total (+22 this month)</title></circle>
    <rect x="577.8" y="124.4" width="140" height="20" rx="4" class="tooltip-bg"/>
    <text x="647.8" y="138.4" class="tooltip-text" text-anchor="middle">Mar 2025: 294 total (+22 this month)</text>
  </g>
  <g class="hoverpoint">
    <line x1="660.7" y1="30" x2="660.7" y2="160.0" class="guide"/>
    <circle cx="660.7" cy="148.6" r="16" class="hit"/>
    <circle cx="660.7" cy="148.6" r="4" class="hover-dot"><title>Apr 2025: 351 total (+57 this month)</title></circle>
    <rect x="590.7" y="122.6" width="140" height="20" rx="4" class="tooltip-bg"/>
    <text x="660.7" y="136.6" class="tooltip-text" text-anchor="middle">Apr 2025: 351 total (+57 this month)</text>
  </g>
  <g class="hoverpoint">
    <line x1="667.9" y1="30" x2="667.9" y2="160.0" class="guide"/>
    <circle cx="667.9" cy="146.7" r="16" class="hit"/>
    <circle cx="667.9" cy="146.7" r="4" class="hover-dot"><title>May 2025: 408 total (+57 this month)</title></circle>
    <rect x="597.9" y="120.7" width="140" height="20" rx="4" class="tooltip-bg"/>
    <text x="667.9" y="134.7" class="tooltip-text" text-anchor="middle">May 2025: 408 total (+57 this month)</text>
  </g>
  <g class="hoverpoint">
    <line x1="682.4" y1="30" x2="682.4" y2="160.0" class="guide"/>
    <circle cx="682.4" cy="146.2" r="16" class="hit"/>
    <circle cx="682.4" cy="146.2" r="4" class="hover-dot"><title>Jun 2025: 424 total (+16 this month)</title></circle>
    <rect x="612.4" y="120.2" width="140" height="20" rx="4" class="tooltip-bg"/>
    <text x="682.4" y="134.2" class="tooltip-text" text-anchor="middle">Jun 2025: 424 total (+16 this month)</text>
  </g>
  <g class="hoverpoint">
    <line x1="695.7" y1="30" x2="695.7" y2="160.0" class="guide"/>
    <circle cx="695.7" cy="146.0" r="16" class="hit"/>
    <circle cx="695.7" cy="146.0" r="4" class="hover-dot"><title>Jul 2025: 432 total (+8 this month)</title></circle>
    <rect x="625.7" y="120.0" width="140" height="20" rx="4" class="tooltip-bg"/>
    <text x="695.7" y="134.0" class="tooltip-text" text-anchor="middle">Jul 2025: 432 total (+8 this month)</text>
  </g>
  <g class="hoverpoint">
    <line x1="706.3" y1="30" x2="706.3" y2="160.0" class="guide"/>
    <circle cx="706.3" cy="144.6" r="16" class="hit"/>
    <circle cx="706.3" cy="144.6" r="4" class="hover-dot"><title>Aug 2025: 475 total (+43 this month)</title></circle>
    <rect x="636.3" y="118.6" width="140" height="20" rx="4" class="tooltip-bg"/>
    <text x="706.3" y="132.6" class="tooltip-text" text-anchor="middle">Aug 2025: 475 total (+43 this month)</text>
  </g>
  <g class="hoverpoint">
    <line x1="718.9" y1="30" x2="718.9" y2="160.0" class="guide"/>
    <circle cx="718.9" cy="142.9" r="16" class="hit"/>
    <circle cx="718.9" cy="142.9" r="4" class="hover-dot"><title>Sep 2025: 526 total (+51 this month)</title></circle>
    <rect x="648.9" y="116.9" width="140" height="20" rx="4" class="tooltip-bg"/>
    <text x="718.9" y="130.9" class="tooltip-text" text-anchor="middle">Sep 2025: 526 total (+51 this month)</text>
  </g>
  <g class="hoverpoint">
    <line x1="730.7" y1="30" x2="730.7" y2="160.0" class="guide"/>
    <circle cx="730.7" cy="137.5" r="16" class="hit"/>
    <circle cx="730.7" cy="137.5" r="4" class="hover-dot"><title>Oct 2025: 692 total (+166 this month)</title></circle>
    <rect x="660.7" y="111.5" width="140" height="20" rx="4" class="tooltip-bg"/>
    <text x="730.7" y="125.5" class="tooltip-text" text-anchor="middle">Oct 2025: 692 total (+166 this month)</text>
  </g>
  <g class="hoverpoint">
    <line x1="742.1" y1="30" x2="742.1" y2="160.0" class="guide"/>
    <circle cx="742.1" cy="136.2" r="16" class="hit"/>
    <circle cx="742.1" cy="136.2" r="4" class="hover-dot"><title>Nov 2025: 731 total (+39 this month)</title></circle>
    <rect x="672.1" y="110.2" width="140" height="20" rx="4" class="tooltip-bg"/>
    <text x="742.1" y="124.2" class="tooltip-text" text-anchor="middle">Nov 2025: 731 total (+39 this month)</text>
  </g>
  <g class="hoverpoint">
    <line x1="753.8" y1="30" x2="753.8" y2="160.0" class="guide"/>
    <circle cx="753.8" cy="134.6" r="16" class="hit"/>
    <circle cx="753.8" cy="134.6" r="4" class="hover-dot"><title>Dec 2025: 783 total (+52 this month)</title></circle>
    <rect x="683.8" y="108.6" width="140" height="20" rx="4" class="tooltip-bg"/>
    <text x="753.8" y="122.6" class="tooltip-text" text-anchor="middle">Dec 2025: 783 total (+52 this month)</text>
  </g>
  <g class="hoverpoint">
    <line x1="765.6" y1="30" x2="765.6" y2="160.0" class="guide"/>
    <circle cx="765.6" cy="126.8" r="16" class="hit"/>
    <circle cx="765.6" cy="126.8" r="4" class="hover-dot"><title>Jan 2026: 1,022 total (+239 this month)</title></circle>
    <rect x="695.6" y="100.8" width="140" height="20" rx="4" class="tooltip-bg"/>
    <text x="765.6" y="114.8" class="tooltip-text" text-anchor="middle">Jan 2026: 1,022 total (+239 this month)</text>
  </g>
  <g class="hoverpoint">
    <line x1="776.3" y1="30" x2="776.3" y2="160.0" class="guide"/>
    <circle cx="776.3" cy="117.1" r="16" class="hit"/>
    <circle cx="776.3" cy="117.1" r="4" class="hover-dot"><title>Feb 2026: 1,321 total (+299 this month)</title></circle>
    <rect x="706.3" y="91.1" width="140" height="20" rx="4" class="tooltip-bg"/>
    <text x="776.3" y="105.1" class="tooltip-text" text-anchor="middle">Feb 2026: 1,321 total (+299 this month)</text>
  </g>
  <g class="hoverpoint">
    <line x1="788.1" y1="30" x2="788.1" y2="160.0" class="guide"/>
    <circle cx="788.1" cy="107.4" r="16" class="hit"/>
    <circle cx="788.1" cy="107.4" r="4" class="hover-dot"><title>Mar 2026: 1,617 total (+296 this month)</title></circle>
    <rect x="718.1" y="81.4" width="140" height="20" rx="4" class="tooltip-bg"/>
    <text x="788.1" y="95.4" class="tooltip-text" text-anchor="middle">Mar 2026: 1,617 total (+296 this month)</text>
  </g>
  <g class="hoverpoint">
    <line x1="799.1" y1="30" x2="799.1" y2="160.0" class="guide"/>
    <circle cx="799.1" cy="103.2" r="16" class="hit"/>
    <circle cx="799.1" cy="103.2" r="4" class="hover-dot"><title>Apr 2026: 1,749 total (+132 this month)</title></circle>
    <rect x="729.1" y="77.2" width="140" height="20" rx="4" class="tooltip-bg"/>
    <text x="799.1" y="91.2" class="tooltip-text" text-anchor="middle">Apr 2026: 1,749 total (+132 this month)</text>
  </g>
  <g class="hoverpoint">
    <line x1="811.3" y1="30" x2="811.3" y2="160.0" class="guide"/>
    <circle cx="811.3" cy="69.2" r="16" class="hit"/>
    <circle cx="811.3" cy="69.2" r="4" class="hover-dot"><title>May 2026: 2,795 total (+1,046 this month)</title></circle>
    <rect x="741.3" y="43.2" width="140" height="20" rx="4" class="tooltip-bg"/>
    <text x="811.3" y="57.2" class="tooltip-text" text-anchor="middle">May 2026: 2,795 total (+1,046 this month)</text>
  </g>
  <g class="hoverpoint">
    <line x1="820.0" y1="30" x2="820.0" y2="160.0" class="guide"/>
    <circle cx="820.0" cy="52.7" r="16" class="hit"/>
    <circle cx="820.0" cy="52.7" r="4" class="hover-dot"><title>Jun 2026: 3,301 total (+506 this month)</title></circle>
    <rect x="750.0" y="26.7" width="140" height="20" rx="4" class="tooltip-bg"/>
    <text x="820.0" y="40.7" class="tooltip-text" text-anchor="middle">Jun 2026: 3,301 total (+506 this month)</text>
  </g>

  <circle cx="820.0" cy="52.7" r="4" class="dot"/>
  <text x="810.0" y="42.7" class="total">3,301</text>

</svg>