<svg xmlns="http://www.w3.org/2000/svg" width="840" height="196" viewBox="0 0 840 196" fill="none">
  <style>
    .label { font-family: -apple-system, BlinkMacSystemFont, 'Segoe UI', Helvetica, Arial, sans-serif; font-size: 10px; fill: #8b949e; }
    .title { font-family: -apple-system, BlinkMacSystemFont, 'Segoe UI', Helvetica, Arial, sans-serif; font-size: 11px; fill: #8b949e; font-weight: 600; }
    .total { font-family: -apple-system, BlinkMacSystemFont, 'Segoe UI', Helvetica, Arial, sans-serif; font-size: 11px; fill: #7ee787; font-weight: 600; }
    .grid { stroke: #21262d; stroke-width: 1; }
    .line { stroke: #7ee787; stroke-width: 2; stroke-linecap: round; stroke-linejoin: round; fill: none; }
    .dot { fill: #7ee787; }
    .area { fill: url(#areaGrad); }
    /* Hover interaction */
    .hoverpoint .guide { stroke: #7ee787; stroke-width: 1; stroke-dasharray: 2,2; opacity: 0; }
    .hoverpoint .hover-dot { fill: #7ee787; opacity: 0; }
    .hoverpoint .hit { fill: transparent; cursor: pointer; }
    .hoverpoint .tooltip-bg { fill: #161b22; stroke: #30363d; stroke-width: 1; opacity: 0; }
    .hoverpoint .tooltip-text { font-family: -apple-system, BlinkMacSystemFont, 'Segoe UI', Helvetica, Arial, sans-serif; font-size: 9px; fill: #c9d1d9; opacity: 0; }
    .hoverpoint:hover .guide { opacity: 0.5; }
    .hoverpoint:hover .hover-dot { opacity: 1; }
    .hoverpoint:hover .tooltip-bg { opacity: 0.95; }
    .hoverpoint:hover .tooltip-text { opacity: 1; }
  </style>
  <defs>
    <linearGradient id="areaGrad" x1="0" y1="0" x2="0" y2="1">
      <stop offset="0%" stop-color="#7ee787" stop-opacity="0.15"/>
      <stop offset="100%" stop-color="#7ee787" stop-opacity="0.01"/>
    </linearGradient>
  </defs>

  <text x="60" y="18" class="title">Cumulative Commits</text>

  <line x1="60" y1="160.0" x2="820" y2="160.0" class="grid"/>
  <text x="50" y="163.0" class="label" text-anchor="end">0</text>
  <line x1="60" y1="127.5" x2="820" y2="127.5" class="grid" stroke-dasharray="3,3"/>
  <text x="50" y="130.5" class="label" text-anchor="end">1,000</text>
  <line x1="60" y1="95.0" x2="820" y2="95.0" class="grid" stroke-dasharray="3,3"/>
  <text x="50" y="98.0" class="label" text-anchor="end">2,000</text>
  <line x1="60" y1="62.5" x2="820" y2="62.5" class="grid" stroke-dasharray="3,3"/>
  <text x="50" y="65.5" class="label" text-anchor="end">3,000</text>
  <line x1="60" y1="30.0" x2="820" y2="30.0" class="grid" stroke-dasharray="3,3"/>
  <text x="50" y="33.0" class="label" text-anchor="end">4,000</text>

  <text x="70.0" y="186" class="label" text-anchor="middle">2021</text>
  <text x="191.7" y="186" class="label" text-anchor="middle">2022</text>
  <text x="323.3" y="186" class="label" text-anchor="middle">2023</text>
  <text x="455.0" y="186" class="label" text-anchor="middle">2024</text>
  <text x="587.0" y="186" class="label" text-anchor="middle">2025</text>
  <text x="718.6" y="186" class="label" text-anchor="middle">2026</text>


  <path class="area" d="M60.0,160.0 L60.0,160.0 60.0,160.0 L172.9,159.8 L173.3,159.8 L174.3,159.8 L191.7,159.7 L192.0,159.5 L192.4,159.4 L192.7,159.3 L193.1,159.3 L193.5,159.2 L194.2,159.1 L194.5,159.0 L194.9,158.9 L195.3,158.9 L196.7,158.8 L197.1,158.7 L197.4,158.7 L201.0,158.7 L210.4,158.6 L259.8,158.5 L260.2,158.2 L261.6,158.2 L262.4,158.0 L267.8,157.9 L268.5,157.8 L268.8,157.7 L269.2,157.7 L269.9,157.6 L270.3,157.3 L270.7,157.0 L271.0,156.9 L272.5,156.8 L273.2,156.8 L275.0,156.7 L280.0,156.6 L289.8,156.5 L295.2,156.5 L297.7,156.4 L298.1,156.4 L298.4,156.3 L298.8,156.1 L299.9,155.9 L300.2,155.9 L300.6,155.8 L302.0,155.7 L302.4,155.5 L302.8,155.5 L303.1,155.2 L303.5,154.9 L303.8,154.8 L304.2,154.8 L304.9,154.7 L306.4,154.6 L310.3,154.5 L320.8,154.5 L321.1,154.3 L321.5,154.3 L325.1,154.0 L325.5,153.3 L326.6,153.2 L326.9,153.1 L328.7,153.0 L341.0,152.9 L341.3,152.8 L341.7,152.8 L342.4,152.7 L345.0,152.6 L345.7,152.4 L346.0,152.4 L347.8,152.3 L356.5,152.2 L534.0,152.1 L534.7,152.1 L535.4,152.1 L536.1,152.0 L536.5,151.9 L536.8,151.9 L537.2,151.9 L537.6,151.8 L541.2,151.8 L551.3,151.8 L554.2,151.7 L555.2,151.7 L557.4,151.7 L559.6,151.6 L559.9,151.6 L561.4,151.6 L562.5,151.6 L563.2,151.5 L589.9,151.5 L590.2,151.4 L591.0,151.4 L591.3,151.4 L592.4,151.3 L594.2,151.2 L599.3,151.2 L609.7,150.9 L610.1,150.7 L614.8,150.7 L615.1,150.6 L616.2,150.5 L617.6,150.4 L619.4,150.1 L619.8,149.2 L620.2,149.1 L622.3,149.1 L623.4,149.0 L623.8,149.0 L624.5,148.9 L627.4,148.9 L629.9,148.6 L631.7,148.4 L632.1,148.3 L633.2,148.1 L633.5,147.7 L633.9,147.6 L634.2,147.5 L634.6,147.4 L635.0,147.2 L635.7,146.9 L636.8,146.7 L649.7,146.6 L650.5,146.2 L658.4,146.1 L663.1,146.0 L665.3,145.9 L665.6,145.9 L667.8,145.9 L668.1,145.8 L668.5,145.8 L668.9,145.7 L669.2,145.6 L669.6,145.2 L669.9,145.2 L672.1,144.7 L672.5,144.6 L673.2,144.6 L675.7,144.4 L676.4,144.4 L676.8,144.3 L677.5,144.2 L677.9,144.0 L678.2,143.9 L679.0,143.9 L679.3,143.8 L679.7,143.8 L680.0,143.8 L681.5,143.6 L681.9,143.5 L682.2,143.4 L682.6,143.4 L682.9,143.3 L683.3,143.2 L684.4,143.1 L684.7,143.0 L685.1,142.9 L685.5,142.8 L685.8,142.6 L686.5,142.5 L686.9,142.2 L687.3,142.0 L687.6,141.4 L688.0,141.2 L688.3,141.1 L688.7,140.8 L689.1,140.7 L689.4,140.6 L689.8,140.6 L690.1,140.3 L692.0,140.0 L692.3,139.9 L692.7,139.6 L693.0,139.0 L693.4,139.0 L694.1,138.9 L694.5,138.5 L694.8,138.2 L695.2,138.2 L695.6,137.6 L696.3,137.5 L696.6,137.4 L697.0,137.4 L697.4,137.3 L697.7,137.3 L698.1,137.3 L699.5,137.2 L700.2,137.2 L700.6,136.9 L701.0,136.8 L702.1,136.7 L703.9,136.7 L706.0,136.5 L706.4,136.5 L706.7,136.4 L707.1,136.2 L707.5,135.8 L707.8,135.8 L708.2,135.7 L708.5,135.7 L708.9,135.6 L709.3,135.3 L713.2,135.2 L713.6,135.2 L716.8,135.0 L717.6,134.7 L717.9,134.7 L718.3,134.6 L718.6,134.5 L719.7,134.4 L720.1,133.9 L720.4,132.8 L720.8,131.7 L721.2,131.7 L721.5,131.6 L722.2,131.4 L722.6,131.3 L723.0,131.0 L723.7,131.0 L724.1,130.7 L724.4,130.7 L725.1,130.2 L725.5,130.2 L725.9,129.9 L726.2,129.7 L726.6,129.5 L726.9,129.5 L728.0,129.2 L728.4,129.1 L728.7,128.3 L729.1,127.2 L729.5,126.8 L729.8,126.3 L730.2,126.2 L730.5,126.1 L730.9,125.9 L731.3,125.7 L731.6,125.3 L732.0,125.3 L732.3,125.0 L732.7,125.0 L733.1,124.7 L733.4,124.5 L733.8,124.2 L734.2,123.9 L734.5,123.8 L734.9,123.7 L735.2,123.2 L735.6,122.2 L736.0,122.0 L736.7,121.8 L737.0,121.7 L737.4,121.7 L737.8,120.1 L738.1,119.4 L738.5,118.7 L738.8,118.4 L739.2,117.2 L739.6,117.1 L739.9,117.0 L740.3,116.7 L740.6,116.2 L741.0,115.2 L741.4,114.1 L741.7,114.0 L742.1,113.8 L742.8,113.8 L743.2,113.1 L743.5,112.6 L743.9,111.9 L744.3,111.8 L744.6,111.8 L745.0,110.7 L745.3,109.5 L745.7,108.9 L746.1,108.7 L746.4,108.3 L746.8,108.0 L747.1,108.0 L747.9,107.8 L748.2,107.6 L748.6,107.6 L748.9,107.5 L749.3,107.5 L750.4,107.5 L750.7,107.4 L751.5,107.4 L752.2,107.3 L752.5,107.3 L753.3,106.9 L753.6,106.6 L754.0,106.3 L756.2,106.2 L756.5,106.0 L756.9,105.9 L757.2,105.7 L757.6,105.6 L758.0,105.5 L758.3,105.5 L758.7,105.0 L759.0,104.5 L759.4,104.3 L759.8,103.4 L760.1,103.2 L760.8,103.2 L761.2,103.2 L762.3,102.9 L762.6,102.5 L763.0,102.2 L763.4,102.0 L763.7,101.3 L764.1,98.5 L764.5,97.3 L764.8,97.1 L765.2,96.9 L765.5,96.4 L765.9,96.3 L766.3,92.4 L766.6,87.6 L767.0,86.2 L767.3,86.2 L767.7,85.4 L768.1,84.9 L768.4,82.0 L768.8,80.2 L769.1,77.5 L769.5,77.0 L769.9,76.9 L770.2,76.8 L770.6,75.9 L770.9,74.6 L771.3,71.6 L771.7,71.1 L772.0,70.5 L772.4,69.7 L772.7,69.2 L773.1,68.7 L773.5,66.9 L773.8,66.5 L774.2,66.4 L774.6,66.1 L774.9,66.0 L775.3,65.7 L775.6,65.6 L776.0,64.7 L776.4,63.3 L776.7,62.2 L777.1,62.1 L777.4,61.1 L777.8,60.4 L778.2,60.3 L778.5,60.1 L778.9,60.0 L779.2,59.7 L779.6,58.9 L780.0,58.0 L780.3,57.6 L780.7,52.6 L781.0,51.8 L781.4,51.6 L782.1,51.1 L782.8,50.9 L783.2,50.7 L783.6,50.3 L783.9,49.6 L784.3,49.5 L784.7,47.8 L785.0,47.7 L786.1,47.5 L786.5,46.7 L786.8,46.1 L787.2,45.9 L787.5,44.5 L787.9,43.4 L788.3,42.4 L788.6,42.3 L789.3,42.1 L789.7,41.8 L790.1,41.6 L790.4,41.4 L791.5,40.9 L791.9,40.5 L792.2,40.5 L796.2,40.2 L796.6,40.0 L798.0,39.8 L798.7,39.5 L799.8,39.4 L800.2,39.3 L800.9,39.1 L803.0,38.6 L803.4,37.8 L803.8,36.5 L804.1,36.4 L804.5,36.3 L805.2,35.8 L805.6,35.7 L805.9,35.7 L806.3,35.4 L806.7,35.4 L807.0,35.1 L807.4,35.0 L807.7,34.9 L813.1,34.9 L814.6,34.7 L816.8,34.6 L817.1,34.3 L817.5,34.0 L817.8,33.8 L818.2,33.6 L818.6,33.1 L818.9,32.5 L819.3,32.3 L819.6,32.3 L820.0,32.2 L820.0,160.0 Z"/>
  <polyline class="line" points="60.0,160.0 172.9,159.8 173.3,159.8 174.3,159.8 191.7,159.7 192.0,159.5 192.4,159.4 192.7,159.3 193.1,159.3 193.5,159.2 194.2,159.1 194.5,159.0 194.9,158.9 195.3,158.9 196.7,158.8 197.1,158.7 197.4,158.7 201.0,158.7 210.4,158.6 259.8,158.5 260.2,158.2 261.6,158.2 262.4,158.0 267.8,157.9 268.5,157.8 268.8,157.7 269.2,157.7 269.9,157.6 270.3,157.3 270.7,157.0 271.0,156.9 272.5,156.8 273.2,156.8 275.0,156.7 280.0,156.6 289.8,156.5 295.2,156.5 297.7,156.4 298.1,156.4 298.4,156.3 298.8,156.1 299.9,155.9 300.2,155.9 300.6,155.8 302.0,155.7 302.4,155.5 302.8,155.5 303.1,155.2 303.5,154.9 303.8,154.8 304.2,154.8 304.9,154.7 306.4,154.6 310.3,154.5 320.8,154.5 321.1,154.3 321.5,154.3 325.1,154.0 325.5,153.3 326.6,153.2 326.9,153.1 328.7,153.0 341.0,152.9 341.3,152.8 341.7,152.8 342.4,152.7 345.0,152.6 345.7,152.4 346.0,152.4 347.8,152.3 356.5,152.2 534.0,152.1 534.7,152.1 535.4,152.1 536.1,152.0 536.5,151.9 536.8,151.9 537.2,151.9 537.6,151.8 541.2,151.8 551.3,151.8 554.2,151.7 555.2,151.7 557.4,151.7 559.6,151.6 559.9,151.6 561.4,151.6 562.5,151.6 563.2,151.5 589.9,151.5 590.2,151.4 591.0,151.4 591.3,151.4 592.4,151.3 594.2,151.2 599.3,151.2 609.7,150.9 610.1,150.7 614.8,150.7 615.1,150.6 616.2,150.5 617.6,150.4 619.4,150.1 619.8,149.2 620.2,149.1 622.3,149.1 623.4,149.0 623.8,149.0 624.5,148.9 627.4,148.9 629.9,148.6 631.7,148.4 632.1,148.3 633.2,148.1 633.5,147.7 633.9,147.6 634.2,147.5 634.6,147.4 635.0,147.2 635.7,146.9 636.8,146.7 649.7,146.6 650.5,146.2 658.4,146.1 663.1,146.0 665.3,145.9 665.6,145.9 667.8,145.9 668.1,145.8 668.5,145.8 668.9,145.7 669.2,145.6 669.6,145.2 669.9,145.2 672.1,144.7 672.5,144.6 673.2,144.6 675.7,144.4 676.4,144.4 676.8,144.3 677.5,144.2 677.9,144.0 678.2,143.9 679.0,143.9 679.3,143.8 679.7,143.8 680.0,143.8 681.5,143.6 681.9,143.5 682.2,143.4 682.6,143.4 682.9,143.3 683.3,143.2 684.4,143.1 684.7,143.0 685.1,142.9 685.5,142.8 685.8,142.6 686.5,142.5 686.9,142.2 687.3,142.0 687.6,141.4 688.0,141.2 688.3,141.1 688.7,140.8 689.1,140.7 689.4,140.6 689.8,140.6 690.1,140.3 692.0,140.0 692.3,139.9 692.7,139.6 693.0,139.0 693.4,139.0 694.1,138.9 694.5,138.5 694.8,138.2 695.2,138.2 695.6,137.6 696.3,137.5 696.6,137.4 697.0,137.4 697.4,137.3 697.7,137.3 698.1,137.3 699.5,137.2 700.2,137.2 700.6,136.9 701.0,136.8 702.1,136.7 703.9,136.7 706.0,136.5 706.4,136.5 706.7,136.4 707.1,136.2 707.5,135.8 707.8,135.8 708.2,135.7 708.5,135.7 708.9,135.6 709.3,135.3 713.2,135.2 713.6,135.2 716.8,135.0 717.6,134.7 717.9,134.7 718.3,134.6 718.6,134.5 719.7,134.4 720.1,133.9 720.4,132.8 720.8,131.7 721.2,131.7 721.5,131.6 722.2,131.4 722.6,131.3 723.0,131.0 723.7,131.0 724.1,130.7 724.4,130.7 725.1,130.2 725.5,130.2 725.9,129.9 726.2,129.7 726.6,129.5 726.9,129.5 728.0,129.2 728.4,129.1 728.7,128.3 729.1,127.2 729.5,126.8 729.8,126.3 730.2,126.2 730.5,126.1 730.9,125.9 731.3,125.7 731.6,125.3 732.0,125.3 732.3,125.0 732.7,125.0 733.1,124.7 733.4,124.5 733.8,124.2 734.2,123.9 734.5,123.8 734.9,123.7 735.2,123.2 735.6,122.2 736.0,122.0 736.7,121.8 737.0,121.7 737.4,121.7 737.8,120.1 738.1,119.4 738.5,118.7 738.8,118.4 739.2,117.2 739.6,117.1 739.9,117.0 740.3,116.7 740.6,116.2 741.0,115.2 741.4,114.1 741.7,114.0 742.1,113.8 742.8,113.8 743.2,113.1 743.5,112.6 743.9,111.9 744.3,111.8 744.6,111.8 745.0,110.7 745.3,109.5 745.7,108.9 746.1,108.7 746.4,108.3 746.8,108.0 747.1,108.0 747.9,107.8 748.2,107.6 748.6,107.6 748.9,107.5 749.3,107.5 750.4,107.5 750.7,107.4 751.5,107.4 752.2,107.3 752.5,107.3 753.3,106.9 753.6,106.6 754.0,106.3 756.2,106.2 756.5,106.0 756.9,105.9 757.2,105.7 757.6,105.6 758.0,105.5 758.3,105.5 758.7,105.0 759.0,104.5 759.4,104.3 759.8,103.4 760.1,103.2 760.8,103.2 761.2,103.2 762.3,102.9 762.6,102.5 763.0,102.2 763.4,102.0 763.7,101.3 764.1,98.5 764.5,97.3 764.8,97.1 765.2,96.9 765.5,96.4 765.9,96.3 766.3,92.4 766.6,87.6 767.0,86.2 767.3,86.2 767.7,85.4 768.1,84.9 768.4,82.0 768.8,80.2 769.1,77.5 769.5,77.0 769.9,76.9 770.2,76.8 770.6,75.9 770.9,74.6 771.3,71.6 771.7,71.1 772.0,70.5 772.4,69.7 772.7,69.2 773.1,68.7 773.5,66.9 773.8,66.5 774.2,66.4 774.6,66.1 774.9,66.0 775.3,65.7 775.6,65.6 776.0,64.7 776.4,63.3 776.7,62.2 777.1,62.1 777.4,61.1 777.8,60.4 778.2,60.3 778.5,60.1 778.9,60.0 779.2,59.7 779.6,58.9 780.0,58.0 780.3,57.6 780.7,52.6 781.0,51.8 781.4,51.6 782.1,51.1 782.8,50.9 783.2,50.7 783.6,50.3 783.9,49.6 784.3,49.5 784.7,47.8 785.0,47.7 786.1,47.5 786.5,46.7 786.8,46.1 787.2,45.9 787.5,44.5 787.9,43.4 788.3,42.4 788.6,42.3 789.3,42.1 789.7,41.8 790.1,41.6 790.4,41.4 791.5,40.9 791.9,40.5 792.2,40.5 796.2,40.2 796.6,40.0 798.0,39.8 798.7,39.5 799.8,39.4 800.2,39.3 800.9,39.1 803.0,38.6 803.4,37.8 803.8,36.5 804.1,36.4 804.5,36.3 805.2,35.8 805.6,35.7 805.9,35.7 806.3,35.4 806.7,35.4 807.0,35.1 807.4,35.0 807.7,34.9 813.1,34.9 814.6,34.7 816.8,34.6 817.1,34.3 817.5,34.0 817.8,33.8 818.2,33.6 818.6,33.1 818.9,32.5 819.3,32.3 819.6,32.3 820.0,32.2"/>

  <g class="hoverpoint">
    <line x1="174.3" y1="30" x2="174.3" y2="160.0" class="guide"/>
    <circle cx="174.3" cy="159.8" r="16" class="hit"/>
    <circle cx="174.3" cy="159.8" r="4" class="hover-dot"><title>Nov 2021: 7 total (+7 this month)</title></circle>
    <rect x="104.3" y="133.8" width="140" height="20" rx="4" class="tooltip-bg"/>
    <text x="174.3" y="147.8" class="tooltip-text" text-anchor="middle">Nov 2021: 7 total (+7 this month)</text>
  </g>
  <g class="hoverpoint">
    <line x1="201.0" y1="30" x2="201.0" y2="160.0" class="guide"/>
    <circle cx="201.0" cy="158.7" r="16" class="hit"/>
    <circle cx="201.0" cy="158.7" r="4" class="hover-dot"><title>Jan 2022: 41 total (+34 this month)</title></circle>
    <rect x="131.0" y="132.7" width="140" height="20" rx="4" class="tooltip-bg"/>
    <text x="201.0" y="146.7" class="tooltip-text" text-anchor="middle">Jan 2022: 41 total (+34 this month)</text>
  </g>
  <g class="hoverpoint">
    <line x1="210.4" y1="30" x2="210.4" y2="160.0" class="guide"/>
    <circle cx="210.4" cy="158.6" r="16" class="hit"/>
    <circle cx="210.4" cy="158.6" r="4" class="hover-dot"><title>Feb 2022: 44 total (+3 this month)</title></circle>
    <rect x="140.4" y="132.6" width="140" height="20" rx="4" class="tooltip-bg"/>
    <text x="210.4" y="146.6" class="tooltip-text" text-anchor="middle">Feb 2022: 44 total (+3 this month)</text>
  </g>
  <g class="hoverpoint">
    <line x1="267.8" y1="30" x2="267.8" y2="160.0" class="guide"/>
    <circle cx="267.8" cy="157.9" r="16" class="hit"/>
    <circle cx="267.8" cy="157.9" r="4" class="hover-dot"><title>Jul 2022: 65 total (+21 this month)</title></circle>
    <rect x="197.8" y="131.9" width="140" height="20" rx="4" class="tooltip-bg"/>
    <text x="267.8" y="145.9" class="tooltip-text" text-anchor="middle">Jul 2022: 65 total (+21 this month)</text>
  </g>
  <g class="hoverpoint">
    <line x1="275.0" y1="30" x2="275.0" y2="160.0" class="guide"/>
    <circle cx="275.0" cy="156.7" r="16" class="hit"/>
    <circle cx="275.0" cy="156.7" r="4" class="hover-dot"><title>Aug 2022: 101 total (+36 this month)</title></circle>
    <rect x="205.0" y="130.7" width="140" height="20" rx="4" class="tooltip-bg"/>
    <text x="275.0" y="144.7" class="tooltip-text" text-anchor="middle">Aug 2022: 101 total (+36 this month)</text>
  </g>
  <g class="hoverpoint">
    <line x1="289.8" y1="30" x2="289.8" y2="160.0" class="guide"/>
    <circle cx="289.8" cy="156.5" r="16" class="hit"/>
    <circle cx="289.8" cy="156.5" r="4" class="hover-dot"><title>Sep 2022: 108 total (+7 this month)</title></circle>
    <rect x="219.8" y="130.5" width="140" height="20" rx="4" class="tooltip-bg"/>
    <text x="289.8" y="144.5" class="tooltip-text" text-anchor="middle">Sep 2022: 108 total (+7 this month)</text>
  </g>
  <g class="hoverpoint">
    <line x1="300.6" y1="30" x2="300.6" y2="160.0" class="guide"/>
    <circle cx="300.6" cy="155.8" r="16" class="hit"/>
    <circle cx="300.6" cy="155.8" r="4" class="hover-dot"><title>Oct 2022: 128 total (+20 this month)</title></circle>
    <rect x="230.6" y="129.8" width="140" height="20" rx="4" class="tooltip-bg"/>
    <text x="300.6" y="143.8" class="tooltip-text" text-anchor="middle">Oct 2022: 128 total (+20 this month)</text>
  </g>
  <g class="hoverpoint">
    <line x1="310.3" y1="30" x2="310.3" y2="160.0" class="guide"/>
    <circle cx="310.3" cy="154.5" r="16" class="hit"/>
    <circle cx="310.3" cy="154.5" r="4" class="hover-dot"><title>Nov 2022: 168 total (+40 this month)</title></circle>
    <rect x="240.3" y="128.5" width="140" height="20" rx="4" class="tooltip-bg"/>
    <text x="310.3" y="142.5" class="tooltip-text" text-anchor="middle">Nov 2022: 168 total (+40 this month)</text>
  </g>
  <g class="hoverpoint">
    <line x1="321.5" y1="30" x2="321.5" y2="160.0" class="guide"/>
    <circle cx="321.5" cy="154.3" r="16" class="hit"/>
    <circle cx="321.5" cy="154.3" r="4" class="hover-dot"><title>Dec 2022: 175 total (+7 this month)</title></circle>
    <rect x="251.5" y="128.3" width="140" height="20" rx="4" class="tooltip-bg"/>
    <text x="321.5" y="142.3" class="tooltip-text" text-anchor="middle">Dec 2022: 175 total (+7 this month)</text>
  </g>
  <g class="hoverpoint">
    <line x1="328.7" y1="30" x2="328.7" y2="160.0" class="guide"/>
    <circle cx="328.7" cy="153.0" r="16" class="hit"/>
    <circle cx="328.7" cy="153.0" r="4" class="hover-dot"><title>Jan 2023: 214 total (+39 this month)</title></circle>
    <rect x="258.7" y="127.0" width="140" height="20" rx="4" class="tooltip-bg"/>
    <text x="328.7" y="141.0" class="tooltip-text" text-anchor="middle">Jan 2023: 214 total (+39 this month)</text>
  </g>
  <g class="hoverpoint">
    <line x1="342.4" y1="30" x2="342.4" y2="160.0" class="guide"/>
    <circle cx="342.4" cy="152.7" r="16" class="hit"/>
    <circle cx="342.4" cy="152.7" r="4" class="hover-dot"><title>Feb 2023: 225 total (+11 this month)</title></circle>
    <rect x="272.4" y="126.7" width="140" height="20" rx="4" class="tooltip-bg"/>
    <text x="342.4" y="140.7" class="tooltip-text" text-anchor="middle">Feb 2023: 225 total (+11 this month)</text>
  </g>
  <g class="hoverpoint">
    <line x1="347.8" y1="30" x2="347.8" y2="160.0" class="guide"/>
    <circle cx="347.8" cy="152.3" r="16" class="hit"/>
    <circle cx="347.8" cy="152.3" r="4" class="hover-dot"><title>Mar 2023: 237 total (+12 this month)</title></circle>
    <rect x="277.8" y="126.3" width="140" height="20" rx="4" class="tooltip-bg"/>
    <text x="347.8" y="140.3" class="tooltip-text" text-anchor="middle">Mar 2023: 237 total (+12 this month)</text>
  </g>
  <g class="hoverpoint">
    <line x1="356.5" y1="30" x2="356.5" y2="160.0" class="guide"/>
    <circle cx="356.5" cy="152.2" r="16" class="hit"/>
    <circle cx="356.5" cy="152.2" r="4" class="hover-dot"><title>Apr 2023: 240 total (+3 this month)</title></circle>
    <rect x="286.5" y="126.2" width="140" height="20" rx="4" class="tooltip-bg"/>
    <text x="356.5" y="140.2" class="tooltip-text" text-anchor="middle">Apr 2023: 240 total (+3 this month)</text>
  </g>
  <g class="hoverpoint">
    <line x1="541.2" y1="30" x2="541.2" y2="160.0" class="guide"/>
    <circle cx="541.2" cy="151.8" r="16" class="hit"/>
    <circle cx="541.2" cy="151.8" r="4" class="hover-dot"><title>Aug 2024: 252 total (+12 this month)</title></circle>
    <rect x="471.2" y="125.8" width="140" height="20" rx="4" class="tooltip-bg"/>
    <text x="541.2" y="139.8" class="tooltip-text" text-anchor="middle">Aug 2024: 252 total (+12 this month)</text>
  </g>
  <g class="hoverpoint">
    <line x1="551.3" y1="30" x2="551.3" y2="160.0" class="guide"/>
    <circle cx="551.3" cy="151.8" r="16" class="hit"/>
    <circle cx="551.3" cy="151.8" r="4" class="hover-dot"><title>Sep 2024: 253 total (+1 this month)</title></circle>
    <rect x="481.3" y="125.8" width="140" height="20" rx="4" class="tooltip-bg"/>
    <text x="551.3" y="139.8" class="tooltip-text" text-anchor="middle">Sep 2024: 253 total (+1 this month)</text>
  </g>
  <g class="hoverpoint">
    <line x1="563.2" y1="30" x2="563.2" y2="160.0" class="guide"/>
    <circle cx="563.2" cy="151.5" r="16" class="hit"/>
    <circle cx="563.2" cy="151.5" r="4" class="hover-dot"><title>Oct 2024: 261 total (+8 this month)</title></circle>
    <rect x="493.2" y="125.5" width="140" height="20" rx="4" class="tooltip-bg"/>
    <text x="563.2" y="139.5" class="tooltip-text" text-anchor="middle">Oct 2024: 261 total (+8 this month)</text>
  </g>
  <g class="hoverpoint">
    <line x1="594.2" y1="30" x2="594.2" y2="160.0" class="guide"/>
    <circle cx="594.2" cy="151.2" r="16" class="hit"/>
    <circle cx="594.2" cy="151.2" r="4" class="hover-dot"><title>Jan 2025: 270 total (+9 this month)</title></circle>
    <rect x="524.2" y="125.2" width="140" height="20" rx="4" class="tooltip-bg"/>
    <text x="594.2" y="139.2" class="tooltip-text" text-anchor="middle">Jan 2025: 270 total (+9 this month)</text>
  </g>
  <g class="hoverpoint">
    <line x1="599.3" y1="30" x2="599.3" y2="160.0" class="guide"/>
    <circle cx="599.3" cy="151.2" r="16" class="hit"/>
    <circle cx="599.3" cy="151.2" r="4" class="hover-dot"><title>Feb 2025: 272 total (+2 this month)</title></circle>
    <rect x="529.3" y="125.2" width="140" height="20" rx="4" class="tooltip-bg"/>
    <text x="599.3" y="139.2" class="tooltip-text" text-anchor="middle">Feb 2025: 272 total (+2 this month)</text>
  </g>
  <g class="hoverpoint">
    <line x1="617.6" y1="30" x2="617.6" y2="160.0" class="guide"/>
    <circle cx="617.6" cy="150.4" r="16" class="hit"/>
    <circle cx="617.6" cy="150.4" r="4" class="hover-dot"><title>Mar 2025: 294 total (+22 this month)</title></circle>
    <rect x="547.6" y="124.4" width="140" height="20" rx="4" class="tooltip-bg"/>
    <text x="617.6" y="138.4" class="tooltip-text" text-anchor="middle">Mar 2025: 294 total (+22 this month)</text>
  </g>
  <g class="hoverpoint">
    <line x1="629.9" y1="30" x2="629.9" y2="160.0" class="guide"/>
    <circle cx="629.9" cy="148.6" r="16" class="hit"/>
    <circle cx="629.9" cy="148.6" r="4" class="hover-dot"><title>Apr 2025: 351 total (+57 this month)</title></circle>
    <rect x="559.9" y="122.6" width="140" height="20" rx="4" class="tooltip-bg"/>
    <text x="629.9" y="136.6" class="tooltip-text" text-anchor="middle">Apr 2025: 351 total (+57 this month)</text>
  </g>
  <g class="hoverpoint">
    <line x1="636.8" y1="30" x2="636.8" y2="160.0" class="guide"/>
    <circle cx="636.8" cy="146.7" r="16" class="hit"/>
    <circle cx="636.8" cy="146.7" r="4" class="hover-dot"><title>May 2025: 408 total (+57 this month)</title></circle>
    <rect x="566.8" y="120.7" width="140" height="20" rx="4" class="tooltip-bg"/>
    <text x="636.8" y="134.7" class="tooltip-text" text-anchor="middle">May 2025: 408 total (+57 this month)</text>
  </g>
  <g class="hoverpoint">
    <line x1="650.5" y1="30" x2="650.5" y2="160.0" class="guide"/>
    <circle cx="650.5" cy="146.2" r="16" class="hit"/>
    <circle cx="650.5" cy="146.2" r="4" class="hover-dot"><title>Jun 2025: 424 total (+16 this month)</title></circle>
    <rect x="580.5" y="120.2" width="140" height="20" rx="4" class="tooltip-bg"/>
    <text x="650.5" y="134.2" class="tooltip-text" text-anchor="middle">Jun 2025: 424 total (+16 this month)</text>
  </g>
  <g class="hoverpoint">
    <line x1="663.1" y1="30" x2="663.1" y2="160.0" class="guide"/>
    <circle cx="663.1" cy="146.0" r="16" class="hit"/>
    <circle cx="663.1" cy="146.0" r="4" class="hover-dot"><title>Jul 2025: 432 total (+8 this month)</title></circle>
    <rect x="593.1" y="120.0" width="140" height="20" rx="4" class="tooltip-bg"/>
    <text x="663.1" y="134.0" class="tooltip-text" text-anchor="middle">Jul 2025: 432 total (+8 this month)</text>
  </g>
  <g class="hoverpoint">
    <line x1="673.2" y1="30" x2="673.2" y2="160.0" class="guide"/>
    <circle cx="673.2" cy="144.6" r="16" class="hit"/>
    <circle cx="673.2" cy="144.6" r="4" class="hover-dot"><title>Aug 2025: 475 total (+43 this month)</title></circle>
    <rect x="603.2" y="118.6" width="140" height="20" rx="4" class="tooltip-bg"/>
    <text x="673.2" y="132.6" class="tooltip-text" text-anchor="middle">Aug 2025: 475 total (+43 this month)</text>
  </g>
  <g class="hoverpoint">
    <line x1="685.1" y1="30" x2="685.1" y2="160.0" class="guide"/>
    <circle cx="685.1" cy="142.9" r="16" class="hit"/>
    <circle cx="685.1" cy="142.9" r="4" class="hover-dot"><title>Sep 2025: 526 total (+51 this month)</title></circle>
    <rect x="615.1" y="116.9" width="140" height="20" rx="4" class="tooltip-bg"/>
    <text x="685.1" y="130.9" class="tooltip-text" text-anchor="middle">Sep 2025: 526 total (+51 this month)</text>
  </g>
  <g class="hoverpoint">
    <line x1="696.3" y1="30" x2="696.3" y2="160.0" class="guide"/>
    <circle cx="696.3" cy="137.5" r="16" class="hit"/>
    <circle cx="696.3" cy="137.5" r="4" class="hover-dot"><title>Oct 2025: 692 total (+166 this month)</title></circle>
    <rect x="626.3" y="111.5" width="140" height="20" rx="4" class="tooltip-bg"/>
    <text x="696.3" y="125.5" class="tooltip-text" text-anchor="middle">Oct 2025: 692 total (+166 this month)</text>
  </g>
  <g class="hoverpoint">
    <line x1="707.1" y1="30" x2="707.1" y2="160.0" class="guide"/>
    <circle cx="707.1" cy="136.2" r="16" class="hit"/>
    <circle cx="707.1" cy="136.2" r="4" class="hover-dot"><title>Nov 2025: 731 total (+39 this month)</title></circle>
    <rect x="637.1" y="110.2" width="140" height="20" rx="4" class="tooltip-bg"/>
    <text x="707.1" y="124.2" class="tooltip-text" text-anchor="middle">Nov 2025: 731 total (+39 this month)</text>
  </g>
  <g class="hoverpoint">
    <line x1="718.3" y1="30" x2="718.3" y2="160.0" class="guide"/>
    <circle cx="718.3" cy="134.6" r="16" class="hit"/>
    <circle cx="718.3" cy="134.6" r="4" class="hover-dot"><title>Dec 2025: 783 total (+52 this month)</title></circle>
    <rect x="648.3" y="108.6" width="140" height="20" rx="4" class="tooltip-bg"/>
    <text x="718.3" y="122.6" class="tooltip-text" text-anchor="middle">Dec 2025: 783 total (+52 this month)</text>
  </g>
  <g class="hoverpoint">
    <line x1="729.5" y1="30" x2="729.5" y2="160.0" class="guide"/>
    <circle cx="729.5" cy="126.8" r="16" class="hit"/>
    <circle cx="729.5" cy="126.8" r="4" class="hover-dot"><title>Jan 2026: 1,022 total (+239 this month)</title></circle>
    <rect x="659.5" y="100.8" width="140" height="20" rx="4" class="tooltip-bg"/>
    <text x="729.5" y="114.8" class="tooltip-text" text-anchor="middle">Jan 2026: 1,022 total (+239 this month)</text>
  </g>
  <g class="hoverpoint">
    <line x1="739.6" y1="30" x2="739.6" y2="160.0" class="guide"/>
    <circle cx="739.6" cy="117.1" r="16" class="hit"/>
    <circle cx="739.6" cy="117.1" r="4" class="hover-dot"><title>Feb 2026: 1,321 total (+299 this month)</title></circle>
    <rect x="669.6" y="91.1" width="140" height="20" rx="4" class="tooltip-bg"/>
    <text x="739.6" y="105.1" class="tooltip-text" text-anchor="middle">Feb 2026: 1,321 total (+299 this month)</text>
  </g>
  <g class="hoverpoint">
    <line x1="750.7" y1="30" x2="750.7" y2="160.0" class="guide"/>
    <circle cx="750.7" cy="107.4" r="16" class="hit"/>
    <circle cx="750.7" cy="107.4" r="4" class="hover-dot"><title>Mar 2026: 1,617 total (+296 this month)</title></circle>
    <rect x="680.7" y="81.4" width="140" height="20" rx="4" class="tooltip-bg"/>
    <text x="750.7" y="95.4" class="tooltip-text" text-anchor="middle">Mar 2026: 1,617 total (+296 this month)</text>
  </g>
  <g class="hoverpoint">
    <line x1="761.2" y1="30" x2="761.2" y2="160.0" class="guide"/>
    <circle cx="761.2" cy="103.2" r="16" class="hit"/>
    <circle cx="761.2" cy="103.2" r="4" class="hover-dot"><title>Apr 2026: 1,749 total (+132 this month)</title></circle>
    <rect x="691.2" y="77.2" width="140" height="20" rx="4" class="tooltip-bg"/>
    <text x="761.2" y="91.2" class="tooltip-text" text-anchor="middle">Apr 2026: 1,749 total (+132 this month)</text>
  </g>
  <g class="hoverpoint">
    <line x1="772.7" y1="30" x2="772.7" y2="160.0" class="guide"/>
    <circle cx="772.7" cy="69.2" r="16" class="hit"/>
    <circle cx="772.7" cy="69.2" r="4" class="hover-dot"><title>May 2026: 2,795 total (+1,046 this month)</title></circle>
    <rect x="702.7" y="43.2" width="140" height="20" rx="4" class="tooltip-bg"/>
    <text x="772.7" y="57.2" class="tooltip-text" text-anchor="middle">May 2026: 2,795 total (+1,046 this month)</text>
  </g>
  <g class="hoverpoint">
    <line x1="783.6" y1="30" x2="783.6" y2="160.0" class="guide"/>
    <circle cx="783.6" cy="50.3" r="16" class="hit"/>
    <circle cx="783.6" cy="50.3" r="4" class="hover-dot"><title>Jun 2026: 3,374 total (+579 this month)</title></circle>
    <rect x="713.6" y="24.3" width="140" height="20" rx="4" class="tooltip-bg"/>
    <text x="783.6" y="38.3" class="tooltip-text" text-anchor="middle">Jun 2026: 3,374 total (+579 this month)</text>
  </g>
  <g class="hoverpoint">
    <line x1="792.2" y1="30" x2="792.2" y2="160.0" class="guide"/>
    <circle cx="792.2" cy="40.5" r="16" class="hit"/>
    <circle cx="792.2" cy="40.5" r="4" class="hover-dot"><title>Jul 2026: 3,678 total (+304 this month)</title></circle>
    <rect x="722.2" y="14.5" width="140" height="20" rx="4" class="tooltip-bg"/>
    <text x="792.2" y="28.5" class="tooltip-text" text-anchor="middle">Jul 2026: 3,678 total (+304 this month)</text>
  </g>
  <g class="hoverpoint">
    <line x1="805.9" y1="30" x2="805.9" y2="160.0" class="guide"/>
    <circle cx="805.9" cy="35.7" r="16" class="hit"/>
    <circle cx="805.9" cy="35.7" r="4" class="hover-dot"><title>Aug 2026: 3,826 total (+148 this month)</title></circle>
    <rect x="735.9" y="9.7" width="140" height="20" rx="4" class="tooltip-bg"/>
    <text x="805.9" y="23.7" class="tooltip-text" text-anchor="middle">Aug 2026: 3,826 total (+148 this month)</text>
  </g>
  <g class="hoverpoint">
    <line x1="816.8" y1="30" x2="816.8" y2="160.0" class="guide"/>
    <circle cx="816.8" cy="34.6" r="16" class="hit"/>
    <circle cx="816.8" cy="34.6" r="4" class="hover-dot"><title>Sep 2026: 3,859 total (+33 this month)</title></circle>
    <rect x="746.8" y="8.6" width="140" height="20" rx="4" class="tooltip-bg"/>
    <text x="816.8" y="22.6" class="tooltip-text" text-anchor="middle">Sep 2026: 3,859 total (+33 this month)</text>
  </g>
  <g class="hoverpoint">
    <line x1="820.0" y1="30" x2="820.0" y2="160.0" class="guide"/>
    <circle cx="820.0" cy="32.2" r="16" class="hit"/>
    <circle cx="820.0" cy="32.2" r="4" class="hover-dot"><title>Oct 2026: 3,931 total (+72 this month)</title></circle>
    <rect x="750.0" y="6.2" width="140" height="20" rx="4" class="tooltip-bg"/>
    <text x="820.0" y="20.2" class="tooltip-text" text-anchor="middle">Oct 2026: 3,931 total (+72 this month)</text>
  </g>

  <circle cx="820.0" cy="32.2" r="4" class="dot"/>
  <text x="810.0" y="22.2" class="total">3,931</text>

</svg>