<svg xmlns="http://www.w3.org/2000/svg" width="840" height="196" viewBox="0 0 840 196" fill="none">
  <style>
    .label { font-family: -apple-system, BlinkMacSystemFont, 'Segoe UI', Helvetica, Arial, sans-serif; font-size: 10px; fill: #8b949e; }
    .title { font-family: -apple-system, BlinkMacSystemFont, 'Segoe UI', Helvetica, Arial, sans-serif; font-size: 11px; fill: #8b949e; font-weight: 600; }
    .total { font-family: -apple-system, BlinkMacSystemFont, 'Segoe UI', Helvetica, Arial, sans-serif; font-size: 11px; fill: #7ee787; font-weight: 600; }
    .grid { stroke: #21262d; stroke-width: 1; }
    .line { stroke: #7ee787; stroke-width: 2; stroke-linecap: round; stroke-linejoin: round; fill: none; }
    .dot { fill: #7ee787; }
    .area { fill: url(#areaGrad); }
    /* Hover interaction */
    .hoverpoint .guide { stroke: #7ee787; stroke-width: 1; stroke-dasharray: 2,2; opacity: 0; }
    .hoverpoint .hover-dot { fill: #7ee787; opacity: 0; }
    .hoverpoint .hit { fill: transparent; cursor: pointer; }
    .hoverpoint .tooltip-bg { fill: #161b22; stroke: #30363d; stroke-width: 1; opacity: 0; }
    .hoverpoint .tooltip-text { font-family: -apple-system, BlinkMacSystemFont, 'Segoe UI', Helvetica, Arial, sans-serif; font-size: 9px; fill: #c9d1d9; opacity: 0; }
    .hoverpoint:hover .guide { opacity: 0.5; }
    .hoverpoint:hover .hover-dot { opacity: 1; }
    .hoverpoint:hover .tooltip-bg { opacity: 0.95; }
    .hoverpoint:hover .tooltip-text { opacity: 1; }
  </style>
  <defs>
    <linearGradient id="areaGrad" x1="0" y1="0" x2="0" y2="1">
      <stop offset="0%" stop-color="#7ee787" stop-opacity="0.15"/>
      <stop offset="100%" stop-color="#7ee787" stop-opacity="0.01"/>
    </linearGradient>
  </defs>

  <text x="60" y="18" class="title">Cumulative Commits</text>

  <line x1="60" y1="160.0" x2="820" y2="160.0" class="grid"/>
  <text x="50" y="163.0" class="label" text-anchor="end">0</text>
  <line x1="60" y1="127.5" x2="820" y2="127.5" class="grid" stroke-dasharray="3,3"/>
  <text x="50" y="130.5" class="label" text-anchor="end">1,000</text>
  <line x1="60" y1="95.0" x2="820" y2="95.0" class="grid" stroke-dasharray="3,3"/>
  <text x="50" y="98.0" class="label" text-anchor="end">2,000</text>
  <line x1="60" y1="62.5" x2="820" y2="62.5" class="grid" stroke-dasharray="3,3"/>
  <text x="50" y="65.5" class="label" text-anchor="end">3,000</text>
  <line x1="60" y1="30.0" x2="820" y2="30.0" class="grid" stroke-dasharray="3,3"/>
  <text x="50" y="33.0" class="label" text-anchor="end">4,000</text>

  <text x="70.0" y="186" class="label" text-anchor="middle">2021</text>
  <text x="199.0" y="186" class="label" text-anchor="middle">2022</text>
  <text x="338.1" y="186" class="label" text-anchor="middle">2023</text>
  <text x="477.1" y="186" class="label" text-anchor="middle">2024</text>
  <text x="616.6" y="186" class="label" text-anchor="middle">2025</text>
  <text x="755.6" y="186" class="label" text-anchor="middle">2026</text>


  <path class="area" d="M60.0,160.0 L60.0,160.0 60.0,160.0 L179.2,159.8 L179.6,159.8 L180.8,159.8 L199.0,159.7 L199.4,159.5 L199.8,159.4 L200.2,159.3 L200.6,159.3 L201.0,159.2 L201.7,159.1 L202.1,159.0 L202.5,158.9 L202.9,158.9 L204.4,158.8 L204.8,158.7 L205.1,158.7 L209.0,158.7 L218.9,158.6 L271.0,158.5 L271.4,158.2 L273.0,158.2 L273.7,158.0 L279.4,157.9 L280.2,157.8 L280.6,157.7 L281.0,157.7 L281.7,157.6 L282.1,157.3 L282.5,157.0 L282.9,156.9 L284.4,156.8 L285.1,156.8 L287.0,156.7 L292.4,156.6 L302.7,156.5 L308.4,156.5 L311.0,156.4 L311.4,156.4 L311.8,156.3 L312.2,156.1 L313.3,155.9 L313.7,155.9 L314.1,155.8 L315.6,155.7 L316.0,155.5 L316.4,155.5 L316.8,155.2 L317.1,154.9 L317.5,154.8 L317.9,154.8 L318.7,154.7 L320.2,154.6 L324.4,154.5 L335.4,154.5 L335.8,154.3 L336.2,154.3 L340.0,154.0 L340.4,153.3 L341.5,153.2 L341.9,153.1 L343.8,153.0 L356.8,152.9 L357.1,152.8 L357.5,152.8 L358.3,152.7 L361.0,152.6 L361.7,152.4 L362.1,152.4 L364.0,152.3 L373.1,152.2 L560.6,152.1 L561.3,152.1 L562.1,152.1 L562.9,152.0 L563.2,151.9 L563.6,151.9 L564.0,151.9 L564.4,151.8 L568.2,151.8 L578.9,151.8 L581.9,151.7 L583.0,151.7 L585.3,151.7 L587.6,151.6 L588.0,151.6 L589.5,151.6 L590.7,151.6 L591.4,151.5 L619.6,151.5 L620.0,151.4 L620.8,151.4 L621.1,151.4 L622.3,151.3 L624.2,151.2 L629.5,151.2 L640.6,150.9 L641.0,150.7 L645.9,150.7 L646.3,150.6 L647.4,150.5 L649.0,150.4 L650.9,150.1 L651.2,149.2 L651.6,149.1 L653.9,149.1 L655.0,149.0 L655.4,149.0 L656.2,148.9 L659.2,148.9 L661.9,148.6 L663.8,148.4 L664.2,148.3 L665.3,148.1 L665.7,147.7 L666.1,147.6 L666.5,147.5 L666.9,147.4 L667.2,147.2 L668.0,146.9 L669.1,146.7 L682.9,146.6 L683.6,146.2 L692.0,146.1 L697.0,146.0 L699.2,145.9 L699.6,145.9 L701.9,145.9 L702.3,145.8 L702.7,145.8 L703.0,145.7 L703.4,145.6 L703.8,145.2 L704.2,145.2 L706.5,144.7 L706.9,144.6 L707.6,144.6 L710.3,144.4 L711.0,144.4 L711.4,144.3 L712.2,144.2 L712.6,144.0 L713.0,143.9 L713.7,143.9 L714.1,143.8 L714.5,143.8 L714.9,143.8 L716.4,143.6 L716.8,143.5 L717.1,143.4 L717.5,143.4 L717.9,143.3 L718.3,143.2 L719.4,143.1 L719.8,143.0 L720.2,142.9 L720.6,142.8 L721.0,142.6 L721.7,142.5 L722.1,142.2 L722.5,142.0 L722.9,141.4 L723.2,141.2 L723.6,141.1 L724.0,140.8 L724.4,140.7 L724.8,140.6 L725.1,140.6 L725.5,140.3 L727.4,140.0 L727.8,139.9 L728.2,139.6 L728.6,139.0 L729.0,139.0 L729.7,138.9 L730.1,138.5 L730.5,138.2 L730.9,138.2 L731.2,137.6 L732.0,137.5 L732.4,137.4 L732.8,137.4 L733.1,137.3 L733.5,137.3 L733.9,137.3 L735.4,137.2 L736.2,137.2 L736.6,136.9 L737.0,136.8 L738.1,136.7 L740.0,136.7 L742.3,136.5 L742.7,136.5 L743.0,136.4 L743.4,136.2 L743.8,135.8 L744.2,135.8 L744.6,135.7 L745.0,135.7 L745.3,135.6 L745.7,135.3 L749.9,135.2 L750.3,135.2 L753.7,135.0 L754.5,134.7 L754.9,134.7 L755.2,134.6 L755.6,134.5 L756.8,134.4 L757.1,133.9 L757.5,132.8 L757.9,131.7 L758.3,131.7 L758.7,131.6 L759.4,131.4 L759.8,131.3 L760.2,131.0 L761.0,131.0 L761.3,130.7 L761.7,130.7 L762.5,130.2 L762.9,130.2 L763.2,129.9 L763.6,129.7 L764.0,129.5 L764.4,129.5 L765.5,129.2 L765.9,129.1 L766.3,128.3 L766.7,127.2 L767.0,126.8 L767.4,126.3 L767.8,126.2 L768.2,126.1 L768.6,125.9 L769.0,125.7 L769.3,125.3 L769.7,125.3 L770.1,125.0 L770.5,125.0 L770.9,124.7 L771.2,124.5 L771.6,124.2 L772.0,123.9 L772.4,123.8 L772.8,123.7 L773.1,123.2 L773.5,122.2 L773.9,122.0 L774.7,121.8 L775.0,121.7 L775.4,121.7 L775.8,120.1 L776.2,119.4 L776.6,118.7 L777.0,118.4 L777.3,117.2 L777.7,117.1 L778.1,117.0 L778.5,116.7 L778.9,116.2 L779.2,115.2 L779.6,114.1 L780.0,114.0 L780.4,113.8 L781.1,113.8 L781.5,113.1 L781.9,112.6 L782.3,111.9 L782.7,111.8 L783.0,111.8 L783.4,110.7 L783.8,109.5 L784.2,108.9 L784.6,108.7 L785.0,108.3 L785.3,108.0 L785.7,108.0 L786.5,107.8 L786.9,107.6 L787.2,107.6 L787.6,107.5 L788.0,107.5 L789.1,107.5 L789.5,107.4 L790.3,107.4 L791.0,107.3 L791.4,107.3 L792.2,106.9 L792.6,106.6 L793.0,106.3 L795.2,106.2 L795.6,106.0 L796.0,105.9 L796.4,105.7 L796.8,105.6 L797.1,105.5 L797.5,105.5 L797.9,105.0 L798.3,104.5 L798.7,104.3 L799.0,103.4 L799.4,103.2 L800.2,103.2 L800.6,103.2 L801.7,102.9 L802.1,102.5 L802.5,102.2 L802.9,102.0 L803.2,101.3 L803.6,98.5 L804.0,97.3 L804.4,97.1 L804.8,96.9 L805.1,96.4 L805.5,96.3 L805.9,92.4 L806.3,87.6 L806.7,86.2 L807.0,86.2 L807.4,85.4 L807.8,84.9 L808.2,82.0 L808.6,80.2 L809.0,77.5 L809.3,77.0 L809.7,76.9 L810.1,76.8 L810.5,75.9 L810.9,74.6 L811.2,71.6 L811.6,71.1 L812.0,70.5 L812.4,69.7 L812.8,69.2 L813.1,68.7 L813.5,66.9 L813.9,66.5 L814.3,66.4 L814.7,66.1 L815.0,66.0 L815.4,65.7 L815.8,65.6 L816.2,64.7 L816.6,63.4 L817.0,62.9 L817.3,62.8 L817.7,62.4 L818.1,61.7 L819.6,61.5 L820.0,61.5 L820.0,160.0 Z"/>
  <polyline class="line" points="60.0,160.0 179.2,159.8 179.6,159.8 180.8,159.8 199.0,159.7 199.4,159.5 199.8,159.4 200.2,159.3 200.6,159.3 201.0,159.2 201.7,159.1 202.1,159.0 202.5,158.9 202.9,158.9 204.4,158.8 204.8,158.7 205.1,158.7 209.0,158.7 218.9,158.6 271.0,158.5 271.4,158.2 273.0,158.2 273.7,158.0 279.4,157.9 280.2,157.8 280.6,157.7 281.0,157.7 281.7,157.6 282.1,157.3 282.5,157.0 282.9,156.9 284.4,156.8 285.1,156.8 287.0,156.7 292.4,156.6 302.7,156.5 308.4,156.5 311.0,156.4 311.4,156.4 311.8,156.3 312.2,156.1 313.3,155.9 313.7,155.9 314.1,155.8 315.6,155.7 316.0,155.5 316.4,155.5 316.8,155.2 317.1,154.9 317.5,154.8 317.9,154.8 318.7,154.7 320.2,154.6 324.4,154.5 335.4,154.5 335.8,154.3 336.2,154.3 340.0,154.0 340.4,153.3 341.5,153.2 341.9,153.1 343.8,153.0 356.8,152.9 357.1,152.8 357.5,152.8 358.3,152.7 361.0,152.6 361.7,152.4 362.1,152.4 364.0,152.3 373.1,152.2 560.6,152.1 561.3,152.1 562.1,152.1 562.9,152.0 563.2,151.9 563.6,151.9 564.0,151.9 564.4,151.8 568.2,151.8 578.9,151.8 581.9,151.7 583.0,151.7 585.3,151.7 587.6,151.6 588.0,151.6 589.5,151.6 590.7,151.6 591.4,151.5 619.6,151.5 620.0,151.4 620.8,151.4 621.1,151.4 622.3,151.3 624.2,151.2 629.5,151.2 640.6,150.9 641.0,150.7 645.9,150.7 646.3,150.6 647.4,150.5 649.0,150.4 650.9,150.1 651.2,149.2 651.6,149.1 653.9,149.1 655.0,149.0 655.4,149.0 656.2,148.9 659.2,148.9 661.9,148.6 663.8,148.4 664.2,148.3 665.3,148.1 665.7,147.7 666.1,147.6 666.5,147.5 666.9,147.4 667.2,147.2 668.0,146.9 669.1,146.7 682.9,146.6 683.6,146.2 692.0,146.1 697.0,146.0 699.2,145.9 699.6,145.9 701.9,145.9 702.3,145.8 702.7,145.8 703.0,145.7 703.4,145.6 703.8,145.2 704.2,145.2 706.5,144.7 706.9,144.6 707.6,144.6 710.3,144.4 711.0,144.4 711.4,144.3 712.2,144.2 712.6,144.0 713.0,143.9 713.7,143.9 714.1,143.8 714.5,143.8 714.9,143.8 716.4,143.6 716.8,143.5 717.1,143.4 717.5,143.4 717.9,143.3 718.3,143.2 719.4,143.1 719.8,143.0 720.2,142.9 720.6,142.8 721.0,142.6 721.7,142.5 722.1,142.2 722.5,142.0 722.9,141.4 723.2,141.2 723.6,141.1 724.0,140.8 724.4,140.7 724.8,140.6 725.1,140.6 725.5,140.3 727.4,140.0 727.8,139.9 728.2,139.6 728.6,139.0 729.0,139.0 729.7,138.9 730.1,138.5 730.5,138.2 730.9,138.2 731.2,137.6 732.0,137.5 732.4,137.4 732.8,137.4 733.1,137.3 733.5,137.3 733.9,137.3 735.4,137.2 736.2,137.2 736.6,136.9 737.0,136.8 738.1,136.7 740.0,136.7 742.3,136.5 742.7,136.5 743.0,136.4 743.4,136.2 743.8,135.8 744.2,135.8 744.6,135.7 745.0,135.7 745.3,135.6 745.7,135.3 749.9,135.2 750.3,135.2 753.7,135.0 754.5,134.7 754.9,134.7 755.2,134.6 755.6,134.5 756.8,134.4 757.1,133.9 757.5,132.8 757.9,131.7 758.3,131.7 758.7,131.6 759.4,131.4 759.8,131.3 760.2,131.0 761.0,131.0 761.3,130.7 761.7,130.7 762.5,130.2 762.9,130.2 763.2,129.9 763.6,129.7 764.0,129.5 764.4,129.5 765.5,129.2 765.9,129.1 766.3,128.3 766.7,127.2 767.0,126.8 767.4,126.3 767.8,126.2 768.2,126.1 768.6,125.9 769.0,125.7 769.3,125.3 769.7,125.3 770.1,125.0 770.5,125.0 770.9,124.7 771.2,124.5 771.6,124.2 772.0,123.9 772.4,123.8 772.8,123.7 773.1,123.2 773.5,122.2 773.9,122.0 774.7,121.8 775.0,121.7 775.4,121.7 775.8,120.1 776.2,119.4 776.6,118.7 777.0,118.4 777.3,117.2 777.7,117.1 778.1,117.0 778.5,116.7 778.9,116.2 779.2,115.2 779.6,114.1 780.0,114.0 780.4,113.8 781.1,113.8 781.5,113.1 781.9,112.6 782.3,111.9 782.7,111.8 783.0,111.8 783.4,110.7 783.8,109.5 784.2,108.9 784.6,108.7 785.0,108.3 785.3,108.0 785.7,108.0 786.5,107.8 786.9,107.6 787.2,107.6 787.6,107.5 788.0,107.5 789.1,107.5 789.5,107.4 790.3,107.4 791.0,107.3 791.4,107.3 792.2,106.9 792.6,106.6 793.0,106.3 795.2,106.2 795.6,106.0 796.0,105.9 796.4,105.7 796.8,105.6 797.1,105.5 797.5,105.5 797.9,105.0 798.3,104.5 798.7,104.3 799.0,103.4 799.4,103.2 800.2,103.2 800.6,103.2 801.7,102.9 802.1,102.5 802.5,102.2 802.9,102.0 803.2,101.3 803.6,98.5 804.0,97.3 804.4,97.1 804.8,96.9 805.1,96.4 805.5,96.3 805.9,92.4 806.3,87.6 806.7,86.2 807.0,86.2 807.4,85.4 807.8,84.9 808.2,82.0 808.6,80.2 809.0,77.5 809.3,77.0 809.7,76.9 810.1,76.8 810.5,75.9 810.9,74.6 811.2,71.6 811.6,71.1 812.0,70.5 812.4,69.7 812.8,69.2 813.1,68.7 813.5,66.9 813.9,66.5 814.3,66.4 814.7,66.1 815.0,66.0 815.4,65.7 815.8,65.6 816.2,64.7 816.6,63.4 817.0,62.9 817.3,62.8 817.7,62.4 818.1,61.7 819.6,61.5 820.0,61.5"/>

  <g class="hoverpoint">
    <line x1="180.8" y1="30" x2="180.8" y2="160.0" class="guide"/>
    <circle cx="180.8" cy="159.8" r="16" class="hit"/>
    <circle cx="180.8" cy="159.8" r="4" class="hover-dot"><title>Nov 2021: 7 total (+7 this month)</title></circle>
    <rect x="110.8" y="133.8" width="140" height="20" rx="4" class="tooltip-bg"/>
    <text x="180.8" y="147.8" class="tooltip-text" text-anchor="middle">Nov 2021: 7 total (+7 this month)</text>
  </g>
  <g class="hoverpoint">
    <line x1="209.0" y1="30" x2="209.0" y2="160.0" class="guide"/>
    <circle cx="209.0" cy="158.7" r="16" class="hit"/>
    <circle cx="209.0" cy="158.7" r="4" class="hover-dot"><title>Jan 2022: 41 total (+34 this month)</title></circle>
    <rect x="139.0" y="132.7" width="140" height="20" rx="4" class="tooltip-bg"/>
    <text x="209.0" y="146.7" class="tooltip-text" text-anchor="middle">Jan 2022: 41 total (+34 this month)</text>
  </g>
  <g class="hoverpoint">
    <line x1="218.9" y1="30" x2="218.9" y2="160.0" class="guide"/>
    <circle cx="218.9" cy="158.6" r="16" class="hit"/>
    <circle cx="218.9" cy="158.6" r="4" class="hover-dot"><title>Feb 2022: 44 total (+3 this month)</title></circle>
    <rect x="148.9" y="132.6" width="140" height="20" rx="4" class="tooltip-bg"/>
    <text x="218.9" y="146.6" class="tooltip-text" text-anchor="middle">Feb 2022: 44 total (+3 this month)</text>
  </g>
  <g class="hoverpoint">
    <line x1="279.4" y1="30" x2="279.4" y2="160.0" class="guide"/>
    <circle cx="279.4" cy="157.9" r="16" class="hit"/>
    <circle cx="279.4" cy="157.9" r="4" class="hover-dot"><title>Jul 2022: 65 total (+21 this month)</title></circle>
    <rect x="209.4" y="131.9" width="140" height="20" rx="4" class="tooltip-bg"/>
    <text x="279.4" y="145.9" class="tooltip-text" text-anchor="middle">Jul 2022: 65 total (+21 this month)</text>
  </g>
  <g class="hoverpoint">
    <line x1="287.0" y1="30" x2="287.0" y2="160.0" class="guide"/>
    <circle cx="287.0" cy="156.7" r="16" class="hit"/>
    <circle cx="287.0" cy="156.7" r="4" class="hover-dot"><title>Aug 2022: 101 total (+36 this month)</title></circle>
    <rect x="217.0" y="130.7" width="140" height="20" rx="4" class="tooltip-bg"/>
    <text x="287.0" y="144.7" class="tooltip-text" text-anchor="middle">Aug 2022: 101 total (+36 this month)</text>
  </g>
  <g class="hoverpoint">
    <line x1="302.7" y1="30" x2="302.7" y2="160.0" class="guide"/>
    <circle cx="302.7" cy="156.5" r="16" class="hit"/>
    <circle cx="302.7" cy="156.5" r="4" class="hover-dot"><title>Sep 2022: 108 total (+7 this month)</title></circle>
    <rect x="232.7" y="130.5" width="140" height="20" rx="4" class="tooltip-bg"/>
    <text x="302.7" y="144.5" class="tooltip-text" text-anchor="middle">Sep 2022: 108 total (+7 this month)</text>
  </g>
  <g class="hoverpoint">
    <line x1="314.1" y1="30" x2="314.1" y2="160.0" class="guide"/>
    <circle cx="314.1" cy="155.8" r="16" class="hit"/>
    <circle cx="314.1" cy="155.8" r="4" class="hover-dot"><title>Oct 2022: 128 total (+20 this month)</title></circle>
    <rect x="244.1" y="129.8" width="140" height="20" rx="4" class="tooltip-bg"/>
    <text x="314.1" y="143.8" class="tooltip-text" text-anchor="middle">Oct 2022: 128 total (+20 this month)</text>
  </g>
  <g class="hoverpoint">
    <line x1="324.4" y1="30" x2="324.4" y2="160.0" class="guide"/>
    <circle cx="324.4" cy="154.5" r="16" class="hit"/>
    <circle cx="324.4" cy="154.5" r="4" class="hover-dot"><title>Nov 2022: 168 total (+40 this month)</title></circle>
    <rect x="254.4" y="128.5" width="140" height="20" rx="4" class="tooltip-bg"/>
    <text x="324.4" y="142.5" class="tooltip-text" text-anchor="middle">Nov 2022: 168 total (+40 this month)</text>
  </g>
  <g class="hoverpoint">
    <line x1="336.2" y1="30" x2="336.2" y2="160.0" class="guide"/>
    <circle cx="336.2" cy="154.3" r="16" class="hit"/>
    <circle cx="336.2" cy="154.3" r="4" class="hover-dot"><title>Dec 2022: 175 total (+7 this month)</title></circle>
    <rect x="266.2" y="128.3" width="140" height="20" rx="4" class="tooltip-bg"/>
    <text x="336.2" y="142.3" class="tooltip-text" text-anchor="middle">Dec 2022: 175 total (+7 this month)</text>
  </g>
  <g class="hoverpoint">
    <line x1="343.8" y1="30" x2="343.8" y2="160.0" class="guide"/>
    <circle cx="343.8" cy="153.0" r="16" class="hit"/>
    <circle cx="343.8" cy="153.0" r="4" class="hover-dot"><title>Jan 2023: 214 total (+39 this month)</title></circle>
    <rect x="273.8" y="127.0" width="140" height="20" rx="4" class="tooltip-bg"/>
    <text x="343.8" y="141.0" class="tooltip-text" text-anchor="middle">Jan 2023: 214 total (+39 this month)</text>
  </g>
  <g class="hoverpoint">
    <line x1="358.3" y1="30" x2="358.3" y2="160.0" class="guide"/>
    <circle cx="358.3" cy="152.7" r="16" class="hit"/>
    <circle cx="358.3" cy="152.7" r="4" class="hover-dot"><title>Feb 2023: 225 total (+11 this month)</title></circle>
    <rect x="288.3" y="126.7" width="140" height="20" rx="4" class="tooltip-bg"/>
    <text x="358.3" y="140.7" class="tooltip-text" text-anchor="middle">Feb 2023: 225 total (+11 this month)</text>
  </g>
  <g class="hoverpoint">
    <line x1="364.0" y1="30" x2="364.0" y2="160.0" class="guide"/>
    <circle cx="364.0" cy="152.3" r="16" class="hit"/>
    <circle cx="364.0" cy="152.3" r="4" class="hover-dot"><title>Mar 2023: 237 total (+12 this month)</title></circle>
    <rect x="294.0" y="126.3" width="140" height="20" rx="4" class="tooltip-bg"/>
    <text x="364.0" y="140.3" class="tooltip-text" text-anchor="middle">Mar 2023: 237 total (+12 this month)</text>
  </g>
  <g class="hoverpoint">
    <line x1="373.1" y1="30" x2="373.1" y2="160.0" class="guide"/>
    <circle cx="373.1" cy="152.2" r="16" class="hit"/>
    <circle cx="373.1" cy="152.2" r="4" class="hover-dot"><title>Apr 2023: 240 total (+3 this month)</title></circle>
    <rect x="303.1" y="126.2" width="140" height="20" rx="4" class="tooltip-bg"/>
    <text x="373.1" y="140.2" class="tooltip-text" text-anchor="middle">Apr 2023: 240 total (+3 this month)</text>
  </g>
  <g class="hoverpoint">
    <line x1="568.2" y1="30" x2="568.2" y2="160.0" class="guide"/>
    <circle cx="568.2" cy="151.8" r="16" class="hit"/>
    <circle cx="568.2" cy="151.8" r="4" class="hover-dot"><title>Aug 2024: 252 total (+12 this month)</title></circle>
    <rect x="498.2" y="125.8" width="140" height="20" rx="4" class="tooltip-bg"/>
    <text x="568.2" y="139.8" class="tooltip-text" text-anchor="middle">Aug 2024: 252 total (+12 this month)</text>
  </g>
  <g class="hoverpoint">
    <line x1="578.9" y1="30" x2="578.9" y2="160.0" class="guide"/>
    <circle cx="578.9" cy="151.8" r="16" class="hit"/>
    <circle cx="578.9" cy="151.8" r="4" class="hover-dot"><title>Sep 2024: 253 total (+1 this month)</title></circle>
    <rect x="508.9" y="125.8" width="140" height="20" rx="4" class="tooltip-bg"/>
    <text x="578.9" y="139.8" class="tooltip-text" text-anchor="middle">Sep 2024: 253 total (+1 this month)</text>
  </g>
  <g class="hoverpoint">
    <line x1="591.4" y1="30" x2="591.4" y2="160.0" class="guide"/>
    <circle cx="591.4" cy="151.5" r="16" class="hit"/>
    <circle cx="591.4" cy="151.5" r="4" class="hover-dot"><title>Oct 2024: 261 total (+8 this month)</title></circle>
    <rect x="521.4" y="125.5" width="140" height="20" rx="4" class="tooltip-bg"/>
    <text x="591.4" y="139.5" class="tooltip-text" text-anchor="middle">Oct 2024: 261 total (+8 this month)</text>
  </g>
  <g class="hoverpoint">
    <line x1="624.2" y1="30" x2="624.2" y2="160.0" class="guide"/>
    <circle cx="624.2" cy="151.2" r="16" class="hit"/>
    <circle cx="624.2" cy="151.2" r="4" class="hover-dot"><title>Jan 2025: 270 total (+9 this month)</title></circle>
    <rect x="554.2" y="125.2" width="140" height="20" rx="4" class="tooltip-bg"/>
    <text x="624.2" y="139.2" class="tooltip-text" text-anchor="middle">Jan 2025: 270 total (+9 this month)</text>
  </g>
  <g class="hoverpoint">
    <line x1="629.5" y1="30" x2="629.5" y2="160.0" class="guide"/>
    <circle cx="629.5" cy="151.2" r="16" class="hit"/>
    <circle cx="629.5" cy="151.2" r="4" class="hover-dot"><title>Feb 2025: 272 total (+2 this month)</title></circle>
    <rect x="559.5" y="125.2" width="140" height="20" rx="4" class="tooltip-bg"/>
    <text x="629.5" y="139.2" class="tooltip-text" text-anchor="middle">Feb 2025: 272 total (+2 this month)</text>
  </g>
  <g class="hoverpoint">
    <line x1="649.0" y1="30" x2="649.0" y2="160.0" class="guide"/>
    <circle cx="649.0" cy="150.4" r="16" class="hit"/>
    <circle cx="649.0" cy="150.4" r="4" class="hover-dot"><title>Mar 2025: 294 total (+22 this month)</title></circle>
    <rect x="579.0" y="124.4" width="140" height="20" rx="4" class="tooltip-bg"/>
    <text x="649.0" y="138.4" class="tooltip-text" text-anchor="middle">Mar 2025: 294 total (+22 this month)</text>
  </g>
  <g class="hoverpoint">
    <line x1="661.9" y1="30" x2="661.9" y2="160.0" class="guide"/>
    <circle cx="661.9" cy="148.6" r="16" class="hit"/>
    <circle cx="661.9" cy="148.6" r="4" class="hover-dot"><title>Apr 2025: 351 total (+57 this month)</title></circle>
    <rect x="591.9" y="122.6" width="140" height="20" rx="4" class="tooltip-bg"/>
    <text x="661.9" y="136.6" class="tooltip-text" text-anchor="middle">Apr 2025: 351 total (+57 this month)</text>
  </g>
  <g class="hoverpoint">
    <line x1="669.1" y1="30" x2="669.1" y2="160.0" class="guide"/>
    <circle cx="669.1" cy="146.7" r="16" class="hit"/>
    <circle cx="669.1" cy="146.7" r="4" class="hover-dot"><title>May 2025: 408 total (+57 this month)</title></circle>
    <rect x="599.1" y="120.7" width="140" height="20" rx="4" class="tooltip-bg"/>
    <text x="669.1" y="134.7" class="tooltip-text" text-anchor="middle">May 2025: 408 total (+57 this month)</text>
  </g>
  <g class="hoverpoint">
    <line x1="683.6" y1="30" x2="683.6" y2="160.0" class="guide"/>
    <circle cx="683.6" cy="146.2" r="16" class="hit"/>
    <circle cx="683.6" cy="146.2" r="4" class="hover-dot"><title>Jun 2025: 424 total (+16 this month)</title></circle>
    <rect x="613.6" y="120.2" width="140" height="20" rx="4" class="tooltip-bg"/>
    <text x="683.6" y="134.2" class="tooltip-text" text-anchor="middle">Jun 2025: 424 total (+16 this month)</text>
  </g>
  <g class="hoverpoint">
    <line x1="697.0" y1="30" x2="697.0" y2="160.0" class="guide"/>
    <circle cx="697.0" cy="146.0" r="16" class="hit"/>
    <circle cx="697.0" cy="146.0" r="4" class="hover-dot"><title>Jul 2025: 432 total (+8 this month)</title></circle>
    <rect x="627.0" y="120.0" width="140" height="20" rx="4" class="tooltip-bg"/>
    <text x="697.0" y="134.0" class="tooltip-text" text-anchor="middle">Jul 2025: 432 total (+8 this month)</text>
  </g>
  <g class="hoverpoint">
    <line x1="707.6" y1="30" x2="707.6" y2="160.0" class="guide"/>
    <circle cx="707.6" cy="144.6" r="16" class="hit"/>
    <circle cx="707.6" cy="144.6" r="4" class="hover-dot"><title>Aug 2025: 475 total (+43 this month)</title></circle>
    <rect x="637.6" y="118.6" width="140" height="20" rx="4" class="tooltip-bg"/>
    <text x="707.6" y="132.6" class="tooltip-text" text-anchor="middle">Aug 2025: 475 total (+43 this month)</text>
  </g>
  <g class="hoverpoint">
    <line x1="720.2" y1="30" x2="720.2" y2="160.0" class="guide"/>
    <circle cx="720.2" cy="142.9" r="16" class="hit"/>
    <circle cx="720.2" cy="142.9" r="4" class="hover-dot"><title>Sep 2025: 526 total (+51 this month)</title></circle>
    <rect x="650.2" y="116.9" width="140" height="20" rx="4" class="tooltip-bg"/>
    <text x="720.2" y="130.9" class="tooltip-text" text-anchor="middle">Sep 2025: 526 total (+51 this month)</text>
  </g>
  <g class="hoverpoint">
    <line x1="732.0" y1="30" x2="732.0" y2="160.0" class="guide"/>
    <circle cx="732.0" cy="137.5" r="16" class="hit"/>
    <circle cx="732.0" cy="137.5" r="4" class="hover-dot"><title>Oct 2025: 692 total (+166 this month)</title></circle>
    <rect x="662.0" y="111.5" width="140" height="20" rx="4" class="tooltip-bg"/>
    <text x="732.0" y="125.5" class="tooltip-text" text-anchor="middle">Oct 2025: 692 total (+166 this month)</text>
  </g>
  <g class="hoverpoint">
    <line x1="743.4" y1="30" x2="743.4" y2="160.0" class="guide"/>
    <circle cx="743.4" cy="136.2" r="16" class="hit"/>
    <circle cx="743.4" cy="136.2" r="4" class="hover-dot"><title>Nov 2025: 731 total (+39 this month)</title></circle>
    <rect x="673.4" y="110.2" width="140" height="20" rx="4" class="tooltip-bg"/>
    <text x="743.4" y="124.2" class="tooltip-text" text-anchor="middle">Nov 2025: 731 total (+39 this month)</text>
  </g>
  <g class="hoverpoint">
    <line x1="755.2" y1="30" x2="755.2" y2="160.0" class="guide"/>
    <circle cx="755.2" cy="134.6" r="16" class="hit"/>
    <circle cx="755.2" cy="134.6" r="4" class="hover-dot"><title>Dec 2025: 783 total (+52 this month)</title></circle>
    <rect x="685.2" y="108.6" width="140" height="20" rx="4" class="tooltip-bg"/>
    <text x="755.2" y="122.6" class="tooltip-text" text-anchor="middle">Dec 2025: 783 total (+52 this month)</text>
  </g>
  <g class="hoverpoint">
    <line x1="767.0" y1="30" x2="767.0" y2="160.0" class="guide"/>
    <circle cx="767.0" cy="126.8" r="16" class="hit"/>
    <circle cx="767.0" cy="126.8" r="4" class="hover-dot"><title>Jan 2026: 1,022 total (+239 this month)</title></circle>
    <rect x="697.0" y="100.8" width="140" height="20" rx="4" class="tooltip-bg"/>
    <text x="767.0" y="114.8" class="tooltip-text" text-anchor="middle">Jan 2026: 1,022 total (+239 this month)</text>
  </g>
  <g class="hoverpoint">
    <line x1="777.7" y1="30" x2="777.7" y2="160.0" class="guide"/>
    <circle cx="777.7" cy="117.1" r="16" class="hit"/>
    <circle cx="777.7" cy="117.1" r="4" class="hover-dot"><title>Feb 2026: 1,321 total (+299 this month)</title></circle>
    <rect x="707.7" y="91.1" width="140" height="20" rx="4" class="tooltip-bg"/>
    <text x="777.7" y="105.1" class="tooltip-text" text-anchor="middle">Feb 2026: 1,321 total (+299 this month)</text>
  </g>
  <g class="hoverpoint">
    <line x1="789.5" y1="30" x2="789.5" y2="160.0" class="guide"/>
    <circle cx="789.5" cy="107.4" r="16" class="hit"/>
    <circle cx="789.5" cy="107.4" r="4" class="hover-dot"><title>Mar 2026: 1,617 total (+296 this month)</title></circle>
    <rect x="719.5" y="81.4" width="140" height="20" rx="4" class="tooltip-bg"/>
    <text x="789.5" y="95.4" class="tooltip-text" text-anchor="middle">Mar 2026: 1,617 total (+296 this month)</text>
  </g>
  <g class="hoverpoint">
    <line x1="800.6" y1="30" x2="800.6" y2="160.0" class="guide"/>
    <circle cx="800.6" cy="103.2" r="16" class="hit"/>
    <circle cx="800.6" cy="103.2" r="4" class="hover-dot"><title>Apr 2026: 1,749 total (+132 this month)</title></circle>
    <rect x="730.6" y="77.2" width="140" height="20" rx="4" class="tooltip-bg"/>
    <text x="800.6" y="91.2" class="tooltip-text" text-anchor="middle">Apr 2026: 1,749 total (+132 this month)</text>
  </g>
  <g class="hoverpoint">
    <line x1="812.8" y1="30" x2="812.8" y2="160.0" class="guide"/>
    <circle cx="812.8" cy="69.2" r="16" class="hit"/>
    <circle cx="812.8" cy="69.2" r="4" class="hover-dot"><title>May 2026: 2,795 total (+1,046 this month)</title></circle>
    <rect x="742.8" y="43.2" width="140" height="20" rx="4" class="tooltip-bg"/>
    <text x="812.8" y="57.2" class="tooltip-text" text-anchor="middle">May 2026: 2,795 total (+1,046 this month)</text>
  </g>
  <g class="hoverpoint">
    <line x1="820.0" y1="30" x2="820.0" y2="160.0" class="guide"/>
    <circle cx="820.0" cy="61.5" r="16" class="hit"/>
    <circle cx="820.0" cy="61.5" r="4" class="hover-dot"><title>Jun 2026: 3,032 total (+237 this month)</title></circle>
    <rect x="750.0" y="35.5" width="140" height="20" rx="4" class="tooltip-bg"/>
    <text x="820.0" y="49.5" class="tooltip-text" text-anchor="middle">Jun 2026: 3,032 total (+237 this month)</text>
  </g>

  <circle cx="820.0" cy="61.5" r="4" class="dot"/>
  <text x="810.0" y="51.5" class="total">3,032</text>

</svg>