<svg xmlns="http://www.w3.org/2000/svg" width="840" height="196" viewBox="0 0 840 196" fill="none">
  <style>
    .label { font-family: -apple-system, BlinkMacSystemFont, 'Segoe UI', Helvetica, Arial, sans-serif; font-size: 10px; fill: #8b949e; }
    .title { font-family: -apple-system, BlinkMacSystemFont, 'Segoe UI', Helvetica, Arial, sans-serif; font-size: 11px; fill: #8b949e; font-weight: 600; }
    .total { font-family: -apple-system, BlinkMacSystemFont, 'Segoe UI', Helvetica, Arial, sans-serif; font-size: 11px; fill: #7ee787; font-weight: 600; }
    .grid { stroke: #21262d; stroke-width: 1; }
    .line { stroke: #7ee787; stroke-width: 2; stroke-linecap: round; stroke-linejoin: round; fill: none; }
    .dot { fill: #7ee787; }
    .area { fill: url(#areaGrad); }
    /* Hover interaction */
    .hoverpoint .guide { stroke: #7ee787; stroke-width: 1; stroke-dasharray: 2,2; opacity: 0; }
    .hoverpoint .hover-dot { fill: #7ee787; opacity: 0; }
    .hoverpoint .hit { fill: transparent; cursor: pointer; }
    .hoverpoint .tooltip-bg { fill: #161b22; stroke: #30363d; stroke-width: 1; opacity: 0; }
    .hoverpoint .tooltip-text { font-family: -apple-system, BlinkMacSystemFont, 'Segoe UI', Helvetica, Arial, sans-serif; font-size: 9px; fill: #c9d1d9; opacity: 0; }
    .hoverpoint:hover .guide { opacity: 0.5; }
    .hoverpoint:hover .hover-dot { opacity: 1; }
    .hoverpoint:hover .tooltip-bg { opacity: 0.95; }
    .hoverpoint:hover .tooltip-text { opacity: 1; }
  </style>
  <defs>
    <linearGradient id="areaGrad" x1="0" y1="0" x2="0" y2="1">
      <stop offset="0%" stop-color="#7ee787" stop-opacity="0.15"/>
      <stop offset="100%" stop-color="#7ee787" stop-opacity="0.01"/>
    </linearGradient>
  </defs>

  <text x="60" y="18" class="title">Cumulative Commits</text>

  <line x1="60" y1="160.0" x2="820" y2="160.0" class="grid"/>
  <text x="50" y="163.0" class="label" text-anchor="end">0</text>
  <line x1="60" y1="127.5" x2="820" y2="127.5" class="grid" stroke-dasharray="3,3"/>
  <text x="50" y="130.5" class="label" text-anchor="end">1,000</text>
  <line x1="60" y1="95.0" x2="820" y2="95.0" class="grid" stroke-dasharray="3,3"/>
  <text x="50" y="98.0" class="label" text-anchor="end">2,000</text>
  <line x1="60" y1="62.5" x2="820" y2="62.5" class="grid" stroke-dasharray="3,3"/>
  <text x="50" y="65.5" class="label" text-anchor="end">3,000</text>
  <line x1="60" y1="30.0" x2="820" y2="30.0" class="grid" stroke-dasharray="3,3"/>
  <text x="50" y="33.0" class="label" text-anchor="end">4,000</text>

  <text x="70.0" y="186" class="label" text-anchor="middle">2021</text>
  <text x="198.9" y="186" class="label" text-anchor="middle">2022</text>
  <text x="337.8" y="186" class="label" text-anchor="middle">2023</text>
  <text x="476.7" y="186" class="label" text-anchor="middle">2024</text>
  <text x="616.0" y="186" class="label" text-anchor="middle">2025</text>
  <text x="754.9" y="186" class="label" text-anchor="middle">2026</text>


  <path class="area" d="M60.0,160.0 L60.0,160.0 60.0,160.0 L179.1,159.8 L179.5,159.8 L180.6,159.8 L198.9,159.7 L199.3,159.5 L199.7,159.4 L200.1,159.3 L200.4,159.3 L200.8,159.2 L201.6,159.1 L202.0,159.0 L202.3,158.9 L202.7,158.9 L204.2,158.8 L204.6,158.7 L205.0,158.7 L208.8,158.7 L218.7,158.6 L270.8,158.5 L271.2,158.2 L272.7,158.2 L273.5,158.0 L279.2,157.9 L280.0,157.8 L280.4,157.7 L280.7,157.7 L281.5,157.6 L281.9,157.3 L282.3,157.0 L282.6,156.9 L284.2,156.8 L284.9,156.8 L286.8,156.7 L292.1,156.6 L302.4,156.5 L308.1,156.5 L310.8,156.4 L311.2,156.4 L311.6,156.3 L311.9,156.1 L313.1,155.9 L313.5,155.9 L313.8,155.8 L315.4,155.7 L315.7,155.5 L316.1,155.5 L316.5,155.2 L316.9,154.9 L317.3,154.8 L317.6,154.8 L318.4,154.7 L319.9,154.6 L324.1,154.5 L335.2,154.5 L335.5,154.3 L335.9,154.3 L339.7,154.0 L340.1,153.3 L341.2,153.2 L341.6,153.1 L343.5,153.0 L356.5,152.9 L356.8,152.8 L357.2,152.8 L358.0,152.7 L360.7,152.6 L361.4,152.4 L361.8,152.4 L363.7,152.3 L372.8,152.2 L560.1,152.1 L560.8,152.1 L561.6,152.1 L562.4,152.0 L562.7,151.9 L563.1,151.9 L563.5,151.9 L563.9,151.8 L567.7,151.8 L578.3,151.8 L581.4,151.7 L582.5,151.7 L584.8,151.7 L587.1,151.6 L587.5,151.6 L589.0,151.6 L590.1,151.6 L590.9,151.5 L619.1,151.5 L619.4,151.4 L620.2,151.4 L620.6,151.4 L621.7,151.3 L623.6,151.2 L629.0,151.2 L640.0,150.9 L640.4,150.7 L645.3,150.7 L645.7,150.6 L646.8,150.5 L648.4,150.4 L650.3,150.1 L650.6,149.2 L651.0,149.1 L653.3,149.1 L654.5,149.0 L654.8,149.0 L655.6,148.9 L658.6,148.9 L661.3,148.6 L663.2,148.4 L663.6,148.3 L664.7,148.1 L665.1,147.7 L665.5,147.6 L665.9,147.5 L666.2,147.4 L666.6,147.2 L667.4,146.9 L668.5,146.7 L682.2,146.6 L683.0,146.2 L691.4,146.1 L696.3,146.0 L698.6,145.9 L699.0,145.9 L701.3,145.9 L701.6,145.8 L702.0,145.8 L702.4,145.7 L702.8,145.6 L703.2,145.2 L703.5,145.2 L705.8,144.7 L706.2,144.6 L707.0,144.6 L709.6,144.4 L710.4,144.4 L710.8,144.3 L711.5,144.2 L711.9,144.0 L712.3,143.9 L713.1,143.9 L713.4,143.8 L713.8,143.8 L714.2,143.8 L715.7,143.6 L716.1,143.5 L716.5,143.4 L716.9,143.4 L717.2,143.3 L717.6,143.2 L718.8,143.1 L719.1,143.0 L719.5,142.9 L719.9,142.8 L720.3,142.6 L721.1,142.5 L721.4,142.2 L721.8,142.0 L722.2,141.4 L722.6,141.2 L723.0,141.1 L723.3,140.8 L723.7,140.7 L724.1,140.6 L724.5,140.6 L724.9,140.3 L726.8,140.0 L727.1,139.9 L727.5,139.6 L727.9,139.0 L728.3,139.0 L729.0,138.9 L729.4,138.5 L729.8,138.2 L730.2,138.2 L730.6,137.6 L731.3,137.5 L731.7,137.4 L732.1,137.4 L732.5,137.3 L732.8,137.3 L733.2,137.3 L734.8,137.2 L735.5,137.2 L735.9,136.9 L736.3,136.8 L737.4,136.7 L739.3,136.7 L741.6,136.5 L742.0,136.5 L742.4,136.4 L742.7,136.2 L743.1,135.8 L743.5,135.8 L743.9,135.7 L744.3,135.7 L744.6,135.6 L745.0,135.3 L749.2,135.2 L749.6,135.2 L753.0,135.0 L753.8,134.7 L754.2,134.7 L754.5,134.6 L754.9,134.5 L756.1,134.4 L756.4,133.9 L756.8,132.8 L757.2,131.7 L757.6,131.7 L758.0,131.6 L758.7,131.4 L759.1,131.3 L759.5,131.0 L760.3,131.0 L760.6,130.7 L761.0,130.7 L761.8,130.2 L762.2,130.2 L762.5,129.9 L762.9,129.7 L763.3,129.5 L763.7,129.5 L764.8,129.2 L765.2,129.1 L765.6,128.3 L766.0,127.2 L766.3,126.8 L766.7,126.3 L767.1,126.2 L767.5,126.1 L767.9,125.9 L768.2,125.7 L768.6,125.3 L769.0,125.3 L769.4,125.0 L769.8,125.0 L770.1,124.7 L770.5,124.5 L770.9,124.2 L771.3,123.9 L771.7,123.8 L772.0,123.7 L772.4,123.2 L772.8,122.2 L773.2,122.0 L774.0,121.8 L774.3,121.7 L774.7,121.7 L775.1,120.1 L775.5,119.4 L775.9,118.7 L776.2,118.4 L776.6,117.2 L777.0,117.1 L777.4,117.0 L777.8,116.7 L778.1,116.2 L778.5,115.2 L778.9,114.1 L779.3,114.0 L779.7,113.8 L780.4,113.8 L780.8,113.1 L781.2,112.6 L781.6,111.9 L781.9,111.8 L782.3,111.8 L782.7,110.7 L783.1,109.5 L783.5,108.9 L783.8,108.7 L784.2,108.3 L784.6,108.0 L785.0,108.0 L785.7,107.8 L786.1,107.6 L786.5,107.6 L786.9,107.5 L787.3,107.5 L788.4,107.5 L788.8,107.4 L789.6,107.4 L790.3,107.3 L790.7,107.3 L791.5,106.9 L791.8,106.6 L792.2,106.3 L794.5,106.2 L794.9,106.0 L795.3,105.9 L795.6,105.7 L796.0,105.6 L796.4,105.5 L796.8,105.5 L797.2,105.0 L797.5,104.5 L797.9,104.3 L798.3,103.4 L798.7,103.2 L799.4,103.2 L799.8,103.2 L801.0,102.9 L801.4,102.5 L801.7,102.2 L802.1,102.0 L802.5,101.3 L802.9,98.5 L803.3,97.3 L803.6,97.1 L804.0,96.9 L804.4,96.4 L804.8,96.3 L805.2,92.4 L805.5,87.6 L805.9,86.2 L806.3,86.2 L806.7,85.4 L807.1,84.9 L807.4,82.0 L807.8,80.2 L808.2,77.5 L808.6,77.0 L809.0,76.9 L809.3,76.8 L809.7,75.9 L810.1,74.6 L810.5,71.6 L810.9,71.1 L811.2,70.5 L811.6,69.7 L812.0,69.2 L812.4,68.7 L812.8,66.9 L813.1,66.5 L813.5,66.4 L813.9,66.1 L814.3,66.0 L814.7,65.7 L815.1,65.6 L815.4,64.7 L815.8,63.4 L816.2,62.3 L816.6,62.2 L817.0,61.2 L817.3,60.5 L817.7,60.4 L818.1,60.2 L818.5,60.1 L818.9,59.8 L819.2,59.0 L819.6,58.1 L820.0,57.8 L820.0,160.0 Z"/>
  <polyline class="line" points="60.0,160.0 179.1,159.8 179.5,159.8 180.6,159.8 198.9,159.7 199.3,159.5 199.7,159.4 200.1,159.3 200.4,159.3 200.8,159.2 201.6,159.1 202.0,159.0 202.3,158.9 202.7,158.9 204.2,158.8 204.6,158.7 205.0,158.7 208.8,158.7 218.7,158.6 270.8,158.5 271.2,158.2 272.7,158.2 273.5,158.0 279.2,157.9 280.0,157.8 280.4,157.7 280.7,157.7 281.5,157.6 281.9,157.3 282.3,157.0 282.6,156.9 284.2,156.8 284.9,156.8 286.8,156.7 292.1,156.6 302.4,156.5 308.1,156.5 310.8,156.4 311.2,156.4 311.6,156.3 311.9,156.1 313.1,155.9 313.5,155.9 313.8,155.8 315.4,155.7 315.7,155.5 316.1,155.5 316.5,155.2 316.9,154.9 317.3,154.8 317.6,154.8 318.4,154.7 319.9,154.6 324.1,154.5 335.2,154.5 335.5,154.3 335.9,154.3 339.7,154.0 340.1,153.3 341.2,153.2 341.6,153.1 343.5,153.0 356.5,152.9 356.8,152.8 357.2,152.8 358.0,152.7 360.7,152.6 361.4,152.4 361.8,152.4 363.7,152.3 372.8,152.2 560.1,152.1 560.8,152.1 561.6,152.1 562.4,152.0 562.7,151.9 563.1,151.9 563.5,151.9 563.9,151.8 567.7,151.8 578.3,151.8 581.4,151.7 582.5,151.7 584.8,151.7 587.1,151.6 587.5,151.6 589.0,151.6 590.1,151.6 590.9,151.5 619.1,151.5 619.4,151.4 620.2,151.4 620.6,151.4 621.7,151.3 623.6,151.2 629.0,151.2 640.0,150.9 640.4,150.7 645.3,150.7 645.7,150.6 646.8,150.5 648.4,150.4 650.3,150.1 650.6,149.2 651.0,149.1 653.3,149.1 654.5,149.0 654.8,149.0 655.6,148.9 658.6,148.9 661.3,148.6 663.2,148.4 663.6,148.3 664.7,148.1 665.1,147.7 665.5,147.6 665.9,147.5 666.2,147.4 666.6,147.2 667.4,146.9 668.5,146.7 682.2,146.6 683.0,146.2 691.4,146.1 696.3,146.0 698.6,145.9 699.0,145.9 701.3,145.9 701.6,145.8 702.0,145.8 702.4,145.7 702.8,145.6 703.2,145.2 703.5,145.2 705.8,144.7 706.2,144.6 707.0,144.6 709.6,144.4 710.4,144.4 710.8,144.3 711.5,144.2 711.9,144.0 712.3,143.9 713.1,143.9 713.4,143.8 713.8,143.8 714.2,143.8 715.7,143.6 716.1,143.5 716.5,143.4 716.9,143.4 717.2,143.3 717.6,143.2 718.8,143.1 719.1,143.0 719.5,142.9 719.9,142.8 720.3,142.6 721.1,142.5 721.4,142.2 721.8,142.0 722.2,141.4 722.6,141.2 723.0,141.1 723.3,140.8 723.7,140.7 724.1,140.6 724.5,140.6 724.9,140.3 726.8,140.0 727.1,139.9 727.5,139.6 727.9,139.0 728.3,139.0 729.0,138.9 729.4,138.5 729.8,138.2 730.2,138.2 730.6,137.6 731.3,137.5 731.7,137.4 732.1,137.4 732.5,137.3 732.8,137.3 733.2,137.3 734.8,137.2 735.5,137.2 735.9,136.9 736.3,136.8 737.4,136.7 739.3,136.7 741.6,136.5 742.0,136.5 742.4,136.4 742.7,136.2 743.1,135.8 743.5,135.8 743.9,135.7 744.3,135.7 744.6,135.6 745.0,135.3 749.2,135.2 749.6,135.2 753.0,135.0 753.8,134.7 754.2,134.7 754.5,134.6 754.9,134.5 756.1,134.4 756.4,133.9 756.8,132.8 757.2,131.7 757.6,131.7 758.0,131.6 758.7,131.4 759.1,131.3 759.5,131.0 760.3,131.0 760.6,130.7 761.0,130.7 761.8,130.2 762.2,130.2 762.5,129.9 762.9,129.7 763.3,129.5 763.7,129.5 764.8,129.2 765.2,129.1 765.6,128.3 766.0,127.2 766.3,126.8 766.7,126.3 767.1,126.2 767.5,126.1 767.9,125.9 768.2,125.7 768.6,125.3 769.0,125.3 769.4,125.0 769.8,125.0 770.1,124.7 770.5,124.5 770.9,124.2 771.3,123.9 771.7,123.8 772.0,123.7 772.4,123.2 772.8,122.2 773.2,122.0 774.0,121.8 774.3,121.7 774.7,121.7 775.1,120.1 775.5,119.4 775.9,118.7 776.2,118.4 776.6,117.2 777.0,117.1 777.4,117.0 777.8,116.7 778.1,116.2 778.5,115.2 778.9,114.1 779.3,114.0 779.7,113.8 780.4,113.8 780.8,113.1 781.2,112.6 781.6,111.9 781.9,111.8 782.3,111.8 782.7,110.7 783.1,109.5 783.5,108.9 783.8,108.7 784.2,108.3 784.6,108.0 785.0,108.0 785.7,107.8 786.1,107.6 786.5,107.6 786.9,107.5 787.3,107.5 788.4,107.5 788.8,107.4 789.6,107.4 790.3,107.3 790.7,107.3 791.5,106.9 791.8,106.6 792.2,106.3 794.5,106.2 794.9,106.0 795.3,105.9 795.6,105.7 796.0,105.6 796.4,105.5 796.8,105.5 797.2,105.0 797.5,104.5 797.9,104.3 798.3,103.4 798.7,103.2 799.4,103.2 799.8,103.2 801.0,102.9 801.4,102.5 801.7,102.2 802.1,102.0 802.5,101.3 802.9,98.5 803.3,97.3 803.6,97.1 804.0,96.9 804.4,96.4 804.8,96.3 805.2,92.4 805.5,87.6 805.9,86.2 806.3,86.2 806.7,85.4 807.1,84.9 807.4,82.0 807.8,80.2 808.2,77.5 808.6,77.0 809.0,76.9 809.3,76.8 809.7,75.9 810.1,74.6 810.5,71.6 810.9,71.1 811.2,70.5 811.6,69.7 812.0,69.2 812.4,68.7 812.8,66.9 813.1,66.5 813.5,66.4 813.9,66.1 814.3,66.0 814.7,65.7 815.1,65.6 815.4,64.7 815.8,63.4 816.2,62.3 816.6,62.2 817.0,61.2 817.3,60.5 817.7,60.4 818.1,60.2 818.5,60.1 818.9,59.8 819.2,59.0 819.6,58.1 820.0,57.8"/>

  <g class="hoverpoint">
    <line x1="180.6" y1="30" x2="180.6" y2="160.0" class="guide"/>
    <circle cx="180.6" cy="159.8" r="16" class="hit"/>
    <circle cx="180.6" cy="159.8" r="4" class="hover-dot"><title>Nov 2021: 7 total (+7 this month)</title></circle>
    <rect x="110.6" y="133.8" width="140" height="20" rx="4" class="tooltip-bg"/>
    <text x="180.6" y="147.8" class="tooltip-text" text-anchor="middle">Nov 2021: 7 total (+7 this month)</text>
  </g>
  <g class="hoverpoint">
    <line x1="208.8" y1="30" x2="208.8" y2="160.0" class="guide"/>
    <circle cx="208.8" cy="158.7" r="16" class="hit"/>
    <circle cx="208.8" cy="158.7" r="4" class="hover-dot"><title>Jan 2022: 41 total (+34 this month)</title></circle>
    <rect x="138.8" y="132.7" width="140" height="20" rx="4" class="tooltip-bg"/>
    <text x="208.8" y="146.7" class="tooltip-text" text-anchor="middle">Jan 2022: 41 total (+34 this month)</text>
  </g>
  <g class="hoverpoint">
    <line x1="218.7" y1="30" x2="218.7" y2="160.0" class="guide"/>
    <circle cx="218.7" cy="158.6" r="16" class="hit"/>
    <circle cx="218.7" cy="158.6" r="4" class="hover-dot"><title>Feb 2022: 44 total (+3 this month)</title></circle>
    <rect x="148.7" y="132.6" width="140" height="20" rx="4" class="tooltip-bg"/>
    <text x="218.7" y="146.6" class="tooltip-text" text-anchor="middle">Feb 2022: 44 total (+3 this month)</text>
  </g>
  <g class="hoverpoint">
    <line x1="279.2" y1="30" x2="279.2" y2="160.0" class="guide"/>
    <circle cx="279.2" cy="157.9" r="16" class="hit"/>
    <circle cx="279.2" cy="157.9" r="4" class="hover-dot"><title>Jul 2022: 65 total (+21 this month)</title></circle>
    <rect x="209.2" y="131.9" width="140" height="20" rx="4" class="tooltip-bg"/>
    <text x="279.2" y="145.9" class="tooltip-text" text-anchor="middle">Jul 2022: 65 total (+21 this month)</text>
  </g>
  <g class="hoverpoint">
    <line x1="286.8" y1="30" x2="286.8" y2="160.0" class="guide"/>
    <circle cx="286.8" cy="156.7" r="16" class="hit"/>
    <circle cx="286.8" cy="156.7" r="4" class="hover-dot"><title>Aug 2022: 101 total (+36 this month)</title></circle>
    <rect x="216.8" y="130.7" width="140" height="20" rx="4" class="tooltip-bg"/>
    <text x="286.8" y="144.7" class="tooltip-text" text-anchor="middle">Aug 2022: 101 total (+36 this month)</text>
  </g>
  <g class="hoverpoint">
    <line x1="302.4" y1="30" x2="302.4" y2="160.0" class="guide"/>
    <circle cx="302.4" cy="156.5" r="16" class="hit"/>
    <circle cx="302.4" cy="156.5" r="4" class="hover-dot"><title>Sep 2022: 108 total (+7 this month)</title></circle>
    <rect x="232.4" y="130.5" width="140" height="20" rx="4" class="tooltip-bg"/>
    <text x="302.4" y="144.5" class="tooltip-text" text-anchor="middle">Sep 2022: 108 total (+7 this month)</text>
  </g>
  <g class="hoverpoint">
    <line x1="313.8" y1="30" x2="313.8" y2="160.0" class="guide"/>
    <circle cx="313.8" cy="155.8" r="16" class="hit"/>
    <circle cx="313.8" cy="155.8" r="4" class="hover-dot"><title>Oct 2022: 128 total (+20 this month)</title></circle>
    <rect x="243.8" y="129.8" width="140" height="20" rx="4" class="tooltip-bg"/>
    <text x="313.8" y="143.8" class="tooltip-text" text-anchor="middle">Oct 2022: 128 total (+20 this month)</text>
  </g>
  <g class="hoverpoint">
    <line x1="324.1" y1="30" x2="324.1" y2="160.0" class="guide"/>
    <circle cx="324.1" cy="154.5" r="16" class="hit"/>
    <circle cx="324.1" cy="154.5" r="4" class="hover-dot"><title>Nov 2022: 168 total (+40 this month)</title></circle>
    <rect x="254.1" y="128.5" width="140" height="20" rx="4" class="tooltip-bg"/>
    <text x="324.1" y="142.5" class="tooltip-text" text-anchor="middle">Nov 2022: 168 total (+40 this month)</text>
  </g>
  <g class="hoverpoint">
    <line x1="335.9" y1="30" x2="335.9" y2="160.0" class="guide"/>
    <circle cx="335.9" cy="154.3" r="16" class="hit"/>
    <circle cx="335.9" cy="154.3" r="4" class="hover-dot"><title>Dec 2022: 175 total (+7 this month)</title></circle>
    <rect x="265.9" y="128.3" width="140" height="20" rx="4" class="tooltip-bg"/>
    <text x="335.9" y="142.3" class="tooltip-text" text-anchor="middle">Dec 2022: 175 total (+7 this month)</text>
  </g>
  <g class="hoverpoint">
    <line x1="343.5" y1="30" x2="343.5" y2="160.0" class="guide"/>
    <circle cx="343.5" cy="153.0" r="16" class="hit"/>
    <circle cx="343.5" cy="153.0" r="4" class="hover-dot"><title>Jan 2023: 214 total (+39 this month)</title></circle>
    <rect x="273.5" y="127.0" width="140" height="20" rx="4" class="tooltip-bg"/>
    <text x="343.5" y="141.0" class="tooltip-text" text-anchor="middle">Jan 2023: 214 total (+39 this month)</text>
  </g>
  <g class="hoverpoint">
    <line x1="358.0" y1="30" x2="358.0" y2="160.0" class="guide"/>
    <circle cx="358.0" cy="152.7" r="16" class="hit"/>
    <circle cx="358.0" cy="152.7" r="4" class="hover-dot"><title>Feb 2023: 225 total (+11 this month)</title></circle>
    <rect x="288.0" y="126.7" width="140" height="20" rx="4" class="tooltip-bg"/>
    <text x="358.0" y="140.7" class="tooltip-text" text-anchor="middle">Feb 2023: 225 total (+11 this month)</text>
  </g>
  <g class="hoverpoint">
    <line x1="363.7" y1="30" x2="363.7" y2="160.0" class="guide"/>
    <circle cx="363.7" cy="152.3" r="16" class="hit"/>
    <circle cx="363.7" cy="152.3" r="4" class="hover-dot"><title>Mar 2023: 237 total (+12 this month)</title></circle>
    <rect x="293.7" y="126.3" width="140" height="20" rx="4" class="tooltip-bg"/>
    <text x="363.7" y="140.3" class="tooltip-text" text-anchor="middle">Mar 2023: 237 total (+12 this month)</text>
  </g>
  <g class="hoverpoint">
    <line x1="372.8" y1="30" x2="372.8" y2="160.0" class="guide"/>
    <circle cx="372.8" cy="152.2" r="16" class="hit"/>
    <circle cx="372.8" cy="152.2" r="4" class="hover-dot"><title>Apr 2023: 240 total (+3 this month)</title></circle>
    <rect x="302.8" y="126.2" width="140" height="20" rx="4" class="tooltip-bg"/>
    <text x="372.8" y="140.2" class="tooltip-text" text-anchor="middle">Apr 2023: 240 total (+3 this month)</text>
  </g>
  <g class="hoverpoint">
    <line x1="567.7" y1="30" x2="567.7" y2="160.0" class="guide"/>
    <circle cx="567.7" cy="151.8" r="16" class="hit"/>
    <circle cx="567.7" cy="151.8" r="4" class="hover-dot"><title>Aug 2024: 252 total (+12 this month)</title></circle>
    <rect x="497.7" y="125.8" width="140" height="20" rx="4" class="tooltip-bg"/>
    <text x="567.7" y="139.8" class="tooltip-text" text-anchor="middle">Aug 2024: 252 total (+12 this month)</text>
  </g>
  <g class="hoverpoint">
    <line x1="578.3" y1="30" x2="578.3" y2="160.0" class="guide"/>
    <circle cx="578.3" cy="151.8" r="16" class="hit"/>
    <circle cx="578.3" cy="151.8" r="4" class="hover-dot"><title>Sep 2024: 253 total (+1 this month)</title></circle>
    <rect x="508.3" y="125.8" width="140" height="20" rx="4" class="tooltip-bg"/>
    <text x="578.3" y="139.8" class="tooltip-text" text-anchor="middle">Sep 2024: 253 total (+1 this month)</text>
  </g>
  <g class="hoverpoint">
    <line x1="590.9" y1="30" x2="590.9" y2="160.0" class="guide"/>
    <circle cx="590.9" cy="151.5" r="16" class="hit"/>
    <circle cx="590.9" cy="151.5" r="4" class="hover-dot"><title>Oct 2024: 261 total (+8 this month)</title></circle>
    <rect x="520.9" y="125.5" width="140" height="20" rx="4" class="tooltip-bg"/>
    <text x="590.9" y="139.5" class="tooltip-text" text-anchor="middle">Oct 2024: 261 total (+8 this month)</text>
  </g>
  <g class="hoverpoint">
    <line x1="623.6" y1="30" x2="623.6" y2="160.0" class="guide"/>
    <circle cx="623.6" cy="151.2" r="16" class="hit"/>
    <circle cx="623.6" cy="151.2" r="4" class="hover-dot"><title>Jan 2025: 270 total (+9 this month)</title></circle>
    <rect x="553.6" y="125.2" width="140" height="20" rx="4" class="tooltip-bg"/>
    <text x="623.6" y="139.2" class="tooltip-text" text-anchor="middle">Jan 2025: 270 total (+9 this month)</text>
  </g>
  <g class="hoverpoint">
    <line x1="629.0" y1="30" x2="629.0" y2="160.0" class="guide"/>
    <circle cx="629.0" cy="151.2" r="16" class="hit"/>
    <circle cx="629.0" cy="151.2" r="4" class="hover-dot"><title>Feb 2025: 272 total (+2 this month)</title></circle>
    <rect x="559.0" y="125.2" width="140" height="20" rx="4" class="tooltip-bg"/>
    <text x="629.0" y="139.2" class="tooltip-text" text-anchor="middle">Feb 2025: 272 total (+2 this month)</text>
  </g>
  <g class="hoverpoint">
    <line x1="648.4" y1="30" x2="648.4" y2="160.0" class="guide"/>
    <circle cx="648.4" cy="150.4" r="16" class="hit"/>
    <circle cx="648.4" cy="150.4" r="4" class="hover-dot"><title>Mar 2025: 294 total (+22 this month)</title></circle>
    <rect x="578.4" y="124.4" width="140" height="20" rx="4" class="tooltip-bg"/>
    <text x="648.4" y="138.4" class="tooltip-text" text-anchor="middle">Mar 2025: 294 total (+22 this month)</text>
  </g>
  <g class="hoverpoint">
    <line x1="661.3" y1="30" x2="661.3" y2="160.0" class="guide"/>
    <circle cx="661.3" cy="148.6" r="16" class="hit"/>
    <circle cx="661.3" cy="148.6" r="4" class="hover-dot"><title>Apr 2025: 351 total (+57 this month)</title></circle>
    <rect x="591.3" y="122.6" width="140" height="20" rx="4" class="tooltip-bg"/>
    <text x="661.3" y="136.6" class="tooltip-text" text-anchor="middle">Apr 2025: 351 total (+57 this month)</text>
  </g>
  <g class="hoverpoint">
    <line x1="668.5" y1="30" x2="668.5" y2="160.0" class="guide"/>
    <circle cx="668.5" cy="146.7" r="16" class="hit"/>
    <circle cx="668.5" cy="146.7" r="4" class="hover-dot"><title>May 2025: 408 total (+57 this month)</title></circle>
    <rect x="598.5" y="120.7" width="140" height="20" rx="4" class="tooltip-bg"/>
    <text x="668.5" y="134.7" class="tooltip-text" text-anchor="middle">May 2025: 408 total (+57 this month)</text>
  </g>
  <g class="hoverpoint">
    <line x1="683.0" y1="30" x2="683.0" y2="160.0" class="guide"/>
    <circle cx="683.0" cy="146.2" r="16" class="hit"/>
    <circle cx="683.0" cy="146.2" r="4" class="hover-dot"><title>Jun 2025: 424 total (+16 this month)</title></circle>
    <rect x="613.0" y="120.2" width="140" height="20" rx="4" class="tooltip-bg"/>
    <text x="683.0" y="134.2" class="tooltip-text" text-anchor="middle">Jun 2025: 424 total (+16 this month)</text>
  </g>
  <g class="hoverpoint">
    <line x1="696.3" y1="30" x2="696.3" y2="160.0" class="guide"/>
    <circle cx="696.3" cy="146.0" r="16" class="hit"/>
    <circle cx="696.3" cy="146.0" r="4" class="hover-dot"><title>Jul 2025: 432 total (+8 this month)</title></circle>
    <rect x="626.3" y="120.0" width="140" height="20" rx="4" class="tooltip-bg"/>
    <text x="696.3" y="134.0" class="tooltip-text" text-anchor="middle">Jul 2025: 432 total (+8 this month)</text>
  </g>
  <g class="hoverpoint">
    <line x1="707.0" y1="30" x2="707.0" y2="160.0" class="guide"/>
    <circle cx="707.0" cy="144.6" r="16" class="hit"/>
    <circle cx="707.0" cy="144.6" r="4" class="hover-dot"><title>Aug 2025: 475 total (+43 this month)</title></circle>
    <rect x="637.0" y="118.6" width="140" height="20" rx="4" class="tooltip-bg"/>
    <text x="707.0" y="132.6" class="tooltip-text" text-anchor="middle">Aug 2025: 475 total (+43 this month)</text>
  </g>
  <g class="hoverpoint">
    <line x1="719.5" y1="30" x2="719.5" y2="160.0" class="guide"/>
    <circle cx="719.5" cy="142.9" r="16" class="hit"/>
    <circle cx="719.5" cy="142.9" r="4" class="hover-dot"><title>Sep 2025: 526 total (+51 this month)</title></circle>
    <rect x="649.5" y="116.9" width="140" height="20" rx="4" class="tooltip-bg"/>
    <text x="719.5" y="130.9" class="tooltip-text" text-anchor="middle">Sep 2025: 526 total (+51 this month)</text>
  </g>
  <g class="hoverpoint">
    <line x1="731.3" y1="30" x2="731.3" y2="160.0" class="guide"/>
    <circle cx="731.3" cy="137.5" r="16" class="hit"/>
    <circle cx="731.3" cy="137.5" r="4" class="hover-dot"><title>Oct 2025: 692 total (+166 this month)</title></circle>
    <rect x="661.3" y="111.5" width="140" height="20" rx="4" class="tooltip-bg"/>
    <text x="731.3" y="125.5" class="tooltip-text" text-anchor="middle">Oct 2025: 692 total (+166 this month)</text>
  </g>
  <g class="hoverpoint">
    <line x1="742.7" y1="30" x2="742.7" y2="160.0" class="guide"/>
    <circle cx="742.7" cy="136.2" r="16" class="hit"/>
    <circle cx="742.7" cy="136.2" r="4" class="hover-dot"><title>Nov 2025: 731 total (+39 this month)</title></circle>
    <rect x="672.7" y="110.2" width="140" height="20" rx="4" class="tooltip-bg"/>
    <text x="742.7" y="124.2" class="tooltip-text" text-anchor="middle">Nov 2025: 731 total (+39 this month)</text>
  </g>
  <g class="hoverpoint">
    <line x1="754.5" y1="30" x2="754.5" y2="160.0" class="guide"/>
    <circle cx="754.5" cy="134.6" r="16" class="hit"/>
    <circle cx="754.5" cy="134.6" r="4" class="hover-dot"><title>Dec 2025: 783 total (+52 this month)</title></circle>
    <rect x="684.5" y="108.6" width="140" height="20" rx="4" class="tooltip-bg"/>
    <text x="754.5" y="122.6" class="tooltip-text" text-anchor="middle">Dec 2025: 783 total (+52 this month)</text>
  </g>
  <g class="hoverpoint">
    <line x1="766.3" y1="30" x2="766.3" y2="160.0" class="guide"/>
    <circle cx="766.3" cy="126.8" r="16" class="hit"/>
    <circle cx="766.3" cy="126.8" r="4" class="hover-dot"><title>Jan 2026: 1,022 total (+239 this month)</title></circle>
    <rect x="696.3" y="100.8" width="140" height="20" rx="4" class="tooltip-bg"/>
    <text x="766.3" y="114.8" class="tooltip-text" text-anchor="middle">Jan 2026: 1,022 total (+239 this month)</text>
  </g>
  <g class="hoverpoint">
    <line x1="777.0" y1="30" x2="777.0" y2="160.0" class="guide"/>
    <circle cx="777.0" cy="117.1" r="16" class="hit"/>
    <circle cx="777.0" cy="117.1" r="4" class="hover-dot"><title>Feb 2026: 1,321 total (+299 this month)</title></circle>
    <rect x="707.0" y="91.1" width="140" height="20" rx="4" class="tooltip-bg"/>
    <text x="777.0" y="105.1" class="tooltip-text" text-anchor="middle">Feb 2026: 1,321 total (+299 this month)</text>
  </g>
  <g class="hoverpoint">
    <line x1="788.8" y1="30" x2="788.8" y2="160.0" class="guide"/>
    <circle cx="788.8" cy="107.4" r="16" class="hit"/>
    <circle cx="788.8" cy="107.4" r="4" class="hover-dot"><title>Mar 2026: 1,617 total (+296 this month)</title></circle>
    <rect x="718.8" y="81.4" width="140" height="20" rx="4" class="tooltip-bg"/>
    <text x="788.8" y="95.4" class="tooltip-text" text-anchor="middle">Mar 2026: 1,617 total (+296 this month)</text>
  </g>
  <g class="hoverpoint">
    <line x1="799.8" y1="30" x2="799.8" y2="160.0" class="guide"/>
    <circle cx="799.8" cy="103.2" r="16" class="hit"/>
    <circle cx="799.8" cy="103.2" r="4" class="hover-dot"><title>Apr 2026: 1,749 total (+132 this month)</title></circle>
    <rect x="729.8" y="77.2" width="140" height="20" rx="4" class="tooltip-bg"/>
    <text x="799.8" y="91.2" class="tooltip-text" text-anchor="middle">Apr 2026: 1,749 total (+132 this month)</text>
  </g>
  <g class="hoverpoint">
    <line x1="812.0" y1="30" x2="812.0" y2="160.0" class="guide"/>
    <circle cx="812.0" cy="69.2" r="16" class="hit"/>
    <circle cx="812.0" cy="69.2" r="4" class="hover-dot"><title>May 2026: 2,795 total (+1,046 this month)</title></circle>
    <rect x="742.0" y="43.2" width="140" height="20" rx="4" class="tooltip-bg"/>
    <text x="812.0" y="57.2" class="tooltip-text" text-anchor="middle">May 2026: 2,795 total (+1,046 this month)</text>
  </g>
  <g class="hoverpoint">
    <line x1="820.0" y1="30" x2="820.0" y2="160.0" class="guide"/>
    <circle cx="820.0" cy="57.8" r="16" class="hit"/>
    <circle cx="820.0" cy="57.8" r="4" class="hover-dot"><title>Jun 2026: 3,146 total (+351 this month)</title></circle>
    <rect x="750.0" y="31.8" width="140" height="20" rx="4" class="tooltip-bg"/>
    <text x="820.0" y="45.8" class="tooltip-text" text-anchor="middle">Jun 2026: 3,146 total (+351 this month)</text>
  </g>

  <circle cx="820.0" cy="57.8" r="4" class="dot"/>
  <text x="810.0" y="47.8" class="total">3,146</text>

</svg>