<svg xmlns="http://www.w3.org/2000/svg" width="840" height="196" viewBox="0 0 840 196" fill="none">
  <style>
    .label { font-family: -apple-system, BlinkMacSystemFont, 'Segoe UI', Helvetica, Arial, sans-serif; font-size: 10px; fill: #8b949e; }
    .title { font-family: -apple-system, BlinkMacSystemFont, 'Segoe UI', Helvetica, Arial, sans-serif; font-size: 11px; fill: #8b949e; font-weight: 600; }
    .total { font-family: -apple-system, BlinkMacSystemFont, 'Segoe UI', Helvetica, Arial, sans-serif; font-size: 11px; fill: #7ee787; font-weight: 600; }
    .grid { stroke: #21262d; stroke-width: 1; }
    .line { stroke: #7ee787; stroke-width: 2; stroke-linecap: round; stroke-linejoin: round; fill: none; }
    .dot { fill: #7ee787; }
    .area { fill: url(#areaGrad); }
    /* Hover interaction */
    .hoverpoint .guide { stroke: #7ee787; stroke-width: 1; stroke-dasharray: 2,2; opacity: 0; }
    .hoverpoint .hover-dot { fill: #7ee787; opacity: 0; }
    .hoverpoint .hit { fill: transparent; cursor: pointer; }
    .hoverpoint .tooltip-bg { fill: #161b22; stroke: #30363d; stroke-width: 1; opacity: 0; }
    .hoverpoint .tooltip-text { font-family: -apple-system, BlinkMacSystemFont, 'Segoe UI', Helvetica, Arial, sans-serif; font-size: 9px; fill: #c9d1d9; opacity: 0; }
    .hoverpoint:hover .guide { opacity: 0.5; }
    .hoverpoint:hover .hover-dot { opacity: 1; }
    .hoverpoint:hover .tooltip-bg { opacity: 0.95; }
    .hoverpoint:hover .tooltip-text { opacity: 1; }
  </style>
  <defs>
    <linearGradient id="areaGrad" x1="0" y1="0" x2="0" y2="1">
      <stop offset="0%" stop-color="#7ee787" stop-opacity="0.15"/>
      <stop offset="100%" stop-color="#7ee787" stop-opacity="0.01"/>
    </linearGradient>
  </defs>

  <text x="60" y="18" class="title">Cumulative Commits</text>

  <line x1="60" y1="160.0" x2="820" y2="160.0" class="grid"/>
  <text x="50" y="163.0" class="label" text-anchor="end">0</text>
  <line x1="60" y1="127.5" x2="820" y2="127.5" class="grid" stroke-dasharray="3,3"/>
  <text x="50" y="130.5" class="label" text-anchor="end">750</text>
  <line x1="60" y1="95.0" x2="820" y2="95.0" class="grid" stroke-dasharray="3,3"/>
  <text x="50" y="98.0" class="label" text-anchor="end">1,500</text>
  <line x1="60" y1="62.5" x2="820" y2="62.5" class="grid" stroke-dasharray="3,3"/>
  <text x="50" y="65.5" class="label" text-anchor="end">2,250</text>
  <line x1="60" y1="30.0" x2="820" y2="30.0" class="grid" stroke-dasharray="3,3"/>
  <text x="50" y="33.0" class="label" text-anchor="end">3,000</text>

  <text x="70.0" y="186" class="label" text-anchor="middle">2021</text>
  <text x="201.0" y="186" class="label" text-anchor="middle">2022</text>
  <text x="342.1" y="186" class="label" text-anchor="middle">2023</text>
  <text x="483.1" y="186" class="label" text-anchor="middle">2024</text>
  <text x="624.5" y="186" class="label" text-anchor="middle">2025</text>
  <text x="765.5" y="186" class="label" text-anchor="middle">2026</text>


  <path class="area" d="M60.0,160.0 L60.0,160.0 60.0,160.0 L180.9,159.8 L181.3,159.7 L182.5,159.7 L201.0,159.6 L201.4,159.3 L201.8,159.3 L202.2,159.1 L202.6,159.0 L203.0,159.0 L203.7,158.7 L204.1,158.6 L204.5,158.5 L204.9,158.5 L206.4,158.4 L206.8,158.3 L207.2,158.3 L211.1,158.2 L221.1,158.1 L274.1,158.1 L274.4,157.7 L276.0,157.6 L276.8,157.3 L282.6,157.2 L283.3,157.1 L283.7,156.9 L284.1,156.9 L284.9,156.8 L285.3,156.4 L285.6,156.0 L286.0,155.9 L287.6,155.8 L288.3,155.7 L290.3,155.6 L295.7,155.4 L306.1,155.3 L311.9,155.3 L314.6,155.2 L315.0,155.1 L315.4,155.0 L315.8,154.8 L316.9,154.5 L317.3,154.5 L317.7,154.5 L319.3,154.3 L319.6,154.1 L320.0,154.0 L320.4,153.6 L320.8,153.2 L321.2,153.1 L321.6,153.0 L322.3,152.9 L323.9,152.8 L328.1,152.7 L339.3,152.7 L339.7,152.5 L340.1,152.4 L344.0,152.0 L344.4,151.0 L345.5,150.9 L345.9,150.9 L347.8,150.7 L361.0,150.6 L361.4,150.5 L361.8,150.4 L362.5,150.2 L365.2,150.1 L366.0,149.9 L366.4,149.8 L368.3,149.7 L377.6,149.6 L567.7,149.5 L568.5,149.5 L569.2,149.4 L570.0,149.3 L570.4,149.3 L570.8,149.2 L571.2,149.2 L571.6,149.1 L575.4,149.1 L586.2,149.0 L589.3,149.0 L590.5,148.9 L592.8,148.9 L595.1,148.9 L595.5,148.8 L597.1,148.8 L598.2,148.7 L599.0,148.7 L627.6,148.6 L628.0,148.6 L628.7,148.5 L629.1,148.5 L630.3,148.3 L632.2,148.3 L637.6,148.2 L648.8,147.8 L649.2,147.7 L654.2,147.6 L654.6,147.5 L655.8,147.4 L657.3,147.3 L659.3,146.8 L659.7,145.6 L660.0,145.5 L662.4,145.4 L663.5,145.4 L663.9,145.4 L664.7,145.2 L667.8,145.1 L670.5,144.8 L672.4,144.5 L672.8,144.4 L674.0,144.1 L674.3,143.6 L674.7,143.5 L675.1,143.3 L675.5,143.1 L675.9,142.9 L676.7,142.6 L677.8,142.3 L691.7,142.2 L692.5,141.6 L701.0,141.5 L706.0,141.3 L708.3,141.2 L708.7,141.2 L711.0,141.2 L711.4,141.1 L711.8,141.1 L712.2,140.9 L712.6,140.8 L713.0,140.3 L713.4,140.2 L715.7,139.6 L716.1,139.5 L716.8,139.4 L719.5,139.2 L720.3,139.2 L720.7,139.0 L721.5,139.0 L721.9,138.7 L722.2,138.6 L723.0,138.5 L723.4,138.4 L723.8,138.4 L724.2,138.3 L725.7,138.1 L726.1,138.0 L726.5,137.9 L726.9,137.8 L727.3,137.7 L727.7,137.6 L728.8,137.4 L729.2,137.3 L729.6,137.2 L730.0,137.1 L730.4,136.8 L731.1,136.7 L731.5,136.3 L731.9,136.0 L732.3,135.2 L732.7,135.0 L733.1,134.8 L733.5,134.3 L733.8,134.3 L734.2,134.1 L734.6,134.1 L735.0,133.8 L736.9,133.3 L737.3,133.2 L737.7,132.8 L738.1,132.1 L738.5,132.0 L739.2,131.9 L739.6,131.3 L740.0,130.9 L740.4,130.9 L740.8,130.2 L741.6,130.0 L742.0,129.9 L742.3,129.8 L742.7,129.8 L743.1,129.8 L743.5,129.7 L745.0,129.6 L745.8,129.5 L746.2,129.2 L746.6,129.0 L747.7,129.0 L749.7,128.9 L752.0,128.7 L752.4,128.6 L752.8,128.6 L753.2,128.3 L753.5,127.7 L753.9,127.7 L754.3,127.6 L754.7,127.5 L755.1,127.4 L755.5,127.1 L759.7,127.0 L760.1,126.9 L763.6,126.6 L764.4,126.3 L764.7,126.2 L765.1,126.1 L765.5,126.0 L766.7,125.9 L767.1,125.2 L767.5,123.7 L767.8,122.3 L768.2,122.3 L768.6,122.1 L769.4,121.9 L769.8,121.7 L770.2,121.4 L770.9,121.3 L771.3,120.9 L771.7,120.9 L772.5,120.3 L772.9,120.2 L773.2,119.9 L773.6,119.7 L774.0,119.4 L774.4,119.4 L775.6,119.0 L776.0,118.7 L776.3,117.7 L776.7,116.3 L777.1,115.7 L777.5,115.1 L777.9,115.0 L778.3,114.8 L778.7,114.6 L779.0,114.2 L779.4,113.8 L779.8,113.7 L780.2,113.4 L780.6,113.3 L781.0,113.0 L781.4,112.6 L781.7,112.3 L782.1,111.9 L782.5,111.8 L782.9,111.6 L783.3,110.9 L783.7,109.6 L784.1,109.4 L784.8,109.1 L785.2,109.0 L785.6,108.9 L786.0,106.8 L786.4,105.8 L786.8,104.9 L787.2,104.5 L787.5,102.9 L787.9,102.8 L788.3,102.7 L788.7,102.3 L789.1,101.6 L789.5,100.2 L789.9,98.8 L790.2,98.7 L790.6,98.4 L791.4,98.3 L791.8,97.5 L792.2,96.8 L792.6,95.9 L793.0,95.7 L793.3,95.7 L793.7,94.3 L794.1,92.6 L794.5,91.9 L794.9,91.5 L795.3,91.1 L795.7,90.7 L796.0,90.7 L796.8,90.5 L797.2,90.2 L797.6,90.1 L798.0,90.1 L798.4,90.0 L799.5,90.0 L799.9,89.9 L800.7,89.8 L801.5,89.8 L801.8,89.7 L802.6,89.1 L803.0,88.8 L803.4,88.6 L805.7,88.5 L806.1,88.2 L806.5,88.1 L806.9,87.8 L807.2,87.7 L807.6,87.6 L808.0,87.5 L808.4,86.9 L808.8,86.2 L809.2,86.0 L809.6,84.7 L810.0,84.5 L810.7,84.5 L811.1,84.4 L812.3,84.0 L812.7,83.5 L813.0,83.2 L813.4,82.9 L813.8,81.9 L814.2,78.2 L814.6,76.6 L815.0,76.4 L815.4,76.1 L815.7,75.4 L816.1,75.3 L816.5,70.1 L816.9,63.7 L817.3,61.8 L817.7,61.8 L818.1,60.8 L818.5,60.0 L818.8,56.2 L819.2,54.7 L819.6,53.4 L820.0,52.7 L820.0,160.0 Z"/>
  <polyline class="line" points="60.0,160.0 180.9,159.8 181.3,159.7 182.5,159.7 201.0,159.6 201.4,159.3 201.8,159.3 202.2,159.1 202.6,159.0 203.0,159.0 203.7,158.7 204.1,158.6 204.5,158.5 204.9,158.5 206.4,158.4 206.8,158.3 207.2,158.3 211.1,158.2 221.1,158.1 274.1,158.1 274.4,157.7 276.0,157.6 276.8,157.3 282.6,157.2 283.3,157.1 283.7,156.9 284.1,156.9 284.9,156.8 285.3,156.4 285.6,156.0 286.0,155.9 287.6,155.8 288.3,155.7 290.3,155.6 295.7,155.4 306.1,155.3 311.9,155.3 314.6,155.2 315.0,155.1 315.4,155.0 315.8,154.8 316.9,154.5 317.3,154.5 317.7,154.5 319.3,154.3 319.6,154.1 320.0,154.0 320.4,153.6 320.8,153.2 321.2,153.1 321.6,153.0 322.3,152.9 323.9,152.8 328.1,152.7 339.3,152.7 339.7,152.5 340.1,152.4 344.0,152.0 344.4,151.0 345.5,150.9 345.9,150.9 347.8,150.7 361.0,150.6 361.4,150.5 361.8,150.4 362.5,150.2 365.2,150.1 366.0,149.9 366.4,149.8 368.3,149.7 377.6,149.6 567.7,149.5 568.5,149.5 569.2,149.4 570.0,149.3 570.4,149.3 570.8,149.2 571.2,149.2 571.6,149.1 575.4,149.1 586.2,149.0 589.3,149.0 590.5,148.9 592.8,148.9 595.1,148.9 595.5,148.8 597.1,148.8 598.2,148.7 599.0,148.7 627.6,148.6 628.0,148.6 628.7,148.5 629.1,148.5 630.3,148.3 632.2,148.3 637.6,148.2 648.8,147.8 649.2,147.7 654.2,147.6 654.6,147.5 655.8,147.4 657.3,147.3 659.3,146.8 659.7,145.6 660.0,145.5 662.4,145.4 663.5,145.4 663.9,145.4 664.7,145.2 667.8,145.1 670.5,144.8 672.4,144.5 672.8,144.4 674.0,144.1 674.3,143.6 674.7,143.5 675.1,143.3 675.5,143.1 675.9,142.9 676.7,142.6 677.8,142.3 691.7,142.2 692.5,141.6 701.0,141.5 706.0,141.3 708.3,141.2 708.7,141.2 711.0,141.2 711.4,141.1 711.8,141.1 712.2,140.9 712.6,140.8 713.0,140.3 713.4,140.2 715.7,139.6 716.1,139.5 716.8,139.4 719.5,139.2 720.3,139.2 720.7,139.0 721.5,139.0 721.9,138.7 722.2,138.6 723.0,138.5 723.4,138.4 723.8,138.4 724.2,138.3 725.7,138.1 726.1,138.0 726.5,137.9 726.9,137.8 727.3,137.7 727.7,137.6 728.8,137.4 729.2,137.3 729.6,137.2 730.0,137.1 730.4,136.8 731.1,136.7 731.5,136.3 731.9,136.0 732.3,135.2 732.7,135.0 733.1,134.8 733.5,134.3 733.8,134.3 734.2,134.1 734.6,134.1 735.0,133.8 736.9,133.3 737.3,133.2 737.7,132.8 738.1,132.1 738.5,132.0 739.2,131.9 739.6,131.3 740.0,130.9 740.4,130.9 740.8,130.2 741.6,130.0 742.0,129.9 742.3,129.8 742.7,129.8 743.1,129.8 743.5,129.7 745.0,129.6 745.8,129.5 746.2,129.2 746.6,129.0 747.7,129.0 749.7,128.9 752.0,128.7 752.4,128.6 752.8,128.6 753.2,128.3 753.5,127.7 753.9,127.7 754.3,127.6 754.7,127.5 755.1,127.4 755.5,127.1 759.7,127.0 760.1,126.9 763.6,126.6 764.4,126.3 764.7,126.2 765.1,126.1 765.5,126.0 766.7,125.9 767.1,125.2 767.5,123.7 767.8,122.3 768.2,122.3 768.6,122.1 769.4,121.9 769.8,121.7 770.2,121.4 770.9,121.3 771.3,120.9 771.7,120.9 772.5,120.3 772.9,120.2 773.2,119.9 773.6,119.7 774.0,119.4 774.4,119.4 775.6,119.0 776.0,118.7 776.3,117.7 776.7,116.3 777.1,115.7 777.5,115.1 777.9,115.0 778.3,114.8 778.7,114.6 779.0,114.2 779.4,113.8 779.8,113.7 780.2,113.4 780.6,113.3 781.0,113.0 781.4,112.6 781.7,112.3 782.1,111.9 782.5,111.8 782.9,111.6 783.3,110.9 783.7,109.6 784.1,109.4 784.8,109.1 785.2,109.0 785.6,108.9 786.0,106.8 786.4,105.8 786.8,104.9 787.2,104.5 787.5,102.9 787.9,102.8 788.3,102.7 788.7,102.3 789.1,101.6 789.5,100.2 789.9,98.8 790.2,98.7 790.6,98.4 791.4,98.3 791.8,97.5 792.2,96.8 792.6,95.9 793.0,95.7 793.3,95.7 793.7,94.3 794.1,92.6 794.5,91.9 794.9,91.5 795.3,91.1 795.7,90.7 796.0,90.7 796.8,90.5 797.2,90.2 797.6,90.1 798.0,90.1 798.4,90.0 799.5,90.0 799.9,89.9 800.7,89.8 801.5,89.8 801.8,89.7 802.6,89.1 803.0,88.8 803.4,88.6 805.7,88.5 806.1,88.2 806.5,88.1 806.9,87.8 807.2,87.7 807.6,87.6 808.0,87.5 808.4,86.9 808.8,86.2 809.2,86.0 809.6,84.7 810.0,84.5 810.7,84.5 811.1,84.4 812.3,84.0 812.7,83.5 813.0,83.2 813.4,82.9 813.8,81.9 814.2,78.2 814.6,76.6 815.0,76.4 815.4,76.1 815.7,75.4 816.1,75.3 816.5,70.1 816.9,63.7 817.3,61.8 817.7,61.8 818.1,60.8 818.5,60.0 818.8,56.2 819.2,54.7 819.6,53.4 820.0,52.7"/>

  <g class="hoverpoint">
    <line x1="182.5" y1="30" x2="182.5" y2="160.0" class="guide"/>
    <circle cx="182.5" cy="159.7" r="16" class="hit"/>
    <circle cx="182.5" cy="159.7" r="4" class="hover-dot"><title>Nov 2021: 7 total (+7 this month)</title></circle>
    <rect x="112.5" y="133.7" width="140" height="20" rx="4" class="tooltip-bg"/>
    <text x="182.5" y="147.7" class="tooltip-text" text-anchor="middle">Nov 2021: 7 total (+7 this month)</text>
  </g>
  <g class="hoverpoint">
    <line x1="211.1" y1="30" x2="211.1" y2="160.0" class="guide"/>
    <circle cx="211.1" cy="158.2" r="16" class="hit"/>
    <circle cx="211.1" cy="158.2" r="4" class="hover-dot"><title>Jan 2022: 41 total (+34 this month)</title></circle>
    <rect x="141.1" y="132.2" width="140" height="20" rx="4" class="tooltip-bg"/>
    <text x="211.1" y="146.2" class="tooltip-text" text-anchor="middle">Jan 2022: 41 total (+34 this month)</text>
  </g>
  <g class="hoverpoint">
    <line x1="221.1" y1="30" x2="221.1" y2="160.0" class="guide"/>
    <circle cx="221.1" cy="158.1" r="16" class="hit"/>
    <circle cx="221.1" cy="158.1" r="4" class="hover-dot"><title>Feb 2022: 44 total (+3 this month)</title></circle>
    <rect x="151.1" y="132.1" width="140" height="20" rx="4" class="tooltip-bg"/>
    <text x="221.1" y="146.1" class="tooltip-text" text-anchor="middle">Feb 2022: 44 total (+3 this month)</text>
  </g>
  <g class="hoverpoint">
    <line x1="282.6" y1="30" x2="282.6" y2="160.0" class="guide"/>
    <circle cx="282.6" cy="157.2" r="16" class="hit"/>
    <circle cx="282.6" cy="157.2" r="4" class="hover-dot"><title>Jul 2022: 65 total (+21 this month)</title></circle>
    <rect x="212.6" y="131.2" width="140" height="20" rx="4" class="tooltip-bg"/>
    <text x="282.6" y="145.2" class="tooltip-text" text-anchor="middle">Jul 2022: 65 total (+21 this month)</text>
  </g>
  <g class="hoverpoint">
    <line x1="290.3" y1="30" x2="290.3" y2="160.0" class="guide"/>
    <circle cx="290.3" cy="155.6" r="16" class="hit"/>
    <circle cx="290.3" cy="155.6" r="4" class="hover-dot"><title>Aug 2022: 101 total (+36 this month)</title></circle>
    <rect x="220.3" y="129.6" width="140" height="20" rx="4" class="tooltip-bg"/>
    <text x="290.3" y="143.6" class="tooltip-text" text-anchor="middle">Aug 2022: 101 total (+36 this month)</text>
  </g>
  <g class="hoverpoint">
    <line x1="306.1" y1="30" x2="306.1" y2="160.0" class="guide"/>
    <circle cx="306.1" cy="155.3" r="16" class="hit"/>
    <circle cx="306.1" cy="155.3" r="4" class="hover-dot"><title>Sep 2022: 108 total (+7 this month)</title></circle>
    <rect x="236.1" y="129.3" width="140" height="20" rx="4" class="tooltip-bg"/>
    <text x="306.1" y="143.3" class="tooltip-text" text-anchor="middle">Sep 2022: 108 total (+7 this month)</text>
  </g>
  <g class="hoverpoint">
    <line x1="317.7" y1="30" x2="317.7" y2="160.0" class="guide"/>
    <circle cx="317.7" cy="154.5" r="16" class="hit"/>
    <circle cx="317.7" cy="154.5" r="4" class="hover-dot"><title>Oct 2022: 128 total (+20 this month)</title></circle>
    <rect x="247.7" y="128.5" width="140" height="20" rx="4" class="tooltip-bg"/>
    <text x="317.7" y="142.5" class="tooltip-text" text-anchor="middle">Oct 2022: 128 total (+20 this month)</text>
  </g>
  <g class="hoverpoint">
    <line x1="328.1" y1="30" x2="328.1" y2="160.0" class="guide"/>
    <circle cx="328.1" cy="152.7" r="16" class="hit"/>
    <circle cx="328.1" cy="152.7" r="4" class="hover-dot"><title>Nov 2022: 168 total (+40 this month)</title></circle>
    <rect x="258.1" y="126.7" width="140" height="20" rx="4" class="tooltip-bg"/>
    <text x="328.1" y="140.7" class="tooltip-text" text-anchor="middle">Nov 2022: 168 total (+40 this month)</text>
  </g>
  <g class="hoverpoint">
    <line x1="340.1" y1="30" x2="340.1" y2="160.0" class="guide"/>
    <circle cx="340.1" cy="152.4" r="16" class="hit"/>
    <circle cx="340.1" cy="152.4" r="4" class="hover-dot"><title>Dec 2022: 175 total (+7 this month)</title></circle>
    <rect x="270.1" y="126.4" width="140" height="20" rx="4" class="tooltip-bg"/>
    <text x="340.1" y="140.4" class="tooltip-text" text-anchor="middle">Dec 2022: 175 total (+7 this month)</text>
  </g>
  <g class="hoverpoint">
    <line x1="347.8" y1="30" x2="347.8" y2="160.0" class="guide"/>
    <circle cx="347.8" cy="150.7" r="16" class="hit"/>
    <circle cx="347.8" cy="150.7" r="4" class="hover-dot"><title>Jan 2023: 214 total (+39 this month)</title></circle>
    <rect x="277.8" y="124.7" width="140" height="20" rx="4" class="tooltip-bg"/>
    <text x="347.8" y="138.7" class="tooltip-text" text-anchor="middle">Jan 2023: 214 total (+39 this month)</text>
  </g>
  <g class="hoverpoint">
    <line x1="362.5" y1="30" x2="362.5" y2="160.0" class="guide"/>
    <circle cx="362.5" cy="150.2" r="16" class="hit"/>
    <circle cx="362.5" cy="150.2" r="4" class="hover-dot"><title>Feb 2023: 225 total (+11 this month)</title></circle>
    <rect x="292.5" y="124.2" width="140" height="20" rx="4" class="tooltip-bg"/>
    <text x="362.5" y="138.2" class="tooltip-text" text-anchor="middle">Feb 2023: 225 total (+11 this month)</text>
  </g>
  <g class="hoverpoint">
    <line x1="368.3" y1="30" x2="368.3" y2="160.0" class="guide"/>
    <circle cx="368.3" cy="149.7" r="16" class="hit"/>
    <circle cx="368.3" cy="149.7" r="4" class="hover-dot"><title>Mar 2023: 237 total (+12 this month)</title></circle>
    <rect x="298.3" y="123.7" width="140" height="20" rx="4" class="tooltip-bg"/>
    <text x="368.3" y="137.7" class="tooltip-text" text-anchor="middle">Mar 2023: 237 total (+12 this month)</text>
  </g>
  <g class="hoverpoint">
    <line x1="377.6" y1="30" x2="377.6" y2="160.0" class="guide"/>
    <circle cx="377.6" cy="149.6" r="16" class="hit"/>
    <circle cx="377.6" cy="149.6" r="4" class="hover-dot"><title>Apr 2023: 240 total (+3 this month)</title></circle>
    <rect x="307.6" y="123.6" width="140" height="20" rx="4" class="tooltip-bg"/>
    <text x="377.6" y="137.6" class="tooltip-text" text-anchor="middle">Apr 2023: 240 total (+3 this month)</text>
  </g>
  <g class="hoverpoint">
    <line x1="575.4" y1="30" x2="575.4" y2="160.0" class="guide"/>
    <circle cx="575.4" cy="149.1" r="16" class="hit"/>
    <circle cx="575.4" cy="149.1" r="4" class="hover-dot"><title>Aug 2024: 252 total (+12 this month)</title></circle>
    <rect x="505.4" y="123.1" width="140" height="20" rx="4" class="tooltip-bg"/>
    <text x="575.4" y="137.1" class="tooltip-text" text-anchor="middle">Aug 2024: 252 total (+12 this month)</text>
  </g>
  <g class="hoverpoint">
    <line x1="586.2" y1="30" x2="586.2" y2="160.0" class="guide"/>
    <circle cx="586.2" cy="149.0" r="16" class="hit"/>
    <circle cx="586.2" cy="149.0" r="4" class="hover-dot"><title>Sep 2024: 253 total (+1 this month)</title></circle>
    <rect x="516.2" y="123.0" width="140" height="20" rx="4" class="tooltip-bg"/>
    <text x="586.2" y="137.0" class="tooltip-text" text-anchor="middle">Sep 2024: 253 total (+1 this month)</text>
  </g>
  <g class="hoverpoint">
    <line x1="599.0" y1="30" x2="599.0" y2="160.0" class="guide"/>
    <circle cx="599.0" cy="148.7" r="16" class="hit"/>
    <circle cx="599.0" cy="148.7" r="4" class="hover-dot"><title>Oct 2024: 261 total (+8 this month)</title></circle>
    <rect x="529.0" y="122.7" width="140" height="20" rx="4" class="tooltip-bg"/>
    <text x="599.0" y="136.7" class="tooltip-text" text-anchor="middle">Oct 2024: 261 total (+8 this month)</text>
  </g>
  <g class="hoverpoint">
    <line x1="632.2" y1="30" x2="632.2" y2="160.0" class="guide"/>
    <circle cx="632.2" cy="148.3" r="16" class="hit"/>
    <circle cx="632.2" cy="148.3" r="4" class="hover-dot"><title>Jan 2025: 270 total (+9 this month)</title></circle>
    <rect x="562.2" y="122.3" width="140" height="20" rx="4" class="tooltip-bg"/>
    <text x="632.2" y="136.3" class="tooltip-text" text-anchor="middle">Jan 2025: 270 total (+9 this month)</text>
  </g>
  <g class="hoverpoint">
    <line x1="637.6" y1="30" x2="637.6" y2="160.0" class="guide"/>
    <circle cx="637.6" cy="148.2" r="16" class="hit"/>
    <circle cx="637.6" cy="148.2" r="4" class="hover-dot"><title>Feb 2025: 272 total (+2 this month)</title></circle>
    <rect x="567.6" y="122.2" width="140" height="20" rx="4" class="tooltip-bg"/>
    <text x="637.6" y="136.2" class="tooltip-text" text-anchor="middle">Feb 2025: 272 total (+2 this month)</text>
  </g>
  <g class="hoverpoint">
    <line x1="657.3" y1="30" x2="657.3" y2="160.0" class="guide"/>
    <circle cx="657.3" cy="147.3" r="16" class="hit"/>
    <circle cx="657.3" cy="147.3" r="4" class="hover-dot"><title>Mar 2025: 294 total (+22 this month)</title></circle>
    <rect x="587.3" y="121.3" width="140" height="20" rx="4" class="tooltip-bg"/>
    <text x="657.3" y="135.3" class="tooltip-text" text-anchor="middle">Mar 2025: 294 total (+22 this month)</text>
  </g>
  <g class="hoverpoint">
    <line x1="670.5" y1="30" x2="670.5" y2="160.0" class="guide"/>
    <circle cx="670.5" cy="144.8" r="16" class="hit"/>
    <circle cx="670.5" cy="144.8" r="4" class="hover-dot"><title>Apr 2025: 351 total (+57 this month)</title></circle>
    <rect x="600.5" y="118.8" width="140" height="20" rx="4" class="tooltip-bg"/>
    <text x="670.5" y="132.8" class="tooltip-text" text-anchor="middle">Apr 2025: 351 total (+57 this month)</text>
  </g>
  <g class="hoverpoint">
    <line x1="677.8" y1="30" x2="677.8" y2="160.0" class="guide"/>
    <circle cx="677.8" cy="142.3" r="16" class="hit"/>
    <circle cx="677.8" cy="142.3" r="4" class="hover-dot"><title>May 2025: 408 total (+57 this month)</title></circle>
    <rect x="607.8" y="116.3" width="140" height="20" rx="4" class="tooltip-bg"/>
    <text x="677.8" y="130.3" class="tooltip-text" text-anchor="middle">May 2025: 408 total (+57 this month)</text>
  </g>
  <g class="hoverpoint">
    <line x1="692.5" y1="30" x2="692.5" y2="160.0" class="guide"/>
    <circle cx="692.5" cy="141.6" r="16" class="hit"/>
    <circle cx="692.5" cy="141.6" r="4" class="hover-dot"><title>Jun 2025: 424 total (+16 this month)</title></circle>
    <rect x="622.5" y="115.6" width="140" height="20" rx="4" class="tooltip-bg"/>
    <text x="692.5" y="129.6" class="tooltip-text" text-anchor="middle">Jun 2025: 424 total (+16 this month)</text>
  </g>
  <g class="hoverpoint">
    <line x1="706.0" y1="30" x2="706.0" y2="160.0" class="guide"/>
    <circle cx="706.0" cy="141.3" r="16" class="hit"/>
    <circle cx="706.0" cy="141.3" r="4" class="hover-dot"><title>Jul 2025: 432 total (+8 this month)</title></circle>
    <rect x="636.0" y="115.3" width="140" height="20" rx="4" class="tooltip-bg"/>
    <text x="706.0" y="129.3" class="tooltip-text" text-anchor="middle">Jul 2025: 432 total (+8 this month)</text>
  </g>
  <g class="hoverpoint">
    <line x1="716.8" y1="30" x2="716.8" y2="160.0" class="guide"/>
    <circle cx="716.8" cy="139.4" r="16" class="hit"/>
    <circle cx="716.8" cy="139.4" r="4" class="hover-dot"><title>Aug 2025: 475 total (+43 this month)</title></circle>
    <rect x="646.8" y="113.4" width="140" height="20" rx="4" class="tooltip-bg"/>
    <text x="716.8" y="127.4" class="tooltip-text" text-anchor="middle">Aug 2025: 475 total (+43 this month)</text>
  </g>
  <g class="hoverpoint">
    <line x1="729.6" y1="30" x2="729.6" y2="160.0" class="guide"/>
    <circle cx="729.6" cy="137.2" r="16" class="hit"/>
    <circle cx="729.6" cy="137.2" r="4" class="hover-dot"><title>Sep 2025: 526 total (+51 this month)</title></circle>
    <rect x="659.6" y="111.2" width="140" height="20" rx="4" class="tooltip-bg"/>
    <text x="729.6" y="125.2" class="tooltip-text" text-anchor="middle">Sep 2025: 526 total (+51 this month)</text>
  </g>
  <g class="hoverpoint">
    <line x1="741.6" y1="30" x2="741.6" y2="160.0" class="guide"/>
    <circle cx="741.6" cy="130.0" r="16" class="hit"/>
    <circle cx="741.6" cy="130.0" r="4" class="hover-dot"><title>Oct 2025: 692 total (+166 this month)</title></circle>
    <rect x="671.6" y="104.0" width="140" height="20" rx="4" class="tooltip-bg"/>
    <text x="741.6" y="118.0" class="tooltip-text" text-anchor="middle">Oct 2025: 692 total (+166 this month)</text>
  </g>
  <g class="hoverpoint">
    <line x1="753.2" y1="30" x2="753.2" y2="160.0" class="guide"/>
    <circle cx="753.2" cy="128.3" r="16" class="hit"/>
    <circle cx="753.2" cy="128.3" r="4" class="hover-dot"><title>Nov 2025: 731 total (+39 this month)</title></circle>
    <rect x="683.2" y="102.3" width="140" height="20" rx="4" class="tooltip-bg"/>
    <text x="753.2" y="116.3" class="tooltip-text" text-anchor="middle">Nov 2025: 731 total (+39 this month)</text>
  </g>
  <g class="hoverpoint">
    <line x1="765.1" y1="30" x2="765.1" y2="160.0" class="guide"/>
    <circle cx="765.1" cy="126.1" r="16" class="hit"/>
    <circle cx="765.1" cy="126.1" r="4" class="hover-dot"><title>Dec 2025: 783 total (+52 this month)</title></circle>
    <rect x="695.1" y="100.1" width="140" height="20" rx="4" class="tooltip-bg"/>
    <text x="765.1" y="114.1" class="tooltip-text" text-anchor="middle">Dec 2025: 783 total (+52 this month)</text>
  </g>
  <g class="hoverpoint">
    <line x1="777.1" y1="30" x2="777.1" y2="160.0" class="guide"/>
    <circle cx="777.1" cy="115.7" r="16" class="hit"/>
    <circle cx="777.1" cy="115.7" r="4" class="hover-dot"><title>Jan 2026: 1,022 total (+239 this month)</title></circle>
    <rect x="707.1" y="89.7" width="140" height="20" rx="4" class="tooltip-bg"/>
    <text x="777.1" y="103.7" class="tooltip-text" text-anchor="middle">Jan 2026: 1,022 total (+239 this month)</text>
  </g>
  <g class="hoverpoint">
    <line x1="787.9" y1="30" x2="787.9" y2="160.0" class="guide"/>
    <circle cx="787.9" cy="102.8" r="16" class="hit"/>
    <circle cx="787.9" cy="102.8" r="4" class="hover-dot"><title>Feb 2026: 1,321 total (+299 this month)</title></circle>
    <rect x="717.9" y="76.8" width="140" height="20" rx="4" class="tooltip-bg"/>
    <text x="787.9" y="90.8" class="tooltip-text" text-anchor="middle">Feb 2026: 1,321 total (+299 this month)</text>
  </g>
  <g class="hoverpoint">
    <line x1="799.9" y1="30" x2="799.9" y2="160.0" class="guide"/>
    <circle cx="799.9" cy="89.9" r="16" class="hit"/>
    <circle cx="799.9" cy="89.9" r="4" class="hover-dot"><title>Mar 2026: 1,617 total (+296 this month)</title></circle>
    <rect x="729.9" y="63.9" width="140" height="20" rx="4" class="tooltip-bg"/>
    <text x="799.9" y="77.9" class="tooltip-text" text-anchor="middle">Mar 2026: 1,617 total (+296 this month)</text>
  </g>
  <g class="hoverpoint">
    <line x1="811.1" y1="30" x2="811.1" y2="160.0" class="guide"/>
    <circle cx="811.1" cy="84.4" r="16" class="hit"/>
    <circle cx="811.1" cy="84.4" r="4" class="hover-dot"><title>Apr 2026: 1,744 total (+127 this month)</title></circle>
    <rect x="741.1" y="58.4" width="140" height="20" rx="4" class="tooltip-bg"/>
    <text x="811.1" y="72.4" class="tooltip-text" text-anchor="middle">Apr 2026: 1,744 total (+127 this month)</text>
  </g>
  <g class="hoverpoint">
    <line x1="820.0" y1="30" x2="820.0" y2="160.0" class="guide"/>
    <circle cx="820.0" cy="52.7" r="16" class="hit"/>
    <circle cx="820.0" cy="52.7" r="4" class="hover-dot"><title>May 2026: 2,477 total (+733 this month)</title></circle>
    <rect x="750.0" y="26.7" width="140" height="20" rx="4" class="tooltip-bg"/>
    <text x="820.0" y="40.7" class="tooltip-text" text-anchor="middle">May 2026: 2,477 total (+733 this month)</text>
  </g>

  <circle cx="820.0" cy="52.7" r="4" class="dot"/>
  <text x="810.0" y="42.7" class="total">2,477</text>

</svg>