<svg xmlns="http://www.w3.org/2000/svg" width="840" height="196" viewBox="0 0 840 196" fill="none">
  <style>
    .label { font-family: -apple-system, BlinkMacSystemFont, 'Segoe UI', Helvetica, Arial, sans-serif; font-size: 10px; fill: #8b949e; }
    .title { font-family: -apple-system, BlinkMacSystemFont, 'Segoe UI', Helvetica, Arial, sans-serif; font-size: 11px; fill: #8b949e; font-weight: 600; }
    .total { font-family: -apple-system, BlinkMacSystemFont, 'Segoe UI', Helvetica, Arial, sans-serif; font-size: 11px; fill: #7ee787; font-weight: 600; }
    .grid { stroke: #21262d; stroke-width: 1; }
    .line { stroke: #7ee787; stroke-width: 2; stroke-linecap: round; stroke-linejoin: round; fill: none; }
    .dot { fill: #7ee787; }
    .area { fill: url(#areaGrad); }
    /* Hover interaction */
    .hoverpoint .guide { stroke: #7ee787; stroke-width: 1; stroke-dasharray: 2,2; opacity: 0; }
    .hoverpoint .hover-dot { fill: #7ee787; opacity: 0; }
    .hoverpoint .hit { fill: transparent; cursor: pointer; }
    .hoverpoint .tooltip-bg { fill: #161b22; stroke: #30363d; stroke-width: 1; opacity: 0; }
    .hoverpoint .tooltip-text { font-family: -apple-system, BlinkMacSystemFont, 'Segoe UI', Helvetica, Arial, sans-serif; font-size: 9px; fill: #c9d1d9; opacity: 0; }
    .hoverpoint:hover .guide { opacity: 0.5; }
    .hoverpoint:hover .hover-dot { opacity: 1; }
    .hoverpoint:hover .tooltip-bg { opacity: 0.95; }
    .hoverpoint:hover .tooltip-text { opacity: 1; }
  </style>
  <defs>
    <linearGradient id="areaGrad" x1="0" y1="0" x2="0" y2="1">
      <stop offset="0%" stop-color="#7ee787" stop-opacity="0.15"/>
      <stop offset="100%" stop-color="#7ee787" stop-opacity="0.01"/>
    </linearGradient>
  </defs>

  <text x="60" y="18" class="title">Cumulative Commits</text>

  <line x1="60" y1="160.0" x2="820" y2="160.0" class="grid"/>
  <text x="50" y="163.0" class="label" text-anchor="end">0</text>
  <line x1="60" y1="127.5" x2="820" y2="127.5" class="grid" stroke-dasharray="3,3"/>
  <text x="50" y="130.5" class="label" text-anchor="end">500</text>
  <line x1="60" y1="95.0" x2="820" y2="95.0" class="grid" stroke-dasharray="3,3"/>
  <text x="50" y="98.0" class="label" text-anchor="end">1,000</text>
  <line x1="60" y1="62.5" x2="820" y2="62.5" class="grid" stroke-dasharray="3,3"/>
  <text x="50" y="65.5" class="label" text-anchor="end">1,500</text>
  <line x1="60" y1="30.0" x2="820" y2="30.0" class="grid" stroke-dasharray="3,3"/>
  <text x="50" y="33.0" class="label" text-anchor="end">2,000</text>

  <text x="70.0" y="186" class="label" text-anchor="middle">2021</text>
  <text x="204.7" y="186" class="label" text-anchor="middle">2022</text>
  <text x="349.4" y="186" class="label" text-anchor="middle">2023</text>
  <text x="494.1" y="186" class="label" text-anchor="middle">2024</text>
  <text x="639.2" y="186" class="label" text-anchor="middle">2025</text>
  <text x="783.9" y="186" class="label" text-anchor="middle">2026</text>


  <path class="area" d="M60.0,160.0 L60.0,160.0 60.0,160.0 L184.1,159.7 L184.5,159.6 L185.7,159.5 L204.7,159.4 L205.1,159.0 L205.5,158.9 L205.9,158.6 L206.3,158.6 L206.7,158.4 L207.5,158.1 L207.9,157.9 L208.3,157.8 L208.7,157.7 L210.3,157.5 L210.7,157.5 L211.0,157.4 L215.0,157.3 L225.3,157.1 L279.6,157.1 L280.0,156.5 L281.6,156.4 L282.4,155.9 L288.4,155.8 L289.1,155.6 L289.5,155.4 L289.9,155.3 L290.7,155.1 L291.1,154.7 L291.5,154.0 L291.9,153.9 L293.5,153.6 L294.3,153.6 L296.3,153.4 L301.8,153.2 L312.5,153.0 L318.5,152.9 L321.3,152.8 L321.7,152.7 L322.1,152.5 L322.5,152.3 L323.6,151.8 L324.0,151.7 L324.4,151.7 L326.0,151.4 L326.4,151.1 L326.8,151.0 L327.2,150.4 L327.6,149.9 L328.0,149.7 L328.4,149.5 L329.2,149.4 L330.8,149.3 L335.1,149.1 L346.6,149.0 L347.0,148.7 L347.4,148.6 L351.4,148.0 L351.8,146.5 L353.0,146.3 L353.4,146.3 L355.4,146.1 L368.8,145.8 L369.2,145.7 L369.6,145.6 L370.4,145.4 L373.2,145.2 L374.0,144.9 L374.4,144.7 L376.4,144.6 L385.9,144.4 L580.9,144.3 L581.7,144.2 L582.5,144.1 L583.3,144.0 L583.7,143.9 L584.1,143.8 L584.5,143.8 L584.9,143.7 L588.9,143.6 L600.0,143.6 L603.1,143.5 L604.3,143.4 L606.7,143.4 L609.1,143.3 L609.5,143.2 L611.1,143.2 L612.3,143.1 L613.1,143.0 L642.4,143.0 L642.8,142.8 L643.6,142.8 L644.0,142.7 L645.2,142.5 L647.1,142.4 L652.7,142.3 L664.2,141.7 L664.6,141.5 L669.7,141.3 L670.1,141.2 L671.3,141.1 L672.9,140.9 L674.9,140.2 L675.3,138.4 L675.7,138.3 L678.1,138.2 L679.3,138.1 L679.7,138.0 L680.4,137.8 L683.6,137.7 L686.4,137.2 L688.4,136.7 L688.8,136.5 L690.0,136.2 L690.4,135.4 L690.8,135.2 L691.2,134.9 L691.5,134.7 L691.9,134.4 L692.7,133.9 L693.9,133.5 L708.2,133.3 L709.0,132.4 L717.7,132.2 L722.9,131.9 L725.2,131.9 L725.6,131.8 L728.0,131.7 L728.4,131.7 L728.8,131.6 L729.2,131.4 L729.6,131.1 L730.0,130.5 L730.4,130.4 L732.8,129.4 L733.2,129.3 L734.0,129.1 L736.7,128.8 L737.5,128.7 L737.9,128.5 L738.7,128.5 L739.1,128.0 L739.5,127.9 L740.3,127.8 L740.7,127.6 L741.1,127.6 L741.5,127.5 L743.1,127.1 L743.5,127.0 L743.9,126.8 L744.3,126.7 L744.7,126.6 L745.1,126.4 L746.3,126.1 L746.7,125.9 L747.1,125.8 L747.4,125.6 L747.8,125.2 L748.6,125.1 L749.0,124.4 L749.4,124.1 L749.8,122.8 L750.2,122.5 L750.6,122.2 L751.0,121.5 L751.4,121.4 L751.8,121.2 L752.2,121.1 L752.6,120.7 L754.6,120.0 L755.0,119.8 L755.4,119.2 L755.8,118.1 L756.2,118.0 L757.0,117.9 L757.4,116.9 L757.8,116.4 L758.2,116.3 L758.5,115.3 L759.3,115.0 L759.7,114.9 L760.1,114.8 L760.5,114.7 L760.9,114.6 L761.3,114.6 L762.9,114.4 L763.7,114.3 L764.1,113.8 L764.5,113.5 L765.7,113.5 L767.7,113.3 L770.0,113.1 L770.4,112.9 L770.8,112.9 L771.2,112.5 L771.6,111.6 L772.0,111.5 L772.4,111.4 L772.8,111.3 L773.2,111.1 L773.6,110.6 L778.0,110.5 L778.4,110.4 L781.9,109.9 L782.7,109.5 L783.1,109.4 L783.5,109.1 L783.9,109.0 L785.1,108.8 L785.5,107.9 L785.9,105.5 L786.3,103.5 L786.7,103.4 L787.1,103.1 L787.9,102.8 L788.3,102.5 L788.7,102.1 L789.5,102.0 L789.9,101.4 L790.3,101.3 L791.1,100.4 L791.5,100.3 L791.9,99.8 L792.2,99.5 L792.6,99.1 L793.0,99.0 L794.2,98.4 L794.6,98.1 L795.0,96.6 L795.4,94.4 L795.8,93.6 L796.2,92.6 L796.6,92.5 L797.0,92.1 L797.4,91.9 L797.8,91.4 L798.2,90.6 L798.6,90.6 L799.0,90.1 L799.4,90.0 L799.8,89.5 L800.2,89.0 L800.6,88.4 L801.0,87.8 L801.4,87.7 L801.8,87.5 L802.2,86.4 L802.6,84.4 L803.0,84.1 L803.7,83.7 L804.1,83.5 L804.5,83.4 L804.9,80.2 L805.3,78.8 L805.7,77.3 L806.1,76.8 L806.5,74.4 L806.9,74.1 L807.3,74.0 L807.7,73.5 L808.1,72.4 L808.5,70.4 L808.9,68.2 L809.3,68.1 L809.7,67.6 L810.5,67.5 L810.9,66.2 L811.3,65.2 L811.7,63.8 L812.1,63.6 L812.5,63.5 L812.9,61.4 L813.3,58.9 L813.7,57.8 L814.1,57.3 L814.4,56.6 L814.8,56.1 L815.2,56.0 L816.0,55.7 L816.4,55.3 L816.8,55.2 L817.2,55.1 L817.6,55.0 L818.8,55.0 L819.2,54.9 L820.0,54.8 L820.0,160.0 Z"/>
  <polyline class="line" points="60.0,160.0 184.1,159.7 184.5,159.6 185.7,159.5 204.7,159.4 205.1,159.0 205.5,158.9 205.9,158.6 206.3,158.6 206.7,158.4 207.5,158.1 207.9,157.9 208.3,157.8 208.7,157.7 210.3,157.5 210.7,157.5 211.0,157.4 215.0,157.3 225.3,157.1 279.6,157.1 280.0,156.5 281.6,156.4 282.4,155.9 288.4,155.8 289.1,155.6 289.5,155.4 289.9,155.3 290.7,155.1 291.1,154.7 291.5,154.0 291.9,153.9 293.5,153.6 294.3,153.6 296.3,153.4 301.8,153.2 312.5,153.0 318.5,152.9 321.3,152.8 321.7,152.7 322.1,152.5 322.5,152.3 323.6,151.8 324.0,151.7 324.4,151.7 326.0,151.4 326.4,151.1 326.8,151.0 327.2,150.4 327.6,149.9 328.0,149.7 328.4,149.5 329.2,149.4 330.8,149.3 335.1,149.1 346.6,149.0 347.0,148.7 347.4,148.6 351.4,148.0 351.8,146.5 353.0,146.3 353.4,146.3 355.4,146.1 368.8,145.8 369.2,145.7 369.6,145.6 370.4,145.4 373.2,145.2 374.0,144.9 374.4,144.7 376.4,144.6 385.9,144.4 580.9,144.3 581.7,144.2 582.5,144.1 583.3,144.0 583.7,143.9 584.1,143.8 584.5,143.8 584.9,143.7 588.9,143.6 600.0,143.6 603.1,143.5 604.3,143.4 606.7,143.4 609.1,143.3 609.5,143.2 611.1,143.2 612.3,143.1 613.1,143.0 642.4,143.0 642.8,142.8 643.6,142.8 644.0,142.7 645.2,142.5 647.1,142.4 652.7,142.3 664.2,141.7 664.6,141.5 669.7,141.3 670.1,141.2 671.3,141.1 672.9,140.9 674.9,140.2 675.3,138.4 675.7,138.3 678.1,138.2 679.3,138.1 679.7,138.0 680.4,137.8 683.6,137.7 686.4,137.2 688.4,136.7 688.8,136.5 690.0,136.2 690.4,135.4 690.8,135.2 691.2,134.9 691.5,134.7 691.9,134.4 692.7,133.9 693.9,133.5 708.2,133.3 709.0,132.4 717.7,132.2 722.9,131.9 725.2,131.9 725.6,131.8 728.0,131.7 728.4,131.7 728.8,131.6 729.2,131.4 729.6,131.1 730.0,130.5 730.4,130.4 732.8,129.4 733.2,129.3 734.0,129.1 736.7,128.8 737.5,128.7 737.9,128.5 738.7,128.5 739.1,128.0 739.5,127.9 740.3,127.8 740.7,127.6 741.1,127.6 741.5,127.5 743.1,127.1 743.5,127.0 743.9,126.8 744.3,126.7 744.7,126.6 745.1,126.4 746.3,126.1 746.7,125.9 747.1,125.8 747.4,125.6 747.8,125.2 748.6,125.1 749.0,124.4 749.4,124.1 749.8,122.8 750.2,122.5 750.6,122.2 751.0,121.5 751.4,121.4 751.8,121.2 752.2,121.1 752.6,120.7 754.6,120.0 755.0,119.8 755.4,119.2 755.8,118.1 756.2,118.0 757.0,117.9 757.4,116.9 757.8,116.4 758.2,116.3 758.5,115.3 759.3,115.0 759.7,114.9 760.1,114.8 760.5,114.7 760.9,114.6 761.3,114.6 762.9,114.4 763.7,114.3 764.1,113.8 764.5,113.5 765.7,113.5 767.7,113.3 770.0,113.1 770.4,112.9 770.8,112.9 771.2,112.5 771.6,111.6 772.0,111.5 772.4,111.4 772.8,111.3 773.2,111.1 773.6,110.6 778.0,110.5 778.4,110.4 781.9,109.9 782.7,109.5 783.1,109.4 783.5,109.1 783.9,109.0 785.1,108.8 785.5,107.9 785.9,105.5 786.3,103.5 786.7,103.4 787.1,103.1 787.9,102.8 788.3,102.5 788.7,102.1 789.5,102.0 789.9,101.4 790.3,101.3 791.1,100.4 791.5,100.3 791.9,99.8 792.2,99.5 792.6,99.1 793.0,99.0 794.2,98.4 794.6,98.1 795.0,96.6 795.4,94.4 795.8,93.6 796.2,92.6 796.6,92.5 797.0,92.1 797.4,91.9 797.8,91.4 798.2,90.6 798.6,90.6 799.0,90.1 799.4,90.0 799.8,89.5 800.2,89.0 800.6,88.4 801.0,87.8 801.4,87.7 801.8,87.5 802.2,86.4 802.6,84.4 803.0,84.1 803.7,83.7 804.1,83.5 804.5,83.4 804.9,80.2 805.3,78.8 805.7,77.3 806.1,76.8 806.5,74.4 806.9,74.1 807.3,74.0 807.7,73.5 808.1,72.4 808.5,70.4 808.9,68.2 809.3,68.1 809.7,67.6 810.5,67.5 810.9,66.2 811.3,65.2 811.7,63.8 812.1,63.6 812.5,63.5 812.9,61.4 813.3,58.9 813.7,57.8 814.1,57.3 814.4,56.6 814.8,56.1 815.2,56.0 816.0,55.7 816.4,55.3 816.8,55.2 817.2,55.1 817.6,55.0 818.8,55.0 819.2,54.9 820.0,54.8"/>

  <g class="hoverpoint">
    <line x1="185.7" y1="30" x2="185.7" y2="160.0" class="guide"/>
    <circle cx="185.7" cy="159.5" r="16" class="hit"/>
    <circle cx="185.7" cy="159.5" r="4" class="hover-dot"><title>Nov 2021: 7 total (+7 this month)</title></circle>
    <rect x="115.7" y="133.5" width="140" height="20" rx="4" class="tooltip-bg"/>
    <text x="185.7" y="147.5" class="tooltip-text" text-anchor="middle">Nov 2021: 7 total (+7 this month)</text>
  </g>
  <g class="hoverpoint">
    <line x1="215.0" y1="30" x2="215.0" y2="160.0" class="guide"/>
    <circle cx="215.0" cy="157.3" r="16" class="hit"/>
    <circle cx="215.0" cy="157.3" r="4" class="hover-dot"><title>Jan 2022: 41 total (+34 this month)</title></circle>
    <rect x="145.0" y="131.3" width="140" height="20" rx="4" class="tooltip-bg"/>
    <text x="215.0" y="145.3" class="tooltip-text" text-anchor="middle">Jan 2022: 41 total (+34 this month)</text>
  </g>
  <g class="hoverpoint">
    <line x1="225.3" y1="30" x2="225.3" y2="160.0" class="guide"/>
    <circle cx="225.3" cy="157.1" r="16" class="hit"/>
    <circle cx="225.3" cy="157.1" r="4" class="hover-dot"><title>Feb 2022: 44 total (+3 this month)</title></circle>
    <rect x="155.3" y="131.1" width="140" height="20" rx="4" class="tooltip-bg"/>
    <text x="225.3" y="145.1" class="tooltip-text" text-anchor="middle">Feb 2022: 44 total (+3 this month)</text>
  </g>
  <g class="hoverpoint">
    <line x1="288.4" y1="30" x2="288.4" y2="160.0" class="guide"/>
    <circle cx="288.4" cy="155.8" r="16" class="hit"/>
    <circle cx="288.4" cy="155.8" r="4" class="hover-dot"><title>Jul 2022: 65 total (+21 this month)</title></circle>
    <rect x="218.4" y="129.8" width="140" height="20" rx="4" class="tooltip-bg"/>
    <text x="288.4" y="143.8" class="tooltip-text" text-anchor="middle">Jul 2022: 65 total (+21 this month)</text>
  </g>
  <g class="hoverpoint">
    <line x1="296.3" y1="30" x2="296.3" y2="160.0" class="guide"/>
    <circle cx="296.3" cy="153.4" r="16" class="hit"/>
    <circle cx="296.3" cy="153.4" r="4" class="hover-dot"><title>Aug 2022: 101 total (+36 this month)</title></circle>
    <rect x="226.3" y="127.4" width="140" height="20" rx="4" class="tooltip-bg"/>
    <text x="296.3" y="141.4" class="tooltip-text" text-anchor="middle">Aug 2022: 101 total (+36 this month)</text>
  </g>
  <g class="hoverpoint">
    <line x1="312.5" y1="30" x2="312.5" y2="160.0" class="guide"/>
    <circle cx="312.5" cy="153.0" r="16" class="hit"/>
    <circle cx="312.5" cy="153.0" r="4" class="hover-dot"><title>Sep 2022: 108 total (+7 this month)</title></circle>
    <rect x="242.5" y="127.0" width="140" height="20" rx="4" class="tooltip-bg"/>
    <text x="312.5" y="141.0" class="tooltip-text" text-anchor="middle">Sep 2022: 108 total (+7 this month)</text>
  </g>
  <g class="hoverpoint">
    <line x1="324.4" y1="30" x2="324.4" y2="160.0" class="guide"/>
    <circle cx="324.4" cy="151.7" r="16" class="hit"/>
    <circle cx="324.4" cy="151.7" r="4" class="hover-dot"><title>Oct 2022: 128 total (+20 this month)</title></circle>
    <rect x="254.4" y="125.7" width="140" height="20" rx="4" class="tooltip-bg"/>
    <text x="324.4" y="139.7" class="tooltip-text" text-anchor="middle">Oct 2022: 128 total (+20 this month)</text>
  </g>
  <g class="hoverpoint">
    <line x1="335.1" y1="30" x2="335.1" y2="160.0" class="guide"/>
    <circle cx="335.1" cy="149.1" r="16" class="hit"/>
    <circle cx="335.1" cy="149.1" r="4" class="hover-dot"><title>Nov 2022: 168 total (+40 this month)</title></circle>
    <rect x="265.1" y="123.1" width="140" height="20" rx="4" class="tooltip-bg"/>
    <text x="335.1" y="137.1" class="tooltip-text" text-anchor="middle">Nov 2022: 168 total (+40 this month)</text>
  </g>
  <g class="hoverpoint">
    <line x1="347.4" y1="30" x2="347.4" y2="160.0" class="guide"/>
    <circle cx="347.4" cy="148.6" r="16" class="hit"/>
    <circle cx="347.4" cy="148.6" r="4" class="hover-dot"><title>Dec 2022: 175 total (+7 this month)</title></circle>
    <rect x="277.4" y="122.6" width="140" height="20" rx="4" class="tooltip-bg"/>
    <text x="347.4" y="136.6" class="tooltip-text" text-anchor="middle">Dec 2022: 175 total (+7 this month)</text>
  </g>
  <g class="hoverpoint">
    <line x1="355.4" y1="30" x2="355.4" y2="160.0" class="guide"/>
    <circle cx="355.4" cy="146.1" r="16" class="hit"/>
    <circle cx="355.4" cy="146.1" r="4" class="hover-dot"><title>Jan 2023: 214 total (+39 this month)</title></circle>
    <rect x="285.4" y="120.1" width="140" height="20" rx="4" class="tooltip-bg"/>
    <text x="355.4" y="134.1" class="tooltip-text" text-anchor="middle">Jan 2023: 214 total (+39 this month)</text>
  </g>
  <g class="hoverpoint">
    <line x1="370.4" y1="30" x2="370.4" y2="160.0" class="guide"/>
    <circle cx="370.4" cy="145.4" r="16" class="hit"/>
    <circle cx="370.4" cy="145.4" r="4" class="hover-dot"><title>Feb 2023: 225 total (+11 this month)</title></circle>
    <rect x="300.4" y="119.4" width="140" height="20" rx="4" class="tooltip-bg"/>
    <text x="370.4" y="133.4" class="tooltip-text" text-anchor="middle">Feb 2023: 225 total (+11 this month)</text>
  </g>
  <g class="hoverpoint">
    <line x1="376.4" y1="30" x2="376.4" y2="160.0" class="guide"/>
    <circle cx="376.4" cy="144.6" r="16" class="hit"/>
    <circle cx="376.4" cy="144.6" r="4" class="hover-dot"><title>Mar 2023: 237 total (+12 this month)</title></circle>
    <rect x="306.4" y="118.6" width="140" height="20" rx="4" class="tooltip-bg"/>
    <text x="376.4" y="132.6" class="tooltip-text" text-anchor="middle">Mar 2023: 237 total (+12 this month)</text>
  </g>
  <g class="hoverpoint">
    <line x1="385.9" y1="30" x2="385.9" y2="160.0" class="guide"/>
    <circle cx="385.9" cy="144.4" r="16" class="hit"/>
    <circle cx="385.9" cy="144.4" r="4" class="hover-dot"><title>Apr 2023: 240 total (+3 this month)</title></circle>
    <rect x="315.9" y="118.4" width="140" height="20" rx="4" class="tooltip-bg"/>
    <text x="385.9" y="132.4" class="tooltip-text" text-anchor="middle">Apr 2023: 240 total (+3 this month)</text>
  </g>
  <g class="hoverpoint">
    <line x1="588.9" y1="30" x2="588.9" y2="160.0" class="guide"/>
    <circle cx="588.9" cy="143.6" r="16" class="hit"/>
    <circle cx="588.9" cy="143.6" r="4" class="hover-dot"><title>Aug 2024: 252 total (+12 this month)</title></circle>
    <rect x="518.9" y="117.6" width="140" height="20" rx="4" class="tooltip-bg"/>
    <text x="588.9" y="131.6" class="tooltip-text" text-anchor="middle">Aug 2024: 252 total (+12 this month)</text>
  </g>
  <g class="hoverpoint">
    <line x1="600.0" y1="30" x2="600.0" y2="160.0" class="guide"/>
    <circle cx="600.0" cy="143.6" r="16" class="hit"/>
    <circle cx="600.0" cy="143.6" r="4" class="hover-dot"><title>Sep 2024: 253 total (+1 this month)</title></circle>
    <rect x="530.0" y="117.6" width="140" height="20" rx="4" class="tooltip-bg"/>
    <text x="600.0" y="131.6" class="tooltip-text" text-anchor="middle">Sep 2024: 253 total (+1 this month)</text>
  </g>
  <g class="hoverpoint">
    <line x1="613.1" y1="30" x2="613.1" y2="160.0" class="guide"/>
    <circle cx="613.1" cy="143.0" r="16" class="hit"/>
    <circle cx="613.1" cy="143.0" r="4" class="hover-dot"><title>Oct 2024: 261 total (+8 this month)</title></circle>
    <rect x="543.1" y="117.0" width="140" height="20" rx="4" class="tooltip-bg"/>
    <text x="613.1" y="131.0" class="tooltip-text" text-anchor="middle">Oct 2024: 261 total (+8 this month)</text>
  </g>
  <g class="hoverpoint">
    <line x1="647.1" y1="30" x2="647.1" y2="160.0" class="guide"/>
    <circle cx="647.1" cy="142.4" r="16" class="hit"/>
    <circle cx="647.1" cy="142.4" r="4" class="hover-dot"><title>Jan 2025: 270 total (+9 this month)</title></circle>
    <rect x="577.1" y="116.4" width="140" height="20" rx="4" class="tooltip-bg"/>
    <text x="647.1" y="130.4" class="tooltip-text" text-anchor="middle">Jan 2025: 270 total (+9 this month)</text>
  </g>
  <g class="hoverpoint">
    <line x1="652.7" y1="30" x2="652.7" y2="160.0" class="guide"/>
    <circle cx="652.7" cy="142.3" r="16" class="hit"/>
    <circle cx="652.7" cy="142.3" r="4" class="hover-dot"><title>Feb 2025: 272 total (+2 this month)</title></circle>
    <rect x="582.7" y="116.3" width="140" height="20" rx="4" class="tooltip-bg"/>
    <text x="652.7" y="130.3" class="tooltip-text" text-anchor="middle">Feb 2025: 272 total (+2 this month)</text>
  </g>
  <g class="hoverpoint">
    <line x1="672.9" y1="30" x2="672.9" y2="160.0" class="guide"/>
    <circle cx="672.9" cy="140.9" r="16" class="hit"/>
    <circle cx="672.9" cy="140.9" r="4" class="hover-dot"><title>Mar 2025: 294 total (+22 this month)</title></circle>
    <rect x="602.9" y="114.9" width="140" height="20" rx="4" class="tooltip-bg"/>
    <text x="672.9" y="128.9" class="tooltip-text" text-anchor="middle">Mar 2025: 294 total (+22 this month)</text>
  </g>
  <g class="hoverpoint">
    <line x1="686.4" y1="30" x2="686.4" y2="160.0" class="guide"/>
    <circle cx="686.4" cy="137.2" r="16" class="hit"/>
    <circle cx="686.4" cy="137.2" r="4" class="hover-dot"><title>Apr 2025: 351 total (+57 this month)</title></circle>
    <rect x="616.4" y="111.2" width="140" height="20" rx="4" class="tooltip-bg"/>
    <text x="686.4" y="125.2" class="tooltip-text" text-anchor="middle">Apr 2025: 351 total (+57 this month)</text>
  </g>
  <g class="hoverpoint">
    <line x1="693.9" y1="30" x2="693.9" y2="160.0" class="guide"/>
    <circle cx="693.9" cy="133.5" r="16" class="hit"/>
    <circle cx="693.9" cy="133.5" r="4" class="hover-dot"><title>May 2025: 408 total (+57 this month)</title></circle>
    <rect x="623.9" y="107.5" width="140" height="20" rx="4" class="tooltip-bg"/>
    <text x="693.9" y="121.5" class="tooltip-text" text-anchor="middle">May 2025: 408 total (+57 this month)</text>
  </g>
  <g class="hoverpoint">
    <line x1="709.0" y1="30" x2="709.0" y2="160.0" class="guide"/>
    <circle cx="709.0" cy="132.4" r="16" class="hit"/>
    <circle cx="709.0" cy="132.4" r="4" class="hover-dot"><title>Jun 2025: 424 total (+16 this month)</title></circle>
    <rect x="639.0" y="106.4" width="140" height="20" rx="4" class="tooltip-bg"/>
    <text x="709.0" y="120.4" class="tooltip-text" text-anchor="middle">Jun 2025: 424 total (+16 this month)</text>
  </g>
  <g class="hoverpoint">
    <line x1="722.9" y1="30" x2="722.9" y2="160.0" class="guide"/>
    <circle cx="722.9" cy="131.9" r="16" class="hit"/>
    <circle cx="722.9" cy="131.9" r="4" class="hover-dot"><title>Jul 2025: 432 total (+8 this month)</title></circle>
    <rect x="652.9" y="105.9" width="140" height="20" rx="4" class="tooltip-bg"/>
    <text x="722.9" y="119.9" class="tooltip-text" text-anchor="middle">Jul 2025: 432 total (+8 this month)</text>
  </g>
  <g class="hoverpoint">
    <line x1="734.0" y1="30" x2="734.0" y2="160.0" class="guide"/>
    <circle cx="734.0" cy="129.1" r="16" class="hit"/>
    <circle cx="734.0" cy="129.1" r="4" class="hover-dot"><title>Aug 2025: 475 total (+43 this month)</title></circle>
    <rect x="664.0" y="103.1" width="140" height="20" rx="4" class="tooltip-bg"/>
    <text x="734.0" y="117.1" class="tooltip-text" text-anchor="middle">Aug 2025: 475 total (+43 this month)</text>
  </g>
  <g class="hoverpoint">
    <line x1="747.1" y1="30" x2="747.1" y2="160.0" class="guide"/>
    <circle cx="747.1" cy="125.8" r="16" class="hit"/>
    <circle cx="747.1" cy="125.8" r="4" class="hover-dot"><title>Sep 2025: 526 total (+51 this month)</title></circle>
    <rect x="677.1" y="99.8" width="140" height="20" rx="4" class="tooltip-bg"/>
    <text x="747.1" y="113.8" class="tooltip-text" text-anchor="middle">Sep 2025: 526 total (+51 this month)</text>
  </g>
  <g class="hoverpoint">
    <line x1="759.3" y1="30" x2="759.3" y2="160.0" class="guide"/>
    <circle cx="759.3" cy="115.0" r="16" class="hit"/>
    <circle cx="759.3" cy="115.0" r="4" class="hover-dot"><title>Oct 2025: 692 total (+166 this month)</title></circle>
    <rect x="689.3" y="89.0" width="140" height="20" rx="4" class="tooltip-bg"/>
    <text x="759.3" y="103.0" class="tooltip-text" text-anchor="middle">Oct 2025: 692 total (+166 this month)</text>
  </g>
  <g class="hoverpoint">
    <line x1="771.2" y1="30" x2="771.2" y2="160.0" class="guide"/>
    <circle cx="771.2" cy="112.5" r="16" class="hit"/>
    <circle cx="771.2" cy="112.5" r="4" class="hover-dot"><title>Nov 2025: 731 total (+39 this month)</title></circle>
    <rect x="701.2" y="86.5" width="140" height="20" rx="4" class="tooltip-bg"/>
    <text x="771.2" y="100.5" class="tooltip-text" text-anchor="middle">Nov 2025: 731 total (+39 this month)</text>
  </g>
  <g class="hoverpoint">
    <line x1="783.5" y1="30" x2="783.5" y2="160.0" class="guide"/>
    <circle cx="783.5" cy="109.1" r="16" class="hit"/>
    <circle cx="783.5" cy="109.1" r="4" class="hover-dot"><title>Dec 2025: 783 total (+52 this month)</title></circle>
    <rect x="713.5" y="83.1" width="140" height="20" rx="4" class="tooltip-bg"/>
    <text x="783.5" y="97.1" class="tooltip-text" text-anchor="middle">Dec 2025: 783 total (+52 this month)</text>
  </g>
  <g class="hoverpoint">
    <line x1="795.8" y1="30" x2="795.8" y2="160.0" class="guide"/>
    <circle cx="795.8" cy="93.6" r="16" class="hit"/>
    <circle cx="795.8" cy="93.6" r="4" class="hover-dot"><title>Jan 2026: 1,022 total (+239 this month)</title></circle>
    <rect x="725.8" y="67.6" width="140" height="20" rx="4" class="tooltip-bg"/>
    <text x="795.8" y="81.6" class="tooltip-text" text-anchor="middle">Jan 2026: 1,022 total (+239 this month)</text>
  </g>
  <g class="hoverpoint">
    <line x1="806.9" y1="30" x2="806.9" y2="160.0" class="guide"/>
    <circle cx="806.9" cy="74.1" r="16" class="hit"/>
    <circle cx="806.9" cy="74.1" r="4" class="hover-dot"><title>Feb 2026: 1,321 total (+299 this month)</title></circle>
    <rect x="736.9" y="48.1" width="140" height="20" rx="4" class="tooltip-bg"/>
    <text x="806.9" y="62.1" class="tooltip-text" text-anchor="middle">Feb 2026: 1,321 total (+299 this month)</text>
  </g>
  <g class="hoverpoint">
    <line x1="819.2" y1="30" x2="819.2" y2="160.0" class="guide"/>
    <circle cx="819.2" cy="54.9" r="16" class="hit"/>
    <circle cx="819.2" cy="54.9" r="4" class="hover-dot"><title>Mar 2026: 1,617 total (+296 this month)</title></circle>
    <rect x="749.2" y="28.9" width="140" height="20" rx="4" class="tooltip-bg"/>
    <text x="819.2" y="42.9" class="tooltip-text" text-anchor="middle">Mar 2026: 1,617 total (+296 this month)</text>
  </g>
  <g class="hoverpoint">
    <line x1="820.0" y1="30" x2="820.0" y2="160.0" class="guide"/>
    <circle cx="820.0" cy="54.8" r="16" class="hit"/>
    <circle cx="820.0" cy="54.8" r="4" class="hover-dot"><title>Apr 2026: 1,619 total (+2 this month)</title></circle>
    <rect x="750.0" y="28.8" width="140" height="20" rx="4" class="tooltip-bg"/>
    <text x="820.0" y="42.8" class="tooltip-text" text-anchor="middle">Apr 2026: 1,619 total (+2 this month)</text>
  </g>

  <circle cx="820.0" cy="54.8" r="4" class="dot"/>
  <text x="810.0" y="44.8" class="total">1,619</text>

</svg>