<svg xmlns="http://www.w3.org/2000/svg" width="840" height="196" viewBox="0 0 840 196" fill="none">
  <style>
    .label { font-family: -apple-system, BlinkMacSystemFont, 'Segoe UI', Helvetica, Arial, sans-serif; font-size: 10px; fill: #8b949e; }
    .title { font-family: -apple-system, BlinkMacSystemFont, 'Segoe UI', Helvetica, Arial, sans-serif; font-size: 11px; fill: #8b949e; font-weight: 600; }
    .total { font-family: -apple-system, BlinkMacSystemFont, 'Segoe UI', Helvetica, Arial, sans-serif; font-size: 11px; fill: #7ee787; font-weight: 600; }
    .grid { stroke: #21262d; stroke-width: 1; }
    .line { stroke: #7ee787; stroke-width: 2; stroke-linecap: round; stroke-linejoin: round; fill: none; }
    .dot { fill: #7ee787; }
    .area { fill: url(#areaGrad); }
    /* Hover interaction */
    .hoverpoint .guide { stroke: #7ee787; stroke-width: 1; stroke-dasharray: 2,2; opacity: 0; }
    .hoverpoint .hover-dot { fill: #7ee787; opacity: 0; }
    .hoverpoint .hit { fill: transparent; cursor: pointer; }
    .hoverpoint .tooltip-bg { fill: #161b22; stroke: #30363d; stroke-width: 1; opacity: 0; }
    .hoverpoint .tooltip-text { font-family: -apple-system, BlinkMacSystemFont, 'Segoe UI', Helvetica, Arial, sans-serif; font-size: 9px; fill: #c9d1d9; opacity: 0; }
    .hoverpoint:hover .guide { opacity: 0.5; }
    .hoverpoint:hover .hover-dot { opacity: 1; }
    .hoverpoint:hover .tooltip-bg { opacity: 0.95; }
    .hoverpoint:hover .tooltip-text { opacity: 1; }
  </style>
  <defs>
    <linearGradient id="areaGrad" x1="0" y1="0" x2="0" y2="1">
      <stop offset="0%" stop-color="#7ee787" stop-opacity="0.15"/>
      <stop offset="100%" stop-color="#7ee787" stop-opacity="0.01"/>
    </linearGradient>
  </defs>

  <text x="60" y="18" class="title">Cumulative Commits</text>

  <line x1="60" y1="160.0" x2="820" y2="160.0" class="grid"/>
  <text x="50" y="163.0" class="label" text-anchor="end">0</text>
  <line x1="60" y1="127.5" x2="820" y2="127.5" class="grid" stroke-dasharray="3,3"/>
  <text x="50" y="130.5" class="label" text-anchor="end">750</text>
  <line x1="60" y1="95.0" x2="820" y2="95.0" class="grid" stroke-dasharray="3,3"/>
  <text x="50" y="98.0" class="label" text-anchor="end">1,500</text>
  <line x1="60" y1="62.5" x2="820" y2="62.5" class="grid" stroke-dasharray="3,3"/>
  <text x="50" y="65.5" class="label" text-anchor="end">2,250</text>
  <line x1="60" y1="30.0" x2="820" y2="30.0" class="grid" stroke-dasharray="3,3"/>
  <text x="50" y="33.0" class="label" text-anchor="end">3,000</text>

  <text x="70.0" y="186" class="label" text-anchor="middle">2021</text>
  <text x="199.5" y="186" class="label" text-anchor="middle">2022</text>
  <text x="339.1" y="186" class="label" text-anchor="middle">2023</text>
  <text x="478.6" y="186" class="label" text-anchor="middle">2024</text>
  <text x="618.5" y="186" class="label" text-anchor="middle">2025</text>
  <text x="758.1" y="186" class="label" text-anchor="middle">2026</text>


  <path class="area" d="M60.0,160.0 L60.0,160.0 60.0,160.0 L179.7,159.8 L180.0,159.7 L181.2,159.7 L199.5,159.6 L199.9,159.3 L200.3,159.3 L200.7,159.1 L201.1,159.0 L201.4,159.0 L202.2,158.7 L202.6,158.6 L203.0,158.5 L203.4,158.5 L204.9,158.4 L205.3,158.3 L205.7,158.3 L209.5,158.2 L219.4,158.1 L271.8,158.1 L272.2,157.7 L273.7,157.6 L274.5,157.3 L280.2,157.2 L281.0,157.1 L281.3,156.9 L281.7,156.9 L282.5,156.8 L282.9,156.4 L283.3,156.0 L283.6,155.9 L285.2,155.8 L285.9,155.7 L287.8,155.6 L293.2,155.4 L303.5,155.3 L309.3,155.3 L311.9,155.2 L312.3,155.1 L312.7,155.0 L313.1,154.8 L314.2,154.5 L314.6,154.5 L315.0,154.5 L316.5,154.3 L316.9,154.1 L317.3,154.0 L317.7,153.6 L318.0,153.2 L318.4,153.1 L318.8,153.0 L319.6,152.9 L321.1,152.8 L325.3,152.7 L336.4,152.7 L336.8,152.5 L337.2,152.4 L341.0,152.0 L341.4,151.0 L342.5,150.9 L342.9,150.9 L344.8,150.7 L357.8,150.6 L358.2,150.5 L358.6,150.4 L359.3,150.2 L362.0,150.1 L362.8,149.9 L363.2,149.8 L365.1,149.7 L374.2,149.6 L562.3,149.5 L563.1,149.5 L563.9,149.4 L564.6,149.3 L565.0,149.3 L565.4,149.2 L565.8,149.2 L566.2,149.1 L570.0,149.1 L580.7,149.0 L583.7,149.0 L584.9,148.9 L587.2,148.9 L589.5,148.9 L589.9,148.8 L591.4,148.8 L592.5,148.7 L593.3,148.7 L621.6,148.6 L622.0,148.6 L622.7,148.5 L623.1,148.5 L624.3,148.3 L626.2,148.3 L631.5,148.2 L642.6,147.8 L643.0,147.7 L648.0,147.6 L648.4,147.5 L649.5,147.4 L651.0,147.3 L652.9,146.8 L653.3,145.6 L653.7,145.5 L656.0,145.4 L657.1,145.4 L657.5,145.4 L658.3,145.2 L661.3,145.1 L664.0,144.8 L665.9,144.5 L666.3,144.4 L667.5,144.1 L667.8,143.6 L668.2,143.5 L668.6,143.3 L669.0,143.1 L669.4,142.9 L670.1,142.6 L671.3,142.3 L685.1,142.2 L685.8,141.6 L694.2,141.5 L699.2,141.3 L701.5,141.2 L701.9,141.2 L704.2,141.2 L704.5,141.1 L704.9,141.1 L705.3,140.9 L705.7,140.8 L706.1,140.3 L706.5,140.2 L708.8,139.6 L709.1,139.5 L709.9,139.4 L712.6,139.2 L713.3,139.2 L713.7,139.0 L714.5,139.0 L714.9,138.7 L715.3,138.6 L716.0,138.5 L716.4,138.4 L716.8,138.4 L717.2,138.3 L718.7,138.1 L719.1,138.0 L719.5,137.9 L719.8,137.8 L720.2,137.7 L720.6,137.6 L721.8,137.4 L722.1,137.3 L722.5,137.2 L722.9,137.1 L723.3,136.8 L724.0,136.7 L724.4,136.3 L724.8,136.0 L725.2,135.2 L725.6,135.0 L726.0,134.8 L726.3,134.3 L726.7,134.3 L727.1,134.1 L727.5,134.1 L727.9,133.8 L729.8,133.3 L730.2,133.2 L730.5,132.8 L730.9,132.1 L731.3,132.0 L732.1,131.9 L732.5,131.3 L732.8,130.9 L733.2,130.9 L733.6,130.2 L734.4,130.0 L734.7,129.9 L735.1,129.8 L735.5,129.8 L735.9,129.8 L736.3,129.7 L737.8,129.6 L738.6,129.5 L739.0,129.2 L739.3,129.0 L740.5,129.0 L742.4,128.9 L744.7,128.7 L745.1,128.6 L745.5,128.6 L745.8,128.3 L746.2,127.7 L746.6,127.7 L747.0,127.6 L747.4,127.5 L747.7,127.4 L748.1,127.1 L752.3,127.0 L752.7,126.9 L756.2,126.6 L756.9,126.3 L757.3,126.2 L757.7,126.1 L758.1,126.0 L759.2,125.9 L759.6,125.2 L760.0,123.7 L760.4,122.3 L760.7,122.3 L761.1,122.1 L761.9,121.9 L762.3,121.7 L762.7,121.4 L763.4,121.3 L763.8,120.9 L764.2,120.9 L764.9,120.3 L765.3,120.2 L765.7,119.9 L766.1,119.7 L766.5,119.4 L766.9,119.4 L768.0,119.0 L768.4,118.7 L768.8,117.7 L769.2,116.3 L769.5,115.7 L769.9,115.1 L770.3,115.0 L770.7,114.8 L771.1,114.6 L771.4,114.2 L771.8,113.8 L772.2,113.7 L772.6,113.4 L773.0,113.3 L773.4,113.0 L773.7,112.6 L774.1,112.3 L774.5,111.9 L774.9,111.8 L775.3,111.6 L775.7,110.9 L776.0,109.6 L776.4,109.4 L777.2,109.1 L777.6,109.0 L777.9,108.9 L778.3,106.8 L778.7,105.8 L779.1,104.9 L779.5,104.5 L779.9,102.9 L780.2,102.8 L780.6,102.7 L781.0,102.3 L781.4,101.6 L781.8,100.2 L782.2,98.8 L782.5,98.7 L782.9,98.4 L783.7,98.3 L784.1,97.5 L784.4,96.8 L784.8,95.9 L785.2,95.7 L785.6,95.7 L786.0,94.3 L786.4,92.6 L786.7,91.9 L787.1,91.5 L787.5,91.1 L787.9,90.7 L788.3,90.7 L789.0,90.5 L789.4,90.2 L789.8,90.1 L790.2,90.1 L790.6,90.0 L791.7,90.0 L792.1,89.9 L792.9,89.8 L793.6,89.8 L794.0,89.7 L794.8,89.1 L795.2,88.8 L795.5,88.4 L797.8,88.3 L798.2,88.0 L798.6,87.9 L799.0,87.5 L799.4,87.5 L799.7,87.4 L800.1,87.3 L800.5,86.7 L800.9,86.0 L801.3,85.8 L801.6,84.5 L802.0,84.3 L802.8,84.3 L803.2,84.2 L804.3,83.8 L804.7,83.3 L805.1,83.0 L805.5,82.7 L805.9,81.7 L806.2,78.0 L806.6,76.4 L807.0,76.1 L807.4,75.8 L807.8,75.2 L808.1,75.1 L808.5,69.9 L808.9,63.5 L809.3,61.6 L809.7,61.5 L810.1,60.6 L810.4,59.8 L810.8,56.0 L811.2,53.6 L811.6,50.1 L812.0,49.3 L812.4,49.2 L812.7,49.1 L813.1,47.9 L813.5,46.1 L813.9,42.1 L814.3,41.5 L814.6,40.7 L815.0,39.5 L815.4,38.9 L815.8,38.3 L816.2,35.9 L816.6,35.3 L816.9,35.2 L817.3,34.9 L817.7,34.7 L818.1,34.3 L818.5,34.2 L818.9,33.0 L819.2,31.2 L819.6,30.5 L820.0,30.3 L820.0,160.0 Z"/>
  <polyline class="line" points="60.0,160.0 179.7,159.8 180.0,159.7 181.2,159.7 199.5,159.6 199.9,159.3 200.3,159.3 200.7,159.1 201.1,159.0 201.4,159.0 202.2,158.7 202.6,158.6 203.0,158.5 203.4,158.5 204.9,158.4 205.3,158.3 205.7,158.3 209.5,158.2 219.4,158.1 271.8,158.1 272.2,157.7 273.7,157.6 274.5,157.3 280.2,157.2 281.0,157.1 281.3,156.9 281.7,156.9 282.5,156.8 282.9,156.4 283.3,156.0 283.6,155.9 285.2,155.8 285.9,155.7 287.8,155.6 293.2,155.4 303.5,155.3 309.3,155.3 311.9,155.2 312.3,155.1 312.7,155.0 313.1,154.8 314.2,154.5 314.6,154.5 315.0,154.5 316.5,154.3 316.9,154.1 317.3,154.0 317.7,153.6 318.0,153.2 318.4,153.1 318.8,153.0 319.6,152.9 321.1,152.8 325.3,152.7 336.4,152.7 336.8,152.5 337.2,152.4 341.0,152.0 341.4,151.0 342.5,150.9 342.9,150.9 344.8,150.7 357.8,150.6 358.2,150.5 358.6,150.4 359.3,150.2 362.0,150.1 362.8,149.9 363.2,149.8 365.1,149.7 374.2,149.6 562.3,149.5 563.1,149.5 563.9,149.4 564.6,149.3 565.0,149.3 565.4,149.2 565.8,149.2 566.2,149.1 570.0,149.1 580.7,149.0 583.7,149.0 584.9,148.9 587.2,148.9 589.5,148.9 589.9,148.8 591.4,148.8 592.5,148.7 593.3,148.7 621.6,148.6 622.0,148.6 622.7,148.5 623.1,148.5 624.3,148.3 626.2,148.3 631.5,148.2 642.6,147.8 643.0,147.7 648.0,147.6 648.4,147.5 649.5,147.4 651.0,147.3 652.9,146.8 653.3,145.6 653.7,145.5 656.0,145.4 657.1,145.4 657.5,145.4 658.3,145.2 661.3,145.1 664.0,144.8 665.9,144.5 666.3,144.4 667.5,144.1 667.8,143.6 668.2,143.5 668.6,143.3 669.0,143.1 669.4,142.9 670.1,142.6 671.3,142.3 685.1,142.2 685.8,141.6 694.2,141.5 699.2,141.3 701.5,141.2 701.9,141.2 704.2,141.2 704.5,141.1 704.9,141.1 705.3,140.9 705.7,140.8 706.1,140.3 706.5,140.2 708.8,139.6 709.1,139.5 709.9,139.4 712.6,139.2 713.3,139.2 713.7,139.0 714.5,139.0 714.9,138.7 715.3,138.6 716.0,138.5 716.4,138.4 716.8,138.4 717.2,138.3 718.7,138.1 719.1,138.0 719.5,137.9 719.8,137.8 720.2,137.7 720.6,137.6 721.8,137.4 722.1,137.3 722.5,137.2 722.9,137.1 723.3,136.8 724.0,136.7 724.4,136.3 724.8,136.0 725.2,135.2 725.6,135.0 726.0,134.8 726.3,134.3 726.7,134.3 727.1,134.1 727.5,134.1 727.9,133.8 729.8,133.3 730.2,133.2 730.5,132.8 730.9,132.1 731.3,132.0 732.1,131.9 732.5,131.3 732.8,130.9 733.2,130.9 733.6,130.2 734.4,130.0 734.7,129.9 735.1,129.8 735.5,129.8 735.9,129.8 736.3,129.7 737.8,129.6 738.6,129.5 739.0,129.2 739.3,129.0 740.5,129.0 742.4,128.9 744.7,128.7 745.1,128.6 745.5,128.6 745.8,128.3 746.2,127.7 746.6,127.7 747.0,127.6 747.4,127.5 747.7,127.4 748.1,127.1 752.3,127.0 752.7,126.9 756.2,126.6 756.9,126.3 757.3,126.2 757.7,126.1 758.1,126.0 759.2,125.9 759.6,125.2 760.0,123.7 760.4,122.3 760.7,122.3 761.1,122.1 761.9,121.9 762.3,121.7 762.7,121.4 763.4,121.3 763.8,120.9 764.2,120.9 764.9,120.3 765.3,120.2 765.7,119.9 766.1,119.7 766.5,119.4 766.9,119.4 768.0,119.0 768.4,118.7 768.8,117.7 769.2,116.3 769.5,115.7 769.9,115.1 770.3,115.0 770.7,114.8 771.1,114.6 771.4,114.2 771.8,113.8 772.2,113.7 772.6,113.4 773.0,113.3 773.4,113.0 773.7,112.6 774.1,112.3 774.5,111.9 774.9,111.8 775.3,111.6 775.7,110.9 776.0,109.6 776.4,109.4 777.2,109.1 777.6,109.0 777.9,108.9 778.3,106.8 778.7,105.8 779.1,104.9 779.5,104.5 779.9,102.9 780.2,102.8 780.6,102.7 781.0,102.3 781.4,101.6 781.8,100.2 782.2,98.8 782.5,98.7 782.9,98.4 783.7,98.3 784.1,97.5 784.4,96.8 784.8,95.9 785.2,95.7 785.6,95.7 786.0,94.3 786.4,92.6 786.7,91.9 787.1,91.5 787.5,91.1 787.9,90.7 788.3,90.7 789.0,90.5 789.4,90.2 789.8,90.1 790.2,90.1 790.6,90.0 791.7,90.0 792.1,89.9 792.9,89.8 793.6,89.8 794.0,89.7 794.8,89.1 795.2,88.8 795.5,88.4 797.8,88.3 798.2,88.0 798.6,87.9 799.0,87.5 799.4,87.5 799.7,87.4 800.1,87.3 800.5,86.7 800.9,86.0 801.3,85.8 801.6,84.5 802.0,84.3 802.8,84.3 803.2,84.2 804.3,83.8 804.7,83.3 805.1,83.0 805.5,82.7 805.9,81.7 806.2,78.0 806.6,76.4 807.0,76.1 807.4,75.8 807.8,75.2 808.1,75.1 808.5,69.9 808.9,63.5 809.3,61.6 809.7,61.5 810.1,60.6 810.4,59.8 810.8,56.0 811.2,53.6 811.6,50.1 812.0,49.3 812.4,49.2 812.7,49.1 813.1,47.9 813.5,46.1 813.9,42.1 814.3,41.5 814.6,40.7 815.0,39.5 815.4,38.9 815.8,38.3 816.2,35.9 816.6,35.3 816.9,35.2 817.3,34.9 817.7,34.7 818.1,34.3 818.5,34.2 818.9,33.0 819.2,31.2 819.6,30.5 820.0,30.3"/>

  <g class="hoverpoint">
    <line x1="181.2" y1="30" x2="181.2" y2="160.0" class="guide"/>
    <circle cx="181.2" cy="159.7" r="16" class="hit"/>
    <circle cx="181.2" cy="159.7" r="4" class="hover-dot"><title>Nov 2021: 7 total (+7 this month)</title></circle>
    <rect x="111.2" y="133.7" width="140" height="20" rx="4" class="tooltip-bg"/>
    <text x="181.2" y="147.7" class="tooltip-text" text-anchor="middle">Nov 2021: 7 total (+7 this month)</text>
  </g>
  <g class="hoverpoint">
    <line x1="209.5" y1="30" x2="209.5" y2="160.0" class="guide"/>
    <circle cx="209.5" cy="158.2" r="16" class="hit"/>
    <circle cx="209.5" cy="158.2" r="4" class="hover-dot"><title>Jan 2022: 41 total (+34 this month)</title></circle>
    <rect x="139.5" y="132.2" width="140" height="20" rx="4" class="tooltip-bg"/>
    <text x="209.5" y="146.2" class="tooltip-text" text-anchor="middle">Jan 2022: 41 total (+34 this month)</text>
  </g>
  <g class="hoverpoint">
    <line x1="219.4" y1="30" x2="219.4" y2="160.0" class="guide"/>
    <circle cx="219.4" cy="158.1" r="16" class="hit"/>
    <circle cx="219.4" cy="158.1" r="4" class="hover-dot"><title>Feb 2022: 44 total (+3 this month)</title></circle>
    <rect x="149.4" y="132.1" width="140" height="20" rx="4" class="tooltip-bg"/>
    <text x="219.4" y="146.1" class="tooltip-text" text-anchor="middle">Feb 2022: 44 total (+3 this month)</text>
  </g>
  <g class="hoverpoint">
    <line x1="280.2" y1="30" x2="280.2" y2="160.0" class="guide"/>
    <circle cx="280.2" cy="157.2" r="16" class="hit"/>
    <circle cx="280.2" cy="157.2" r="4" class="hover-dot"><title>Jul 2022: 65 total (+21 this month)</title></circle>
    <rect x="210.2" y="131.2" width="140" height="20" rx="4" class="tooltip-bg"/>
    <text x="280.2" y="145.2" class="tooltip-text" text-anchor="middle">Jul 2022: 65 total (+21 this month)</text>
  </g>
  <g class="hoverpoint">
    <line x1="287.8" y1="30" x2="287.8" y2="160.0" class="guide"/>
    <circle cx="287.8" cy="155.6" r="16" class="hit"/>
    <circle cx="287.8" cy="155.6" r="4" class="hover-dot"><title>Aug 2022: 101 total (+36 this month)</title></circle>
    <rect x="217.8" y="129.6" width="140" height="20" rx="4" class="tooltip-bg"/>
    <text x="287.8" y="143.6" class="tooltip-text" text-anchor="middle">Aug 2022: 101 total (+36 this month)</text>
  </g>
  <g class="hoverpoint">
    <line x1="303.5" y1="30" x2="303.5" y2="160.0" class="guide"/>
    <circle cx="303.5" cy="155.3" r="16" class="hit"/>
    <circle cx="303.5" cy="155.3" r="4" class="hover-dot"><title>Sep 2022: 108 total (+7 this month)</title></circle>
    <rect x="233.5" y="129.3" width="140" height="20" rx="4" class="tooltip-bg"/>
    <text x="303.5" y="143.3" class="tooltip-text" text-anchor="middle">Sep 2022: 108 total (+7 this month)</text>
  </g>
  <g class="hoverpoint">
    <line x1="315.0" y1="30" x2="315.0" y2="160.0" class="guide"/>
    <circle cx="315.0" cy="154.5" r="16" class="hit"/>
    <circle cx="315.0" cy="154.5" r="4" class="hover-dot"><title>Oct 2022: 128 total (+20 this month)</title></circle>
    <rect x="245.0" y="128.5" width="140" height="20" rx="4" class="tooltip-bg"/>
    <text x="315.0" y="142.5" class="tooltip-text" text-anchor="middle">Oct 2022: 128 total (+20 this month)</text>
  </g>
  <g class="hoverpoint">
    <line x1="325.3" y1="30" x2="325.3" y2="160.0" class="guide"/>
    <circle cx="325.3" cy="152.7" r="16" class="hit"/>
    <circle cx="325.3" cy="152.7" r="4" class="hover-dot"><title>Nov 2022: 168 total (+40 this month)</title></circle>
    <rect x="255.3" y="126.7" width="140" height="20" rx="4" class="tooltip-bg"/>
    <text x="325.3" y="140.7" class="tooltip-text" text-anchor="middle">Nov 2022: 168 total (+40 this month)</text>
  </g>
  <g class="hoverpoint">
    <line x1="337.2" y1="30" x2="337.2" y2="160.0" class="guide"/>
    <circle cx="337.2" cy="152.4" r="16" class="hit"/>
    <circle cx="337.2" cy="152.4" r="4" class="hover-dot"><title>Dec 2022: 175 total (+7 this month)</title></circle>
    <rect x="267.2" y="126.4" width="140" height="20" rx="4" class="tooltip-bg"/>
    <text x="337.2" y="140.4" class="tooltip-text" text-anchor="middle">Dec 2022: 175 total (+7 this month)</text>
  </g>
  <g class="hoverpoint">
    <line x1="344.8" y1="30" x2="344.8" y2="160.0" class="guide"/>
    <circle cx="344.8" cy="150.7" r="16" class="hit"/>
    <circle cx="344.8" cy="150.7" r="4" class="hover-dot"><title>Jan 2023: 214 total (+39 this month)</title></circle>
    <rect x="274.8" y="124.7" width="140" height="20" rx="4" class="tooltip-bg"/>
    <text x="344.8" y="138.7" class="tooltip-text" text-anchor="middle">Jan 2023: 214 total (+39 this month)</text>
  </g>
  <g class="hoverpoint">
    <line x1="359.3" y1="30" x2="359.3" y2="160.0" class="guide"/>
    <circle cx="359.3" cy="150.2" r="16" class="hit"/>
    <circle cx="359.3" cy="150.2" r="4" class="hover-dot"><title>Feb 2023: 225 total (+11 this month)</title></circle>
    <rect x="289.3" y="124.2" width="140" height="20" rx="4" class="tooltip-bg"/>
    <text x="359.3" y="138.2" class="tooltip-text" text-anchor="middle">Feb 2023: 225 total (+11 this month)</text>
  </g>
  <g class="hoverpoint">
    <line x1="365.1" y1="30" x2="365.1" y2="160.0" class="guide"/>
    <circle cx="365.1" cy="149.7" r="16" class="hit"/>
    <circle cx="365.1" cy="149.7" r="4" class="hover-dot"><title>Mar 2023: 237 total (+12 this month)</title></circle>
    <rect x="295.1" y="123.7" width="140" height="20" rx="4" class="tooltip-bg"/>
    <text x="365.1" y="137.7" class="tooltip-text" text-anchor="middle">Mar 2023: 237 total (+12 this month)</text>
  </g>
  <g class="hoverpoint">
    <line x1="374.2" y1="30" x2="374.2" y2="160.0" class="guide"/>
    <circle cx="374.2" cy="149.6" r="16" class="hit"/>
    <circle cx="374.2" cy="149.6" r="4" class="hover-dot"><title>Apr 2023: 240 total (+3 this month)</title></circle>
    <rect x="304.2" y="123.6" width="140" height="20" rx="4" class="tooltip-bg"/>
    <text x="374.2" y="137.6" class="tooltip-text" text-anchor="middle">Apr 2023: 240 total (+3 this month)</text>
  </g>
  <g class="hoverpoint">
    <line x1="570.0" y1="30" x2="570.0" y2="160.0" class="guide"/>
    <circle cx="570.0" cy="149.1" r="16" class="hit"/>
    <circle cx="570.0" cy="149.1" r="4" class="hover-dot"><title>Aug 2024: 252 total (+12 this month)</title></circle>
    <rect x="500.0" y="123.1" width="140" height="20" rx="4" class="tooltip-bg"/>
    <text x="570.0" y="137.1" class="tooltip-text" text-anchor="middle">Aug 2024: 252 total (+12 this month)</text>
  </g>
  <g class="hoverpoint">
    <line x1="580.7" y1="30" x2="580.7" y2="160.0" class="guide"/>
    <circle cx="580.7" cy="149.0" r="16" class="hit"/>
    <circle cx="580.7" cy="149.0" r="4" class="hover-dot"><title>Sep 2024: 253 total (+1 this month)</title></circle>
    <rect x="510.7" y="123.0" width="140" height="20" rx="4" class="tooltip-bg"/>
    <text x="580.7" y="137.0" class="tooltip-text" text-anchor="middle">Sep 2024: 253 total (+1 this month)</text>
  </g>
  <g class="hoverpoint">
    <line x1="593.3" y1="30" x2="593.3" y2="160.0" class="guide"/>
    <circle cx="593.3" cy="148.7" r="16" class="hit"/>
    <circle cx="593.3" cy="148.7" r="4" class="hover-dot"><title>Oct 2024: 261 total (+8 this month)</title></circle>
    <rect x="523.3" y="122.7" width="140" height="20" rx="4" class="tooltip-bg"/>
    <text x="593.3" y="136.7" class="tooltip-text" text-anchor="middle">Oct 2024: 261 total (+8 this month)</text>
  </g>
  <g class="hoverpoint">
    <line x1="626.2" y1="30" x2="626.2" y2="160.0" class="guide"/>
    <circle cx="626.2" cy="148.3" r="16" class="hit"/>
    <circle cx="626.2" cy="148.3" r="4" class="hover-dot"><title>Jan 2025: 270 total (+9 this month)</title></circle>
    <rect x="556.2" y="122.3" width="140" height="20" rx="4" class="tooltip-bg"/>
    <text x="626.2" y="136.3" class="tooltip-text" text-anchor="middle">Jan 2025: 270 total (+9 this month)</text>
  </g>
  <g class="hoverpoint">
    <line x1="631.5" y1="30" x2="631.5" y2="160.0" class="guide"/>
    <circle cx="631.5" cy="148.2" r="16" class="hit"/>
    <circle cx="631.5" cy="148.2" r="4" class="hover-dot"><title>Feb 2025: 272 total (+2 this month)</title></circle>
    <rect x="561.5" y="122.2" width="140" height="20" rx="4" class="tooltip-bg"/>
    <text x="631.5" y="136.2" class="tooltip-text" text-anchor="middle">Feb 2025: 272 total (+2 this month)</text>
  </g>
  <g class="hoverpoint">
    <line x1="651.0" y1="30" x2="651.0" y2="160.0" class="guide"/>
    <circle cx="651.0" cy="147.3" r="16" class="hit"/>
    <circle cx="651.0" cy="147.3" r="4" class="hover-dot"><title>Mar 2025: 294 total (+22 this month)</title></circle>
    <rect x="581.0" y="121.3" width="140" height="20" rx="4" class="tooltip-bg"/>
    <text x="651.0" y="135.3" class="tooltip-text" text-anchor="middle">Mar 2025: 294 total (+22 this month)</text>
  </g>
  <g class="hoverpoint">
    <line x1="664.0" y1="30" x2="664.0" y2="160.0" class="guide"/>
    <circle cx="664.0" cy="144.8" r="16" class="hit"/>
    <circle cx="664.0" cy="144.8" r="4" class="hover-dot"><title>Apr 2025: 351 total (+57 this month)</title></circle>
    <rect x="594.0" y="118.8" width="140" height="20" rx="4" class="tooltip-bg"/>
    <text x="664.0" y="132.8" class="tooltip-text" text-anchor="middle">Apr 2025: 351 total (+57 this month)</text>
  </g>
  <g class="hoverpoint">
    <line x1="671.3" y1="30" x2="671.3" y2="160.0" class="guide"/>
    <circle cx="671.3" cy="142.3" r="16" class="hit"/>
    <circle cx="671.3" cy="142.3" r="4" class="hover-dot"><title>May 2025: 408 total (+57 this month)</title></circle>
    <rect x="601.3" y="116.3" width="140" height="20" rx="4" class="tooltip-bg"/>
    <text x="671.3" y="130.3" class="tooltip-text" text-anchor="middle">May 2025: 408 total (+57 this month)</text>
  </g>
  <g class="hoverpoint">
    <line x1="685.8" y1="30" x2="685.8" y2="160.0" class="guide"/>
    <circle cx="685.8" cy="141.6" r="16" class="hit"/>
    <circle cx="685.8" cy="141.6" r="4" class="hover-dot"><title>Jun 2025: 424 total (+16 this month)</title></circle>
    <rect x="615.8" y="115.6" width="140" height="20" rx="4" class="tooltip-bg"/>
    <text x="685.8" y="129.6" class="tooltip-text" text-anchor="middle">Jun 2025: 424 total (+16 this month)</text>
  </g>
  <g class="hoverpoint">
    <line x1="699.2" y1="30" x2="699.2" y2="160.0" class="guide"/>
    <circle cx="699.2" cy="141.3" r="16" class="hit"/>
    <circle cx="699.2" cy="141.3" r="4" class="hover-dot"><title>Jul 2025: 432 total (+8 this month)</title></circle>
    <rect x="629.2" y="115.3" width="140" height="20" rx="4" class="tooltip-bg"/>
    <text x="699.2" y="129.3" class="tooltip-text" text-anchor="middle">Jul 2025: 432 total (+8 this month)</text>
  </g>
  <g class="hoverpoint">
    <line x1="709.9" y1="30" x2="709.9" y2="160.0" class="guide"/>
    <circle cx="709.9" cy="139.4" r="16" class="hit"/>
    <circle cx="709.9" cy="139.4" r="4" class="hover-dot"><title>Aug 2025: 475 total (+43 this month)</title></circle>
    <rect x="639.9" y="113.4" width="140" height="20" rx="4" class="tooltip-bg"/>
    <text x="709.9" y="127.4" class="tooltip-text" text-anchor="middle">Aug 2025: 475 total (+43 this month)</text>
  </g>
  <g class="hoverpoint">
    <line x1="722.5" y1="30" x2="722.5" y2="160.0" class="guide"/>
    <circle cx="722.5" cy="137.2" r="16" class="hit"/>
    <circle cx="722.5" cy="137.2" r="4" class="hover-dot"><title>Sep 2025: 526 total (+51 this month)</title></circle>
    <rect x="652.5" y="111.2" width="140" height="20" rx="4" class="tooltip-bg"/>
    <text x="722.5" y="125.2" class="tooltip-text" text-anchor="middle">Sep 2025: 526 total (+51 this month)</text>
  </g>
  <g class="hoverpoint">
    <line x1="734.4" y1="30" x2="734.4" y2="160.0" class="guide"/>
    <circle cx="734.4" cy="130.0" r="16" class="hit"/>
    <circle cx="734.4" cy="130.0" r="4" class="hover-dot"><title>Oct 2025: 692 total (+166 this month)</title></circle>
    <rect x="664.4" y="104.0" width="140" height="20" rx="4" class="tooltip-bg"/>
    <text x="734.4" y="118.0" class="tooltip-text" text-anchor="middle">Oct 2025: 692 total (+166 this month)</text>
  </g>
  <g class="hoverpoint">
    <line x1="745.8" y1="30" x2="745.8" y2="160.0" class="guide"/>
    <circle cx="745.8" cy="128.3" r="16" class="hit"/>
    <circle cx="745.8" cy="128.3" r="4" class="hover-dot"><title>Nov 2025: 731 total (+39 this month)</title></circle>
    <rect x="675.8" y="102.3" width="140" height="20" rx="4" class="tooltip-bg"/>
    <text x="745.8" y="116.3" class="tooltip-text" text-anchor="middle">Nov 2025: 731 total (+39 this month)</text>
  </g>
  <g class="hoverpoint">
    <line x1="757.7" y1="30" x2="757.7" y2="160.0" class="guide"/>
    <circle cx="757.7" cy="126.1" r="16" class="hit"/>
    <circle cx="757.7" cy="126.1" r="4" class="hover-dot"><title>Dec 2025: 783 total (+52 this month)</title></circle>
    <rect x="687.7" y="100.1" width="140" height="20" rx="4" class="tooltip-bg"/>
    <text x="757.7" y="114.1" class="tooltip-text" text-anchor="middle">Dec 2025: 783 total (+52 this month)</text>
  </g>
  <g class="hoverpoint">
    <line x1="769.5" y1="30" x2="769.5" y2="160.0" class="guide"/>
    <circle cx="769.5" cy="115.7" r="16" class="hit"/>
    <circle cx="769.5" cy="115.7" r="4" class="hover-dot"><title>Jan 2026: 1,022 total (+239 this month)</title></circle>
    <rect x="699.5" y="89.7" width="140" height="20" rx="4" class="tooltip-bg"/>
    <text x="769.5" y="103.7" class="tooltip-text" text-anchor="middle">Jan 2026: 1,022 total (+239 this month)</text>
  </g>
  <g class="hoverpoint">
    <line x1="780.2" y1="30" x2="780.2" y2="160.0" class="guide"/>
    <circle cx="780.2" cy="102.8" r="16" class="hit"/>
    <circle cx="780.2" cy="102.8" r="4" class="hover-dot"><title>Feb 2026: 1,321 total (+299 this month)</title></circle>
    <rect x="710.2" y="76.8" width="140" height="20" rx="4" class="tooltip-bg"/>
    <text x="780.2" y="90.8" class="tooltip-text" text-anchor="middle">Feb 2026: 1,321 total (+299 this month)</text>
  </g>
  <g class="hoverpoint">
    <line x1="792.1" y1="30" x2="792.1" y2="160.0" class="guide"/>
    <circle cx="792.1" cy="89.9" r="16" class="hit"/>
    <circle cx="792.1" cy="89.9" r="4" class="hover-dot"><title>Mar 2026: 1,617 total (+296 this month)</title></circle>
    <rect x="722.1" y="63.9" width="140" height="20" rx="4" class="tooltip-bg"/>
    <text x="792.1" y="77.9" class="tooltip-text" text-anchor="middle">Mar 2026: 1,617 total (+296 this month)</text>
  </g>
  <g class="hoverpoint">
    <line x1="803.2" y1="30" x2="803.2" y2="160.0" class="guide"/>
    <circle cx="803.2" cy="84.2" r="16" class="hit"/>
    <circle cx="803.2" cy="84.2" r="4" class="hover-dot"><title>Apr 2026: 1,749 total (+132 this month)</title></circle>
    <rect x="733.2" y="58.2" width="140" height="20" rx="4" class="tooltip-bg"/>
    <text x="803.2" y="72.2" class="tooltip-text" text-anchor="middle">Apr 2026: 1,749 total (+132 this month)</text>
  </g>
  <g class="hoverpoint">
    <line x1="815.4" y1="30" x2="815.4" y2="160.0" class="guide"/>
    <circle cx="815.4" cy="38.9" r="16" class="hit"/>
    <circle cx="815.4" cy="38.9" r="4" class="hover-dot"><title>May 2026: 2,795 total (+1,046 this month)</title></circle>
    <rect x="745.4" y="12.9" width="140" height="20" rx="4" class="tooltip-bg"/>
    <text x="815.4" y="26.9" class="tooltip-text" text-anchor="middle">May 2026: 2,795 total (+1,046 this month)</text>
  </g>
  <g class="hoverpoint">
    <line x1="820.0" y1="30" x2="820.0" y2="160.0" class="guide"/>
    <circle cx="820.0" cy="30.3" r="16" class="hit"/>
    <circle cx="820.0" cy="30.3" r="4" class="hover-dot"><title>Jun 2026: 2,992 total (+197 this month)</title></circle>
    <rect x="750.0" y="4.3" width="140" height="20" rx="4" class="tooltip-bg"/>
    <text x="820.0" y="18.3" class="tooltip-text" text-anchor="middle">Jun 2026: 2,992 total (+197 this month)</text>
  </g>

  <circle cx="820.0" cy="30.3" r="4" class="dot"/>
  <text x="810.0" y="20.3" class="total">2,992</text>

</svg>