<svg xmlns="http://www.w3.org/2000/svg" width="840" height="196" viewBox="0 0 840 196" fill="none">
  <style>
    .label { font-family: -apple-system, BlinkMacSystemFont, 'Segoe UI', Helvetica, Arial, sans-serif; font-size: 10px; fill: #8b949e; }
    .title { font-family: -apple-system, BlinkMacSystemFont, 'Segoe UI', Helvetica, Arial, sans-serif; font-size: 11px; fill: #8b949e; font-weight: 600; }
    .total { font-family: -apple-system, BlinkMacSystemFont, 'Segoe UI', Helvetica, Arial, sans-serif; font-size: 11px; fill: #7ee787; font-weight: 600; }
    .grid { stroke: #21262d; stroke-width: 1; }
    .line { stroke: #7ee787; stroke-width: 2; stroke-linecap: round; stroke-linejoin: round; fill: none; }
    .dot { fill: #7ee787; }
    .area { fill: url(#areaGrad); }
    /* Hover interaction */
    .hoverpoint .guide { stroke: #7ee787; stroke-width: 1; stroke-dasharray: 2,2; opacity: 0; }
    .hoverpoint .hover-dot { fill: #7ee787; opacity: 0; }
    .hoverpoint .hit { fill: transparent; cursor: pointer; }
    .hoverpoint .tooltip-bg { fill: #161b22; stroke: #30363d; stroke-width: 1; opacity: 0; }
    .hoverpoint .tooltip-text { font-family: -apple-system, BlinkMacSystemFont, 'Segoe UI', Helvetica, Arial, sans-serif; font-size: 9px; fill: #c9d1d9; opacity: 0; }
    .hoverpoint:hover .guide { opacity: 0.5; }
    .hoverpoint:hover .hover-dot { opacity: 1; }
    .hoverpoint:hover .tooltip-bg { opacity: 0.95; }
    .hoverpoint:hover .tooltip-text { opacity: 1; }
  </style>
  <defs>
    <linearGradient id="areaGrad" x1="0" y1="0" x2="0" y2="1">
      <stop offset="0%" stop-color="#7ee787" stop-opacity="0.15"/>
      <stop offset="100%" stop-color="#7ee787" stop-opacity="0.01"/>
    </linearGradient>
  </defs>

  <text x="60" y="18" class="title">Cumulative Commits</text>

  <line x1="60" y1="160.0" x2="820" y2="160.0" class="grid"/>
  <text x="50" y="163.0" class="label" text-anchor="end">0</text>
  <line x1="60" y1="127.5" x2="820" y2="127.5" class="grid" stroke-dasharray="3,3"/>
  <text x="50" y="130.5" class="label" text-anchor="end">1,000</text>
  <line x1="60" y1="95.0" x2="820" y2="95.0" class="grid" stroke-dasharray="3,3"/>
  <text x="50" y="98.0" class="label" text-anchor="end">2,000</text>
  <line x1="60" y1="62.5" x2="820" y2="62.5" class="grid" stroke-dasharray="3,3"/>
  <text x="50" y="65.5" class="label" text-anchor="end">3,000</text>
  <line x1="60" y1="30.0" x2="820" y2="30.0" class="grid" stroke-dasharray="3,3"/>
  <text x="50" y="33.0" class="label" text-anchor="end">4,000</text>

  <text x="70.0" y="186" class="label" text-anchor="middle">2021</text>
  <text x="191.8" y="186" class="label" text-anchor="middle">2022</text>
  <text x="323.7" y="186" class="label" text-anchor="middle">2023</text>
  <text x="455.5" y="186" class="label" text-anchor="middle">2024</text>
  <text x="587.7" y="186" class="label" text-anchor="middle">2025</text>
  <text x="719.6" y="186" class="label" text-anchor="middle">2026</text>


  <path class="area" d="M60.0,160.0 L60.0,160.0 60.0,160.0 L173.1,159.8 L173.4,159.8 L174.5,159.8 L191.8,159.7 L192.2,159.5 L192.6,159.4 L192.9,159.3 L193.3,159.3 L193.7,159.2 L194.4,159.1 L194.7,159.0 L195.1,158.9 L195.5,158.9 L196.9,158.8 L197.3,158.7 L197.6,158.7 L201.2,158.7 L210.6,158.6 L260.1,158.5 L260.5,158.2 L261.9,158.2 L262.6,158.0 L268.1,157.9 L268.8,157.8 L269.1,157.7 L269.5,157.7 L270.2,157.6 L270.6,157.3 L271.0,157.0 L271.3,156.9 L272.8,156.8 L273.5,156.8 L275.3,156.7 L280.3,156.6 L290.1,156.5 L295.5,156.5 L298.0,156.4 L298.4,156.4 L298.8,156.3 L299.1,156.1 L300.2,155.9 L300.6,155.9 L300.9,155.8 L302.4,155.7 L302.7,155.5 L303.1,155.5 L303.5,155.2 L303.8,154.9 L304.2,154.8 L304.5,154.8 L305.3,154.7 L306.7,154.6 L310.7,154.5 L321.2,154.5 L321.5,154.3 L321.9,154.3 L325.5,154.0 L325.9,153.3 L326.9,153.2 L327.3,153.1 L329.1,153.0 L341.4,152.9 L341.7,152.8 L342.1,152.8 L342.8,152.7 L345.4,152.6 L346.1,152.4 L346.4,152.4 L348.3,152.3 L356.9,152.2 L534.6,152.1 L535.4,152.1 L536.1,152.1 L536.8,152.0 L537.2,151.9 L537.5,151.9 L537.9,151.9 L538.3,151.8 L541.9,151.8 L552.0,151.8 L554.9,151.7 L556.0,151.7 L558.1,151.7 L560.3,151.6 L560.6,151.6 L562.1,151.6 L563.2,151.6 L563.9,151.5 L590.6,151.5 L591.0,151.4 L591.7,151.4 L592.1,151.4 L593.2,151.3 L595.0,151.2 L600.0,151.2 L610.5,150.9 L610.9,150.7 L615.6,150.7 L615.9,150.6 L617.0,150.5 L618.4,150.4 L620.2,150.1 L620.6,149.2 L621.0,149.1 L623.1,149.1 L624.2,149.0 L624.6,149.0 L625.3,148.9 L628.2,148.9 L630.7,148.6 L632.5,148.4 L632.9,148.3 L634.0,148.1 L634.3,147.7 L634.7,147.6 L635.1,147.5 L635.4,147.4 L635.8,147.2 L636.5,146.9 L637.6,146.7 L650.6,146.6 L651.3,146.2 L659.3,146.1 L664.0,146.0 L666.1,145.9 L666.5,145.9 L668.7,145.9 L669.0,145.8 L669.4,145.8 L669.7,145.7 L670.1,145.6 L670.5,145.2 L670.8,145.2 L673.0,144.7 L673.3,144.6 L674.1,144.6 L676.6,144.4 L677.3,144.4 L677.7,144.3 L678.4,144.2 L678.8,144.0 L679.1,143.9 L679.8,143.9 L680.2,143.8 L680.6,143.8 L680.9,143.8 L682.4,143.6 L682.7,143.5 L683.1,143.4 L683.5,143.4 L683.8,143.3 L684.2,143.2 L685.3,143.1 L685.6,143.0 L686.0,142.9 L686.3,142.8 L686.7,142.6 L687.4,142.5 L687.8,142.2 L688.2,142.0 L688.5,141.4 L688.9,141.2 L689.2,141.1 L689.6,140.8 L690.0,140.7 L690.3,140.6 L690.7,140.6 L691.0,140.3 L692.9,140.0 L693.2,139.9 L693.6,139.6 L693.9,139.0 L694.3,139.0 L695.0,138.9 L695.4,138.5 L695.7,138.2 L696.1,138.2 L696.5,137.6 L697.2,137.5 L697.5,137.4 L697.9,137.4 L698.3,137.3 L698.6,137.3 L699.0,137.3 L700.4,137.2 L701.2,137.2 L701.5,136.9 L701.9,136.8 L703.0,136.7 L704.8,136.7 L706.9,136.5 L707.3,136.5 L707.7,136.4 L708.0,136.2 L708.4,135.8 L708.7,135.8 L709.1,135.7 L709.5,135.7 L709.8,135.6 L710.2,135.3 L714.2,135.2 L714.5,135.2 L717.8,135.0 L718.5,134.7 L718.9,134.7 L719.2,134.6 L719.6,134.5 L720.7,134.4 L721.0,133.9 L721.4,132.8 L721.7,131.7 L722.1,131.7 L722.5,131.6 L723.2,131.4 L723.6,131.3 L723.9,131.0 L724.6,131.0 L725.0,130.7 L725.4,130.7 L726.1,130.2 L726.4,130.2 L726.8,129.9 L727.2,129.7 L727.5,129.5 L727.9,129.5 L729.0,129.2 L729.3,129.1 L729.7,128.3 L730.1,127.2 L730.4,126.8 L730.8,126.3 L731.1,126.2 L731.5,126.1 L731.9,125.9 L732.2,125.7 L732.6,125.3 L732.9,125.3 L733.3,125.0 L733.7,125.0 L734.0,124.7 L734.4,124.5 L734.8,124.2 L735.1,123.9 L735.5,123.8 L735.8,123.7 L736.2,123.2 L736.6,122.2 L736.9,122.0 L737.6,121.8 L738.0,121.7 L738.4,121.7 L738.7,120.1 L739.1,119.4 L739.4,118.7 L739.8,118.4 L740.2,117.2 L740.5,117.1 L740.9,117.0 L741.3,116.7 L741.6,116.2 L742.0,115.2 L742.3,114.1 L742.7,114.0 L743.1,113.8 L743.8,113.8 L744.1,113.1 L744.5,112.6 L744.9,111.9 L745.2,111.8 L745.6,111.8 L746.0,110.7 L746.3,109.5 L746.7,108.9 L747.0,108.7 L747.4,108.3 L747.8,108.0 L748.1,108.0 L748.8,107.8 L749.2,107.6 L749.6,107.6 L749.9,107.5 L750.3,107.5 L751.4,107.5 L751.7,107.4 L752.5,107.4 L753.2,107.3 L753.5,107.3 L754.3,106.9 L754.6,106.6 L755.0,106.3 L757.1,106.2 L757.5,106.0 L757.9,105.9 L758.2,105.7 L758.6,105.6 L759.0,105.5 L759.3,105.5 L759.7,105.0 L760.0,104.5 L760.4,104.3 L760.8,103.4 L761.1,103.2 L761.8,103.2 L762.2,103.2 L763.3,102.9 L763.7,102.5 L764.0,102.2 L764.4,102.0 L764.7,101.3 L765.1,98.5 L765.5,97.3 L765.8,97.1 L766.2,96.9 L766.5,96.4 L766.9,96.3 L767.3,92.4 L767.6,87.6 L768.0,86.2 L768.3,86.2 L768.7,85.4 L769.1,84.9 L769.4,82.0 L769.8,80.2 L770.2,77.5 L770.5,77.0 L770.9,76.9 L771.2,76.8 L771.6,75.9 L772.0,74.6 L772.3,71.6 L772.7,71.1 L773.0,70.5 L773.4,69.7 L773.8,69.2 L774.1,68.7 L774.5,66.9 L774.8,66.5 L775.2,66.4 L775.6,66.1 L775.9,66.0 L776.3,65.7 L776.7,65.6 L777.0,64.7 L777.4,63.3 L777.7,62.2 L778.1,62.1 L778.5,61.1 L778.8,60.4 L779.2,60.3 L779.5,60.1 L779.9,60.0 L780.3,59.7 L780.6,58.9 L781.0,58.0 L781.3,57.6 L781.7,52.6 L782.1,51.8 L782.4,51.6 L783.2,51.1 L783.9,50.9 L784.2,50.7 L784.6,50.3 L785.0,49.6 L785.3,49.5 L785.7,47.8 L786.0,47.7 L787.1,47.5 L787.5,46.7 L787.9,46.1 L788.2,45.9 L788.6,44.5 L788.9,43.4 L789.3,42.4 L789.7,42.3 L790.4,42.1 L790.7,41.8 L791.1,41.6 L791.5,41.4 L792.5,40.9 L792.9,40.5 L793.3,40.5 L797.2,40.2 L797.6,40.0 L799.0,39.8 L799.8,39.5 L800.9,39.4 L801.2,39.3 L801.9,39.1 L804.1,38.6 L804.5,37.8 L804.8,36.5 L805.2,36.4 L805.6,36.3 L806.3,35.8 L806.6,35.7 L807.0,35.7 L807.4,35.4 L807.7,35.4 L808.1,35.1 L808.4,35.0 L808.8,34.9 L814.2,34.9 L815.7,34.7 L818.2,34.4 L818.6,34.2 L818.9,34.0 L819.3,33.8 L819.6,33.2 L820.0,33.2 L820.0,160.0 Z"/>
  <polyline class="line" points="60.0,160.0 173.1,159.8 173.4,159.8 174.5,159.8 191.8,159.7 192.2,159.5 192.6,159.4 192.9,159.3 193.3,159.3 193.7,159.2 194.4,159.1 194.7,159.0 195.1,158.9 195.5,158.9 196.9,158.8 197.3,158.7 197.6,158.7 201.2,158.7 210.6,158.6 260.1,158.5 260.5,158.2 261.9,158.2 262.6,158.0 268.1,157.9 268.8,157.8 269.1,157.7 269.5,157.7 270.2,157.6 270.6,157.3 271.0,157.0 271.3,156.9 272.8,156.8 273.5,156.8 275.3,156.7 280.3,156.6 290.1,156.5 295.5,156.5 298.0,156.4 298.4,156.4 298.8,156.3 299.1,156.1 300.2,155.9 300.6,155.9 300.9,155.8 302.4,155.7 302.7,155.5 303.1,155.5 303.5,155.2 303.8,154.9 304.2,154.8 304.5,154.8 305.3,154.7 306.7,154.6 310.7,154.5 321.2,154.5 321.5,154.3 321.9,154.3 325.5,154.0 325.9,153.3 326.9,153.2 327.3,153.1 329.1,153.0 341.4,152.9 341.7,152.8 342.1,152.8 342.8,152.7 345.4,152.6 346.1,152.4 346.4,152.4 348.3,152.3 356.9,152.2 534.6,152.1 535.4,152.1 536.1,152.1 536.8,152.0 537.2,151.9 537.5,151.9 537.9,151.9 538.3,151.8 541.9,151.8 552.0,151.8 554.9,151.7 556.0,151.7 558.1,151.7 560.3,151.6 560.6,151.6 562.1,151.6 563.2,151.6 563.9,151.5 590.6,151.5 591.0,151.4 591.7,151.4 592.1,151.4 593.2,151.3 595.0,151.2 600.0,151.2 610.5,150.9 610.9,150.7 615.6,150.7 615.9,150.6 617.0,150.5 618.4,150.4 620.2,150.1 620.6,149.2 621.0,149.1 623.1,149.1 624.2,149.0 624.6,149.0 625.3,148.9 628.2,148.9 630.7,148.6 632.5,148.4 632.9,148.3 634.0,148.1 634.3,147.7 634.7,147.6 635.1,147.5 635.4,147.4 635.8,147.2 636.5,146.9 637.6,146.7 650.6,146.6 651.3,146.2 659.3,146.1 664.0,146.0 666.1,145.9 666.5,145.9 668.7,145.9 669.0,145.8 669.4,145.8 669.7,145.7 670.1,145.6 670.5,145.2 670.8,145.2 673.0,144.7 673.3,144.6 674.1,144.6 676.6,144.4 677.3,144.4 677.7,144.3 678.4,144.2 678.8,144.0 679.1,143.9 679.8,143.9 680.2,143.8 680.6,143.8 680.9,143.8 682.4,143.6 682.7,143.5 683.1,143.4 683.5,143.4 683.8,143.3 684.2,143.2 685.3,143.1 685.6,143.0 686.0,142.9 686.3,142.8 686.7,142.6 687.4,142.5 687.8,142.2 688.2,142.0 688.5,141.4 688.9,141.2 689.2,141.1 689.6,140.8 690.0,140.7 690.3,140.6 690.7,140.6 691.0,140.3 692.9,140.0 693.2,139.9 693.6,139.6 693.9,139.0 694.3,139.0 695.0,138.9 695.4,138.5 695.7,138.2 696.1,138.2 696.5,137.6 697.2,137.5 697.5,137.4 697.9,137.4 698.3,137.3 698.6,137.3 699.0,137.3 700.4,137.2 701.2,137.2 701.5,136.9 701.9,136.8 703.0,136.7 704.8,136.7 706.9,136.5 707.3,136.5 707.7,136.4 708.0,136.2 708.4,135.8 708.7,135.8 709.1,135.7 709.5,135.7 709.8,135.6 710.2,135.3 714.2,135.2 714.5,135.2 717.8,135.0 718.5,134.7 718.9,134.7 719.2,134.6 719.6,134.5 720.7,134.4 721.0,133.9 721.4,132.8 721.7,131.7 722.1,131.7 722.5,131.6 723.2,131.4 723.6,131.3 723.9,131.0 724.6,131.0 725.0,130.7 725.4,130.7 726.1,130.2 726.4,130.2 726.8,129.9 727.2,129.7 727.5,129.5 727.9,129.5 729.0,129.2 729.3,129.1 729.7,128.3 730.1,127.2 730.4,126.8 730.8,126.3 731.1,126.2 731.5,126.1 731.9,125.9 732.2,125.7 732.6,125.3 732.9,125.3 733.3,125.0 733.7,125.0 734.0,124.7 734.4,124.5 734.8,124.2 735.1,123.9 735.5,123.8 735.8,123.7 736.2,123.2 736.6,122.2 736.9,122.0 737.6,121.8 738.0,121.7 738.4,121.7 738.7,120.1 739.1,119.4 739.4,118.7 739.8,118.4 740.2,117.2 740.5,117.1 740.9,117.0 741.3,116.7 741.6,116.2 742.0,115.2 742.3,114.1 742.7,114.0 743.1,113.8 743.8,113.8 744.1,113.1 744.5,112.6 744.9,111.9 745.2,111.8 745.6,111.8 746.0,110.7 746.3,109.5 746.7,108.9 747.0,108.7 747.4,108.3 747.8,108.0 748.1,108.0 748.8,107.8 749.2,107.6 749.6,107.6 749.9,107.5 750.3,107.5 751.4,107.5 751.7,107.4 752.5,107.4 753.2,107.3 753.5,107.3 754.3,106.9 754.6,106.6 755.0,106.3 757.1,106.2 757.5,106.0 757.9,105.9 758.2,105.7 758.6,105.6 759.0,105.5 759.3,105.5 759.7,105.0 760.0,104.5 760.4,104.3 760.8,103.4 761.1,103.2 761.8,103.2 762.2,103.2 763.3,102.9 763.7,102.5 764.0,102.2 764.4,102.0 764.7,101.3 765.1,98.5 765.5,97.3 765.8,97.1 766.2,96.9 766.5,96.4 766.9,96.3 767.3,92.4 767.6,87.6 768.0,86.2 768.3,86.2 768.7,85.4 769.1,84.9 769.4,82.0 769.8,80.2 770.2,77.5 770.5,77.0 770.9,76.9 771.2,76.8 771.6,75.9 772.0,74.6 772.3,71.6 772.7,71.1 773.0,70.5 773.4,69.7 773.8,69.2 774.1,68.7 774.5,66.9 774.8,66.5 775.2,66.4 775.6,66.1 775.9,66.0 776.3,65.7 776.7,65.6 777.0,64.7 777.4,63.3 777.7,62.2 778.1,62.1 778.5,61.1 778.8,60.4 779.2,60.3 779.5,60.1 779.9,60.0 780.3,59.7 780.6,58.9 781.0,58.0 781.3,57.6 781.7,52.6 782.1,51.8 782.4,51.6 783.2,51.1 783.9,50.9 784.2,50.7 784.6,50.3 785.0,49.6 785.3,49.5 785.7,47.8 786.0,47.7 787.1,47.5 787.5,46.7 787.9,46.1 788.2,45.9 788.6,44.5 788.9,43.4 789.3,42.4 789.7,42.3 790.4,42.1 790.7,41.8 791.1,41.6 791.5,41.4 792.5,40.9 792.9,40.5 793.3,40.5 797.2,40.2 797.6,40.0 799.0,39.8 799.8,39.5 800.9,39.4 801.2,39.3 801.9,39.1 804.1,38.6 804.5,37.8 804.8,36.5 805.2,36.4 805.6,36.3 806.3,35.8 806.6,35.7 807.0,35.7 807.4,35.4 807.7,35.4 808.1,35.1 808.4,35.0 808.8,34.9 814.2,34.9 815.7,34.7 818.2,34.4 818.6,34.2 818.9,34.0 819.3,33.8 819.6,33.2 820.0,33.2"/>

  <g class="hoverpoint">
    <line x1="174.5" y1="30" x2="174.5" y2="160.0" class="guide"/>
    <circle cx="174.5" cy="159.8" r="16" class="hit"/>
    <circle cx="174.5" cy="159.8" r="4" class="hover-dot"><title>Nov 2021: 7 total (+7 this month)</title></circle>
    <rect x="104.5" y="133.8" width="140" height="20" rx="4" class="tooltip-bg"/>
    <text x="174.5" y="147.8" class="tooltip-text" text-anchor="middle">Nov 2021: 7 total (+7 this month)</text>
  </g>
  <g class="hoverpoint">
    <line x1="201.2" y1="30" x2="201.2" y2="160.0" class="guide"/>
    <circle cx="201.2" cy="158.7" r="16" class="hit"/>
    <circle cx="201.2" cy="158.7" r="4" class="hover-dot"><title>Jan 2022: 41 total (+34 this month)</title></circle>
    <rect x="131.2" y="132.7" width="140" height="20" rx="4" class="tooltip-bg"/>
    <text x="201.2" y="146.7" class="tooltip-text" text-anchor="middle">Jan 2022: 41 total (+34 this month)</text>
  </g>
  <g class="hoverpoint">
    <line x1="210.6" y1="30" x2="210.6" y2="160.0" class="guide"/>
    <circle cx="210.6" cy="158.6" r="16" class="hit"/>
    <circle cx="210.6" cy="158.6" r="4" class="hover-dot"><title>Feb 2022: 44 total (+3 this month)</title></circle>
    <rect x="140.6" y="132.6" width="140" height="20" rx="4" class="tooltip-bg"/>
    <text x="210.6" y="146.6" class="tooltip-text" text-anchor="middle">Feb 2022: 44 total (+3 this month)</text>
  </g>
  <g class="hoverpoint">
    <line x1="268.1" y1="30" x2="268.1" y2="160.0" class="guide"/>
    <circle cx="268.1" cy="157.9" r="16" class="hit"/>
    <circle cx="268.1" cy="157.9" r="4" class="hover-dot"><title>Jul 2022: 65 total (+21 this month)</title></circle>
    <rect x="198.1" y="131.9" width="140" height="20" rx="4" class="tooltip-bg"/>
    <text x="268.1" y="145.9" class="tooltip-text" text-anchor="middle">Jul 2022: 65 total (+21 this month)</text>
  </g>
  <g class="hoverpoint">
    <line x1="275.3" y1="30" x2="275.3" y2="160.0" class="guide"/>
    <circle cx="275.3" cy="156.7" r="16" class="hit"/>
    <circle cx="275.3" cy="156.7" r="4" class="hover-dot"><title>Aug 2022: 101 total (+36 this month)</title></circle>
    <rect x="205.3" y="130.7" width="140" height="20" rx="4" class="tooltip-bg"/>
    <text x="275.3" y="144.7" class="tooltip-text" text-anchor="middle">Aug 2022: 101 total (+36 this month)</text>
  </g>
  <g class="hoverpoint">
    <line x1="290.1" y1="30" x2="290.1" y2="160.0" class="guide"/>
    <circle cx="290.1" cy="156.5" r="16" class="hit"/>
    <circle cx="290.1" cy="156.5" r="4" class="hover-dot"><title>Sep 2022: 108 total (+7 this month)</title></circle>
    <rect x="220.1" y="130.5" width="140" height="20" rx="4" class="tooltip-bg"/>
    <text x="290.1" y="144.5" class="tooltip-text" text-anchor="middle">Sep 2022: 108 total (+7 this month)</text>
  </g>
  <g class="hoverpoint">
    <line x1="300.9" y1="30" x2="300.9" y2="160.0" class="guide"/>
    <circle cx="300.9" cy="155.8" r="16" class="hit"/>
    <circle cx="300.9" cy="155.8" r="4" class="hover-dot"><title>Oct 2022: 128 total (+20 this month)</title></circle>
    <rect x="230.9" y="129.8" width="140" height="20" rx="4" class="tooltip-bg"/>
    <text x="300.9" y="143.8" class="tooltip-text" text-anchor="middle">Oct 2022: 128 total (+20 this month)</text>
  </g>
  <g class="hoverpoint">
    <line x1="310.7" y1="30" x2="310.7" y2="160.0" class="guide"/>
    <circle cx="310.7" cy="154.5" r="16" class="hit"/>
    <circle cx="310.7" cy="154.5" r="4" class="hover-dot"><title>Nov 2022: 168 total (+40 this month)</title></circle>
    <rect x="240.7" y="128.5" width="140" height="20" rx="4" class="tooltip-bg"/>
    <text x="310.7" y="142.5" class="tooltip-text" text-anchor="middle">Nov 2022: 168 total (+40 this month)</text>
  </g>
  <g class="hoverpoint">
    <line x1="321.9" y1="30" x2="321.9" y2="160.0" class="guide"/>
    <circle cx="321.9" cy="154.3" r="16" class="hit"/>
    <circle cx="321.9" cy="154.3" r="4" class="hover-dot"><title>Dec 2022: 175 total (+7 this month)</title></circle>
    <rect x="251.9" y="128.3" width="140" height="20" rx="4" class="tooltip-bg"/>
    <text x="321.9" y="142.3" class="tooltip-text" text-anchor="middle">Dec 2022: 175 total (+7 this month)</text>
  </g>
  <g class="hoverpoint">
    <line x1="329.1" y1="30" x2="329.1" y2="160.0" class="guide"/>
    <circle cx="329.1" cy="153.0" r="16" class="hit"/>
    <circle cx="329.1" cy="153.0" r="4" class="hover-dot"><title>Jan 2023: 214 total (+39 this month)</title></circle>
    <rect x="259.1" y="127.0" width="140" height="20" rx="4" class="tooltip-bg"/>
    <text x="329.1" y="141.0" class="tooltip-text" text-anchor="middle">Jan 2023: 214 total (+39 this month)</text>
  </g>
  <g class="hoverpoint">
    <line x1="342.8" y1="30" x2="342.8" y2="160.0" class="guide"/>
    <circle cx="342.8" cy="152.7" r="16" class="hit"/>
    <circle cx="342.8" cy="152.7" r="4" class="hover-dot"><title>Feb 2023: 225 total (+11 this month)</title></circle>
    <rect x="272.8" y="126.7" width="140" height="20" rx="4" class="tooltip-bg"/>
    <text x="342.8" y="140.7" class="tooltip-text" text-anchor="middle">Feb 2023: 225 total (+11 this month)</text>
  </g>
  <g class="hoverpoint">
    <line x1="348.3" y1="30" x2="348.3" y2="160.0" class="guide"/>
    <circle cx="348.3" cy="152.3" r="16" class="hit"/>
    <circle cx="348.3" cy="152.3" r="4" class="hover-dot"><title>Mar 2023: 237 total (+12 this month)</title></circle>
    <rect x="278.3" y="126.3" width="140" height="20" rx="4" class="tooltip-bg"/>
    <text x="348.3" y="140.3" class="tooltip-text" text-anchor="middle">Mar 2023: 237 total (+12 this month)</text>
  </g>
  <g class="hoverpoint">
    <line x1="356.9" y1="30" x2="356.9" y2="160.0" class="guide"/>
    <circle cx="356.9" cy="152.2" r="16" class="hit"/>
    <circle cx="356.9" cy="152.2" r="4" class="hover-dot"><title>Apr 2023: 240 total (+3 this month)</title></circle>
    <rect x="286.9" y="126.2" width="140" height="20" rx="4" class="tooltip-bg"/>
    <text x="356.9" y="140.2" class="tooltip-text" text-anchor="middle">Apr 2023: 240 total (+3 this month)</text>
  </g>
  <g class="hoverpoint">
    <line x1="541.9" y1="30" x2="541.9" y2="160.0" class="guide"/>
    <circle cx="541.9" cy="151.8" r="16" class="hit"/>
    <circle cx="541.9" cy="151.8" r="4" class="hover-dot"><title>Aug 2024: 252 total (+12 this month)</title></circle>
    <rect x="471.9" y="125.8" width="140" height="20" rx="4" class="tooltip-bg"/>
    <text x="541.9" y="139.8" class="tooltip-text" text-anchor="middle">Aug 2024: 252 total (+12 this month)</text>
  </g>
  <g class="hoverpoint">
    <line x1="552.0" y1="30" x2="552.0" y2="160.0" class="guide"/>
    <circle cx="552.0" cy="151.8" r="16" class="hit"/>
    <circle cx="552.0" cy="151.8" r="4" class="hover-dot"><title>Sep 2024: 253 total (+1 this month)</title></circle>
    <rect x="482.0" y="125.8" width="140" height="20" rx="4" class="tooltip-bg"/>
    <text x="552.0" y="139.8" class="tooltip-text" text-anchor="middle">Sep 2024: 253 total (+1 this month)</text>
  </g>
  <g class="hoverpoint">
    <line x1="563.9" y1="30" x2="563.9" y2="160.0" class="guide"/>
    <circle cx="563.9" cy="151.5" r="16" class="hit"/>
    <circle cx="563.9" cy="151.5" r="4" class="hover-dot"><title>Oct 2024: 261 total (+8 this month)</title></circle>
    <rect x="493.9" y="125.5" width="140" height="20" rx="4" class="tooltip-bg"/>
    <text x="563.9" y="139.5" class="tooltip-text" text-anchor="middle">Oct 2024: 261 total (+8 this month)</text>
  </g>
  <g class="hoverpoint">
    <line x1="595.0" y1="30" x2="595.0" y2="160.0" class="guide"/>
    <circle cx="595.0" cy="151.2" r="16" class="hit"/>
    <circle cx="595.0" cy="151.2" r="4" class="hover-dot"><title>Jan 2025: 270 total (+9 this month)</title></circle>
    <rect x="525.0" y="125.2" width="140" height="20" rx="4" class="tooltip-bg"/>
    <text x="595.0" y="139.2" class="tooltip-text" text-anchor="middle">Jan 2025: 270 total (+9 this month)</text>
  </g>
  <g class="hoverpoint">
    <line x1="600.0" y1="30" x2="600.0" y2="160.0" class="guide"/>
    <circle cx="600.0" cy="151.2" r="16" class="hit"/>
    <circle cx="600.0" cy="151.2" r="4" class="hover-dot"><title>Feb 2025: 272 total (+2 this month)</title></circle>
    <rect x="530.0" y="125.2" width="140" height="20" rx="4" class="tooltip-bg"/>
    <text x="600.0" y="139.2" class="tooltip-text" text-anchor="middle">Feb 2025: 272 total (+2 this month)</text>
  </g>
  <g class="hoverpoint">
    <line x1="618.4" y1="30" x2="618.4" y2="160.0" class="guide"/>
    <circle cx="618.4" cy="150.4" r="16" class="hit"/>
    <circle cx="618.4" cy="150.4" r="4" class="hover-dot"><title>Mar 2025: 294 total (+22 this month)</title></circle>
    <rect x="548.4" y="124.4" width="140" height="20" rx="4" class="tooltip-bg"/>
    <text x="618.4" y="138.4" class="tooltip-text" text-anchor="middle">Mar 2025: 294 total (+22 this month)</text>
  </g>
  <g class="hoverpoint">
    <line x1="630.7" y1="30" x2="630.7" y2="160.0" class="guide"/>
    <circle cx="630.7" cy="148.6" r="16" class="hit"/>
    <circle cx="630.7" cy="148.6" r="4" class="hover-dot"><title>Apr 2025: 351 total (+57 this month)</title></circle>
    <rect x="560.7" y="122.6" width="140" height="20" rx="4" class="tooltip-bg"/>
    <text x="630.7" y="136.6" class="tooltip-text" text-anchor="middle">Apr 2025: 351 total (+57 this month)</text>
  </g>
  <g class="hoverpoint">
    <line x1="637.6" y1="30" x2="637.6" y2="160.0" class="guide"/>
    <circle cx="637.6" cy="146.7" r="16" class="hit"/>
    <circle cx="637.6" cy="146.7" r="4" class="hover-dot"><title>May 2025: 408 total (+57 this month)</title></circle>
    <rect x="567.6" y="120.7" width="140" height="20" rx="4" class="tooltip-bg"/>
    <text x="637.6" y="134.7" class="tooltip-text" text-anchor="middle">May 2025: 408 total (+57 this month)</text>
  </g>
  <g class="hoverpoint">
    <line x1="651.3" y1="30" x2="651.3" y2="160.0" class="guide"/>
    <circle cx="651.3" cy="146.2" r="16" class="hit"/>
    <circle cx="651.3" cy="146.2" r="4" class="hover-dot"><title>Jun 2025: 424 total (+16 this month)</title></circle>
    <rect x="581.3" y="120.2" width="140" height="20" rx="4" class="tooltip-bg"/>
    <text x="651.3" y="134.2" class="tooltip-text" text-anchor="middle">Jun 2025: 424 total (+16 this month)</text>
  </g>
  <g class="hoverpoint">
    <line x1="664.0" y1="30" x2="664.0" y2="160.0" class="guide"/>
    <circle cx="664.0" cy="146.0" r="16" class="hit"/>
    <circle cx="664.0" cy="146.0" r="4" class="hover-dot"><title>Jul 2025: 432 total (+8 this month)</title></circle>
    <rect x="594.0" y="120.0" width="140" height="20" rx="4" class="tooltip-bg"/>
    <text x="664.0" y="134.0" class="tooltip-text" text-anchor="middle">Jul 2025: 432 total (+8 this month)</text>
  </g>
  <g class="hoverpoint">
    <line x1="674.1" y1="30" x2="674.1" y2="160.0" class="guide"/>
    <circle cx="674.1" cy="144.6" r="16" class="hit"/>
    <circle cx="674.1" cy="144.6" r="4" class="hover-dot"><title>Aug 2025: 475 total (+43 this month)</title></circle>
    <rect x="604.1" y="118.6" width="140" height="20" rx="4" class="tooltip-bg"/>
    <text x="674.1" y="132.6" class="tooltip-text" text-anchor="middle">Aug 2025: 475 total (+43 this month)</text>
  </g>
  <g class="hoverpoint">
    <line x1="686.0" y1="30" x2="686.0" y2="160.0" class="guide"/>
    <circle cx="686.0" cy="142.9" r="16" class="hit"/>
    <circle cx="686.0" cy="142.9" r="4" class="hover-dot"><title>Sep 2025: 526 total (+51 this month)</title></circle>
    <rect x="616.0" y="116.9" width="140" height="20" rx="4" class="tooltip-bg"/>
    <text x="686.0" y="130.9" class="tooltip-text" text-anchor="middle">Sep 2025: 526 total (+51 this month)</text>
  </g>
  <g class="hoverpoint">
    <line x1="697.2" y1="30" x2="697.2" y2="160.0" class="guide"/>
    <circle cx="697.2" cy="137.5" r="16" class="hit"/>
    <circle cx="697.2" cy="137.5" r="4" class="hover-dot"><title>Oct 2025: 692 total (+166 this month)</title></circle>
    <rect x="627.2" y="111.5" width="140" height="20" rx="4" class="tooltip-bg"/>
    <text x="697.2" y="125.5" class="tooltip-text" text-anchor="middle">Oct 2025: 692 total (+166 this month)</text>
  </g>
  <g class="hoverpoint">
    <line x1="708.0" y1="30" x2="708.0" y2="160.0" class="guide"/>
    <circle cx="708.0" cy="136.2" r="16" class="hit"/>
    <circle cx="708.0" cy="136.2" r="4" class="hover-dot"><title>Nov 2025: 731 total (+39 this month)</title></circle>
    <rect x="638.0" y="110.2" width="140" height="20" rx="4" class="tooltip-bg"/>
    <text x="708.0" y="124.2" class="tooltip-text" text-anchor="middle">Nov 2025: 731 total (+39 this month)</text>
  </g>
  <g class="hoverpoint">
    <line x1="719.2" y1="30" x2="719.2" y2="160.0" class="guide"/>
    <circle cx="719.2" cy="134.6" r="16" class="hit"/>
    <circle cx="719.2" cy="134.6" r="4" class="hover-dot"><title>Dec 2025: 783 total (+52 this month)</title></circle>
    <rect x="649.2" y="108.6" width="140" height="20" rx="4" class="tooltip-bg"/>
    <text x="719.2" y="122.6" class="tooltip-text" text-anchor="middle">Dec 2025: 783 total (+52 this month)</text>
  </g>
  <g class="hoverpoint">
    <line x1="730.4" y1="30" x2="730.4" y2="160.0" class="guide"/>
    <circle cx="730.4" cy="126.8" r="16" class="hit"/>
    <circle cx="730.4" cy="126.8" r="4" class="hover-dot"><title>Jan 2026: 1,022 total (+239 this month)</title></circle>
    <rect x="660.4" y="100.8" width="140" height="20" rx="4" class="tooltip-bg"/>
    <text x="730.4" y="114.8" class="tooltip-text" text-anchor="middle">Jan 2026: 1,022 total (+239 this month)</text>
  </g>
  <g class="hoverpoint">
    <line x1="740.5" y1="30" x2="740.5" y2="160.0" class="guide"/>
    <circle cx="740.5" cy="117.1" r="16" class="hit"/>
    <circle cx="740.5" cy="117.1" r="4" class="hover-dot"><title>Feb 2026: 1,321 total (+299 this month)</title></circle>
    <rect x="670.5" y="91.1" width="140" height="20" rx="4" class="tooltip-bg"/>
    <text x="740.5" y="105.1" class="tooltip-text" text-anchor="middle">Feb 2026: 1,321 total (+299 this month)</text>
  </g>
  <g class="hoverpoint">
    <line x1="751.7" y1="30" x2="751.7" y2="160.0" class="guide"/>
    <circle cx="751.7" cy="107.4" r="16" class="hit"/>
    <circle cx="751.7" cy="107.4" r="4" class="hover-dot"><title>Mar 2026: 1,617 total (+296 this month)</title></circle>
    <rect x="681.7" y="81.4" width="140" height="20" rx="4" class="tooltip-bg"/>
    <text x="751.7" y="95.4" class="tooltip-text" text-anchor="middle">Mar 2026: 1,617 total (+296 this month)</text>
  </g>
  <g class="hoverpoint">
    <line x1="762.2" y1="30" x2="762.2" y2="160.0" class="guide"/>
    <circle cx="762.2" cy="103.2" r="16" class="hit"/>
    <circle cx="762.2" cy="103.2" r="4" class="hover-dot"><title>Apr 2026: 1,749 total (+132 this month)</title></circle>
    <rect x="692.2" y="77.2" width="140" height="20" rx="4" class="tooltip-bg"/>
    <text x="762.2" y="91.2" class="tooltip-text" text-anchor="middle">Apr 2026: 1,749 total (+132 this month)</text>
  </g>
  <g class="hoverpoint">
    <line x1="773.8" y1="30" x2="773.8" y2="160.0" class="guide"/>
    <circle cx="773.8" cy="69.2" r="16" class="hit"/>
    <circle cx="773.8" cy="69.2" r="4" class="hover-dot"><title>May 2026: 2,795 total (+1,046 this month)</title></circle>
    <rect x="703.8" y="43.2" width="140" height="20" rx="4" class="tooltip-bg"/>
    <text x="773.8" y="57.2" class="tooltip-text" text-anchor="middle">May 2026: 2,795 total (+1,046 this month)</text>
  </g>
  <g class="hoverpoint">
    <line x1="784.6" y1="30" x2="784.6" y2="160.0" class="guide"/>
    <circle cx="784.6" cy="50.3" r="16" class="hit"/>
    <circle cx="784.6" cy="50.3" r="4" class="hover-dot"><title>Jun 2026: 3,374 total (+579 this month)</title></circle>
    <rect x="714.6" y="24.3" width="140" height="20" rx="4" class="tooltip-bg"/>
    <text x="784.6" y="38.3" class="tooltip-text" text-anchor="middle">Jun 2026: 3,374 total (+579 this month)</text>
  </g>
  <g class="hoverpoint">
    <line x1="793.3" y1="30" x2="793.3" y2="160.0" class="guide"/>
    <circle cx="793.3" cy="40.5" r="16" class="hit"/>
    <circle cx="793.3" cy="40.5" r="4" class="hover-dot"><title>Jul 2026: 3,678 total (+304 this month)</title></circle>
    <rect x="723.3" y="14.5" width="140" height="20" rx="4" class="tooltip-bg"/>
    <text x="793.3" y="28.5" class="tooltip-text" text-anchor="middle">Jul 2026: 3,678 total (+304 this month)</text>
  </g>
  <g class="hoverpoint">
    <line x1="807.0" y1="30" x2="807.0" y2="160.0" class="guide"/>
    <circle cx="807.0" cy="35.7" r="16" class="hit"/>
    <circle cx="807.0" cy="35.7" r="4" class="hover-dot"><title>Aug 2026: 3,826 total (+148 this month)</title></circle>
    <rect x="737.0" y="9.7" width="140" height="20" rx="4" class="tooltip-bg"/>
    <text x="807.0" y="23.7" class="tooltip-text" text-anchor="middle">Aug 2026: 3,826 total (+148 this month)</text>
  </g>
  <g class="hoverpoint">
    <line x1="815.7" y1="30" x2="815.7" y2="160.0" class="guide"/>
    <circle cx="815.7" cy="34.7" r="16" class="hit"/>
    <circle cx="815.7" cy="34.7" r="4" class="hover-dot"><title>Sep 2026: 3,855 total (+29 this month)</title></circle>
    <rect x="745.7" y="8.7" width="140" height="20" rx="4" class="tooltip-bg"/>
    <text x="815.7" y="22.7" class="tooltip-text" text-anchor="middle">Sep 2026: 3,855 total (+29 this month)</text>
  </g>
  <g class="hoverpoint">
    <line x1="820.0" y1="30" x2="820.0" y2="160.0" class="guide"/>
    <circle cx="820.0" cy="33.2" r="16" class="hit"/>
    <circle cx="820.0" cy="33.2" r="4" class="hover-dot"><title>Oct 2026: 3,903 total (+48 this month)</title></circle>
    <rect x="750.0" y="7.2" width="140" height="20" rx="4" class="tooltip-bg"/>
    <text x="820.0" y="21.2" class="tooltip-text" text-anchor="middle">Oct 2026: 3,903 total (+48 this month)</text>
  </g>

  <circle cx="820.0" cy="33.2" r="4" class="dot"/>
  <text x="810.0" y="23.2" class="total">3,903</text>

</svg>