<svg xmlns="http://www.w3.org/2000/svg" width="840" height="196" viewBox="0 0 840 196" fill="none">
  <style>
    .label { font-family: -apple-system, BlinkMacSystemFont, 'Segoe UI', Helvetica, Arial, sans-serif; font-size: 10px; fill: #8b949e; }
    .title { font-family: -apple-system, BlinkMacSystemFont, 'Segoe UI', Helvetica, Arial, sans-serif; font-size: 11px; fill: #8b949e; font-weight: 600; }
    .total { font-family: -apple-system, BlinkMacSystemFont, 'Segoe UI', Helvetica, Arial, sans-serif; font-size: 11px; fill: #7ee787; font-weight: 600; }
    .grid { stroke: #21262d; stroke-width: 1; }
    .line { stroke: #7ee787; stroke-width: 2; stroke-linecap: round; stroke-linejoin: round; fill: none; }
    .dot { fill: #7ee787; }
    .area { fill: url(#areaGrad); }
    /* Hover interaction */
    .hoverpoint .guide { stroke: #7ee787; stroke-width: 1; stroke-dasharray: 2,2; opacity: 0; }
    .hoverpoint .hover-dot { fill: #7ee787; opacity: 0; }
    .hoverpoint .hit { fill: transparent; cursor: pointer; }
    .hoverpoint .tooltip-bg { fill: #161b22; stroke: #30363d; stroke-width: 1; opacity: 0; }
    .hoverpoint .tooltip-text { font-family: -apple-system, BlinkMacSystemFont, 'Segoe UI', Helvetica, Arial, sans-serif; font-size: 9px; fill: #c9d1d9; opacity: 0; }
    .hoverpoint:hover .guide { opacity: 0.5; }
    .hoverpoint:hover .hover-dot { opacity: 1; }
    .hoverpoint:hover .tooltip-bg { opacity: 0.95; }
    .hoverpoint:hover .tooltip-text { opacity: 1; }
  </style>
  <defs>
    <linearGradient id="areaGrad" x1="0" y1="0" x2="0" y2="1">
      <stop offset="0%" stop-color="#7ee787" stop-opacity="0.15"/>
      <stop offset="100%" stop-color="#7ee787" stop-opacity="0.01"/>
    </linearGradient>
  </defs>

  <text x="60" y="18" class="title">Cumulative Commits</text>

  <line x1="60" y1="160.0" x2="820" y2="160.0" class="grid"/>
  <text x="50" y="163.0" class="label" text-anchor="end">0</text>
  <line x1="60" y1="127.5" x2="820" y2="127.5" class="grid" stroke-dasharray="3,3"/>
  <text x="50" y="130.5" class="label" text-anchor="end">500</text>
  <line x1="60" y1="95.0" x2="820" y2="95.0" class="grid" stroke-dasharray="3,3"/>
  <text x="50" y="98.0" class="label" text-anchor="end">1,000</text>
  <line x1="60" y1="62.5" x2="820" y2="62.5" class="grid" stroke-dasharray="3,3"/>
  <text x="50" y="65.5" class="label" text-anchor="end">1,500</text>
  <line x1="60" y1="30.0" x2="820" y2="30.0" class="grid" stroke-dasharray="3,3"/>
  <text x="50" y="33.0" class="label" text-anchor="end">2,000</text>

  <text x="70.0" y="186" class="label" text-anchor="middle">2021</text>
  <text x="204.5" y="186" class="label" text-anchor="middle">2022</text>
  <text x="349.0" y="186" class="label" text-anchor="middle">2023</text>
  <text x="493.4" y="186" class="label" text-anchor="middle">2024</text>
  <text x="638.3" y="186" class="label" text-anchor="middle">2025</text>
  <text x="782.8" y="186" class="label" text-anchor="middle">2026</text>


  <path class="area" d="M60.0,160.0 L60.0,160.0 60.0,160.0 L183.9,159.7 L184.3,159.6 L185.5,159.5 L204.5,159.4 L204.9,159.0 L205.3,158.9 L205.7,158.6 L206.1,158.6 L206.5,158.4 L207.2,158.1 L207.6,157.9 L208.0,157.8 L208.4,157.7 L210.0,157.5 L210.4,157.5 L210.8,157.4 L214.8,157.3 L225.1,157.1 L279.3,157.1 L279.7,156.5 L281.3,156.4 L282.1,155.9 L288.0,155.8 L288.8,155.6 L289.2,155.4 L289.6,155.3 L290.4,155.1 L290.8,154.7 L291.2,154.0 L291.6,153.9 L293.1,153.6 L293.9,153.6 L295.9,153.4 L301.5,153.2 L312.1,153.0 L318.1,152.9 L320.9,152.8 L321.2,152.7 L321.6,152.5 L322.0,152.3 L323.2,151.8 L323.6,151.7 L324.0,151.7 L325.6,151.4 L326.0,151.1 L326.4,151.0 L326.8,150.4 L327.2,149.9 L327.6,149.7 L328.0,149.5 L328.8,149.4 L330.4,149.3 L334.7,149.1 L346.2,149.0 L346.6,148.7 L347.0,148.6 L350.9,148.0 L351.3,146.5 L352.5,146.3 L352.9,146.3 L354.9,146.1 L368.4,145.8 L368.8,145.7 L369.1,145.6 L369.9,145.4 L372.7,145.2 L373.5,144.9 L373.9,144.7 L375.9,144.6 L385.4,144.4 L580.1,144.3 L580.9,144.2 L581.7,144.1 L582.5,144.0 L582.9,143.9 L583.3,143.8 L583.7,143.8 L584.1,143.7 L588.0,143.6 L599.1,143.6 L602.3,143.5 L603.5,143.4 L605.9,143.4 L608.2,143.3 L608.6,143.2 L610.2,143.2 L611.4,143.1 L612.2,143.0 L641.5,143.0 L641.9,142.8 L642.7,142.8 L643.1,142.7 L644.2,142.5 L646.2,142.4 L651.8,142.3 L663.2,141.7 L663.6,141.5 L668.8,141.3 L669.2,141.2 L670.4,141.1 L672.0,140.9 L673.9,140.2 L674.3,138.4 L674.7,138.3 L677.1,138.2 L678.3,138.1 L678.7,138.0 L679.5,137.8 L682.6,137.7 L685.4,137.2 L687.4,136.7 L687.8,136.5 L689.0,136.2 L689.4,135.4 L689.8,135.2 L690.2,134.9 L690.6,134.7 L691.0,134.4 L691.8,133.9 L692.9,133.5 L707.2,133.3 L708.0,132.4 L716.7,132.2 L721.8,131.9 L724.2,131.9 L724.6,131.8 L727.0,131.7 L727.4,131.7 L727.8,131.6 L728.2,131.4 L728.6,131.1 L729.0,130.5 L729.4,130.4 L731.7,129.4 L732.1,129.3 L732.9,129.1 L735.7,128.8 L736.5,128.7 L736.9,128.5 L737.7,128.5 L738.1,128.0 L738.5,127.9 L739.2,127.8 L739.6,127.6 L740.0,127.6 L740.4,127.5 L742.0,127.1 L742.4,127.0 L742.8,126.8 L743.2,126.7 L743.6,126.6 L744.0,126.4 L745.2,126.1 L745.6,125.9 L746.0,125.8 L746.4,125.6 L746.8,125.2 L747.6,125.1 L748.0,124.4 L748.4,124.1 L748.8,122.8 L749.1,122.5 L749.5,122.2 L749.9,121.5 L750.3,121.4 L750.7,121.2 L751.1,121.1 L751.5,120.7 L753.5,120.0 L753.9,119.8 L754.3,119.2 L754.7,118.1 L755.1,118.0 L755.9,117.9 L756.3,116.9 L756.7,116.4 L757.1,116.3 L757.5,115.3 L758.2,115.0 L758.6,114.9 L759.0,114.8 L759.4,114.7 L759.8,114.6 L760.2,114.6 L761.8,114.4 L762.6,114.3 L763.0,113.8 L763.4,113.5 L764.6,113.5 L766.6,113.3 L768.9,113.1 L769.3,112.9 L769.7,112.9 L770.1,112.5 L770.5,111.6 L770.9,111.5 L771.3,111.4 L771.7,111.3 L772.1,111.1 L772.5,110.6 L776.9,110.5 L777.2,110.4 L780.8,109.9 L781.6,109.5 L782.0,109.4 L782.4,109.1 L782.8,109.0 L784.0,108.8 L784.4,107.9 L784.8,105.5 L785.2,103.5 L785.6,103.4 L786.0,103.1 L786.8,102.8 L787.1,102.5 L787.5,102.1 L788.3,102.0 L788.7,101.4 L789.1,101.3 L789.9,100.4 L790.3,100.3 L790.7,99.8 L791.1,99.5 L791.5,99.1 L791.9,99.0 L793.1,98.4 L793.5,98.1 L793.9,96.6 L794.3,94.4 L794.7,93.6 L795.1,92.6 L795.5,92.5 L795.9,92.1 L796.2,91.9 L796.6,91.4 L797.0,90.6 L797.4,90.6 L797.8,90.1 L798.2,90.0 L798.6,89.5 L799.0,89.0 L799.4,88.4 L799.8,87.8 L800.2,87.7 L800.6,87.5 L801.0,86.4 L801.4,84.4 L801.8,84.1 L802.6,83.7 L803.0,83.5 L803.4,83.4 L803.8,80.2 L804.2,78.8 L804.6,77.3 L805.0,76.8 L805.4,74.4 L805.8,74.1 L806.1,74.0 L806.5,73.5 L806.9,72.4 L807.3,70.4 L807.7,68.2 L808.1,68.1 L808.5,67.6 L809.3,67.5 L809.7,66.2 L810.1,65.2 L810.5,63.8 L810.9,63.6 L811.3,63.5 L811.7,61.4 L812.1,58.9 L812.5,57.8 L812.9,57.3 L813.3,56.6 L813.7,56.1 L814.1,56.0 L814.9,55.7 L815.2,55.3 L815.6,55.2 L816.0,55.1 L816.4,55.0 L817.6,55.0 L818.0,54.9 L818.8,54.8 L819.6,54.7 L820.0,54.6 L820.0,160.0 Z"/>
  <polyline class="line" points="60.0,160.0 183.9,159.7 184.3,159.6 185.5,159.5 204.5,159.4 204.9,159.0 205.3,158.9 205.7,158.6 206.1,158.6 206.5,158.4 207.2,158.1 207.6,157.9 208.0,157.8 208.4,157.7 210.0,157.5 210.4,157.5 210.8,157.4 214.8,157.3 225.1,157.1 279.3,157.1 279.7,156.5 281.3,156.4 282.1,155.9 288.0,155.8 288.8,155.6 289.2,155.4 289.6,155.3 290.4,155.1 290.8,154.7 291.2,154.0 291.6,153.9 293.1,153.6 293.9,153.6 295.9,153.4 301.5,153.2 312.1,153.0 318.1,152.9 320.9,152.8 321.2,152.7 321.6,152.5 322.0,152.3 323.2,151.8 323.6,151.7 324.0,151.7 325.6,151.4 326.0,151.1 326.4,151.0 326.8,150.4 327.2,149.9 327.6,149.7 328.0,149.5 328.8,149.4 330.4,149.3 334.7,149.1 346.2,149.0 346.6,148.7 347.0,148.6 350.9,148.0 351.3,146.5 352.5,146.3 352.9,146.3 354.9,146.1 368.4,145.8 368.8,145.7 369.1,145.6 369.9,145.4 372.7,145.2 373.5,144.9 373.9,144.7 375.9,144.6 385.4,144.4 580.1,144.3 580.9,144.2 581.7,144.1 582.5,144.0 582.9,143.9 583.3,143.8 583.7,143.8 584.1,143.7 588.0,143.6 599.1,143.6 602.3,143.5 603.5,143.4 605.9,143.4 608.2,143.3 608.6,143.2 610.2,143.2 611.4,143.1 612.2,143.0 641.5,143.0 641.9,142.8 642.7,142.8 643.1,142.7 644.2,142.5 646.2,142.4 651.8,142.3 663.2,141.7 663.6,141.5 668.8,141.3 669.2,141.2 670.4,141.1 672.0,140.9 673.9,140.2 674.3,138.4 674.7,138.3 677.1,138.2 678.3,138.1 678.7,138.0 679.5,137.8 682.6,137.7 685.4,137.2 687.4,136.7 687.8,136.5 689.0,136.2 689.4,135.4 689.8,135.2 690.2,134.9 690.6,134.7 691.0,134.4 691.8,133.9 692.9,133.5 707.2,133.3 708.0,132.4 716.7,132.2 721.8,131.9 724.2,131.9 724.6,131.8 727.0,131.7 727.4,131.7 727.8,131.6 728.2,131.4 728.6,131.1 729.0,130.5 729.4,130.4 731.7,129.4 732.1,129.3 732.9,129.1 735.7,128.8 736.5,128.7 736.9,128.5 737.7,128.5 738.1,128.0 738.5,127.9 739.2,127.8 739.6,127.6 740.0,127.6 740.4,127.5 742.0,127.1 742.4,127.0 742.8,126.8 743.2,126.7 743.6,126.6 744.0,126.4 745.2,126.1 745.6,125.9 746.0,125.8 746.4,125.6 746.8,125.2 747.6,125.1 748.0,124.4 748.4,124.1 748.8,122.8 749.1,122.5 749.5,122.2 749.9,121.5 750.3,121.4 750.7,121.2 751.1,121.1 751.5,120.7 753.5,120.0 753.9,119.8 754.3,119.2 754.7,118.1 755.1,118.0 755.9,117.9 756.3,116.9 756.7,116.4 757.1,116.3 757.5,115.3 758.2,115.0 758.6,114.9 759.0,114.8 759.4,114.7 759.8,114.6 760.2,114.6 761.8,114.4 762.6,114.3 763.0,113.8 763.4,113.5 764.6,113.5 766.6,113.3 768.9,113.1 769.3,112.9 769.7,112.9 770.1,112.5 770.5,111.6 770.9,111.5 771.3,111.4 771.7,111.3 772.1,111.1 772.5,110.6 776.9,110.5 777.2,110.4 780.8,109.9 781.6,109.5 782.0,109.4 782.4,109.1 782.8,109.0 784.0,108.8 784.4,107.9 784.8,105.5 785.2,103.5 785.6,103.4 786.0,103.1 786.8,102.8 787.1,102.5 787.5,102.1 788.3,102.0 788.7,101.4 789.1,101.3 789.9,100.4 790.3,100.3 790.7,99.8 791.1,99.5 791.5,99.1 791.9,99.0 793.1,98.4 793.5,98.1 793.9,96.6 794.3,94.4 794.7,93.6 795.1,92.6 795.5,92.5 795.9,92.1 796.2,91.9 796.6,91.4 797.0,90.6 797.4,90.6 797.8,90.1 798.2,90.0 798.6,89.5 799.0,89.0 799.4,88.4 799.8,87.8 800.2,87.7 800.6,87.5 801.0,86.4 801.4,84.4 801.8,84.1 802.6,83.7 803.0,83.5 803.4,83.4 803.8,80.2 804.2,78.8 804.6,77.3 805.0,76.8 805.4,74.4 805.8,74.1 806.1,74.0 806.5,73.5 806.9,72.4 807.3,70.4 807.7,68.2 808.1,68.1 808.5,67.6 809.3,67.5 809.7,66.2 810.1,65.2 810.5,63.8 810.9,63.6 811.3,63.5 811.7,61.4 812.1,58.9 812.5,57.8 812.9,57.3 813.3,56.6 813.7,56.1 814.1,56.0 814.9,55.7 815.2,55.3 815.6,55.2 816.0,55.1 816.4,55.0 817.6,55.0 818.0,54.9 818.8,54.8 819.6,54.7 820.0,54.6"/>

  <g class="hoverpoint">
    <line x1="185.5" y1="30" x2="185.5" y2="160.0" class="guide"/>
    <circle cx="185.5" cy="159.5" r="16" class="hit"/>
    <circle cx="185.5" cy="159.5" r="4" class="hover-dot"><title>Nov 2021: 7 total (+7 this month)</title></circle>
    <rect x="115.5" y="133.5" width="140" height="20" rx="4" class="tooltip-bg"/>
    <text x="185.5" y="147.5" class="tooltip-text" text-anchor="middle">Nov 2021: 7 total (+7 this month)</text>
  </g>
  <g class="hoverpoint">
    <line x1="214.8" y1="30" x2="214.8" y2="160.0" class="guide"/>
    <circle cx="214.8" cy="157.3" r="16" class="hit"/>
    <circle cx="214.8" cy="157.3" r="4" class="hover-dot"><title>Jan 2022: 41 total (+34 this month)</title></circle>
    <rect x="144.8" y="131.3" width="140" height="20" rx="4" class="tooltip-bg"/>
    <text x="214.8" y="145.3" class="tooltip-text" text-anchor="middle">Jan 2022: 41 total (+34 this month)</text>
  </g>
  <g class="hoverpoint">
    <line x1="225.1" y1="30" x2="225.1" y2="160.0" class="guide"/>
    <circle cx="225.1" cy="157.1" r="16" class="hit"/>
    <circle cx="225.1" cy="157.1" r="4" class="hover-dot"><title>Feb 2022: 44 total (+3 this month)</title></circle>
    <rect x="155.1" y="131.1" width="140" height="20" rx="4" class="tooltip-bg"/>
    <text x="225.1" y="145.1" class="tooltip-text" text-anchor="middle">Feb 2022: 44 total (+3 this month)</text>
  </g>
  <g class="hoverpoint">
    <line x1="288.0" y1="30" x2="288.0" y2="160.0" class="guide"/>
    <circle cx="288.0" cy="155.8" r="16" class="hit"/>
    <circle cx="288.0" cy="155.8" r="4" class="hover-dot"><title>Jul 2022: 65 total (+21 this month)</title></circle>
    <rect x="218.0" y="129.8" width="140" height="20" rx="4" class="tooltip-bg"/>
    <text x="288.0" y="143.8" class="tooltip-text" text-anchor="middle">Jul 2022: 65 total (+21 this month)</text>
  </g>
  <g class="hoverpoint">
    <line x1="295.9" y1="30" x2="295.9" y2="160.0" class="guide"/>
    <circle cx="295.9" cy="153.4" r="16" class="hit"/>
    <circle cx="295.9" cy="153.4" r="4" class="hover-dot"><title>Aug 2022: 101 total (+36 this month)</title></circle>
    <rect x="225.9" y="127.4" width="140" height="20" rx="4" class="tooltip-bg"/>
    <text x="295.9" y="141.4" class="tooltip-text" text-anchor="middle">Aug 2022: 101 total (+36 this month)</text>
  </g>
  <g class="hoverpoint">
    <line x1="312.1" y1="30" x2="312.1" y2="160.0" class="guide"/>
    <circle cx="312.1" cy="153.0" r="16" class="hit"/>
    <circle cx="312.1" cy="153.0" r="4" class="hover-dot"><title>Sep 2022: 108 total (+7 this month)</title></circle>
    <rect x="242.1" y="127.0" width="140" height="20" rx="4" class="tooltip-bg"/>
    <text x="312.1" y="141.0" class="tooltip-text" text-anchor="middle">Sep 2022: 108 total (+7 this month)</text>
  </g>
  <g class="hoverpoint">
    <line x1="324.0" y1="30" x2="324.0" y2="160.0" class="guide"/>
    <circle cx="324.0" cy="151.7" r="16" class="hit"/>
    <circle cx="324.0" cy="151.7" r="4" class="hover-dot"><title>Oct 2022: 128 total (+20 this month)</title></circle>
    <rect x="254.0" y="125.7" width="140" height="20" rx="4" class="tooltip-bg"/>
    <text x="324.0" y="139.7" class="tooltip-text" text-anchor="middle">Oct 2022: 128 total (+20 this month)</text>
  </g>
  <g class="hoverpoint">
    <line x1="334.7" y1="30" x2="334.7" y2="160.0" class="guide"/>
    <circle cx="334.7" cy="149.1" r="16" class="hit"/>
    <circle cx="334.7" cy="149.1" r="4" class="hover-dot"><title>Nov 2022: 168 total (+40 this month)</title></circle>
    <rect x="264.7" y="123.1" width="140" height="20" rx="4" class="tooltip-bg"/>
    <text x="334.7" y="137.1" class="tooltip-text" text-anchor="middle">Nov 2022: 168 total (+40 this month)</text>
  </g>
  <g class="hoverpoint">
    <line x1="347.0" y1="30" x2="347.0" y2="160.0" class="guide"/>
    <circle cx="347.0" cy="148.6" r="16" class="hit"/>
    <circle cx="347.0" cy="148.6" r="4" class="hover-dot"><title>Dec 2022: 175 total (+7 this month)</title></circle>
    <rect x="277.0" y="122.6" width="140" height="20" rx="4" class="tooltip-bg"/>
    <text x="347.0" y="136.6" class="tooltip-text" text-anchor="middle">Dec 2022: 175 total (+7 this month)</text>
  </g>
  <g class="hoverpoint">
    <line x1="354.9" y1="30" x2="354.9" y2="160.0" class="guide"/>
    <circle cx="354.9" cy="146.1" r="16" class="hit"/>
    <circle cx="354.9" cy="146.1" r="4" class="hover-dot"><title>Jan 2023: 214 total (+39 this month)</title></circle>
    <rect x="284.9" y="120.1" width="140" height="20" rx="4" class="tooltip-bg"/>
    <text x="354.9" y="134.1" class="tooltip-text" text-anchor="middle">Jan 2023: 214 total (+39 this month)</text>
  </g>
  <g class="hoverpoint">
    <line x1="369.9" y1="30" x2="369.9" y2="160.0" class="guide"/>
    <circle cx="369.9" cy="145.4" r="16" class="hit"/>
    <circle cx="369.9" cy="145.4" r="4" class="hover-dot"><title>Feb 2023: 225 total (+11 this month)</title></circle>
    <rect x="299.9" y="119.4" width="140" height="20" rx="4" class="tooltip-bg"/>
    <text x="369.9" y="133.4" class="tooltip-text" text-anchor="middle">Feb 2023: 225 total (+11 this month)</text>
  </g>
  <g class="hoverpoint">
    <line x1="375.9" y1="30" x2="375.9" y2="160.0" class="guide"/>
    <circle cx="375.9" cy="144.6" r="16" class="hit"/>
    <circle cx="375.9" cy="144.6" r="4" class="hover-dot"><title>Mar 2023: 237 total (+12 this month)</title></circle>
    <rect x="305.9" y="118.6" width="140" height="20" rx="4" class="tooltip-bg"/>
    <text x="375.9" y="132.6" class="tooltip-text" text-anchor="middle">Mar 2023: 237 total (+12 this month)</text>
  </g>
  <g class="hoverpoint">
    <line x1="385.4" y1="30" x2="385.4" y2="160.0" class="guide"/>
    <circle cx="385.4" cy="144.4" r="16" class="hit"/>
    <circle cx="385.4" cy="144.4" r="4" class="hover-dot"><title>Apr 2023: 240 total (+3 this month)</title></circle>
    <rect x="315.4" y="118.4" width="140" height="20" rx="4" class="tooltip-bg"/>
    <text x="385.4" y="132.4" class="tooltip-text" text-anchor="middle">Apr 2023: 240 total (+3 this month)</text>
  </g>
  <g class="hoverpoint">
    <line x1="588.0" y1="30" x2="588.0" y2="160.0" class="guide"/>
    <circle cx="588.0" cy="143.6" r="16" class="hit"/>
    <circle cx="588.0" cy="143.6" r="4" class="hover-dot"><title>Aug 2024: 252 total (+12 this month)</title></circle>
    <rect x="518.0" y="117.6" width="140" height="20" rx="4" class="tooltip-bg"/>
    <text x="588.0" y="131.6" class="tooltip-text" text-anchor="middle">Aug 2024: 252 total (+12 this month)</text>
  </g>
  <g class="hoverpoint">
    <line x1="599.1" y1="30" x2="599.1" y2="160.0" class="guide"/>
    <circle cx="599.1" cy="143.6" r="16" class="hit"/>
    <circle cx="599.1" cy="143.6" r="4" class="hover-dot"><title>Sep 2024: 253 total (+1 this month)</title></circle>
    <rect x="529.1" y="117.6" width="140" height="20" rx="4" class="tooltip-bg"/>
    <text x="599.1" y="131.6" class="tooltip-text" text-anchor="middle">Sep 2024: 253 total (+1 this month)</text>
  </g>
  <g class="hoverpoint">
    <line x1="612.2" y1="30" x2="612.2" y2="160.0" class="guide"/>
    <circle cx="612.2" cy="143.0" r="16" class="hit"/>
    <circle cx="612.2" cy="143.0" r="4" class="hover-dot"><title>Oct 2024: 261 total (+8 this month)</title></circle>
    <rect x="542.2" y="117.0" width="140" height="20" rx="4" class="tooltip-bg"/>
    <text x="612.2" y="131.0" class="tooltip-text" text-anchor="middle">Oct 2024: 261 total (+8 this month)</text>
  </g>
  <g class="hoverpoint">
    <line x1="646.2" y1="30" x2="646.2" y2="160.0" class="guide"/>
    <circle cx="646.2" cy="142.4" r="16" class="hit"/>
    <circle cx="646.2" cy="142.4" r="4" class="hover-dot"><title>Jan 2025: 270 total (+9 this month)</title></circle>
    <rect x="576.2" y="116.4" width="140" height="20" rx="4" class="tooltip-bg"/>
    <text x="646.2" y="130.4" class="tooltip-text" text-anchor="middle">Jan 2025: 270 total (+9 this month)</text>
  </g>
  <g class="hoverpoint">
    <line x1="651.8" y1="30" x2="651.8" y2="160.0" class="guide"/>
    <circle cx="651.8" cy="142.3" r="16" class="hit"/>
    <circle cx="651.8" cy="142.3" r="4" class="hover-dot"><title>Feb 2025: 272 total (+2 this month)</title></circle>
    <rect x="581.8" y="116.3" width="140" height="20" rx="4" class="tooltip-bg"/>
    <text x="651.8" y="130.3" class="tooltip-text" text-anchor="middle">Feb 2025: 272 total (+2 this month)</text>
  </g>
  <g class="hoverpoint">
    <line x1="672.0" y1="30" x2="672.0" y2="160.0" class="guide"/>
    <circle cx="672.0" cy="140.9" r="16" class="hit"/>
    <circle cx="672.0" cy="140.9" r="4" class="hover-dot"><title>Mar 2025: 294 total (+22 this month)</title></circle>
    <rect x="602.0" y="114.9" width="140" height="20" rx="4" class="tooltip-bg"/>
    <text x="672.0" y="128.9" class="tooltip-text" text-anchor="middle">Mar 2025: 294 total (+22 this month)</text>
  </g>
  <g class="hoverpoint">
    <line x1="685.4" y1="30" x2="685.4" y2="160.0" class="guide"/>
    <circle cx="685.4" cy="137.2" r="16" class="hit"/>
    <circle cx="685.4" cy="137.2" r="4" class="hover-dot"><title>Apr 2025: 351 total (+57 this month)</title></circle>
    <rect x="615.4" y="111.2" width="140" height="20" rx="4" class="tooltip-bg"/>
    <text x="685.4" y="125.2" class="tooltip-text" text-anchor="middle">Apr 2025: 351 total (+57 this month)</text>
  </g>
  <g class="hoverpoint">
    <line x1="692.9" y1="30" x2="692.9" y2="160.0" class="guide"/>
    <circle cx="692.9" cy="133.5" r="16" class="hit"/>
    <circle cx="692.9" cy="133.5" r="4" class="hover-dot"><title>May 2025: 408 total (+57 this month)</title></circle>
    <rect x="622.9" y="107.5" width="140" height="20" rx="4" class="tooltip-bg"/>
    <text x="692.9" y="121.5" class="tooltip-text" text-anchor="middle">May 2025: 408 total (+57 this month)</text>
  </g>
  <g class="hoverpoint">
    <line x1="708.0" y1="30" x2="708.0" y2="160.0" class="guide"/>
    <circle cx="708.0" cy="132.4" r="16" class="hit"/>
    <circle cx="708.0" cy="132.4" r="4" class="hover-dot"><title>Jun 2025: 424 total (+16 this month)</title></circle>
    <rect x="638.0" y="106.4" width="140" height="20" rx="4" class="tooltip-bg"/>
    <text x="708.0" y="120.4" class="tooltip-text" text-anchor="middle">Jun 2025: 424 total (+16 this month)</text>
  </g>
  <g class="hoverpoint">
    <line x1="721.8" y1="30" x2="721.8" y2="160.0" class="guide"/>
    <circle cx="721.8" cy="131.9" r="16" class="hit"/>
    <circle cx="721.8" cy="131.9" r="4" class="hover-dot"><title>Jul 2025: 432 total (+8 this month)</title></circle>
    <rect x="651.8" y="105.9" width="140" height="20" rx="4" class="tooltip-bg"/>
    <text x="721.8" y="119.9" class="tooltip-text" text-anchor="middle">Jul 2025: 432 total (+8 this month)</text>
  </g>
  <g class="hoverpoint">
    <line x1="732.9" y1="30" x2="732.9" y2="160.0" class="guide"/>
    <circle cx="732.9" cy="129.1" r="16" class="hit"/>
    <circle cx="732.9" cy="129.1" r="4" class="hover-dot"><title>Aug 2025: 475 total (+43 this month)</title></circle>
    <rect x="662.9" y="103.1" width="140" height="20" rx="4" class="tooltip-bg"/>
    <text x="732.9" y="117.1" class="tooltip-text" text-anchor="middle">Aug 2025: 475 total (+43 this month)</text>
  </g>
  <g class="hoverpoint">
    <line x1="746.0" y1="30" x2="746.0" y2="160.0" class="guide"/>
    <circle cx="746.0" cy="125.8" r="16" class="hit"/>
    <circle cx="746.0" cy="125.8" r="4" class="hover-dot"><title>Sep 2025: 526 total (+51 this month)</title></circle>
    <rect x="676.0" y="99.8" width="140" height="20" rx="4" class="tooltip-bg"/>
    <text x="746.0" y="113.8" class="tooltip-text" text-anchor="middle">Sep 2025: 526 total (+51 this month)</text>
  </g>
  <g class="hoverpoint">
    <line x1="758.2" y1="30" x2="758.2" y2="160.0" class="guide"/>
    <circle cx="758.2" cy="115.0" r="16" class="hit"/>
    <circle cx="758.2" cy="115.0" r="4" class="hover-dot"><title>Oct 2025: 692 total (+166 this month)</title></circle>
    <rect x="688.2" y="89.0" width="140" height="20" rx="4" class="tooltip-bg"/>
    <text x="758.2" y="103.0" class="tooltip-text" text-anchor="middle">Oct 2025: 692 total (+166 this month)</text>
  </g>
  <g class="hoverpoint">
    <line x1="770.1" y1="30" x2="770.1" y2="160.0" class="guide"/>
    <circle cx="770.1" cy="112.5" r="16" class="hit"/>
    <circle cx="770.1" cy="112.5" r="4" class="hover-dot"><title>Nov 2025: 731 total (+39 this month)</title></circle>
    <rect x="700.1" y="86.5" width="140" height="20" rx="4" class="tooltip-bg"/>
    <text x="770.1" y="100.5" class="tooltip-text" text-anchor="middle">Nov 2025: 731 total (+39 this month)</text>
  </g>
  <g class="hoverpoint">
    <line x1="782.4" y1="30" x2="782.4" y2="160.0" class="guide"/>
    <circle cx="782.4" cy="109.1" r="16" class="hit"/>
    <circle cx="782.4" cy="109.1" r="4" class="hover-dot"><title>Dec 2025: 783 total (+52 this month)</title></circle>
    <rect x="712.4" y="83.1" width="140" height="20" rx="4" class="tooltip-bg"/>
    <text x="782.4" y="97.1" class="tooltip-text" text-anchor="middle">Dec 2025: 783 total (+52 this month)</text>
  </g>
  <g class="hoverpoint">
    <line x1="794.7" y1="30" x2="794.7" y2="160.0" class="guide"/>
    <circle cx="794.7" cy="93.6" r="16" class="hit"/>
    <circle cx="794.7" cy="93.6" r="4" class="hover-dot"><title>Jan 2026: 1,022 total (+239 this month)</title></circle>
    <rect x="724.7" y="67.6" width="140" height="20" rx="4" class="tooltip-bg"/>
    <text x="794.7" y="81.6" class="tooltip-text" text-anchor="middle">Jan 2026: 1,022 total (+239 this month)</text>
  </g>
  <g class="hoverpoint">
    <line x1="805.8" y1="30" x2="805.8" y2="160.0" class="guide"/>
    <circle cx="805.8" cy="74.1" r="16" class="hit"/>
    <circle cx="805.8" cy="74.1" r="4" class="hover-dot"><title>Feb 2026: 1,321 total (+299 this month)</title></circle>
    <rect x="735.8" y="48.1" width="140" height="20" rx="4" class="tooltip-bg"/>
    <text x="805.8" y="62.1" class="tooltip-text" text-anchor="middle">Feb 2026: 1,321 total (+299 this month)</text>
  </g>
  <g class="hoverpoint">
    <line x1="818.0" y1="30" x2="818.0" y2="160.0" class="guide"/>
    <circle cx="818.0" cy="54.9" r="16" class="hit"/>
    <circle cx="818.0" cy="54.9" r="4" class="hover-dot"><title>Mar 2026: 1,617 total (+296 this month)</title></circle>
    <rect x="748.0" y="28.9" width="140" height="20" rx="4" class="tooltip-bg"/>
    <text x="818.0" y="42.9" class="tooltip-text" text-anchor="middle">Mar 2026: 1,617 total (+296 this month)</text>
  </g>
  <g class="hoverpoint">
    <line x1="820.0" y1="30" x2="820.0" y2="160.0" class="guide"/>
    <circle cx="820.0" cy="54.6" r="16" class="hit"/>
    <circle cx="820.0" cy="54.6" r="4" class="hover-dot"><title>Apr 2026: 1,622 total (+5 this month)</title></circle>
    <rect x="750.0" y="28.6" width="140" height="20" rx="4" class="tooltip-bg"/>
    <text x="820.0" y="42.6" class="tooltip-text" text-anchor="middle">Apr 2026: 1,622 total (+5 this month)</text>
  </g>

  <circle cx="820.0" cy="54.6" r="4" class="dot"/>
  <text x="810.0" y="44.6" class="total">1,622</text>

</svg>