<svg xmlns="http://www.w3.org/2000/svg" width="840" height="196" viewBox="0 0 840 196" fill="none">
  <style>
    .label { font-family: -apple-system, BlinkMacSystemFont, 'Segoe UI', Helvetica, Arial, sans-serif; font-size: 10px; fill: #8b949e; }
    .title { font-family: -apple-system, BlinkMacSystemFont, 'Segoe UI', Helvetica, Arial, sans-serif; font-size: 11px; fill: #8b949e; font-weight: 600; }
    .total { font-family: -apple-system, BlinkMacSystemFont, 'Segoe UI', Helvetica, Arial, sans-serif; font-size: 11px; fill: #7ee787; font-weight: 600; }
    .grid { stroke: #21262d; stroke-width: 1; }
    .line { stroke: #7ee787; stroke-width: 2; stroke-linecap: round; stroke-linejoin: round; fill: none; }
    .dot { fill: #7ee787; }
    .area { fill: url(#areaGrad); }
    /* Hover interaction */
    .hoverpoint .guide { stroke: #7ee787; stroke-width: 1; stroke-dasharray: 2,2; opacity: 0; }
    .hoverpoint .hover-dot { fill: #7ee787; opacity: 0; }
    .hoverpoint .hit { fill: transparent; cursor: pointer; }
    .hoverpoint .tooltip-bg { fill: #161b22; stroke: #30363d; stroke-width: 1; opacity: 0; }
    .hoverpoint .tooltip-text { font-family: -apple-system, BlinkMacSystemFont, 'Segoe UI', Helvetica, Arial, sans-serif; font-size: 9px; fill: #c9d1d9; opacity: 0; }
    .hoverpoint:hover .guide { opacity: 0.5; }
    .hoverpoint:hover .hover-dot { opacity: 1; }
    .hoverpoint:hover .tooltip-bg { opacity: 0.95; }
    .hoverpoint:hover .tooltip-text { opacity: 1; }
  </style>
  <defs>
    <linearGradient id="areaGrad" x1="0" y1="0" x2="0" y2="1">
      <stop offset="0%" stop-color="#7ee787" stop-opacity="0.15"/>
      <stop offset="100%" stop-color="#7ee787" stop-opacity="0.01"/>
    </linearGradient>
  </defs>

  <text x="60" y="18" class="title">Cumulative Commits</text>

  <line x1="60" y1="160.0" x2="820" y2="160.0" class="grid"/>
  <text x="50" y="163.0" class="label" text-anchor="end">0</text>
  <line x1="60" y1="127.5" x2="820" y2="127.5" class="grid" stroke-dasharray="3,3"/>
  <text x="50" y="130.5" class="label" text-anchor="end">500</text>
  <line x1="60" y1="95.0" x2="820" y2="95.0" class="grid" stroke-dasharray="3,3"/>
  <text x="50" y="98.0" class="label" text-anchor="end">1,000</text>
  <line x1="60" y1="62.5" x2="820" y2="62.5" class="grid" stroke-dasharray="3,3"/>
  <text x="50" y="65.5" class="label" text-anchor="end">1,500</text>
  <line x1="60" y1="30.0" x2="820" y2="30.0" class="grid" stroke-dasharray="3,3"/>
  <text x="50" y="33.0" class="label" text-anchor="end">2,000</text>

  <text x="70.0" y="186" class="label" text-anchor="middle">2021</text>
  <text x="205.8" y="186" class="label" text-anchor="middle">2022</text>
  <text x="351.5" y="186" class="label" text-anchor="middle">2023</text>
  <text x="497.3" y="186" class="label" text-anchor="middle">2024</text>
  <text x="643.5" y="186" class="label" text-anchor="middle">2025</text>
  <text x="789.2" y="186" class="label" text-anchor="middle">2026</text>


  <path class="area" d="M60.0,160.0 L60.0,160.0 60.0,160.0 L185.0,159.7 L185.4,159.6 L186.6,159.5 L205.8,159.4 L206.2,159.0 L206.6,158.9 L207.0,158.6 L207.4,158.6 L207.8,158.4 L208.6,158.1 L209.0,157.9 L209.4,157.8 L209.8,157.7 L211.4,157.5 L211.8,157.5 L212.2,157.4 L216.2,157.3 L226.5,157.1 L281.3,157.1 L281.7,156.5 L283.2,156.4 L284.0,155.9 L290.0,155.8 L290.8,155.6 L291.2,155.4 L291.6,155.3 L292.4,155.1 L292.8,154.7 L293.2,154.0 L293.6,153.9 L295.2,153.6 L296.0,153.6 L298.0,153.4 L303.6,153.2 L314.4,153.0 L320.4,152.9 L323.2,152.8 L323.6,152.7 L324.0,152.5 L324.4,152.3 L325.6,151.8 L326.0,151.7 L326.4,151.7 L328.0,151.4 L328.4,151.1 L328.8,151.0 L329.2,150.4 L329.6,149.9 L330.0,149.7 L330.4,149.5 L331.2,149.4 L332.8,149.3 L337.2,149.1 L348.7,149.0 L349.1,148.7 L349.5,148.6 L353.5,148.0 L353.9,146.5 L355.1,146.3 L355.5,146.3 L357.5,146.1 L371.1,145.8 L371.5,145.7 L371.9,145.6 L372.7,145.4 L375.5,145.2 L376.3,144.9 L376.7,144.7 L378.7,144.6 L388.3,144.4 L584.8,144.3 L585.6,144.2 L586.4,144.1 L587.2,144.0 L587.6,143.9 L588.0,143.8 L588.4,143.8 L588.8,143.7 L592.8,143.6 L603.9,143.6 L607.1,143.5 L608.3,143.4 L610.7,143.4 L613.1,143.3 L613.5,143.2 L615.1,143.2 L616.3,143.1 L617.1,143.0 L646.7,143.0 L647.1,142.8 L647.9,142.8 L648.3,142.7 L649.5,142.5 L651.5,142.4 L657.1,142.3 L668.6,141.7 L669.0,141.5 L674.2,141.3 L674.6,141.2 L675.8,141.1 L677.4,140.9 L679.4,140.2 L679.8,138.4 L680.2,138.3 L682.6,138.2 L683.8,138.1 L684.2,138.0 L685.0,137.8 L688.2,137.7 L691.0,137.2 L693.0,136.7 L693.4,136.5 L694.6,136.2 L695.0,135.4 L695.4,135.2 L695.8,134.9 L696.2,134.7 L696.6,134.4 L697.4,133.9 L698.6,133.5 L713.0,133.3 L713.8,132.4 L722.6,132.2 L727.7,131.9 L730.1,131.9 L730.5,131.8 L732.9,131.7 L733.3,131.7 L733.7,131.6 L734.1,131.4 L734.5,131.1 L734.9,130.5 L735.3,130.4 L737.7,129.4 L738.1,129.3 L738.9,129.1 L741.7,128.8 L742.5,128.7 L742.9,128.5 L743.7,128.5 L744.1,128.0 L744.5,127.9 L745.3,127.8 L745.7,127.6 L746.1,127.6 L746.5,127.5 L748.1,127.1 L748.5,127.0 L748.9,126.8 L749.3,126.7 L749.7,126.6 L750.1,126.4 L751.3,126.1 L751.7,125.9 L752.1,125.8 L752.5,125.6 L752.9,125.2 L753.7,125.1 L754.1,124.4 L754.5,124.1 L754.9,122.8 L755.3,122.5 L755.7,122.2 L756.1,121.5 L756.5,121.4 L756.9,121.2 L757.3,121.1 L757.7,120.7 L759.7,120.0 L760.1,119.8 L760.5,119.2 L760.9,118.1 L761.3,118.0 L762.1,117.9 L762.5,116.9 L762.9,116.4 L763.3,116.3 L763.7,115.3 L764.5,115.0 L764.9,114.9 L765.3,114.8 L765.7,114.7 L766.1,114.6 L766.5,114.6 L768.1,114.4 L768.9,114.3 L769.3,113.8 L769.7,113.5 L770.9,113.5 L772.9,113.3 L775.3,113.1 L775.7,112.9 L776.1,112.9 L776.5,112.5 L776.9,111.6 L777.3,111.5 L777.7,111.4 L778.1,111.3 L778.5,111.1 L778.9,110.6 L783.3,110.5 L783.7,110.4 L787.3,109.9 L788.1,109.5 L788.4,109.4 L788.8,109.1 L789.2,109.0 L790.4,108.8 L790.8,107.9 L791.2,105.5 L791.6,103.5 L792.0,103.4 L792.4,103.1 L793.2,102.8 L793.6,102.5 L794.0,102.1 L794.8,102.0 L795.2,101.4 L795.6,101.3 L796.4,100.4 L796.8,100.3 L797.2,99.8 L797.6,99.5 L798.0,99.1 L798.4,99.0 L799.6,98.4 L800.0,98.1 L800.4,96.6 L800.8,94.4 L801.2,93.6 L801.6,92.6 L802.0,92.5 L802.4,92.1 L802.8,91.9 L803.2,91.4 L803.6,90.6 L804.0,90.6 L804.4,90.1 L804.8,90.0 L805.2,89.5 L805.6,89.0 L806.0,88.4 L806.4,87.8 L806.8,87.7 L807.2,87.5 L807.6,86.4 L808.0,84.4 L808.4,84.1 L809.2,83.7 L809.6,83.5 L810.0,83.4 L810.4,80.2 L810.8,78.8 L811.2,77.3 L811.6,76.8 L812.0,74.4 L812.4,74.1 L812.8,74.0 L813.2,73.5 L813.6,72.4 L814.0,70.4 L814.4,68.2 L814.8,68.1 L815.2,67.6 L816.0,67.5 L816.4,66.2 L816.8,65.2 L817.2,63.8 L817.6,63.6 L818.0,63.5 L818.4,61.4 L818.8,58.9 L819.2,57.8 L819.6,57.3 L820.0,56.6 L820.0,160.0 Z"/>
  <polyline class="line" points="60.0,160.0 185.0,159.7 185.4,159.6 186.6,159.5 205.8,159.4 206.2,159.0 206.6,158.9 207.0,158.6 207.4,158.6 207.8,158.4 208.6,158.1 209.0,157.9 209.4,157.8 209.8,157.7 211.4,157.5 211.8,157.5 212.2,157.4 216.2,157.3 226.5,157.1 281.3,157.1 281.7,156.5 283.2,156.4 284.0,155.9 290.0,155.8 290.8,155.6 291.2,155.4 291.6,155.3 292.4,155.1 292.8,154.7 293.2,154.0 293.6,153.9 295.2,153.6 296.0,153.6 298.0,153.4 303.6,153.2 314.4,153.0 320.4,152.9 323.2,152.8 323.6,152.7 324.0,152.5 324.4,152.3 325.6,151.8 326.0,151.7 326.4,151.7 328.0,151.4 328.4,151.1 328.8,151.0 329.2,150.4 329.6,149.9 330.0,149.7 330.4,149.5 331.2,149.4 332.8,149.3 337.2,149.1 348.7,149.0 349.1,148.7 349.5,148.6 353.5,148.0 353.9,146.5 355.1,146.3 355.5,146.3 357.5,146.1 371.1,145.8 371.5,145.7 371.9,145.6 372.7,145.4 375.5,145.2 376.3,144.9 376.7,144.7 378.7,144.6 388.3,144.4 584.8,144.3 585.6,144.2 586.4,144.1 587.2,144.0 587.6,143.9 588.0,143.8 588.4,143.8 588.8,143.7 592.8,143.6 603.9,143.6 607.1,143.5 608.3,143.4 610.7,143.4 613.1,143.3 613.5,143.2 615.1,143.2 616.3,143.1 617.1,143.0 646.7,143.0 647.1,142.8 647.9,142.8 648.3,142.7 649.5,142.5 651.5,142.4 657.1,142.3 668.6,141.7 669.0,141.5 674.2,141.3 674.6,141.2 675.8,141.1 677.4,140.9 679.4,140.2 679.8,138.4 680.2,138.3 682.6,138.2 683.8,138.1 684.2,138.0 685.0,137.8 688.2,137.7 691.0,137.2 693.0,136.7 693.4,136.5 694.6,136.2 695.0,135.4 695.4,135.2 695.8,134.9 696.2,134.7 696.6,134.4 697.4,133.9 698.6,133.5 713.0,133.3 713.8,132.4 722.6,132.2 727.7,131.9 730.1,131.9 730.5,131.8 732.9,131.7 733.3,131.7 733.7,131.6 734.1,131.4 734.5,131.1 734.9,130.5 735.3,130.4 737.7,129.4 738.1,129.3 738.9,129.1 741.7,128.8 742.5,128.7 742.9,128.5 743.7,128.5 744.1,128.0 744.5,127.9 745.3,127.8 745.7,127.6 746.1,127.6 746.5,127.5 748.1,127.1 748.5,127.0 748.9,126.8 749.3,126.7 749.7,126.6 750.1,126.4 751.3,126.1 751.7,125.9 752.1,125.8 752.5,125.6 752.9,125.2 753.7,125.1 754.1,124.4 754.5,124.1 754.9,122.8 755.3,122.5 755.7,122.2 756.1,121.5 756.5,121.4 756.9,121.2 757.3,121.1 757.7,120.7 759.7,120.0 760.1,119.8 760.5,119.2 760.9,118.1 761.3,118.0 762.1,117.9 762.5,116.9 762.9,116.4 763.3,116.3 763.7,115.3 764.5,115.0 764.9,114.9 765.3,114.8 765.7,114.7 766.1,114.6 766.5,114.6 768.1,114.4 768.9,114.3 769.3,113.8 769.7,113.5 770.9,113.5 772.9,113.3 775.3,113.1 775.7,112.9 776.1,112.9 776.5,112.5 776.9,111.6 777.3,111.5 777.7,111.4 778.1,111.3 778.5,111.1 778.9,110.6 783.3,110.5 783.7,110.4 787.3,109.9 788.1,109.5 788.4,109.4 788.8,109.1 789.2,109.0 790.4,108.8 790.8,107.9 791.2,105.5 791.6,103.5 792.0,103.4 792.4,103.1 793.2,102.8 793.6,102.5 794.0,102.1 794.8,102.0 795.2,101.4 795.6,101.3 796.4,100.4 796.8,100.3 797.2,99.8 797.6,99.5 798.0,99.1 798.4,99.0 799.6,98.4 800.0,98.1 800.4,96.6 800.8,94.4 801.2,93.6 801.6,92.6 802.0,92.5 802.4,92.1 802.8,91.9 803.2,91.4 803.6,90.6 804.0,90.6 804.4,90.1 804.8,90.0 805.2,89.5 805.6,89.0 806.0,88.4 806.4,87.8 806.8,87.7 807.2,87.5 807.6,86.4 808.0,84.4 808.4,84.1 809.2,83.7 809.6,83.5 810.0,83.4 810.4,80.2 810.8,78.8 811.2,77.3 811.6,76.8 812.0,74.4 812.4,74.1 812.8,74.0 813.2,73.5 813.6,72.4 814.0,70.4 814.4,68.2 814.8,68.1 815.2,67.6 816.0,67.5 816.4,66.2 816.8,65.2 817.2,63.8 817.6,63.6 818.0,63.5 818.4,61.4 818.8,58.9 819.2,57.8 819.6,57.3 820.0,56.6"/>

  <g class="hoverpoint">
    <line x1="186.6" y1="30" x2="186.6" y2="160.0" class="guide"/>
    <circle cx="186.6" cy="159.5" r="16" class="hit"/>
    <circle cx="186.6" cy="159.5" r="4" class="hover-dot"><title>Nov 2021: 7 total (+7 this month)</title></circle>
    <rect x="116.6" y="133.5" width="140" height="20" rx="4" class="tooltip-bg"/>
    <text x="186.6" y="147.5" class="tooltip-text" text-anchor="middle">Nov 2021: 7 total (+7 this month)</text>
  </g>
  <g class="hoverpoint">
    <line x1="216.2" y1="30" x2="216.2" y2="160.0" class="guide"/>
    <circle cx="216.2" cy="157.3" r="16" class="hit"/>
    <circle cx="216.2" cy="157.3" r="4" class="hover-dot"><title>Jan 2022: 41 total (+34 this month)</title></circle>
    <rect x="146.2" y="131.3" width="140" height="20" rx="4" class="tooltip-bg"/>
    <text x="216.2" y="145.3" class="tooltip-text" text-anchor="middle">Jan 2022: 41 total (+34 this month)</text>
  </g>
  <g class="hoverpoint">
    <line x1="226.5" y1="30" x2="226.5" y2="160.0" class="guide"/>
    <circle cx="226.5" cy="157.1" r="16" class="hit"/>
    <circle cx="226.5" cy="157.1" r="4" class="hover-dot"><title>Feb 2022: 44 total (+3 this month)</title></circle>
    <rect x="156.5" y="131.1" width="140" height="20" rx="4" class="tooltip-bg"/>
    <text x="226.5" y="145.1" class="tooltip-text" text-anchor="middle">Feb 2022: 44 total (+3 this month)</text>
  </g>
  <g class="hoverpoint">
    <line x1="290.0" y1="30" x2="290.0" y2="160.0" class="guide"/>
    <circle cx="290.0" cy="155.8" r="16" class="hit"/>
    <circle cx="290.0" cy="155.8" r="4" class="hover-dot"><title>Jul 2022: 65 total (+21 this month)</title></circle>
    <rect x="220.0" y="129.8" width="140" height="20" rx="4" class="tooltip-bg"/>
    <text x="290.0" y="143.8" class="tooltip-text" text-anchor="middle">Jul 2022: 65 total (+21 this month)</text>
  </g>
  <g class="hoverpoint">
    <line x1="298.0" y1="30" x2="298.0" y2="160.0" class="guide"/>
    <circle cx="298.0" cy="153.4" r="16" class="hit"/>
    <circle cx="298.0" cy="153.4" r="4" class="hover-dot"><title>Aug 2022: 101 total (+36 this month)</title></circle>
    <rect x="228.0" y="127.4" width="140" height="20" rx="4" class="tooltip-bg"/>
    <text x="298.0" y="141.4" class="tooltip-text" text-anchor="middle">Aug 2022: 101 total (+36 this month)</text>
  </g>
  <g class="hoverpoint">
    <line x1="314.4" y1="30" x2="314.4" y2="160.0" class="guide"/>
    <circle cx="314.4" cy="153.0" r="16" class="hit"/>
    <circle cx="314.4" cy="153.0" r="4" class="hover-dot"><title>Sep 2022: 108 total (+7 this month)</title></circle>
    <rect x="244.4" y="127.0" width="140" height="20" rx="4" class="tooltip-bg"/>
    <text x="314.4" y="141.0" class="tooltip-text" text-anchor="middle">Sep 2022: 108 total (+7 this month)</text>
  </g>
  <g class="hoverpoint">
    <line x1="326.4" y1="30" x2="326.4" y2="160.0" class="guide"/>
    <circle cx="326.4" cy="151.7" r="16" class="hit"/>
    <circle cx="326.4" cy="151.7" r="4" class="hover-dot"><title>Oct 2022: 128 total (+20 this month)</title></circle>
    <rect x="256.4" y="125.7" width="140" height="20" rx="4" class="tooltip-bg"/>
    <text x="326.4" y="139.7" class="tooltip-text" text-anchor="middle">Oct 2022: 128 total (+20 this month)</text>
  </g>
  <g class="hoverpoint">
    <line x1="337.2" y1="30" x2="337.2" y2="160.0" class="guide"/>
    <circle cx="337.2" cy="149.1" r="16" class="hit"/>
    <circle cx="337.2" cy="149.1" r="4" class="hover-dot"><title>Nov 2022: 168 total (+40 this month)</title></circle>
    <rect x="267.2" y="123.1" width="140" height="20" rx="4" class="tooltip-bg"/>
    <text x="337.2" y="137.1" class="tooltip-text" text-anchor="middle">Nov 2022: 168 total (+40 this month)</text>
  </g>
  <g class="hoverpoint">
    <line x1="349.5" y1="30" x2="349.5" y2="160.0" class="guide"/>
    <circle cx="349.5" cy="148.6" r="16" class="hit"/>
    <circle cx="349.5" cy="148.6" r="4" class="hover-dot"><title>Dec 2022: 175 total (+7 this month)</title></circle>
    <rect x="279.5" y="122.6" width="140" height="20" rx="4" class="tooltip-bg"/>
    <text x="349.5" y="136.6" class="tooltip-text" text-anchor="middle">Dec 2022: 175 total (+7 this month)</text>
  </g>
  <g class="hoverpoint">
    <line x1="357.5" y1="30" x2="357.5" y2="160.0" class="guide"/>
    <circle cx="357.5" cy="146.1" r="16" class="hit"/>
    <circle cx="357.5" cy="146.1" r="4" class="hover-dot"><title>Jan 2023: 214 total (+39 this month)</title></circle>
    <rect x="287.5" y="120.1" width="140" height="20" rx="4" class="tooltip-bg"/>
    <text x="357.5" y="134.1" class="tooltip-text" text-anchor="middle">Jan 2023: 214 total (+39 this month)</text>
  </g>
  <g class="hoverpoint">
    <line x1="372.7" y1="30" x2="372.7" y2="160.0" class="guide"/>
    <circle cx="372.7" cy="145.4" r="16" class="hit"/>
    <circle cx="372.7" cy="145.4" r="4" class="hover-dot"><title>Feb 2023: 225 total (+11 this month)</title></circle>
    <rect x="302.7" y="119.4" width="140" height="20" rx="4" class="tooltip-bg"/>
    <text x="372.7" y="133.4" class="tooltip-text" text-anchor="middle">Feb 2023: 225 total (+11 this month)</text>
  </g>
  <g class="hoverpoint">
    <line x1="378.7" y1="30" x2="378.7" y2="160.0" class="guide"/>
    <circle cx="378.7" cy="144.6" r="16" class="hit"/>
    <circle cx="378.7" cy="144.6" r="4" class="hover-dot"><title>Mar 2023: 237 total (+12 this month)</title></circle>
    <rect x="308.7" y="118.6" width="140" height="20" rx="4" class="tooltip-bg"/>
    <text x="378.7" y="132.6" class="tooltip-text" text-anchor="middle">Mar 2023: 237 total (+12 this month)</text>
  </g>
  <g class="hoverpoint">
    <line x1="388.3" y1="30" x2="388.3" y2="160.0" class="guide"/>
    <circle cx="388.3" cy="144.4" r="16" class="hit"/>
    <circle cx="388.3" cy="144.4" r="4" class="hover-dot"><title>Apr 2023: 240 total (+3 this month)</title></circle>
    <rect x="318.3" y="118.4" width="140" height="20" rx="4" class="tooltip-bg"/>
    <text x="388.3" y="132.4" class="tooltip-text" text-anchor="middle">Apr 2023: 240 total (+3 this month)</text>
  </g>
  <g class="hoverpoint">
    <line x1="592.8" y1="30" x2="592.8" y2="160.0" class="guide"/>
    <circle cx="592.8" cy="143.6" r="16" class="hit"/>
    <circle cx="592.8" cy="143.6" r="4" class="hover-dot"><title>Aug 2024: 252 total (+12 this month)</title></circle>
    <rect x="522.8" y="117.6" width="140" height="20" rx="4" class="tooltip-bg"/>
    <text x="592.8" y="131.6" class="tooltip-text" text-anchor="middle">Aug 2024: 252 total (+12 this month)</text>
  </g>
  <g class="hoverpoint">
    <line x1="603.9" y1="30" x2="603.9" y2="160.0" class="guide"/>
    <circle cx="603.9" cy="143.6" r="16" class="hit"/>
    <circle cx="603.9" cy="143.6" r="4" class="hover-dot"><title>Sep 2024: 253 total (+1 this month)</title></circle>
    <rect x="533.9" y="117.6" width="140" height="20" rx="4" class="tooltip-bg"/>
    <text x="603.9" y="131.6" class="tooltip-text" text-anchor="middle">Sep 2024: 253 total (+1 this month)</text>
  </g>
  <g class="hoverpoint">
    <line x1="617.1" y1="30" x2="617.1" y2="160.0" class="guide"/>
    <circle cx="617.1" cy="143.0" r="16" class="hit"/>
    <circle cx="617.1" cy="143.0" r="4" class="hover-dot"><title>Oct 2024: 261 total (+8 this month)</title></circle>
    <rect x="547.1" y="117.0" width="140" height="20" rx="4" class="tooltip-bg"/>
    <text x="617.1" y="131.0" class="tooltip-text" text-anchor="middle">Oct 2024: 261 total (+8 this month)</text>
  </g>
  <g class="hoverpoint">
    <line x1="651.5" y1="30" x2="651.5" y2="160.0" class="guide"/>
    <circle cx="651.5" cy="142.4" r="16" class="hit"/>
    <circle cx="651.5" cy="142.4" r="4" class="hover-dot"><title>Jan 2025: 270 total (+9 this month)</title></circle>
    <rect x="581.5" y="116.4" width="140" height="20" rx="4" class="tooltip-bg"/>
    <text x="651.5" y="130.4" class="tooltip-text" text-anchor="middle">Jan 2025: 270 total (+9 this month)</text>
  </g>
  <g class="hoverpoint">
    <line x1="657.1" y1="30" x2="657.1" y2="160.0" class="guide"/>
    <circle cx="657.1" cy="142.3" r="16" class="hit"/>
    <circle cx="657.1" cy="142.3" r="4" class="hover-dot"><title>Feb 2025: 272 total (+2 this month)</title></circle>
    <rect x="587.1" y="116.3" width="140" height="20" rx="4" class="tooltip-bg"/>
    <text x="657.1" y="130.3" class="tooltip-text" text-anchor="middle">Feb 2025: 272 total (+2 this month)</text>
  </g>
  <g class="hoverpoint">
    <line x1="677.4" y1="30" x2="677.4" y2="160.0" class="guide"/>
    <circle cx="677.4" cy="140.9" r="16" class="hit"/>
    <circle cx="677.4" cy="140.9" r="4" class="hover-dot"><title>Mar 2025: 294 total (+22 this month)</title></circle>
    <rect x="607.4" y="114.9" width="140" height="20" rx="4" class="tooltip-bg"/>
    <text x="677.4" y="128.9" class="tooltip-text" text-anchor="middle">Mar 2025: 294 total (+22 this month)</text>
  </g>
  <g class="hoverpoint">
    <line x1="691.0" y1="30" x2="691.0" y2="160.0" class="guide"/>
    <circle cx="691.0" cy="137.2" r="16" class="hit"/>
    <circle cx="691.0" cy="137.2" r="4" class="hover-dot"><title>Apr 2025: 351 total (+57 this month)</title></circle>
    <rect x="621.0" y="111.2" width="140" height="20" rx="4" class="tooltip-bg"/>
    <text x="691.0" y="125.2" class="tooltip-text" text-anchor="middle">Apr 2025: 351 total (+57 this month)</text>
  </g>
  <g class="hoverpoint">
    <line x1="698.6" y1="30" x2="698.6" y2="160.0" class="guide"/>
    <circle cx="698.6" cy="133.5" r="16" class="hit"/>
    <circle cx="698.6" cy="133.5" r="4" class="hover-dot"><title>May 2025: 408 total (+57 this month)</title></circle>
    <rect x="628.6" y="107.5" width="140" height="20" rx="4" class="tooltip-bg"/>
    <text x="698.6" y="121.5" class="tooltip-text" text-anchor="middle">May 2025: 408 total (+57 this month)</text>
  </g>
  <g class="hoverpoint">
    <line x1="713.8" y1="30" x2="713.8" y2="160.0" class="guide"/>
    <circle cx="713.8" cy="132.4" r="16" class="hit"/>
    <circle cx="713.8" cy="132.4" r="4" class="hover-dot"><title>Jun 2025: 424 total (+16 this month)</title></circle>
    <rect x="643.8" y="106.4" width="140" height="20" rx="4" class="tooltip-bg"/>
    <text x="713.8" y="120.4" class="tooltip-text" text-anchor="middle">Jun 2025: 424 total (+16 this month)</text>
  </g>
  <g class="hoverpoint">
    <line x1="727.7" y1="30" x2="727.7" y2="160.0" class="guide"/>
    <circle cx="727.7" cy="131.9" r="16" class="hit"/>
    <circle cx="727.7" cy="131.9" r="4" class="hover-dot"><title>Jul 2025: 432 total (+8 this month)</title></circle>
    <rect x="657.7" y="105.9" width="140" height="20" rx="4" class="tooltip-bg"/>
    <text x="727.7" y="119.9" class="tooltip-text" text-anchor="middle">Jul 2025: 432 total (+8 this month)</text>
  </g>
  <g class="hoverpoint">
    <line x1="738.9" y1="30" x2="738.9" y2="160.0" class="guide"/>
    <circle cx="738.9" cy="129.1" r="16" class="hit"/>
    <circle cx="738.9" cy="129.1" r="4" class="hover-dot"><title>Aug 2025: 475 total (+43 this month)</title></circle>
    <rect x="668.9" y="103.1" width="140" height="20" rx="4" class="tooltip-bg"/>
    <text x="738.9" y="117.1" class="tooltip-text" text-anchor="middle">Aug 2025: 475 total (+43 this month)</text>
  </g>
  <g class="hoverpoint">
    <line x1="752.1" y1="30" x2="752.1" y2="160.0" class="guide"/>
    <circle cx="752.1" cy="125.8" r="16" class="hit"/>
    <circle cx="752.1" cy="125.8" r="4" class="hover-dot"><title>Sep 2025: 526 total (+51 this month)</title></circle>
    <rect x="682.1" y="99.8" width="140" height="20" rx="4" class="tooltip-bg"/>
    <text x="752.1" y="113.8" class="tooltip-text" text-anchor="middle">Sep 2025: 526 total (+51 this month)</text>
  </g>
  <g class="hoverpoint">
    <line x1="764.5" y1="30" x2="764.5" y2="160.0" class="guide"/>
    <circle cx="764.5" cy="115.0" r="16" class="hit"/>
    <circle cx="764.5" cy="115.0" r="4" class="hover-dot"><title>Oct 2025: 692 total (+166 this month)</title></circle>
    <rect x="694.5" y="89.0" width="140" height="20" rx="4" class="tooltip-bg"/>
    <text x="764.5" y="103.0" class="tooltip-text" text-anchor="middle">Oct 2025: 692 total (+166 this month)</text>
  </g>
  <g class="hoverpoint">
    <line x1="776.5" y1="30" x2="776.5" y2="160.0" class="guide"/>
    <circle cx="776.5" cy="112.5" r="16" class="hit"/>
    <circle cx="776.5" cy="112.5" r="4" class="hover-dot"><title>Nov 2025: 731 total (+39 this month)</title></circle>
    <rect x="706.5" y="86.5" width="140" height="20" rx="4" class="tooltip-bg"/>
    <text x="776.5" y="100.5" class="tooltip-text" text-anchor="middle">Nov 2025: 731 total (+39 this month)</text>
  </g>
  <g class="hoverpoint">
    <line x1="788.8" y1="30" x2="788.8" y2="160.0" class="guide"/>
    <circle cx="788.8" cy="109.1" r="16" class="hit"/>
    <circle cx="788.8" cy="109.1" r="4" class="hover-dot"><title>Dec 2025: 783 total (+52 this month)</title></circle>
    <rect x="718.8" y="83.1" width="140" height="20" rx="4" class="tooltip-bg"/>
    <text x="788.8" y="97.1" class="tooltip-text" text-anchor="middle">Dec 2025: 783 total (+52 this month)</text>
  </g>
  <g class="hoverpoint">
    <line x1="801.2" y1="30" x2="801.2" y2="160.0" class="guide"/>
    <circle cx="801.2" cy="93.6" r="16" class="hit"/>
    <circle cx="801.2" cy="93.6" r="4" class="hover-dot"><title>Jan 2026: 1,022 total (+239 this month)</title></circle>
    <rect x="731.2" y="67.6" width="140" height="20" rx="4" class="tooltip-bg"/>
    <text x="801.2" y="81.6" class="tooltip-text" text-anchor="middle">Jan 2026: 1,022 total (+239 this month)</text>
  </g>
  <g class="hoverpoint">
    <line x1="812.4" y1="30" x2="812.4" y2="160.0" class="guide"/>
    <circle cx="812.4" cy="74.1" r="16" class="hit"/>
    <circle cx="812.4" cy="74.1" r="4" class="hover-dot"><title>Feb 2026: 1,321 total (+299 this month)</title></circle>
    <rect x="742.4" y="48.1" width="140" height="20" rx="4" class="tooltip-bg"/>
    <text x="812.4" y="62.1" class="tooltip-text" text-anchor="middle">Feb 2026: 1,321 total (+299 this month)</text>
  </g>
  <g class="hoverpoint">
    <line x1="820.0" y1="30" x2="820.0" y2="160.0" class="guide"/>
    <circle cx="820.0" cy="56.6" r="16" class="hit"/>
    <circle cx="820.0" cy="56.6" r="4" class="hover-dot"><title>Mar 2026: 1,590 total (+269 this month)</title></circle>
    <rect x="750.0" y="30.6" width="140" height="20" rx="4" class="tooltip-bg"/>
    <text x="820.0" y="44.6" class="tooltip-text" text-anchor="middle">Mar 2026: 1,590 total (+269 this month)</text>
  </g>

  <circle cx="820.0" cy="56.6" r="4" class="dot"/>
  <text x="810.0" y="46.6" class="total">1,590</text>

</svg>