<svg xmlns="http://www.w3.org/2000/svg" width="840" height="196" viewBox="0 0 840 196" fill="none">
  <style>
    .label { font-family: -apple-system, BlinkMacSystemFont, 'Segoe UI', Helvetica, Arial, sans-serif; font-size: 10px; fill: #8b949e; }
    .title { font-family: -apple-system, BlinkMacSystemFont, 'Segoe UI', Helvetica, Arial, sans-serif; font-size: 11px; fill: #8b949e; font-weight: 600; }
    .total { font-family: -apple-system, BlinkMacSystemFont, 'Segoe UI', Helvetica, Arial, sans-serif; font-size: 11px; fill: #7ee787; font-weight: 600; }
    .grid { stroke: #21262d; stroke-width: 1; }
    .line { stroke: #7ee787; stroke-width: 2; stroke-linecap: round; stroke-linejoin: round; fill: none; }
    .dot { fill: #7ee787; }
    .area { fill: url(#areaGrad); }
    /* Hover interaction */
    .hoverpoint .guide { stroke: #7ee787; stroke-width: 1; stroke-dasharray: 2,2; opacity: 0; }
    .hoverpoint .hover-dot { fill: #7ee787; opacity: 0; }
    .hoverpoint .hit { fill: transparent; cursor: pointer; }
    .hoverpoint .tooltip-bg { fill: #161b22; stroke: #30363d; stroke-width: 1; opacity: 0; }
    .hoverpoint .tooltip-text { font-family: -apple-system, BlinkMacSystemFont, 'Segoe UI', Helvetica, Arial, sans-serif; font-size: 9px; fill: #c9d1d9; opacity: 0; }
    .hoverpoint:hover .guide { opacity: 0.5; }
    .hoverpoint:hover .hover-dot { opacity: 1; }
    .hoverpoint:hover .tooltip-bg { opacity: 0.95; }
    .hoverpoint:hover .tooltip-text { opacity: 1; }
  </style>
  <defs>
    <linearGradient id="areaGrad" x1="0" y1="0" x2="0" y2="1">
      <stop offset="0%" stop-color="#7ee787" stop-opacity="0.15"/>
      <stop offset="100%" stop-color="#7ee787" stop-opacity="0.01"/>
    </linearGradient>
  </defs>

  <text x="60" y="18" class="title">Cumulative Commits</text>

  <line x1="60" y1="160.0" x2="820" y2="160.0" class="grid"/>
  <text x="50" y="163.0" class="label" text-anchor="end">0</text>
  <line x1="60" y1="127.5" x2="820" y2="127.5" class="grid" stroke-dasharray="3,3"/>
  <text x="50" y="130.5" class="label" text-anchor="end">500</text>
  <line x1="60" y1="95.0" x2="820" y2="95.0" class="grid" stroke-dasharray="3,3"/>
  <text x="50" y="98.0" class="label" text-anchor="end">1,000</text>
  <line x1="60" y1="62.5" x2="820" y2="62.5" class="grid" stroke-dasharray="3,3"/>
  <text x="50" y="65.5" class="label" text-anchor="end">1,500</text>
  <line x1="60" y1="30.0" x2="820" y2="30.0" class="grid" stroke-dasharray="3,3"/>
  <text x="50" y="33.0" class="label" text-anchor="end">2,000</text>

  <text x="70.0" y="186" class="label" text-anchor="middle">2021</text>
  <text x="203.3" y="186" class="label" text-anchor="middle">2022</text>
  <text x="346.6" y="186" class="label" text-anchor="middle">2023</text>
  <text x="489.9" y="186" class="label" text-anchor="middle">2024</text>
  <text x="633.5" y="186" class="label" text-anchor="middle">2025</text>
  <text x="776.8" y="186" class="label" text-anchor="middle">2026</text>


  <path class="area" d="M60.0,160.0 L60.0,160.0 60.0,160.0 L182.9,159.7 L183.3,159.6 L184.4,159.5 L203.3,159.4 L203.7,159.0 L204.1,158.9 L204.5,158.6 L204.9,158.6 L205.2,158.4 L206.0,158.1 L206.4,157.9 L206.8,157.8 L207.2,157.7 L208.8,157.5 L209.2,157.5 L209.6,157.4 L213.5,157.3 L223.7,157.1 L277.5,157.1 L277.9,156.5 L279.4,156.4 L280.2,155.9 L286.1,155.8 L286.9,155.6 L287.3,155.4 L287.7,155.3 L288.5,155.1 L288.9,154.7 L289.3,154.0 L289.6,153.9 L291.2,153.6 L292.0,153.6 L294.0,153.4 L299.5,153.2 L310.1,153.0 L316.0,152.9 L318.7,152.8 L319.1,152.7 L319.5,152.5 L319.9,152.3 L321.1,151.8 L321.4,151.7 L321.8,151.7 L323.4,151.4 L323.8,151.1 L324.2,151.0 L324.6,150.4 L325.0,149.9 L325.4,149.7 L325.8,149.5 L326.5,149.4 L328.1,149.3 L332.4,149.1 L343.8,149.0 L344.2,148.7 L344.6,148.6 L348.5,148.0 L348.9,146.5 L350.1,146.3 L350.5,146.3 L352.5,146.1 L365.8,145.8 L366.2,145.7 L366.6,145.6 L367.4,145.4 L370.1,145.2 L370.9,144.9 L371.3,144.7 L373.3,144.6 L382.7,144.4 L575.8,144.3 L576.6,144.2 L577.4,144.1 L578.2,144.0 L578.6,143.9 L579.0,143.8 L579.4,143.8 L579.8,143.7 L583.7,143.6 L594.7,143.6 L597.8,143.5 L599.0,143.4 L601.3,143.4 L603.7,143.3 L604.1,143.2 L605.7,143.2 L606.8,143.1 L607.6,143.0 L636.7,143.0 L637.1,142.8 L637.9,142.8 L638.2,142.7 L639.4,142.5 L641.4,142.4 L646.9,142.3 L658.3,141.7 L658.7,141.5 L663.8,141.3 L664.2,141.2 L665.3,141.1 L666.9,140.9 L668.9,140.2 L669.3,138.4 L669.6,138.3 L672.0,138.2 L673.2,138.1 L673.6,138.0 L674.4,137.8 L677.5,137.7 L680.2,137.2 L682.2,136.7 L682.6,136.5 L683.8,136.2 L684.2,135.4 L684.6,135.2 L685.0,134.9 L685.4,134.7 L685.7,134.4 L686.5,133.9 L687.7,133.5 L701.8,133.3 L702.6,132.4 L711.3,132.2 L716.4,131.9 L718.7,131.9 L719.1,131.8 L721.5,131.7 L721.9,131.7 L722.3,131.6 L722.6,131.4 L723.0,131.1 L723.4,130.5 L723.8,130.4 L726.2,129.4 L726.6,129.3 L727.4,129.1 L730.1,128.8 L730.9,128.7 L731.3,128.5 L732.1,128.5 L732.5,128.0 L732.9,127.9 L733.6,127.8 L734.0,127.6 L734.4,127.6 L734.8,127.5 L736.4,127.1 L736.8,127.0 L737.2,126.8 L737.6,126.7 L738.0,126.6 L738.3,126.4 L739.5,126.1 L739.9,125.9 L740.3,125.8 L740.7,125.6 L741.1,125.2 L741.9,125.1 L742.3,124.4 L742.7,124.1 L743.1,122.8 L743.5,122.5 L743.8,122.2 L744.2,121.5 L744.6,121.4 L745.0,121.2 L745.4,121.1 L745.8,120.7 L747.8,120.0 L748.2,119.8 L748.6,119.2 L748.9,118.1 L749.3,118.0 L750.1,117.9 L750.5,116.9 L750.9,116.4 L751.3,116.3 L751.7,115.3 L752.5,115.0 L752.9,114.9 L753.3,114.8 L753.7,114.7 L754.0,114.6 L754.4,114.6 L756.0,114.4 L756.8,114.3 L757.2,113.8 L757.6,113.5 L758.8,113.5 L760.7,113.3 L763.1,113.1 L763.5,112.9 L763.9,112.9 L764.3,112.5 L764.6,111.6 L765.0,111.5 L765.4,111.4 L765.8,111.3 L766.2,111.1 L766.6,110.6 L770.9,110.5 L771.3,110.4 L774.9,109.9 L775.6,109.5 L776.0,109.4 L776.4,109.1 L776.8,109.0 L778.0,108.8 L778.4,107.9 L778.8,105.5 L779.2,103.5 L779.6,103.4 L780.0,103.1 L780.7,102.8 L781.1,102.5 L781.5,102.1 L782.3,102.0 L782.7,101.4 L783.1,101.3 L783.9,100.4 L784.3,100.3 L784.7,99.8 L785.1,99.5 L785.5,99.1 L785.8,99.0 L787.0,98.4 L787.4,98.1 L787.8,96.6 L788.2,94.4 L788.6,93.6 L789.0,92.6 L789.4,92.5 L789.8,92.1 L790.2,91.9 L790.6,91.4 L791.0,90.6 L791.3,90.6 L791.7,90.1 L792.1,90.0 L792.5,89.5 L792.9,89.0 L793.3,88.4 L793.7,87.8 L794.1,87.7 L794.5,87.5 L794.9,86.4 L795.3,84.4 L795.7,84.1 L796.4,83.7 L796.8,83.5 L797.2,83.4 L797.6,80.2 L798.0,78.8 L798.4,77.3 L798.8,76.8 L799.2,74.4 L799.6,74.1 L800.0,74.0 L800.4,73.5 L800.8,72.4 L801.2,70.4 L801.5,68.2 L801.9,68.1 L802.3,67.6 L803.1,67.5 L803.5,66.2 L803.9,65.2 L804.3,63.8 L804.7,63.6 L805.1,63.5 L805.5,61.4 L805.9,58.9 L806.3,57.8 L806.7,57.3 L807.0,56.6 L807.4,56.1 L807.8,56.0 L808.6,55.7 L809.0,55.3 L809.4,55.2 L809.8,55.1 L810.2,55.0 L811.4,55.0 L811.8,54.9 L812.5,54.8 L813.3,54.7 L813.7,54.6 L814.5,53.7 L814.9,53.1 L815.3,52.9 L817.6,52.8 L818.0,52.3 L818.4,52.2 L818.8,51.7 L819.6,51.6 L820.0,51.6 L820.0,160.0 Z"/>
  <polyline class="line" points="60.0,160.0 182.9,159.7 183.3,159.6 184.4,159.5 203.3,159.4 203.7,159.0 204.1,158.9 204.5,158.6 204.9,158.6 205.2,158.4 206.0,158.1 206.4,157.9 206.8,157.8 207.2,157.7 208.8,157.5 209.2,157.5 209.6,157.4 213.5,157.3 223.7,157.1 277.5,157.1 277.9,156.5 279.4,156.4 280.2,155.9 286.1,155.8 286.9,155.6 287.3,155.4 287.7,155.3 288.5,155.1 288.9,154.7 289.3,154.0 289.6,153.9 291.2,153.6 292.0,153.6 294.0,153.4 299.5,153.2 310.1,153.0 316.0,152.9 318.7,152.8 319.1,152.7 319.5,152.5 319.9,152.3 321.1,151.8 321.4,151.7 321.8,151.7 323.4,151.4 323.8,151.1 324.2,151.0 324.6,150.4 325.0,149.9 325.4,149.7 325.8,149.5 326.5,149.4 328.1,149.3 332.4,149.1 343.8,149.0 344.2,148.7 344.6,148.6 348.5,148.0 348.9,146.5 350.1,146.3 350.5,146.3 352.5,146.1 365.8,145.8 366.2,145.7 366.6,145.6 367.4,145.4 370.1,145.2 370.9,144.9 371.3,144.7 373.3,144.6 382.7,144.4 575.8,144.3 576.6,144.2 577.4,144.1 578.2,144.0 578.6,143.9 579.0,143.8 579.4,143.8 579.8,143.7 583.7,143.6 594.7,143.6 597.8,143.5 599.0,143.4 601.3,143.4 603.7,143.3 604.1,143.2 605.7,143.2 606.8,143.1 607.6,143.0 636.7,143.0 637.1,142.8 637.9,142.8 638.2,142.7 639.4,142.5 641.4,142.4 646.9,142.3 658.3,141.7 658.7,141.5 663.8,141.3 664.2,141.2 665.3,141.1 666.9,140.9 668.9,140.2 669.3,138.4 669.6,138.3 672.0,138.2 673.2,138.1 673.6,138.0 674.4,137.8 677.5,137.7 680.2,137.2 682.2,136.7 682.6,136.5 683.8,136.2 684.2,135.4 684.6,135.2 685.0,134.9 685.4,134.7 685.7,134.4 686.5,133.9 687.7,133.5 701.8,133.3 702.6,132.4 711.3,132.2 716.4,131.9 718.7,131.9 719.1,131.8 721.5,131.7 721.9,131.7 722.3,131.6 722.6,131.4 723.0,131.1 723.4,130.5 723.8,130.4 726.2,129.4 726.6,129.3 727.4,129.1 730.1,128.8 730.9,128.7 731.3,128.5 732.1,128.5 732.5,128.0 732.9,127.9 733.6,127.8 734.0,127.6 734.4,127.6 734.8,127.5 736.4,127.1 736.8,127.0 737.2,126.8 737.6,126.7 738.0,126.6 738.3,126.4 739.5,126.1 739.9,125.9 740.3,125.8 740.7,125.6 741.1,125.2 741.9,125.1 742.3,124.4 742.7,124.1 743.1,122.8 743.5,122.5 743.8,122.2 744.2,121.5 744.6,121.4 745.0,121.2 745.4,121.1 745.8,120.7 747.8,120.0 748.2,119.8 748.6,119.2 748.9,118.1 749.3,118.0 750.1,117.9 750.5,116.9 750.9,116.4 751.3,116.3 751.7,115.3 752.5,115.0 752.9,114.9 753.3,114.8 753.7,114.7 754.0,114.6 754.4,114.6 756.0,114.4 756.8,114.3 757.2,113.8 757.6,113.5 758.8,113.5 760.7,113.3 763.1,113.1 763.5,112.9 763.9,112.9 764.3,112.5 764.6,111.6 765.0,111.5 765.4,111.4 765.8,111.3 766.2,111.1 766.6,110.6 770.9,110.5 771.3,110.4 774.9,109.9 775.6,109.5 776.0,109.4 776.4,109.1 776.8,109.0 778.0,108.8 778.4,107.9 778.8,105.5 779.2,103.5 779.6,103.4 780.0,103.1 780.7,102.8 781.1,102.5 781.5,102.1 782.3,102.0 782.7,101.4 783.1,101.3 783.9,100.4 784.3,100.3 784.7,99.8 785.1,99.5 785.5,99.1 785.8,99.0 787.0,98.4 787.4,98.1 787.8,96.6 788.2,94.4 788.6,93.6 789.0,92.6 789.4,92.5 789.8,92.1 790.2,91.9 790.6,91.4 791.0,90.6 791.3,90.6 791.7,90.1 792.1,90.0 792.5,89.5 792.9,89.0 793.3,88.4 793.7,87.8 794.1,87.7 794.5,87.5 794.9,86.4 795.3,84.4 795.7,84.1 796.4,83.7 796.8,83.5 797.2,83.4 797.6,80.2 798.0,78.8 798.4,77.3 798.8,76.8 799.2,74.4 799.6,74.1 800.0,74.0 800.4,73.5 800.8,72.4 801.2,70.4 801.5,68.2 801.9,68.1 802.3,67.6 803.1,67.5 803.5,66.2 803.9,65.2 804.3,63.8 804.7,63.6 805.1,63.5 805.5,61.4 805.9,58.9 806.3,57.8 806.7,57.3 807.0,56.6 807.4,56.1 807.8,56.0 808.6,55.7 809.0,55.3 809.4,55.2 809.8,55.1 810.2,55.0 811.4,55.0 811.8,54.9 812.5,54.8 813.3,54.7 813.7,54.6 814.5,53.7 814.9,53.1 815.3,52.9 817.6,52.8 818.0,52.3 818.4,52.2 818.8,51.7 819.6,51.6 820.0,51.6"/>

  <g class="hoverpoint">
    <line x1="184.4" y1="30" x2="184.4" y2="160.0" class="guide"/>
    <circle cx="184.4" cy="159.5" r="16" class="hit"/>
    <circle cx="184.4" cy="159.5" r="4" class="hover-dot"><title>Nov 2021: 7 total (+7 this month)</title></circle>
    <rect x="114.4" y="133.5" width="140" height="20" rx="4" class="tooltip-bg"/>
    <text x="184.4" y="147.5" class="tooltip-text" text-anchor="middle">Nov 2021: 7 total (+7 this month)</text>
  </g>
  <g class="hoverpoint">
    <line x1="213.5" y1="30" x2="213.5" y2="160.0" class="guide"/>
    <circle cx="213.5" cy="157.3" r="16" class="hit"/>
    <circle cx="213.5" cy="157.3" r="4" class="hover-dot"><title>Jan 2022: 41 total (+34 this month)</title></circle>
    <rect x="143.5" y="131.3" width="140" height="20" rx="4" class="tooltip-bg"/>
    <text x="213.5" y="145.3" class="tooltip-text" text-anchor="middle">Jan 2022: 41 total (+34 this month)</text>
  </g>
  <g class="hoverpoint">
    <line x1="223.7" y1="30" x2="223.7" y2="160.0" class="guide"/>
    <circle cx="223.7" cy="157.1" r="16" class="hit"/>
    <circle cx="223.7" cy="157.1" r="4" class="hover-dot"><title>Feb 2022: 44 total (+3 this month)</title></circle>
    <rect x="153.7" y="131.1" width="140" height="20" rx="4" class="tooltip-bg"/>
    <text x="223.7" y="145.1" class="tooltip-text" text-anchor="middle">Feb 2022: 44 total (+3 this month)</text>
  </g>
  <g class="hoverpoint">
    <line x1="286.1" y1="30" x2="286.1" y2="160.0" class="guide"/>
    <circle cx="286.1" cy="155.8" r="16" class="hit"/>
    <circle cx="286.1" cy="155.8" r="4" class="hover-dot"><title>Jul 2022: 65 total (+21 this month)</title></circle>
    <rect x="216.1" y="129.8" width="140" height="20" rx="4" class="tooltip-bg"/>
    <text x="286.1" y="143.8" class="tooltip-text" text-anchor="middle">Jul 2022: 65 total (+21 this month)</text>
  </g>
  <g class="hoverpoint">
    <line x1="294.0" y1="30" x2="294.0" y2="160.0" class="guide"/>
    <circle cx="294.0" cy="153.4" r="16" class="hit"/>
    <circle cx="294.0" cy="153.4" r="4" class="hover-dot"><title>Aug 2022: 101 total (+36 this month)</title></circle>
    <rect x="224.0" y="127.4" width="140" height="20" rx="4" class="tooltip-bg"/>
    <text x="294.0" y="141.4" class="tooltip-text" text-anchor="middle">Aug 2022: 101 total (+36 this month)</text>
  </g>
  <g class="hoverpoint">
    <line x1="310.1" y1="30" x2="310.1" y2="160.0" class="guide"/>
    <circle cx="310.1" cy="153.0" r="16" class="hit"/>
    <circle cx="310.1" cy="153.0" r="4" class="hover-dot"><title>Sep 2022: 108 total (+7 this month)</title></circle>
    <rect x="240.1" y="127.0" width="140" height="20" rx="4" class="tooltip-bg"/>
    <text x="310.1" y="141.0" class="tooltip-text" text-anchor="middle">Sep 2022: 108 total (+7 this month)</text>
  </g>
  <g class="hoverpoint">
    <line x1="321.8" y1="30" x2="321.8" y2="160.0" class="guide"/>
    <circle cx="321.8" cy="151.7" r="16" class="hit"/>
    <circle cx="321.8" cy="151.7" r="4" class="hover-dot"><title>Oct 2022: 128 total (+20 this month)</title></circle>
    <rect x="251.8" y="125.7" width="140" height="20" rx="4" class="tooltip-bg"/>
    <text x="321.8" y="139.7" class="tooltip-text" text-anchor="middle">Oct 2022: 128 total (+20 this month)</text>
  </g>
  <g class="hoverpoint">
    <line x1="332.4" y1="30" x2="332.4" y2="160.0" class="guide"/>
    <circle cx="332.4" cy="149.1" r="16" class="hit"/>
    <circle cx="332.4" cy="149.1" r="4" class="hover-dot"><title>Nov 2022: 168 total (+40 this month)</title></circle>
    <rect x="262.4" y="123.1" width="140" height="20" rx="4" class="tooltip-bg"/>
    <text x="332.4" y="137.1" class="tooltip-text" text-anchor="middle">Nov 2022: 168 total (+40 this month)</text>
  </g>
  <g class="hoverpoint">
    <line x1="344.6" y1="30" x2="344.6" y2="160.0" class="guide"/>
    <circle cx="344.6" cy="148.6" r="16" class="hit"/>
    <circle cx="344.6" cy="148.6" r="4" class="hover-dot"><title>Dec 2022: 175 total (+7 this month)</title></circle>
    <rect x="274.6" y="122.6" width="140" height="20" rx="4" class="tooltip-bg"/>
    <text x="344.6" y="136.6" class="tooltip-text" text-anchor="middle">Dec 2022: 175 total (+7 this month)</text>
  </g>
  <g class="hoverpoint">
    <line x1="352.5" y1="30" x2="352.5" y2="160.0" class="guide"/>
    <circle cx="352.5" cy="146.1" r="16" class="hit"/>
    <circle cx="352.5" cy="146.1" r="4" class="hover-dot"><title>Jan 2023: 214 total (+39 this month)</title></circle>
    <rect x="282.5" y="120.1" width="140" height="20" rx="4" class="tooltip-bg"/>
    <text x="352.5" y="134.1" class="tooltip-text" text-anchor="middle">Jan 2023: 214 total (+39 this month)</text>
  </g>
  <g class="hoverpoint">
    <line x1="367.4" y1="30" x2="367.4" y2="160.0" class="guide"/>
    <circle cx="367.4" cy="145.4" r="16" class="hit"/>
    <circle cx="367.4" cy="145.4" r="4" class="hover-dot"><title>Feb 2023: 225 total (+11 this month)</title></circle>
    <rect x="297.4" y="119.4" width="140" height="20" rx="4" class="tooltip-bg"/>
    <text x="367.4" y="133.4" class="tooltip-text" text-anchor="middle">Feb 2023: 225 total (+11 this month)</text>
  </g>
  <g class="hoverpoint">
    <line x1="373.3" y1="30" x2="373.3" y2="160.0" class="guide"/>
    <circle cx="373.3" cy="144.6" r="16" class="hit"/>
    <circle cx="373.3" cy="144.6" r="4" class="hover-dot"><title>Mar 2023: 237 total (+12 this month)</title></circle>
    <rect x="303.3" y="118.6" width="140" height="20" rx="4" class="tooltip-bg"/>
    <text x="373.3" y="132.6" class="tooltip-text" text-anchor="middle">Mar 2023: 237 total (+12 this month)</text>
  </g>
  <g class="hoverpoint">
    <line x1="382.7" y1="30" x2="382.7" y2="160.0" class="guide"/>
    <circle cx="382.7" cy="144.4" r="16" class="hit"/>
    <circle cx="382.7" cy="144.4" r="4" class="hover-dot"><title>Apr 2023: 240 total (+3 this month)</title></circle>
    <rect x="312.7" y="118.4" width="140" height="20" rx="4" class="tooltip-bg"/>
    <text x="382.7" y="132.4" class="tooltip-text" text-anchor="middle">Apr 2023: 240 total (+3 this month)</text>
  </g>
  <g class="hoverpoint">
    <line x1="583.7" y1="30" x2="583.7" y2="160.0" class="guide"/>
    <circle cx="583.7" cy="143.6" r="16" class="hit"/>
    <circle cx="583.7" cy="143.6" r="4" class="hover-dot"><title>Aug 2024: 252 total (+12 this month)</title></circle>
    <rect x="513.7" y="117.6" width="140" height="20" rx="4" class="tooltip-bg"/>
    <text x="583.7" y="131.6" class="tooltip-text" text-anchor="middle">Aug 2024: 252 total (+12 this month)</text>
  </g>
  <g class="hoverpoint">
    <line x1="594.7" y1="30" x2="594.7" y2="160.0" class="guide"/>
    <circle cx="594.7" cy="143.6" r="16" class="hit"/>
    <circle cx="594.7" cy="143.6" r="4" class="hover-dot"><title>Sep 2024: 253 total (+1 this month)</title></circle>
    <rect x="524.7" y="117.6" width="140" height="20" rx="4" class="tooltip-bg"/>
    <text x="594.7" y="131.6" class="tooltip-text" text-anchor="middle">Sep 2024: 253 total (+1 this month)</text>
  </g>
  <g class="hoverpoint">
    <line x1="607.6" y1="30" x2="607.6" y2="160.0" class="guide"/>
    <circle cx="607.6" cy="143.0" r="16" class="hit"/>
    <circle cx="607.6" cy="143.0" r="4" class="hover-dot"><title>Oct 2024: 261 total (+8 this month)</title></circle>
    <rect x="537.6" y="117.0" width="140" height="20" rx="4" class="tooltip-bg"/>
    <text x="607.6" y="131.0" class="tooltip-text" text-anchor="middle">Oct 2024: 261 total (+8 this month)</text>
  </g>
  <g class="hoverpoint">
    <line x1="641.4" y1="30" x2="641.4" y2="160.0" class="guide"/>
    <circle cx="641.4" cy="142.4" r="16" class="hit"/>
    <circle cx="641.4" cy="142.4" r="4" class="hover-dot"><title>Jan 2025: 270 total (+9 this month)</title></circle>
    <rect x="571.4" y="116.4" width="140" height="20" rx="4" class="tooltip-bg"/>
    <text x="641.4" y="130.4" class="tooltip-text" text-anchor="middle">Jan 2025: 270 total (+9 this month)</text>
  </g>
  <g class="hoverpoint">
    <line x1="646.9" y1="30" x2="646.9" y2="160.0" class="guide"/>
    <circle cx="646.9" cy="142.3" r="16" class="hit"/>
    <circle cx="646.9" cy="142.3" r="4" class="hover-dot"><title>Feb 2025: 272 total (+2 this month)</title></circle>
    <rect x="576.9" y="116.3" width="140" height="20" rx="4" class="tooltip-bg"/>
    <text x="646.9" y="130.3" class="tooltip-text" text-anchor="middle">Feb 2025: 272 total (+2 this month)</text>
  </g>
  <g class="hoverpoint">
    <line x1="666.9" y1="30" x2="666.9" y2="160.0" class="guide"/>
    <circle cx="666.9" cy="140.9" r="16" class="hit"/>
    <circle cx="666.9" cy="140.9" r="4" class="hover-dot"><title>Mar 2025: 294 total (+22 this month)</title></circle>
    <rect x="596.9" y="114.9" width="140" height="20" rx="4" class="tooltip-bg"/>
    <text x="666.9" y="128.9" class="tooltip-text" text-anchor="middle">Mar 2025: 294 total (+22 this month)</text>
  </g>
  <g class="hoverpoint">
    <line x1="680.2" y1="30" x2="680.2" y2="160.0" class="guide"/>
    <circle cx="680.2" cy="137.2" r="16" class="hit"/>
    <circle cx="680.2" cy="137.2" r="4" class="hover-dot"><title>Apr 2025: 351 total (+57 this month)</title></circle>
    <rect x="610.2" y="111.2" width="140" height="20" rx="4" class="tooltip-bg"/>
    <text x="680.2" y="125.2" class="tooltip-text" text-anchor="middle">Apr 2025: 351 total (+57 this month)</text>
  </g>
  <g class="hoverpoint">
    <line x1="687.7" y1="30" x2="687.7" y2="160.0" class="guide"/>
    <circle cx="687.7" cy="133.5" r="16" class="hit"/>
    <circle cx="687.7" cy="133.5" r="4" class="hover-dot"><title>May 2025: 408 total (+57 this month)</title></circle>
    <rect x="617.7" y="107.5" width="140" height="20" rx="4" class="tooltip-bg"/>
    <text x="687.7" y="121.5" class="tooltip-text" text-anchor="middle">May 2025: 408 total (+57 this month)</text>
  </g>
  <g class="hoverpoint">
    <line x1="702.6" y1="30" x2="702.6" y2="160.0" class="guide"/>
    <circle cx="702.6" cy="132.4" r="16" class="hit"/>
    <circle cx="702.6" cy="132.4" r="4" class="hover-dot"><title>Jun 2025: 424 total (+16 this month)</title></circle>
    <rect x="632.6" y="106.4" width="140" height="20" rx="4" class="tooltip-bg"/>
    <text x="702.6" y="120.4" class="tooltip-text" text-anchor="middle">Jun 2025: 424 total (+16 this month)</text>
  </g>
  <g class="hoverpoint">
    <line x1="716.4" y1="30" x2="716.4" y2="160.0" class="guide"/>
    <circle cx="716.4" cy="131.9" r="16" class="hit"/>
    <circle cx="716.4" cy="131.9" r="4" class="hover-dot"><title>Jul 2025: 432 total (+8 this month)</title></circle>
    <rect x="646.4" y="105.9" width="140" height="20" rx="4" class="tooltip-bg"/>
    <text x="716.4" y="119.9" class="tooltip-text" text-anchor="middle">Jul 2025: 432 total (+8 this month)</text>
  </g>
  <g class="hoverpoint">
    <line x1="727.4" y1="30" x2="727.4" y2="160.0" class="guide"/>
    <circle cx="727.4" cy="129.1" r="16" class="hit"/>
    <circle cx="727.4" cy="129.1" r="4" class="hover-dot"><title>Aug 2025: 475 total (+43 this month)</title></circle>
    <rect x="657.4" y="103.1" width="140" height="20" rx="4" class="tooltip-bg"/>
    <text x="727.4" y="117.1" class="tooltip-text" text-anchor="middle">Aug 2025: 475 total (+43 this month)</text>
  </g>
  <g class="hoverpoint">
    <line x1="740.3" y1="30" x2="740.3" y2="160.0" class="guide"/>
    <circle cx="740.3" cy="125.8" r="16" class="hit"/>
    <circle cx="740.3" cy="125.8" r="4" class="hover-dot"><title>Sep 2025: 526 total (+51 this month)</title></circle>
    <rect x="670.3" y="99.8" width="140" height="20" rx="4" class="tooltip-bg"/>
    <text x="740.3" y="113.8" class="tooltip-text" text-anchor="middle">Sep 2025: 526 total (+51 this month)</text>
  </g>
  <g class="hoverpoint">
    <line x1="752.5" y1="30" x2="752.5" y2="160.0" class="guide"/>
    <circle cx="752.5" cy="115.0" r="16" class="hit"/>
    <circle cx="752.5" cy="115.0" r="4" class="hover-dot"><title>Oct 2025: 692 total (+166 this month)</title></circle>
    <rect x="682.5" y="89.0" width="140" height="20" rx="4" class="tooltip-bg"/>
    <text x="752.5" y="103.0" class="tooltip-text" text-anchor="middle">Oct 2025: 692 total (+166 this month)</text>
  </g>
  <g class="hoverpoint">
    <line x1="764.3" y1="30" x2="764.3" y2="160.0" class="guide"/>
    <circle cx="764.3" cy="112.5" r="16" class="hit"/>
    <circle cx="764.3" cy="112.5" r="4" class="hover-dot"><title>Nov 2025: 731 total (+39 this month)</title></circle>
    <rect x="694.3" y="86.5" width="140" height="20" rx="4" class="tooltip-bg"/>
    <text x="764.3" y="100.5" class="tooltip-text" text-anchor="middle">Nov 2025: 731 total (+39 this month)</text>
  </g>
  <g class="hoverpoint">
    <line x1="776.4" y1="30" x2="776.4" y2="160.0" class="guide"/>
    <circle cx="776.4" cy="109.1" r="16" class="hit"/>
    <circle cx="776.4" cy="109.1" r="4" class="hover-dot"><title>Dec 2025: 783 total (+52 this month)</title></circle>
    <rect x="706.4" y="83.1" width="140" height="20" rx="4" class="tooltip-bg"/>
    <text x="776.4" y="97.1" class="tooltip-text" text-anchor="middle">Dec 2025: 783 total (+52 this month)</text>
  </g>
  <g class="hoverpoint">
    <line x1="788.6" y1="30" x2="788.6" y2="160.0" class="guide"/>
    <circle cx="788.6" cy="93.6" r="16" class="hit"/>
    <circle cx="788.6" cy="93.6" r="4" class="hover-dot"><title>Jan 2026: 1,022 total (+239 this month)</title></circle>
    <rect x="718.6" y="67.6" width="140" height="20" rx="4" class="tooltip-bg"/>
    <text x="788.6" y="81.6" class="tooltip-text" text-anchor="middle">Jan 2026: 1,022 total (+239 this month)</text>
  </g>
  <g class="hoverpoint">
    <line x1="799.6" y1="30" x2="799.6" y2="160.0" class="guide"/>
    <circle cx="799.6" cy="74.1" r="16" class="hit"/>
    <circle cx="799.6" cy="74.1" r="4" class="hover-dot"><title>Feb 2026: 1,321 total (+299 this month)</title></circle>
    <rect x="729.6" y="48.1" width="140" height="20" rx="4" class="tooltip-bg"/>
    <text x="799.6" y="62.1" class="tooltip-text" text-anchor="middle">Feb 2026: 1,321 total (+299 this month)</text>
  </g>
  <g class="hoverpoint">
    <line x1="811.8" y1="30" x2="811.8" y2="160.0" class="guide"/>
    <circle cx="811.8" cy="54.9" r="16" class="hit"/>
    <circle cx="811.8" cy="54.9" r="4" class="hover-dot"><title>Mar 2026: 1,617 total (+296 this month)</title></circle>
    <rect x="741.8" y="28.9" width="140" height="20" rx="4" class="tooltip-bg"/>
    <text x="811.8" y="42.9" class="tooltip-text" text-anchor="middle">Mar 2026: 1,617 total (+296 this month)</text>
  </g>
  <g class="hoverpoint">
    <line x1="820.0" y1="30" x2="820.0" y2="160.0" class="guide"/>
    <circle cx="820.0" cy="51.6" r="16" class="hit"/>
    <circle cx="820.0" cy="51.6" r="4" class="hover-dot"><title>Apr 2026: 1,668 total (+51 this month)</title></circle>
    <rect x="750.0" y="25.6" width="140" height="20" rx="4" class="tooltip-bg"/>
    <text x="820.0" y="39.6" class="tooltip-text" text-anchor="middle">Apr 2026: 1,668 total (+51 this month)</text>
  </g>

  <circle cx="820.0" cy="51.6" r="4" class="dot"/>
  <text x="810.0" y="41.6" class="total">1,668</text>

</svg>