<svg xmlns="http://www.w3.org/2000/svg" width="840" height="196" viewBox="0 0 840 196" fill="none">
  <style>
    .label { font-family: -apple-system, BlinkMacSystemFont, 'Segoe UI', Helvetica, Arial, sans-serif; font-size: 10px; fill: #8b949e; }
    .title { font-family: -apple-system, BlinkMacSystemFont, 'Segoe UI', Helvetica, Arial, sans-serif; font-size: 11px; fill: #8b949e; font-weight: 600; }
    .total { font-family: -apple-system, BlinkMacSystemFont, 'Segoe UI', Helvetica, Arial, sans-serif; font-size: 11px; fill: #7ee787; font-weight: 600; }
    .grid { stroke: #21262d; stroke-width: 1; }
    .line { stroke: #7ee787; stroke-width: 2; stroke-linecap: round; stroke-linejoin: round; fill: none; }
    .dot { fill: #7ee787; }
    .area { fill: url(#areaGrad); }
    /* Hover interaction */
    .hoverpoint .guide { stroke: #7ee787; stroke-width: 1; stroke-dasharray: 2,2; opacity: 0; }
    .hoverpoint .hover-dot { fill: #7ee787; opacity: 0; }
    .hoverpoint .hit { fill: transparent; cursor: pointer; }
    .hoverpoint .tooltip-bg { fill: #161b22; stroke: #30363d; stroke-width: 1; opacity: 0; }
    .hoverpoint .tooltip-text { font-family: -apple-system, BlinkMacSystemFont, 'Segoe UI', Helvetica, Arial, sans-serif; font-size: 9px; fill: #c9d1d9; opacity: 0; }
    .hoverpoint:hover .guide { opacity: 0.5; }
    .hoverpoint:hover .hover-dot { opacity: 1; }
    .hoverpoint:hover .tooltip-bg { opacity: 0.95; }
    .hoverpoint:hover .tooltip-text { opacity: 1; }
  </style>
  <defs>
    <linearGradient id="areaGrad" x1="0" y1="0" x2="0" y2="1">
      <stop offset="0%" stop-color="#7ee787" stop-opacity="0.15"/>
      <stop offset="100%" stop-color="#7ee787" stop-opacity="0.01"/>
    </linearGradient>
  </defs>

  <text x="60" y="18" class="title">Cumulative Commits</text>

  <line x1="60" y1="160.0" x2="820" y2="160.0" class="grid"/>
  <text x="50" y="163.0" class="label" text-anchor="end">0</text>
  <line x1="60" y1="127.5" x2="820" y2="127.5" class="grid" stroke-dasharray="3,3"/>
  <text x="50" y="130.5" class="label" text-anchor="end">750</text>
  <line x1="60" y1="95.0" x2="820" y2="95.0" class="grid" stroke-dasharray="3,3"/>
  <text x="50" y="98.0" class="label" text-anchor="end">1,500</text>
  <line x1="60" y1="62.5" x2="820" y2="62.5" class="grid" stroke-dasharray="3,3"/>
  <text x="50" y="65.5" class="label" text-anchor="end">2,250</text>
  <line x1="60" y1="30.0" x2="820" y2="30.0" class="grid" stroke-dasharray="3,3"/>
  <text x="50" y="33.0" class="label" text-anchor="end">3,000</text>

  <text x="70.0" y="186" class="label" text-anchor="middle">2021</text>
  <text x="199.9" y="186" class="label" text-anchor="middle">2022</text>
  <text x="339.8" y="186" class="label" text-anchor="middle">2023</text>
  <text x="479.7" y="186" class="label" text-anchor="middle">2024</text>
  <text x="619.9" y="186" class="label" text-anchor="middle">2025</text>
  <text x="759.8" y="186" class="label" text-anchor="middle">2026</text>


  <path class="area" d="M60.0,160.0 L60.0,160.0 60.0,160.0 L180.0,159.8 L180.3,159.7 L181.5,159.7 L199.9,159.6 L200.3,159.3 L200.7,159.3 L201.0,159.1 L201.4,159.0 L201.8,159.0 L202.6,158.7 L203.0,158.6 L203.3,158.5 L203.7,158.5 L205.3,158.4 L205.6,158.3 L206.0,158.3 L209.9,158.2 L219.8,158.1 L272.3,158.1 L272.7,157.7 L274.2,157.6 L275.0,157.3 L280.8,157.2 L281.5,157.1 L281.9,156.9 L282.3,156.9 L283.1,156.8 L283.4,156.4 L283.8,156.0 L284.2,155.9 L285.7,155.8 L286.5,155.7 L288.4,155.6 L293.8,155.4 L304.1,155.3 L309.9,155.3 L312.6,155.2 L313.0,155.1 L313.3,155.0 L313.7,154.8 L314.9,154.5 L315.2,154.5 L315.6,154.5 L317.2,154.3 L317.5,154.1 L317.9,154.0 L318.3,153.6 L318.7,153.2 L319.1,153.1 L319.5,153.0 L320.2,152.9 L321.8,152.8 L326.0,152.7 L337.1,152.7 L337.5,152.5 L337.9,152.4 L341.7,152.0 L342.1,151.0 L343.2,150.9 L343.6,150.9 L345.5,150.7 L358.6,150.6 L358.9,150.5 L359.3,150.4 L360.1,150.2 L362.8,150.1 L363.5,149.9 L363.9,149.8 L365.8,149.7 L375.0,149.6 L563.6,149.5 L564.4,149.5 L565.1,149.4 L565.9,149.3 L566.3,149.3 L566.7,149.2 L567.0,149.2 L567.4,149.1 L571.3,149.1 L582.0,149.0 L585.1,149.0 L586.2,148.9 L588.5,148.9 L590.8,148.9 L591.2,148.8 L592.7,148.8 L593.9,148.7 L594.6,148.7 L623.0,148.6 L623.4,148.6 L624.2,148.5 L624.5,148.5 L625.7,148.3 L627.6,148.3 L633.0,148.2 L644.1,147.8 L644.5,147.7 L649.5,147.6 L649.8,147.5 L651.0,147.4 L652.5,147.3 L654.4,146.8 L654.8,145.6 L655.2,145.5 L657.5,145.4 L658.6,145.4 L659.0,145.4 L659.8,145.2 L662.9,145.1 L665.5,144.8 L667.5,144.5 L667.8,144.4 L669.0,144.1 L669.4,143.6 L669.8,143.5 L670.1,143.3 L670.5,143.1 L670.9,142.9 L671.7,142.6 L672.8,142.3 L686.6,142.2 L687.4,141.6 L695.8,141.5 L700.8,141.3 L703.1,141.2 L703.5,141.2 L705.8,141.2 L706.2,141.1 L706.6,141.1 L706.9,140.9 L707.3,140.8 L707.7,140.3 L708.1,140.2 L710.4,139.6 L710.8,139.5 L711.5,139.4 L714.2,139.2 L715.0,139.2 L715.4,139.0 L716.1,139.0 L716.5,138.7 L716.9,138.6 L717.7,138.5 L718.1,138.4 L718.4,138.4 L718.8,138.3 L720.4,138.1 L720.7,138.0 L721.1,137.9 L721.5,137.8 L721.9,137.7 L722.3,137.6 L723.4,137.4 L723.8,137.3 L724.2,137.2 L724.6,137.1 L725.0,136.8 L725.7,136.7 L726.1,136.3 L726.5,136.0 L726.9,135.2 L727.3,135.0 L727.6,134.8 L728.0,134.3 L728.4,134.3 L728.8,134.1 L729.2,134.1 L729.6,133.8 L731.5,133.3 L731.9,133.2 L732.2,132.8 L732.6,132.1 L733.0,132.0 L733.8,131.9 L734.2,131.3 L734.5,130.9 L734.9,130.9 L735.3,130.2 L736.1,130.0 L736.4,129.9 L736.8,129.8 L737.2,129.8 L737.6,129.8 L738.0,129.7 L739.5,129.6 L740.3,129.5 L740.7,129.2 L741.0,129.0 L742.2,129.0 L744.1,128.9 L746.4,128.7 L746.8,128.6 L747.2,128.6 L747.6,128.3 L747.9,127.7 L748.3,127.7 L748.7,127.6 L749.1,127.5 L749.5,127.4 L749.9,127.1 L754.1,127.0 L754.5,126.9 L757.9,126.6 L758.7,126.3 L759.1,126.2 L759.4,126.1 L759.8,126.0 L761.0,125.9 L761.4,125.2 L761.7,123.7 L762.1,122.3 L762.5,122.3 L762.9,122.1 L763.7,121.9 L764.0,121.7 L764.4,121.4 L765.2,121.3 L765.6,120.9 L766.0,120.9 L766.7,120.3 L767.1,120.2 L767.5,119.9 L767.9,119.7 L768.3,119.4 L768.6,119.4 L769.8,119.0 L770.2,118.7 L770.6,117.7 L770.9,116.3 L771.3,115.7 L771.7,115.1 L772.1,115.0 L772.5,114.8 L772.9,114.6 L773.2,114.2 L773.6,113.8 L774.0,113.7 L774.4,113.4 L774.8,113.3 L775.2,113.0 L775.5,112.6 L775.9,112.3 L776.3,111.9 L776.7,111.8 L777.1,111.6 L777.5,110.9 L777.8,109.6 L778.2,109.4 L779.0,109.1 L779.4,109.0 L779.8,108.9 L780.1,106.8 L780.5,105.8 L780.9,104.9 L781.3,104.5 L781.7,102.9 L782.1,102.8 L782.4,102.7 L782.8,102.3 L783.2,101.6 L783.6,100.2 L784.0,98.8 L784.4,98.7 L784.7,98.4 L785.5,98.3 L785.9,97.5 L786.3,96.8 L786.7,95.9 L787.0,95.7 L787.4,95.7 L787.8,94.3 L788.2,92.6 L788.6,91.9 L789.0,91.5 L789.3,91.1 L789.7,90.7 L790.1,90.7 L790.9,90.5 L791.3,90.2 L791.6,90.1 L792.0,90.1 L792.4,90.0 L793.6,90.0 L793.9,89.9 L794.7,89.8 L795.5,89.8 L795.9,89.7 L796.6,89.1 L797.0,88.8 L797.4,88.4 L799.7,88.3 L800.1,88.0 L800.5,87.9 L800.8,87.5 L801.2,87.5 L801.6,87.4 L802.0,87.3 L802.4,86.7 L802.8,86.0 L803.1,85.8 L803.5,84.5 L803.9,84.3 L804.7,84.3 L805.1,84.2 L806.2,83.8 L806.6,83.3 L807.0,83.0 L807.4,82.7 L807.7,81.7 L808.1,78.0 L808.5,76.4 L808.9,76.1 L809.3,75.8 L809.7,75.2 L810.0,75.1 L810.4,69.9 L810.8,63.5 L811.2,61.6 L811.6,61.5 L812.0,60.6 L812.3,59.8 L812.7,56.0 L813.1,53.6 L813.5,50.1 L813.9,49.3 L814.3,49.2 L814.6,49.1 L815.0,47.9 L815.4,46.1 L815.8,42.1 L816.2,41.5 L816.6,40.7 L816.9,39.5 L817.3,38.9 L817.7,38.5 L818.1,36.8 L818.5,36.2 L818.9,36.1 L819.2,35.8 L819.6,35.6 L820.0,35.5 L820.0,160.0 Z"/>
  <polyline class="line" points="60.0,160.0 180.0,159.8 180.3,159.7 181.5,159.7 199.9,159.6 200.3,159.3 200.7,159.3 201.0,159.1 201.4,159.0 201.8,159.0 202.6,158.7 203.0,158.6 203.3,158.5 203.7,158.5 205.3,158.4 205.6,158.3 206.0,158.3 209.9,158.2 219.8,158.1 272.3,158.1 272.7,157.7 274.2,157.6 275.0,157.3 280.8,157.2 281.5,157.1 281.9,156.9 282.3,156.9 283.1,156.8 283.4,156.4 283.8,156.0 284.2,155.9 285.7,155.8 286.5,155.7 288.4,155.6 293.8,155.4 304.1,155.3 309.9,155.3 312.6,155.2 313.0,155.1 313.3,155.0 313.7,154.8 314.9,154.5 315.2,154.5 315.6,154.5 317.2,154.3 317.5,154.1 317.9,154.0 318.3,153.6 318.7,153.2 319.1,153.1 319.5,153.0 320.2,152.9 321.8,152.8 326.0,152.7 337.1,152.7 337.5,152.5 337.9,152.4 341.7,152.0 342.1,151.0 343.2,150.9 343.6,150.9 345.5,150.7 358.6,150.6 358.9,150.5 359.3,150.4 360.1,150.2 362.8,150.1 363.5,149.9 363.9,149.8 365.8,149.7 375.0,149.6 563.6,149.5 564.4,149.5 565.1,149.4 565.9,149.3 566.3,149.3 566.7,149.2 567.0,149.2 567.4,149.1 571.3,149.1 582.0,149.0 585.1,149.0 586.2,148.9 588.5,148.9 590.8,148.9 591.2,148.8 592.7,148.8 593.9,148.7 594.6,148.7 623.0,148.6 623.4,148.6 624.2,148.5 624.5,148.5 625.7,148.3 627.6,148.3 633.0,148.2 644.1,147.8 644.5,147.7 649.5,147.6 649.8,147.5 651.0,147.4 652.5,147.3 654.4,146.8 654.8,145.6 655.2,145.5 657.5,145.4 658.6,145.4 659.0,145.4 659.8,145.2 662.9,145.1 665.5,144.8 667.5,144.5 667.8,144.4 669.0,144.1 669.4,143.6 669.8,143.5 670.1,143.3 670.5,143.1 670.9,142.9 671.7,142.6 672.8,142.3 686.6,142.2 687.4,141.6 695.8,141.5 700.8,141.3 703.1,141.2 703.5,141.2 705.8,141.2 706.2,141.1 706.6,141.1 706.9,140.9 707.3,140.8 707.7,140.3 708.1,140.2 710.4,139.6 710.8,139.5 711.5,139.4 714.2,139.2 715.0,139.2 715.4,139.0 716.1,139.0 716.5,138.7 716.9,138.6 717.7,138.5 718.1,138.4 718.4,138.4 718.8,138.3 720.4,138.1 720.7,138.0 721.1,137.9 721.5,137.8 721.9,137.7 722.3,137.6 723.4,137.4 723.8,137.3 724.2,137.2 724.6,137.1 725.0,136.8 725.7,136.7 726.1,136.3 726.5,136.0 726.9,135.2 727.3,135.0 727.6,134.8 728.0,134.3 728.4,134.3 728.8,134.1 729.2,134.1 729.6,133.8 731.5,133.3 731.9,133.2 732.2,132.8 732.6,132.1 733.0,132.0 733.8,131.9 734.2,131.3 734.5,130.9 734.9,130.9 735.3,130.2 736.1,130.0 736.4,129.9 736.8,129.8 737.2,129.8 737.6,129.8 738.0,129.7 739.5,129.6 740.3,129.5 740.7,129.2 741.0,129.0 742.2,129.0 744.1,128.9 746.4,128.7 746.8,128.6 747.2,128.6 747.6,128.3 747.9,127.7 748.3,127.7 748.7,127.6 749.1,127.5 749.5,127.4 749.9,127.1 754.1,127.0 754.5,126.9 757.9,126.6 758.7,126.3 759.1,126.2 759.4,126.1 759.8,126.0 761.0,125.9 761.4,125.2 761.7,123.7 762.1,122.3 762.5,122.3 762.9,122.1 763.7,121.9 764.0,121.7 764.4,121.4 765.2,121.3 765.6,120.9 766.0,120.9 766.7,120.3 767.1,120.2 767.5,119.9 767.9,119.7 768.3,119.4 768.6,119.4 769.8,119.0 770.2,118.7 770.6,117.7 770.9,116.3 771.3,115.7 771.7,115.1 772.1,115.0 772.5,114.8 772.9,114.6 773.2,114.2 773.6,113.8 774.0,113.7 774.4,113.4 774.8,113.3 775.2,113.0 775.5,112.6 775.9,112.3 776.3,111.9 776.7,111.8 777.1,111.6 777.5,110.9 777.8,109.6 778.2,109.4 779.0,109.1 779.4,109.0 779.8,108.9 780.1,106.8 780.5,105.8 780.9,104.9 781.3,104.5 781.7,102.9 782.1,102.8 782.4,102.7 782.8,102.3 783.2,101.6 783.6,100.2 784.0,98.8 784.4,98.7 784.7,98.4 785.5,98.3 785.9,97.5 786.3,96.8 786.7,95.9 787.0,95.7 787.4,95.7 787.8,94.3 788.2,92.6 788.6,91.9 789.0,91.5 789.3,91.1 789.7,90.7 790.1,90.7 790.9,90.5 791.3,90.2 791.6,90.1 792.0,90.1 792.4,90.0 793.6,90.0 793.9,89.9 794.7,89.8 795.5,89.8 795.9,89.7 796.6,89.1 797.0,88.8 797.4,88.4 799.7,88.3 800.1,88.0 800.5,87.9 800.8,87.5 801.2,87.5 801.6,87.4 802.0,87.3 802.4,86.7 802.8,86.0 803.1,85.8 803.5,84.5 803.9,84.3 804.7,84.3 805.1,84.2 806.2,83.8 806.6,83.3 807.0,83.0 807.4,82.7 807.7,81.7 808.1,78.0 808.5,76.4 808.9,76.1 809.3,75.8 809.7,75.2 810.0,75.1 810.4,69.9 810.8,63.5 811.2,61.6 811.6,61.5 812.0,60.6 812.3,59.8 812.7,56.0 813.1,53.6 813.5,50.1 813.9,49.3 814.3,49.2 814.6,49.1 815.0,47.9 815.4,46.1 815.8,42.1 816.2,41.5 816.6,40.7 816.9,39.5 817.3,38.9 817.7,38.5 818.1,36.8 818.5,36.2 818.9,36.1 819.2,35.8 819.6,35.6 820.0,35.5"/>

  <g class="hoverpoint">
    <line x1="181.5" y1="30" x2="181.5" y2="160.0" class="guide"/>
    <circle cx="181.5" cy="159.7" r="16" class="hit"/>
    <circle cx="181.5" cy="159.7" r="4" class="hover-dot"><title>Nov 2021: 7 total (+7 this month)</title></circle>
    <rect x="111.5" y="133.7" width="140" height="20" rx="4" class="tooltip-bg"/>
    <text x="181.5" y="147.7" class="tooltip-text" text-anchor="middle">Nov 2021: 7 total (+7 this month)</text>
  </g>
  <g class="hoverpoint">
    <line x1="209.9" y1="30" x2="209.9" y2="160.0" class="guide"/>
    <circle cx="209.9" cy="158.2" r="16" class="hit"/>
    <circle cx="209.9" cy="158.2" r="4" class="hover-dot"><title>Jan 2022: 41 total (+34 this month)</title></circle>
    <rect x="139.9" y="132.2" width="140" height="20" rx="4" class="tooltip-bg"/>
    <text x="209.9" y="146.2" class="tooltip-text" text-anchor="middle">Jan 2022: 41 total (+34 this month)</text>
  </g>
  <g class="hoverpoint">
    <line x1="219.8" y1="30" x2="219.8" y2="160.0" class="guide"/>
    <circle cx="219.8" cy="158.1" r="16" class="hit"/>
    <circle cx="219.8" cy="158.1" r="4" class="hover-dot"><title>Feb 2022: 44 total (+3 this month)</title></circle>
    <rect x="149.8" y="132.1" width="140" height="20" rx="4" class="tooltip-bg"/>
    <text x="219.8" y="146.1" class="tooltip-text" text-anchor="middle">Feb 2022: 44 total (+3 this month)</text>
  </g>
  <g class="hoverpoint">
    <line x1="280.8" y1="30" x2="280.8" y2="160.0" class="guide"/>
    <circle cx="280.8" cy="157.2" r="16" class="hit"/>
    <circle cx="280.8" cy="157.2" r="4" class="hover-dot"><title>Jul 2022: 65 total (+21 this month)</title></circle>
    <rect x="210.8" y="131.2" width="140" height="20" rx="4" class="tooltip-bg"/>
    <text x="280.8" y="145.2" class="tooltip-text" text-anchor="middle">Jul 2022: 65 total (+21 this month)</text>
  </g>
  <g class="hoverpoint">
    <line x1="288.4" y1="30" x2="288.4" y2="160.0" class="guide"/>
    <circle cx="288.4" cy="155.6" r="16" class="hit"/>
    <circle cx="288.4" cy="155.6" r="4" class="hover-dot"><title>Aug 2022: 101 total (+36 this month)</title></circle>
    <rect x="218.4" y="129.6" width="140" height="20" rx="4" class="tooltip-bg"/>
    <text x="288.4" y="143.6" class="tooltip-text" text-anchor="middle">Aug 2022: 101 total (+36 this month)</text>
  </g>
  <g class="hoverpoint">
    <line x1="304.1" y1="30" x2="304.1" y2="160.0" class="guide"/>
    <circle cx="304.1" cy="155.3" r="16" class="hit"/>
    <circle cx="304.1" cy="155.3" r="4" class="hover-dot"><title>Sep 2022: 108 total (+7 this month)</title></circle>
    <rect x="234.1" y="129.3" width="140" height="20" rx="4" class="tooltip-bg"/>
    <text x="304.1" y="143.3" class="tooltip-text" text-anchor="middle">Sep 2022: 108 total (+7 this month)</text>
  </g>
  <g class="hoverpoint">
    <line x1="315.6" y1="30" x2="315.6" y2="160.0" class="guide"/>
    <circle cx="315.6" cy="154.5" r="16" class="hit"/>
    <circle cx="315.6" cy="154.5" r="4" class="hover-dot"><title>Oct 2022: 128 total (+20 this month)</title></circle>
    <rect x="245.6" y="128.5" width="140" height="20" rx="4" class="tooltip-bg"/>
    <text x="315.6" y="142.5" class="tooltip-text" text-anchor="middle">Oct 2022: 128 total (+20 this month)</text>
  </g>
  <g class="hoverpoint">
    <line x1="326.0" y1="30" x2="326.0" y2="160.0" class="guide"/>
    <circle cx="326.0" cy="152.7" r="16" class="hit"/>
    <circle cx="326.0" cy="152.7" r="4" class="hover-dot"><title>Nov 2022: 168 total (+40 this month)</title></circle>
    <rect x="256.0" y="126.7" width="140" height="20" rx="4" class="tooltip-bg"/>
    <text x="326.0" y="140.7" class="tooltip-text" text-anchor="middle">Nov 2022: 168 total (+40 this month)</text>
  </g>
  <g class="hoverpoint">
    <line x1="337.9" y1="30" x2="337.9" y2="160.0" class="guide"/>
    <circle cx="337.9" cy="152.4" r="16" class="hit"/>
    <circle cx="337.9" cy="152.4" r="4" class="hover-dot"><title>Dec 2022: 175 total (+7 this month)</title></circle>
    <rect x="267.9" y="126.4" width="140" height="20" rx="4" class="tooltip-bg"/>
    <text x="337.9" y="140.4" class="tooltip-text" text-anchor="middle">Dec 2022: 175 total (+7 this month)</text>
  </g>
  <g class="hoverpoint">
    <line x1="345.5" y1="30" x2="345.5" y2="160.0" class="guide"/>
    <circle cx="345.5" cy="150.7" r="16" class="hit"/>
    <circle cx="345.5" cy="150.7" r="4" class="hover-dot"><title>Jan 2023: 214 total (+39 this month)</title></circle>
    <rect x="275.5" y="124.7" width="140" height="20" rx="4" class="tooltip-bg"/>
    <text x="345.5" y="138.7" class="tooltip-text" text-anchor="middle">Jan 2023: 214 total (+39 this month)</text>
  </g>
  <g class="hoverpoint">
    <line x1="360.1" y1="30" x2="360.1" y2="160.0" class="guide"/>
    <circle cx="360.1" cy="150.2" r="16" class="hit"/>
    <circle cx="360.1" cy="150.2" r="4" class="hover-dot"><title>Feb 2023: 225 total (+11 this month)</title></circle>
    <rect x="290.1" y="124.2" width="140" height="20" rx="4" class="tooltip-bg"/>
    <text x="360.1" y="138.2" class="tooltip-text" text-anchor="middle">Feb 2023: 225 total (+11 this month)</text>
  </g>
  <g class="hoverpoint">
    <line x1="365.8" y1="30" x2="365.8" y2="160.0" class="guide"/>
    <circle cx="365.8" cy="149.7" r="16" class="hit"/>
    <circle cx="365.8" cy="149.7" r="4" class="hover-dot"><title>Mar 2023: 237 total (+12 this month)</title></circle>
    <rect x="295.8" y="123.7" width="140" height="20" rx="4" class="tooltip-bg"/>
    <text x="365.8" y="137.7" class="tooltip-text" text-anchor="middle">Mar 2023: 237 total (+12 this month)</text>
  </g>
  <g class="hoverpoint">
    <line x1="375.0" y1="30" x2="375.0" y2="160.0" class="guide"/>
    <circle cx="375.0" cy="149.6" r="16" class="hit"/>
    <circle cx="375.0" cy="149.6" r="4" class="hover-dot"><title>Apr 2023: 240 total (+3 this month)</title></circle>
    <rect x="305.0" y="123.6" width="140" height="20" rx="4" class="tooltip-bg"/>
    <text x="375.0" y="137.6" class="tooltip-text" text-anchor="middle">Apr 2023: 240 total (+3 this month)</text>
  </g>
  <g class="hoverpoint">
    <line x1="571.3" y1="30" x2="571.3" y2="160.0" class="guide"/>
    <circle cx="571.3" cy="149.1" r="16" class="hit"/>
    <circle cx="571.3" cy="149.1" r="4" class="hover-dot"><title>Aug 2024: 252 total (+12 this month)</title></circle>
    <rect x="501.3" y="123.1" width="140" height="20" rx="4" class="tooltip-bg"/>
    <text x="571.3" y="137.1" class="tooltip-text" text-anchor="middle">Aug 2024: 252 total (+12 this month)</text>
  </g>
  <g class="hoverpoint">
    <line x1="582.0" y1="30" x2="582.0" y2="160.0" class="guide"/>
    <circle cx="582.0" cy="149.0" r="16" class="hit"/>
    <circle cx="582.0" cy="149.0" r="4" class="hover-dot"><title>Sep 2024: 253 total (+1 this month)</title></circle>
    <rect x="512.0" y="123.0" width="140" height="20" rx="4" class="tooltip-bg"/>
    <text x="582.0" y="137.0" class="tooltip-text" text-anchor="middle">Sep 2024: 253 total (+1 this month)</text>
  </g>
  <g class="hoverpoint">
    <line x1="594.6" y1="30" x2="594.6" y2="160.0" class="guide"/>
    <circle cx="594.6" cy="148.7" r="16" class="hit"/>
    <circle cx="594.6" cy="148.7" r="4" class="hover-dot"><title>Oct 2024: 261 total (+8 this month)</title></circle>
    <rect x="524.6" y="122.7" width="140" height="20" rx="4" class="tooltip-bg"/>
    <text x="594.6" y="136.7" class="tooltip-text" text-anchor="middle">Oct 2024: 261 total (+8 this month)</text>
  </g>
  <g class="hoverpoint">
    <line x1="627.6" y1="30" x2="627.6" y2="160.0" class="guide"/>
    <circle cx="627.6" cy="148.3" r="16" class="hit"/>
    <circle cx="627.6" cy="148.3" r="4" class="hover-dot"><title>Jan 2025: 270 total (+9 this month)</title></circle>
    <rect x="557.6" y="122.3" width="140" height="20" rx="4" class="tooltip-bg"/>
    <text x="627.6" y="136.3" class="tooltip-text" text-anchor="middle">Jan 2025: 270 total (+9 this month)</text>
  </g>
  <g class="hoverpoint">
    <line x1="633.0" y1="30" x2="633.0" y2="160.0" class="guide"/>
    <circle cx="633.0" cy="148.2" r="16" class="hit"/>
    <circle cx="633.0" cy="148.2" r="4" class="hover-dot"><title>Feb 2025: 272 total (+2 this month)</title></circle>
    <rect x="563.0" y="122.2" width="140" height="20" rx="4" class="tooltip-bg"/>
    <text x="633.0" y="136.2" class="tooltip-text" text-anchor="middle">Feb 2025: 272 total (+2 this month)</text>
  </g>
  <g class="hoverpoint">
    <line x1="652.5" y1="30" x2="652.5" y2="160.0" class="guide"/>
    <circle cx="652.5" cy="147.3" r="16" class="hit"/>
    <circle cx="652.5" cy="147.3" r="4" class="hover-dot"><title>Mar 2025: 294 total (+22 this month)</title></circle>
    <rect x="582.5" y="121.3" width="140" height="20" rx="4" class="tooltip-bg"/>
    <text x="652.5" y="135.3" class="tooltip-text" text-anchor="middle">Mar 2025: 294 total (+22 this month)</text>
  </g>
  <g class="hoverpoint">
    <line x1="665.5" y1="30" x2="665.5" y2="160.0" class="guide"/>
    <circle cx="665.5" cy="144.8" r="16" class="hit"/>
    <circle cx="665.5" cy="144.8" r="4" class="hover-dot"><title>Apr 2025: 351 total (+57 this month)</title></circle>
    <rect x="595.5" y="118.8" width="140" height="20" rx="4" class="tooltip-bg"/>
    <text x="665.5" y="132.8" class="tooltip-text" text-anchor="middle">Apr 2025: 351 total (+57 this month)</text>
  </g>
  <g class="hoverpoint">
    <line x1="672.8" y1="30" x2="672.8" y2="160.0" class="guide"/>
    <circle cx="672.8" cy="142.3" r="16" class="hit"/>
    <circle cx="672.8" cy="142.3" r="4" class="hover-dot"><title>May 2025: 408 total (+57 this month)</title></circle>
    <rect x="602.8" y="116.3" width="140" height="20" rx="4" class="tooltip-bg"/>
    <text x="672.8" y="130.3" class="tooltip-text" text-anchor="middle">May 2025: 408 total (+57 this month)</text>
  </g>
  <g class="hoverpoint">
    <line x1="687.4" y1="30" x2="687.4" y2="160.0" class="guide"/>
    <circle cx="687.4" cy="141.6" r="16" class="hit"/>
    <circle cx="687.4" cy="141.6" r="4" class="hover-dot"><title>Jun 2025: 424 total (+16 this month)</title></circle>
    <rect x="617.4" y="115.6" width="140" height="20" rx="4" class="tooltip-bg"/>
    <text x="687.4" y="129.6" class="tooltip-text" text-anchor="middle">Jun 2025: 424 total (+16 this month)</text>
  </g>
  <g class="hoverpoint">
    <line x1="700.8" y1="30" x2="700.8" y2="160.0" class="guide"/>
    <circle cx="700.8" cy="141.3" r="16" class="hit"/>
    <circle cx="700.8" cy="141.3" r="4" class="hover-dot"><title>Jul 2025: 432 total (+8 this month)</title></circle>
    <rect x="630.8" y="115.3" width="140" height="20" rx="4" class="tooltip-bg"/>
    <text x="700.8" y="129.3" class="tooltip-text" text-anchor="middle">Jul 2025: 432 total (+8 this month)</text>
  </g>
  <g class="hoverpoint">
    <line x1="711.5" y1="30" x2="711.5" y2="160.0" class="guide"/>
    <circle cx="711.5" cy="139.4" r="16" class="hit"/>
    <circle cx="711.5" cy="139.4" r="4" class="hover-dot"><title>Aug 2025: 475 total (+43 this month)</title></circle>
    <rect x="641.5" y="113.4" width="140" height="20" rx="4" class="tooltip-bg"/>
    <text x="711.5" y="127.4" class="tooltip-text" text-anchor="middle">Aug 2025: 475 total (+43 this month)</text>
  </g>
  <g class="hoverpoint">
    <line x1="724.2" y1="30" x2="724.2" y2="160.0" class="guide"/>
    <circle cx="724.2" cy="137.2" r="16" class="hit"/>
    <circle cx="724.2" cy="137.2" r="4" class="hover-dot"><title>Sep 2025: 526 total (+51 this month)</title></circle>
    <rect x="654.2" y="111.2" width="140" height="20" rx="4" class="tooltip-bg"/>
    <text x="724.2" y="125.2" class="tooltip-text" text-anchor="middle">Sep 2025: 526 total (+51 this month)</text>
  </g>
  <g class="hoverpoint">
    <line x1="736.1" y1="30" x2="736.1" y2="160.0" class="guide"/>
    <circle cx="736.1" cy="130.0" r="16" class="hit"/>
    <circle cx="736.1" cy="130.0" r="4" class="hover-dot"><title>Oct 2025: 692 total (+166 this month)</title></circle>
    <rect x="666.1" y="104.0" width="140" height="20" rx="4" class="tooltip-bg"/>
    <text x="736.1" y="118.0" class="tooltip-text" text-anchor="middle">Oct 2025: 692 total (+166 this month)</text>
  </g>
  <g class="hoverpoint">
    <line x1="747.6" y1="30" x2="747.6" y2="160.0" class="guide"/>
    <circle cx="747.6" cy="128.3" r="16" class="hit"/>
    <circle cx="747.6" cy="128.3" r="4" class="hover-dot"><title>Nov 2025: 731 total (+39 this month)</title></circle>
    <rect x="677.6" y="102.3" width="140" height="20" rx="4" class="tooltip-bg"/>
    <text x="747.6" y="116.3" class="tooltip-text" text-anchor="middle">Nov 2025: 731 total (+39 this month)</text>
  </g>
  <g class="hoverpoint">
    <line x1="759.4" y1="30" x2="759.4" y2="160.0" class="guide"/>
    <circle cx="759.4" cy="126.1" r="16" class="hit"/>
    <circle cx="759.4" cy="126.1" r="4" class="hover-dot"><title>Dec 2025: 783 total (+52 this month)</title></circle>
    <rect x="689.4" y="100.1" width="140" height="20" rx="4" class="tooltip-bg"/>
    <text x="759.4" y="114.1" class="tooltip-text" text-anchor="middle">Dec 2025: 783 total (+52 this month)</text>
  </g>
  <g class="hoverpoint">
    <line x1="771.3" y1="30" x2="771.3" y2="160.0" class="guide"/>
    <circle cx="771.3" cy="115.7" r="16" class="hit"/>
    <circle cx="771.3" cy="115.7" r="4" class="hover-dot"><title>Jan 2026: 1,022 total (+239 this month)</title></circle>
    <rect x="701.3" y="89.7" width="140" height="20" rx="4" class="tooltip-bg"/>
    <text x="771.3" y="103.7" class="tooltip-text" text-anchor="middle">Jan 2026: 1,022 total (+239 this month)</text>
  </g>
  <g class="hoverpoint">
    <line x1="782.1" y1="30" x2="782.1" y2="160.0" class="guide"/>
    <circle cx="782.1" cy="102.8" r="16" class="hit"/>
    <circle cx="782.1" cy="102.8" r="4" class="hover-dot"><title>Feb 2026: 1,321 total (+299 this month)</title></circle>
    <rect x="712.1" y="76.8" width="140" height="20" rx="4" class="tooltip-bg"/>
    <text x="782.1" y="90.8" class="tooltip-text" text-anchor="middle">Feb 2026: 1,321 total (+299 this month)</text>
  </g>
  <g class="hoverpoint">
    <line x1="793.9" y1="30" x2="793.9" y2="160.0" class="guide"/>
    <circle cx="793.9" cy="89.9" r="16" class="hit"/>
    <circle cx="793.9" cy="89.9" r="4" class="hover-dot"><title>Mar 2026: 1,617 total (+296 this month)</title></circle>
    <rect x="723.9" y="63.9" width="140" height="20" rx="4" class="tooltip-bg"/>
    <text x="793.9" y="77.9" class="tooltip-text" text-anchor="middle">Mar 2026: 1,617 total (+296 this month)</text>
  </g>
  <g class="hoverpoint">
    <line x1="805.1" y1="30" x2="805.1" y2="160.0" class="guide"/>
    <circle cx="805.1" cy="84.2" r="16" class="hit"/>
    <circle cx="805.1" cy="84.2" r="4" class="hover-dot"><title>Apr 2026: 1,749 total (+132 this month)</title></circle>
    <rect x="735.1" y="58.2" width="140" height="20" rx="4" class="tooltip-bg"/>
    <text x="805.1" y="72.2" class="tooltip-text" text-anchor="middle">Apr 2026: 1,749 total (+132 this month)</text>
  </g>
  <g class="hoverpoint">
    <line x1="817.3" y1="30" x2="817.3" y2="160.0" class="guide"/>
    <circle cx="817.3" cy="38.9" r="16" class="hit"/>
    <circle cx="817.3" cy="38.9" r="4" class="hover-dot"><title>May 2026: 2,795 total (+1,046 this month)</title></circle>
    <rect x="747.3" y="12.9" width="140" height="20" rx="4" class="tooltip-bg"/>
    <text x="817.3" y="26.9" class="tooltip-text" text-anchor="middle">May 2026: 2,795 total (+1,046 this month)</text>
  </g>
  <g class="hoverpoint">
    <line x1="820.0" y1="30" x2="820.0" y2="160.0" class="guide"/>
    <circle cx="820.0" cy="35.5" r="16" class="hit"/>
    <circle cx="820.0" cy="35.5" r="4" class="hover-dot"><title>Jun 2026: 2,874 total (+79 this month)</title></circle>
    <rect x="750.0" y="9.5" width="140" height="20" rx="4" class="tooltip-bg"/>
    <text x="820.0" y="23.5" class="tooltip-text" text-anchor="middle">Jun 2026: 2,874 total (+79 this month)</text>
  </g>

  <circle cx="820.0" cy="35.5" r="4" class="dot"/>
  <text x="810.0" y="25.5" class="total">2,874</text>

</svg>