<svg xmlns="http://www.w3.org/2000/svg" width="840" height="196" viewBox="0 0 840 196" fill="none">
  <style>
    .label { font-family: -apple-system, BlinkMacSystemFont, 'Segoe UI', Helvetica, Arial, sans-serif; font-size: 10px; fill: #8b949e; }
    .title { font-family: -apple-system, BlinkMacSystemFont, 'Segoe UI', Helvetica, Arial, sans-serif; font-size: 11px; fill: #8b949e; font-weight: 600; }
    .total { font-family: -apple-system, BlinkMacSystemFont, 'Segoe UI', Helvetica, Arial, sans-serif; font-size: 11px; fill: #7ee787; font-weight: 600; }
    .grid { stroke: #21262d; stroke-width: 1; }
    .line { stroke: #7ee787; stroke-width: 2; stroke-linecap: round; stroke-linejoin: round; fill: none; }
    .dot { fill: #7ee787; }
    .area { fill: url(#areaGrad); }
    /* Hover interaction */
    .hoverpoint .guide { stroke: #7ee787; stroke-width: 1; stroke-dasharray: 2,2; opacity: 0; }
    .hoverpoint .hover-dot { fill: #7ee787; opacity: 0; }
    .hoverpoint .hit { fill: transparent; cursor: pointer; }
    .hoverpoint .tooltip-bg { fill: #161b22; stroke: #30363d; stroke-width: 1; opacity: 0; }
    .hoverpoint .tooltip-text { font-family: -apple-system, BlinkMacSystemFont, 'Segoe UI', Helvetica, Arial, sans-serif; font-size: 9px; fill: #c9d1d9; opacity: 0; }
    .hoverpoint:hover .guide { opacity: 0.5; }
    .hoverpoint:hover .hover-dot { opacity: 1; }
    .hoverpoint:hover .tooltip-bg { opacity: 0.95; }
    .hoverpoint:hover .tooltip-text { opacity: 1; }
  </style>
  <defs>
    <linearGradient id="areaGrad" x1="0" y1="0" x2="0" y2="1">
      <stop offset="0%" stop-color="#7ee787" stop-opacity="0.15"/>
      <stop offset="100%" stop-color="#7ee787" stop-opacity="0.01"/>
    </linearGradient>
  </defs>

  <text x="60" y="18" class="title">Cumulative Commits</text>

  <line x1="60" y1="160.0" x2="820" y2="160.0" class="grid"/>
  <text x="50" y="163.0" class="label" text-anchor="end">0</text>
  <line x1="60" y1="127.5" x2="820" y2="127.5" class="grid" stroke-dasharray="3,3"/>
  <text x="50" y="130.5" class="label" text-anchor="end">1,000</text>
  <line x1="60" y1="95.0" x2="820" y2="95.0" class="grid" stroke-dasharray="3,3"/>
  <text x="50" y="98.0" class="label" text-anchor="end">2,000</text>
  <line x1="60" y1="62.5" x2="820" y2="62.5" class="grid" stroke-dasharray="3,3"/>
  <text x="50" y="65.5" class="label" text-anchor="end">3,000</text>
  <line x1="60" y1="30.0" x2="820" y2="30.0" class="grid" stroke-dasharray="3,3"/>
  <text x="50" y="33.0" class="label" text-anchor="end">4,000</text>

  <text x="70.0" y="186" class="label" text-anchor="middle">2021</text>
  <text x="198.2" y="186" class="label" text-anchor="middle">2022</text>
  <text x="336.4" y="186" class="label" text-anchor="middle">2023</text>
  <text x="474.6" y="186" class="label" text-anchor="middle">2024</text>
  <text x="613.2" y="186" class="label" text-anchor="middle">2025</text>
  <text x="751.5" y="186" class="label" text-anchor="middle">2026</text>


  <path class="area" d="M60.0,160.0 L60.0,160.0 60.0,160.0 L178.5,159.8 L178.9,159.8 L180.0,159.8 L198.2,159.7 L198.6,159.5 L199.0,159.4 L199.4,159.3 L199.7,159.3 L200.1,159.2 L200.9,159.1 L201.2,159.0 L201.6,158.9 L202.0,158.9 L203.5,158.8 L203.9,158.7 L204.3,158.7 L208.1,158.7 L217.9,158.6 L269.8,158.5 L270.2,158.2 L271.7,158.2 L272.4,158.0 L278.1,157.9 L278.9,157.8 L279.3,157.7 L279.6,157.7 L280.4,157.6 L280.8,157.3 L281.1,157.0 L281.5,156.9 L283.0,156.8 L283.8,156.8 L285.7,156.7 L291.0,156.6 L301.2,156.5 L306.9,156.5 L309.5,156.4 L309.9,156.4 L310.3,156.3 L310.7,156.1 L311.8,155.9 L312.2,155.9 L312.6,155.8 L314.1,155.7 L314.5,155.5 L314.8,155.5 L315.2,155.2 L315.6,154.9 L316.0,154.8 L316.4,154.8 L317.1,154.7 L318.6,154.6 L322.8,154.5 L333.8,154.5 L334.2,154.3 L334.5,154.3 L338.3,154.0 L338.7,153.3 L339.8,153.2 L340.2,153.1 L342.1,153.0 L355.0,152.9 L355.4,152.8 L355.7,152.8 L356.5,152.7 L359.2,152.6 L359.9,152.4 L360.3,152.4 L362.2,152.3 L371.3,152.2 L557.6,152.1 L558.3,152.1 L559.1,152.1 L559.9,152.0 L560.2,151.9 L560.6,151.9 L561.0,151.9 L561.4,151.8 L565.2,151.8 L575.8,151.8 L578.8,151.7 L579.9,151.7 L582.2,151.7 L584.5,151.6 L584.8,151.6 L586.4,151.6 L587.5,151.6 L588.3,151.5 L616.3,151.5 L616.7,151.4 L617.4,151.4 L617.8,151.4 L618.9,151.3 L620.8,151.2 L626.1,151.2 L637.1,150.9 L637.5,150.7 L642.4,150.7 L642.8,150.6 L643.9,150.5 L645.4,150.4 L647.3,150.1 L647.7,149.2 L648.1,149.1 L650.4,149.1 L651.5,149.0 L651.9,149.0 L652.6,148.9 L655.7,148.9 L658.3,148.6 L660.2,148.4 L660.6,148.3 L661.7,148.1 L662.1,147.7 L662.5,147.6 L662.9,147.5 L663.2,147.4 L663.6,147.2 L664.4,146.9 L665.5,146.7 L679.1,146.6 L679.9,146.2 L688.2,146.1 L693.1,146.0 L695.4,145.9 L695.8,145.9 L698.1,145.9 L698.4,145.8 L698.8,145.8 L699.2,145.7 L699.6,145.6 L700.0,145.2 L700.3,145.2 L702.6,144.7 L703.0,144.6 L703.7,144.6 L706.4,144.4 L707.2,144.4 L707.5,144.3 L708.3,144.2 L708.7,144.0 L709.0,143.9 L709.8,143.9 L710.2,143.8 L710.6,143.8 L710.9,143.8 L712.5,143.6 L712.8,143.5 L713.2,143.4 L713.6,143.4 L714.0,143.3 L714.3,143.2 L715.5,143.1 L715.9,143.0 L716.2,142.9 L716.6,142.8 L717.0,142.6 L717.8,142.5 L718.1,142.2 L718.5,142.0 L718.9,141.4 L719.3,141.2 L719.7,141.1 L720.0,140.8 L720.4,140.7 L720.8,140.6 L721.2,140.6 L721.5,140.3 L723.4,140.0 L723.8,139.9 L724.2,139.6 L724.6,139.0 L725.0,139.0 L725.7,138.9 L726.1,138.5 L726.5,138.2 L726.8,138.2 L727.2,137.6 L728.0,137.5 L728.4,137.4 L728.7,137.4 L729.1,137.3 L729.5,137.3 L729.9,137.3 L731.4,137.2 L732.1,137.2 L732.5,136.9 L732.9,136.8 L734.0,136.7 L735.9,136.7 L738.2,136.5 L738.6,136.5 L739.0,136.4 L739.3,136.2 L739.7,135.8 L740.1,135.8 L740.5,135.7 L740.9,135.7 L741.2,135.6 L741.6,135.3 L745.8,135.2 L746.2,135.2 L749.6,135.0 L750.3,134.7 L750.7,134.7 L751.1,134.6 L751.5,134.5 L752.6,134.4 L753.0,133.9 L753.4,132.8 L753.7,131.7 L754.1,131.7 L754.5,131.6 L755.2,131.4 L755.6,131.3 L756.0,131.0 L756.8,131.0 L757.1,130.7 L757.5,130.7 L758.3,130.2 L758.7,130.2 L759.0,129.9 L759.4,129.7 L759.8,129.5 L760.2,129.5 L761.3,129.2 L761.7,129.1 L762.1,128.3 L762.4,127.2 L762.8,126.8 L763.2,126.3 L763.6,126.2 L764.0,126.1 L764.3,125.9 L764.7,125.7 L765.1,125.3 L765.5,125.3 L765.8,125.0 L766.2,125.0 L766.6,124.7 L767.0,124.5 L767.4,124.2 L767.7,123.9 L768.1,123.8 L768.5,123.7 L768.9,123.2 L769.3,122.2 L769.6,122.0 L770.4,121.8 L770.8,121.7 L771.2,121.7 L771.5,120.1 L771.9,119.4 L772.3,118.7 L772.7,118.4 L773.0,117.2 L773.4,117.1 L773.8,117.0 L774.2,116.7 L774.6,116.2 L774.9,115.2 L775.3,114.1 L775.7,114.0 L776.1,113.8 L776.8,113.8 L777.2,113.1 L777.6,112.6 L778.0,111.9 L778.3,111.8 L778.7,111.8 L779.1,110.7 L779.5,109.5 L779.9,108.9 L780.2,108.7 L780.6,108.3 L781.0,108.0 L781.4,108.0 L782.1,107.8 L782.5,107.6 L782.9,107.6 L783.3,107.5 L783.6,107.5 L784.8,107.5 L785.2,107.4 L785.9,107.4 L786.7,107.3 L787.1,107.3 L787.8,106.9 L788.2,106.6 L788.6,106.3 L790.8,106.2 L791.2,106.0 L791.6,105.9 L792.0,105.7 L792.4,105.6 L792.7,105.5 L793.1,105.5 L793.5,105.0 L793.9,104.5 L794.3,104.3 L794.6,103.4 L795.0,103.2 L795.8,103.2 L796.1,103.2 L797.3,102.9 L797.7,102.5 L798.0,102.2 L798.4,102.0 L798.8,101.3 L799.2,98.5 L799.6,97.3 L799.9,97.1 L800.3,96.9 L800.7,96.4 L801.1,96.3 L801.4,92.4 L801.8,87.6 L802.2,86.2 L802.6,86.2 L803.0,85.4 L803.3,84.9 L803.7,82.0 L804.1,80.2 L804.5,77.5 L804.9,77.0 L805.2,76.9 L805.6,76.8 L806.0,75.9 L806.4,74.6 L806.7,71.6 L807.1,71.1 L807.5,70.5 L807.9,69.7 L808.3,69.2 L808.6,68.7 L809.0,66.9 L809.4,66.5 L809.8,66.4 L810.2,66.1 L810.5,66.0 L810.9,65.7 L811.3,65.6 L811.7,64.7 L812.0,63.4 L812.4,62.3 L812.8,62.2 L813.2,61.2 L813.6,60.5 L813.9,60.4 L814.3,60.2 L814.7,60.1 L815.1,59.8 L815.5,59.0 L815.8,58.0 L816.2,57.7 L816.6,52.8 L817.0,52.7 L817.3,52.5 L818.1,52.2 L818.9,52.0 L819.2,51.7 L819.6,51.4 L820.0,51.3 L820.0,160.0 Z"/>
  <polyline class="line" points="60.0,160.0 178.5,159.8 178.9,159.8 180.0,159.8 198.2,159.7 198.6,159.5 199.0,159.4 199.4,159.3 199.7,159.3 200.1,159.2 200.9,159.1 201.2,159.0 201.6,158.9 202.0,158.9 203.5,158.8 203.9,158.7 204.3,158.7 208.1,158.7 217.9,158.6 269.8,158.5 270.2,158.2 271.7,158.2 272.4,158.0 278.1,157.9 278.9,157.8 279.3,157.7 279.6,157.7 280.4,157.6 280.8,157.3 281.1,157.0 281.5,156.9 283.0,156.8 283.8,156.8 285.7,156.7 291.0,156.6 301.2,156.5 306.9,156.5 309.5,156.4 309.9,156.4 310.3,156.3 310.7,156.1 311.8,155.9 312.2,155.9 312.6,155.8 314.1,155.7 314.5,155.5 314.8,155.5 315.2,155.2 315.6,154.9 316.0,154.8 316.4,154.8 317.1,154.7 318.6,154.6 322.8,154.5 333.8,154.5 334.2,154.3 334.5,154.3 338.3,154.0 338.7,153.3 339.8,153.2 340.2,153.1 342.1,153.0 355.0,152.9 355.4,152.8 355.7,152.8 356.5,152.7 359.2,152.6 359.9,152.4 360.3,152.4 362.2,152.3 371.3,152.2 557.6,152.1 558.3,152.1 559.1,152.1 559.9,152.0 560.2,151.9 560.6,151.9 561.0,151.9 561.4,151.8 565.2,151.8 575.8,151.8 578.8,151.7 579.9,151.7 582.2,151.7 584.5,151.6 584.8,151.6 586.4,151.6 587.5,151.6 588.3,151.5 616.3,151.5 616.7,151.4 617.4,151.4 617.8,151.4 618.9,151.3 620.8,151.2 626.1,151.2 637.1,150.9 637.5,150.7 642.4,150.7 642.8,150.6 643.9,150.5 645.4,150.4 647.3,150.1 647.7,149.2 648.1,149.1 650.4,149.1 651.5,149.0 651.9,149.0 652.6,148.9 655.7,148.9 658.3,148.6 660.2,148.4 660.6,148.3 661.7,148.1 662.1,147.7 662.5,147.6 662.9,147.5 663.2,147.4 663.6,147.2 664.4,146.9 665.5,146.7 679.1,146.6 679.9,146.2 688.2,146.1 693.1,146.0 695.4,145.9 695.8,145.9 698.1,145.9 698.4,145.8 698.8,145.8 699.2,145.7 699.6,145.6 700.0,145.2 700.3,145.2 702.6,144.7 703.0,144.6 703.7,144.6 706.4,144.4 707.2,144.4 707.5,144.3 708.3,144.2 708.7,144.0 709.0,143.9 709.8,143.9 710.2,143.8 710.6,143.8 710.9,143.8 712.5,143.6 712.8,143.5 713.2,143.4 713.6,143.4 714.0,143.3 714.3,143.2 715.5,143.1 715.9,143.0 716.2,142.9 716.6,142.8 717.0,142.6 717.8,142.5 718.1,142.2 718.5,142.0 718.9,141.4 719.3,141.2 719.7,141.1 720.0,140.8 720.4,140.7 720.8,140.6 721.2,140.6 721.5,140.3 723.4,140.0 723.8,139.9 724.2,139.6 724.6,139.0 725.0,139.0 725.7,138.9 726.1,138.5 726.5,138.2 726.8,138.2 727.2,137.6 728.0,137.5 728.4,137.4 728.7,137.4 729.1,137.3 729.5,137.3 729.9,137.3 731.4,137.2 732.1,137.2 732.5,136.9 732.9,136.8 734.0,136.7 735.9,136.7 738.2,136.5 738.6,136.5 739.0,136.4 739.3,136.2 739.7,135.8 740.1,135.8 740.5,135.7 740.9,135.7 741.2,135.6 741.6,135.3 745.8,135.2 746.2,135.2 749.6,135.0 750.3,134.7 750.7,134.7 751.1,134.6 751.5,134.5 752.6,134.4 753.0,133.9 753.4,132.8 753.7,131.7 754.1,131.7 754.5,131.6 755.2,131.4 755.6,131.3 756.0,131.0 756.8,131.0 757.1,130.7 757.5,130.7 758.3,130.2 758.7,130.2 759.0,129.9 759.4,129.7 759.8,129.5 760.2,129.5 761.3,129.2 761.7,129.1 762.1,128.3 762.4,127.2 762.8,126.8 763.2,126.3 763.6,126.2 764.0,126.1 764.3,125.9 764.7,125.7 765.1,125.3 765.5,125.3 765.8,125.0 766.2,125.0 766.6,124.7 767.0,124.5 767.4,124.2 767.7,123.9 768.1,123.8 768.5,123.7 768.9,123.2 769.3,122.2 769.6,122.0 770.4,121.8 770.8,121.7 771.2,121.7 771.5,120.1 771.9,119.4 772.3,118.7 772.7,118.4 773.0,117.2 773.4,117.1 773.8,117.0 774.2,116.7 774.6,116.2 774.9,115.2 775.3,114.1 775.7,114.0 776.1,113.8 776.8,113.8 777.2,113.1 777.6,112.6 778.0,111.9 778.3,111.8 778.7,111.8 779.1,110.7 779.5,109.5 779.9,108.9 780.2,108.7 780.6,108.3 781.0,108.0 781.4,108.0 782.1,107.8 782.5,107.6 782.9,107.6 783.3,107.5 783.6,107.5 784.8,107.5 785.2,107.4 785.9,107.4 786.7,107.3 787.1,107.3 787.8,106.9 788.2,106.6 788.6,106.3 790.8,106.2 791.2,106.0 791.6,105.9 792.0,105.7 792.4,105.6 792.7,105.5 793.1,105.5 793.5,105.0 793.9,104.5 794.3,104.3 794.6,103.4 795.0,103.2 795.8,103.2 796.1,103.2 797.3,102.9 797.7,102.5 798.0,102.2 798.4,102.0 798.8,101.3 799.2,98.5 799.6,97.3 799.9,97.1 800.3,96.9 800.7,96.4 801.1,96.3 801.4,92.4 801.8,87.6 802.2,86.2 802.6,86.2 803.0,85.4 803.3,84.9 803.7,82.0 804.1,80.2 804.5,77.5 804.9,77.0 805.2,76.9 805.6,76.8 806.0,75.9 806.4,74.6 806.7,71.6 807.1,71.1 807.5,70.5 807.9,69.7 808.3,69.2 808.6,68.7 809.0,66.9 809.4,66.5 809.8,66.4 810.2,66.1 810.5,66.0 810.9,65.7 811.3,65.6 811.7,64.7 812.0,63.4 812.4,62.3 812.8,62.2 813.2,61.2 813.6,60.5 813.9,60.4 814.3,60.2 814.7,60.1 815.1,59.8 815.5,59.0 815.8,58.0 816.2,57.7 816.6,52.8 817.0,52.7 817.3,52.5 818.1,52.2 818.9,52.0 819.2,51.7 819.6,51.4 820.0,51.3"/>

  <g class="hoverpoint">
    <line x1="180.0" y1="30" x2="180.0" y2="160.0" class="guide"/>
    <circle cx="180.0" cy="159.8" r="16" class="hit"/>
    <circle cx="180.0" cy="159.8" r="4" class="hover-dot"><title>Nov 2021: 7 total (+7 this month)</title></circle>
    <rect x="110.0" y="133.8" width="140" height="20" rx="4" class="tooltip-bg"/>
    <text x="180.0" y="147.8" class="tooltip-text" text-anchor="middle">Nov 2021: 7 total (+7 this month)</text>
  </g>
  <g class="hoverpoint">
    <line x1="208.1" y1="30" x2="208.1" y2="160.0" class="guide"/>
    <circle cx="208.1" cy="158.7" r="16" class="hit"/>
    <circle cx="208.1" cy="158.7" r="4" class="hover-dot"><title>Jan 2022: 41 total (+34 this month)</title></circle>
    <rect x="138.1" y="132.7" width="140" height="20" rx="4" class="tooltip-bg"/>
    <text x="208.1" y="146.7" class="tooltip-text" text-anchor="middle">Jan 2022: 41 total (+34 this month)</text>
  </g>
  <g class="hoverpoint">
    <line x1="217.9" y1="30" x2="217.9" y2="160.0" class="guide"/>
    <circle cx="217.9" cy="158.6" r="16" class="hit"/>
    <circle cx="217.9" cy="158.6" r="4" class="hover-dot"><title>Feb 2022: 44 total (+3 this month)</title></circle>
    <rect x="147.9" y="132.6" width="140" height="20" rx="4" class="tooltip-bg"/>
    <text x="217.9" y="146.6" class="tooltip-text" text-anchor="middle">Feb 2022: 44 total (+3 this month)</text>
  </g>
  <g class="hoverpoint">
    <line x1="278.1" y1="30" x2="278.1" y2="160.0" class="guide"/>
    <circle cx="278.1" cy="157.9" r="16" class="hit"/>
    <circle cx="278.1" cy="157.9" r="4" class="hover-dot"><title>Jul 2022: 65 total (+21 this month)</title></circle>
    <rect x="208.1" y="131.9" width="140" height="20" rx="4" class="tooltip-bg"/>
    <text x="278.1" y="145.9" class="tooltip-text" text-anchor="middle">Jul 2022: 65 total (+21 this month)</text>
  </g>
  <g class="hoverpoint">
    <line x1="285.7" y1="30" x2="285.7" y2="160.0" class="guide"/>
    <circle cx="285.7" cy="156.7" r="16" class="hit"/>
    <circle cx="285.7" cy="156.7" r="4" class="hover-dot"><title>Aug 2022: 101 total (+36 this month)</title></circle>
    <rect x="215.7" y="130.7" width="140" height="20" rx="4" class="tooltip-bg"/>
    <text x="285.7" y="144.7" class="tooltip-text" text-anchor="middle">Aug 2022: 101 total (+36 this month)</text>
  </g>
  <g class="hoverpoint">
    <line x1="301.2" y1="30" x2="301.2" y2="160.0" class="guide"/>
    <circle cx="301.2" cy="156.5" r="16" class="hit"/>
    <circle cx="301.2" cy="156.5" r="4" class="hover-dot"><title>Sep 2022: 108 total (+7 this month)</title></circle>
    <rect x="231.2" y="130.5" width="140" height="20" rx="4" class="tooltip-bg"/>
    <text x="301.2" y="144.5" class="tooltip-text" text-anchor="middle">Sep 2022: 108 total (+7 this month)</text>
  </g>
  <g class="hoverpoint">
    <line x1="312.6" y1="30" x2="312.6" y2="160.0" class="guide"/>
    <circle cx="312.6" cy="155.8" r="16" class="hit"/>
    <circle cx="312.6" cy="155.8" r="4" class="hover-dot"><title>Oct 2022: 128 total (+20 this month)</title></circle>
    <rect x="242.6" y="129.8" width="140" height="20" rx="4" class="tooltip-bg"/>
    <text x="312.6" y="143.8" class="tooltip-text" text-anchor="middle">Oct 2022: 128 total (+20 this month)</text>
  </g>
  <g class="hoverpoint">
    <line x1="322.8" y1="30" x2="322.8" y2="160.0" class="guide"/>
    <circle cx="322.8" cy="154.5" r="16" class="hit"/>
    <circle cx="322.8" cy="154.5" r="4" class="hover-dot"><title>Nov 2022: 168 total (+40 this month)</title></circle>
    <rect x="252.8" y="128.5" width="140" height="20" rx="4" class="tooltip-bg"/>
    <text x="322.8" y="142.5" class="tooltip-text" text-anchor="middle">Nov 2022: 168 total (+40 this month)</text>
  </g>
  <g class="hoverpoint">
    <line x1="334.5" y1="30" x2="334.5" y2="160.0" class="guide"/>
    <circle cx="334.5" cy="154.3" r="16" class="hit"/>
    <circle cx="334.5" cy="154.3" r="4" class="hover-dot"><title>Dec 2022: 175 total (+7 this month)</title></circle>
    <rect x="264.5" y="128.3" width="140" height="20" rx="4" class="tooltip-bg"/>
    <text x="334.5" y="142.3" class="tooltip-text" text-anchor="middle">Dec 2022: 175 total (+7 this month)</text>
  </g>
  <g class="hoverpoint">
    <line x1="342.1" y1="30" x2="342.1" y2="160.0" class="guide"/>
    <circle cx="342.1" cy="153.0" r="16" class="hit"/>
    <circle cx="342.1" cy="153.0" r="4" class="hover-dot"><title>Jan 2023: 214 total (+39 this month)</title></circle>
    <rect x="272.1" y="127.0" width="140" height="20" rx="4" class="tooltip-bg"/>
    <text x="342.1" y="141.0" class="tooltip-text" text-anchor="middle">Jan 2023: 214 total (+39 this month)</text>
  </g>
  <g class="hoverpoint">
    <line x1="356.5" y1="30" x2="356.5" y2="160.0" class="guide"/>
    <circle cx="356.5" cy="152.7" r="16" class="hit"/>
    <circle cx="356.5" cy="152.7" r="4" class="hover-dot"><title>Feb 2023: 225 total (+11 this month)</title></circle>
    <rect x="286.5" y="126.7" width="140" height="20" rx="4" class="tooltip-bg"/>
    <text x="356.5" y="140.7" class="tooltip-text" text-anchor="middle">Feb 2023: 225 total (+11 this month)</text>
  </g>
  <g class="hoverpoint">
    <line x1="362.2" y1="30" x2="362.2" y2="160.0" class="guide"/>
    <circle cx="362.2" cy="152.3" r="16" class="hit"/>
    <circle cx="362.2" cy="152.3" r="4" class="hover-dot"><title>Mar 2023: 237 total (+12 this month)</title></circle>
    <rect x="292.2" y="126.3" width="140" height="20" rx="4" class="tooltip-bg"/>
    <text x="362.2" y="140.3" class="tooltip-text" text-anchor="middle">Mar 2023: 237 total (+12 this month)</text>
  </g>
  <g class="hoverpoint">
    <line x1="371.3" y1="30" x2="371.3" y2="160.0" class="guide"/>
    <circle cx="371.3" cy="152.2" r="16" class="hit"/>
    <circle cx="371.3" cy="152.2" r="4" class="hover-dot"><title>Apr 2023: 240 total (+3 this month)</title></circle>
    <rect x="301.3" y="126.2" width="140" height="20" rx="4" class="tooltip-bg"/>
    <text x="371.3" y="140.2" class="tooltip-text" text-anchor="middle">Apr 2023: 240 total (+3 this month)</text>
  </g>
  <g class="hoverpoint">
    <line x1="565.2" y1="30" x2="565.2" y2="160.0" class="guide"/>
    <circle cx="565.2" cy="151.8" r="16" class="hit"/>
    <circle cx="565.2" cy="151.8" r="4" class="hover-dot"><title>Aug 2024: 252 total (+12 this month)</title></circle>
    <rect x="495.2" y="125.8" width="140" height="20" rx="4" class="tooltip-bg"/>
    <text x="565.2" y="139.8" class="tooltip-text" text-anchor="middle">Aug 2024: 252 total (+12 this month)</text>
  </g>
  <g class="hoverpoint">
    <line x1="575.8" y1="30" x2="575.8" y2="160.0" class="guide"/>
    <circle cx="575.8" cy="151.8" r="16" class="hit"/>
    <circle cx="575.8" cy="151.8" r="4" class="hover-dot"><title>Sep 2024: 253 total (+1 this month)</title></circle>
    <rect x="505.8" y="125.8" width="140" height="20" rx="4" class="tooltip-bg"/>
    <text x="575.8" y="139.8" class="tooltip-text" text-anchor="middle">Sep 2024: 253 total (+1 this month)</text>
  </g>
  <g class="hoverpoint">
    <line x1="588.3" y1="30" x2="588.3" y2="160.0" class="guide"/>
    <circle cx="588.3" cy="151.5" r="16" class="hit"/>
    <circle cx="588.3" cy="151.5" r="4" class="hover-dot"><title>Oct 2024: 261 total (+8 this month)</title></circle>
    <rect x="518.3" y="125.5" width="140" height="20" rx="4" class="tooltip-bg"/>
    <text x="588.3" y="139.5" class="tooltip-text" text-anchor="middle">Oct 2024: 261 total (+8 this month)</text>
  </g>
  <g class="hoverpoint">
    <line x1="620.8" y1="30" x2="620.8" y2="160.0" class="guide"/>
    <circle cx="620.8" cy="151.2" r="16" class="hit"/>
    <circle cx="620.8" cy="151.2" r="4" class="hover-dot"><title>Jan 2025: 270 total (+9 this month)</title></circle>
    <rect x="550.8" y="125.2" width="140" height="20" rx="4" class="tooltip-bg"/>
    <text x="620.8" y="139.2" class="tooltip-text" text-anchor="middle">Jan 2025: 270 total (+9 this month)</text>
  </g>
  <g class="hoverpoint">
    <line x1="626.1" y1="30" x2="626.1" y2="160.0" class="guide"/>
    <circle cx="626.1" cy="151.2" r="16" class="hit"/>
    <circle cx="626.1" cy="151.2" r="4" class="hover-dot"><title>Feb 2025: 272 total (+2 this month)</title></circle>
    <rect x="556.1" y="125.2" width="140" height="20" rx="4" class="tooltip-bg"/>
    <text x="626.1" y="139.2" class="tooltip-text" text-anchor="middle">Feb 2025: 272 total (+2 this month)</text>
  </g>
  <g class="hoverpoint">
    <line x1="645.4" y1="30" x2="645.4" y2="160.0" class="guide"/>
    <circle cx="645.4" cy="150.4" r="16" class="hit"/>
    <circle cx="645.4" cy="150.4" r="4" class="hover-dot"><title>Mar 2025: 294 total (+22 this month)</title></circle>
    <rect x="575.4" y="124.4" width="140" height="20" rx="4" class="tooltip-bg"/>
    <text x="645.4" y="138.4" class="tooltip-text" text-anchor="middle">Mar 2025: 294 total (+22 this month)</text>
  </g>
  <g class="hoverpoint">
    <line x1="658.3" y1="30" x2="658.3" y2="160.0" class="guide"/>
    <circle cx="658.3" cy="148.6" r="16" class="hit"/>
    <circle cx="658.3" cy="148.6" r="4" class="hover-dot"><title>Apr 2025: 351 total (+57 this month)</title></circle>
    <rect x="588.3" y="122.6" width="140" height="20" rx="4" class="tooltip-bg"/>
    <text x="658.3" y="136.6" class="tooltip-text" text-anchor="middle">Apr 2025: 351 total (+57 this month)</text>
  </g>
  <g class="hoverpoint">
    <line x1="665.5" y1="30" x2="665.5" y2="160.0" class="guide"/>
    <circle cx="665.5" cy="146.7" r="16" class="hit"/>
    <circle cx="665.5" cy="146.7" r="4" class="hover-dot"><title>May 2025: 408 total (+57 this month)</title></circle>
    <rect x="595.5" y="120.7" width="140" height="20" rx="4" class="tooltip-bg"/>
    <text x="665.5" y="134.7" class="tooltip-text" text-anchor="middle">May 2025: 408 total (+57 this month)</text>
  </g>
  <g class="hoverpoint">
    <line x1="679.9" y1="30" x2="679.9" y2="160.0" class="guide"/>
    <circle cx="679.9" cy="146.2" r="16" class="hit"/>
    <circle cx="679.9" cy="146.2" r="4" class="hover-dot"><title>Jun 2025: 424 total (+16 this month)</title></circle>
    <rect x="609.9" y="120.2" width="140" height="20" rx="4" class="tooltip-bg"/>
    <text x="679.9" y="134.2" class="tooltip-text" text-anchor="middle">Jun 2025: 424 total (+16 this month)</text>
  </g>
  <g class="hoverpoint">
    <line x1="693.1" y1="30" x2="693.1" y2="160.0" class="guide"/>
    <circle cx="693.1" cy="146.0" r="16" class="hit"/>
    <circle cx="693.1" cy="146.0" r="4" class="hover-dot"><title>Jul 2025: 432 total (+8 this month)</title></circle>
    <rect x="623.1" y="120.0" width="140" height="20" rx="4" class="tooltip-bg"/>
    <text x="693.1" y="134.0" class="tooltip-text" text-anchor="middle">Jul 2025: 432 total (+8 this month)</text>
  </g>
  <g class="hoverpoint">
    <line x1="703.7" y1="30" x2="703.7" y2="160.0" class="guide"/>
    <circle cx="703.7" cy="144.6" r="16" class="hit"/>
    <circle cx="703.7" cy="144.6" r="4" class="hover-dot"><title>Aug 2025: 475 total (+43 this month)</title></circle>
    <rect x="633.7" y="118.6" width="140" height="20" rx="4" class="tooltip-bg"/>
    <text x="703.7" y="132.6" class="tooltip-text" text-anchor="middle">Aug 2025: 475 total (+43 this month)</text>
  </g>
  <g class="hoverpoint">
    <line x1="716.2" y1="30" x2="716.2" y2="160.0" class="guide"/>
    <circle cx="716.2" cy="142.9" r="16" class="hit"/>
    <circle cx="716.2" cy="142.9" r="4" class="hover-dot"><title>Sep 2025: 526 total (+51 this month)</title></circle>
    <rect x="646.2" y="116.9" width="140" height="20" rx="4" class="tooltip-bg"/>
    <text x="716.2" y="130.9" class="tooltip-text" text-anchor="middle">Sep 2025: 526 total (+51 this month)</text>
  </g>
  <g class="hoverpoint">
    <line x1="728.0" y1="30" x2="728.0" y2="160.0" class="guide"/>
    <circle cx="728.0" cy="137.5" r="16" class="hit"/>
    <circle cx="728.0" cy="137.5" r="4" class="hover-dot"><title>Oct 2025: 692 total (+166 this month)</title></circle>
    <rect x="658.0" y="111.5" width="140" height="20" rx="4" class="tooltip-bg"/>
    <text x="728.0" y="125.5" class="tooltip-text" text-anchor="middle">Oct 2025: 692 total (+166 this month)</text>
  </g>
  <g class="hoverpoint">
    <line x1="739.3" y1="30" x2="739.3" y2="160.0" class="guide"/>
    <circle cx="739.3" cy="136.2" r="16" class="hit"/>
    <circle cx="739.3" cy="136.2" r="4" class="hover-dot"><title>Nov 2025: 731 total (+39 this month)</title></circle>
    <rect x="669.3" y="110.2" width="140" height="20" rx="4" class="tooltip-bg"/>
    <text x="739.3" y="124.2" class="tooltip-text" text-anchor="middle">Nov 2025: 731 total (+39 this month)</text>
  </g>
  <g class="hoverpoint">
    <line x1="751.1" y1="30" x2="751.1" y2="160.0" class="guide"/>
    <circle cx="751.1" cy="134.6" r="16" class="hit"/>
    <circle cx="751.1" cy="134.6" r="4" class="hover-dot"><title>Dec 2025: 783 total (+52 this month)</title></circle>
    <rect x="681.1" y="108.6" width="140" height="20" rx="4" class="tooltip-bg"/>
    <text x="751.1" y="122.6" class="tooltip-text" text-anchor="middle">Dec 2025: 783 total (+52 this month)</text>
  </g>
  <g class="hoverpoint">
    <line x1="762.8" y1="30" x2="762.8" y2="160.0" class="guide"/>
    <circle cx="762.8" cy="126.8" r="16" class="hit"/>
    <circle cx="762.8" cy="126.8" r="4" class="hover-dot"><title>Jan 2026: 1,022 total (+239 this month)</title></circle>
    <rect x="692.8" y="100.8" width="140" height="20" rx="4" class="tooltip-bg"/>
    <text x="762.8" y="114.8" class="tooltip-text" text-anchor="middle">Jan 2026: 1,022 total (+239 this month)</text>
  </g>
  <g class="hoverpoint">
    <line x1="773.4" y1="30" x2="773.4" y2="160.0" class="guide"/>
    <circle cx="773.4" cy="117.1" r="16" class="hit"/>
    <circle cx="773.4" cy="117.1" r="4" class="hover-dot"><title>Feb 2026: 1,321 total (+299 this month)</title></circle>
    <rect x="703.4" y="91.1" width="140" height="20" rx="4" class="tooltip-bg"/>
    <text x="773.4" y="105.1" class="tooltip-text" text-anchor="middle">Feb 2026: 1,321 total (+299 this month)</text>
  </g>
  <g class="hoverpoint">
    <line x1="785.2" y1="30" x2="785.2" y2="160.0" class="guide"/>
    <circle cx="785.2" cy="107.4" r="16" class="hit"/>
    <circle cx="785.2" cy="107.4" r="4" class="hover-dot"><title>Mar 2026: 1,617 total (+296 this month)</title></circle>
    <rect x="715.2" y="81.4" width="140" height="20" rx="4" class="tooltip-bg"/>
    <text x="785.2" y="95.4" class="tooltip-text" text-anchor="middle">Mar 2026: 1,617 total (+296 this month)</text>
  </g>
  <g class="hoverpoint">
    <line x1="796.1" y1="30" x2="796.1" y2="160.0" class="guide"/>
    <circle cx="796.1" cy="103.2" r="16" class="hit"/>
    <circle cx="796.1" cy="103.2" r="4" class="hover-dot"><title>Apr 2026: 1,749 total (+132 this month)</title></circle>
    <rect x="726.1" y="77.2" width="140" height="20" rx="4" class="tooltip-bg"/>
    <text x="796.1" y="91.2" class="tooltip-text" text-anchor="middle">Apr 2026: 1,749 total (+132 this month)</text>
  </g>
  <g class="hoverpoint">
    <line x1="808.3" y1="30" x2="808.3" y2="160.0" class="guide"/>
    <circle cx="808.3" cy="69.2" r="16" class="hit"/>
    <circle cx="808.3" cy="69.2" r="4" class="hover-dot"><title>May 2026: 2,795 total (+1,046 this month)</title></circle>
    <rect x="738.3" y="43.2" width="140" height="20" rx="4" class="tooltip-bg"/>
    <text x="808.3" y="57.2" class="tooltip-text" text-anchor="middle">May 2026: 2,795 total (+1,046 this month)</text>
  </g>
  <g class="hoverpoint">
    <line x1="819.6" y1="30" x2="819.6" y2="160.0" class="guide"/>
    <circle cx="819.6" cy="51.4" r="16" class="hit"/>
    <circle cx="819.6" cy="51.4" r="4" class="hover-dot"><title>Jun 2026: 3,341 total (+546 this month)</title></circle>
    <rect x="749.6" y="25.4" width="140" height="20" rx="4" class="tooltip-bg"/>
    <text x="819.6" y="39.4" class="tooltip-text" text-anchor="middle">Jun 2026: 3,341 total (+546 this month)</text>
  </g>
  <g class="hoverpoint">
    <line x1="820.0" y1="30" x2="820.0" y2="160.0" class="guide"/>
    <circle cx="820.0" cy="51.3" r="16" class="hit"/>
    <circle cx="820.0" cy="51.3" r="4" class="hover-dot"><title>Jul 2026: 3,344 total (+3 this month)</title></circle>
    <rect x="750.0" y="25.3" width="140" height="20" rx="4" class="tooltip-bg"/>
    <text x="820.0" y="39.3" class="tooltip-text" text-anchor="middle">Jul 2026: 3,344 total (+3 this month)</text>
  </g>

  <circle cx="820.0" cy="51.3" r="4" class="dot"/>
  <text x="810.0" y="41.3" class="total">3,344</text>

</svg>