<svg xmlns="http://www.w3.org/2000/svg" width="840" height="196" viewBox="0 0 840 196" fill="none">
  <style>
    .label { font-family: -apple-system, BlinkMacSystemFont, 'Segoe UI', Helvetica, Arial, sans-serif; font-size: 10px; fill: #8b949e; }
    .title { font-family: -apple-system, BlinkMacSystemFont, 'Segoe UI', Helvetica, Arial, sans-serif; font-size: 11px; fill: #8b949e; font-weight: 600; }
    .total { font-family: -apple-system, BlinkMacSystemFont, 'Segoe UI', Helvetica, Arial, sans-serif; font-size: 11px; fill: #7ee787; font-weight: 600; }
    .grid { stroke: #21262d; stroke-width: 1; }
    .line { stroke: #7ee787; stroke-width: 2; stroke-linecap: round; stroke-linejoin: round; fill: none; }
    .dot { fill: #7ee787; }
    .area { fill: url(#areaGrad); }
    /* Hover interaction */
    .hoverpoint .guide { stroke: #7ee787; stroke-width: 1; stroke-dasharray: 2,2; opacity: 0; }
    .hoverpoint .hover-dot { fill: #7ee787; opacity: 0; }
    .hoverpoint .hit { fill: transparent; cursor: pointer; }
    .hoverpoint .tooltip-bg { fill: #161b22; stroke: #30363d; stroke-width: 1; opacity: 0; }
    .hoverpoint .tooltip-text { font-family: -apple-system, BlinkMacSystemFont, 'Segoe UI', Helvetica, Arial, sans-serif; font-size: 9px; fill: #c9d1d9; opacity: 0; }
    .hoverpoint:hover .guide { opacity: 0.5; }
    .hoverpoint:hover .hover-dot { opacity: 1; }
    .hoverpoint:hover .tooltip-bg { opacity: 0.95; }
    .hoverpoint:hover .tooltip-text { opacity: 1; }
  </style>
  <defs>
    <linearGradient id="areaGrad" x1="0" y1="0" x2="0" y2="1">
      <stop offset="0%" stop-color="#7ee787" stop-opacity="0.15"/>
      <stop offset="100%" stop-color="#7ee787" stop-opacity="0.01"/>
    </linearGradient>
  </defs>

  <text x="60" y="18" class="title">Cumulative Commits</text>

  <line x1="60" y1="160.0" x2="820" y2="160.0" class="grid"/>
  <text x="50" y="163.0" class="label" text-anchor="end">0</text>
  <line x1="60" y1="127.5" x2="820" y2="127.5" class="grid" stroke-dasharray="3,3"/>
  <text x="50" y="130.5" class="label" text-anchor="end">500</text>
  <line x1="60" y1="95.0" x2="820" y2="95.0" class="grid" stroke-dasharray="3,3"/>
  <text x="50" y="98.0" class="label" text-anchor="end">1,000</text>
  <line x1="60" y1="62.5" x2="820" y2="62.5" class="grid" stroke-dasharray="3,3"/>
  <text x="50" y="65.5" class="label" text-anchor="end">1,500</text>
  <line x1="60" y1="30.0" x2="820" y2="30.0" class="grid" stroke-dasharray="3,3"/>
  <text x="50" y="33.0" class="label" text-anchor="end">2,000</text>

  <text x="70.0" y="186" class="label" text-anchor="middle">2021</text>
  <text x="205.6" y="186" class="label" text-anchor="middle">2022</text>
  <text x="351.2" y="186" class="label" text-anchor="middle">2023</text>
  <text x="496.9" y="186" class="label" text-anchor="middle">2024</text>
  <text x="642.9" y="186" class="label" text-anchor="middle">2025</text>
  <text x="788.5" y="186" class="label" text-anchor="middle">2026</text>


  <path class="area" d="M60.0,160.0 L60.0,160.0 60.0,160.0 L184.9,159.7 L185.3,159.6 L186.5,159.5 L205.6,159.4 L206.0,159.0 L206.4,158.9 L206.8,158.6 L207.2,158.6 L207.6,158.4 L208.4,158.1 L208.8,157.9 L209.2,157.8 L209.6,157.7 L211.2,157.5 L211.6,157.5 L212.0,157.4 L216.0,157.3 L226.4,157.1 L281.0,157.1 L281.4,156.5 L283.0,156.4 L283.8,155.9 L289.8,155.8 L290.6,155.6 L291.0,155.4 L291.4,155.3 L292.2,155.1 L292.6,154.7 L293.0,154.0 L293.4,153.9 L295.0,153.6 L295.8,153.6 L297.8,153.4 L303.4,153.2 L314.1,153.0 L320.1,152.9 L322.9,152.8 L323.3,152.7 L323.7,152.5 L324.1,152.3 L325.3,151.8 L325.7,151.7 L326.1,151.7 L327.7,151.4 L328.1,151.1 L328.5,151.0 L328.9,150.4 L329.3,149.9 L329.7,149.7 L330.1,149.5 L330.9,149.4 L332.5,149.3 L336.9,149.1 L348.4,149.0 L348.8,148.7 L349.2,148.6 L353.2,148.0 L353.6,146.5 L354.8,146.3 L355.2,146.3 L357.2,146.1 L370.8,145.8 L371.2,145.7 L371.6,145.6 L372.4,145.4 L375.2,145.2 L376.0,144.9 L376.4,144.7 L378.4,144.6 L387.9,144.4 L584.2,144.3 L585.0,144.2 L585.8,144.1 L586.6,144.0 L587.0,143.9 L587.4,143.8 L587.8,143.8 L588.2,143.7 L592.2,143.6 L603.4,143.6 L606.6,143.5 L607.8,143.4 L610.2,143.4 L612.5,143.3 L612.9,143.2 L614.5,143.2 L615.7,143.1 L616.5,143.0 L646.1,143.0 L646.5,142.8 L647.3,142.8 L647.7,142.7 L648.9,142.5 L650.8,142.4 L656.4,142.3 L668.0,141.7 L668.4,141.5 L673.6,141.3 L674.0,141.2 L675.2,141.1 L676.8,140.9 L678.8,140.2 L679.2,138.4 L679.6,138.3 L682.0,138.2 L683.2,138.1 L683.6,138.0 L684.4,137.8 L687.5,137.7 L690.3,137.2 L692.3,136.7 L692.7,136.5 L693.9,136.2 L694.3,135.4 L694.7,135.2 L695.1,134.9 L695.5,134.7 L695.9,134.4 L696.7,133.9 L697.9,133.5 L712.3,133.3 L713.1,132.4 L721.9,132.2 L727.0,131.9 L729.4,131.9 L729.8,131.8 L732.2,131.7 L732.6,131.7 L733.0,131.6 L733.4,131.4 L733.8,131.1 L734.2,130.5 L734.6,130.4 L737.0,129.4 L737.4,129.3 L738.2,129.1 L741.0,128.8 L741.8,128.7 L742.2,128.5 L743.0,128.5 L743.4,128.0 L743.8,127.9 L744.6,127.8 L745.0,127.6 L745.4,127.6 L745.8,127.5 L747.4,127.1 L747.8,127.0 L748.2,126.8 L748.6,126.7 L749.0,126.6 L749.4,126.4 L750.6,126.1 L751.0,125.9 L751.4,125.8 L751.8,125.6 L752.2,125.2 L753.0,125.1 L753.4,124.4 L753.8,124.1 L754.2,122.8 L754.6,122.5 L755.0,122.2 L755.4,121.5 L755.8,121.4 L756.2,121.2 L756.6,121.1 L757.0,120.7 L759.0,120.0 L759.4,119.8 L759.8,119.2 L760.2,118.1 L760.6,118.0 L761.4,117.9 L761.8,116.9 L762.2,116.4 L762.6,116.3 L763.0,115.3 L763.7,115.0 L764.1,114.9 L764.5,114.8 L764.9,114.7 L765.3,114.6 L765.7,114.6 L767.3,114.4 L768.1,114.3 L768.5,113.8 L768.9,113.5 L770.1,113.5 L772.1,113.3 L774.5,113.1 L774.9,112.9 L775.3,112.9 L775.7,112.5 L776.1,111.6 L776.5,111.5 L776.9,111.4 L777.3,111.3 L777.7,111.1 L778.1,110.6 L782.5,110.5 L782.9,110.4 L786.5,109.9 L787.3,109.5 L787.7,109.4 L788.1,109.1 L788.5,109.0 L789.7,108.8 L790.1,107.9 L790.5,105.5 L790.9,103.5 L791.3,103.4 L791.7,103.1 L792.5,102.8 L792.9,102.5 L793.3,102.1 L794.1,102.0 L794.5,101.4 L794.9,101.3 L795.7,100.4 L796.1,100.3 L796.5,99.8 L796.9,99.5 L797.3,99.1 L797.7,99.0 L798.9,98.4 L799.3,98.1 L799.7,96.6 L800.1,94.4 L800.5,93.6 L800.9,92.6 L801.2,92.5 L801.6,92.1 L802.0,91.9 L802.4,91.4 L802.8,90.6 L803.2,90.6 L803.6,90.1 L804.0,90.0 L804.4,89.5 L804.8,89.0 L805.2,88.4 L805.6,87.8 L806.0,87.7 L806.4,87.5 L806.8,86.4 L807.2,84.4 L807.6,84.1 L808.4,83.7 L808.8,83.5 L809.2,83.4 L809.6,80.2 L810.0,78.8 L810.4,77.3 L810.8,76.8 L811.2,74.4 L811.6,74.1 L812.0,74.0 L812.4,73.5 L812.8,72.4 L813.2,70.4 L813.6,68.2 L814.0,68.1 L814.4,67.6 L815.2,67.5 L815.6,66.2 L816.0,65.2 L816.4,63.8 L816.8,63.6 L817.2,63.5 L817.6,61.4 L818.0,58.9 L818.4,57.8 L818.8,57.3 L819.2,56.6 L819.6,56.1 L820.0,56.0 L820.0,160.0 Z"/>
  <polyline class="line" points="60.0,160.0 184.9,159.7 185.3,159.6 186.5,159.5 205.6,159.4 206.0,159.0 206.4,158.9 206.8,158.6 207.2,158.6 207.6,158.4 208.4,158.1 208.8,157.9 209.2,157.8 209.6,157.7 211.2,157.5 211.6,157.5 212.0,157.4 216.0,157.3 226.4,157.1 281.0,157.1 281.4,156.5 283.0,156.4 283.8,155.9 289.8,155.8 290.6,155.6 291.0,155.4 291.4,155.3 292.2,155.1 292.6,154.7 293.0,154.0 293.4,153.9 295.0,153.6 295.8,153.6 297.8,153.4 303.4,153.2 314.1,153.0 320.1,152.9 322.9,152.8 323.3,152.7 323.7,152.5 324.1,152.3 325.3,151.8 325.7,151.7 326.1,151.7 327.7,151.4 328.1,151.1 328.5,151.0 328.9,150.4 329.3,149.9 329.7,149.7 330.1,149.5 330.9,149.4 332.5,149.3 336.9,149.1 348.4,149.0 348.8,148.7 349.2,148.6 353.2,148.0 353.6,146.5 354.8,146.3 355.2,146.3 357.2,146.1 370.8,145.8 371.2,145.7 371.6,145.6 372.4,145.4 375.2,145.2 376.0,144.9 376.4,144.7 378.4,144.6 387.9,144.4 584.2,144.3 585.0,144.2 585.8,144.1 586.6,144.0 587.0,143.9 587.4,143.8 587.8,143.8 588.2,143.7 592.2,143.6 603.4,143.6 606.6,143.5 607.8,143.4 610.2,143.4 612.5,143.3 612.9,143.2 614.5,143.2 615.7,143.1 616.5,143.0 646.1,143.0 646.5,142.8 647.3,142.8 647.7,142.7 648.9,142.5 650.8,142.4 656.4,142.3 668.0,141.7 668.4,141.5 673.6,141.3 674.0,141.2 675.2,141.1 676.8,140.9 678.8,140.2 679.2,138.4 679.6,138.3 682.0,138.2 683.2,138.1 683.6,138.0 684.4,137.8 687.5,137.7 690.3,137.2 692.3,136.7 692.7,136.5 693.9,136.2 694.3,135.4 694.7,135.2 695.1,134.9 695.5,134.7 695.9,134.4 696.7,133.9 697.9,133.5 712.3,133.3 713.1,132.4 721.9,132.2 727.0,131.9 729.4,131.9 729.8,131.8 732.2,131.7 732.6,131.7 733.0,131.6 733.4,131.4 733.8,131.1 734.2,130.5 734.6,130.4 737.0,129.4 737.4,129.3 738.2,129.1 741.0,128.8 741.8,128.7 742.2,128.5 743.0,128.5 743.4,128.0 743.8,127.9 744.6,127.8 745.0,127.6 745.4,127.6 745.8,127.5 747.4,127.1 747.8,127.0 748.2,126.8 748.6,126.7 749.0,126.6 749.4,126.4 750.6,126.1 751.0,125.9 751.4,125.8 751.8,125.6 752.2,125.2 753.0,125.1 753.4,124.4 753.8,124.1 754.2,122.8 754.6,122.5 755.0,122.2 755.4,121.5 755.8,121.4 756.2,121.2 756.6,121.1 757.0,120.7 759.0,120.0 759.4,119.8 759.8,119.2 760.2,118.1 760.6,118.0 761.4,117.9 761.8,116.9 762.2,116.4 762.6,116.3 763.0,115.3 763.7,115.0 764.1,114.9 764.5,114.8 764.9,114.7 765.3,114.6 765.7,114.6 767.3,114.4 768.1,114.3 768.5,113.8 768.9,113.5 770.1,113.5 772.1,113.3 774.5,113.1 774.9,112.9 775.3,112.9 775.7,112.5 776.1,111.6 776.5,111.5 776.9,111.4 777.3,111.3 777.7,111.1 778.1,110.6 782.5,110.5 782.9,110.4 786.5,109.9 787.3,109.5 787.7,109.4 788.1,109.1 788.5,109.0 789.7,108.8 790.1,107.9 790.5,105.5 790.9,103.5 791.3,103.4 791.7,103.1 792.5,102.8 792.9,102.5 793.3,102.1 794.1,102.0 794.5,101.4 794.9,101.3 795.7,100.4 796.1,100.3 796.5,99.8 796.9,99.5 797.3,99.1 797.7,99.0 798.9,98.4 799.3,98.1 799.7,96.6 800.1,94.4 800.5,93.6 800.9,92.6 801.2,92.5 801.6,92.1 802.0,91.9 802.4,91.4 802.8,90.6 803.2,90.6 803.6,90.1 804.0,90.0 804.4,89.5 804.8,89.0 805.2,88.4 805.6,87.8 806.0,87.7 806.4,87.5 806.8,86.4 807.2,84.4 807.6,84.1 808.4,83.7 808.8,83.5 809.2,83.4 809.6,80.2 810.0,78.8 810.4,77.3 810.8,76.8 811.2,74.4 811.6,74.1 812.0,74.0 812.4,73.5 812.8,72.4 813.2,70.4 813.6,68.2 814.0,68.1 814.4,67.6 815.2,67.5 815.6,66.2 816.0,65.2 816.4,63.8 816.8,63.6 817.2,63.5 817.6,61.4 818.0,58.9 818.4,57.8 818.8,57.3 819.2,56.6 819.6,56.1 820.0,56.0"/>

  <g class="hoverpoint">
    <line x1="186.5" y1="30" x2="186.5" y2="160.0" class="guide"/>
    <circle cx="186.5" cy="159.5" r="16" class="hit"/>
    <circle cx="186.5" cy="159.5" r="4" class="hover-dot"><title>Nov 2021: 7 total (+7 this month)</title></circle>
    <rect x="116.5" y="133.5" width="140" height="20" rx="4" class="tooltip-bg"/>
    <text x="186.5" y="147.5" class="tooltip-text" text-anchor="middle">Nov 2021: 7 total (+7 this month)</text>
  </g>
  <g class="hoverpoint">
    <line x1="216.0" y1="30" x2="216.0" y2="160.0" class="guide"/>
    <circle cx="216.0" cy="157.3" r="16" class="hit"/>
    <circle cx="216.0" cy="157.3" r="4" class="hover-dot"><title>Jan 2022: 41 total (+34 this month)</title></circle>
    <rect x="146.0" y="131.3" width="140" height="20" rx="4" class="tooltip-bg"/>
    <text x="216.0" y="145.3" class="tooltip-text" text-anchor="middle">Jan 2022: 41 total (+34 this month)</text>
  </g>
  <g class="hoverpoint">
    <line x1="226.4" y1="30" x2="226.4" y2="160.0" class="guide"/>
    <circle cx="226.4" cy="157.1" r="16" class="hit"/>
    <circle cx="226.4" cy="157.1" r="4" class="hover-dot"><title>Feb 2022: 44 total (+3 this month)</title></circle>
    <rect x="156.4" y="131.1" width="140" height="20" rx="4" class="tooltip-bg"/>
    <text x="226.4" y="145.1" class="tooltip-text" text-anchor="middle">Feb 2022: 44 total (+3 this month)</text>
  </g>
  <g class="hoverpoint">
    <line x1="289.8" y1="30" x2="289.8" y2="160.0" class="guide"/>
    <circle cx="289.8" cy="155.8" r="16" class="hit"/>
    <circle cx="289.8" cy="155.8" r="4" class="hover-dot"><title>Jul 2022: 65 total (+21 this month)</title></circle>
    <rect x="219.8" y="129.8" width="140" height="20" rx="4" class="tooltip-bg"/>
    <text x="289.8" y="143.8" class="tooltip-text" text-anchor="middle">Jul 2022: 65 total (+21 this month)</text>
  </g>
  <g class="hoverpoint">
    <line x1="297.8" y1="30" x2="297.8" y2="160.0" class="guide"/>
    <circle cx="297.8" cy="153.4" r="16" class="hit"/>
    <circle cx="297.8" cy="153.4" r="4" class="hover-dot"><title>Aug 2022: 101 total (+36 this month)</title></circle>
    <rect x="227.8" y="127.4" width="140" height="20" rx="4" class="tooltip-bg"/>
    <text x="297.8" y="141.4" class="tooltip-text" text-anchor="middle">Aug 2022: 101 total (+36 this month)</text>
  </g>
  <g class="hoverpoint">
    <line x1="314.1" y1="30" x2="314.1" y2="160.0" class="guide"/>
    <circle cx="314.1" cy="153.0" r="16" class="hit"/>
    <circle cx="314.1" cy="153.0" r="4" class="hover-dot"><title>Sep 2022: 108 total (+7 this month)</title></circle>
    <rect x="244.1" y="127.0" width="140" height="20" rx="4" class="tooltip-bg"/>
    <text x="314.1" y="141.0" class="tooltip-text" text-anchor="middle">Sep 2022: 108 total (+7 this month)</text>
  </g>
  <g class="hoverpoint">
    <line x1="326.1" y1="30" x2="326.1" y2="160.0" class="guide"/>
    <circle cx="326.1" cy="151.7" r="16" class="hit"/>
    <circle cx="326.1" cy="151.7" r="4" class="hover-dot"><title>Oct 2022: 128 total (+20 this month)</title></circle>
    <rect x="256.1" y="125.7" width="140" height="20" rx="4" class="tooltip-bg"/>
    <text x="326.1" y="139.7" class="tooltip-text" text-anchor="middle">Oct 2022: 128 total (+20 this month)</text>
  </g>
  <g class="hoverpoint">
    <line x1="336.9" y1="30" x2="336.9" y2="160.0" class="guide"/>
    <circle cx="336.9" cy="149.1" r="16" class="hit"/>
    <circle cx="336.9" cy="149.1" r="4" class="hover-dot"><title>Nov 2022: 168 total (+40 this month)</title></circle>
    <rect x="266.9" y="123.1" width="140" height="20" rx="4" class="tooltip-bg"/>
    <text x="336.9" y="137.1" class="tooltip-text" text-anchor="middle">Nov 2022: 168 total (+40 this month)</text>
  </g>
  <g class="hoverpoint">
    <line x1="349.2" y1="30" x2="349.2" y2="160.0" class="guide"/>
    <circle cx="349.2" cy="148.6" r="16" class="hit"/>
    <circle cx="349.2" cy="148.6" r="4" class="hover-dot"><title>Dec 2022: 175 total (+7 this month)</title></circle>
    <rect x="279.2" y="122.6" width="140" height="20" rx="4" class="tooltip-bg"/>
    <text x="349.2" y="136.6" class="tooltip-text" text-anchor="middle">Dec 2022: 175 total (+7 this month)</text>
  </g>
  <g class="hoverpoint">
    <line x1="357.2" y1="30" x2="357.2" y2="160.0" class="guide"/>
    <circle cx="357.2" cy="146.1" r="16" class="hit"/>
    <circle cx="357.2" cy="146.1" r="4" class="hover-dot"><title>Jan 2023: 214 total (+39 this month)</title></circle>
    <rect x="287.2" y="120.1" width="140" height="20" rx="4" class="tooltip-bg"/>
    <text x="357.2" y="134.1" class="tooltip-text" text-anchor="middle">Jan 2023: 214 total (+39 this month)</text>
  </g>
  <g class="hoverpoint">
    <line x1="372.4" y1="30" x2="372.4" y2="160.0" class="guide"/>
    <circle cx="372.4" cy="145.4" r="16" class="hit"/>
    <circle cx="372.4" cy="145.4" r="4" class="hover-dot"><title>Feb 2023: 225 total (+11 this month)</title></circle>
    <rect x="302.4" y="119.4" width="140" height="20" rx="4" class="tooltip-bg"/>
    <text x="372.4" y="133.4" class="tooltip-text" text-anchor="middle">Feb 2023: 225 total (+11 this month)</text>
  </g>
  <g class="hoverpoint">
    <line x1="378.4" y1="30" x2="378.4" y2="160.0" class="guide"/>
    <circle cx="378.4" cy="144.6" r="16" class="hit"/>
    <circle cx="378.4" cy="144.6" r="4" class="hover-dot"><title>Mar 2023: 237 total (+12 this month)</title></circle>
    <rect x="308.4" y="118.6" width="140" height="20" rx="4" class="tooltip-bg"/>
    <text x="378.4" y="132.6" class="tooltip-text" text-anchor="middle">Mar 2023: 237 total (+12 this month)</text>
  </g>
  <g class="hoverpoint">
    <line x1="387.9" y1="30" x2="387.9" y2="160.0" class="guide"/>
    <circle cx="387.9" cy="144.4" r="16" class="hit"/>
    <circle cx="387.9" cy="144.4" r="4" class="hover-dot"><title>Apr 2023: 240 total (+3 this month)</title></circle>
    <rect x="317.9" y="118.4" width="140" height="20" rx="4" class="tooltip-bg"/>
    <text x="387.9" y="132.4" class="tooltip-text" text-anchor="middle">Apr 2023: 240 total (+3 this month)</text>
  </g>
  <g class="hoverpoint">
    <line x1="592.2" y1="30" x2="592.2" y2="160.0" class="guide"/>
    <circle cx="592.2" cy="143.6" r="16" class="hit"/>
    <circle cx="592.2" cy="143.6" r="4" class="hover-dot"><title>Aug 2024: 252 total (+12 this month)</title></circle>
    <rect x="522.2" y="117.6" width="140" height="20" rx="4" class="tooltip-bg"/>
    <text x="592.2" y="131.6" class="tooltip-text" text-anchor="middle">Aug 2024: 252 total (+12 this month)</text>
  </g>
  <g class="hoverpoint">
    <line x1="603.4" y1="30" x2="603.4" y2="160.0" class="guide"/>
    <circle cx="603.4" cy="143.6" r="16" class="hit"/>
    <circle cx="603.4" cy="143.6" r="4" class="hover-dot"><title>Sep 2024: 253 total (+1 this month)</title></circle>
    <rect x="533.4" y="117.6" width="140" height="20" rx="4" class="tooltip-bg"/>
    <text x="603.4" y="131.6" class="tooltip-text" text-anchor="middle">Sep 2024: 253 total (+1 this month)</text>
  </g>
  <g class="hoverpoint">
    <line x1="616.5" y1="30" x2="616.5" y2="160.0" class="guide"/>
    <circle cx="616.5" cy="143.0" r="16" class="hit"/>
    <circle cx="616.5" cy="143.0" r="4" class="hover-dot"><title>Oct 2024: 261 total (+8 this month)</title></circle>
    <rect x="546.5" y="117.0" width="140" height="20" rx="4" class="tooltip-bg"/>
    <text x="616.5" y="131.0" class="tooltip-text" text-anchor="middle">Oct 2024: 261 total (+8 this month)</text>
  </g>
  <g class="hoverpoint">
    <line x1="650.8" y1="30" x2="650.8" y2="160.0" class="guide"/>
    <circle cx="650.8" cy="142.4" r="16" class="hit"/>
    <circle cx="650.8" cy="142.4" r="4" class="hover-dot"><title>Jan 2025: 270 total (+9 this month)</title></circle>
    <rect x="580.8" y="116.4" width="140" height="20" rx="4" class="tooltip-bg"/>
    <text x="650.8" y="130.4" class="tooltip-text" text-anchor="middle">Jan 2025: 270 total (+9 this month)</text>
  </g>
  <g class="hoverpoint">
    <line x1="656.4" y1="30" x2="656.4" y2="160.0" class="guide"/>
    <circle cx="656.4" cy="142.3" r="16" class="hit"/>
    <circle cx="656.4" cy="142.3" r="4" class="hover-dot"><title>Feb 2025: 272 total (+2 this month)</title></circle>
    <rect x="586.4" y="116.3" width="140" height="20" rx="4" class="tooltip-bg"/>
    <text x="656.4" y="130.3" class="tooltip-text" text-anchor="middle">Feb 2025: 272 total (+2 this month)</text>
  </g>
  <g class="hoverpoint">
    <line x1="676.8" y1="30" x2="676.8" y2="160.0" class="guide"/>
    <circle cx="676.8" cy="140.9" r="16" class="hit"/>
    <circle cx="676.8" cy="140.9" r="4" class="hover-dot"><title>Mar 2025: 294 total (+22 this month)</title></circle>
    <rect x="606.8" y="114.9" width="140" height="20" rx="4" class="tooltip-bg"/>
    <text x="676.8" y="128.9" class="tooltip-text" text-anchor="middle">Mar 2025: 294 total (+22 this month)</text>
  </g>
  <g class="hoverpoint">
    <line x1="690.3" y1="30" x2="690.3" y2="160.0" class="guide"/>
    <circle cx="690.3" cy="137.2" r="16" class="hit"/>
    <circle cx="690.3" cy="137.2" r="4" class="hover-dot"><title>Apr 2025: 351 total (+57 this month)</title></circle>
    <rect x="620.3" y="111.2" width="140" height="20" rx="4" class="tooltip-bg"/>
    <text x="690.3" y="125.2" class="tooltip-text" text-anchor="middle">Apr 2025: 351 total (+57 this month)</text>
  </g>
  <g class="hoverpoint">
    <line x1="697.9" y1="30" x2="697.9" y2="160.0" class="guide"/>
    <circle cx="697.9" cy="133.5" r="16" class="hit"/>
    <circle cx="697.9" cy="133.5" r="4" class="hover-dot"><title>May 2025: 408 total (+57 this month)</title></circle>
    <rect x="627.9" y="107.5" width="140" height="20" rx="4" class="tooltip-bg"/>
    <text x="697.9" y="121.5" class="tooltip-text" text-anchor="middle">May 2025: 408 total (+57 this month)</text>
  </g>
  <g class="hoverpoint">
    <line x1="713.1" y1="30" x2="713.1" y2="160.0" class="guide"/>
    <circle cx="713.1" cy="132.4" r="16" class="hit"/>
    <circle cx="713.1" cy="132.4" r="4" class="hover-dot"><title>Jun 2025: 424 total (+16 this month)</title></circle>
    <rect x="643.1" y="106.4" width="140" height="20" rx="4" class="tooltip-bg"/>
    <text x="713.1" y="120.4" class="tooltip-text" text-anchor="middle">Jun 2025: 424 total (+16 this month)</text>
  </g>
  <g class="hoverpoint">
    <line x1="727.0" y1="30" x2="727.0" y2="160.0" class="guide"/>
    <circle cx="727.0" cy="131.9" r="16" class="hit"/>
    <circle cx="727.0" cy="131.9" r="4" class="hover-dot"><title>Jul 2025: 432 total (+8 this month)</title></circle>
    <rect x="657.0" y="105.9" width="140" height="20" rx="4" class="tooltip-bg"/>
    <text x="727.0" y="119.9" class="tooltip-text" text-anchor="middle">Jul 2025: 432 total (+8 this month)</text>
  </g>
  <g class="hoverpoint">
    <line x1="738.2" y1="30" x2="738.2" y2="160.0" class="guide"/>
    <circle cx="738.2" cy="129.1" r="16" class="hit"/>
    <circle cx="738.2" cy="129.1" r="4" class="hover-dot"><title>Aug 2025: 475 total (+43 this month)</title></circle>
    <rect x="668.2" y="103.1" width="140" height="20" rx="4" class="tooltip-bg"/>
    <text x="738.2" y="117.1" class="tooltip-text" text-anchor="middle">Aug 2025: 475 total (+43 this month)</text>
  </g>
  <g class="hoverpoint">
    <line x1="751.4" y1="30" x2="751.4" y2="160.0" class="guide"/>
    <circle cx="751.4" cy="125.8" r="16" class="hit"/>
    <circle cx="751.4" cy="125.8" r="4" class="hover-dot"><title>Sep 2025: 526 total (+51 this month)</title></circle>
    <rect x="681.4" y="99.8" width="140" height="20" rx="4" class="tooltip-bg"/>
    <text x="751.4" y="113.8" class="tooltip-text" text-anchor="middle">Sep 2025: 526 total (+51 this month)</text>
  </g>
  <g class="hoverpoint">
    <line x1="763.7" y1="30" x2="763.7" y2="160.0" class="guide"/>
    <circle cx="763.7" cy="115.0" r="16" class="hit"/>
    <circle cx="763.7" cy="115.0" r="4" class="hover-dot"><title>Oct 2025: 692 total (+166 this month)</title></circle>
    <rect x="693.7" y="89.0" width="140" height="20" rx="4" class="tooltip-bg"/>
    <text x="763.7" y="103.0" class="tooltip-text" text-anchor="middle">Oct 2025: 692 total (+166 this month)</text>
  </g>
  <g class="hoverpoint">
    <line x1="775.7" y1="30" x2="775.7" y2="160.0" class="guide"/>
    <circle cx="775.7" cy="112.5" r="16" class="hit"/>
    <circle cx="775.7" cy="112.5" r="4" class="hover-dot"><title>Nov 2025: 731 total (+39 this month)</title></circle>
    <rect x="705.7" y="86.5" width="140" height="20" rx="4" class="tooltip-bg"/>
    <text x="775.7" y="100.5" class="tooltip-text" text-anchor="middle">Nov 2025: 731 total (+39 this month)</text>
  </g>
  <g class="hoverpoint">
    <line x1="788.1" y1="30" x2="788.1" y2="160.0" class="guide"/>
    <circle cx="788.1" cy="109.1" r="16" class="hit"/>
    <circle cx="788.1" cy="109.1" r="4" class="hover-dot"><title>Dec 2025: 783 total (+52 this month)</title></circle>
    <rect x="718.1" y="83.1" width="140" height="20" rx="4" class="tooltip-bg"/>
    <text x="788.1" y="97.1" class="tooltip-text" text-anchor="middle">Dec 2025: 783 total (+52 this month)</text>
  </g>
  <g class="hoverpoint">
    <line x1="800.5" y1="30" x2="800.5" y2="160.0" class="guide"/>
    <circle cx="800.5" cy="93.6" r="16" class="hit"/>
    <circle cx="800.5" cy="93.6" r="4" class="hover-dot"><title>Jan 2026: 1,022 total (+239 this month)</title></circle>
    <rect x="730.5" y="67.6" width="140" height="20" rx="4" class="tooltip-bg"/>
    <text x="800.5" y="81.6" class="tooltip-text" text-anchor="middle">Jan 2026: 1,022 total (+239 this month)</text>
  </g>
  <g class="hoverpoint">
    <line x1="811.6" y1="30" x2="811.6" y2="160.0" class="guide"/>
    <circle cx="811.6" cy="74.1" r="16" class="hit"/>
    <circle cx="811.6" cy="74.1" r="4" class="hover-dot"><title>Feb 2026: 1,321 total (+299 this month)</title></circle>
    <rect x="741.6" y="48.1" width="140" height="20" rx="4" class="tooltip-bg"/>
    <text x="811.6" y="62.1" class="tooltip-text" text-anchor="middle">Feb 2026: 1,321 total (+299 this month)</text>
  </g>
  <g class="hoverpoint">
    <line x1="820.0" y1="30" x2="820.0" y2="160.0" class="guide"/>
    <circle cx="820.0" cy="56.0" r="16" class="hit"/>
    <circle cx="820.0" cy="56.0" r="4" class="hover-dot"><title>Mar 2026: 1,600 total (+279 this month)</title></circle>
    <rect x="750.0" y="30.0" width="140" height="20" rx="4" class="tooltip-bg"/>
    <text x="820.0" y="44.0" class="tooltip-text" text-anchor="middle">Mar 2026: 1,600 total (+279 this month)</text>
  </g>

  <circle cx="820.0" cy="56.0" r="4" class="dot"/>
  <text x="810.0" y="46.0" class="total">1,600</text>

</svg>