<svg xmlns="http://www.w3.org/2000/svg" width="840" height="196" viewBox="0 0 840 196" fill="none">
  <style>
    .label { font-family: -apple-system, BlinkMacSystemFont, 'Segoe UI', Helvetica, Arial, sans-serif; font-size: 10px; fill: #8b949e; }
    .title { font-family: -apple-system, BlinkMacSystemFont, 'Segoe UI', Helvetica, Arial, sans-serif; font-size: 11px; fill: #8b949e; font-weight: 600; }
    .total { font-family: -apple-system, BlinkMacSystemFont, 'Segoe UI', Helvetica, Arial, sans-serif; font-size: 11px; fill: #7ee787; font-weight: 600; }
    .grid { stroke: #21262d; stroke-width: 1; }
    .line { stroke: #7ee787; stroke-width: 2; stroke-linecap: round; stroke-linejoin: round; fill: none; }
    .dot { fill: #7ee787; }
    .area { fill: url(#areaGrad); }
    /* Hover interaction */
    .hoverpoint .guide { stroke: #7ee787; stroke-width: 1; stroke-dasharray: 2,2; opacity: 0; }
    .hoverpoint .hover-dot { fill: #7ee787; opacity: 0; }
    .hoverpoint .hit { fill: transparent; cursor: pointer; }
    .hoverpoint .tooltip-bg { fill: #161b22; stroke: #30363d; stroke-width: 1; opacity: 0; }
    .hoverpoint .tooltip-text { font-family: -apple-system, BlinkMacSystemFont, 'Segoe UI', Helvetica, Arial, sans-serif; font-size: 9px; fill: #c9d1d9; opacity: 0; }
    .hoverpoint:hover .guide { opacity: 0.5; }
    .hoverpoint:hover .hover-dot { opacity: 1; }
    .hoverpoint:hover .tooltip-bg { opacity: 0.95; }
    .hoverpoint:hover .tooltip-text { opacity: 1; }
  </style>
  <defs>
    <linearGradient id="areaGrad" x1="0" y1="0" x2="0" y2="1">
      <stop offset="0%" stop-color="#7ee787" stop-opacity="0.15"/>
      <stop offset="100%" stop-color="#7ee787" stop-opacity="0.01"/>
    </linearGradient>
  </defs>

  <text x="60" y="18" class="title">Cumulative Commits</text>

  <line x1="60" y1="160.0" x2="820" y2="160.0" class="grid"/>
  <text x="50" y="163.0" class="label" text-anchor="end">0</text>
  <line x1="60" y1="127.5" x2="820" y2="127.5" class="grid" stroke-dasharray="3,3"/>
  <text x="50" y="130.5" class="label" text-anchor="end">750</text>
  <line x1="60" y1="95.0" x2="820" y2="95.0" class="grid" stroke-dasharray="3,3"/>
  <text x="50" y="98.0" class="label" text-anchor="end">1,500</text>
  <line x1="60" y1="62.5" x2="820" y2="62.5" class="grid" stroke-dasharray="3,3"/>
  <text x="50" y="65.5" class="label" text-anchor="end">2,250</text>
  <line x1="60" y1="30.0" x2="820" y2="30.0" class="grid" stroke-dasharray="3,3"/>
  <text x="50" y="33.0" class="label" text-anchor="end">3,000</text>

  <text x="70.0" y="186" class="label" text-anchor="middle">2021</text>
  <text x="200.0" y="186" class="label" text-anchor="middle">2022</text>
  <text x="340.1" y="186" class="label" text-anchor="middle">2023</text>
  <text x="480.1" y="186" class="label" text-anchor="middle">2024</text>
  <text x="620.5" y="186" class="label" text-anchor="middle">2025</text>
  <text x="760.5" y="186" class="label" text-anchor="middle">2026</text>


  <path class="area" d="M60.0,160.0 L60.0,160.0 60.0,160.0 L180.1,159.8 L180.5,159.7 L181.6,159.7 L200.0,159.6 L200.4,159.3 L200.8,159.3 L201.2,159.1 L201.6,159.0 L201.9,159.0 L202.7,158.7 L203.1,158.6 L203.5,158.5 L203.9,158.5 L205.4,158.4 L205.8,158.3 L206.2,158.3 L210.0,158.2 L220.0,158.1 L272.5,158.1 L272.9,157.7 L274.5,157.6 L275.2,157.3 L281.0,157.2 L281.7,157.1 L282.1,156.9 L282.5,156.9 L283.3,156.8 L283.7,156.4 L284.0,156.0 L284.4,155.9 L286.0,155.8 L286.7,155.7 L288.7,155.6 L294.0,155.4 L304.4,155.3 L310.1,155.3 L312.8,155.2 L313.2,155.1 L313.6,155.0 L314.0,154.8 L315.1,154.5 L315.5,154.5 L315.9,154.5 L317.4,154.3 L317.8,154.1 L318.2,154.0 L318.6,153.6 L319.0,153.2 L319.3,153.1 L319.7,153.0 L320.5,152.9 L322.0,152.8 L326.2,152.7 L337.4,152.7 L337.8,152.5 L338.1,152.4 L342.0,152.0 L342.4,151.0 L343.5,150.9 L343.9,150.9 L345.8,150.7 L358.9,150.6 L359.2,150.5 L359.6,150.4 L360.4,150.2 L363.1,150.1 L363.8,149.9 L364.2,149.8 L366.1,149.7 L375.4,149.6 L564.1,149.5 L564.9,149.5 L565.6,149.4 L566.4,149.3 L566.8,149.3 L567.2,149.2 L567.6,149.2 L567.9,149.1 L571.8,149.1 L582.5,149.0 L585.6,149.0 L586.7,148.9 L589.0,148.9 L591.3,148.9 L591.7,148.8 L593.3,148.8 L594.4,148.7 L595.2,148.7 L623.6,148.6 L624.0,148.6 L624.7,148.5 L625.1,148.5 L626.3,148.3 L628.2,148.3 L633.5,148.2 L644.7,147.8 L645.1,147.7 L650.0,147.6 L650.4,147.5 L651.6,147.4 L653.1,147.3 L655.0,146.8 L655.4,145.6 L655.8,145.5 L658.1,145.4 L659.3,145.4 L659.6,145.4 L660.4,145.2 L663.5,145.1 L666.2,144.8 L668.1,144.5 L668.5,144.4 L669.6,144.1 L670.0,143.6 L670.4,143.5 L670.8,143.3 L671.1,143.1 L671.5,142.9 L672.3,142.6 L673.4,142.3 L687.3,142.2 L688.0,141.6 L696.5,141.5 L701.5,141.3 L703.8,141.2 L704.1,141.2 L706.4,141.2 L706.8,141.1 L707.2,141.1 L707.6,140.9 L708.0,140.8 L708.4,140.3 L708.7,140.2 L711.0,139.6 L711.4,139.5 L712.2,139.4 L714.9,139.2 L715.6,139.2 L716.0,139.0 L716.8,139.0 L717.2,138.7 L717.6,138.6 L718.3,138.5 L718.7,138.4 L719.1,138.4 L719.5,138.3 L721.0,138.1 L721.4,138.0 L721.8,137.9 L722.2,137.8 L722.6,137.7 L722.9,137.6 L724.1,137.4 L724.5,137.3 L724.9,137.2 L725.2,137.1 L725.6,136.8 L726.4,136.7 L726.8,136.3 L727.2,136.0 L727.5,135.2 L727.9,135.0 L728.3,134.8 L728.7,134.3 L729.1,134.3 L729.5,134.1 L729.8,134.1 L730.2,133.8 L732.1,133.3 L732.5,133.2 L732.9,132.8 L733.3,132.1 L733.7,132.0 L734.4,131.9 L734.8,131.3 L735.2,130.9 L735.6,130.9 L736.0,130.2 L736.7,130.0 L737.1,129.9 L737.5,129.8 L737.9,129.8 L738.3,129.8 L738.7,129.7 L740.2,129.6 L741.0,129.5 L741.4,129.2 L741.7,129.0 L742.9,129.0 L744.8,128.9 L747.1,128.7 L747.5,128.6 L747.9,128.6 L748.3,128.3 L748.6,127.7 L749.0,127.7 L749.4,127.6 L749.8,127.5 L750.2,127.4 L750.6,127.1 L754.8,127.0 L755.2,126.9 L758.6,126.6 L759.4,126.3 L759.8,126.2 L760.2,126.1 L760.5,126.0 L761.7,125.9 L762.1,125.2 L762.5,123.7 L762.8,122.3 L763.2,122.3 L763.6,122.1 L764.4,121.9 L764.8,121.7 L765.1,121.4 L765.9,121.3 L766.3,120.9 L766.7,120.9 L767.4,120.3 L767.8,120.2 L768.2,119.9 L768.6,119.7 L769.0,119.4 L769.4,119.4 L770.5,119.0 L770.9,118.7 L771.3,117.7 L771.7,116.3 L772.0,115.7 L772.4,115.1 L772.8,115.0 L773.2,114.8 L773.6,114.6 L774.0,114.2 L774.3,113.8 L774.7,113.7 L775.1,113.4 L775.5,113.3 L775.9,113.0 L776.3,112.6 L776.6,112.3 L777.0,111.9 L777.4,111.8 L777.8,111.6 L778.2,110.9 L778.6,109.6 L779.0,109.4 L779.7,109.1 L780.1,109.0 L780.5,108.9 L780.9,106.8 L781.3,105.8 L781.6,104.9 L782.0,104.5 L782.4,102.9 L782.8,102.8 L783.2,102.7 L783.6,102.3 L783.9,101.6 L784.3,100.2 L784.7,98.8 L785.1,98.7 L785.5,98.4 L786.2,98.3 L786.6,97.5 L787.0,96.8 L787.4,95.9 L787.8,95.7 L788.2,95.7 L788.5,94.3 L788.9,92.6 L789.3,91.9 L789.7,91.5 L790.1,91.1 L790.5,90.7 L790.8,90.7 L791.6,90.5 L792.0,90.2 L792.4,90.1 L792.8,90.1 L793.1,90.0 L794.3,90.0 L794.7,89.9 L795.4,89.8 L796.2,89.8 L796.6,89.7 L797.4,89.1 L797.7,88.8 L798.1,88.4 L800.4,88.3 L800.8,88.0 L801.2,87.9 L801.6,87.5 L802.0,87.5 L802.4,87.4 L802.7,87.3 L803.1,86.7 L803.5,86.0 L803.9,85.8 L804.3,84.5 L804.7,84.3 L805.4,84.3 L805.8,84.2 L807.0,83.8 L807.3,83.3 L807.7,83.0 L808.1,82.7 L808.5,81.7 L808.9,78.0 L809.3,76.4 L809.6,76.1 L810.0,75.8 L810.4,75.2 L810.8,75.1 L811.2,69.9 L811.6,63.5 L811.9,61.6 L812.3,61.5 L812.7,60.6 L813.1,59.8 L813.5,56.0 L813.9,53.6 L814.2,50.1 L814.6,49.3 L815.0,49.2 L815.4,49.1 L815.8,47.9 L816.2,46.1 L816.5,42.1 L816.9,41.5 L817.3,40.7 L817.7,39.5 L818.1,38.9 L818.5,38.5 L818.8,37.2 L819.2,36.7 L819.6,36.6 L820.0,36.5 L820.0,160.0 Z"/>
  <polyline class="line" points="60.0,160.0 180.1,159.8 180.5,159.7 181.6,159.7 200.0,159.6 200.4,159.3 200.8,159.3 201.2,159.1 201.6,159.0 201.9,159.0 202.7,158.7 203.1,158.6 203.5,158.5 203.9,158.5 205.4,158.4 205.8,158.3 206.2,158.3 210.0,158.2 220.0,158.1 272.5,158.1 272.9,157.7 274.5,157.6 275.2,157.3 281.0,157.2 281.7,157.1 282.1,156.9 282.5,156.9 283.3,156.8 283.7,156.4 284.0,156.0 284.4,155.9 286.0,155.8 286.7,155.7 288.7,155.6 294.0,155.4 304.4,155.3 310.1,155.3 312.8,155.2 313.2,155.1 313.6,155.0 314.0,154.8 315.1,154.5 315.5,154.5 315.9,154.5 317.4,154.3 317.8,154.1 318.2,154.0 318.6,153.6 319.0,153.2 319.3,153.1 319.7,153.0 320.5,152.9 322.0,152.8 326.2,152.7 337.4,152.7 337.8,152.5 338.1,152.4 342.0,152.0 342.4,151.0 343.5,150.9 343.9,150.9 345.8,150.7 358.9,150.6 359.2,150.5 359.6,150.4 360.4,150.2 363.1,150.1 363.8,149.9 364.2,149.8 366.1,149.7 375.4,149.6 564.1,149.5 564.9,149.5 565.6,149.4 566.4,149.3 566.8,149.3 567.2,149.2 567.6,149.2 567.9,149.1 571.8,149.1 582.5,149.0 585.6,149.0 586.7,148.9 589.0,148.9 591.3,148.9 591.7,148.8 593.3,148.8 594.4,148.7 595.2,148.7 623.6,148.6 624.0,148.6 624.7,148.5 625.1,148.5 626.3,148.3 628.2,148.3 633.5,148.2 644.7,147.8 645.1,147.7 650.0,147.6 650.4,147.5 651.6,147.4 653.1,147.3 655.0,146.8 655.4,145.6 655.8,145.5 658.1,145.4 659.3,145.4 659.6,145.4 660.4,145.2 663.5,145.1 666.2,144.8 668.1,144.5 668.5,144.4 669.6,144.1 670.0,143.6 670.4,143.5 670.8,143.3 671.1,143.1 671.5,142.9 672.3,142.6 673.4,142.3 687.3,142.2 688.0,141.6 696.5,141.5 701.5,141.3 703.8,141.2 704.1,141.2 706.4,141.2 706.8,141.1 707.2,141.1 707.6,140.9 708.0,140.8 708.4,140.3 708.7,140.2 711.0,139.6 711.4,139.5 712.2,139.4 714.9,139.2 715.6,139.2 716.0,139.0 716.8,139.0 717.2,138.7 717.6,138.6 718.3,138.5 718.7,138.4 719.1,138.4 719.5,138.3 721.0,138.1 721.4,138.0 721.8,137.9 722.2,137.8 722.6,137.7 722.9,137.6 724.1,137.4 724.5,137.3 724.9,137.2 725.2,137.1 725.6,136.8 726.4,136.7 726.8,136.3 727.2,136.0 727.5,135.2 727.9,135.0 728.3,134.8 728.7,134.3 729.1,134.3 729.5,134.1 729.8,134.1 730.2,133.8 732.1,133.3 732.5,133.2 732.9,132.8 733.3,132.1 733.7,132.0 734.4,131.9 734.8,131.3 735.2,130.9 735.6,130.9 736.0,130.2 736.7,130.0 737.1,129.9 737.5,129.8 737.9,129.8 738.3,129.8 738.7,129.7 740.2,129.6 741.0,129.5 741.4,129.2 741.7,129.0 742.9,129.0 744.8,128.9 747.1,128.7 747.5,128.6 747.9,128.6 748.3,128.3 748.6,127.7 749.0,127.7 749.4,127.6 749.8,127.5 750.2,127.4 750.6,127.1 754.8,127.0 755.2,126.9 758.6,126.6 759.4,126.3 759.8,126.2 760.2,126.1 760.5,126.0 761.7,125.9 762.1,125.2 762.5,123.7 762.8,122.3 763.2,122.3 763.6,122.1 764.4,121.9 764.8,121.7 765.1,121.4 765.9,121.3 766.3,120.9 766.7,120.9 767.4,120.3 767.8,120.2 768.2,119.9 768.6,119.7 769.0,119.4 769.4,119.4 770.5,119.0 770.9,118.7 771.3,117.7 771.7,116.3 772.0,115.7 772.4,115.1 772.8,115.0 773.2,114.8 773.6,114.6 774.0,114.2 774.3,113.8 774.7,113.7 775.1,113.4 775.5,113.3 775.9,113.0 776.3,112.6 776.6,112.3 777.0,111.9 777.4,111.8 777.8,111.6 778.2,110.9 778.6,109.6 779.0,109.4 779.7,109.1 780.1,109.0 780.5,108.9 780.9,106.8 781.3,105.8 781.6,104.9 782.0,104.5 782.4,102.9 782.8,102.8 783.2,102.7 783.6,102.3 783.9,101.6 784.3,100.2 784.7,98.8 785.1,98.7 785.5,98.4 786.2,98.3 786.6,97.5 787.0,96.8 787.4,95.9 787.8,95.7 788.2,95.7 788.5,94.3 788.9,92.6 789.3,91.9 789.7,91.5 790.1,91.1 790.5,90.7 790.8,90.7 791.6,90.5 792.0,90.2 792.4,90.1 792.8,90.1 793.1,90.0 794.3,90.0 794.7,89.9 795.4,89.8 796.2,89.8 796.6,89.7 797.4,89.1 797.7,88.8 798.1,88.4 800.4,88.3 800.8,88.0 801.2,87.9 801.6,87.5 802.0,87.5 802.4,87.4 802.7,87.3 803.1,86.7 803.5,86.0 803.9,85.8 804.3,84.5 804.7,84.3 805.4,84.3 805.8,84.2 807.0,83.8 807.3,83.3 807.7,83.0 808.1,82.7 808.5,81.7 808.9,78.0 809.3,76.4 809.6,76.1 810.0,75.8 810.4,75.2 810.8,75.1 811.2,69.9 811.6,63.5 811.9,61.6 812.3,61.5 812.7,60.6 813.1,59.8 813.5,56.0 813.9,53.6 814.2,50.1 814.6,49.3 815.0,49.2 815.4,49.1 815.8,47.9 816.2,46.1 816.5,42.1 816.9,41.5 817.3,40.7 817.7,39.5 818.1,38.9 818.5,38.5 818.8,37.2 819.2,36.7 819.6,36.6 820.0,36.5"/>

  <g class="hoverpoint">
    <line x1="181.6" y1="30" x2="181.6" y2="160.0" class="guide"/>
    <circle cx="181.6" cy="159.7" r="16" class="hit"/>
    <circle cx="181.6" cy="159.7" r="4" class="hover-dot"><title>Nov 2021: 7 total (+7 this month)</title></circle>
    <rect x="111.6" y="133.7" width="140" height="20" rx="4" class="tooltip-bg"/>
    <text x="181.6" y="147.7" class="tooltip-text" text-anchor="middle">Nov 2021: 7 total (+7 this month)</text>
  </g>
  <g class="hoverpoint">
    <line x1="210.0" y1="30" x2="210.0" y2="160.0" class="guide"/>
    <circle cx="210.0" cy="158.2" r="16" class="hit"/>
    <circle cx="210.0" cy="158.2" r="4" class="hover-dot"><title>Jan 2022: 41 total (+34 this month)</title></circle>
    <rect x="140.0" y="132.2" width="140" height="20" rx="4" class="tooltip-bg"/>
    <text x="210.0" y="146.2" class="tooltip-text" text-anchor="middle">Jan 2022: 41 total (+34 this month)</text>
  </g>
  <g class="hoverpoint">
    <line x1="220.0" y1="30" x2="220.0" y2="160.0" class="guide"/>
    <circle cx="220.0" cy="158.1" r="16" class="hit"/>
    <circle cx="220.0" cy="158.1" r="4" class="hover-dot"><title>Feb 2022: 44 total (+3 this month)</title></circle>
    <rect x="150.0" y="132.1" width="140" height="20" rx="4" class="tooltip-bg"/>
    <text x="220.0" y="146.1" class="tooltip-text" text-anchor="middle">Feb 2022: 44 total (+3 this month)</text>
  </g>
  <g class="hoverpoint">
    <line x1="281.0" y1="30" x2="281.0" y2="160.0" class="guide"/>
    <circle cx="281.0" cy="157.2" r="16" class="hit"/>
    <circle cx="281.0" cy="157.2" r="4" class="hover-dot"><title>Jul 2022: 65 total (+21 this month)</title></circle>
    <rect x="211.0" y="131.2" width="140" height="20" rx="4" class="tooltip-bg"/>
    <text x="281.0" y="145.2" class="tooltip-text" text-anchor="middle">Jul 2022: 65 total (+21 this month)</text>
  </g>
  <g class="hoverpoint">
    <line x1="288.7" y1="30" x2="288.7" y2="160.0" class="guide"/>
    <circle cx="288.7" cy="155.6" r="16" class="hit"/>
    <circle cx="288.7" cy="155.6" r="4" class="hover-dot"><title>Aug 2022: 101 total (+36 this month)</title></circle>
    <rect x="218.7" y="129.6" width="140" height="20" rx="4" class="tooltip-bg"/>
    <text x="288.7" y="143.6" class="tooltip-text" text-anchor="middle">Aug 2022: 101 total (+36 this month)</text>
  </g>
  <g class="hoverpoint">
    <line x1="304.4" y1="30" x2="304.4" y2="160.0" class="guide"/>
    <circle cx="304.4" cy="155.3" r="16" class="hit"/>
    <circle cx="304.4" cy="155.3" r="4" class="hover-dot"><title>Sep 2022: 108 total (+7 this month)</title></circle>
    <rect x="234.4" y="129.3" width="140" height="20" rx="4" class="tooltip-bg"/>
    <text x="304.4" y="143.3" class="tooltip-text" text-anchor="middle">Sep 2022: 108 total (+7 this month)</text>
  </g>
  <g class="hoverpoint">
    <line x1="315.9" y1="30" x2="315.9" y2="160.0" class="guide"/>
    <circle cx="315.9" cy="154.5" r="16" class="hit"/>
    <circle cx="315.9" cy="154.5" r="4" class="hover-dot"><title>Oct 2022: 128 total (+20 this month)</title></circle>
    <rect x="245.9" y="128.5" width="140" height="20" rx="4" class="tooltip-bg"/>
    <text x="315.9" y="142.5" class="tooltip-text" text-anchor="middle">Oct 2022: 128 total (+20 this month)</text>
  </g>
  <g class="hoverpoint">
    <line x1="326.2" y1="30" x2="326.2" y2="160.0" class="guide"/>
    <circle cx="326.2" cy="152.7" r="16" class="hit"/>
    <circle cx="326.2" cy="152.7" r="4" class="hover-dot"><title>Nov 2022: 168 total (+40 this month)</title></circle>
    <rect x="256.2" y="126.7" width="140" height="20" rx="4" class="tooltip-bg"/>
    <text x="326.2" y="140.7" class="tooltip-text" text-anchor="middle">Nov 2022: 168 total (+40 this month)</text>
  </g>
  <g class="hoverpoint">
    <line x1="338.1" y1="30" x2="338.1" y2="160.0" class="guide"/>
    <circle cx="338.1" cy="152.4" r="16" class="hit"/>
    <circle cx="338.1" cy="152.4" r="4" class="hover-dot"><title>Dec 2022: 175 total (+7 this month)</title></circle>
    <rect x="268.1" y="126.4" width="140" height="20" rx="4" class="tooltip-bg"/>
    <text x="338.1" y="140.4" class="tooltip-text" text-anchor="middle">Dec 2022: 175 total (+7 this month)</text>
  </g>
  <g class="hoverpoint">
    <line x1="345.8" y1="30" x2="345.8" y2="160.0" class="guide"/>
    <circle cx="345.8" cy="150.7" r="16" class="hit"/>
    <circle cx="345.8" cy="150.7" r="4" class="hover-dot"><title>Jan 2023: 214 total (+39 this month)</title></circle>
    <rect x="275.8" y="124.7" width="140" height="20" rx="4" class="tooltip-bg"/>
    <text x="345.8" y="138.7" class="tooltip-text" text-anchor="middle">Jan 2023: 214 total (+39 this month)</text>
  </g>
  <g class="hoverpoint">
    <line x1="360.4" y1="30" x2="360.4" y2="160.0" class="guide"/>
    <circle cx="360.4" cy="150.2" r="16" class="hit"/>
    <circle cx="360.4" cy="150.2" r="4" class="hover-dot"><title>Feb 2023: 225 total (+11 this month)</title></circle>
    <rect x="290.4" y="124.2" width="140" height="20" rx="4" class="tooltip-bg"/>
    <text x="360.4" y="138.2" class="tooltip-text" text-anchor="middle">Feb 2023: 225 total (+11 this month)</text>
  </g>
  <g class="hoverpoint">
    <line x1="366.1" y1="30" x2="366.1" y2="160.0" class="guide"/>
    <circle cx="366.1" cy="149.7" r="16" class="hit"/>
    <circle cx="366.1" cy="149.7" r="4" class="hover-dot"><title>Mar 2023: 237 total (+12 this month)</title></circle>
    <rect x="296.1" y="123.7" width="140" height="20" rx="4" class="tooltip-bg"/>
    <text x="366.1" y="137.7" class="tooltip-text" text-anchor="middle">Mar 2023: 237 total (+12 this month)</text>
  </g>
  <g class="hoverpoint">
    <line x1="375.4" y1="30" x2="375.4" y2="160.0" class="guide"/>
    <circle cx="375.4" cy="149.6" r="16" class="hit"/>
    <circle cx="375.4" cy="149.6" r="4" class="hover-dot"><title>Apr 2023: 240 total (+3 this month)</title></circle>
    <rect x="305.4" y="123.6" width="140" height="20" rx="4" class="tooltip-bg"/>
    <text x="375.4" y="137.6" class="tooltip-text" text-anchor="middle">Apr 2023: 240 total (+3 this month)</text>
  </g>
  <g class="hoverpoint">
    <line x1="571.8" y1="30" x2="571.8" y2="160.0" class="guide"/>
    <circle cx="571.8" cy="149.1" r="16" class="hit"/>
    <circle cx="571.8" cy="149.1" r="4" class="hover-dot"><title>Aug 2024: 252 total (+12 this month)</title></circle>
    <rect x="501.8" y="123.1" width="140" height="20" rx="4" class="tooltip-bg"/>
    <text x="571.8" y="137.1" class="tooltip-text" text-anchor="middle">Aug 2024: 252 total (+12 this month)</text>
  </g>
  <g class="hoverpoint">
    <line x1="582.5" y1="30" x2="582.5" y2="160.0" class="guide"/>
    <circle cx="582.5" cy="149.0" r="16" class="hit"/>
    <circle cx="582.5" cy="149.0" r="4" class="hover-dot"><title>Sep 2024: 253 total (+1 this month)</title></circle>
    <rect x="512.5" y="123.0" width="140" height="20" rx="4" class="tooltip-bg"/>
    <text x="582.5" y="137.0" class="tooltip-text" text-anchor="middle">Sep 2024: 253 total (+1 this month)</text>
  </g>
  <g class="hoverpoint">
    <line x1="595.2" y1="30" x2="595.2" y2="160.0" class="guide"/>
    <circle cx="595.2" cy="148.7" r="16" class="hit"/>
    <circle cx="595.2" cy="148.7" r="4" class="hover-dot"><title>Oct 2024: 261 total (+8 this month)</title></circle>
    <rect x="525.2" y="122.7" width="140" height="20" rx="4" class="tooltip-bg"/>
    <text x="595.2" y="136.7" class="tooltip-text" text-anchor="middle">Oct 2024: 261 total (+8 this month)</text>
  </g>
  <g class="hoverpoint">
    <line x1="628.2" y1="30" x2="628.2" y2="160.0" class="guide"/>
    <circle cx="628.2" cy="148.3" r="16" class="hit"/>
    <circle cx="628.2" cy="148.3" r="4" class="hover-dot"><title>Jan 2025: 270 total (+9 this month)</title></circle>
    <rect x="558.2" y="122.3" width="140" height="20" rx="4" class="tooltip-bg"/>
    <text x="628.2" y="136.3" class="tooltip-text" text-anchor="middle">Jan 2025: 270 total (+9 this month)</text>
  </g>
  <g class="hoverpoint">
    <line x1="633.5" y1="30" x2="633.5" y2="160.0" class="guide"/>
    <circle cx="633.5" cy="148.2" r="16" class="hit"/>
    <circle cx="633.5" cy="148.2" r="4" class="hover-dot"><title>Feb 2025: 272 total (+2 this month)</title></circle>
    <rect x="563.5" y="122.2" width="140" height="20" rx="4" class="tooltip-bg"/>
    <text x="633.5" y="136.2" class="tooltip-text" text-anchor="middle">Feb 2025: 272 total (+2 this month)</text>
  </g>
  <g class="hoverpoint">
    <line x1="653.1" y1="30" x2="653.1" y2="160.0" class="guide"/>
    <circle cx="653.1" cy="147.3" r="16" class="hit"/>
    <circle cx="653.1" cy="147.3" r="4" class="hover-dot"><title>Mar 2025: 294 total (+22 this month)</title></circle>
    <rect x="583.1" y="121.3" width="140" height="20" rx="4" class="tooltip-bg"/>
    <text x="653.1" y="135.3" class="tooltip-text" text-anchor="middle">Mar 2025: 294 total (+22 this month)</text>
  </g>
  <g class="hoverpoint">
    <line x1="666.2" y1="30" x2="666.2" y2="160.0" class="guide"/>
    <circle cx="666.2" cy="144.8" r="16" class="hit"/>
    <circle cx="666.2" cy="144.8" r="4" class="hover-dot"><title>Apr 2025: 351 total (+57 this month)</title></circle>
    <rect x="596.2" y="118.8" width="140" height="20" rx="4" class="tooltip-bg"/>
    <text x="666.2" y="132.8" class="tooltip-text" text-anchor="middle">Apr 2025: 351 total (+57 this month)</text>
  </g>
  <g class="hoverpoint">
    <line x1="673.4" y1="30" x2="673.4" y2="160.0" class="guide"/>
    <circle cx="673.4" cy="142.3" r="16" class="hit"/>
    <circle cx="673.4" cy="142.3" r="4" class="hover-dot"><title>May 2025: 408 total (+57 this month)</title></circle>
    <rect x="603.4" y="116.3" width="140" height="20" rx="4" class="tooltip-bg"/>
    <text x="673.4" y="130.3" class="tooltip-text" text-anchor="middle">May 2025: 408 total (+57 this month)</text>
  </g>
  <g class="hoverpoint">
    <line x1="688.0" y1="30" x2="688.0" y2="160.0" class="guide"/>
    <circle cx="688.0" cy="141.6" r="16" class="hit"/>
    <circle cx="688.0" cy="141.6" r="4" class="hover-dot"><title>Jun 2025: 424 total (+16 this month)</title></circle>
    <rect x="618.0" y="115.6" width="140" height="20" rx="4" class="tooltip-bg"/>
    <text x="688.0" y="129.6" class="tooltip-text" text-anchor="middle">Jun 2025: 424 total (+16 this month)</text>
  </g>
  <g class="hoverpoint">
    <line x1="701.5" y1="30" x2="701.5" y2="160.0" class="guide"/>
    <circle cx="701.5" cy="141.3" r="16" class="hit"/>
    <circle cx="701.5" cy="141.3" r="4" class="hover-dot"><title>Jul 2025: 432 total (+8 this month)</title></circle>
    <rect x="631.5" y="115.3" width="140" height="20" rx="4" class="tooltip-bg"/>
    <text x="701.5" y="129.3" class="tooltip-text" text-anchor="middle">Jul 2025: 432 total (+8 this month)</text>
  </g>
  <g class="hoverpoint">
    <line x1="712.2" y1="30" x2="712.2" y2="160.0" class="guide"/>
    <circle cx="712.2" cy="139.4" r="16" class="hit"/>
    <circle cx="712.2" cy="139.4" r="4" class="hover-dot"><title>Aug 2025: 475 total (+43 this month)</title></circle>
    <rect x="642.2" y="113.4" width="140" height="20" rx="4" class="tooltip-bg"/>
    <text x="712.2" y="127.4" class="tooltip-text" text-anchor="middle">Aug 2025: 475 total (+43 this month)</text>
  </g>
  <g class="hoverpoint">
    <line x1="724.9" y1="30" x2="724.9" y2="160.0" class="guide"/>
    <circle cx="724.9" cy="137.2" r="16" class="hit"/>
    <circle cx="724.9" cy="137.2" r="4" class="hover-dot"><title>Sep 2025: 526 total (+51 this month)</title></circle>
    <rect x="654.9" y="111.2" width="140" height="20" rx="4" class="tooltip-bg"/>
    <text x="724.9" y="125.2" class="tooltip-text" text-anchor="middle">Sep 2025: 526 total (+51 this month)</text>
  </g>
  <g class="hoverpoint">
    <line x1="736.7" y1="30" x2="736.7" y2="160.0" class="guide"/>
    <circle cx="736.7" cy="130.0" r="16" class="hit"/>
    <circle cx="736.7" cy="130.0" r="4" class="hover-dot"><title>Oct 2025: 692 total (+166 this month)</title></circle>
    <rect x="666.7" y="104.0" width="140" height="20" rx="4" class="tooltip-bg"/>
    <text x="736.7" y="118.0" class="tooltip-text" text-anchor="middle">Oct 2025: 692 total (+166 this month)</text>
  </g>
  <g class="hoverpoint">
    <line x1="748.3" y1="30" x2="748.3" y2="160.0" class="guide"/>
    <circle cx="748.3" cy="128.3" r="16" class="hit"/>
    <circle cx="748.3" cy="128.3" r="4" class="hover-dot"><title>Nov 2025: 731 total (+39 this month)</title></circle>
    <rect x="678.3" y="102.3" width="140" height="20" rx="4" class="tooltip-bg"/>
    <text x="748.3" y="116.3" class="tooltip-text" text-anchor="middle">Nov 2025: 731 total (+39 this month)</text>
  </g>
  <g class="hoverpoint">
    <line x1="760.2" y1="30" x2="760.2" y2="160.0" class="guide"/>
    <circle cx="760.2" cy="126.1" r="16" class="hit"/>
    <circle cx="760.2" cy="126.1" r="4" class="hover-dot"><title>Dec 2025: 783 total (+52 this month)</title></circle>
    <rect x="690.2" y="100.1" width="140" height="20" rx="4" class="tooltip-bg"/>
    <text x="760.2" y="114.1" class="tooltip-text" text-anchor="middle">Dec 2025: 783 total (+52 this month)</text>
  </g>
  <g class="hoverpoint">
    <line x1="772.0" y1="30" x2="772.0" y2="160.0" class="guide"/>
    <circle cx="772.0" cy="115.7" r="16" class="hit"/>
    <circle cx="772.0" cy="115.7" r="4" class="hover-dot"><title>Jan 2026: 1,022 total (+239 this month)</title></circle>
    <rect x="702.0" y="89.7" width="140" height="20" rx="4" class="tooltip-bg"/>
    <text x="772.0" y="103.7" class="tooltip-text" text-anchor="middle">Jan 2026: 1,022 total (+239 this month)</text>
  </g>
  <g class="hoverpoint">
    <line x1="782.8" y1="30" x2="782.8" y2="160.0" class="guide"/>
    <circle cx="782.8" cy="102.8" r="16" class="hit"/>
    <circle cx="782.8" cy="102.8" r="4" class="hover-dot"><title>Feb 2026: 1,321 total (+299 this month)</title></circle>
    <rect x="712.8" y="76.8" width="140" height="20" rx="4" class="tooltip-bg"/>
    <text x="782.8" y="90.8" class="tooltip-text" text-anchor="middle">Feb 2026: 1,321 total (+299 this month)</text>
  </g>
  <g class="hoverpoint">
    <line x1="794.7" y1="30" x2="794.7" y2="160.0" class="guide"/>
    <circle cx="794.7" cy="89.9" r="16" class="hit"/>
    <circle cx="794.7" cy="89.9" r="4" class="hover-dot"><title>Mar 2026: 1,617 total (+296 this month)</title></circle>
    <rect x="724.7" y="63.9" width="140" height="20" rx="4" class="tooltip-bg"/>
    <text x="794.7" y="77.9" class="tooltip-text" text-anchor="middle">Mar 2026: 1,617 total (+296 this month)</text>
  </g>
  <g class="hoverpoint">
    <line x1="805.8" y1="30" x2="805.8" y2="160.0" class="guide"/>
    <circle cx="805.8" cy="84.2" r="16" class="hit"/>
    <circle cx="805.8" cy="84.2" r="4" class="hover-dot"><title>Apr 2026: 1,749 total (+132 this month)</title></circle>
    <rect x="735.8" y="58.2" width="140" height="20" rx="4" class="tooltip-bg"/>
    <text x="805.8" y="72.2" class="tooltip-text" text-anchor="middle">Apr 2026: 1,749 total (+132 this month)</text>
  </g>
  <g class="hoverpoint">
    <line x1="818.1" y1="30" x2="818.1" y2="160.0" class="guide"/>
    <circle cx="818.1" cy="38.9" r="16" class="hit"/>
    <circle cx="818.1" cy="38.9" r="4" class="hover-dot"><title>May 2026: 2,795 total (+1,046 this month)</title></circle>
    <rect x="748.1" y="12.9" width="140" height="20" rx="4" class="tooltip-bg"/>
    <text x="818.1" y="26.9" class="tooltip-text" text-anchor="middle">May 2026: 2,795 total (+1,046 this month)</text>
  </g>
  <g class="hoverpoint">
    <line x1="820.0" y1="30" x2="820.0" y2="160.0" class="guide"/>
    <circle cx="820.0" cy="36.5" r="16" class="hit"/>
    <circle cx="820.0" cy="36.5" r="4" class="hover-dot"><title>Jun 2026: 2,850 total (+55 this month)</title></circle>
    <rect x="750.0" y="10.5" width="140" height="20" rx="4" class="tooltip-bg"/>
    <text x="820.0" y="24.5" class="tooltip-text" text-anchor="middle">Jun 2026: 2,850 total (+55 this month)</text>
  </g>

  <circle cx="820.0" cy="36.5" r="4" class="dot"/>
  <text x="810.0" y="26.5" class="total">2,850</text>

</svg>