<svg xmlns="http://www.w3.org/2000/svg" width="840" height="196" viewBox="0 0 840 196" fill="none">
  <style>
    .label { font-family: -apple-system, BlinkMacSystemFont, 'Segoe UI', Helvetica, Arial, sans-serif; font-size: 10px; fill: #8b949e; }
    .title { font-family: -apple-system, BlinkMacSystemFont, 'Segoe UI', Helvetica, Arial, sans-serif; font-size: 11px; fill: #8b949e; font-weight: 600; }
    .total { font-family: -apple-system, BlinkMacSystemFont, 'Segoe UI', Helvetica, Arial, sans-serif; font-size: 11px; fill: #7ee787; font-weight: 600; }
    .grid { stroke: #21262d; stroke-width: 1; }
    .line { stroke: #7ee787; stroke-width: 2; stroke-linecap: round; stroke-linejoin: round; fill: none; }
    .dot { fill: #7ee787; }
    .area { fill: url(#areaGrad); }
    /* Hover interaction */
    .hoverpoint .guide { stroke: #7ee787; stroke-width: 1; stroke-dasharray: 2,2; opacity: 0; }
    .hoverpoint .hover-dot { fill: #7ee787; opacity: 0; }
    .hoverpoint .hit { fill: transparent; cursor: pointer; }
    .hoverpoint .tooltip-bg { fill: #161b22; stroke: #30363d; stroke-width: 1; opacity: 0; }
    .hoverpoint .tooltip-text { font-family: -apple-system, BlinkMacSystemFont, 'Segoe UI', Helvetica, Arial, sans-serif; font-size: 9px; fill: #c9d1d9; opacity: 0; }
    .hoverpoint:hover .guide { opacity: 0.5; }
    .hoverpoint:hover .hover-dot { opacity: 1; }
    .hoverpoint:hover .tooltip-bg { opacity: 0.95; }
    .hoverpoint:hover .tooltip-text { opacity: 1; }
  </style>
  <defs>
    <linearGradient id="areaGrad" x1="0" y1="0" x2="0" y2="1">
      <stop offset="0%" stop-color="#7ee787" stop-opacity="0.15"/>
      <stop offset="100%" stop-color="#7ee787" stop-opacity="0.01"/>
    </linearGradient>
  </defs>

  <text x="60" y="18" class="title">Cumulative Commits</text>

  <line x1="60" y1="160.0" x2="820" y2="160.0" class="grid"/>
  <text x="50" y="163.0" class="label" text-anchor="end">0</text>
  <line x1="60" y1="127.5" x2="820" y2="127.5" class="grid" stroke-dasharray="3,3"/>
  <text x="50" y="130.5" class="label" text-anchor="end">1,000</text>
  <line x1="60" y1="95.0" x2="820" y2="95.0" class="grid" stroke-dasharray="3,3"/>
  <text x="50" y="98.0" class="label" text-anchor="end">2,000</text>
  <line x1="60" y1="62.5" x2="820" y2="62.5" class="grid" stroke-dasharray="3,3"/>
  <text x="50" y="65.5" class="label" text-anchor="end">3,000</text>
  <line x1="60" y1="30.0" x2="820" y2="30.0" class="grid" stroke-dasharray="3,3"/>
  <text x="50" y="33.0" class="label" text-anchor="end">4,000</text>

  <text x="70.0" y="186" class="label" text-anchor="middle">2021</text>
  <text x="197.7" y="186" class="label" text-anchor="middle">2022</text>
  <text x="335.3" y="186" class="label" text-anchor="middle">2023</text>
  <text x="473.0" y="186" class="label" text-anchor="middle">2024</text>
  <text x="611.0" y="186" class="label" text-anchor="middle">2025</text>
  <text x="748.7" y="186" class="label" text-anchor="middle">2026</text>


  <path class="area" d="M60.0,160.0 L60.0,160.0 60.0,160.0 L178.1,159.8 L178.4,159.8 L179.6,159.8 L197.7,159.7 L198.0,159.5 L198.4,159.4 L198.8,159.3 L199.2,159.3 L199.6,159.2 L200.3,159.1 L200.7,159.0 L201.1,158.9 L201.4,158.9 L202.9,158.8 L203.3,158.7 L203.7,158.7 L207.5,158.7 L217.3,158.6 L269.0,158.5 L269.3,158.2 L270.8,158.2 L271.6,158.0 L277.3,157.9 L278.0,157.8 L278.4,157.7 L278.8,157.7 L279.5,157.6 L279.9,157.3 L280.3,157.0 L280.6,156.9 L282.2,156.8 L282.9,156.8 L284.8,156.7 L290.1,156.6 L300.3,156.5 L305.9,156.5 L308.6,156.4 L308.9,156.4 L309.3,156.3 L309.7,156.1 L310.8,155.9 L311.2,155.9 L311.6,155.8 L313.1,155.7 L313.5,155.5 L313.8,155.5 L314.2,155.2 L314.6,154.9 L315.0,154.8 L315.3,154.8 L316.1,154.7 L317.6,154.6 L321.8,154.5 L332.7,154.5 L333.1,154.3 L333.4,154.3 L337.2,154.0 L337.6,153.3 L338.7,153.2 L339.1,153.1 L341.0,153.0 L353.8,152.9 L354.2,152.8 L354.6,152.8 L355.3,152.7 L358.0,152.6 L358.7,152.4 L359.1,152.4 L361.0,152.3 L370.0,152.2 L555.6,152.1 L556.4,152.1 L557.1,152.1 L557.9,152.0 L558.2,151.9 L558.6,151.9 L559.0,151.9 L559.4,151.8 L563.1,151.8 L573.7,151.8 L576.7,151.7 L577.9,151.7 L580.1,151.7 L582.4,151.6 L582.8,151.6 L584.3,151.6 L585.4,151.6 L586.2,151.5 L614.1,151.5 L614.4,151.4 L615.2,151.4 L615.6,151.4 L616.7,151.3 L618.6,151.2 L623.9,151.2 L634.8,150.9 L635.2,150.7 L640.1,150.7 L640.5,150.6 L641.6,150.5 L643.1,150.4 L645.0,150.1 L645.4,149.2 L645.7,149.1 L648.0,149.1 L649.1,149.0 L649.5,149.0 L650.3,148.9 L653.3,148.9 L655.9,148.6 L657.8,148.4 L658.2,148.3 L659.3,148.1 L659.7,147.7 L660.1,147.6 L660.5,147.5 L660.8,147.4 L661.2,147.2 L662.0,146.9 L663.1,146.7 L676.7,146.6 L677.4,146.2 L685.7,146.1 L690.6,146.0 L692.9,145.9 L693.3,145.9 L695.5,145.9 L695.9,145.8 L696.3,145.8 L696.7,145.7 L697.0,145.6 L697.4,145.2 L697.8,145.2 L700.1,144.7 L700.4,144.6 L701.2,144.6 L703.8,144.4 L704.6,144.4 L705.0,144.3 L705.7,144.2 L706.1,144.0 L706.5,143.9 L707.2,143.9 L707.6,143.8 L708.0,143.8 L708.4,143.8 L709.9,143.6 L710.2,143.5 L710.6,143.4 L711.0,143.4 L711.4,143.3 L711.8,143.2 L712.9,143.1 L713.3,143.0 L713.6,142.9 L714.0,142.8 L714.4,142.6 L715.1,142.5 L715.5,142.2 L715.9,142.0 L716.3,141.4 L716.7,141.2 L717.0,141.1 L717.4,140.8 L717.8,140.7 L718.2,140.6 L718.5,140.6 L718.9,140.3 L720.8,140.0 L721.2,139.9 L721.6,139.6 L721.9,139.0 L722.3,139.0 L723.1,138.9 L723.4,138.5 L723.8,138.2 L724.2,138.2 L724.6,137.6 L725.3,137.5 L725.7,137.4 L726.1,137.4 L726.5,137.3 L726.8,137.3 L727.2,137.3 L728.7,137.2 L729.5,137.2 L729.9,136.9 L730.2,136.8 L731.4,136.7 L733.3,136.7 L735.5,136.5 L735.9,136.5 L736.3,136.4 L736.6,136.2 L737.0,135.8 L737.4,135.8 L737.8,135.7 L738.2,135.7 L738.5,135.6 L738.9,135.3 L743.1,135.2 L743.4,135.2 L746.8,135.0 L747.6,134.7 L748.0,134.7 L748.3,134.6 L748.7,134.5 L749.8,134.4 L750.2,133.9 L750.6,132.8 L751.0,131.7 L751.4,131.7 L751.7,131.6 L752.5,131.4 L752.9,131.3 L753.2,131.0 L754.0,131.0 L754.4,130.7 L754.7,130.7 L755.5,130.2 L755.9,130.2 L756.3,129.9 L756.6,129.7 L757.0,129.5 L757.4,129.5 L758.5,129.2 L758.9,129.1 L759.3,128.3 L759.7,127.2 L760.0,126.8 L760.4,126.3 L760.8,126.2 L761.2,126.1 L761.5,125.9 L761.9,125.7 L762.3,125.3 L762.7,125.3 L763.0,125.0 L763.4,125.0 L763.8,124.7 L764.2,124.5 L764.6,124.2 L764.9,123.9 L765.3,123.8 L765.7,123.7 L766.1,123.2 L766.4,122.2 L766.8,122.0 L767.6,121.8 L768.0,121.7 L768.3,121.7 L768.7,120.1 L769.1,119.4 L769.5,118.7 L769.8,118.4 L770.2,117.2 L770.6,117.1 L771.0,117.0 L771.3,116.7 L771.7,116.2 L772.1,115.2 L772.5,114.1 L772.9,114.0 L773.2,113.8 L774.0,113.8 L774.4,113.1 L774.7,112.6 L775.1,111.9 L775.5,111.8 L775.9,111.8 L776.2,110.7 L776.6,109.5 L777.0,108.9 L777.4,108.7 L777.8,108.3 L778.1,108.0 L778.5,108.0 L779.3,107.8 L779.6,107.6 L780.0,107.6 L780.4,107.5 L780.8,107.5 L781.9,107.5 L782.3,107.4 L783.0,107.4 L783.8,107.3 L784.2,107.3 L784.9,106.9 L785.3,106.6 L785.7,106.3 L787.9,106.2 L788.3,106.0 L788.7,105.9 L789.1,105.7 L789.4,105.6 L789.8,105.5 L790.2,105.5 L790.6,105.0 L791.0,104.5 L791.3,104.3 L791.7,103.4 L792.1,103.2 L792.8,103.2 L793.2,103.2 L794.4,102.9 L794.7,102.5 L795.1,102.2 L795.5,102.0 L795.9,101.3 L796.2,98.5 L796.6,97.3 L797.0,97.1 L797.4,96.9 L797.7,96.4 L798.1,96.3 L798.5,92.4 L798.9,87.6 L799.3,86.2 L799.6,86.2 L800.0,85.4 L800.4,84.9 L800.8,82.0 L801.1,80.2 L801.5,77.5 L801.9,77.0 L802.3,76.9 L802.7,76.8 L803.0,75.9 L803.4,74.6 L803.8,71.6 L804.2,71.1 L804.5,70.5 L804.9,69.7 L805.3,69.2 L805.7,68.7 L806.0,66.9 L806.4,66.5 L806.8,66.4 L807.2,66.1 L807.6,66.0 L807.9,65.7 L808.3,65.6 L808.7,64.7 L809.1,63.4 L809.4,62.3 L809.8,62.2 L810.2,61.2 L810.6,60.5 L810.9,60.4 L811.3,60.2 L811.7,60.1 L812.1,59.8 L812.5,59.0 L812.8,58.0 L813.2,57.7 L813.6,52.7 L814.0,51.8 L814.3,51.6 L815.1,51.3 L815.9,51.1 L816.2,50.8 L816.6,50.5 L817.0,49.8 L817.4,49.6 L817.7,47.9 L818.1,47.8 L819.2,47.6 L819.6,46.9 L820.0,46.2 L820.0,160.0 Z"/>
  <polyline class="line" points="60.0,160.0 178.1,159.8 178.4,159.8 179.6,159.8 197.7,159.7 198.0,159.5 198.4,159.4 198.8,159.3 199.2,159.3 199.6,159.2 200.3,159.1 200.7,159.0 201.1,158.9 201.4,158.9 202.9,158.8 203.3,158.7 203.7,158.7 207.5,158.7 217.3,158.6 269.0,158.5 269.3,158.2 270.8,158.2 271.6,158.0 277.3,157.9 278.0,157.8 278.4,157.7 278.8,157.7 279.5,157.6 279.9,157.3 280.3,157.0 280.6,156.9 282.2,156.8 282.9,156.8 284.8,156.7 290.1,156.6 300.3,156.5 305.9,156.5 308.6,156.4 308.9,156.4 309.3,156.3 309.7,156.1 310.8,155.9 311.2,155.9 311.6,155.8 313.1,155.7 313.5,155.5 313.8,155.5 314.2,155.2 314.6,154.9 315.0,154.8 315.3,154.8 316.1,154.7 317.6,154.6 321.8,154.5 332.7,154.5 333.1,154.3 333.4,154.3 337.2,154.0 337.6,153.3 338.7,153.2 339.1,153.1 341.0,153.0 353.8,152.9 354.2,152.8 354.6,152.8 355.3,152.7 358.0,152.6 358.7,152.4 359.1,152.4 361.0,152.3 370.0,152.2 555.6,152.1 556.4,152.1 557.1,152.1 557.9,152.0 558.2,151.9 558.6,151.9 559.0,151.9 559.4,151.8 563.1,151.8 573.7,151.8 576.7,151.7 577.9,151.7 580.1,151.7 582.4,151.6 582.8,151.6 584.3,151.6 585.4,151.6 586.2,151.5 614.1,151.5 614.4,151.4 615.2,151.4 615.6,151.4 616.7,151.3 618.6,151.2 623.9,151.2 634.8,150.9 635.2,150.7 640.1,150.7 640.5,150.6 641.6,150.5 643.1,150.4 645.0,150.1 645.4,149.2 645.7,149.1 648.0,149.1 649.1,149.0 649.5,149.0 650.3,148.9 653.3,148.9 655.9,148.6 657.8,148.4 658.2,148.3 659.3,148.1 659.7,147.7 660.1,147.6 660.5,147.5 660.8,147.4 661.2,147.2 662.0,146.9 663.1,146.7 676.7,146.6 677.4,146.2 685.7,146.1 690.6,146.0 692.9,145.9 693.3,145.9 695.5,145.9 695.9,145.8 696.3,145.8 696.7,145.7 697.0,145.6 697.4,145.2 697.8,145.2 700.1,144.7 700.4,144.6 701.2,144.6 703.8,144.4 704.6,144.4 705.0,144.3 705.7,144.2 706.1,144.0 706.5,143.9 707.2,143.9 707.6,143.8 708.0,143.8 708.4,143.8 709.9,143.6 710.2,143.5 710.6,143.4 711.0,143.4 711.4,143.3 711.8,143.2 712.9,143.1 713.3,143.0 713.6,142.9 714.0,142.8 714.4,142.6 715.1,142.5 715.5,142.2 715.9,142.0 716.3,141.4 716.7,141.2 717.0,141.1 717.4,140.8 717.8,140.7 718.2,140.6 718.5,140.6 718.9,140.3 720.8,140.0 721.2,139.9 721.6,139.6 721.9,139.0 722.3,139.0 723.1,138.9 723.4,138.5 723.8,138.2 724.2,138.2 724.6,137.6 725.3,137.5 725.7,137.4 726.1,137.4 726.5,137.3 726.8,137.3 727.2,137.3 728.7,137.2 729.5,137.2 729.9,136.9 730.2,136.8 731.4,136.7 733.3,136.7 735.5,136.5 735.9,136.5 736.3,136.4 736.6,136.2 737.0,135.8 737.4,135.8 737.8,135.7 738.2,135.7 738.5,135.6 738.9,135.3 743.1,135.2 743.4,135.2 746.8,135.0 747.6,134.7 748.0,134.7 748.3,134.6 748.7,134.5 749.8,134.4 750.2,133.9 750.6,132.8 751.0,131.7 751.4,131.7 751.7,131.6 752.5,131.4 752.9,131.3 753.2,131.0 754.0,131.0 754.4,130.7 754.7,130.7 755.5,130.2 755.9,130.2 756.3,129.9 756.6,129.7 757.0,129.5 757.4,129.5 758.5,129.2 758.9,129.1 759.3,128.3 759.7,127.2 760.0,126.8 760.4,126.3 760.8,126.2 761.2,126.1 761.5,125.9 761.9,125.7 762.3,125.3 762.7,125.3 763.0,125.0 763.4,125.0 763.8,124.7 764.2,124.5 764.6,124.2 764.9,123.9 765.3,123.8 765.7,123.7 766.1,123.2 766.4,122.2 766.8,122.0 767.6,121.8 768.0,121.7 768.3,121.7 768.7,120.1 769.1,119.4 769.5,118.7 769.8,118.4 770.2,117.2 770.6,117.1 771.0,117.0 771.3,116.7 771.7,116.2 772.1,115.2 772.5,114.1 772.9,114.0 773.2,113.8 774.0,113.8 774.4,113.1 774.7,112.6 775.1,111.9 775.5,111.8 775.9,111.8 776.2,110.7 776.6,109.5 777.0,108.9 777.4,108.7 777.8,108.3 778.1,108.0 778.5,108.0 779.3,107.8 779.6,107.6 780.0,107.6 780.4,107.5 780.8,107.5 781.9,107.5 782.3,107.4 783.0,107.4 783.8,107.3 784.2,107.3 784.9,106.9 785.3,106.6 785.7,106.3 787.9,106.2 788.3,106.0 788.7,105.9 789.1,105.7 789.4,105.6 789.8,105.5 790.2,105.5 790.6,105.0 791.0,104.5 791.3,104.3 791.7,103.4 792.1,103.2 792.8,103.2 793.2,103.2 794.4,102.9 794.7,102.5 795.1,102.2 795.5,102.0 795.9,101.3 796.2,98.5 796.6,97.3 797.0,97.1 797.4,96.9 797.7,96.4 798.1,96.3 798.5,92.4 798.9,87.6 799.3,86.2 799.6,86.2 800.0,85.4 800.4,84.9 800.8,82.0 801.1,80.2 801.5,77.5 801.9,77.0 802.3,76.9 802.7,76.8 803.0,75.9 803.4,74.6 803.8,71.6 804.2,71.1 804.5,70.5 804.9,69.7 805.3,69.2 805.7,68.7 806.0,66.9 806.4,66.5 806.8,66.4 807.2,66.1 807.6,66.0 807.9,65.7 808.3,65.6 808.7,64.7 809.1,63.4 809.4,62.3 809.8,62.2 810.2,61.2 810.6,60.5 810.9,60.4 811.3,60.2 811.7,60.1 812.1,59.8 812.5,59.0 812.8,58.0 813.2,57.7 813.6,52.7 814.0,51.8 814.3,51.6 815.1,51.3 815.9,51.1 816.2,50.8 816.6,50.5 817.0,49.8 817.4,49.6 817.7,47.9 818.1,47.8 819.2,47.6 819.6,46.9 820.0,46.2"/>

  <g class="hoverpoint">
    <line x1="179.6" y1="30" x2="179.6" y2="160.0" class="guide"/>
    <circle cx="179.6" cy="159.8" r="16" class="hit"/>
    <circle cx="179.6" cy="159.8" r="4" class="hover-dot"><title>Nov 2021: 7 total (+7 this month)</title></circle>
    <rect x="109.6" y="133.8" width="140" height="20" rx="4" class="tooltip-bg"/>
    <text x="179.6" y="147.8" class="tooltip-text" text-anchor="middle">Nov 2021: 7 total (+7 this month)</text>
  </g>
  <g class="hoverpoint">
    <line x1="207.5" y1="30" x2="207.5" y2="160.0" class="guide"/>
    <circle cx="207.5" cy="158.7" r="16" class="hit"/>
    <circle cx="207.5" cy="158.7" r="4" class="hover-dot"><title>Jan 2022: 41 total (+34 this month)</title></circle>
    <rect x="137.5" y="132.7" width="140" height="20" rx="4" class="tooltip-bg"/>
    <text x="207.5" y="146.7" class="tooltip-text" text-anchor="middle">Jan 2022: 41 total (+34 this month)</text>
  </g>
  <g class="hoverpoint">
    <line x1="217.3" y1="30" x2="217.3" y2="160.0" class="guide"/>
    <circle cx="217.3" cy="158.6" r="16" class="hit"/>
    <circle cx="217.3" cy="158.6" r="4" class="hover-dot"><title>Feb 2022: 44 total (+3 this month)</title></circle>
    <rect x="147.3" y="132.6" width="140" height="20" rx="4" class="tooltip-bg"/>
    <text x="217.3" y="146.6" class="tooltip-text" text-anchor="middle">Feb 2022: 44 total (+3 this month)</text>
  </g>
  <g class="hoverpoint">
    <line x1="277.3" y1="30" x2="277.3" y2="160.0" class="guide"/>
    <circle cx="277.3" cy="157.9" r="16" class="hit"/>
    <circle cx="277.3" cy="157.9" r="4" class="hover-dot"><title>Jul 2022: 65 total (+21 this month)</title></circle>
    <rect x="207.3" y="131.9" width="140" height="20" rx="4" class="tooltip-bg"/>
    <text x="277.3" y="145.9" class="tooltip-text" text-anchor="middle">Jul 2022: 65 total (+21 this month)</text>
  </g>
  <g class="hoverpoint">
    <line x1="284.8" y1="30" x2="284.8" y2="160.0" class="guide"/>
    <circle cx="284.8" cy="156.7" r="16" class="hit"/>
    <circle cx="284.8" cy="156.7" r="4" class="hover-dot"><title>Aug 2022: 101 total (+36 this month)</title></circle>
    <rect x="214.8" y="130.7" width="140" height="20" rx="4" class="tooltip-bg"/>
    <text x="284.8" y="144.7" class="tooltip-text" text-anchor="middle">Aug 2022: 101 total (+36 this month)</text>
  </g>
  <g class="hoverpoint">
    <line x1="300.3" y1="30" x2="300.3" y2="160.0" class="guide"/>
    <circle cx="300.3" cy="156.5" r="16" class="hit"/>
    <circle cx="300.3" cy="156.5" r="4" class="hover-dot"><title>Sep 2022: 108 total (+7 this month)</title></circle>
    <rect x="230.3" y="130.5" width="140" height="20" rx="4" class="tooltip-bg"/>
    <text x="300.3" y="144.5" class="tooltip-text" text-anchor="middle">Sep 2022: 108 total (+7 this month)</text>
  </g>
  <g class="hoverpoint">
    <line x1="311.6" y1="30" x2="311.6" y2="160.0" class="guide"/>
    <circle cx="311.6" cy="155.8" r="16" class="hit"/>
    <circle cx="311.6" cy="155.8" r="4" class="hover-dot"><title>Oct 2022: 128 total (+20 this month)</title></circle>
    <rect x="241.6" y="129.8" width="140" height="20" rx="4" class="tooltip-bg"/>
    <text x="311.6" y="143.8" class="tooltip-text" text-anchor="middle">Oct 2022: 128 total (+20 this month)</text>
  </g>
  <g class="hoverpoint">
    <line x1="321.8" y1="30" x2="321.8" y2="160.0" class="guide"/>
    <circle cx="321.8" cy="154.5" r="16" class="hit"/>
    <circle cx="321.8" cy="154.5" r="4" class="hover-dot"><title>Nov 2022: 168 total (+40 this month)</title></circle>
    <rect x="251.8" y="128.5" width="140" height="20" rx="4" class="tooltip-bg"/>
    <text x="321.8" y="142.5" class="tooltip-text" text-anchor="middle">Nov 2022: 168 total (+40 this month)</text>
  </g>
  <g class="hoverpoint">
    <line x1="333.4" y1="30" x2="333.4" y2="160.0" class="guide"/>
    <circle cx="333.4" cy="154.3" r="16" class="hit"/>
    <circle cx="333.4" cy="154.3" r="4" class="hover-dot"><title>Dec 2022: 175 total (+7 this month)</title></circle>
    <rect x="263.4" y="128.3" width="140" height="20" rx="4" class="tooltip-bg"/>
    <text x="333.4" y="142.3" class="tooltip-text" text-anchor="middle">Dec 2022: 175 total (+7 this month)</text>
  </g>
  <g class="hoverpoint">
    <line x1="341.0" y1="30" x2="341.0" y2="160.0" class="guide"/>
    <circle cx="341.0" cy="153.0" r="16" class="hit"/>
    <circle cx="341.0" cy="153.0" r="4" class="hover-dot"><title>Jan 2023: 214 total (+39 this month)</title></circle>
    <rect x="271.0" y="127.0" width="140" height="20" rx="4" class="tooltip-bg"/>
    <text x="341.0" y="141.0" class="tooltip-text" text-anchor="middle">Jan 2023: 214 total (+39 this month)</text>
  </g>
  <g class="hoverpoint">
    <line x1="355.3" y1="30" x2="355.3" y2="160.0" class="guide"/>
    <circle cx="355.3" cy="152.7" r="16" class="hit"/>
    <circle cx="355.3" cy="152.7" r="4" class="hover-dot"><title>Feb 2023: 225 total (+11 this month)</title></circle>
    <rect x="285.3" y="126.7" width="140" height="20" rx="4" class="tooltip-bg"/>
    <text x="355.3" y="140.7" class="tooltip-text" text-anchor="middle">Feb 2023: 225 total (+11 this month)</text>
  </g>
  <g class="hoverpoint">
    <line x1="361.0" y1="30" x2="361.0" y2="160.0" class="guide"/>
    <circle cx="361.0" cy="152.3" r="16" class="hit"/>
    <circle cx="361.0" cy="152.3" r="4" class="hover-dot"><title>Mar 2023: 237 total (+12 this month)</title></circle>
    <rect x="291.0" y="126.3" width="140" height="20" rx="4" class="tooltip-bg"/>
    <text x="361.0" y="140.3" class="tooltip-text" text-anchor="middle">Mar 2023: 237 total (+12 this month)</text>
  </g>
  <g class="hoverpoint">
    <line x1="370.0" y1="30" x2="370.0" y2="160.0" class="guide"/>
    <circle cx="370.0" cy="152.2" r="16" class="hit"/>
    <circle cx="370.0" cy="152.2" r="4" class="hover-dot"><title>Apr 2023: 240 total (+3 this month)</title></circle>
    <rect x="300.0" y="126.2" width="140" height="20" rx="4" class="tooltip-bg"/>
    <text x="370.0" y="140.2" class="tooltip-text" text-anchor="middle">Apr 2023: 240 total (+3 this month)</text>
  </g>
  <g class="hoverpoint">
    <line x1="563.1" y1="30" x2="563.1" y2="160.0" class="guide"/>
    <circle cx="563.1" cy="151.8" r="16" class="hit"/>
    <circle cx="563.1" cy="151.8" r="4" class="hover-dot"><title>Aug 2024: 252 total (+12 this month)</title></circle>
    <rect x="493.1" y="125.8" width="140" height="20" rx="4" class="tooltip-bg"/>
    <text x="563.1" y="139.8" class="tooltip-text" text-anchor="middle">Aug 2024: 252 total (+12 this month)</text>
  </g>
  <g class="hoverpoint">
    <line x1="573.7" y1="30" x2="573.7" y2="160.0" class="guide"/>
    <circle cx="573.7" cy="151.8" r="16" class="hit"/>
    <circle cx="573.7" cy="151.8" r="4" class="hover-dot"><title>Sep 2024: 253 total (+1 this month)</title></circle>
    <rect x="503.7" y="125.8" width="140" height="20" rx="4" class="tooltip-bg"/>
    <text x="573.7" y="139.8" class="tooltip-text" text-anchor="middle">Sep 2024: 253 total (+1 this month)</text>
  </g>
  <g class="hoverpoint">
    <line x1="586.2" y1="30" x2="586.2" y2="160.0" class="guide"/>
    <circle cx="586.2" cy="151.5" r="16" class="hit"/>
    <circle cx="586.2" cy="151.5" r="4" class="hover-dot"><title>Oct 2024: 261 total (+8 this month)</title></circle>
    <rect x="516.2" y="125.5" width="140" height="20" rx="4" class="tooltip-bg"/>
    <text x="586.2" y="139.5" class="tooltip-text" text-anchor="middle">Oct 2024: 261 total (+8 this month)</text>
  </g>
  <g class="hoverpoint">
    <line x1="618.6" y1="30" x2="618.6" y2="160.0" class="guide"/>
    <circle cx="618.6" cy="151.2" r="16" class="hit"/>
    <circle cx="618.6" cy="151.2" r="4" class="hover-dot"><title>Jan 2025: 270 total (+9 this month)</title></circle>
    <rect x="548.6" y="125.2" width="140" height="20" rx="4" class="tooltip-bg"/>
    <text x="618.6" y="139.2" class="tooltip-text" text-anchor="middle">Jan 2025: 270 total (+9 this month)</text>
  </g>
  <g class="hoverpoint">
    <line x1="623.9" y1="30" x2="623.9" y2="160.0" class="guide"/>
    <circle cx="623.9" cy="151.2" r="16" class="hit"/>
    <circle cx="623.9" cy="151.2" r="4" class="hover-dot"><title>Feb 2025: 272 total (+2 this month)</title></circle>
    <rect x="553.9" y="125.2" width="140" height="20" rx="4" class="tooltip-bg"/>
    <text x="623.9" y="139.2" class="tooltip-text" text-anchor="middle">Feb 2025: 272 total (+2 this month)</text>
  </g>
  <g class="hoverpoint">
    <line x1="643.1" y1="30" x2="643.1" y2="160.0" class="guide"/>
    <circle cx="643.1" cy="150.4" r="16" class="hit"/>
    <circle cx="643.1" cy="150.4" r="4" class="hover-dot"><title>Mar 2025: 294 total (+22 this month)</title></circle>
    <rect x="573.1" y="124.4" width="140" height="20" rx="4" class="tooltip-bg"/>
    <text x="643.1" y="138.4" class="tooltip-text" text-anchor="middle">Mar 2025: 294 total (+22 this month)</text>
  </g>
  <g class="hoverpoint">
    <line x1="655.9" y1="30" x2="655.9" y2="160.0" class="guide"/>
    <circle cx="655.9" cy="148.6" r="16" class="hit"/>
    <circle cx="655.9" cy="148.6" r="4" class="hover-dot"><title>Apr 2025: 351 total (+57 this month)</title></circle>
    <rect x="585.9" y="122.6" width="140" height="20" rx="4" class="tooltip-bg"/>
    <text x="655.9" y="136.6" class="tooltip-text" text-anchor="middle">Apr 2025: 351 total (+57 this month)</text>
  </g>
  <g class="hoverpoint">
    <line x1="663.1" y1="30" x2="663.1" y2="160.0" class="guide"/>
    <circle cx="663.1" cy="146.7" r="16" class="hit"/>
    <circle cx="663.1" cy="146.7" r="4" class="hover-dot"><title>May 2025: 408 total (+57 this month)</title></circle>
    <rect x="593.1" y="120.7" width="140" height="20" rx="4" class="tooltip-bg"/>
    <text x="663.1" y="134.7" class="tooltip-text" text-anchor="middle">May 2025: 408 total (+57 this month)</text>
  </g>
  <g class="hoverpoint">
    <line x1="677.4" y1="30" x2="677.4" y2="160.0" class="guide"/>
    <circle cx="677.4" cy="146.2" r="16" class="hit"/>
    <circle cx="677.4" cy="146.2" r="4" class="hover-dot"><title>Jun 2025: 424 total (+16 this month)</title></circle>
    <rect x="607.4" y="120.2" width="140" height="20" rx="4" class="tooltip-bg"/>
    <text x="677.4" y="134.2" class="tooltip-text" text-anchor="middle">Jun 2025: 424 total (+16 this month)</text>
  </g>
  <g class="hoverpoint">
    <line x1="690.6" y1="30" x2="690.6" y2="160.0" class="guide"/>
    <circle cx="690.6" cy="146.0" r="16" class="hit"/>
    <circle cx="690.6" cy="146.0" r="4" class="hover-dot"><title>Jul 2025: 432 total (+8 this month)</title></circle>
    <rect x="620.6" y="120.0" width="140" height="20" rx="4" class="tooltip-bg"/>
    <text x="690.6" y="134.0" class="tooltip-text" text-anchor="middle">Jul 2025: 432 total (+8 this month)</text>
  </g>
  <g class="hoverpoint">
    <line x1="701.2" y1="30" x2="701.2" y2="160.0" class="guide"/>
    <circle cx="701.2" cy="144.6" r="16" class="hit"/>
    <circle cx="701.2" cy="144.6" r="4" class="hover-dot"><title>Aug 2025: 475 total (+43 this month)</title></circle>
    <rect x="631.2" y="118.6" width="140" height="20" rx="4" class="tooltip-bg"/>
    <text x="701.2" y="132.6" class="tooltip-text" text-anchor="middle">Aug 2025: 475 total (+43 this month)</text>
  </g>
  <g class="hoverpoint">
    <line x1="713.6" y1="30" x2="713.6" y2="160.0" class="guide"/>
    <circle cx="713.6" cy="142.9" r="16" class="hit"/>
    <circle cx="713.6" cy="142.9" r="4" class="hover-dot"><title>Sep 2025: 526 total (+51 this month)</title></circle>
    <rect x="643.6" y="116.9" width="140" height="20" rx="4" class="tooltip-bg"/>
    <text x="713.6" y="130.9" class="tooltip-text" text-anchor="middle">Sep 2025: 526 total (+51 this month)</text>
  </g>
  <g class="hoverpoint">
    <line x1="725.3" y1="30" x2="725.3" y2="160.0" class="guide"/>
    <circle cx="725.3" cy="137.5" r="16" class="hit"/>
    <circle cx="725.3" cy="137.5" r="4" class="hover-dot"><title>Oct 2025: 692 total (+166 this month)</title></circle>
    <rect x="655.3" y="111.5" width="140" height="20" rx="4" class="tooltip-bg"/>
    <text x="725.3" y="125.5" class="tooltip-text" text-anchor="middle">Oct 2025: 692 total (+166 this month)</text>
  </g>
  <g class="hoverpoint">
    <line x1="736.6" y1="30" x2="736.6" y2="160.0" class="guide"/>
    <circle cx="736.6" cy="136.2" r="16" class="hit"/>
    <circle cx="736.6" cy="136.2" r="4" class="hover-dot"><title>Nov 2025: 731 total (+39 this month)</title></circle>
    <rect x="666.6" y="110.2" width="140" height="20" rx="4" class="tooltip-bg"/>
    <text x="736.6" y="124.2" class="tooltip-text" text-anchor="middle">Nov 2025: 731 total (+39 this month)</text>
  </g>
  <g class="hoverpoint">
    <line x1="748.3" y1="30" x2="748.3" y2="160.0" class="guide"/>
    <circle cx="748.3" cy="134.6" r="16" class="hit"/>
    <circle cx="748.3" cy="134.6" r="4" class="hover-dot"><title>Dec 2025: 783 total (+52 this month)</title></circle>
    <rect x="678.3" y="108.6" width="140" height="20" rx="4" class="tooltip-bg"/>
    <text x="748.3" y="122.6" class="tooltip-text" text-anchor="middle">Dec 2025: 783 total (+52 this month)</text>
  </g>
  <g class="hoverpoint">
    <line x1="760.0" y1="30" x2="760.0" y2="160.0" class="guide"/>
    <circle cx="760.0" cy="126.8" r="16" class="hit"/>
    <circle cx="760.0" cy="126.8" r="4" class="hover-dot"><title>Jan 2026: 1,022 total (+239 this month)</title></circle>
    <rect x="690.0" y="100.8" width="140" height="20" rx="4" class="tooltip-bg"/>
    <text x="760.0" y="114.8" class="tooltip-text" text-anchor="middle">Jan 2026: 1,022 total (+239 this month)</text>
  </g>
  <g class="hoverpoint">
    <line x1="770.6" y1="30" x2="770.6" y2="160.0" class="guide"/>
    <circle cx="770.6" cy="117.1" r="16" class="hit"/>
    <circle cx="770.6" cy="117.1" r="4" class="hover-dot"><title>Feb 2026: 1,321 total (+299 this month)</title></circle>
    <rect x="700.6" y="91.1" width="140" height="20" rx="4" class="tooltip-bg"/>
    <text x="770.6" y="105.1" class="tooltip-text" text-anchor="middle">Feb 2026: 1,321 total (+299 this month)</text>
  </g>
  <g class="hoverpoint">
    <line x1="782.3" y1="30" x2="782.3" y2="160.0" class="guide"/>
    <circle cx="782.3" cy="107.4" r="16" class="hit"/>
    <circle cx="782.3" cy="107.4" r="4" class="hover-dot"><title>Mar 2026: 1,617 total (+296 this month)</title></circle>
    <rect x="712.3" y="81.4" width="140" height="20" rx="4" class="tooltip-bg"/>
    <text x="782.3" y="95.4" class="tooltip-text" text-anchor="middle">Mar 2026: 1,617 total (+296 this month)</text>
  </g>
  <g class="hoverpoint">
    <line x1="793.2" y1="30" x2="793.2" y2="160.0" class="guide"/>
    <circle cx="793.2" cy="103.2" r="16" class="hit"/>
    <circle cx="793.2" cy="103.2" r="4" class="hover-dot"><title>Apr 2026: 1,749 total (+132 this month)</title></circle>
    <rect x="723.2" y="77.2" width="140" height="20" rx="4" class="tooltip-bg"/>
    <text x="793.2" y="91.2" class="tooltip-text" text-anchor="middle">Apr 2026: 1,749 total (+132 this month)</text>
  </g>
  <g class="hoverpoint">
    <line x1="805.3" y1="30" x2="805.3" y2="160.0" class="guide"/>
    <circle cx="805.3" cy="69.2" r="16" class="hit"/>
    <circle cx="805.3" cy="69.2" r="4" class="hover-dot"><title>May 2026: 2,795 total (+1,046 this month)</title></circle>
    <rect x="735.3" y="43.2" width="140" height="20" rx="4" class="tooltip-bg"/>
    <text x="805.3" y="57.2" class="tooltip-text" text-anchor="middle">May 2026: 2,795 total (+1,046 this month)</text>
  </g>
  <g class="hoverpoint">
    <line x1="816.6" y1="30" x2="816.6" y2="160.0" class="guide"/>
    <circle cx="816.6" cy="50.5" r="16" class="hit"/>
    <circle cx="816.6" cy="50.5" r="4" class="hover-dot"><title>Jun 2026: 3,370 total (+575 this month)</title></circle>
    <rect x="746.6" y="24.5" width="140" height="20" rx="4" class="tooltip-bg"/>
    <text x="816.6" y="38.5" class="tooltip-text" text-anchor="middle">Jun 2026: 3,370 total (+575 this month)</text>
  </g>
  <g class="hoverpoint">
    <line x1="820.0" y1="30" x2="820.0" y2="160.0" class="guide"/>
    <circle cx="820.0" cy="46.2" r="16" class="hit"/>
    <circle cx="820.0" cy="46.2" r="4" class="hover-dot"><title>Jul 2026: 3,502 total (+132 this month)</title></circle>
    <rect x="750.0" y="20.2" width="140" height="20" rx="4" class="tooltip-bg"/>
    <text x="820.0" y="34.2" class="tooltip-text" text-anchor="middle">Jul 2026: 3,502 total (+132 this month)</text>
  </g>

  <circle cx="820.0" cy="46.2" r="4" class="dot"/>
  <text x="810.0" y="36.2" class="total">3,502</text>

</svg>