<svg xmlns="http://www.w3.org/2000/svg" width="840" height="196" viewBox="0 0 840 196" fill="none">
  <style>
    .label { font-family: -apple-system, BlinkMacSystemFont, 'Segoe UI', Helvetica, Arial, sans-serif; font-size: 10px; fill: #8b949e; }
    .title { font-family: -apple-system, BlinkMacSystemFont, 'Segoe UI', Helvetica, Arial, sans-serif; font-size: 11px; fill: #8b949e; font-weight: 600; }
    .total { font-family: -apple-system, BlinkMacSystemFont, 'Segoe UI', Helvetica, Arial, sans-serif; font-size: 11px; fill: #7ee787; font-weight: 600; }
    .grid { stroke: #21262d; stroke-width: 1; }
    .line { stroke: #7ee787; stroke-width: 2; stroke-linecap: round; stroke-linejoin: round; fill: none; }
    .dot { fill: #7ee787; }
    .area { fill: url(#areaGrad); }
    /* Hover interaction */
    .hoverpoint .guide { stroke: #7ee787; stroke-width: 1; stroke-dasharray: 2,2; opacity: 0; }
    .hoverpoint .hover-dot { fill: #7ee787; opacity: 0; }
    .hoverpoint .hit { fill: transparent; cursor: pointer; }
    .hoverpoint .tooltip-bg { fill: #161b22; stroke: #30363d; stroke-width: 1; opacity: 0; }
    .hoverpoint .tooltip-text { font-family: -apple-system, BlinkMacSystemFont, 'Segoe UI', Helvetica, Arial, sans-serif; font-size: 9px; fill: #c9d1d9; opacity: 0; }
    .hoverpoint:hover .guide { opacity: 0.5; }
    .hoverpoint:hover .hover-dot { opacity: 1; }
    .hoverpoint:hover .tooltip-bg { opacity: 0.95; }
    .hoverpoint:hover .tooltip-text { opacity: 1; }
  </style>
  <defs>
    <linearGradient id="areaGrad" x1="0" y1="0" x2="0" y2="1">
      <stop offset="0%" stop-color="#7ee787" stop-opacity="0.15"/>
      <stop offset="100%" stop-color="#7ee787" stop-opacity="0.01"/>
    </linearGradient>
  </defs>

  <text x="60" y="18" class="title">Cumulative Commits</text>

  <line x1="60" y1="160.0" x2="820" y2="160.0" class="grid"/>
  <text x="50" y="163.0" class="label" text-anchor="end">0</text>
  <line x1="60" y1="127.5" x2="820" y2="127.5" class="grid" stroke-dasharray="3,3"/>
  <text x="50" y="130.5" class="label" text-anchor="end">750</text>
  <line x1="60" y1="95.0" x2="820" y2="95.0" class="grid" stroke-dasharray="3,3"/>
  <text x="50" y="98.0" class="label" text-anchor="end">1,500</text>
  <line x1="60" y1="62.5" x2="820" y2="62.5" class="grid" stroke-dasharray="3,3"/>
  <text x="50" y="65.5" class="label" text-anchor="end">2,250</text>
  <line x1="60" y1="30.0" x2="820" y2="30.0" class="grid" stroke-dasharray="3,3"/>
  <text x="50" y="33.0" class="label" text-anchor="end">3,000</text>

  <text x="70.0" y="186" class="label" text-anchor="middle">2021</text>
  <text x="200.3" y="186" class="label" text-anchor="middle">2022</text>
  <text x="340.6" y="186" class="label" text-anchor="middle">2023</text>
  <text x="480.9" y="186" class="label" text-anchor="middle">2024</text>
  <text x="621.6" y="186" class="label" text-anchor="middle">2025</text>
  <text x="762.0" y="186" class="label" text-anchor="middle">2026</text>


  <path class="area" d="M60.0,160.0 L60.0,160.0 60.0,160.0 L180.3,159.8 L180.7,159.7 L181.9,159.7 L200.3,159.6 L200.7,159.3 L201.1,159.3 L201.5,159.1 L201.9,159.0 L202.2,159.0 L203.0,158.7 L203.4,158.6 L203.8,158.5 L204.2,158.5 L205.7,158.4 L206.1,158.3 L206.5,158.3 L210.3,158.2 L220.3,158.1 L273.0,158.1 L273.4,157.7 L274.9,157.6 L275.7,157.3 L281.4,157.2 L282.2,157.1 L282.6,156.9 L283.0,156.9 L283.7,156.8 L284.1,156.4 L284.5,156.0 L284.9,155.9 L286.4,155.8 L287.2,155.7 L289.1,155.6 L294.5,155.4 L304.9,155.3 L310.6,155.3 L313.3,155.2 L313.7,155.1 L314.1,155.0 L314.5,154.8 L315.6,154.5 L316.0,154.5 L316.4,154.5 L317.9,154.3 L318.3,154.1 L318.7,154.0 L319.1,153.6 L319.5,153.2 L319.9,153.1 L320.3,153.0 L321.0,152.9 L322.6,152.8 L326.8,152.7 L337.9,152.7 L338.3,152.5 L338.7,152.4 L342.5,152.0 L342.9,151.0 L344.1,150.9 L344.5,150.9 L346.4,150.7 L359.5,150.6 L359.8,150.5 L360.2,150.4 L361.0,150.2 L363.7,150.1 L364.5,149.9 L364.8,149.8 L366.8,149.7 L376.0,149.6 L565.1,149.5 L565.9,149.5 L566.7,149.4 L567.4,149.3 L567.8,149.3 L568.2,149.2 L568.6,149.2 L569.0,149.1 L572.8,149.1 L583.6,149.0 L586.7,149.0 L587.8,148.9 L590.1,148.9 L592.4,148.9 L592.8,148.8 L594.3,148.8 L595.5,148.7 L596.3,148.7 L624.7,148.6 L625.1,148.6 L625.9,148.5 L626.3,148.5 L627.4,148.3 L629.3,148.3 L634.7,148.2 L645.9,147.8 L646.2,147.7 L651.2,147.6 L651.6,147.5 L652.8,147.4 L654.3,147.3 L656.2,146.8 L656.6,145.6 L657.0,145.5 L659.3,145.4 L660.5,145.4 L660.8,145.4 L661.6,145.2 L664.7,145.1 L667.4,144.8 L669.3,144.5 L669.7,144.4 L670.8,144.1 L671.2,143.6 L671.6,143.5 L672.0,143.3 L672.4,143.1 L672.8,142.9 L673.5,142.6 L674.7,142.3 L688.5,142.2 L689.3,141.6 L697.8,141.5 L702.8,141.3 L705.1,141.2 L705.4,141.2 L707.7,141.2 L708.1,141.1 L708.5,141.1 L708.9,140.9 L709.3,140.8 L709.7,140.3 L710.1,140.2 L712.4,139.6 L712.7,139.5 L713.5,139.4 L716.2,139.2 L717.0,139.2 L717.4,139.0 L718.1,139.0 L718.5,138.7 L718.9,138.6 L719.7,138.5 L720.1,138.4 L720.4,138.4 L720.8,138.3 L722.4,138.1 L722.7,138.0 L723.1,137.9 L723.5,137.8 L723.9,137.7 L724.3,137.6 L725.4,137.4 L725.8,137.3 L726.2,137.2 L726.6,137.1 L727.0,136.8 L727.7,136.7 L728.1,136.3 L728.5,136.0 L728.9,135.2 L729.3,135.0 L729.7,134.8 L730.0,134.3 L730.4,134.3 L730.8,134.1 L731.2,134.1 L731.6,133.8 L733.5,133.3 L733.9,133.2 L734.3,132.8 L734.7,132.1 L735.0,132.0 L735.8,131.9 L736.2,131.3 L736.6,130.9 L737.0,130.9 L737.3,130.2 L738.1,130.0 L738.5,129.9 L738.9,129.8 L739.3,129.8 L739.7,129.8 L740.0,129.7 L741.6,129.6 L742.3,129.5 L742.7,129.2 L743.1,129.0 L744.3,129.0 L746.2,128.9 L748.5,128.7 L748.9,128.6 L749.3,128.6 L749.7,128.3 L750.0,127.7 L750.4,127.7 L750.8,127.6 L751.2,127.5 L751.6,127.4 L752.0,127.1 L756.2,127.0 L756.6,126.9 L760.0,126.6 L760.8,126.3 L761.2,126.2 L761.6,126.1 L762.0,126.0 L763.1,125.9 L763.5,125.2 L763.9,123.7 L764.3,122.3 L764.6,122.3 L765.0,122.1 L765.8,121.9 L766.2,121.7 L766.6,121.4 L767.3,121.3 L767.7,120.9 L768.1,120.9 L768.9,120.3 L769.3,120.2 L769.6,119.9 L770.0,119.7 L770.4,119.4 L770.8,119.4 L771.9,119.0 L772.3,118.7 L772.7,117.7 L773.1,116.3 L773.5,115.7 L773.9,115.1 L774.3,115.0 L774.6,114.8 L775.0,114.6 L775.4,114.2 L775.8,113.8 L776.2,113.7 L776.6,113.4 L776.9,113.3 L777.3,113.0 L777.7,112.6 L778.1,112.3 L778.5,111.9 L778.9,111.8 L779.3,111.6 L779.6,110.9 L780.0,109.6 L780.4,109.4 L781.2,109.1 L781.6,109.0 L781.9,108.9 L782.3,106.8 L782.7,105.8 L783.1,104.9 L783.5,104.5 L783.9,102.9 L784.2,102.8 L784.6,102.7 L785.0,102.3 L785.4,101.6 L785.8,100.2 L786.2,98.8 L786.6,98.7 L786.9,98.4 L787.7,98.3 L788.1,97.5 L788.5,96.8 L788.9,95.9 L789.2,95.7 L789.6,95.7 L790.0,94.3 L790.4,92.6 L790.8,91.9 L791.2,91.5 L791.6,91.1 L791.9,90.7 L792.3,90.7 L793.1,90.5 L793.5,90.2 L793.9,90.1 L794.2,90.1 L794.6,90.0 L795.8,90.0 L796.2,89.9 L796.9,89.8 L797.7,89.8 L798.1,89.7 L798.9,89.1 L799.2,88.8 L799.6,88.4 L801.9,88.3 L802.3,88.0 L802.7,87.9 L803.1,87.5 L803.5,87.5 L803.9,87.4 L804.2,87.3 L804.6,86.7 L805.0,86.0 L805.4,85.8 L805.8,84.5 L806.2,84.3 L806.9,84.3 L807.3,84.2 L808.5,83.8 L808.9,83.3 L809.2,83.0 L809.6,82.7 L810.0,81.7 L810.4,78.0 L810.8,76.4 L811.2,76.1 L811.5,75.8 L811.9,75.2 L812.3,75.1 L812.7,69.9 L813.1,63.5 L813.5,61.6 L813.8,61.5 L814.2,60.6 L814.6,59.8 L815.0,56.0 L815.4,53.6 L815.8,50.1 L816.2,49.3 L816.5,49.2 L816.9,49.1 L817.3,47.9 L817.7,46.1 L818.1,42.1 L818.5,41.5 L818.8,40.7 L819.2,39.5 L819.6,38.9 L820.0,38.7 L820.0,160.0 Z"/>
  <polyline class="line" points="60.0,160.0 180.3,159.8 180.7,159.7 181.9,159.7 200.3,159.6 200.7,159.3 201.1,159.3 201.5,159.1 201.9,159.0 202.2,159.0 203.0,158.7 203.4,158.6 203.8,158.5 204.2,158.5 205.7,158.4 206.1,158.3 206.5,158.3 210.3,158.2 220.3,158.1 273.0,158.1 273.4,157.7 274.9,157.6 275.7,157.3 281.4,157.2 282.2,157.1 282.6,156.9 283.0,156.9 283.7,156.8 284.1,156.4 284.5,156.0 284.9,155.9 286.4,155.8 287.2,155.7 289.1,155.6 294.5,155.4 304.9,155.3 310.6,155.3 313.3,155.2 313.7,155.1 314.1,155.0 314.5,154.8 315.6,154.5 316.0,154.5 316.4,154.5 317.9,154.3 318.3,154.1 318.7,154.0 319.1,153.6 319.5,153.2 319.9,153.1 320.3,153.0 321.0,152.9 322.6,152.8 326.8,152.7 337.9,152.7 338.3,152.5 338.7,152.4 342.5,152.0 342.9,151.0 344.1,150.9 344.5,150.9 346.4,150.7 359.5,150.6 359.8,150.5 360.2,150.4 361.0,150.2 363.7,150.1 364.5,149.9 364.8,149.8 366.8,149.7 376.0,149.6 565.1,149.5 565.9,149.5 566.7,149.4 567.4,149.3 567.8,149.3 568.2,149.2 568.6,149.2 569.0,149.1 572.8,149.1 583.6,149.0 586.7,149.0 587.8,148.9 590.1,148.9 592.4,148.9 592.8,148.8 594.3,148.8 595.5,148.7 596.3,148.7 624.7,148.6 625.1,148.6 625.9,148.5 626.3,148.5 627.4,148.3 629.3,148.3 634.7,148.2 645.9,147.8 646.2,147.7 651.2,147.6 651.6,147.5 652.8,147.4 654.3,147.3 656.2,146.8 656.6,145.6 657.0,145.5 659.3,145.4 660.5,145.4 660.8,145.4 661.6,145.2 664.7,145.1 667.4,144.8 669.3,144.5 669.7,144.4 670.8,144.1 671.2,143.6 671.6,143.5 672.0,143.3 672.4,143.1 672.8,142.9 673.5,142.6 674.7,142.3 688.5,142.2 689.3,141.6 697.8,141.5 702.8,141.3 705.1,141.2 705.4,141.2 707.7,141.2 708.1,141.1 708.5,141.1 708.9,140.9 709.3,140.8 709.7,140.3 710.1,140.2 712.4,139.6 712.7,139.5 713.5,139.4 716.2,139.2 717.0,139.2 717.4,139.0 718.1,139.0 718.5,138.7 718.9,138.6 719.7,138.5 720.1,138.4 720.4,138.4 720.8,138.3 722.4,138.1 722.7,138.0 723.1,137.9 723.5,137.8 723.9,137.7 724.3,137.6 725.4,137.4 725.8,137.3 726.2,137.2 726.6,137.1 727.0,136.8 727.7,136.7 728.1,136.3 728.5,136.0 728.9,135.2 729.3,135.0 729.7,134.8 730.0,134.3 730.4,134.3 730.8,134.1 731.2,134.1 731.6,133.8 733.5,133.3 733.9,133.2 734.3,132.8 734.7,132.1 735.0,132.0 735.8,131.9 736.2,131.3 736.6,130.9 737.0,130.9 737.3,130.2 738.1,130.0 738.5,129.9 738.9,129.8 739.3,129.8 739.7,129.8 740.0,129.7 741.6,129.6 742.3,129.5 742.7,129.2 743.1,129.0 744.3,129.0 746.2,128.9 748.5,128.7 748.9,128.6 749.3,128.6 749.7,128.3 750.0,127.7 750.4,127.7 750.8,127.6 751.2,127.5 751.6,127.4 752.0,127.1 756.2,127.0 756.6,126.9 760.0,126.6 760.8,126.3 761.2,126.2 761.6,126.1 762.0,126.0 763.1,125.9 763.5,125.2 763.9,123.7 764.3,122.3 764.6,122.3 765.0,122.1 765.8,121.9 766.2,121.7 766.6,121.4 767.3,121.3 767.7,120.9 768.1,120.9 768.9,120.3 769.3,120.2 769.6,119.9 770.0,119.7 770.4,119.4 770.8,119.4 771.9,119.0 772.3,118.7 772.7,117.7 773.1,116.3 773.5,115.7 773.9,115.1 774.3,115.0 774.6,114.8 775.0,114.6 775.4,114.2 775.8,113.8 776.2,113.7 776.6,113.4 776.9,113.3 777.3,113.0 777.7,112.6 778.1,112.3 778.5,111.9 778.9,111.8 779.3,111.6 779.6,110.9 780.0,109.6 780.4,109.4 781.2,109.1 781.6,109.0 781.9,108.9 782.3,106.8 782.7,105.8 783.1,104.9 783.5,104.5 783.9,102.9 784.2,102.8 784.6,102.7 785.0,102.3 785.4,101.6 785.8,100.2 786.2,98.8 786.6,98.7 786.9,98.4 787.7,98.3 788.1,97.5 788.5,96.8 788.9,95.9 789.2,95.7 789.6,95.7 790.0,94.3 790.4,92.6 790.8,91.9 791.2,91.5 791.6,91.1 791.9,90.7 792.3,90.7 793.1,90.5 793.5,90.2 793.9,90.1 794.2,90.1 794.6,90.0 795.8,90.0 796.2,89.9 796.9,89.8 797.7,89.8 798.1,89.7 798.9,89.1 799.2,88.8 799.6,88.4 801.9,88.3 802.3,88.0 802.7,87.9 803.1,87.5 803.5,87.5 803.9,87.4 804.2,87.3 804.6,86.7 805.0,86.0 805.4,85.8 805.8,84.5 806.2,84.3 806.9,84.3 807.3,84.2 808.5,83.8 808.9,83.3 809.2,83.0 809.6,82.7 810.0,81.7 810.4,78.0 810.8,76.4 811.2,76.1 811.5,75.8 811.9,75.2 812.3,75.1 812.7,69.9 813.1,63.5 813.5,61.6 813.8,61.5 814.2,60.6 814.6,59.8 815.0,56.0 815.4,53.6 815.8,50.1 816.2,49.3 816.5,49.2 816.9,49.1 817.3,47.9 817.7,46.1 818.1,42.1 818.5,41.5 818.8,40.7 819.2,39.5 819.6,38.9 820.0,38.7"/>

  <g class="hoverpoint">
    <line x1="181.9" y1="30" x2="181.9" y2="160.0" class="guide"/>
    <circle cx="181.9" cy="159.7" r="16" class="hit"/>
    <circle cx="181.9" cy="159.7" r="4" class="hover-dot"><title>Nov 2021: 7 total (+7 this month)</title></circle>
    <rect x="111.9" y="133.7" width="140" height="20" rx="4" class="tooltip-bg"/>
    <text x="181.9" y="147.7" class="tooltip-text" text-anchor="middle">Nov 2021: 7 total (+7 this month)</text>
  </g>
  <g class="hoverpoint">
    <line x1="210.3" y1="30" x2="210.3" y2="160.0" class="guide"/>
    <circle cx="210.3" cy="158.2" r="16" class="hit"/>
    <circle cx="210.3" cy="158.2" r="4" class="hover-dot"><title>Jan 2022: 41 total (+34 this month)</title></circle>
    <rect x="140.3" y="132.2" width="140" height="20" rx="4" class="tooltip-bg"/>
    <text x="210.3" y="146.2" class="tooltip-text" text-anchor="middle">Jan 2022: 41 total (+34 this month)</text>
  </g>
  <g class="hoverpoint">
    <line x1="220.3" y1="30" x2="220.3" y2="160.0" class="guide"/>
    <circle cx="220.3" cy="158.1" r="16" class="hit"/>
    <circle cx="220.3" cy="158.1" r="4" class="hover-dot"><title>Feb 2022: 44 total (+3 this month)</title></circle>
    <rect x="150.3" y="132.1" width="140" height="20" rx="4" class="tooltip-bg"/>
    <text x="220.3" y="146.1" class="tooltip-text" text-anchor="middle">Feb 2022: 44 total (+3 this month)</text>
  </g>
  <g class="hoverpoint">
    <line x1="281.4" y1="30" x2="281.4" y2="160.0" class="guide"/>
    <circle cx="281.4" cy="157.2" r="16" class="hit"/>
    <circle cx="281.4" cy="157.2" r="4" class="hover-dot"><title>Jul 2022: 65 total (+21 this month)</title></circle>
    <rect x="211.4" y="131.2" width="140" height="20" rx="4" class="tooltip-bg"/>
    <text x="281.4" y="145.2" class="tooltip-text" text-anchor="middle">Jul 2022: 65 total (+21 this month)</text>
  </g>
  <g class="hoverpoint">
    <line x1="289.1" y1="30" x2="289.1" y2="160.0" class="guide"/>
    <circle cx="289.1" cy="155.6" r="16" class="hit"/>
    <circle cx="289.1" cy="155.6" r="4" class="hover-dot"><title>Aug 2022: 101 total (+36 this month)</title></circle>
    <rect x="219.1" y="129.6" width="140" height="20" rx="4" class="tooltip-bg"/>
    <text x="289.1" y="143.6" class="tooltip-text" text-anchor="middle">Aug 2022: 101 total (+36 this month)</text>
  </g>
  <g class="hoverpoint">
    <line x1="304.9" y1="30" x2="304.9" y2="160.0" class="guide"/>
    <circle cx="304.9" cy="155.3" r="16" class="hit"/>
    <circle cx="304.9" cy="155.3" r="4" class="hover-dot"><title>Sep 2022: 108 total (+7 this month)</title></circle>
    <rect x="234.9" y="129.3" width="140" height="20" rx="4" class="tooltip-bg"/>
    <text x="304.9" y="143.3" class="tooltip-text" text-anchor="middle">Sep 2022: 108 total (+7 this month)</text>
  </g>
  <g class="hoverpoint">
    <line x1="316.4" y1="30" x2="316.4" y2="160.0" class="guide"/>
    <circle cx="316.4" cy="154.5" r="16" class="hit"/>
    <circle cx="316.4" cy="154.5" r="4" class="hover-dot"><title>Oct 2022: 128 total (+20 this month)</title></circle>
    <rect x="246.4" y="128.5" width="140" height="20" rx="4" class="tooltip-bg"/>
    <text x="316.4" y="142.5" class="tooltip-text" text-anchor="middle">Oct 2022: 128 total (+20 this month)</text>
  </g>
  <g class="hoverpoint">
    <line x1="326.8" y1="30" x2="326.8" y2="160.0" class="guide"/>
    <circle cx="326.8" cy="152.7" r="16" class="hit"/>
    <circle cx="326.8" cy="152.7" r="4" class="hover-dot"><title>Nov 2022: 168 total (+40 this month)</title></circle>
    <rect x="256.8" y="126.7" width="140" height="20" rx="4" class="tooltip-bg"/>
    <text x="326.8" y="140.7" class="tooltip-text" text-anchor="middle">Nov 2022: 168 total (+40 this month)</text>
  </g>
  <g class="hoverpoint">
    <line x1="338.7" y1="30" x2="338.7" y2="160.0" class="guide"/>
    <circle cx="338.7" cy="152.4" r="16" class="hit"/>
    <circle cx="338.7" cy="152.4" r="4" class="hover-dot"><title>Dec 2022: 175 total (+7 this month)</title></circle>
    <rect x="268.7" y="126.4" width="140" height="20" rx="4" class="tooltip-bg"/>
    <text x="338.7" y="140.4" class="tooltip-text" text-anchor="middle">Dec 2022: 175 total (+7 this month)</text>
  </g>
  <g class="hoverpoint">
    <line x1="346.4" y1="30" x2="346.4" y2="160.0" class="guide"/>
    <circle cx="346.4" cy="150.7" r="16" class="hit"/>
    <circle cx="346.4" cy="150.7" r="4" class="hover-dot"><title>Jan 2023: 214 total (+39 this month)</title></circle>
    <rect x="276.4" y="124.7" width="140" height="20" rx="4" class="tooltip-bg"/>
    <text x="346.4" y="138.7" class="tooltip-text" text-anchor="middle">Jan 2023: 214 total (+39 this month)</text>
  </g>
  <g class="hoverpoint">
    <line x1="361.0" y1="30" x2="361.0" y2="160.0" class="guide"/>
    <circle cx="361.0" cy="150.2" r="16" class="hit"/>
    <circle cx="361.0" cy="150.2" r="4" class="hover-dot"><title>Feb 2023: 225 total (+11 this month)</title></circle>
    <rect x="291.0" y="124.2" width="140" height="20" rx="4" class="tooltip-bg"/>
    <text x="361.0" y="138.2" class="tooltip-text" text-anchor="middle">Feb 2023: 225 total (+11 this month)</text>
  </g>
  <g class="hoverpoint">
    <line x1="366.8" y1="30" x2="366.8" y2="160.0" class="guide"/>
    <circle cx="366.8" cy="149.7" r="16" class="hit"/>
    <circle cx="366.8" cy="149.7" r="4" class="hover-dot"><title>Mar 2023: 237 total (+12 this month)</title></circle>
    <rect x="296.8" y="123.7" width="140" height="20" rx="4" class="tooltip-bg"/>
    <text x="366.8" y="137.7" class="tooltip-text" text-anchor="middle">Mar 2023: 237 total (+12 this month)</text>
  </g>
  <g class="hoverpoint">
    <line x1="376.0" y1="30" x2="376.0" y2="160.0" class="guide"/>
    <circle cx="376.0" cy="149.6" r="16" class="hit"/>
    <circle cx="376.0" cy="149.6" r="4" class="hover-dot"><title>Apr 2023: 240 total (+3 this month)</title></circle>
    <rect x="306.0" y="123.6" width="140" height="20" rx="4" class="tooltip-bg"/>
    <text x="376.0" y="137.6" class="tooltip-text" text-anchor="middle">Apr 2023: 240 total (+3 this month)</text>
  </g>
  <g class="hoverpoint">
    <line x1="572.8" y1="30" x2="572.8" y2="160.0" class="guide"/>
    <circle cx="572.8" cy="149.1" r="16" class="hit"/>
    <circle cx="572.8" cy="149.1" r="4" class="hover-dot"><title>Aug 2024: 252 total (+12 this month)</title></circle>
    <rect x="502.8" y="123.1" width="140" height="20" rx="4" class="tooltip-bg"/>
    <text x="572.8" y="137.1" class="tooltip-text" text-anchor="middle">Aug 2024: 252 total (+12 this month)</text>
  </g>
  <g class="hoverpoint">
    <line x1="583.6" y1="30" x2="583.6" y2="160.0" class="guide"/>
    <circle cx="583.6" cy="149.0" r="16" class="hit"/>
    <circle cx="583.6" cy="149.0" r="4" class="hover-dot"><title>Sep 2024: 253 total (+1 this month)</title></circle>
    <rect x="513.6" y="123.0" width="140" height="20" rx="4" class="tooltip-bg"/>
    <text x="583.6" y="137.0" class="tooltip-text" text-anchor="middle">Sep 2024: 253 total (+1 this month)</text>
  </g>
  <g class="hoverpoint">
    <line x1="596.3" y1="30" x2="596.3" y2="160.0" class="guide"/>
    <circle cx="596.3" cy="148.7" r="16" class="hit"/>
    <circle cx="596.3" cy="148.7" r="4" class="hover-dot"><title>Oct 2024: 261 total (+8 this month)</title></circle>
    <rect x="526.3" y="122.7" width="140" height="20" rx="4" class="tooltip-bg"/>
    <text x="596.3" y="136.7" class="tooltip-text" text-anchor="middle">Oct 2024: 261 total (+8 this month)</text>
  </g>
  <g class="hoverpoint">
    <line x1="629.3" y1="30" x2="629.3" y2="160.0" class="guide"/>
    <circle cx="629.3" cy="148.3" r="16" class="hit"/>
    <circle cx="629.3" cy="148.3" r="4" class="hover-dot"><title>Jan 2025: 270 total (+9 this month)</title></circle>
    <rect x="559.3" y="122.3" width="140" height="20" rx="4" class="tooltip-bg"/>
    <text x="629.3" y="136.3" class="tooltip-text" text-anchor="middle">Jan 2025: 270 total (+9 this month)</text>
  </g>
  <g class="hoverpoint">
    <line x1="634.7" y1="30" x2="634.7" y2="160.0" class="guide"/>
    <circle cx="634.7" cy="148.2" r="16" class="hit"/>
    <circle cx="634.7" cy="148.2" r="4" class="hover-dot"><title>Feb 2025: 272 total (+2 this month)</title></circle>
    <rect x="564.7" y="122.2" width="140" height="20" rx="4" class="tooltip-bg"/>
    <text x="634.7" y="136.2" class="tooltip-text" text-anchor="middle">Feb 2025: 272 total (+2 this month)</text>
  </g>
  <g class="hoverpoint">
    <line x1="654.3" y1="30" x2="654.3" y2="160.0" class="guide"/>
    <circle cx="654.3" cy="147.3" r="16" class="hit"/>
    <circle cx="654.3" cy="147.3" r="4" class="hover-dot"><title>Mar 2025: 294 total (+22 this month)</title></circle>
    <rect x="584.3" y="121.3" width="140" height="20" rx="4" class="tooltip-bg"/>
    <text x="654.3" y="135.3" class="tooltip-text" text-anchor="middle">Mar 2025: 294 total (+22 this month)</text>
  </g>
  <g class="hoverpoint">
    <line x1="667.4" y1="30" x2="667.4" y2="160.0" class="guide"/>
    <circle cx="667.4" cy="144.8" r="16" class="hit"/>
    <circle cx="667.4" cy="144.8" r="4" class="hover-dot"><title>Apr 2025: 351 total (+57 this month)</title></circle>
    <rect x="597.4" y="118.8" width="140" height="20" rx="4" class="tooltip-bg"/>
    <text x="667.4" y="132.8" class="tooltip-text" text-anchor="middle">Apr 2025: 351 total (+57 this month)</text>
  </g>
  <g class="hoverpoint">
    <line x1="674.7" y1="30" x2="674.7" y2="160.0" class="guide"/>
    <circle cx="674.7" cy="142.3" r="16" class="hit"/>
    <circle cx="674.7" cy="142.3" r="4" class="hover-dot"><title>May 2025: 408 total (+57 this month)</title></circle>
    <rect x="604.7" y="116.3" width="140" height="20" rx="4" class="tooltip-bg"/>
    <text x="674.7" y="130.3" class="tooltip-text" text-anchor="middle">May 2025: 408 total (+57 this month)</text>
  </g>
  <g class="hoverpoint">
    <line x1="689.3" y1="30" x2="689.3" y2="160.0" class="guide"/>
    <circle cx="689.3" cy="141.6" r="16" class="hit"/>
    <circle cx="689.3" cy="141.6" r="4" class="hover-dot"><title>Jun 2025: 424 total (+16 this month)</title></circle>
    <rect x="619.3" y="115.6" width="140" height="20" rx="4" class="tooltip-bg"/>
    <text x="689.3" y="129.6" class="tooltip-text" text-anchor="middle">Jun 2025: 424 total (+16 this month)</text>
  </g>
  <g class="hoverpoint">
    <line x1="702.8" y1="30" x2="702.8" y2="160.0" class="guide"/>
    <circle cx="702.8" cy="141.3" r="16" class="hit"/>
    <circle cx="702.8" cy="141.3" r="4" class="hover-dot"><title>Jul 2025: 432 total (+8 this month)</title></circle>
    <rect x="632.8" y="115.3" width="140" height="20" rx="4" class="tooltip-bg"/>
    <text x="702.8" y="129.3" class="tooltip-text" text-anchor="middle">Jul 2025: 432 total (+8 this month)</text>
  </g>
  <g class="hoverpoint">
    <line x1="713.5" y1="30" x2="713.5" y2="160.0" class="guide"/>
    <circle cx="713.5" cy="139.4" r="16" class="hit"/>
    <circle cx="713.5" cy="139.4" r="4" class="hover-dot"><title>Aug 2025: 475 total (+43 this month)</title></circle>
    <rect x="643.5" y="113.4" width="140" height="20" rx="4" class="tooltip-bg"/>
    <text x="713.5" y="127.4" class="tooltip-text" text-anchor="middle">Aug 2025: 475 total (+43 this month)</text>
  </g>
  <g class="hoverpoint">
    <line x1="726.2" y1="30" x2="726.2" y2="160.0" class="guide"/>
    <circle cx="726.2" cy="137.2" r="16" class="hit"/>
    <circle cx="726.2" cy="137.2" r="4" class="hover-dot"><title>Sep 2025: 526 total (+51 this month)</title></circle>
    <rect x="656.2" y="111.2" width="140" height="20" rx="4" class="tooltip-bg"/>
    <text x="726.2" y="125.2" class="tooltip-text" text-anchor="middle">Sep 2025: 526 total (+51 this month)</text>
  </g>
  <g class="hoverpoint">
    <line x1="738.1" y1="30" x2="738.1" y2="160.0" class="guide"/>
    <circle cx="738.1" cy="130.0" r="16" class="hit"/>
    <circle cx="738.1" cy="130.0" r="4" class="hover-dot"><title>Oct 2025: 692 total (+166 this month)</title></circle>
    <rect x="668.1" y="104.0" width="140" height="20" rx="4" class="tooltip-bg"/>
    <text x="738.1" y="118.0" class="tooltip-text" text-anchor="middle">Oct 2025: 692 total (+166 this month)</text>
  </g>
  <g class="hoverpoint">
    <line x1="749.7" y1="30" x2="749.7" y2="160.0" class="guide"/>
    <circle cx="749.7" cy="128.3" r="16" class="hit"/>
    <circle cx="749.7" cy="128.3" r="4" class="hover-dot"><title>Nov 2025: 731 total (+39 this month)</title></circle>
    <rect x="679.7" y="102.3" width="140" height="20" rx="4" class="tooltip-bg"/>
    <text x="749.7" y="116.3" class="tooltip-text" text-anchor="middle">Nov 2025: 731 total (+39 this month)</text>
  </g>
  <g class="hoverpoint">
    <line x1="761.6" y1="30" x2="761.6" y2="160.0" class="guide"/>
    <circle cx="761.6" cy="126.1" r="16" class="hit"/>
    <circle cx="761.6" cy="126.1" r="4" class="hover-dot"><title>Dec 2025: 783 total (+52 this month)</title></circle>
    <rect x="691.6" y="100.1" width="140" height="20" rx="4" class="tooltip-bg"/>
    <text x="761.6" y="114.1" class="tooltip-text" text-anchor="middle">Dec 2025: 783 total (+52 this month)</text>
  </g>
  <g class="hoverpoint">
    <line x1="773.5" y1="30" x2="773.5" y2="160.0" class="guide"/>
    <circle cx="773.5" cy="115.7" r="16" class="hit"/>
    <circle cx="773.5" cy="115.7" r="4" class="hover-dot"><title>Jan 2026: 1,022 total (+239 this month)</title></circle>
    <rect x="703.5" y="89.7" width="140" height="20" rx="4" class="tooltip-bg"/>
    <text x="773.5" y="103.7" class="tooltip-text" text-anchor="middle">Jan 2026: 1,022 total (+239 this month)</text>
  </g>
  <g class="hoverpoint">
    <line x1="784.2" y1="30" x2="784.2" y2="160.0" class="guide"/>
    <circle cx="784.2" cy="102.8" r="16" class="hit"/>
    <circle cx="784.2" cy="102.8" r="4" class="hover-dot"><title>Feb 2026: 1,321 total (+299 this month)</title></circle>
    <rect x="714.2" y="76.8" width="140" height="20" rx="4" class="tooltip-bg"/>
    <text x="784.2" y="90.8" class="tooltip-text" text-anchor="middle">Feb 2026: 1,321 total (+299 this month)</text>
  </g>
  <g class="hoverpoint">
    <line x1="796.2" y1="30" x2="796.2" y2="160.0" class="guide"/>
    <circle cx="796.2" cy="89.9" r="16" class="hit"/>
    <circle cx="796.2" cy="89.9" r="4" class="hover-dot"><title>Mar 2026: 1,617 total (+296 this month)</title></circle>
    <rect x="726.2" y="63.9" width="140" height="20" rx="4" class="tooltip-bg"/>
    <text x="796.2" y="77.9" class="tooltip-text" text-anchor="middle">Mar 2026: 1,617 total (+296 this month)</text>
  </g>
  <g class="hoverpoint">
    <line x1="807.3" y1="30" x2="807.3" y2="160.0" class="guide"/>
    <circle cx="807.3" cy="84.2" r="16" class="hit"/>
    <circle cx="807.3" cy="84.2" r="4" class="hover-dot"><title>Apr 2026: 1,749 total (+132 this month)</title></circle>
    <rect x="737.3" y="58.2" width="140" height="20" rx="4" class="tooltip-bg"/>
    <text x="807.3" y="72.2" class="tooltip-text" text-anchor="middle">Apr 2026: 1,749 total (+132 this month)</text>
  </g>
  <g class="hoverpoint">
    <line x1="819.6" y1="30" x2="819.6" y2="160.0" class="guide"/>
    <circle cx="819.6" cy="38.9" r="16" class="hit"/>
    <circle cx="819.6" cy="38.9" r="4" class="hover-dot"><title>May 2026: 2,795 total (+1,046 this month)</title></circle>
    <rect x="749.6" y="12.9" width="140" height="20" rx="4" class="tooltip-bg"/>
    <text x="819.6" y="26.9" class="tooltip-text" text-anchor="middle">May 2026: 2,795 total (+1,046 this month)</text>
  </g>
  <g class="hoverpoint">
    <line x1="820.0" y1="30" x2="820.0" y2="160.0" class="guide"/>
    <circle cx="820.0" cy="38.7" r="16" class="hit"/>
    <circle cx="820.0" cy="38.7" r="4" class="hover-dot"><title>Jun 2026: 2,799 total (+4 this month)</title></circle>
    <rect x="750.0" y="12.7" width="140" height="20" rx="4" class="tooltip-bg"/>
    <text x="820.0" y="26.7" class="tooltip-text" text-anchor="middle">Jun 2026: 2,799 total (+4 this month)</text>
  </g>

  <circle cx="820.0" cy="38.7" r="4" class="dot"/>
  <text x="810.0" y="28.7" class="total">2,799</text>

</svg>