<svg xmlns="http://www.w3.org/2000/svg" width="840" height="196" viewBox="0 0 840 196" fill="none">
  <style>
    .label { font-family: -apple-system, BlinkMacSystemFont, 'Segoe UI', Helvetica, Arial, sans-serif; font-size: 10px; fill: #8b949e; }
    .title { font-family: -apple-system, BlinkMacSystemFont, 'Segoe UI', Helvetica, Arial, sans-serif; font-size: 11px; fill: #8b949e; font-weight: 600; }
    .total { font-family: -apple-system, BlinkMacSystemFont, 'Segoe UI', Helvetica, Arial, sans-serif; font-size: 11px; fill: #7ee787; font-weight: 600; }
    .grid { stroke: #21262d; stroke-width: 1; }
    .line { stroke: #7ee787; stroke-width: 2; stroke-linecap: round; stroke-linejoin: round; fill: none; }
    .dot { fill: #7ee787; }
    .area { fill: url(#areaGrad); }
    /* Hover interaction */
    .hoverpoint .guide { stroke: #7ee787; stroke-width: 1; stroke-dasharray: 2,2; opacity: 0; }
    .hoverpoint .hover-dot { fill: #7ee787; opacity: 0; }
    .hoverpoint .hit { fill: transparent; cursor: pointer; }
    .hoverpoint .tooltip-bg { fill: #161b22; stroke: #30363d; stroke-width: 1; opacity: 0; }
    .hoverpoint .tooltip-text { font-family: -apple-system, BlinkMacSystemFont, 'Segoe UI', Helvetica, Arial, sans-serif; font-size: 9px; fill: #c9d1d9; opacity: 0; }
    .hoverpoint:hover .guide { opacity: 0.5; }
    .hoverpoint:hover .hover-dot { opacity: 1; }
    .hoverpoint:hover .tooltip-bg { opacity: 0.95; }
    .hoverpoint:hover .tooltip-text { opacity: 1; }
  </style>
  <defs>
    <linearGradient id="areaGrad" x1="0" y1="0" x2="0" y2="1">
      <stop offset="0%" stop-color="#7ee787" stop-opacity="0.15"/>
      <stop offset="100%" stop-color="#7ee787" stop-opacity="0.01"/>
    </linearGradient>
  </defs>

  <text x="60" y="18" class="title">Cumulative Commits</text>

  <line x1="60" y1="160.0" x2="820" y2="160.0" class="grid"/>
  <text x="50" y="163.0" class="label" text-anchor="end">0</text>
  <line x1="60" y1="127.5" x2="820" y2="127.5" class="grid" stroke-dasharray="3,3"/>
  <text x="50" y="130.5" class="label" text-anchor="end">500</text>
  <line x1="60" y1="95.0" x2="820" y2="95.0" class="grid" stroke-dasharray="3,3"/>
  <text x="50" y="98.0" class="label" text-anchor="end">1,000</text>
  <line x1="60" y1="62.5" x2="820" y2="62.5" class="grid" stroke-dasharray="3,3"/>
  <text x="50" y="65.5" class="label" text-anchor="end">1,500</text>
  <line x1="60" y1="30.0" x2="820" y2="30.0" class="grid" stroke-dasharray="3,3"/>
  <text x="50" y="33.0" class="label" text-anchor="end">2,000</text>

  <text x="70.0" y="186" class="label" text-anchor="middle">2021</text>
  <text x="206.0" y="186" class="label" text-anchor="middle">2022</text>
  <text x="352.0" y="186" class="label" text-anchor="middle">2023</text>
  <text x="498.0" y="186" class="label" text-anchor="middle">2024</text>
  <text x="644.4" y="186" class="label" text-anchor="middle">2025</text>
  <text x="790.4" y="186" class="label" text-anchor="middle">2026</text>


  <path class="area" d="M60.0,160.0 L60.0,160.0 60.0,160.0 L185.2,159.7 L185.6,159.6 L186.8,159.5 L206.0,159.4 L206.4,159.0 L206.8,158.9 L207.2,158.6 L207.6,158.6 L208.0,158.4 L208.8,158.1 L209.2,157.9 L209.6,157.8 L210.0,157.7 L211.6,157.5 L212.0,157.5 L212.4,157.4 L216.4,157.3 L226.8,157.1 L281.6,157.1 L282.0,156.5 L283.6,156.4 L284.4,155.9 L290.4,155.8 L291.2,155.6 L291.6,155.4 L292.0,155.3 L292.8,155.1 L293.2,154.7 L293.6,154.0 L294.0,153.9 L295.6,153.6 L296.4,153.6 L298.4,153.4 L304.0,153.2 L314.8,153.0 L320.8,152.9 L323.6,152.8 L324.0,152.7 L324.4,152.5 L324.8,152.3 L326.0,151.8 L326.4,151.7 L326.8,151.7 L328.4,151.4 L328.8,151.1 L329.2,151.0 L329.6,150.4 L330.0,149.9 L330.4,149.7 L330.8,149.5 L331.6,149.4 L333.2,149.3 L337.6,149.1 L349.2,149.0 L349.6,148.7 L350.0,148.6 L354.0,148.0 L354.4,146.5 L355.6,146.3 L356.0,146.3 L358.0,146.1 L371.6,145.8 L372.0,145.7 L372.4,145.6 L373.2,145.4 L376.0,145.2 L376.8,144.9 L377.2,144.7 L379.2,144.6 L388.8,144.4 L585.6,144.3 L586.4,144.2 L587.2,144.1 L588.0,144.0 L588.4,143.9 L588.8,143.8 L589.2,143.8 L589.6,143.7 L593.6,143.6 L604.8,143.6 L608.0,143.5 L609.2,143.4 L611.6,143.4 L614.0,143.3 L614.4,143.2 L616.0,143.2 L617.2,143.1 L618.0,143.0 L647.6,143.0 L648.0,142.8 L648.8,142.8 L649.2,142.7 L650.4,142.5 L652.4,142.4 L658.0,142.3 L669.6,141.7 L670.0,141.5 L675.2,141.3 L675.6,141.2 L676.8,141.1 L678.4,140.9 L680.4,140.2 L680.8,138.4 L681.2,138.3 L683.6,138.2 L684.8,138.1 L685.2,138.0 L686.0,137.8 L689.2,137.7 L692.0,137.2 L694.0,136.7 L694.4,136.5 L695.6,136.2 L696.0,135.4 L696.4,135.2 L696.8,134.9 L697.2,134.7 L697.6,134.4 L698.4,133.9 L699.6,133.5 L714.0,133.3 L714.8,132.4 L723.6,132.2 L728.8,131.9 L731.2,131.9 L731.6,131.8 L734.0,131.7 L734.4,131.7 L734.8,131.6 L735.2,131.4 L735.6,131.1 L736.0,130.5 L736.4,130.4 L738.8,129.4 L739.2,129.3 L740.0,129.1 L742.8,128.8 L743.6,128.7 L744.0,128.5 L744.8,128.5 L745.2,128.0 L745.6,127.9 L746.4,127.8 L746.8,127.6 L747.2,127.6 L747.6,127.5 L749.2,127.1 L749.6,127.0 L750.0,126.8 L750.4,126.7 L750.8,126.6 L751.2,126.4 L752.4,126.1 L752.8,125.9 L753.2,125.8 L753.6,125.6 L754.0,125.2 L754.8,125.1 L755.2,124.4 L755.6,124.1 L756.0,122.8 L756.4,122.5 L756.8,122.2 L757.2,121.5 L757.6,121.4 L758.0,121.2 L758.4,121.1 L758.8,120.7 L760.8,120.0 L761.2,119.8 L761.6,119.2 L762.0,118.1 L762.4,118.0 L763.2,117.9 L763.6,116.9 L764.0,116.4 L764.4,116.3 L764.8,115.3 L765.6,115.0 L766.0,114.9 L766.4,114.8 L766.8,114.7 L767.2,114.6 L767.6,114.6 L769.2,114.4 L770.0,114.3 L770.4,113.8 L770.8,113.5 L772.0,113.5 L774.0,113.3 L776.4,113.1 L776.8,112.9 L777.2,112.9 L777.6,112.5 L778.0,111.6 L778.4,111.5 L778.8,111.4 L779.2,111.3 L779.6,111.1 L780.0,110.6 L784.4,110.5 L784.8,110.4 L788.4,109.9 L789.2,109.5 L789.6,109.4 L790.0,109.1 L790.4,109.0 L791.6,108.8 L792.0,107.9 L792.4,105.5 L792.8,103.5 L793.2,103.4 L793.6,103.1 L794.4,102.8 L794.8,102.5 L795.2,102.1 L796.0,102.0 L796.4,101.4 L796.8,101.3 L797.6,100.4 L798.0,100.3 L798.4,99.8 L798.8,99.5 L799.2,99.1 L799.6,99.0 L800.8,98.4 L801.2,98.1 L801.6,96.6 L802.0,94.4 L802.4,93.6 L802.8,92.6 L803.2,92.5 L803.6,92.1 L804.0,91.9 L804.4,91.4 L804.8,90.6 L805.2,90.6 L805.6,90.1 L806.0,90.0 L806.4,89.5 L806.8,89.0 L807.2,88.4 L807.6,87.8 L808.0,87.7 L808.4,87.5 L808.8,86.4 L809.2,84.4 L809.6,84.1 L810.4,83.7 L810.8,83.5 L811.2,83.4 L811.6,80.2 L812.0,78.8 L812.4,77.3 L812.8,76.8 L813.2,74.4 L813.6,74.1 L814.0,74.0 L814.4,73.5 L814.8,72.4 L815.2,70.4 L815.6,68.2 L816.0,68.1 L816.4,67.6 L817.2,67.5 L817.6,66.2 L818.0,65.2 L818.4,63.8 L818.8,63.6 L819.2,63.5 L819.6,61.4 L820.0,59.3 L820.0,160.0 Z"/>
  <polyline class="line" points="60.0,160.0 185.2,159.7 185.6,159.6 186.8,159.5 206.0,159.4 206.4,159.0 206.8,158.9 207.2,158.6 207.6,158.6 208.0,158.4 208.8,158.1 209.2,157.9 209.6,157.8 210.0,157.7 211.6,157.5 212.0,157.5 212.4,157.4 216.4,157.3 226.8,157.1 281.6,157.1 282.0,156.5 283.6,156.4 284.4,155.9 290.4,155.8 291.2,155.6 291.6,155.4 292.0,155.3 292.8,155.1 293.2,154.7 293.6,154.0 294.0,153.9 295.6,153.6 296.4,153.6 298.4,153.4 304.0,153.2 314.8,153.0 320.8,152.9 323.6,152.8 324.0,152.7 324.4,152.5 324.8,152.3 326.0,151.8 326.4,151.7 326.8,151.7 328.4,151.4 328.8,151.1 329.2,151.0 329.6,150.4 330.0,149.9 330.4,149.7 330.8,149.5 331.6,149.4 333.2,149.3 337.6,149.1 349.2,149.0 349.6,148.7 350.0,148.6 354.0,148.0 354.4,146.5 355.6,146.3 356.0,146.3 358.0,146.1 371.6,145.8 372.0,145.7 372.4,145.6 373.2,145.4 376.0,145.2 376.8,144.9 377.2,144.7 379.2,144.6 388.8,144.4 585.6,144.3 586.4,144.2 587.2,144.1 588.0,144.0 588.4,143.9 588.8,143.8 589.2,143.8 589.6,143.7 593.6,143.6 604.8,143.6 608.0,143.5 609.2,143.4 611.6,143.4 614.0,143.3 614.4,143.2 616.0,143.2 617.2,143.1 618.0,143.0 647.6,143.0 648.0,142.8 648.8,142.8 649.2,142.7 650.4,142.5 652.4,142.4 658.0,142.3 669.6,141.7 670.0,141.5 675.2,141.3 675.6,141.2 676.8,141.1 678.4,140.9 680.4,140.2 680.8,138.4 681.2,138.3 683.6,138.2 684.8,138.1 685.2,138.0 686.0,137.8 689.2,137.7 692.0,137.2 694.0,136.7 694.4,136.5 695.6,136.2 696.0,135.4 696.4,135.2 696.8,134.9 697.2,134.7 697.6,134.4 698.4,133.9 699.6,133.5 714.0,133.3 714.8,132.4 723.6,132.2 728.8,131.9 731.2,131.9 731.6,131.8 734.0,131.7 734.4,131.7 734.8,131.6 735.2,131.4 735.6,131.1 736.0,130.5 736.4,130.4 738.8,129.4 739.2,129.3 740.0,129.1 742.8,128.8 743.6,128.7 744.0,128.5 744.8,128.5 745.2,128.0 745.6,127.9 746.4,127.8 746.8,127.6 747.2,127.6 747.6,127.5 749.2,127.1 749.6,127.0 750.0,126.8 750.4,126.7 750.8,126.6 751.2,126.4 752.4,126.1 752.8,125.9 753.2,125.8 753.6,125.6 754.0,125.2 754.8,125.1 755.2,124.4 755.6,124.1 756.0,122.8 756.4,122.5 756.8,122.2 757.2,121.5 757.6,121.4 758.0,121.2 758.4,121.1 758.8,120.7 760.8,120.0 761.2,119.8 761.6,119.2 762.0,118.1 762.4,118.0 763.2,117.9 763.6,116.9 764.0,116.4 764.4,116.3 764.8,115.3 765.6,115.0 766.0,114.9 766.4,114.8 766.8,114.7 767.2,114.6 767.6,114.6 769.2,114.4 770.0,114.3 770.4,113.8 770.8,113.5 772.0,113.5 774.0,113.3 776.4,113.1 776.8,112.9 777.2,112.9 777.6,112.5 778.0,111.6 778.4,111.5 778.8,111.4 779.2,111.3 779.6,111.1 780.0,110.6 784.4,110.5 784.8,110.4 788.4,109.9 789.2,109.5 789.6,109.4 790.0,109.1 790.4,109.0 791.6,108.8 792.0,107.9 792.4,105.5 792.8,103.5 793.2,103.4 793.6,103.1 794.4,102.8 794.8,102.5 795.2,102.1 796.0,102.0 796.4,101.4 796.8,101.3 797.6,100.4 798.0,100.3 798.4,99.8 798.8,99.5 799.2,99.1 799.6,99.0 800.8,98.4 801.2,98.1 801.6,96.6 802.0,94.4 802.4,93.6 802.8,92.6 803.2,92.5 803.6,92.1 804.0,91.9 804.4,91.4 804.8,90.6 805.2,90.6 805.6,90.1 806.0,90.0 806.4,89.5 806.8,89.0 807.2,88.4 807.6,87.8 808.0,87.7 808.4,87.5 808.8,86.4 809.2,84.4 809.6,84.1 810.4,83.7 810.8,83.5 811.2,83.4 811.6,80.2 812.0,78.8 812.4,77.3 812.8,76.8 813.2,74.4 813.6,74.1 814.0,74.0 814.4,73.5 814.8,72.4 815.2,70.4 815.6,68.2 816.0,68.1 816.4,67.6 817.2,67.5 817.6,66.2 818.0,65.2 818.4,63.8 818.8,63.6 819.2,63.5 819.6,61.4 820.0,59.3"/>

  <g class="hoverpoint">
    <line x1="186.8" y1="30" x2="186.8" y2="160.0" class="guide"/>
    <circle cx="186.8" cy="159.5" r="16" class="hit"/>
    <circle cx="186.8" cy="159.5" r="4" class="hover-dot"><title>Nov 2021: 7 total (+7 this month)</title></circle>
    <rect x="116.8" y="133.5" width="140" height="20" rx="4" class="tooltip-bg"/>
    <text x="186.8" y="147.5" class="tooltip-text" text-anchor="middle">Nov 2021: 7 total (+7 this month)</text>
  </g>
  <g class="hoverpoint">
    <line x1="216.4" y1="30" x2="216.4" y2="160.0" class="guide"/>
    <circle cx="216.4" cy="157.3" r="16" class="hit"/>
    <circle cx="216.4" cy="157.3" r="4" class="hover-dot"><title>Jan 2022: 41 total (+34 this month)</title></circle>
    <rect x="146.4" y="131.3" width="140" height="20" rx="4" class="tooltip-bg"/>
    <text x="216.4" y="145.3" class="tooltip-text" text-anchor="middle">Jan 2022: 41 total (+34 this month)</text>
  </g>
  <g class="hoverpoint">
    <line x1="226.8" y1="30" x2="226.8" y2="160.0" class="guide"/>
    <circle cx="226.8" cy="157.1" r="16" class="hit"/>
    <circle cx="226.8" cy="157.1" r="4" class="hover-dot"><title>Feb 2022: 44 total (+3 this month)</title></circle>
    <rect x="156.8" y="131.1" width="140" height="20" rx="4" class="tooltip-bg"/>
    <text x="226.8" y="145.1" class="tooltip-text" text-anchor="middle">Feb 2022: 44 total (+3 this month)</text>
  </g>
  <g class="hoverpoint">
    <line x1="290.4" y1="30" x2="290.4" y2="160.0" class="guide"/>
    <circle cx="290.4" cy="155.8" r="16" class="hit"/>
    <circle cx="290.4" cy="155.8" r="4" class="hover-dot"><title>Jul 2022: 65 total (+21 this month)</title></circle>
    <rect x="220.4" y="129.8" width="140" height="20" rx="4" class="tooltip-bg"/>
    <text x="290.4" y="143.8" class="tooltip-text" text-anchor="middle">Jul 2022: 65 total (+21 this month)</text>
  </g>
  <g class="hoverpoint">
    <line x1="298.4" y1="30" x2="298.4" y2="160.0" class="guide"/>
    <circle cx="298.4" cy="153.4" r="16" class="hit"/>
    <circle cx="298.4" cy="153.4" r="4" class="hover-dot"><title>Aug 2022: 101 total (+36 this month)</title></circle>
    <rect x="228.4" y="127.4" width="140" height="20" rx="4" class="tooltip-bg"/>
    <text x="298.4" y="141.4" class="tooltip-text" text-anchor="middle">Aug 2022: 101 total (+36 this month)</text>
  </g>
  <g class="hoverpoint">
    <line x1="314.8" y1="30" x2="314.8" y2="160.0" class="guide"/>
    <circle cx="314.8" cy="153.0" r="16" class="hit"/>
    <circle cx="314.8" cy="153.0" r="4" class="hover-dot"><title>Sep 2022: 108 total (+7 this month)</title></circle>
    <rect x="244.8" y="127.0" width="140" height="20" rx="4" class="tooltip-bg"/>
    <text x="314.8" y="141.0" class="tooltip-text" text-anchor="middle">Sep 2022: 108 total (+7 this month)</text>
  </g>
  <g class="hoverpoint">
    <line x1="326.8" y1="30" x2="326.8" y2="160.0" class="guide"/>
    <circle cx="326.8" cy="151.7" r="16" class="hit"/>
    <circle cx="326.8" cy="151.7" r="4" class="hover-dot"><title>Oct 2022: 128 total (+20 this month)</title></circle>
    <rect x="256.8" y="125.7" width="140" height="20" rx="4" class="tooltip-bg"/>
    <text x="326.8" y="139.7" class="tooltip-text" text-anchor="middle">Oct 2022: 128 total (+20 this month)</text>
  </g>
  <g class="hoverpoint">
    <line x1="337.6" y1="30" x2="337.6" y2="160.0" class="guide"/>
    <circle cx="337.6" cy="149.1" r="16" class="hit"/>
    <circle cx="337.6" cy="149.1" r="4" class="hover-dot"><title>Nov 2022: 168 total (+40 this month)</title></circle>
    <rect x="267.6" y="123.1" width="140" height="20" rx="4" class="tooltip-bg"/>
    <text x="337.6" y="137.1" class="tooltip-text" text-anchor="middle">Nov 2022: 168 total (+40 this month)</text>
  </g>
  <g class="hoverpoint">
    <line x1="350.0" y1="30" x2="350.0" y2="160.0" class="guide"/>
    <circle cx="350.0" cy="148.6" r="16" class="hit"/>
    <circle cx="350.0" cy="148.6" r="4" class="hover-dot"><title>Dec 2022: 175 total (+7 this month)</title></circle>
    <rect x="280.0" y="122.6" width="140" height="20" rx="4" class="tooltip-bg"/>
    <text x="350.0" y="136.6" class="tooltip-text" text-anchor="middle">Dec 2022: 175 total (+7 this month)</text>
  </g>
  <g class="hoverpoint">
    <line x1="358.0" y1="30" x2="358.0" y2="160.0" class="guide"/>
    <circle cx="358.0" cy="146.1" r="16" class="hit"/>
    <circle cx="358.0" cy="146.1" r="4" class="hover-dot"><title>Jan 2023: 214 total (+39 this month)</title></circle>
    <rect x="288.0" y="120.1" width="140" height="20" rx="4" class="tooltip-bg"/>
    <text x="358.0" y="134.1" class="tooltip-text" text-anchor="middle">Jan 2023: 214 total (+39 this month)</text>
  </g>
  <g class="hoverpoint">
    <line x1="373.2" y1="30" x2="373.2" y2="160.0" class="guide"/>
    <circle cx="373.2" cy="145.4" r="16" class="hit"/>
    <circle cx="373.2" cy="145.4" r="4" class="hover-dot"><title>Feb 2023: 225 total (+11 this month)</title></circle>
    <rect x="303.2" y="119.4" width="140" height="20" rx="4" class="tooltip-bg"/>
    <text x="373.2" y="133.4" class="tooltip-text" text-anchor="middle">Feb 2023: 225 total (+11 this month)</text>
  </g>
  <g class="hoverpoint">
    <line x1="379.2" y1="30" x2="379.2" y2="160.0" class="guide"/>
    <circle cx="379.2" cy="144.6" r="16" class="hit"/>
    <circle cx="379.2" cy="144.6" r="4" class="hover-dot"><title>Mar 2023: 237 total (+12 this month)</title></circle>
    <rect x="309.2" y="118.6" width="140" height="20" rx="4" class="tooltip-bg"/>
    <text x="379.2" y="132.6" class="tooltip-text" text-anchor="middle">Mar 2023: 237 total (+12 this month)</text>
  </g>
  <g class="hoverpoint">
    <line x1="388.8" y1="30" x2="388.8" y2="160.0" class="guide"/>
    <circle cx="388.8" cy="144.4" r="16" class="hit"/>
    <circle cx="388.8" cy="144.4" r="4" class="hover-dot"><title>Apr 2023: 240 total (+3 this month)</title></circle>
    <rect x="318.8" y="118.4" width="140" height="20" rx="4" class="tooltip-bg"/>
    <text x="388.8" y="132.4" class="tooltip-text" text-anchor="middle">Apr 2023: 240 total (+3 this month)</text>
  </g>
  <g class="hoverpoint">
    <line x1="593.6" y1="30" x2="593.6" y2="160.0" class="guide"/>
    <circle cx="593.6" cy="143.6" r="16" class="hit"/>
    <circle cx="593.6" cy="143.6" r="4" class="hover-dot"><title>Aug 2024: 252 total (+12 this month)</title></circle>
    <rect x="523.6" y="117.6" width="140" height="20" rx="4" class="tooltip-bg"/>
    <text x="593.6" y="131.6" class="tooltip-text" text-anchor="middle">Aug 2024: 252 total (+12 this month)</text>
  </g>
  <g class="hoverpoint">
    <line x1="604.8" y1="30" x2="604.8" y2="160.0" class="guide"/>
    <circle cx="604.8" cy="143.6" r="16" class="hit"/>
    <circle cx="604.8" cy="143.6" r="4" class="hover-dot"><title>Sep 2024: 253 total (+1 this month)</title></circle>
    <rect x="534.8" y="117.6" width="140" height="20" rx="4" class="tooltip-bg"/>
    <text x="604.8" y="131.6" class="tooltip-text" text-anchor="middle">Sep 2024: 253 total (+1 this month)</text>
  </g>
  <g class="hoverpoint">
    <line x1="618.0" y1="30" x2="618.0" y2="160.0" class="guide"/>
    <circle cx="618.0" cy="143.0" r="16" class="hit"/>
    <circle cx="618.0" cy="143.0" r="4" class="hover-dot"><title>Oct 2024: 261 total (+8 this month)</title></circle>
    <rect x="548.0" y="117.0" width="140" height="20" rx="4" class="tooltip-bg"/>
    <text x="618.0" y="131.0" class="tooltip-text" text-anchor="middle">Oct 2024: 261 total (+8 this month)</text>
  </g>
  <g class="hoverpoint">
    <line x1="652.4" y1="30" x2="652.4" y2="160.0" class="guide"/>
    <circle cx="652.4" cy="142.4" r="16" class="hit"/>
    <circle cx="652.4" cy="142.4" r="4" class="hover-dot"><title>Jan 2025: 270 total (+9 this month)</title></circle>
    <rect x="582.4" y="116.4" width="140" height="20" rx="4" class="tooltip-bg"/>
    <text x="652.4" y="130.4" class="tooltip-text" text-anchor="middle">Jan 2025: 270 total (+9 this month)</text>
  </g>
  <g class="hoverpoint">
    <line x1="658.0" y1="30" x2="658.0" y2="160.0" class="guide"/>
    <circle cx="658.0" cy="142.3" r="16" class="hit"/>
    <circle cx="658.0" cy="142.3" r="4" class="hover-dot"><title>Feb 2025: 272 total (+2 this month)</title></circle>
    <rect x="588.0" y="116.3" width="140" height="20" rx="4" class="tooltip-bg"/>
    <text x="658.0" y="130.3" class="tooltip-text" text-anchor="middle">Feb 2025: 272 total (+2 this month)</text>
  </g>
  <g class="hoverpoint">
    <line x1="678.4" y1="30" x2="678.4" y2="160.0" class="guide"/>
    <circle cx="678.4" cy="140.9" r="16" class="hit"/>
    <circle cx="678.4" cy="140.9" r="4" class="hover-dot"><title>Mar 2025: 294 total (+22 this month)</title></circle>
    <rect x="608.4" y="114.9" width="140" height="20" rx="4" class="tooltip-bg"/>
    <text x="678.4" y="128.9" class="tooltip-text" text-anchor="middle">Mar 2025: 294 total (+22 this month)</text>
  </g>
  <g class="hoverpoint">
    <line x1="692.0" y1="30" x2="692.0" y2="160.0" class="guide"/>
    <circle cx="692.0" cy="137.2" r="16" class="hit"/>
    <circle cx="692.0" cy="137.2" r="4" class="hover-dot"><title>Apr 2025: 351 total (+57 this month)</title></circle>
    <rect x="622.0" y="111.2" width="140" height="20" rx="4" class="tooltip-bg"/>
    <text x="692.0" y="125.2" class="tooltip-text" text-anchor="middle">Apr 2025: 351 total (+57 this month)</text>
  </g>
  <g class="hoverpoint">
    <line x1="699.6" y1="30" x2="699.6" y2="160.0" class="guide"/>
    <circle cx="699.6" cy="133.5" r="16" class="hit"/>
    <circle cx="699.6" cy="133.5" r="4" class="hover-dot"><title>May 2025: 408 total (+57 this month)</title></circle>
    <rect x="629.6" y="107.5" width="140" height="20" rx="4" class="tooltip-bg"/>
    <text x="699.6" y="121.5" class="tooltip-text" text-anchor="middle">May 2025: 408 total (+57 this month)</text>
  </g>
  <g class="hoverpoint">
    <line x1="714.8" y1="30" x2="714.8" y2="160.0" class="guide"/>
    <circle cx="714.8" cy="132.4" r="16" class="hit"/>
    <circle cx="714.8" cy="132.4" r="4" class="hover-dot"><title>Jun 2025: 424 total (+16 this month)</title></circle>
    <rect x="644.8" y="106.4" width="140" height="20" rx="4" class="tooltip-bg"/>
    <text x="714.8" y="120.4" class="tooltip-text" text-anchor="middle">Jun 2025: 424 total (+16 this month)</text>
  </g>
  <g class="hoverpoint">
    <line x1="728.8" y1="30" x2="728.8" y2="160.0" class="guide"/>
    <circle cx="728.8" cy="131.9" r="16" class="hit"/>
    <circle cx="728.8" cy="131.9" r="4" class="hover-dot"><title>Jul 2025: 432 total (+8 this month)</title></circle>
    <rect x="658.8" y="105.9" width="140" height="20" rx="4" class="tooltip-bg"/>
    <text x="728.8" y="119.9" class="tooltip-text" text-anchor="middle">Jul 2025: 432 total (+8 this month)</text>
  </g>
  <g class="hoverpoint">
    <line x1="740.0" y1="30" x2="740.0" y2="160.0" class="guide"/>
    <circle cx="740.0" cy="129.1" r="16" class="hit"/>
    <circle cx="740.0" cy="129.1" r="4" class="hover-dot"><title>Aug 2025: 475 total (+43 this month)</title></circle>
    <rect x="670.0" y="103.1" width="140" height="20" rx="4" class="tooltip-bg"/>
    <text x="740.0" y="117.1" class="tooltip-text" text-anchor="middle">Aug 2025: 475 total (+43 this month)</text>
  </g>
  <g class="hoverpoint">
    <line x1="753.2" y1="30" x2="753.2" y2="160.0" class="guide"/>
    <circle cx="753.2" cy="125.8" r="16" class="hit"/>
    <circle cx="753.2" cy="125.8" r="4" class="hover-dot"><title>Sep 2025: 526 total (+51 this month)</title></circle>
    <rect x="683.2" y="99.8" width="140" height="20" rx="4" class="tooltip-bg"/>
    <text x="753.2" y="113.8" class="tooltip-text" text-anchor="middle">Sep 2025: 526 total (+51 this month)</text>
  </g>
  <g class="hoverpoint">
    <line x1="765.6" y1="30" x2="765.6" y2="160.0" class="guide"/>
    <circle cx="765.6" cy="115.0" r="16" class="hit"/>
    <circle cx="765.6" cy="115.0" r="4" class="hover-dot"><title>Oct 2025: 692 total (+166 this month)</title></circle>
    <rect x="695.6" y="89.0" width="140" height="20" rx="4" class="tooltip-bg"/>
    <text x="765.6" y="103.0" class="tooltip-text" text-anchor="middle">Oct 2025: 692 total (+166 this month)</text>
  </g>
  <g class="hoverpoint">
    <line x1="777.6" y1="30" x2="777.6" y2="160.0" class="guide"/>
    <circle cx="777.6" cy="112.5" r="16" class="hit"/>
    <circle cx="777.6" cy="112.5" r="4" class="hover-dot"><title>Nov 2025: 731 total (+39 this month)</title></circle>
    <rect x="707.6" y="86.5" width="140" height="20" rx="4" class="tooltip-bg"/>
    <text x="777.6" y="100.5" class="tooltip-text" text-anchor="middle">Nov 2025: 731 total (+39 this month)</text>
  </g>
  <g class="hoverpoint">
    <line x1="790.0" y1="30" x2="790.0" y2="160.0" class="guide"/>
    <circle cx="790.0" cy="109.1" r="16" class="hit"/>
    <circle cx="790.0" cy="109.1" r="4" class="hover-dot"><title>Dec 2025: 783 total (+52 this month)</title></circle>
    <rect x="720.0" y="83.1" width="140" height="20" rx="4" class="tooltip-bg"/>
    <text x="790.0" y="97.1" class="tooltip-text" text-anchor="middle">Dec 2025: 783 total (+52 this month)</text>
  </g>
  <g class="hoverpoint">
    <line x1="802.4" y1="30" x2="802.4" y2="160.0" class="guide"/>
    <circle cx="802.4" cy="93.6" r="16" class="hit"/>
    <circle cx="802.4" cy="93.6" r="4" class="hover-dot"><title>Jan 2026: 1,022 total (+239 this month)</title></circle>
    <rect x="732.4" y="67.6" width="140" height="20" rx="4" class="tooltip-bg"/>
    <text x="802.4" y="81.6" class="tooltip-text" text-anchor="middle">Jan 2026: 1,022 total (+239 this month)</text>
  </g>
  <g class="hoverpoint">
    <line x1="813.6" y1="30" x2="813.6" y2="160.0" class="guide"/>
    <circle cx="813.6" cy="74.1" r="16" class="hit"/>
    <circle cx="813.6" cy="74.1" r="4" class="hover-dot"><title>Feb 2026: 1,321 total (+299 this month)</title></circle>
    <rect x="743.6" y="48.1" width="140" height="20" rx="4" class="tooltip-bg"/>
    <text x="813.6" y="62.1" class="tooltip-text" text-anchor="middle">Feb 2026: 1,321 total (+299 this month)</text>
  </g>
  <g class="hoverpoint">
    <line x1="820.0" y1="30" x2="820.0" y2="160.0" class="guide"/>
    <circle cx="820.0" cy="59.3" r="16" class="hit"/>
    <circle cx="820.0" cy="59.3" r="4" class="hover-dot"><title>Mar 2026: 1,549 total (+228 this month)</title></circle>
    <rect x="750.0" y="33.3" width="140" height="20" rx="4" class="tooltip-bg"/>
    <text x="820.0" y="47.3" class="tooltip-text" text-anchor="middle">Mar 2026: 1,549 total (+228 this month)</text>
  </g>

  <circle cx="820.0" cy="59.3" r="4" class="dot"/>
  <text x="810.0" y="49.3" class="total">1,549</text>

</svg>