<svg xmlns="http://www.w3.org/2000/svg" width="840" height="196" viewBox="0 0 840 196" fill="none">
  <style>
    .label { font-family: -apple-system, BlinkMacSystemFont, 'Segoe UI', Helvetica, Arial, sans-serif; font-size: 10px; fill: #8b949e; }
    .title { font-family: -apple-system, BlinkMacSystemFont, 'Segoe UI', Helvetica, Arial, sans-serif; font-size: 11px; fill: #8b949e; font-weight: 600; }
    .total { font-family: -apple-system, BlinkMacSystemFont, 'Segoe UI', Helvetica, Arial, sans-serif; font-size: 11px; fill: #7ee787; font-weight: 600; }
    .grid { stroke: #21262d; stroke-width: 1; }
    .line { stroke: #7ee787; stroke-width: 2; stroke-linecap: round; stroke-linejoin: round; fill: none; }
    .dot { fill: #7ee787; }
    .area { fill: url(#areaGrad); }
    /* Hover interaction */
    .hoverpoint .guide { stroke: #7ee787; stroke-width: 1; stroke-dasharray: 2,2; opacity: 0; }
    .hoverpoint .hover-dot { fill: #7ee787; opacity: 0; }
    .hoverpoint .hit { fill: transparent; cursor: pointer; }
    .hoverpoint .tooltip-bg { fill: #161b22; stroke: #30363d; stroke-width: 1; opacity: 0; }
    .hoverpoint .tooltip-text { font-family: -apple-system, BlinkMacSystemFont, 'Segoe UI', Helvetica, Arial, sans-serif; font-size: 9px; fill: #c9d1d9; opacity: 0; }
    .hoverpoint:hover .guide { opacity: 0.5; }
    .hoverpoint:hover .hover-dot { opacity: 1; }
    .hoverpoint:hover .tooltip-bg { opacity: 0.95; }
    .hoverpoint:hover .tooltip-text { opacity: 1; }
  </style>
  <defs>
    <linearGradient id="areaGrad" x1="0" y1="0" x2="0" y2="1">
      <stop offset="0%" stop-color="#7ee787" stop-opacity="0.15"/>
      <stop offset="100%" stop-color="#7ee787" stop-opacity="0.01"/>
    </linearGradient>
  </defs>

  <text x="60" y="18" class="title">Cumulative Commits</text>

  <line x1="60" y1="160.0" x2="820" y2="160.0" class="grid"/>
  <text x="50" y="163.0" class="label" text-anchor="end">0</text>
  <line x1="60" y1="127.5" x2="820" y2="127.5" class="grid" stroke-dasharray="3,3"/>
  <text x="50" y="130.5" class="label" text-anchor="end">1,000</text>
  <line x1="60" y1="95.0" x2="820" y2="95.0" class="grid" stroke-dasharray="3,3"/>
  <text x="50" y="98.0" class="label" text-anchor="end">2,000</text>
  <line x1="60" y1="62.5" x2="820" y2="62.5" class="grid" stroke-dasharray="3,3"/>
  <text x="50" y="65.5" class="label" text-anchor="end">3,000</text>
  <line x1="60" y1="30.0" x2="820" y2="30.0" class="grid" stroke-dasharray="3,3"/>
  <text x="50" y="33.0" class="label" text-anchor="end">4,000</text>

  <text x="70.0" y="186" class="label" text-anchor="middle">2021</text>
  <text x="199.5" y="186" class="label" text-anchor="middle">2022</text>
  <text x="338.9" y="186" class="label" text-anchor="middle">2023</text>
  <text x="478.4" y="186" class="label" text-anchor="middle">2024</text>
  <text x="618.3" y="186" class="label" text-anchor="middle">2025</text>
  <text x="757.7" y="186" class="label" text-anchor="middle">2026</text>


  <path class="area" d="M60.0,160.0 L60.0,160.0 60.0,160.0 L179.6,159.8 L180.0,159.8 L181.1,159.8 L199.5,159.7 L199.8,159.5 L200.2,159.4 L200.6,159.3 L201.0,159.3 L201.4,159.2 L202.1,159.1 L202.5,159.0 L202.9,158.9 L203.3,158.9 L204.8,158.8 L205.2,158.7 L205.6,158.7 L209.4,158.7 L219.3,158.6 L271.7,158.5 L272.1,158.2 L273.6,158.2 L274.4,158.0 L280.1,157.9 L280.9,157.8 L281.2,157.7 L281.6,157.7 L282.4,157.6 L282.8,157.3 L283.1,157.0 L283.5,156.9 L285.1,156.8 L285.8,156.8 L287.7,156.7 L293.1,156.6 L303.4,156.5 L309.1,156.5 L311.8,156.4 L312.2,156.4 L312.6,156.3 L313.0,156.1 L314.1,155.9 L314.5,155.9 L314.9,155.8 L316.4,155.7 L316.8,155.5 L317.2,155.5 L317.5,155.2 L317.9,154.9 L318.3,154.8 L318.7,154.8 L319.4,154.7 L321.0,154.6 L325.2,154.5 L336.3,154.5 L336.6,154.3 L337.0,154.3 L340.8,154.0 L341.2,153.3 L342.4,153.2 L342.8,153.1 L344.7,153.0 L357.7,152.9 L358.0,152.8 L358.4,152.8 L359.2,152.7 L361.9,152.6 L362.6,152.4 L363.0,152.4 L364.9,152.3 L374.1,152.2 L562.1,152.1 L562.8,152.1 L563.6,152.1 L564.4,152.0 L564.8,151.9 L565.1,151.9 L565.5,151.9 L565.9,151.8 L569.7,151.8 L580.4,151.8 L583.5,151.7 L584.6,151.7 L586.9,151.7 L589.2,151.6 L589.6,151.6 L591.1,151.6 L592.3,151.6 L593.0,151.5 L621.3,151.5 L621.7,151.4 L622.5,151.4 L622.8,151.4 L624.0,151.3 L625.9,151.2 L631.2,151.2 L642.3,150.9 L642.7,150.7 L647.7,150.7 L648.1,150.6 L649.2,150.5 L650.7,150.4 L652.6,150.1 L653.0,149.2 L653.4,149.1 L655.7,149.1 L656.8,149.0 L657.2,149.0 L658.0,148.9 L661.0,148.9 L663.7,148.6 L665.6,148.4 L666.0,148.3 L667.2,148.1 L667.5,147.7 L667.9,147.6 L668.3,147.5 L668.7,147.4 L669.1,147.2 L669.8,146.9 L671.0,146.7 L684.7,146.6 L685.5,146.2 L693.9,146.1 L698.9,146.0 L701.2,145.9 L701.5,145.9 L703.8,145.9 L704.2,145.8 L704.6,145.8 L705.0,145.7 L705.4,145.6 L705.8,145.2 L706.1,145.2 L708.4,144.7 L708.8,144.6 L709.6,144.6 L712.2,144.4 L713.0,144.4 L713.4,144.3 L714.2,144.2 L714.5,144.0 L714.9,143.9 L715.7,143.9 L716.1,143.8 L716.5,143.8 L716.8,143.8 L718.4,143.6 L718.7,143.5 L719.1,143.4 L719.5,143.4 L719.9,143.3 L720.3,143.2 L721.4,143.1 L721.8,143.0 L722.2,142.9 L722.6,142.8 L722.9,142.6 L723.7,142.5 L724.1,142.2 L724.5,142.0 L724.9,141.4 L725.2,141.2 L725.6,141.1 L726.0,140.8 L726.4,140.7 L726.8,140.6 L727.1,140.6 L727.5,140.3 L729.4,140.0 L729.8,139.9 L730.2,139.6 L730.6,139.0 L731.0,139.0 L731.7,138.9 L732.1,138.5 L732.5,138.2 L732.9,138.2 L733.3,137.6 L734.0,137.5 L734.4,137.4 L734.8,137.4 L735.2,137.3 L735.6,137.3 L735.9,137.3 L737.5,137.2 L738.2,137.2 L738.6,136.9 L739.0,136.8 L740.1,136.7 L742.1,136.7 L744.3,136.5 L744.7,136.5 L745.1,136.4 L745.5,136.2 L745.9,135.8 L746.3,135.8 L746.6,135.7 L747.0,135.7 L747.4,135.6 L747.8,135.3 L752.0,135.2 L752.4,135.2 L755.8,135.0 L756.6,134.7 L757.0,134.7 L757.3,134.6 L757.7,134.5 L758.9,134.4 L759.2,133.9 L759.6,132.8 L760.0,131.7 L760.4,131.7 L760.8,131.6 L761.5,131.4 L761.9,131.3 L762.3,131.0 L763.1,131.0 L763.4,130.7 L763.8,130.7 L764.6,130.2 L765.0,130.2 L765.4,129.9 L765.7,129.7 L766.1,129.5 L766.5,129.5 L767.7,129.2 L768.0,129.1 L768.4,128.3 L768.8,127.2 L769.2,126.8 L769.6,126.3 L769.9,126.2 L770.3,126.1 L770.7,125.9 L771.1,125.7 L771.5,125.3 L771.9,125.3 L772.2,125.0 L772.6,125.0 L773.0,124.7 L773.4,124.5 L773.8,124.2 L774.1,123.9 L774.5,123.8 L774.9,123.7 L775.3,123.2 L775.7,122.2 L776.1,122.0 L776.8,121.8 L777.2,121.7 L777.6,121.7 L778.0,120.1 L778.4,119.4 L778.7,118.7 L779.1,118.4 L779.5,117.2 L779.9,117.1 L780.3,117.0 L780.6,116.7 L781.0,116.2 L781.4,115.2 L781.8,114.1 L782.2,114.0 L782.6,113.8 L783.3,113.8 L783.7,113.1 L784.1,112.6 L784.5,111.9 L784.8,111.8 L785.2,111.8 L785.6,110.7 L786.0,109.5 L786.4,108.9 L786.8,108.7 L787.1,108.3 L787.5,108.0 L787.9,108.0 L788.7,107.8 L789.0,107.6 L789.4,107.6 L789.8,107.5 L790.2,107.5 L791.3,107.5 L791.7,107.4 L792.5,107.4 L793.3,107.3 L793.6,107.3 L794.4,106.9 L794.8,106.6 L795.2,106.3 L797.5,106.2 L797.8,106.0 L798.2,105.9 L798.6,105.7 L799.0,105.6 L799.4,105.5 L799.7,105.5 L800.1,105.0 L800.5,104.5 L800.9,104.3 L801.3,103.4 L801.7,103.2 L802.4,103.2 L802.8,103.2 L804.0,102.9 L804.3,102.5 L804.7,102.2 L805.1,102.0 L805.5,101.3 L805.9,98.5 L806.2,97.3 L806.6,97.1 L807.0,96.9 L807.4,96.4 L807.8,96.3 L808.2,92.4 L808.5,87.6 L808.9,86.2 L809.3,86.2 L809.7,85.4 L810.1,84.9 L810.4,82.0 L810.8,80.2 L811.2,77.5 L811.6,77.0 L812.0,76.9 L812.4,76.8 L812.7,75.9 L813.1,74.6 L813.5,71.6 L813.9,71.1 L814.3,70.5 L814.7,69.7 L815.0,69.2 L815.4,68.7 L815.8,66.9 L816.2,66.5 L816.6,66.4 L816.9,66.1 L817.3,66.0 L817.7,65.7 L818.1,65.6 L818.5,64.7 L818.9,63.4 L819.2,62.9 L819.6,62.8 L820.0,62.4 L820.0,160.0 Z"/>
  <polyline class="line" points="60.0,160.0 179.6,159.8 180.0,159.8 181.1,159.8 199.5,159.7 199.8,159.5 200.2,159.4 200.6,159.3 201.0,159.3 201.4,159.2 202.1,159.1 202.5,159.0 202.9,158.9 203.3,158.9 204.8,158.8 205.2,158.7 205.6,158.7 209.4,158.7 219.3,158.6 271.7,158.5 272.1,158.2 273.6,158.2 274.4,158.0 280.1,157.9 280.9,157.8 281.2,157.7 281.6,157.7 282.4,157.6 282.8,157.3 283.1,157.0 283.5,156.9 285.1,156.8 285.8,156.8 287.7,156.7 293.1,156.6 303.4,156.5 309.1,156.5 311.8,156.4 312.2,156.4 312.6,156.3 313.0,156.1 314.1,155.9 314.5,155.9 314.9,155.8 316.4,155.7 316.8,155.5 317.2,155.5 317.5,155.2 317.9,154.9 318.3,154.8 318.7,154.8 319.4,154.7 321.0,154.6 325.2,154.5 336.3,154.5 336.6,154.3 337.0,154.3 340.8,154.0 341.2,153.3 342.4,153.2 342.8,153.1 344.7,153.0 357.7,152.9 358.0,152.8 358.4,152.8 359.2,152.7 361.9,152.6 362.6,152.4 363.0,152.4 364.9,152.3 374.1,152.2 562.1,152.1 562.8,152.1 563.6,152.1 564.4,152.0 564.8,151.9 565.1,151.9 565.5,151.9 565.9,151.8 569.7,151.8 580.4,151.8 583.5,151.7 584.6,151.7 586.9,151.7 589.2,151.6 589.6,151.6 591.1,151.6 592.3,151.6 593.0,151.5 621.3,151.5 621.7,151.4 622.5,151.4 622.8,151.4 624.0,151.3 625.9,151.2 631.2,151.2 642.3,150.9 642.7,150.7 647.7,150.7 648.1,150.6 649.2,150.5 650.7,150.4 652.6,150.1 653.0,149.2 653.4,149.1 655.7,149.1 656.8,149.0 657.2,149.0 658.0,148.9 661.0,148.9 663.7,148.6 665.6,148.4 666.0,148.3 667.2,148.1 667.5,147.7 667.9,147.6 668.3,147.5 668.7,147.4 669.1,147.2 669.8,146.9 671.0,146.7 684.7,146.6 685.5,146.2 693.9,146.1 698.9,146.0 701.2,145.9 701.5,145.9 703.8,145.9 704.2,145.8 704.6,145.8 705.0,145.7 705.4,145.6 705.8,145.2 706.1,145.2 708.4,144.7 708.8,144.6 709.6,144.6 712.2,144.4 713.0,144.4 713.4,144.3 714.2,144.2 714.5,144.0 714.9,143.9 715.7,143.9 716.1,143.8 716.5,143.8 716.8,143.8 718.4,143.6 718.7,143.5 719.1,143.4 719.5,143.4 719.9,143.3 720.3,143.2 721.4,143.1 721.8,143.0 722.2,142.9 722.6,142.8 722.9,142.6 723.7,142.5 724.1,142.2 724.5,142.0 724.9,141.4 725.2,141.2 725.6,141.1 726.0,140.8 726.4,140.7 726.8,140.6 727.1,140.6 727.5,140.3 729.4,140.0 729.8,139.9 730.2,139.6 730.6,139.0 731.0,139.0 731.7,138.9 732.1,138.5 732.5,138.2 732.9,138.2 733.3,137.6 734.0,137.5 734.4,137.4 734.8,137.4 735.2,137.3 735.6,137.3 735.9,137.3 737.5,137.2 738.2,137.2 738.6,136.9 739.0,136.8 740.1,136.7 742.1,136.7 744.3,136.5 744.7,136.5 745.1,136.4 745.5,136.2 745.9,135.8 746.3,135.8 746.6,135.7 747.0,135.7 747.4,135.6 747.8,135.3 752.0,135.2 752.4,135.2 755.8,135.0 756.6,134.7 757.0,134.7 757.3,134.6 757.7,134.5 758.9,134.4 759.2,133.9 759.6,132.8 760.0,131.7 760.4,131.7 760.8,131.6 761.5,131.4 761.9,131.3 762.3,131.0 763.1,131.0 763.4,130.7 763.8,130.7 764.6,130.2 765.0,130.2 765.4,129.9 765.7,129.7 766.1,129.5 766.5,129.5 767.7,129.2 768.0,129.1 768.4,128.3 768.8,127.2 769.2,126.8 769.6,126.3 769.9,126.2 770.3,126.1 770.7,125.9 771.1,125.7 771.5,125.3 771.9,125.3 772.2,125.0 772.6,125.0 773.0,124.7 773.4,124.5 773.8,124.2 774.1,123.9 774.5,123.8 774.9,123.7 775.3,123.2 775.7,122.2 776.1,122.0 776.8,121.8 777.2,121.7 777.6,121.7 778.0,120.1 778.4,119.4 778.7,118.7 779.1,118.4 779.5,117.2 779.9,117.1 780.3,117.0 780.6,116.7 781.0,116.2 781.4,115.2 781.8,114.1 782.2,114.0 782.6,113.8 783.3,113.8 783.7,113.1 784.1,112.6 784.5,111.9 784.8,111.8 785.2,111.8 785.6,110.7 786.0,109.5 786.4,108.9 786.8,108.7 787.1,108.3 787.5,108.0 787.9,108.0 788.7,107.8 789.0,107.6 789.4,107.6 789.8,107.5 790.2,107.5 791.3,107.5 791.7,107.4 792.5,107.4 793.3,107.3 793.6,107.3 794.4,106.9 794.8,106.6 795.2,106.3 797.5,106.2 797.8,106.0 798.2,105.9 798.6,105.7 799.0,105.6 799.4,105.5 799.7,105.5 800.1,105.0 800.5,104.5 800.9,104.3 801.3,103.4 801.7,103.2 802.4,103.2 802.8,103.2 804.0,102.9 804.3,102.5 804.7,102.2 805.1,102.0 805.5,101.3 805.9,98.5 806.2,97.3 806.6,97.1 807.0,96.9 807.4,96.4 807.8,96.3 808.2,92.4 808.5,87.6 808.9,86.2 809.3,86.2 809.7,85.4 810.1,84.9 810.4,82.0 810.8,80.2 811.2,77.5 811.6,77.0 812.0,76.9 812.4,76.8 812.7,75.9 813.1,74.6 813.5,71.6 813.9,71.1 814.3,70.5 814.7,69.7 815.0,69.2 815.4,68.7 815.8,66.9 816.2,66.5 816.6,66.4 816.9,66.1 817.3,66.0 817.7,65.7 818.1,65.6 818.5,64.7 818.9,63.4 819.2,62.9 819.6,62.8 820.0,62.4"/>

  <g class="hoverpoint">
    <line x1="181.1" y1="30" x2="181.1" y2="160.0" class="guide"/>
    <circle cx="181.1" cy="159.8" r="16" class="hit"/>
    <circle cx="181.1" cy="159.8" r="4" class="hover-dot"><title>Nov 2021: 7 total (+7 this month)</title></circle>
    <rect x="111.1" y="133.8" width="140" height="20" rx="4" class="tooltip-bg"/>
    <text x="181.1" y="147.8" class="tooltip-text" text-anchor="middle">Nov 2021: 7 total (+7 this month)</text>
  </g>
  <g class="hoverpoint">
    <line x1="209.4" y1="30" x2="209.4" y2="160.0" class="guide"/>
    <circle cx="209.4" cy="158.7" r="16" class="hit"/>
    <circle cx="209.4" cy="158.7" r="4" class="hover-dot"><title>Jan 2022: 41 total (+34 this month)</title></circle>
    <rect x="139.4" y="132.7" width="140" height="20" rx="4" class="tooltip-bg"/>
    <text x="209.4" y="146.7" class="tooltip-text" text-anchor="middle">Jan 2022: 41 total (+34 this month)</text>
  </g>
  <g class="hoverpoint">
    <line x1="219.3" y1="30" x2="219.3" y2="160.0" class="guide"/>
    <circle cx="219.3" cy="158.6" r="16" class="hit"/>
    <circle cx="219.3" cy="158.6" r="4" class="hover-dot"><title>Feb 2022: 44 total (+3 this month)</title></circle>
    <rect x="149.3" y="132.6" width="140" height="20" rx="4" class="tooltip-bg"/>
    <text x="219.3" y="146.6" class="tooltip-text" text-anchor="middle">Feb 2022: 44 total (+3 this month)</text>
  </g>
  <g class="hoverpoint">
    <line x1="280.1" y1="30" x2="280.1" y2="160.0" class="guide"/>
    <circle cx="280.1" cy="157.9" r="16" class="hit"/>
    <circle cx="280.1" cy="157.9" r="4" class="hover-dot"><title>Jul 2022: 65 total (+21 this month)</title></circle>
    <rect x="210.1" y="131.9" width="140" height="20" rx="4" class="tooltip-bg"/>
    <text x="280.1" y="145.9" class="tooltip-text" text-anchor="middle">Jul 2022: 65 total (+21 this month)</text>
  </g>
  <g class="hoverpoint">
    <line x1="287.7" y1="30" x2="287.7" y2="160.0" class="guide"/>
    <circle cx="287.7" cy="156.7" r="16" class="hit"/>
    <circle cx="287.7" cy="156.7" r="4" class="hover-dot"><title>Aug 2022: 101 total (+36 this month)</title></circle>
    <rect x="217.7" y="130.7" width="140" height="20" rx="4" class="tooltip-bg"/>
    <text x="287.7" y="144.7" class="tooltip-text" text-anchor="middle">Aug 2022: 101 total (+36 this month)</text>
  </g>
  <g class="hoverpoint">
    <line x1="303.4" y1="30" x2="303.4" y2="160.0" class="guide"/>
    <circle cx="303.4" cy="156.5" r="16" class="hit"/>
    <circle cx="303.4" cy="156.5" r="4" class="hover-dot"><title>Sep 2022: 108 total (+7 this month)</title></circle>
    <rect x="233.4" y="130.5" width="140" height="20" rx="4" class="tooltip-bg"/>
    <text x="303.4" y="144.5" class="tooltip-text" text-anchor="middle">Sep 2022: 108 total (+7 this month)</text>
  </g>
  <g class="hoverpoint">
    <line x1="314.9" y1="30" x2="314.9" y2="160.0" class="guide"/>
    <circle cx="314.9" cy="155.8" r="16" class="hit"/>
    <circle cx="314.9" cy="155.8" r="4" class="hover-dot"><title>Oct 2022: 128 total (+20 this month)</title></circle>
    <rect x="244.9" y="129.8" width="140" height="20" rx="4" class="tooltip-bg"/>
    <text x="314.9" y="143.8" class="tooltip-text" text-anchor="middle">Oct 2022: 128 total (+20 this month)</text>
  </g>
  <g class="hoverpoint">
    <line x1="325.2" y1="30" x2="325.2" y2="160.0" class="guide"/>
    <circle cx="325.2" cy="154.5" r="16" class="hit"/>
    <circle cx="325.2" cy="154.5" r="4" class="hover-dot"><title>Nov 2022: 168 total (+40 this month)</title></circle>
    <rect x="255.2" y="128.5" width="140" height="20" rx="4" class="tooltip-bg"/>
    <text x="325.2" y="142.5" class="tooltip-text" text-anchor="middle">Nov 2022: 168 total (+40 this month)</text>
  </g>
  <g class="hoverpoint">
    <line x1="337.0" y1="30" x2="337.0" y2="160.0" class="guide"/>
    <circle cx="337.0" cy="154.3" r="16" class="hit"/>
    <circle cx="337.0" cy="154.3" r="4" class="hover-dot"><title>Dec 2022: 175 total (+7 this month)</title></circle>
    <rect x="267.0" y="128.3" width="140" height="20" rx="4" class="tooltip-bg"/>
    <text x="337.0" y="142.3" class="tooltip-text" text-anchor="middle">Dec 2022: 175 total (+7 this month)</text>
  </g>
  <g class="hoverpoint">
    <line x1="344.7" y1="30" x2="344.7" y2="160.0" class="guide"/>
    <circle cx="344.7" cy="153.0" r="16" class="hit"/>
    <circle cx="344.7" cy="153.0" r="4" class="hover-dot"><title>Jan 2023: 214 total (+39 this month)</title></circle>
    <rect x="274.7" y="127.0" width="140" height="20" rx="4" class="tooltip-bg"/>
    <text x="344.7" y="141.0" class="tooltip-text" text-anchor="middle">Jan 2023: 214 total (+39 this month)</text>
  </g>
  <g class="hoverpoint">
    <line x1="359.2" y1="30" x2="359.2" y2="160.0" class="guide"/>
    <circle cx="359.2" cy="152.7" r="16" class="hit"/>
    <circle cx="359.2" cy="152.7" r="4" class="hover-dot"><title>Feb 2023: 225 total (+11 this month)</title></circle>
    <rect x="289.2" y="126.7" width="140" height="20" rx="4" class="tooltip-bg"/>
    <text x="359.2" y="140.7" class="tooltip-text" text-anchor="middle">Feb 2023: 225 total (+11 this month)</text>
  </g>
  <g class="hoverpoint">
    <line x1="364.9" y1="30" x2="364.9" y2="160.0" class="guide"/>
    <circle cx="364.9" cy="152.3" r="16" class="hit"/>
    <circle cx="364.9" cy="152.3" r="4" class="hover-dot"><title>Mar 2023: 237 total (+12 this month)</title></circle>
    <rect x="294.9" y="126.3" width="140" height="20" rx="4" class="tooltip-bg"/>
    <text x="364.9" y="140.3" class="tooltip-text" text-anchor="middle">Mar 2023: 237 total (+12 this month)</text>
  </g>
  <g class="hoverpoint">
    <line x1="374.1" y1="30" x2="374.1" y2="160.0" class="guide"/>
    <circle cx="374.1" cy="152.2" r="16" class="hit"/>
    <circle cx="374.1" cy="152.2" r="4" class="hover-dot"><title>Apr 2023: 240 total (+3 this month)</title></circle>
    <rect x="304.1" y="126.2" width="140" height="20" rx="4" class="tooltip-bg"/>
    <text x="374.1" y="140.2" class="tooltip-text" text-anchor="middle">Apr 2023: 240 total (+3 this month)</text>
  </g>
  <g class="hoverpoint">
    <line x1="569.7" y1="30" x2="569.7" y2="160.0" class="guide"/>
    <circle cx="569.7" cy="151.8" r="16" class="hit"/>
    <circle cx="569.7" cy="151.8" r="4" class="hover-dot"><title>Aug 2024: 252 total (+12 this month)</title></circle>
    <rect x="499.7" y="125.8" width="140" height="20" rx="4" class="tooltip-bg"/>
    <text x="569.7" y="139.8" class="tooltip-text" text-anchor="middle">Aug 2024: 252 total (+12 this month)</text>
  </g>
  <g class="hoverpoint">
    <line x1="580.4" y1="30" x2="580.4" y2="160.0" class="guide"/>
    <circle cx="580.4" cy="151.8" r="16" class="hit"/>
    <circle cx="580.4" cy="151.8" r="4" class="hover-dot"><title>Sep 2024: 253 total (+1 this month)</title></circle>
    <rect x="510.4" y="125.8" width="140" height="20" rx="4" class="tooltip-bg"/>
    <text x="580.4" y="139.8" class="tooltip-text" text-anchor="middle">Sep 2024: 253 total (+1 this month)</text>
  </g>
  <g class="hoverpoint">
    <line x1="593.0" y1="30" x2="593.0" y2="160.0" class="guide"/>
    <circle cx="593.0" cy="151.5" r="16" class="hit"/>
    <circle cx="593.0" cy="151.5" r="4" class="hover-dot"><title>Oct 2024: 261 total (+8 this month)</title></circle>
    <rect x="523.0" y="125.5" width="140" height="20" rx="4" class="tooltip-bg"/>
    <text x="593.0" y="139.5" class="tooltip-text" text-anchor="middle">Oct 2024: 261 total (+8 this month)</text>
  </g>
  <g class="hoverpoint">
    <line x1="625.9" y1="30" x2="625.9" y2="160.0" class="guide"/>
    <circle cx="625.9" cy="151.2" r="16" class="hit"/>
    <circle cx="625.9" cy="151.2" r="4" class="hover-dot"><title>Jan 2025: 270 total (+9 this month)</title></circle>
    <rect x="555.9" y="125.2" width="140" height="20" rx="4" class="tooltip-bg"/>
    <text x="625.9" y="139.2" class="tooltip-text" text-anchor="middle">Jan 2025: 270 total (+9 this month)</text>
  </g>
  <g class="hoverpoint">
    <line x1="631.2" y1="30" x2="631.2" y2="160.0" class="guide"/>
    <circle cx="631.2" cy="151.2" r="16" class="hit"/>
    <circle cx="631.2" cy="151.2" r="4" class="hover-dot"><title>Feb 2025: 272 total (+2 this month)</title></circle>
    <rect x="561.2" y="125.2" width="140" height="20" rx="4" class="tooltip-bg"/>
    <text x="631.2" y="139.2" class="tooltip-text" text-anchor="middle">Feb 2025: 272 total (+2 this month)</text>
  </g>
  <g class="hoverpoint">
    <line x1="650.7" y1="30" x2="650.7" y2="160.0" class="guide"/>
    <circle cx="650.7" cy="150.4" r="16" class="hit"/>
    <circle cx="650.7" cy="150.4" r="4" class="hover-dot"><title>Mar 2025: 294 total (+22 this month)</title></circle>
    <rect x="580.7" y="124.4" width="140" height="20" rx="4" class="tooltip-bg"/>
    <text x="650.7" y="138.4" class="tooltip-text" text-anchor="middle">Mar 2025: 294 total (+22 this month)</text>
  </g>
  <g class="hoverpoint">
    <line x1="663.7" y1="30" x2="663.7" y2="160.0" class="guide"/>
    <circle cx="663.7" cy="148.6" r="16" class="hit"/>
    <circle cx="663.7" cy="148.6" r="4" class="hover-dot"><title>Apr 2025: 351 total (+57 this month)</title></circle>
    <rect x="593.7" y="122.6" width="140" height="20" rx="4" class="tooltip-bg"/>
    <text x="663.7" y="136.6" class="tooltip-text" text-anchor="middle">Apr 2025: 351 total (+57 this month)</text>
  </g>
  <g class="hoverpoint">
    <line x1="671.0" y1="30" x2="671.0" y2="160.0" class="guide"/>
    <circle cx="671.0" cy="146.7" r="16" class="hit"/>
    <circle cx="671.0" cy="146.7" r="4" class="hover-dot"><title>May 2025: 408 total (+57 this month)</title></circle>
    <rect x="601.0" y="120.7" width="140" height="20" rx="4" class="tooltip-bg"/>
    <text x="671.0" y="134.7" class="tooltip-text" text-anchor="middle">May 2025: 408 total (+57 this month)</text>
  </g>
  <g class="hoverpoint">
    <line x1="685.5" y1="30" x2="685.5" y2="160.0" class="guide"/>
    <circle cx="685.5" cy="146.2" r="16" class="hit"/>
    <circle cx="685.5" cy="146.2" r="4" class="hover-dot"><title>Jun 2025: 424 total (+16 this month)</title></circle>
    <rect x="615.5" y="120.2" width="140" height="20" rx="4" class="tooltip-bg"/>
    <text x="685.5" y="134.2" class="tooltip-text" text-anchor="middle">Jun 2025: 424 total (+16 this month)</text>
  </g>
  <g class="hoverpoint">
    <line x1="698.9" y1="30" x2="698.9" y2="160.0" class="guide"/>
    <circle cx="698.9" cy="146.0" r="16" class="hit"/>
    <circle cx="698.9" cy="146.0" r="4" class="hover-dot"><title>Jul 2025: 432 total (+8 this month)</title></circle>
    <rect x="628.9" y="120.0" width="140" height="20" rx="4" class="tooltip-bg"/>
    <text x="698.9" y="134.0" class="tooltip-text" text-anchor="middle">Jul 2025: 432 total (+8 this month)</text>
  </g>
  <g class="hoverpoint">
    <line x1="709.6" y1="30" x2="709.6" y2="160.0" class="guide"/>
    <circle cx="709.6" cy="144.6" r="16" class="hit"/>
    <circle cx="709.6" cy="144.6" r="4" class="hover-dot"><title>Aug 2025: 475 total (+43 this month)</title></circle>
    <rect x="639.6" y="118.6" width="140" height="20" rx="4" class="tooltip-bg"/>
    <text x="709.6" y="132.6" class="tooltip-text" text-anchor="middle">Aug 2025: 475 total (+43 this month)</text>
  </g>
  <g class="hoverpoint">
    <line x1="722.2" y1="30" x2="722.2" y2="160.0" class="guide"/>
    <circle cx="722.2" cy="142.9" r="16" class="hit"/>
    <circle cx="722.2" cy="142.9" r="4" class="hover-dot"><title>Sep 2025: 526 total (+51 this month)</title></circle>
    <rect x="652.2" y="116.9" width="140" height="20" rx="4" class="tooltip-bg"/>
    <text x="722.2" y="130.9" class="tooltip-text" text-anchor="middle">Sep 2025: 526 total (+51 this month)</text>
  </g>
  <g class="hoverpoint">
    <line x1="734.0" y1="30" x2="734.0" y2="160.0" class="guide"/>
    <circle cx="734.0" cy="137.5" r="16" class="hit"/>
    <circle cx="734.0" cy="137.5" r="4" class="hover-dot"><title>Oct 2025: 692 total (+166 this month)</title></circle>
    <rect x="664.0" y="111.5" width="140" height="20" rx="4" class="tooltip-bg"/>
    <text x="734.0" y="125.5" class="tooltip-text" text-anchor="middle">Oct 2025: 692 total (+166 this month)</text>
  </g>
  <g class="hoverpoint">
    <line x1="745.5" y1="30" x2="745.5" y2="160.0" class="guide"/>
    <circle cx="745.5" cy="136.2" r="16" class="hit"/>
    <circle cx="745.5" cy="136.2" r="4" class="hover-dot"><title>Nov 2025: 731 total (+39 this month)</title></circle>
    <rect x="675.5" y="110.2" width="140" height="20" rx="4" class="tooltip-bg"/>
    <text x="745.5" y="124.2" class="tooltip-text" text-anchor="middle">Nov 2025: 731 total (+39 this month)</text>
  </g>
  <g class="hoverpoint">
    <line x1="757.3" y1="30" x2="757.3" y2="160.0" class="guide"/>
    <circle cx="757.3" cy="134.6" r="16" class="hit"/>
    <circle cx="757.3" cy="134.6" r="4" class="hover-dot"><title>Dec 2025: 783 total (+52 this month)</title></circle>
    <rect x="687.3" y="108.6" width="140" height="20" rx="4" class="tooltip-bg"/>
    <text x="757.3" y="122.6" class="tooltip-text" text-anchor="middle">Dec 2025: 783 total (+52 this month)</text>
  </g>
  <g class="hoverpoint">
    <line x1="769.2" y1="30" x2="769.2" y2="160.0" class="guide"/>
    <circle cx="769.2" cy="126.8" r="16" class="hit"/>
    <circle cx="769.2" cy="126.8" r="4" class="hover-dot"><title>Jan 2026: 1,022 total (+239 this month)</title></circle>
    <rect x="699.2" y="100.8" width="140" height="20" rx="4" class="tooltip-bg"/>
    <text x="769.2" y="114.8" class="tooltip-text" text-anchor="middle">Jan 2026: 1,022 total (+239 this month)</text>
  </g>
  <g class="hoverpoint">
    <line x1="779.9" y1="30" x2="779.9" y2="160.0" class="guide"/>
    <circle cx="779.9" cy="117.1" r="16" class="hit"/>
    <circle cx="779.9" cy="117.1" r="4" class="hover-dot"><title>Feb 2026: 1,321 total (+299 this month)</title></circle>
    <rect x="709.9" y="91.1" width="140" height="20" rx="4" class="tooltip-bg"/>
    <text x="779.9" y="105.1" class="tooltip-text" text-anchor="middle">Feb 2026: 1,321 total (+299 this month)</text>
  </g>
  <g class="hoverpoint">
    <line x1="791.7" y1="30" x2="791.7" y2="160.0" class="guide"/>
    <circle cx="791.7" cy="107.4" r="16" class="hit"/>
    <circle cx="791.7" cy="107.4" r="4" class="hover-dot"><title>Mar 2026: 1,617 total (+296 this month)</title></circle>
    <rect x="721.7" y="81.4" width="140" height="20" rx="4" class="tooltip-bg"/>
    <text x="791.7" y="95.4" class="tooltip-text" text-anchor="middle">Mar 2026: 1,617 total (+296 this month)</text>
  </g>
  <g class="hoverpoint">
    <line x1="802.8" y1="30" x2="802.8" y2="160.0" class="guide"/>
    <circle cx="802.8" cy="103.2" r="16" class="hit"/>
    <circle cx="802.8" cy="103.2" r="4" class="hover-dot"><title>Apr 2026: 1,749 total (+132 this month)</title></circle>
    <rect x="732.8" y="77.2" width="140" height="20" rx="4" class="tooltip-bg"/>
    <text x="802.8" y="91.2" class="tooltip-text" text-anchor="middle">Apr 2026: 1,749 total (+132 this month)</text>
  </g>
  <g class="hoverpoint">
    <line x1="815.0" y1="30" x2="815.0" y2="160.0" class="guide"/>
    <circle cx="815.0" cy="69.2" r="16" class="hit"/>
    <circle cx="815.0" cy="69.2" r="4" class="hover-dot"><title>May 2026: 2,795 total (+1,046 this month)</title></circle>
    <rect x="745.0" y="43.2" width="140" height="20" rx="4" class="tooltip-bg"/>
    <text x="815.0" y="57.2" class="tooltip-text" text-anchor="middle">May 2026: 2,795 total (+1,046 this month)</text>
  </g>
  <g class="hoverpoint">
    <line x1="820.0" y1="30" x2="820.0" y2="160.0" class="guide"/>
    <circle cx="820.0" cy="62.4" r="16" class="hit"/>
    <circle cx="820.0" cy="62.4" r="4" class="hover-dot"><title>Jun 2026: 3,003 total (+208 this month)</title></circle>
    <rect x="750.0" y="36.4" width="140" height="20" rx="4" class="tooltip-bg"/>
    <text x="820.0" y="50.4" class="tooltip-text" text-anchor="middle">Jun 2026: 3,003 total (+208 this month)</text>
  </g>

  <circle cx="820.0" cy="62.4" r="4" class="dot"/>
  <text x="810.0" y="52.4" class="total">3,003</text>

</svg>