<svg xmlns="http://www.w3.org/2000/svg" width="840" height="196" viewBox="0 0 840 196" fill="none">
  <style>
    .label { font-family: -apple-system, BlinkMacSystemFont, 'Segoe UI', Helvetica, Arial, sans-serif; font-size: 10px; fill: #8b949e; }
    .title { font-family: -apple-system, BlinkMacSystemFont, 'Segoe UI', Helvetica, Arial, sans-serif; font-size: 11px; fill: #8b949e; font-weight: 600; }
    .total { font-family: -apple-system, BlinkMacSystemFont, 'Segoe UI', Helvetica, Arial, sans-serif; font-size: 11px; fill: #7ee787; font-weight: 600; }
    .grid { stroke: #21262d; stroke-width: 1; }
    .line { stroke: #7ee787; stroke-width: 2; stroke-linecap: round; stroke-linejoin: round; fill: none; }
    .dot { fill: #7ee787; }
    .area { fill: url(#areaGrad); }
    /* Hover interaction */
    .hoverpoint .guide { stroke: #7ee787; stroke-width: 1; stroke-dasharray: 2,2; opacity: 0; }
    .hoverpoint .hover-dot { fill: #7ee787; opacity: 0; }
    .hoverpoint .hit { fill: transparent; cursor: pointer; }
    .hoverpoint .tooltip-bg { fill: #161b22; stroke: #30363d; stroke-width: 1; opacity: 0; }
    .hoverpoint .tooltip-text { font-family: -apple-system, BlinkMacSystemFont, 'Segoe UI', Helvetica, Arial, sans-serif; font-size: 9px; fill: #c9d1d9; opacity: 0; }
    .hoverpoint:hover .guide { opacity: 0.5; }
    .hoverpoint:hover .hover-dot { opacity: 1; }
    .hoverpoint:hover .tooltip-bg { opacity: 0.95; }
    .hoverpoint:hover .tooltip-text { opacity: 1; }
  </style>
  <defs>
    <linearGradient id="areaGrad" x1="0" y1="0" x2="0" y2="1">
      <stop offset="0%" stop-color="#7ee787" stop-opacity="0.15"/>
      <stop offset="100%" stop-color="#7ee787" stop-opacity="0.01"/>
    </linearGradient>
  </defs>

  <text x="60" y="18" class="title">Cumulative Commits</text>

  <line x1="60" y1="160.0" x2="820" y2="160.0" class="grid"/>
  <text x="50" y="163.0" class="label" text-anchor="end">0</text>
  <line x1="60" y1="127.5" x2="820" y2="127.5" class="grid" stroke-dasharray="3,3"/>
  <text x="50" y="130.5" class="label" text-anchor="end">500</text>
  <line x1="60" y1="95.0" x2="820" y2="95.0" class="grid" stroke-dasharray="3,3"/>
  <text x="50" y="98.0" class="label" text-anchor="end">1,000</text>
  <line x1="60" y1="62.5" x2="820" y2="62.5" class="grid" stroke-dasharray="3,3"/>
  <text x="50" y="65.5" class="label" text-anchor="end">1,500</text>
  <line x1="60" y1="30.0" x2="820" y2="30.0" class="grid" stroke-dasharray="3,3"/>
  <text x="50" y="33.0" class="label" text-anchor="end">2,000</text>

  <text x="70.0" y="186" class="label" text-anchor="middle">2021</text>
  <text x="204.2" y="186" class="label" text-anchor="middle">2022</text>
  <text x="348.4" y="186" class="label" text-anchor="middle">2023</text>
  <text x="492.5" y="186" class="label" text-anchor="middle">2024</text>
  <text x="637.1" y="186" class="label" text-anchor="middle">2025</text>
  <text x="781.3" y="186" class="label" text-anchor="middle">2026</text>


  <path class="area" d="M60.0,160.0 L60.0,160.0 60.0,160.0 L183.6,159.7 L184.0,159.6 L185.2,159.5 L204.2,159.4 L204.6,159.0 L205.0,158.9 L205.4,158.6 L205.8,158.6 L206.2,158.4 L206.9,158.1 L207.3,157.9 L207.7,157.8 L208.1,157.7 L209.7,157.5 L210.1,157.5 L210.5,157.4 L214.4,157.3 L224.7,157.1 L278.8,157.1 L279.2,156.5 L280.8,156.4 L281.6,155.9 L287.5,155.8 L288.3,155.6 L288.7,155.4 L289.1,155.3 L289.9,155.1 L290.3,154.7 L290.7,154.0 L291.1,153.9 L292.7,153.6 L293.5,153.6 L295.4,153.4 L301.0,153.2 L311.6,153.0 L317.5,152.9 L320.3,152.8 L320.7,152.7 L321.1,152.5 L321.5,152.3 L322.7,151.8 L323.1,151.7 L323.5,151.7 L325.1,151.4 L325.4,151.1 L325.8,151.0 L326.2,150.4 L326.6,149.9 L327.0,149.7 L327.4,149.5 L328.2,149.4 L329.8,149.3 L334.1,149.1 L345.6,149.0 L346.0,148.7 L346.4,148.6 L350.3,148.0 L350.7,146.5 L351.9,146.3 L352.3,146.3 L354.3,146.1 L367.7,145.8 L368.1,145.7 L368.5,145.6 L369.3,145.4 L372.1,145.2 L372.8,144.9 L373.2,144.7 L375.2,144.6 L384.7,144.4 L579.0,144.3 L579.8,144.2 L580.6,144.1 L581.4,144.0 L581.8,143.9 L582.2,143.8 L582.6,143.8 L583.0,143.7 L586.9,143.6 L598.0,143.6 L601.2,143.5 L602.3,143.4 L604.7,143.4 L607.1,143.3 L607.5,143.2 L609.1,143.2 L610.2,143.1 L611.0,143.0 L640.3,143.0 L640.7,142.8 L641.5,142.8 L641.9,142.7 L643.0,142.5 L645.0,142.4 L650.5,142.3 L662.0,141.7 L662.4,141.5 L667.5,141.3 L667.9,141.2 L669.1,141.1 L670.7,140.9 L672.7,140.2 L673.1,138.4 L673.5,138.3 L675.8,138.2 L677.0,138.1 L677.4,138.0 L678.2,137.8 L681.4,137.7 L684.1,137.2 L686.1,136.7 L686.5,136.5 L687.7,136.2 L688.1,135.4 L688.5,135.2 L688.9,134.9 L689.3,134.7 L689.6,134.4 L690.4,133.9 L691.6,133.5 L705.8,133.3 L706.6,132.4 L715.3,132.2 L720.5,131.9 L722.8,131.9 L723.2,131.8 L725.6,131.7 L726.0,131.7 L726.4,131.6 L726.8,131.4 L727.2,131.1 L727.6,130.5 L728.0,130.4 L730.3,129.4 L730.7,129.3 L731.5,129.1 L734.3,128.8 L735.1,128.7 L735.5,128.5 L736.3,128.5 L736.7,128.0 L737.0,127.9 L737.8,127.8 L738.2,127.6 L738.6,127.6 L739.0,127.5 L740.6,127.1 L741.0,127.0 L741.4,126.8 L741.8,126.7 L742.2,126.6 L742.6,126.4 L743.8,126.1 L744.2,125.9 L744.6,125.8 L744.9,125.6 L745.3,125.2 L746.1,125.1 L746.5,124.4 L746.9,124.1 L747.3,122.8 L747.7,122.5 L748.1,122.2 L748.5,121.5 L748.9,121.4 L749.3,121.2 L749.7,121.1 L750.1,120.7 L752.1,120.0 L752.5,119.8 L752.8,119.2 L753.2,118.1 L753.6,118.0 L754.4,117.9 L754.8,116.9 L755.2,116.4 L755.6,116.3 L756.0,115.3 L756.8,115.0 L757.2,114.9 L757.6,114.8 L758.0,114.7 L758.4,114.6 L758.8,114.6 L760.4,114.4 L761.1,114.3 L761.5,113.8 L761.9,113.5 L763.1,113.5 L765.1,113.3 L767.5,113.1 L767.9,112.9 L768.3,112.9 L768.6,112.5 L769.0,111.6 L769.4,111.5 L769.8,111.4 L770.2,111.3 L770.6,111.1 L771.0,110.6 L775.4,110.5 L775.8,110.4 L779.3,109.9 L780.1,109.5 L780.5,109.4 L780.9,109.1 L781.3,109.0 L782.5,108.8 L782.9,107.9 L783.3,105.5 L783.7,103.5 L784.1,103.4 L784.4,103.1 L785.2,102.8 L785.6,102.5 L786.0,102.1 L786.8,102.0 L787.2,101.4 L787.6,101.3 L788.4,100.4 L788.8,100.3 L789.2,99.8 L789.6,99.5 L790.0,99.1 L790.4,99.0 L791.6,98.4 L792.0,98.1 L792.3,96.6 L792.7,94.4 L793.1,93.6 L793.5,92.6 L793.9,92.5 L794.3,92.1 L794.7,91.9 L795.1,91.4 L795.5,90.6 L795.9,90.6 L796.3,90.1 L796.7,90.0 L797.1,89.5 L797.5,89.0 L797.9,88.4 L798.3,87.8 L798.7,87.7 L799.1,87.5 L799.5,86.4 L799.9,84.4 L800.2,84.1 L801.0,83.7 L801.4,83.5 L801.8,83.4 L802.2,80.2 L802.6,78.8 L803.0,77.3 L803.4,76.8 L803.8,74.4 L804.2,74.1 L804.6,74.0 L805.0,73.5 L805.4,72.4 L805.8,70.4 L806.2,68.2 L806.6,68.1 L807.0,67.6 L807.8,67.5 L808.1,66.2 L808.5,65.2 L808.9,63.8 L809.3,63.6 L809.7,63.5 L810.1,61.4 L810.5,58.9 L810.9,57.8 L811.3,57.3 L811.7,56.6 L812.1,56.1 L812.5,56.0 L813.3,55.7 L813.7,55.3 L814.1,55.2 L814.5,55.1 L814.9,55.0 L816.0,55.0 L816.4,54.9 L817.2,54.8 L818.0,54.7 L818.4,54.6 L819.2,53.7 L819.6,53.1 L820.0,52.9 L820.0,160.0 Z"/>
  <polyline class="line" points="60.0,160.0 183.6,159.7 184.0,159.6 185.2,159.5 204.2,159.4 204.6,159.0 205.0,158.9 205.4,158.6 205.8,158.6 206.2,158.4 206.9,158.1 207.3,157.9 207.7,157.8 208.1,157.7 209.7,157.5 210.1,157.5 210.5,157.4 214.4,157.3 224.7,157.1 278.8,157.1 279.2,156.5 280.8,156.4 281.6,155.9 287.5,155.8 288.3,155.6 288.7,155.4 289.1,155.3 289.9,155.1 290.3,154.7 290.7,154.0 291.1,153.9 292.7,153.6 293.5,153.6 295.4,153.4 301.0,153.2 311.6,153.0 317.5,152.9 320.3,152.8 320.7,152.7 321.1,152.5 321.5,152.3 322.7,151.8 323.1,151.7 323.5,151.7 325.1,151.4 325.4,151.1 325.8,151.0 326.2,150.4 326.6,149.9 327.0,149.7 327.4,149.5 328.2,149.4 329.8,149.3 334.1,149.1 345.6,149.0 346.0,148.7 346.4,148.6 350.3,148.0 350.7,146.5 351.9,146.3 352.3,146.3 354.3,146.1 367.7,145.8 368.1,145.7 368.5,145.6 369.3,145.4 372.1,145.2 372.8,144.9 373.2,144.7 375.2,144.6 384.7,144.4 579.0,144.3 579.8,144.2 580.6,144.1 581.4,144.0 581.8,143.9 582.2,143.8 582.6,143.8 583.0,143.7 586.9,143.6 598.0,143.6 601.2,143.5 602.3,143.4 604.7,143.4 607.1,143.3 607.5,143.2 609.1,143.2 610.2,143.1 611.0,143.0 640.3,143.0 640.7,142.8 641.5,142.8 641.9,142.7 643.0,142.5 645.0,142.4 650.5,142.3 662.0,141.7 662.4,141.5 667.5,141.3 667.9,141.2 669.1,141.1 670.7,140.9 672.7,140.2 673.1,138.4 673.5,138.3 675.8,138.2 677.0,138.1 677.4,138.0 678.2,137.8 681.4,137.7 684.1,137.2 686.1,136.7 686.5,136.5 687.7,136.2 688.1,135.4 688.5,135.2 688.9,134.9 689.3,134.7 689.6,134.4 690.4,133.9 691.6,133.5 705.8,133.3 706.6,132.4 715.3,132.2 720.5,131.9 722.8,131.9 723.2,131.8 725.6,131.7 726.0,131.7 726.4,131.6 726.8,131.4 727.2,131.1 727.6,130.5 728.0,130.4 730.3,129.4 730.7,129.3 731.5,129.1 734.3,128.8 735.1,128.7 735.5,128.5 736.3,128.5 736.7,128.0 737.0,127.9 737.8,127.8 738.2,127.6 738.6,127.6 739.0,127.5 740.6,127.1 741.0,127.0 741.4,126.8 741.8,126.7 742.2,126.6 742.6,126.4 743.8,126.1 744.2,125.9 744.6,125.8 744.9,125.6 745.3,125.2 746.1,125.1 746.5,124.4 746.9,124.1 747.3,122.8 747.7,122.5 748.1,122.2 748.5,121.5 748.9,121.4 749.3,121.2 749.7,121.1 750.1,120.7 752.1,120.0 752.5,119.8 752.8,119.2 753.2,118.1 753.6,118.0 754.4,117.9 754.8,116.9 755.2,116.4 755.6,116.3 756.0,115.3 756.8,115.0 757.2,114.9 757.6,114.8 758.0,114.7 758.4,114.6 758.8,114.6 760.4,114.4 761.1,114.3 761.5,113.8 761.9,113.5 763.1,113.5 765.1,113.3 767.5,113.1 767.9,112.9 768.3,112.9 768.6,112.5 769.0,111.6 769.4,111.5 769.8,111.4 770.2,111.3 770.6,111.1 771.0,110.6 775.4,110.5 775.8,110.4 779.3,109.9 780.1,109.5 780.5,109.4 780.9,109.1 781.3,109.0 782.5,108.8 782.9,107.9 783.3,105.5 783.7,103.5 784.1,103.4 784.4,103.1 785.2,102.8 785.6,102.5 786.0,102.1 786.8,102.0 787.2,101.4 787.6,101.3 788.4,100.4 788.8,100.3 789.2,99.8 789.6,99.5 790.0,99.1 790.4,99.0 791.6,98.4 792.0,98.1 792.3,96.6 792.7,94.4 793.1,93.6 793.5,92.6 793.9,92.5 794.3,92.1 794.7,91.9 795.1,91.4 795.5,90.6 795.9,90.6 796.3,90.1 796.7,90.0 797.1,89.5 797.5,89.0 797.9,88.4 798.3,87.8 798.7,87.7 799.1,87.5 799.5,86.4 799.9,84.4 800.2,84.1 801.0,83.7 801.4,83.5 801.8,83.4 802.2,80.2 802.6,78.8 803.0,77.3 803.4,76.8 803.8,74.4 804.2,74.1 804.6,74.0 805.0,73.5 805.4,72.4 805.8,70.4 806.2,68.2 806.6,68.1 807.0,67.6 807.8,67.5 808.1,66.2 808.5,65.2 808.9,63.8 809.3,63.6 809.7,63.5 810.1,61.4 810.5,58.9 810.9,57.8 811.3,57.3 811.7,56.6 812.1,56.1 812.5,56.0 813.3,55.7 813.7,55.3 814.1,55.2 814.5,55.1 814.9,55.0 816.0,55.0 816.4,54.9 817.2,54.8 818.0,54.7 818.4,54.6 819.2,53.7 819.6,53.1 820.0,52.9"/>

  <g class="hoverpoint">
    <line x1="185.2" y1="30" x2="185.2" y2="160.0" class="guide"/>
    <circle cx="185.2" cy="159.5" r="16" class="hit"/>
    <circle cx="185.2" cy="159.5" r="4" class="hover-dot"><title>Nov 2021: 7 total (+7 this month)</title></circle>
    <rect x="115.2" y="133.5" width="140" height="20" rx="4" class="tooltip-bg"/>
    <text x="185.2" y="147.5" class="tooltip-text" text-anchor="middle">Nov 2021: 7 total (+7 this month)</text>
  </g>
  <g class="hoverpoint">
    <line x1="214.4" y1="30" x2="214.4" y2="160.0" class="guide"/>
    <circle cx="214.4" cy="157.3" r="16" class="hit"/>
    <circle cx="214.4" cy="157.3" r="4" class="hover-dot"><title>Jan 2022: 41 total (+34 this month)</title></circle>
    <rect x="144.4" y="131.3" width="140" height="20" rx="4" class="tooltip-bg"/>
    <text x="214.4" y="145.3" class="tooltip-text" text-anchor="middle">Jan 2022: 41 total (+34 this month)</text>
  </g>
  <g class="hoverpoint">
    <line x1="224.7" y1="30" x2="224.7" y2="160.0" class="guide"/>
    <circle cx="224.7" cy="157.1" r="16" class="hit"/>
    <circle cx="224.7" cy="157.1" r="4" class="hover-dot"><title>Feb 2022: 44 total (+3 this month)</title></circle>
    <rect x="154.7" y="131.1" width="140" height="20" rx="4" class="tooltip-bg"/>
    <text x="224.7" y="145.1" class="tooltip-text" text-anchor="middle">Feb 2022: 44 total (+3 this month)</text>
  </g>
  <g class="hoverpoint">
    <line x1="287.5" y1="30" x2="287.5" y2="160.0" class="guide"/>
    <circle cx="287.5" cy="155.8" r="16" class="hit"/>
    <circle cx="287.5" cy="155.8" r="4" class="hover-dot"><title>Jul 2022: 65 total (+21 this month)</title></circle>
    <rect x="217.5" y="129.8" width="140" height="20" rx="4" class="tooltip-bg"/>
    <text x="287.5" y="143.8" class="tooltip-text" text-anchor="middle">Jul 2022: 65 total (+21 this month)</text>
  </g>
  <g class="hoverpoint">
    <line x1="295.4" y1="30" x2="295.4" y2="160.0" class="guide"/>
    <circle cx="295.4" cy="153.4" r="16" class="hit"/>
    <circle cx="295.4" cy="153.4" r="4" class="hover-dot"><title>Aug 2022: 101 total (+36 this month)</title></circle>
    <rect x="225.4" y="127.4" width="140" height="20" rx="4" class="tooltip-bg"/>
    <text x="295.4" y="141.4" class="tooltip-text" text-anchor="middle">Aug 2022: 101 total (+36 this month)</text>
  </g>
  <g class="hoverpoint">
    <line x1="311.6" y1="30" x2="311.6" y2="160.0" class="guide"/>
    <circle cx="311.6" cy="153.0" r="16" class="hit"/>
    <circle cx="311.6" cy="153.0" r="4" class="hover-dot"><title>Sep 2022: 108 total (+7 this month)</title></circle>
    <rect x="241.6" y="127.0" width="140" height="20" rx="4" class="tooltip-bg"/>
    <text x="311.6" y="141.0" class="tooltip-text" text-anchor="middle">Sep 2022: 108 total (+7 this month)</text>
  </g>
  <g class="hoverpoint">
    <line x1="323.5" y1="30" x2="323.5" y2="160.0" class="guide"/>
    <circle cx="323.5" cy="151.7" r="16" class="hit"/>
    <circle cx="323.5" cy="151.7" r="4" class="hover-dot"><title>Oct 2022: 128 total (+20 this month)</title></circle>
    <rect x="253.5" y="125.7" width="140" height="20" rx="4" class="tooltip-bg"/>
    <text x="323.5" y="139.7" class="tooltip-text" text-anchor="middle">Oct 2022: 128 total (+20 this month)</text>
  </g>
  <g class="hoverpoint">
    <line x1="334.1" y1="30" x2="334.1" y2="160.0" class="guide"/>
    <circle cx="334.1" cy="149.1" r="16" class="hit"/>
    <circle cx="334.1" cy="149.1" r="4" class="hover-dot"><title>Nov 2022: 168 total (+40 this month)</title></circle>
    <rect x="264.1" y="123.1" width="140" height="20" rx="4" class="tooltip-bg"/>
    <text x="334.1" y="137.1" class="tooltip-text" text-anchor="middle">Nov 2022: 168 total (+40 this month)</text>
  </g>
  <g class="hoverpoint">
    <line x1="346.4" y1="30" x2="346.4" y2="160.0" class="guide"/>
    <circle cx="346.4" cy="148.6" r="16" class="hit"/>
    <circle cx="346.4" cy="148.6" r="4" class="hover-dot"><title>Dec 2022: 175 total (+7 this month)</title></circle>
    <rect x="276.4" y="122.6" width="140" height="20" rx="4" class="tooltip-bg"/>
    <text x="346.4" y="136.6" class="tooltip-text" text-anchor="middle">Dec 2022: 175 total (+7 this month)</text>
  </g>
  <g class="hoverpoint">
    <line x1="354.3" y1="30" x2="354.3" y2="160.0" class="guide"/>
    <circle cx="354.3" cy="146.1" r="16" class="hit"/>
    <circle cx="354.3" cy="146.1" r="4" class="hover-dot"><title>Jan 2023: 214 total (+39 this month)</title></circle>
    <rect x="284.3" y="120.1" width="140" height="20" rx="4" class="tooltip-bg"/>
    <text x="354.3" y="134.1" class="tooltip-text" text-anchor="middle">Jan 2023: 214 total (+39 this month)</text>
  </g>
  <g class="hoverpoint">
    <line x1="369.3" y1="30" x2="369.3" y2="160.0" class="guide"/>
    <circle cx="369.3" cy="145.4" r="16" class="hit"/>
    <circle cx="369.3" cy="145.4" r="4" class="hover-dot"><title>Feb 2023: 225 total (+11 this month)</title></circle>
    <rect x="299.3" y="119.4" width="140" height="20" rx="4" class="tooltip-bg"/>
    <text x="369.3" y="133.4" class="tooltip-text" text-anchor="middle">Feb 2023: 225 total (+11 this month)</text>
  </g>
  <g class="hoverpoint">
    <line x1="375.2" y1="30" x2="375.2" y2="160.0" class="guide"/>
    <circle cx="375.2" cy="144.6" r="16" class="hit"/>
    <circle cx="375.2" cy="144.6" r="4" class="hover-dot"><title>Mar 2023: 237 total (+12 this month)</title></circle>
    <rect x="305.2" y="118.6" width="140" height="20" rx="4" class="tooltip-bg"/>
    <text x="375.2" y="132.6" class="tooltip-text" text-anchor="middle">Mar 2023: 237 total (+12 this month)</text>
  </g>
  <g class="hoverpoint">
    <line x1="384.7" y1="30" x2="384.7" y2="160.0" class="guide"/>
    <circle cx="384.7" cy="144.4" r="16" class="hit"/>
    <circle cx="384.7" cy="144.4" r="4" class="hover-dot"><title>Apr 2023: 240 total (+3 this month)</title></circle>
    <rect x="314.7" y="118.4" width="140" height="20" rx="4" class="tooltip-bg"/>
    <text x="384.7" y="132.4" class="tooltip-text" text-anchor="middle">Apr 2023: 240 total (+3 this month)</text>
  </g>
  <g class="hoverpoint">
    <line x1="586.9" y1="30" x2="586.9" y2="160.0" class="guide"/>
    <circle cx="586.9" cy="143.6" r="16" class="hit"/>
    <circle cx="586.9" cy="143.6" r="4" class="hover-dot"><title>Aug 2024: 252 total (+12 this month)</title></circle>
    <rect x="516.9" y="117.6" width="140" height="20" rx="4" class="tooltip-bg"/>
    <text x="586.9" y="131.6" class="tooltip-text" text-anchor="middle">Aug 2024: 252 total (+12 this month)</text>
  </g>
  <g class="hoverpoint">
    <line x1="598.0" y1="30" x2="598.0" y2="160.0" class="guide"/>
    <circle cx="598.0" cy="143.6" r="16" class="hit"/>
    <circle cx="598.0" cy="143.6" r="4" class="hover-dot"><title>Sep 2024: 253 total (+1 this month)</title></circle>
    <rect x="528.0" y="117.6" width="140" height="20" rx="4" class="tooltip-bg"/>
    <text x="598.0" y="131.6" class="tooltip-text" text-anchor="middle">Sep 2024: 253 total (+1 this month)</text>
  </g>
  <g class="hoverpoint">
    <line x1="611.0" y1="30" x2="611.0" y2="160.0" class="guide"/>
    <circle cx="611.0" cy="143.0" r="16" class="hit"/>
    <circle cx="611.0" cy="143.0" r="4" class="hover-dot"><title>Oct 2024: 261 total (+8 this month)</title></circle>
    <rect x="541.0" y="117.0" width="140" height="20" rx="4" class="tooltip-bg"/>
    <text x="611.0" y="131.0" class="tooltip-text" text-anchor="middle">Oct 2024: 261 total (+8 this month)</text>
  </g>
  <g class="hoverpoint">
    <line x1="645.0" y1="30" x2="645.0" y2="160.0" class="guide"/>
    <circle cx="645.0" cy="142.4" r="16" class="hit"/>
    <circle cx="645.0" cy="142.4" r="4" class="hover-dot"><title>Jan 2025: 270 total (+9 this month)</title></circle>
    <rect x="575.0" y="116.4" width="140" height="20" rx="4" class="tooltip-bg"/>
    <text x="645.0" y="130.4" class="tooltip-text" text-anchor="middle">Jan 2025: 270 total (+9 this month)</text>
  </g>
  <g class="hoverpoint">
    <line x1="650.5" y1="30" x2="650.5" y2="160.0" class="guide"/>
    <circle cx="650.5" cy="142.3" r="16" class="hit"/>
    <circle cx="650.5" cy="142.3" r="4" class="hover-dot"><title>Feb 2025: 272 total (+2 this month)</title></circle>
    <rect x="580.5" y="116.3" width="140" height="20" rx="4" class="tooltip-bg"/>
    <text x="650.5" y="130.3" class="tooltip-text" text-anchor="middle">Feb 2025: 272 total (+2 this month)</text>
  </g>
  <g class="hoverpoint">
    <line x1="670.7" y1="30" x2="670.7" y2="160.0" class="guide"/>
    <circle cx="670.7" cy="140.9" r="16" class="hit"/>
    <circle cx="670.7" cy="140.9" r="4" class="hover-dot"><title>Mar 2025: 294 total (+22 this month)</title></circle>
    <rect x="600.7" y="114.9" width="140" height="20" rx="4" class="tooltip-bg"/>
    <text x="670.7" y="128.9" class="tooltip-text" text-anchor="middle">Mar 2025: 294 total (+22 this month)</text>
  </g>
  <g class="hoverpoint">
    <line x1="684.1" y1="30" x2="684.1" y2="160.0" class="guide"/>
    <circle cx="684.1" cy="137.2" r="16" class="hit"/>
    <circle cx="684.1" cy="137.2" r="4" class="hover-dot"><title>Apr 2025: 351 total (+57 this month)</title></circle>
    <rect x="614.1" y="111.2" width="140" height="20" rx="4" class="tooltip-bg"/>
    <text x="684.1" y="125.2" class="tooltip-text" text-anchor="middle">Apr 2025: 351 total (+57 this month)</text>
  </g>
  <g class="hoverpoint">
    <line x1="691.6" y1="30" x2="691.6" y2="160.0" class="guide"/>
    <circle cx="691.6" cy="133.5" r="16" class="hit"/>
    <circle cx="691.6" cy="133.5" r="4" class="hover-dot"><title>May 2025: 408 total (+57 this month)</title></circle>
    <rect x="621.6" y="107.5" width="140" height="20" rx="4" class="tooltip-bg"/>
    <text x="691.6" y="121.5" class="tooltip-text" text-anchor="middle">May 2025: 408 total (+57 this month)</text>
  </g>
  <g class="hoverpoint">
    <line x1="706.6" y1="30" x2="706.6" y2="160.0" class="guide"/>
    <circle cx="706.6" cy="132.4" r="16" class="hit"/>
    <circle cx="706.6" cy="132.4" r="4" class="hover-dot"><title>Jun 2025: 424 total (+16 this month)</title></circle>
    <rect x="636.6" y="106.4" width="140" height="20" rx="4" class="tooltip-bg"/>
    <text x="706.6" y="120.4" class="tooltip-text" text-anchor="middle">Jun 2025: 424 total (+16 this month)</text>
  </g>
  <g class="hoverpoint">
    <line x1="720.5" y1="30" x2="720.5" y2="160.0" class="guide"/>
    <circle cx="720.5" cy="131.9" r="16" class="hit"/>
    <circle cx="720.5" cy="131.9" r="4" class="hover-dot"><title>Jul 2025: 432 total (+8 this month)</title></circle>
    <rect x="650.5" y="105.9" width="140" height="20" rx="4" class="tooltip-bg"/>
    <text x="720.5" y="119.9" class="tooltip-text" text-anchor="middle">Jul 2025: 432 total (+8 this month)</text>
  </g>
  <g class="hoverpoint">
    <line x1="731.5" y1="30" x2="731.5" y2="160.0" class="guide"/>
    <circle cx="731.5" cy="129.1" r="16" class="hit"/>
    <circle cx="731.5" cy="129.1" r="4" class="hover-dot"><title>Aug 2025: 475 total (+43 this month)</title></circle>
    <rect x="661.5" y="103.1" width="140" height="20" rx="4" class="tooltip-bg"/>
    <text x="731.5" y="117.1" class="tooltip-text" text-anchor="middle">Aug 2025: 475 total (+43 this month)</text>
  </g>
  <g class="hoverpoint">
    <line x1="744.6" y1="30" x2="744.6" y2="160.0" class="guide"/>
    <circle cx="744.6" cy="125.8" r="16" class="hit"/>
    <circle cx="744.6" cy="125.8" r="4" class="hover-dot"><title>Sep 2025: 526 total (+51 this month)</title></circle>
    <rect x="674.6" y="99.8" width="140" height="20" rx="4" class="tooltip-bg"/>
    <text x="744.6" y="113.8" class="tooltip-text" text-anchor="middle">Sep 2025: 526 total (+51 this month)</text>
  </g>
  <g class="hoverpoint">
    <line x1="756.8" y1="30" x2="756.8" y2="160.0" class="guide"/>
    <circle cx="756.8" cy="115.0" r="16" class="hit"/>
    <circle cx="756.8" cy="115.0" r="4" class="hover-dot"><title>Oct 2025: 692 total (+166 this month)</title></circle>
    <rect x="686.8" y="89.0" width="140" height="20" rx="4" class="tooltip-bg"/>
    <text x="756.8" y="103.0" class="tooltip-text" text-anchor="middle">Oct 2025: 692 total (+166 this month)</text>
  </g>
  <g class="hoverpoint">
    <line x1="768.6" y1="30" x2="768.6" y2="160.0" class="guide"/>
    <circle cx="768.6" cy="112.5" r="16" class="hit"/>
    <circle cx="768.6" cy="112.5" r="4" class="hover-dot"><title>Nov 2025: 731 total (+39 this month)</title></circle>
    <rect x="698.6" y="86.5" width="140" height="20" rx="4" class="tooltip-bg"/>
    <text x="768.6" y="100.5" class="tooltip-text" text-anchor="middle">Nov 2025: 731 total (+39 this month)</text>
  </g>
  <g class="hoverpoint">
    <line x1="780.9" y1="30" x2="780.9" y2="160.0" class="guide"/>
    <circle cx="780.9" cy="109.1" r="16" class="hit"/>
    <circle cx="780.9" cy="109.1" r="4" class="hover-dot"><title>Dec 2025: 783 total (+52 this month)</title></circle>
    <rect x="710.9" y="83.1" width="140" height="20" rx="4" class="tooltip-bg"/>
    <text x="780.9" y="97.1" class="tooltip-text" text-anchor="middle">Dec 2025: 783 total (+52 this month)</text>
  </g>
  <g class="hoverpoint">
    <line x1="793.1" y1="30" x2="793.1" y2="160.0" class="guide"/>
    <circle cx="793.1" cy="93.6" r="16" class="hit"/>
    <circle cx="793.1" cy="93.6" r="4" class="hover-dot"><title>Jan 2026: 1,022 total (+239 this month)</title></circle>
    <rect x="723.1" y="67.6" width="140" height="20" rx="4" class="tooltip-bg"/>
    <text x="793.1" y="81.6" class="tooltip-text" text-anchor="middle">Jan 2026: 1,022 total (+239 this month)</text>
  </g>
  <g class="hoverpoint">
    <line x1="804.2" y1="30" x2="804.2" y2="160.0" class="guide"/>
    <circle cx="804.2" cy="74.1" r="16" class="hit"/>
    <circle cx="804.2" cy="74.1" r="4" class="hover-dot"><title>Feb 2026: 1,321 total (+299 this month)</title></circle>
    <rect x="734.2" y="48.1" width="140" height="20" rx="4" class="tooltip-bg"/>
    <text x="804.2" y="62.1" class="tooltip-text" text-anchor="middle">Feb 2026: 1,321 total (+299 this month)</text>
  </g>
  <g class="hoverpoint">
    <line x1="816.4" y1="30" x2="816.4" y2="160.0" class="guide"/>
    <circle cx="816.4" cy="54.9" r="16" class="hit"/>
    <circle cx="816.4" cy="54.9" r="4" class="hover-dot"><title>Mar 2026: 1,617 total (+296 this month)</title></circle>
    <rect x="746.4" y="28.9" width="140" height="20" rx="4" class="tooltip-bg"/>
    <text x="816.4" y="42.9" class="tooltip-text" text-anchor="middle">Mar 2026: 1,617 total (+296 this month)</text>
  </g>
  <g class="hoverpoint">
    <line x1="820.0" y1="30" x2="820.0" y2="160.0" class="guide"/>
    <circle cx="820.0" cy="52.9" r="16" class="hit"/>
    <circle cx="820.0" cy="52.9" r="4" class="hover-dot"><title>Apr 2026: 1,647 total (+30 this month)</title></circle>
    <rect x="750.0" y="26.9" width="140" height="20" rx="4" class="tooltip-bg"/>
    <text x="820.0" y="40.9" class="tooltip-text" text-anchor="middle">Apr 2026: 1,647 total (+30 this month)</text>
  </g>

  <circle cx="820.0" cy="52.9" r="4" class="dot"/>
  <text x="810.0" y="42.9" class="total">1,647</text>

</svg>