<svg xmlns="http://www.w3.org/2000/svg" width="840" height="196" viewBox="0 0 840 196" fill="none">
  <style>
    .label { font-family: -apple-system, BlinkMacSystemFont, 'Segoe UI', Helvetica, Arial, sans-serif; font-size: 10px; fill: #8b949e; }
    .title { font-family: -apple-system, BlinkMacSystemFont, 'Segoe UI', Helvetica, Arial, sans-serif; font-size: 11px; fill: #8b949e; font-weight: 600; }
    .total { font-family: -apple-system, BlinkMacSystemFont, 'Segoe UI', Helvetica, Arial, sans-serif; font-size: 11px; fill: #7ee787; font-weight: 600; }
    .grid { stroke: #21262d; stroke-width: 1; }
    .line { stroke: #7ee787; stroke-width: 2; stroke-linecap: round; stroke-linejoin: round; fill: none; }
    .dot { fill: #7ee787; }
    .area { fill: url(#areaGrad); }
    /* Hover interaction */
    .hoverpoint .guide { stroke: #7ee787; stroke-width: 1; stroke-dasharray: 2,2; opacity: 0; }
    .hoverpoint .hover-dot { fill: #7ee787; opacity: 0; }
    .hoverpoint .hit { fill: transparent; cursor: pointer; }
    .hoverpoint .tooltip-bg { fill: #161b22; stroke: #30363d; stroke-width: 1; opacity: 0; }
    .hoverpoint .tooltip-text { font-family: -apple-system, BlinkMacSystemFont, 'Segoe UI', Helvetica, Arial, sans-serif; font-size: 9px; fill: #c9d1d9; opacity: 0; }
    .hoverpoint:hover .guide { opacity: 0.5; }
    .hoverpoint:hover .hover-dot { opacity: 1; }
    .hoverpoint:hover .tooltip-bg { opacity: 0.95; }
    .hoverpoint:hover .tooltip-text { opacity: 1; }
  </style>
  <defs>
    <linearGradient id="areaGrad" x1="0" y1="0" x2="0" y2="1">
      <stop offset="0%" stop-color="#7ee787" stop-opacity="0.15"/>
      <stop offset="100%" stop-color="#7ee787" stop-opacity="0.01"/>
    </linearGradient>
  </defs>

  <text x="60" y="18" class="title">Cumulative Commits</text>

  <line x1="60" y1="160.0" x2="820" y2="160.0" class="grid"/>
  <text x="50" y="163.0" class="label" text-anchor="end">0</text>
  <line x1="60" y1="127.5" x2="820" y2="127.5" class="grid" stroke-dasharray="3,3"/>
  <text x="50" y="130.5" class="label" text-anchor="end">500</text>
  <line x1="60" y1="95.0" x2="820" y2="95.0" class="grid" stroke-dasharray="3,3"/>
  <text x="50" y="98.0" class="label" text-anchor="end">1,000</text>
  <line x1="60" y1="62.5" x2="820" y2="62.5" class="grid" stroke-dasharray="3,3"/>
  <text x="50" y="65.5" class="label" text-anchor="end">1,500</text>
  <line x1="60" y1="30.0" x2="820" y2="30.0" class="grid" stroke-dasharray="3,3"/>
  <text x="50" y="33.0" class="label" text-anchor="end">2,000</text>

  <text x="70.0" y="186" class="label" text-anchor="middle">2021</text>
  <text x="205.8" y="186" class="label" text-anchor="middle">2022</text>
  <text x="351.7" y="186" class="label" text-anchor="middle">2023</text>
  <text x="497.5" y="186" class="label" text-anchor="middle">2024</text>
  <text x="643.8" y="186" class="label" text-anchor="middle">2025</text>
  <text x="789.6" y="186" class="label" text-anchor="middle">2026</text>


  <path class="area" d="M60.0,160.0 L60.0,160.0 60.0,160.0 L185.1,159.7 L185.5,159.6 L186.7,159.5 L205.8,159.4 L206.2,159.0 L206.6,158.9 L207.0,158.6 L207.4,158.6 L207.8,158.4 L208.6,158.1 L209.0,157.9 L209.4,157.8 L209.8,157.7 L211.4,157.5 L211.8,157.5 L212.2,157.4 L216.2,157.3 L226.6,157.1 L281.4,157.1 L281.8,156.5 L283.4,156.4 L284.2,155.9 L290.2,155.8 L291.0,155.6 L291.4,155.4 L291.8,155.3 L292.6,155.1 L293.0,154.7 L293.4,154.0 L293.8,153.9 L295.4,153.6 L296.2,153.6 L298.1,153.4 L303.7,153.2 L314.5,153.0 L320.5,152.9 L323.3,152.8 L323.7,152.7 L324.1,152.5 L324.5,152.3 L325.7,151.8 L326.1,151.7 L326.5,151.7 L328.1,151.4 L328.5,151.1 L328.9,151.0 L329.3,150.4 L329.7,149.9 L330.1,149.7 L330.5,149.5 L331.3,149.4 L332.9,149.3 L337.3,149.1 L348.9,149.0 L349.3,148.7 L349.7,148.6 L353.7,148.0 L354.1,146.5 L355.3,146.3 L355.7,146.3 L357.7,146.1 L371.3,145.8 L371.7,145.7 L372.1,145.6 L372.9,145.4 L375.7,145.2 L376.5,144.9 L376.9,144.7 L378.9,144.6 L388.5,144.4 L585.0,144.3 L585.8,144.2 L586.6,144.1 L587.4,144.0 L587.8,143.9 L588.2,143.8 L588.6,143.8 L589.0,143.7 L593.0,143.6 L604.2,143.6 L607.4,143.5 L608.6,143.4 L611.0,143.4 L613.4,143.3 L613.8,143.2 L615.4,143.2 L616.6,143.1 L617.4,143.0 L647.0,143.0 L647.4,142.8 L648.2,142.8 L648.6,142.7 L649.8,142.5 L651.8,142.4 L657.4,142.3 L669.0,141.7 L669.4,141.5 L674.6,141.3 L675.0,141.2 L676.2,141.1 L677.7,140.9 L679.7,140.2 L680.1,138.4 L680.5,138.3 L682.9,138.2 L684.1,138.1 L684.5,138.0 L685.3,137.8 L688.5,137.7 L691.3,137.2 L693.3,136.7 L693.7,136.5 L694.9,136.2 L695.3,135.4 L695.7,135.2 L696.1,134.9 L696.5,134.7 L696.9,134.4 L697.7,133.9 L698.9,133.5 L713.3,133.3 L714.1,132.4 L722.9,132.2 L728.1,131.9 L730.5,131.9 L730.9,131.8 L733.3,131.7 L733.7,131.7 L734.1,131.6 L734.5,131.4 L734.9,131.1 L735.3,130.5 L735.7,130.4 L738.1,129.4 L738.5,129.3 L739.3,129.1 L742.1,128.8 L742.9,128.7 L743.3,128.5 L744.1,128.5 L744.5,128.0 L744.9,127.9 L745.7,127.8 L746.1,127.6 L746.5,127.6 L746.9,127.5 L748.5,127.1 L748.9,127.0 L749.3,126.8 L749.7,126.7 L750.1,126.6 L750.5,126.4 L751.7,126.1 L752.1,125.9 L752.5,125.8 L752.9,125.6 L753.3,125.2 L754.1,125.1 L754.5,124.4 L754.9,124.1 L755.3,122.8 L755.7,122.5 L756.1,122.2 L756.5,121.5 L756.9,121.4 L757.3,121.2 L757.7,121.1 L758.1,120.7 L760.1,120.0 L760.5,119.8 L760.9,119.2 L761.3,118.1 L761.7,118.0 L762.5,117.9 L762.9,116.9 L763.3,116.4 L763.7,116.3 L764.1,115.3 L764.9,115.0 L765.3,114.9 L765.7,114.8 L766.1,114.7 L766.5,114.6 L766.9,114.6 L768.5,114.4 L769.3,114.3 L769.7,113.8 L770.1,113.5 L771.3,113.5 L773.2,113.3 L775.6,113.1 L776.0,112.9 L776.4,112.9 L776.8,112.5 L777.2,111.6 L777.6,111.5 L778.0,111.4 L778.4,111.3 L778.8,111.1 L779.2,110.6 L783.6,110.5 L784.0,110.4 L787.6,109.9 L788.4,109.5 L788.8,109.4 L789.2,109.1 L789.6,109.0 L790.8,108.8 L791.2,107.9 L791.6,105.5 L792.0,103.5 L792.4,103.4 L792.8,103.1 L793.6,102.8 L794.0,102.5 L794.4,102.1 L795.2,102.0 L795.6,101.4 L796.0,101.3 L796.8,100.4 L797.2,100.3 L797.6,99.8 L798.0,99.5 L798.4,99.1 L798.8,99.0 L800.0,98.4 L800.4,98.1 L800.8,96.6 L801.2,94.4 L801.6,93.6 L802.0,92.6 L802.4,92.5 L802.8,92.1 L803.2,91.9 L803.6,91.4 L804.0,90.6 L804.4,90.6 L804.8,90.1 L805.2,90.0 L805.6,89.5 L806.0,89.0 L806.4,88.4 L806.8,87.8 L807.2,87.7 L807.6,87.5 L808.0,86.4 L808.4,84.4 L808.8,84.1 L809.6,83.7 L810.0,83.5 L810.4,83.4 L810.8,80.2 L811.2,78.8 L811.6,77.3 L812.0,76.8 L812.4,74.4 L812.8,74.1 L813.2,74.0 L813.6,73.5 L814.0,72.4 L814.4,70.4 L814.8,68.2 L815.2,68.1 L815.6,67.6 L816.4,67.5 L816.8,66.2 L817.2,65.2 L817.6,63.8 L818.0,63.6 L818.4,63.5 L818.8,61.4 L819.2,58.9 L819.6,57.8 L820.0,57.3 L820.0,160.0 Z"/>
  <polyline class="line" points="60.0,160.0 185.1,159.7 185.5,159.6 186.7,159.5 205.8,159.4 206.2,159.0 206.6,158.9 207.0,158.6 207.4,158.6 207.8,158.4 208.6,158.1 209.0,157.9 209.4,157.8 209.8,157.7 211.4,157.5 211.8,157.5 212.2,157.4 216.2,157.3 226.6,157.1 281.4,157.1 281.8,156.5 283.4,156.4 284.2,155.9 290.2,155.8 291.0,155.6 291.4,155.4 291.8,155.3 292.6,155.1 293.0,154.7 293.4,154.0 293.8,153.9 295.4,153.6 296.2,153.6 298.1,153.4 303.7,153.2 314.5,153.0 320.5,152.9 323.3,152.8 323.7,152.7 324.1,152.5 324.5,152.3 325.7,151.8 326.1,151.7 326.5,151.7 328.1,151.4 328.5,151.1 328.9,151.0 329.3,150.4 329.7,149.9 330.1,149.7 330.5,149.5 331.3,149.4 332.9,149.3 337.3,149.1 348.9,149.0 349.3,148.7 349.7,148.6 353.7,148.0 354.1,146.5 355.3,146.3 355.7,146.3 357.7,146.1 371.3,145.8 371.7,145.7 372.1,145.6 372.9,145.4 375.7,145.2 376.5,144.9 376.9,144.7 378.9,144.6 388.5,144.4 585.0,144.3 585.8,144.2 586.6,144.1 587.4,144.0 587.8,143.9 588.2,143.8 588.6,143.8 589.0,143.7 593.0,143.6 604.2,143.6 607.4,143.5 608.6,143.4 611.0,143.4 613.4,143.3 613.8,143.2 615.4,143.2 616.6,143.1 617.4,143.0 647.0,143.0 647.4,142.8 648.2,142.8 648.6,142.7 649.8,142.5 651.8,142.4 657.4,142.3 669.0,141.7 669.4,141.5 674.6,141.3 675.0,141.2 676.2,141.1 677.7,140.9 679.7,140.2 680.1,138.4 680.5,138.3 682.9,138.2 684.1,138.1 684.5,138.0 685.3,137.8 688.5,137.7 691.3,137.2 693.3,136.7 693.7,136.5 694.9,136.2 695.3,135.4 695.7,135.2 696.1,134.9 696.5,134.7 696.9,134.4 697.7,133.9 698.9,133.5 713.3,133.3 714.1,132.4 722.9,132.2 728.1,131.9 730.5,131.9 730.9,131.8 733.3,131.7 733.7,131.7 734.1,131.6 734.5,131.4 734.9,131.1 735.3,130.5 735.7,130.4 738.1,129.4 738.5,129.3 739.3,129.1 742.1,128.8 742.9,128.7 743.3,128.5 744.1,128.5 744.5,128.0 744.9,127.9 745.7,127.8 746.1,127.6 746.5,127.6 746.9,127.5 748.5,127.1 748.9,127.0 749.3,126.8 749.7,126.7 750.1,126.6 750.5,126.4 751.7,126.1 752.1,125.9 752.5,125.8 752.9,125.6 753.3,125.2 754.1,125.1 754.5,124.4 754.9,124.1 755.3,122.8 755.7,122.5 756.1,122.2 756.5,121.5 756.9,121.4 757.3,121.2 757.7,121.1 758.1,120.7 760.1,120.0 760.5,119.8 760.9,119.2 761.3,118.1 761.7,118.0 762.5,117.9 762.9,116.9 763.3,116.4 763.7,116.3 764.1,115.3 764.9,115.0 765.3,114.9 765.7,114.8 766.1,114.7 766.5,114.6 766.9,114.6 768.5,114.4 769.3,114.3 769.7,113.8 770.1,113.5 771.3,113.5 773.2,113.3 775.6,113.1 776.0,112.9 776.4,112.9 776.8,112.5 777.2,111.6 777.6,111.5 778.0,111.4 778.4,111.3 778.8,111.1 779.2,110.6 783.6,110.5 784.0,110.4 787.6,109.9 788.4,109.5 788.8,109.4 789.2,109.1 789.6,109.0 790.8,108.8 791.2,107.9 791.6,105.5 792.0,103.5 792.4,103.4 792.8,103.1 793.6,102.8 794.0,102.5 794.4,102.1 795.2,102.0 795.6,101.4 796.0,101.3 796.8,100.4 797.2,100.3 797.6,99.8 798.0,99.5 798.4,99.1 798.8,99.0 800.0,98.4 800.4,98.1 800.8,96.6 801.2,94.4 801.6,93.6 802.0,92.6 802.4,92.5 802.8,92.1 803.2,91.9 803.6,91.4 804.0,90.6 804.4,90.6 804.8,90.1 805.2,90.0 805.6,89.5 806.0,89.0 806.4,88.4 806.8,87.8 807.2,87.7 807.6,87.5 808.0,86.4 808.4,84.4 808.8,84.1 809.6,83.7 810.0,83.5 810.4,83.4 810.8,80.2 811.2,78.8 811.6,77.3 812.0,76.8 812.4,74.4 812.8,74.1 813.2,74.0 813.6,73.5 814.0,72.4 814.4,70.4 814.8,68.2 815.2,68.1 815.6,67.6 816.4,67.5 816.8,66.2 817.2,65.2 817.6,63.8 818.0,63.6 818.4,63.5 818.8,61.4 819.2,58.9 819.6,57.8 820.0,57.3"/>

  <g class="hoverpoint">
    <line x1="186.7" y1="30" x2="186.7" y2="160.0" class="guide"/>
    <circle cx="186.7" cy="159.5" r="16" class="hit"/>
    <circle cx="186.7" cy="159.5" r="4" class="hover-dot"><title>Nov 2021: 7 total (+7 this month)</title></circle>
    <rect x="116.7" y="133.5" width="140" height="20" rx="4" class="tooltip-bg"/>
    <text x="186.7" y="147.5" class="tooltip-text" text-anchor="middle">Nov 2021: 7 total (+7 this month)</text>
  </g>
  <g class="hoverpoint">
    <line x1="216.2" y1="30" x2="216.2" y2="160.0" class="guide"/>
    <circle cx="216.2" cy="157.3" r="16" class="hit"/>
    <circle cx="216.2" cy="157.3" r="4" class="hover-dot"><title>Jan 2022: 41 total (+34 this month)</title></circle>
    <rect x="146.2" y="131.3" width="140" height="20" rx="4" class="tooltip-bg"/>
    <text x="216.2" y="145.3" class="tooltip-text" text-anchor="middle">Jan 2022: 41 total (+34 this month)</text>
  </g>
  <g class="hoverpoint">
    <line x1="226.6" y1="30" x2="226.6" y2="160.0" class="guide"/>
    <circle cx="226.6" cy="157.1" r="16" class="hit"/>
    <circle cx="226.6" cy="157.1" r="4" class="hover-dot"><title>Feb 2022: 44 total (+3 this month)</title></circle>
    <rect x="156.6" y="131.1" width="140" height="20" rx="4" class="tooltip-bg"/>
    <text x="226.6" y="145.1" class="tooltip-text" text-anchor="middle">Feb 2022: 44 total (+3 this month)</text>
  </g>
  <g class="hoverpoint">
    <line x1="290.2" y1="30" x2="290.2" y2="160.0" class="guide"/>
    <circle cx="290.2" cy="155.8" r="16" class="hit"/>
    <circle cx="290.2" cy="155.8" r="4" class="hover-dot"><title>Jul 2022: 65 total (+21 this month)</title></circle>
    <rect x="220.2" y="129.8" width="140" height="20" rx="4" class="tooltip-bg"/>
    <text x="290.2" y="143.8" class="tooltip-text" text-anchor="middle">Jul 2022: 65 total (+21 this month)</text>
  </g>
  <g class="hoverpoint">
    <line x1="298.1" y1="30" x2="298.1" y2="160.0" class="guide"/>
    <circle cx="298.1" cy="153.4" r="16" class="hit"/>
    <circle cx="298.1" cy="153.4" r="4" class="hover-dot"><title>Aug 2022: 101 total (+36 this month)</title></circle>
    <rect x="228.1" y="127.4" width="140" height="20" rx="4" class="tooltip-bg"/>
    <text x="298.1" y="141.4" class="tooltip-text" text-anchor="middle">Aug 2022: 101 total (+36 this month)</text>
  </g>
  <g class="hoverpoint">
    <line x1="314.5" y1="30" x2="314.5" y2="160.0" class="guide"/>
    <circle cx="314.5" cy="153.0" r="16" class="hit"/>
    <circle cx="314.5" cy="153.0" r="4" class="hover-dot"><title>Sep 2022: 108 total (+7 this month)</title></circle>
    <rect x="244.5" y="127.0" width="140" height="20" rx="4" class="tooltip-bg"/>
    <text x="314.5" y="141.0" class="tooltip-text" text-anchor="middle">Sep 2022: 108 total (+7 this month)</text>
  </g>
  <g class="hoverpoint">
    <line x1="326.5" y1="30" x2="326.5" y2="160.0" class="guide"/>
    <circle cx="326.5" cy="151.7" r="16" class="hit"/>
    <circle cx="326.5" cy="151.7" r="4" class="hover-dot"><title>Oct 2022: 128 total (+20 this month)</title></circle>
    <rect x="256.5" y="125.7" width="140" height="20" rx="4" class="tooltip-bg"/>
    <text x="326.5" y="139.7" class="tooltip-text" text-anchor="middle">Oct 2022: 128 total (+20 this month)</text>
  </g>
  <g class="hoverpoint">
    <line x1="337.3" y1="30" x2="337.3" y2="160.0" class="guide"/>
    <circle cx="337.3" cy="149.1" r="16" class="hit"/>
    <circle cx="337.3" cy="149.1" r="4" class="hover-dot"><title>Nov 2022: 168 total (+40 this month)</title></circle>
    <rect x="267.3" y="123.1" width="140" height="20" rx="4" class="tooltip-bg"/>
    <text x="337.3" y="137.1" class="tooltip-text" text-anchor="middle">Nov 2022: 168 total (+40 this month)</text>
  </g>
  <g class="hoverpoint">
    <line x1="349.7" y1="30" x2="349.7" y2="160.0" class="guide"/>
    <circle cx="349.7" cy="148.6" r="16" class="hit"/>
    <circle cx="349.7" cy="148.6" r="4" class="hover-dot"><title>Dec 2022: 175 total (+7 this month)</title></circle>
    <rect x="279.7" y="122.6" width="140" height="20" rx="4" class="tooltip-bg"/>
    <text x="349.7" y="136.6" class="tooltip-text" text-anchor="middle">Dec 2022: 175 total (+7 this month)</text>
  </g>
  <g class="hoverpoint">
    <line x1="357.7" y1="30" x2="357.7" y2="160.0" class="guide"/>
    <circle cx="357.7" cy="146.1" r="16" class="hit"/>
    <circle cx="357.7" cy="146.1" r="4" class="hover-dot"><title>Jan 2023: 214 total (+39 this month)</title></circle>
    <rect x="287.7" y="120.1" width="140" height="20" rx="4" class="tooltip-bg"/>
    <text x="357.7" y="134.1" class="tooltip-text" text-anchor="middle">Jan 2023: 214 total (+39 this month)</text>
  </g>
  <g class="hoverpoint">
    <line x1="372.9" y1="30" x2="372.9" y2="160.0" class="guide"/>
    <circle cx="372.9" cy="145.4" r="16" class="hit"/>
    <circle cx="372.9" cy="145.4" r="4" class="hover-dot"><title>Feb 2023: 225 total (+11 this month)</title></circle>
    <rect x="302.9" y="119.4" width="140" height="20" rx="4" class="tooltip-bg"/>
    <text x="372.9" y="133.4" class="tooltip-text" text-anchor="middle">Feb 2023: 225 total (+11 this month)</text>
  </g>
  <g class="hoverpoint">
    <line x1="378.9" y1="30" x2="378.9" y2="160.0" class="guide"/>
    <circle cx="378.9" cy="144.6" r="16" class="hit"/>
    <circle cx="378.9" cy="144.6" r="4" class="hover-dot"><title>Mar 2023: 237 total (+12 this month)</title></circle>
    <rect x="308.9" y="118.6" width="140" height="20" rx="4" class="tooltip-bg"/>
    <text x="378.9" y="132.6" class="tooltip-text" text-anchor="middle">Mar 2023: 237 total (+12 this month)</text>
  </g>
  <g class="hoverpoint">
    <line x1="388.5" y1="30" x2="388.5" y2="160.0" class="guide"/>
    <circle cx="388.5" cy="144.4" r="16" class="hit"/>
    <circle cx="388.5" cy="144.4" r="4" class="hover-dot"><title>Apr 2023: 240 total (+3 this month)</title></circle>
    <rect x="318.5" y="118.4" width="140" height="20" rx="4" class="tooltip-bg"/>
    <text x="388.5" y="132.4" class="tooltip-text" text-anchor="middle">Apr 2023: 240 total (+3 this month)</text>
  </g>
  <g class="hoverpoint">
    <line x1="593.0" y1="30" x2="593.0" y2="160.0" class="guide"/>
    <circle cx="593.0" cy="143.6" r="16" class="hit"/>
    <circle cx="593.0" cy="143.6" r="4" class="hover-dot"><title>Aug 2024: 252 total (+12 this month)</title></circle>
    <rect x="523.0" y="117.6" width="140" height="20" rx="4" class="tooltip-bg"/>
    <text x="593.0" y="131.6" class="tooltip-text" text-anchor="middle">Aug 2024: 252 total (+12 this month)</text>
  </g>
  <g class="hoverpoint">
    <line x1="604.2" y1="30" x2="604.2" y2="160.0" class="guide"/>
    <circle cx="604.2" cy="143.6" r="16" class="hit"/>
    <circle cx="604.2" cy="143.6" r="4" class="hover-dot"><title>Sep 2024: 253 total (+1 this month)</title></circle>
    <rect x="534.2" y="117.6" width="140" height="20" rx="4" class="tooltip-bg"/>
    <text x="604.2" y="131.6" class="tooltip-text" text-anchor="middle">Sep 2024: 253 total (+1 this month)</text>
  </g>
  <g class="hoverpoint">
    <line x1="617.4" y1="30" x2="617.4" y2="160.0" class="guide"/>
    <circle cx="617.4" cy="143.0" r="16" class="hit"/>
    <circle cx="617.4" cy="143.0" r="4" class="hover-dot"><title>Oct 2024: 261 total (+8 this month)</title></circle>
    <rect x="547.4" y="117.0" width="140" height="20" rx="4" class="tooltip-bg"/>
    <text x="617.4" y="131.0" class="tooltip-text" text-anchor="middle">Oct 2024: 261 total (+8 this month)</text>
  </g>
  <g class="hoverpoint">
    <line x1="651.8" y1="30" x2="651.8" y2="160.0" class="guide"/>
    <circle cx="651.8" cy="142.4" r="16" class="hit"/>
    <circle cx="651.8" cy="142.4" r="4" class="hover-dot"><title>Jan 2025: 270 total (+9 this month)</title></circle>
    <rect x="581.8" y="116.4" width="140" height="20" rx="4" class="tooltip-bg"/>
    <text x="651.8" y="130.4" class="tooltip-text" text-anchor="middle">Jan 2025: 270 total (+9 this month)</text>
  </g>
  <g class="hoverpoint">
    <line x1="657.4" y1="30" x2="657.4" y2="160.0" class="guide"/>
    <circle cx="657.4" cy="142.3" r="16" class="hit"/>
    <circle cx="657.4" cy="142.3" r="4" class="hover-dot"><title>Feb 2025: 272 total (+2 this month)</title></circle>
    <rect x="587.4" y="116.3" width="140" height="20" rx="4" class="tooltip-bg"/>
    <text x="657.4" y="130.3" class="tooltip-text" text-anchor="middle">Feb 2025: 272 total (+2 this month)</text>
  </g>
  <g class="hoverpoint">
    <line x1="677.7" y1="30" x2="677.7" y2="160.0" class="guide"/>
    <circle cx="677.7" cy="140.9" r="16" class="hit"/>
    <circle cx="677.7" cy="140.9" r="4" class="hover-dot"><title>Mar 2025: 294 total (+22 this month)</title></circle>
    <rect x="607.7" y="114.9" width="140" height="20" rx="4" class="tooltip-bg"/>
    <text x="677.7" y="128.9" class="tooltip-text" text-anchor="middle">Mar 2025: 294 total (+22 this month)</text>
  </g>
  <g class="hoverpoint">
    <line x1="691.3" y1="30" x2="691.3" y2="160.0" class="guide"/>
    <circle cx="691.3" cy="137.2" r="16" class="hit"/>
    <circle cx="691.3" cy="137.2" r="4" class="hover-dot"><title>Apr 2025: 351 total (+57 this month)</title></circle>
    <rect x="621.3" y="111.2" width="140" height="20" rx="4" class="tooltip-bg"/>
    <text x="691.3" y="125.2" class="tooltip-text" text-anchor="middle">Apr 2025: 351 total (+57 this month)</text>
  </g>
  <g class="hoverpoint">
    <line x1="698.9" y1="30" x2="698.9" y2="160.0" class="guide"/>
    <circle cx="698.9" cy="133.5" r="16" class="hit"/>
    <circle cx="698.9" cy="133.5" r="4" class="hover-dot"><title>May 2025: 408 total (+57 this month)</title></circle>
    <rect x="628.9" y="107.5" width="140" height="20" rx="4" class="tooltip-bg"/>
    <text x="698.9" y="121.5" class="tooltip-text" text-anchor="middle">May 2025: 408 total (+57 this month)</text>
  </g>
  <g class="hoverpoint">
    <line x1="714.1" y1="30" x2="714.1" y2="160.0" class="guide"/>
    <circle cx="714.1" cy="132.4" r="16" class="hit"/>
    <circle cx="714.1" cy="132.4" r="4" class="hover-dot"><title>Jun 2025: 424 total (+16 this month)</title></circle>
    <rect x="644.1" y="106.4" width="140" height="20" rx="4" class="tooltip-bg"/>
    <text x="714.1" y="120.4" class="tooltip-text" text-anchor="middle">Jun 2025: 424 total (+16 this month)</text>
  </g>
  <g class="hoverpoint">
    <line x1="728.1" y1="30" x2="728.1" y2="160.0" class="guide"/>
    <circle cx="728.1" cy="131.9" r="16" class="hit"/>
    <circle cx="728.1" cy="131.9" r="4" class="hover-dot"><title>Jul 2025: 432 total (+8 this month)</title></circle>
    <rect x="658.1" y="105.9" width="140" height="20" rx="4" class="tooltip-bg"/>
    <text x="728.1" y="119.9" class="tooltip-text" text-anchor="middle">Jul 2025: 432 total (+8 this month)</text>
  </g>
  <g class="hoverpoint">
    <line x1="739.3" y1="30" x2="739.3" y2="160.0" class="guide"/>
    <circle cx="739.3" cy="129.1" r="16" class="hit"/>
    <circle cx="739.3" cy="129.1" r="4" class="hover-dot"><title>Aug 2025: 475 total (+43 this month)</title></circle>
    <rect x="669.3" y="103.1" width="140" height="20" rx="4" class="tooltip-bg"/>
    <text x="739.3" y="117.1" class="tooltip-text" text-anchor="middle">Aug 2025: 475 total (+43 this month)</text>
  </g>
  <g class="hoverpoint">
    <line x1="752.5" y1="30" x2="752.5" y2="160.0" class="guide"/>
    <circle cx="752.5" cy="125.8" r="16" class="hit"/>
    <circle cx="752.5" cy="125.8" r="4" class="hover-dot"><title>Sep 2025: 526 total (+51 this month)</title></circle>
    <rect x="682.5" y="99.8" width="140" height="20" rx="4" class="tooltip-bg"/>
    <text x="752.5" y="113.8" class="tooltip-text" text-anchor="middle">Sep 2025: 526 total (+51 this month)</text>
  </g>
  <g class="hoverpoint">
    <line x1="764.9" y1="30" x2="764.9" y2="160.0" class="guide"/>
    <circle cx="764.9" cy="115.0" r="16" class="hit"/>
    <circle cx="764.9" cy="115.0" r="4" class="hover-dot"><title>Oct 2025: 692 total (+166 this month)</title></circle>
    <rect x="694.9" y="89.0" width="140" height="20" rx="4" class="tooltip-bg"/>
    <text x="764.9" y="103.0" class="tooltip-text" text-anchor="middle">Oct 2025: 692 total (+166 this month)</text>
  </g>
  <g class="hoverpoint">
    <line x1="776.8" y1="30" x2="776.8" y2="160.0" class="guide"/>
    <circle cx="776.8" cy="112.5" r="16" class="hit"/>
    <circle cx="776.8" cy="112.5" r="4" class="hover-dot"><title>Nov 2025: 731 total (+39 this month)</title></circle>
    <rect x="706.8" y="86.5" width="140" height="20" rx="4" class="tooltip-bg"/>
    <text x="776.8" y="100.5" class="tooltip-text" text-anchor="middle">Nov 2025: 731 total (+39 this month)</text>
  </g>
  <g class="hoverpoint">
    <line x1="789.2" y1="30" x2="789.2" y2="160.0" class="guide"/>
    <circle cx="789.2" cy="109.1" r="16" class="hit"/>
    <circle cx="789.2" cy="109.1" r="4" class="hover-dot"><title>Dec 2025: 783 total (+52 this month)</title></circle>
    <rect x="719.2" y="83.1" width="140" height="20" rx="4" class="tooltip-bg"/>
    <text x="789.2" y="97.1" class="tooltip-text" text-anchor="middle">Dec 2025: 783 total (+52 this month)</text>
  </g>
  <g class="hoverpoint">
    <line x1="801.6" y1="30" x2="801.6" y2="160.0" class="guide"/>
    <circle cx="801.6" cy="93.6" r="16" class="hit"/>
    <circle cx="801.6" cy="93.6" r="4" class="hover-dot"><title>Jan 2026: 1,022 total (+239 this month)</title></circle>
    <rect x="731.6" y="67.6" width="140" height="20" rx="4" class="tooltip-bg"/>
    <text x="801.6" y="81.6" class="tooltip-text" text-anchor="middle">Jan 2026: 1,022 total (+239 this month)</text>
  </g>
  <g class="hoverpoint">
    <line x1="812.8" y1="30" x2="812.8" y2="160.0" class="guide"/>
    <circle cx="812.8" cy="74.1" r="16" class="hit"/>
    <circle cx="812.8" cy="74.1" r="4" class="hover-dot"><title>Feb 2026: 1,321 total (+299 this month)</title></circle>
    <rect x="742.8" y="48.1" width="140" height="20" rx="4" class="tooltip-bg"/>
    <text x="812.8" y="62.1" class="tooltip-text" text-anchor="middle">Feb 2026: 1,321 total (+299 this month)</text>
  </g>
  <g class="hoverpoint">
    <line x1="820.0" y1="30" x2="820.0" y2="160.0" class="guide"/>
    <circle cx="820.0" cy="57.3" r="16" class="hit"/>
    <circle cx="820.0" cy="57.3" r="4" class="hover-dot"><title>Mar 2026: 1,580 total (+259 this month)</title></circle>
    <rect x="750.0" y="31.3" width="140" height="20" rx="4" class="tooltip-bg"/>
    <text x="820.0" y="45.3" class="tooltip-text" text-anchor="middle">Mar 2026: 1,580 total (+259 this month)</text>
  </g>

  <circle cx="820.0" cy="57.3" r="4" class="dot"/>
  <text x="810.0" y="47.3" class="total">1,580</text>

</svg>