<svg xmlns="http://www.w3.org/2000/svg" width="840" height="196" viewBox="0 0 840 196" fill="none">
  <style>
    .label { font-family: -apple-system, BlinkMacSystemFont, 'Segoe UI', Helvetica, Arial, sans-serif; font-size: 10px; fill: #8b949e; }
    .title { font-family: -apple-system, BlinkMacSystemFont, 'Segoe UI', Helvetica, Arial, sans-serif; font-size: 11px; fill: #8b949e; font-weight: 600; }
    .total { font-family: -apple-system, BlinkMacSystemFont, 'Segoe UI', Helvetica, Arial, sans-serif; font-size: 11px; fill: #7ee787; font-weight: 600; }
    .grid { stroke: #21262d; stroke-width: 1; }
    .line { stroke: #7ee787; stroke-width: 2; stroke-linecap: round; stroke-linejoin: round; fill: none; }
    .dot { fill: #7ee787; }
    .area { fill: url(#areaGrad); }
    /* Hover interaction */
    .hoverpoint .guide { stroke: #7ee787; stroke-width: 1; stroke-dasharray: 2,2; opacity: 0; }
    .hoverpoint .hover-dot { fill: #7ee787; opacity: 0; }
    .hoverpoint .hit { fill: transparent; cursor: pointer; }
    .hoverpoint .tooltip-bg { fill: #161b22; stroke: #30363d; stroke-width: 1; opacity: 0; }
    .hoverpoint .tooltip-text { font-family: -apple-system, BlinkMacSystemFont, 'Segoe UI', Helvetica, Arial, sans-serif; font-size: 9px; fill: #c9d1d9; opacity: 0; }
    .hoverpoint:hover .guide { opacity: 0.5; }
    .hoverpoint:hover .hover-dot { opacity: 1; }
    .hoverpoint:hover .tooltip-bg { opacity: 0.95; }
    .hoverpoint:hover .tooltip-text { opacity: 1; }
  </style>
  <defs>
    <linearGradient id="areaGrad" x1="0" y1="0" x2="0" y2="1">
      <stop offset="0%" stop-color="#7ee787" stop-opacity="0.15"/>
      <stop offset="100%" stop-color="#7ee787" stop-opacity="0.01"/>
    </linearGradient>
  </defs>

  <text x="60" y="18" class="title">Cumulative Commits</text>

  <line x1="60" y1="160.0" x2="820" y2="160.0" class="grid"/>
  <text x="50" y="163.0" class="label" text-anchor="end">0</text>
  <line x1="60" y1="127.5" x2="820" y2="127.5" class="grid" stroke-dasharray="3,3"/>
  <text x="50" y="130.5" class="label" text-anchor="end">500</text>
  <line x1="60" y1="95.0" x2="820" y2="95.0" class="grid" stroke-dasharray="3,3"/>
  <text x="50" y="98.0" class="label" text-anchor="end">1,000</text>
  <line x1="60" y1="62.5" x2="820" y2="62.5" class="grid" stroke-dasharray="3,3"/>
  <text x="50" y="65.5" class="label" text-anchor="end">1,500</text>
  <line x1="60" y1="30.0" x2="820" y2="30.0" class="grid" stroke-dasharray="3,3"/>
  <text x="50" y="33.0" class="label" text-anchor="end">2,000</text>

  <text x="70.0" y="186" class="label" text-anchor="middle">2021</text>
  <text x="202.4" y="186" class="label" text-anchor="middle">2022</text>
  <text x="344.8" y="186" class="label" text-anchor="middle">2023</text>
  <text x="487.2" y="186" class="label" text-anchor="middle">2024</text>
  <text x="630.0" y="186" class="label" text-anchor="middle">2025</text>
  <text x="772.4" y="186" class="label" text-anchor="middle">2026</text>


  <path class="area" d="M60.0,160.0 L60.0,160.0 60.0,160.0 L182.1,159.7 L182.5,159.6 L183.7,159.5 L202.4,159.4 L202.8,159.0 L203.2,158.9 L203.6,158.6 L204.0,158.6 L204.4,158.4 L205.1,158.1 L205.5,157.9 L205.9,157.8 L206.3,157.7 L207.9,157.5 L208.3,157.5 L208.6,157.4 L212.5,157.3 L222.7,157.1 L276.1,157.1 L276.5,156.5 L278.1,156.4 L278.9,155.9 L284.7,155.8 L285.5,155.6 L285.9,155.4 L286.3,155.3 L287.1,155.1 L287.5,154.7 L287.8,154.0 L288.2,153.9 L289.8,153.6 L290.6,153.6 L292.5,153.4 L298.0,153.2 L308.5,153.0 L314.4,152.9 L317.1,152.8 L317.5,152.7 L317.9,152.5 L318.3,152.3 L319.4,151.8 L319.8,151.7 L320.2,151.7 L321.8,151.4 L322.2,151.1 L322.6,151.0 L323.0,150.4 L323.3,149.9 L323.7,149.7 L324.1,149.5 L324.9,149.4 L326.5,149.3 L330.8,149.1 L342.1,149.0 L342.5,148.7 L342.9,148.6 L346.8,148.0 L347.1,146.5 L348.3,146.3 L348.7,146.3 L350.7,146.1 L363.9,145.8 L364.3,145.7 L364.7,145.6 L365.5,145.4 L368.2,145.2 L369.0,144.9 L369.4,144.7 L371.3,144.6 L380.7,144.4 L572.6,144.3 L573.4,144.2 L574.2,144.1 L575.0,144.0 L575.4,143.9 L575.8,143.8 L576.2,143.8 L576.6,143.7 L580.5,143.6 L591.4,143.6 L594.5,143.5 L595.7,143.4 L598.0,143.4 L600.3,143.3 L600.7,143.2 L602.3,143.2 L603.5,143.1 L604.3,143.0 L633.1,143.0 L633.5,142.8 L634.3,142.8 L634.7,142.7 L635.9,142.5 L637.8,142.4 L643.3,142.3 L654.6,141.7 L655.0,141.5 L660.0,141.3 L660.4,141.2 L661.6,141.1 L663.2,140.9 L665.1,140.2 L665.5,138.4 L665.9,138.3 L668.2,138.2 L669.4,138.1 L669.8,138.0 L670.6,137.8 L673.7,137.7 L676.4,137.2 L678.4,136.7 L678.8,136.5 L679.9,136.2 L680.3,135.4 L680.7,135.2 L681.1,134.9 L681.5,134.7 L681.9,134.4 L682.7,133.9 L683.8,133.5 L697.9,133.3 L698.7,132.4 L707.2,132.2 L712.3,131.9 L714.7,131.9 L715.1,131.8 L717.4,131.7 L717.8,131.7 L718.2,131.6 L718.6,131.4 L719.0,131.1 L719.3,130.5 L719.7,130.4 L722.1,129.4 L722.5,129.3 L723.2,129.1 L726.0,128.8 L726.8,128.7 L727.1,128.5 L727.9,128.5 L728.3,128.0 L728.7,127.9 L729.5,127.8 L729.9,127.6 L730.3,127.6 L730.7,127.5 L732.2,127.1 L732.6,127.0 L733.0,126.8 L733.4,126.7 L733.8,126.6 L734.2,126.4 L735.3,126.1 L735.7,125.9 L736.1,125.8 L736.5,125.6 L736.9,125.2 L737.7,125.1 L738.1,124.4 L738.5,124.1 L738.9,122.8 L739.2,122.5 L739.6,122.2 L740.0,121.5 L740.4,121.4 L740.8,121.2 L741.2,121.1 L741.6,120.7 L743.5,120.0 L743.9,119.8 L744.3,119.2 L744.7,118.1 L745.1,118.0 L745.9,117.9 L746.3,116.9 L746.7,116.4 L747.0,116.3 L747.4,115.3 L748.2,115.0 L748.6,114.9 L749.0,114.8 L749.4,114.7 L749.8,114.6 L750.2,114.6 L751.7,114.4 L752.5,114.3 L752.9,113.8 L753.3,113.5 L754.5,113.5 L756.4,113.3 L758.7,113.1 L759.1,112.9 L759.5,112.9 L759.9,112.5 L760.3,111.6 L760.7,111.5 L761.1,111.4 L761.5,111.3 L761.9,111.1 L762.3,110.6 L766.6,110.5 L766.9,110.4 L770.5,109.9 L771.2,109.5 L771.6,109.4 L772.0,109.1 L772.4,109.0 L773.6,108.8 L774.0,107.9 L774.4,105.5 L774.7,103.5 L775.1,103.4 L775.5,103.1 L776.3,102.8 L776.7,102.5 L777.1,102.1 L777.9,102.0 L778.3,101.4 L778.6,101.3 L779.4,100.4 L779.8,100.3 L780.2,99.8 L780.6,99.5 L781.0,99.1 L781.4,99.0 L782.5,98.4 L782.9,98.1 L783.3,96.6 L783.7,94.4 L784.1,93.6 L784.5,92.6 L784.9,92.5 L785.3,92.1 L785.7,91.9 L786.1,91.4 L786.4,90.6 L786.8,90.6 L787.2,90.1 L787.6,90.0 L788.0,89.5 L788.4,89.0 L788.8,88.4 L789.2,87.8 L789.6,87.7 L790.0,87.5 L790.3,86.4 L790.7,84.4 L791.1,84.1 L791.9,83.7 L792.3,83.5 L792.7,83.4 L793.1,80.2 L793.5,78.8 L793.9,77.3 L794.3,76.8 L794.6,74.4 L795.0,74.1 L795.4,74.0 L795.8,73.5 L796.2,72.4 L796.6,70.4 L797.0,68.2 L797.4,68.1 L797.8,67.6 L798.5,67.5 L798.9,66.2 L799.3,65.2 L799.7,63.8 L800.1,63.6 L800.5,63.5 L800.9,61.4 L801.3,58.9 L801.7,57.8 L802.1,57.3 L802.4,56.6 L802.8,56.1 L803.2,56.0 L804.0,55.7 L804.4,55.3 L804.8,55.2 L805.2,55.1 L805.6,55.0 L806.7,55.0 L807.1,54.9 L807.9,54.8 L808.7,54.7 L809.1,54.6 L809.9,53.7 L810.2,53.1 L810.6,52.9 L813.0,52.8 L813.4,52.3 L813.8,52.2 L814.1,51.6 L814.5,51.6 L814.9,51.4 L815.3,51.3 L815.7,50.3 L816.1,49.4 L816.5,49.0 L816.9,47.0 L817.3,46.8 L818.0,46.7 L818.4,46.6 L819.6,46.4 L820.0,46.2 L820.0,160.0 Z"/>
  <polyline class="line" points="60.0,160.0 182.1,159.7 182.5,159.6 183.7,159.5 202.4,159.4 202.8,159.0 203.2,158.9 203.6,158.6 204.0,158.6 204.4,158.4 205.1,158.1 205.5,157.9 205.9,157.8 206.3,157.7 207.9,157.5 208.3,157.5 208.6,157.4 212.5,157.3 222.7,157.1 276.1,157.1 276.5,156.5 278.1,156.4 278.9,155.9 284.7,155.8 285.5,155.6 285.9,155.4 286.3,155.3 287.1,155.1 287.5,154.7 287.8,154.0 288.2,153.9 289.8,153.6 290.6,153.6 292.5,153.4 298.0,153.2 308.5,153.0 314.4,152.9 317.1,152.8 317.5,152.7 317.9,152.5 318.3,152.3 319.4,151.8 319.8,151.7 320.2,151.7 321.8,151.4 322.2,151.1 322.6,151.0 323.0,150.4 323.3,149.9 323.7,149.7 324.1,149.5 324.9,149.4 326.5,149.3 330.8,149.1 342.1,149.0 342.5,148.7 342.9,148.6 346.8,148.0 347.1,146.5 348.3,146.3 348.7,146.3 350.7,146.1 363.9,145.8 364.3,145.7 364.7,145.6 365.5,145.4 368.2,145.2 369.0,144.9 369.4,144.7 371.3,144.6 380.7,144.4 572.6,144.3 573.4,144.2 574.2,144.1 575.0,144.0 575.4,143.9 575.8,143.8 576.2,143.8 576.6,143.7 580.5,143.6 591.4,143.6 594.5,143.5 595.7,143.4 598.0,143.4 600.3,143.3 600.7,143.2 602.3,143.2 603.5,143.1 604.3,143.0 633.1,143.0 633.5,142.8 634.3,142.8 634.7,142.7 635.9,142.5 637.8,142.4 643.3,142.3 654.6,141.7 655.0,141.5 660.0,141.3 660.4,141.2 661.6,141.1 663.2,140.9 665.1,140.2 665.5,138.4 665.9,138.3 668.2,138.2 669.4,138.1 669.8,138.0 670.6,137.8 673.7,137.7 676.4,137.2 678.4,136.7 678.8,136.5 679.9,136.2 680.3,135.4 680.7,135.2 681.1,134.9 681.5,134.7 681.9,134.4 682.7,133.9 683.8,133.5 697.9,133.3 698.7,132.4 707.2,132.2 712.3,131.9 714.7,131.9 715.1,131.8 717.4,131.7 717.8,131.7 718.2,131.6 718.6,131.4 719.0,131.1 719.3,130.5 719.7,130.4 722.1,129.4 722.5,129.3 723.2,129.1 726.0,128.8 726.8,128.7 727.1,128.5 727.9,128.5 728.3,128.0 728.7,127.9 729.5,127.8 729.9,127.6 730.3,127.6 730.7,127.5 732.2,127.1 732.6,127.0 733.0,126.8 733.4,126.7 733.8,126.6 734.2,126.4 735.3,126.1 735.7,125.9 736.1,125.8 736.5,125.6 736.9,125.2 737.7,125.1 738.1,124.4 738.5,124.1 738.9,122.8 739.2,122.5 739.6,122.2 740.0,121.5 740.4,121.4 740.8,121.2 741.2,121.1 741.6,120.7 743.5,120.0 743.9,119.8 744.3,119.2 744.7,118.1 745.1,118.0 745.9,117.9 746.3,116.9 746.7,116.4 747.0,116.3 747.4,115.3 748.2,115.0 748.6,114.9 749.0,114.8 749.4,114.7 749.8,114.6 750.2,114.6 751.7,114.4 752.5,114.3 752.9,113.8 753.3,113.5 754.5,113.5 756.4,113.3 758.7,113.1 759.1,112.9 759.5,112.9 759.9,112.5 760.3,111.6 760.7,111.5 761.1,111.4 761.5,111.3 761.9,111.1 762.3,110.6 766.6,110.5 766.9,110.4 770.5,109.9 771.2,109.5 771.6,109.4 772.0,109.1 772.4,109.0 773.6,108.8 774.0,107.9 774.4,105.5 774.7,103.5 775.1,103.4 775.5,103.1 776.3,102.8 776.7,102.5 777.1,102.1 777.9,102.0 778.3,101.4 778.6,101.3 779.4,100.4 779.8,100.3 780.2,99.8 780.6,99.5 781.0,99.1 781.4,99.0 782.5,98.4 782.9,98.1 783.3,96.6 783.7,94.4 784.1,93.6 784.5,92.6 784.9,92.5 785.3,92.1 785.7,91.9 786.1,91.4 786.4,90.6 786.8,90.6 787.2,90.1 787.6,90.0 788.0,89.5 788.4,89.0 788.8,88.4 789.2,87.8 789.6,87.7 790.0,87.5 790.3,86.4 790.7,84.4 791.1,84.1 791.9,83.7 792.3,83.5 792.7,83.4 793.1,80.2 793.5,78.8 793.9,77.3 794.3,76.8 794.6,74.4 795.0,74.1 795.4,74.0 795.8,73.5 796.2,72.4 796.6,70.4 797.0,68.2 797.4,68.1 797.8,67.6 798.5,67.5 798.9,66.2 799.3,65.2 799.7,63.8 800.1,63.6 800.5,63.5 800.9,61.4 801.3,58.9 801.7,57.8 802.1,57.3 802.4,56.6 802.8,56.1 803.2,56.0 804.0,55.7 804.4,55.3 804.8,55.2 805.2,55.1 805.6,55.0 806.7,55.0 807.1,54.9 807.9,54.8 808.7,54.7 809.1,54.6 809.9,53.7 810.2,53.1 810.6,52.9 813.0,52.8 813.4,52.3 813.8,52.2 814.1,51.6 814.5,51.6 814.9,51.4 815.3,51.3 815.7,50.3 816.1,49.4 816.5,49.0 816.9,47.0 817.3,46.8 818.0,46.7 818.4,46.6 819.6,46.4 820.0,46.2"/>

  <g class="hoverpoint">
    <line x1="183.7" y1="30" x2="183.7" y2="160.0" class="guide"/>
    <circle cx="183.7" cy="159.5" r="16" class="hit"/>
    <circle cx="183.7" cy="159.5" r="4" class="hover-dot"><title>Nov 2021: 7 total (+7 this month)</title></circle>
    <rect x="113.7" y="133.5" width="140" height="20" rx="4" class="tooltip-bg"/>
    <text x="183.7" y="147.5" class="tooltip-text" text-anchor="middle">Nov 2021: 7 total (+7 this month)</text>
  </g>
  <g class="hoverpoint">
    <line x1="212.5" y1="30" x2="212.5" y2="160.0" class="guide"/>
    <circle cx="212.5" cy="157.3" r="16" class="hit"/>
    <circle cx="212.5" cy="157.3" r="4" class="hover-dot"><title>Jan 2022: 41 total (+34 this month)</title></circle>
    <rect x="142.5" y="131.3" width="140" height="20" rx="4" class="tooltip-bg"/>
    <text x="212.5" y="145.3" class="tooltip-text" text-anchor="middle">Jan 2022: 41 total (+34 this month)</text>
  </g>
  <g class="hoverpoint">
    <line x1="222.7" y1="30" x2="222.7" y2="160.0" class="guide"/>
    <circle cx="222.7" cy="157.1" r="16" class="hit"/>
    <circle cx="222.7" cy="157.1" r="4" class="hover-dot"><title>Feb 2022: 44 total (+3 this month)</title></circle>
    <rect x="152.7" y="131.1" width="140" height="20" rx="4" class="tooltip-bg"/>
    <text x="222.7" y="145.1" class="tooltip-text" text-anchor="middle">Feb 2022: 44 total (+3 this month)</text>
  </g>
  <g class="hoverpoint">
    <line x1="284.7" y1="30" x2="284.7" y2="160.0" class="guide"/>
    <circle cx="284.7" cy="155.8" r="16" class="hit"/>
    <circle cx="284.7" cy="155.8" r="4" class="hover-dot"><title>Jul 2022: 65 total (+21 this month)</title></circle>
    <rect x="214.7" y="129.8" width="140" height="20" rx="4" class="tooltip-bg"/>
    <text x="284.7" y="143.8" class="tooltip-text" text-anchor="middle">Jul 2022: 65 total (+21 this month)</text>
  </g>
  <g class="hoverpoint">
    <line x1="292.5" y1="30" x2="292.5" y2="160.0" class="guide"/>
    <circle cx="292.5" cy="153.4" r="16" class="hit"/>
    <circle cx="292.5" cy="153.4" r="4" class="hover-dot"><title>Aug 2022: 101 total (+36 this month)</title></circle>
    <rect x="222.5" y="127.4" width="140" height="20" rx="4" class="tooltip-bg"/>
    <text x="292.5" y="141.4" class="tooltip-text" text-anchor="middle">Aug 2022: 101 total (+36 this month)</text>
  </g>
  <g class="hoverpoint">
    <line x1="308.5" y1="30" x2="308.5" y2="160.0" class="guide"/>
    <circle cx="308.5" cy="153.0" r="16" class="hit"/>
    <circle cx="308.5" cy="153.0" r="4" class="hover-dot"><title>Sep 2022: 108 total (+7 this month)</title></circle>
    <rect x="238.5" y="127.0" width="140" height="20" rx="4" class="tooltip-bg"/>
    <text x="308.5" y="141.0" class="tooltip-text" text-anchor="middle">Sep 2022: 108 total (+7 this month)</text>
  </g>
  <g class="hoverpoint">
    <line x1="320.2" y1="30" x2="320.2" y2="160.0" class="guide"/>
    <circle cx="320.2" cy="151.7" r="16" class="hit"/>
    <circle cx="320.2" cy="151.7" r="4" class="hover-dot"><title>Oct 2022: 128 total (+20 this month)</title></circle>
    <rect x="250.2" y="125.7" width="140" height="20" rx="4" class="tooltip-bg"/>
    <text x="320.2" y="139.7" class="tooltip-text" text-anchor="middle">Oct 2022: 128 total (+20 this month)</text>
  </g>
  <g class="hoverpoint">
    <line x1="330.8" y1="30" x2="330.8" y2="160.0" class="guide"/>
    <circle cx="330.8" cy="149.1" r="16" class="hit"/>
    <circle cx="330.8" cy="149.1" r="4" class="hover-dot"><title>Nov 2022: 168 total (+40 this month)</title></circle>
    <rect x="260.8" y="123.1" width="140" height="20" rx="4" class="tooltip-bg"/>
    <text x="330.8" y="137.1" class="tooltip-text" text-anchor="middle">Nov 2022: 168 total (+40 this month)</text>
  </g>
  <g class="hoverpoint">
    <line x1="342.9" y1="30" x2="342.9" y2="160.0" class="guide"/>
    <circle cx="342.9" cy="148.6" r="16" class="hit"/>
    <circle cx="342.9" cy="148.6" r="4" class="hover-dot"><title>Dec 2022: 175 total (+7 this month)</title></circle>
    <rect x="272.9" y="122.6" width="140" height="20" rx="4" class="tooltip-bg"/>
    <text x="342.9" y="136.6" class="tooltip-text" text-anchor="middle">Dec 2022: 175 total (+7 this month)</text>
  </g>
  <g class="hoverpoint">
    <line x1="350.7" y1="30" x2="350.7" y2="160.0" class="guide"/>
    <circle cx="350.7" cy="146.1" r="16" class="hit"/>
    <circle cx="350.7" cy="146.1" r="4" class="hover-dot"><title>Jan 2023: 214 total (+39 this month)</title></circle>
    <rect x="280.7" y="120.1" width="140" height="20" rx="4" class="tooltip-bg"/>
    <text x="350.7" y="134.1" class="tooltip-text" text-anchor="middle">Jan 2023: 214 total (+39 this month)</text>
  </g>
  <g class="hoverpoint">
    <line x1="365.5" y1="30" x2="365.5" y2="160.0" class="guide"/>
    <circle cx="365.5" cy="145.4" r="16" class="hit"/>
    <circle cx="365.5" cy="145.4" r="4" class="hover-dot"><title>Feb 2023: 225 total (+11 this month)</title></circle>
    <rect x="295.5" y="119.4" width="140" height="20" rx="4" class="tooltip-bg"/>
    <text x="365.5" y="133.4" class="tooltip-text" text-anchor="middle">Feb 2023: 225 total (+11 this month)</text>
  </g>
  <g class="hoverpoint">
    <line x1="371.3" y1="30" x2="371.3" y2="160.0" class="guide"/>
    <circle cx="371.3" cy="144.6" r="16" class="hit"/>
    <circle cx="371.3" cy="144.6" r="4" class="hover-dot"><title>Mar 2023: 237 total (+12 this month)</title></circle>
    <rect x="301.3" y="118.6" width="140" height="20" rx="4" class="tooltip-bg"/>
    <text x="371.3" y="132.6" class="tooltip-text" text-anchor="middle">Mar 2023: 237 total (+12 this month)</text>
  </g>
  <g class="hoverpoint">
    <line x1="380.7" y1="30" x2="380.7" y2="160.0" class="guide"/>
    <circle cx="380.7" cy="144.4" r="16" class="hit"/>
    <circle cx="380.7" cy="144.4" r="4" class="hover-dot"><title>Apr 2023: 240 total (+3 this month)</title></circle>
    <rect x="310.7" y="118.4" width="140" height="20" rx="4" class="tooltip-bg"/>
    <text x="380.7" y="132.4" class="tooltip-text" text-anchor="middle">Apr 2023: 240 total (+3 this month)</text>
  </g>
  <g class="hoverpoint">
    <line x1="580.5" y1="30" x2="580.5" y2="160.0" class="guide"/>
    <circle cx="580.5" cy="143.6" r="16" class="hit"/>
    <circle cx="580.5" cy="143.6" r="4" class="hover-dot"><title>Aug 2024: 252 total (+12 this month)</title></circle>
    <rect x="510.5" y="117.6" width="140" height="20" rx="4" class="tooltip-bg"/>
    <text x="580.5" y="131.6" class="tooltip-text" text-anchor="middle">Aug 2024: 252 total (+12 this month)</text>
  </g>
  <g class="hoverpoint">
    <line x1="591.4" y1="30" x2="591.4" y2="160.0" class="guide"/>
    <circle cx="591.4" cy="143.6" r="16" class="hit"/>
    <circle cx="591.4" cy="143.6" r="4" class="hover-dot"><title>Sep 2024: 253 total (+1 this month)</title></circle>
    <rect x="521.4" y="117.6" width="140" height="20" rx="4" class="tooltip-bg"/>
    <text x="591.4" y="131.6" class="tooltip-text" text-anchor="middle">Sep 2024: 253 total (+1 this month)</text>
  </g>
  <g class="hoverpoint">
    <line x1="604.3" y1="30" x2="604.3" y2="160.0" class="guide"/>
    <circle cx="604.3" cy="143.0" r="16" class="hit"/>
    <circle cx="604.3" cy="143.0" r="4" class="hover-dot"><title>Oct 2024: 261 total (+8 this month)</title></circle>
    <rect x="534.3" y="117.0" width="140" height="20" rx="4" class="tooltip-bg"/>
    <text x="604.3" y="131.0" class="tooltip-text" text-anchor="middle">Oct 2024: 261 total (+8 this month)</text>
  </g>
  <g class="hoverpoint">
    <line x1="637.8" y1="30" x2="637.8" y2="160.0" class="guide"/>
    <circle cx="637.8" cy="142.4" r="16" class="hit"/>
    <circle cx="637.8" cy="142.4" r="4" class="hover-dot"><title>Jan 2025: 270 total (+9 this month)</title></circle>
    <rect x="567.8" y="116.4" width="140" height="20" rx="4" class="tooltip-bg"/>
    <text x="637.8" y="130.4" class="tooltip-text" text-anchor="middle">Jan 2025: 270 total (+9 this month)</text>
  </g>
  <g class="hoverpoint">
    <line x1="643.3" y1="30" x2="643.3" y2="160.0" class="guide"/>
    <circle cx="643.3" cy="142.3" r="16" class="hit"/>
    <circle cx="643.3" cy="142.3" r="4" class="hover-dot"><title>Feb 2025: 272 total (+2 this month)</title></circle>
    <rect x="573.3" y="116.3" width="140" height="20" rx="4" class="tooltip-bg"/>
    <text x="643.3" y="130.3" class="tooltip-text" text-anchor="middle">Feb 2025: 272 total (+2 this month)</text>
  </g>
  <g class="hoverpoint">
    <line x1="663.2" y1="30" x2="663.2" y2="160.0" class="guide"/>
    <circle cx="663.2" cy="140.9" r="16" class="hit"/>
    <circle cx="663.2" cy="140.9" r="4" class="hover-dot"><title>Mar 2025: 294 total (+22 this month)</title></circle>
    <rect x="593.2" y="114.9" width="140" height="20" rx="4" class="tooltip-bg"/>
    <text x="663.2" y="128.9" class="tooltip-text" text-anchor="middle">Mar 2025: 294 total (+22 this month)</text>
  </g>
  <g class="hoverpoint">
    <line x1="676.4" y1="30" x2="676.4" y2="160.0" class="guide"/>
    <circle cx="676.4" cy="137.2" r="16" class="hit"/>
    <circle cx="676.4" cy="137.2" r="4" class="hover-dot"><title>Apr 2025: 351 total (+57 this month)</title></circle>
    <rect x="606.4" y="111.2" width="140" height="20" rx="4" class="tooltip-bg"/>
    <text x="676.4" y="125.2" class="tooltip-text" text-anchor="middle">Apr 2025: 351 total (+57 this month)</text>
  </g>
  <g class="hoverpoint">
    <line x1="683.8" y1="30" x2="683.8" y2="160.0" class="guide"/>
    <circle cx="683.8" cy="133.5" r="16" class="hit"/>
    <circle cx="683.8" cy="133.5" r="4" class="hover-dot"><title>May 2025: 408 total (+57 this month)</title></circle>
    <rect x="613.8" y="107.5" width="140" height="20" rx="4" class="tooltip-bg"/>
    <text x="683.8" y="121.5" class="tooltip-text" text-anchor="middle">May 2025: 408 total (+57 this month)</text>
  </g>
  <g class="hoverpoint">
    <line x1="698.7" y1="30" x2="698.7" y2="160.0" class="guide"/>
    <circle cx="698.7" cy="132.4" r="16" class="hit"/>
    <circle cx="698.7" cy="132.4" r="4" class="hover-dot"><title>Jun 2025: 424 total (+16 this month)</title></circle>
    <rect x="628.7" y="106.4" width="140" height="20" rx="4" class="tooltip-bg"/>
    <text x="698.7" y="120.4" class="tooltip-text" text-anchor="middle">Jun 2025: 424 total (+16 this month)</text>
  </g>
  <g class="hoverpoint">
    <line x1="712.3" y1="30" x2="712.3" y2="160.0" class="guide"/>
    <circle cx="712.3" cy="131.9" r="16" class="hit"/>
    <circle cx="712.3" cy="131.9" r="4" class="hover-dot"><title>Jul 2025: 432 total (+8 this month)</title></circle>
    <rect x="642.3" y="105.9" width="140" height="20" rx="4" class="tooltip-bg"/>
    <text x="712.3" y="119.9" class="tooltip-text" text-anchor="middle">Jul 2025: 432 total (+8 this month)</text>
  </g>
  <g class="hoverpoint">
    <line x1="723.2" y1="30" x2="723.2" y2="160.0" class="guide"/>
    <circle cx="723.2" cy="129.1" r="16" class="hit"/>
    <circle cx="723.2" cy="129.1" r="4" class="hover-dot"><title>Aug 2025: 475 total (+43 this month)</title></circle>
    <rect x="653.2" y="103.1" width="140" height="20" rx="4" class="tooltip-bg"/>
    <text x="723.2" y="117.1" class="tooltip-text" text-anchor="middle">Aug 2025: 475 total (+43 this month)</text>
  </g>
  <g class="hoverpoint">
    <line x1="736.1" y1="30" x2="736.1" y2="160.0" class="guide"/>
    <circle cx="736.1" cy="125.8" r="16" class="hit"/>
    <circle cx="736.1" cy="125.8" r="4" class="hover-dot"><title>Sep 2025: 526 total (+51 this month)</title></circle>
    <rect x="666.1" y="99.8" width="140" height="20" rx="4" class="tooltip-bg"/>
    <text x="736.1" y="113.8" class="tooltip-text" text-anchor="middle">Sep 2025: 526 total (+51 this month)</text>
  </g>
  <g class="hoverpoint">
    <line x1="748.2" y1="30" x2="748.2" y2="160.0" class="guide"/>
    <circle cx="748.2" cy="115.0" r="16" class="hit"/>
    <circle cx="748.2" cy="115.0" r="4" class="hover-dot"><title>Oct 2025: 692 total (+166 this month)</title></circle>
    <rect x="678.2" y="89.0" width="140" height="20" rx="4" class="tooltip-bg"/>
    <text x="748.2" y="103.0" class="tooltip-text" text-anchor="middle">Oct 2025: 692 total (+166 this month)</text>
  </g>
  <g class="hoverpoint">
    <line x1="759.9" y1="30" x2="759.9" y2="160.0" class="guide"/>
    <circle cx="759.9" cy="112.5" r="16" class="hit"/>
    <circle cx="759.9" cy="112.5" r="4" class="hover-dot"><title>Nov 2025: 731 total (+39 this month)</title></circle>
    <rect x="689.9" y="86.5" width="140" height="20" rx="4" class="tooltip-bg"/>
    <text x="759.9" y="100.5" class="tooltip-text" text-anchor="middle">Nov 2025: 731 total (+39 this month)</text>
  </g>
  <g class="hoverpoint">
    <line x1="772.0" y1="30" x2="772.0" y2="160.0" class="guide"/>
    <circle cx="772.0" cy="109.1" r="16" class="hit"/>
    <circle cx="772.0" cy="109.1" r="4" class="hover-dot"><title>Dec 2025: 783 total (+52 this month)</title></circle>
    <rect x="702.0" y="83.1" width="140" height="20" rx="4" class="tooltip-bg"/>
    <text x="772.0" y="97.1" class="tooltip-text" text-anchor="middle">Dec 2025: 783 total (+52 this month)</text>
  </g>
  <g class="hoverpoint">
    <line x1="784.1" y1="30" x2="784.1" y2="160.0" class="guide"/>
    <circle cx="784.1" cy="93.6" r="16" class="hit"/>
    <circle cx="784.1" cy="93.6" r="4" class="hover-dot"><title>Jan 2026: 1,022 total (+239 this month)</title></circle>
    <rect x="714.1" y="67.6" width="140" height="20" rx="4" class="tooltip-bg"/>
    <text x="784.1" y="81.6" class="tooltip-text" text-anchor="middle">Jan 2026: 1,022 total (+239 this month)</text>
  </g>
  <g class="hoverpoint">
    <line x1="795.0" y1="30" x2="795.0" y2="160.0" class="guide"/>
    <circle cx="795.0" cy="74.1" r="16" class="hit"/>
    <circle cx="795.0" cy="74.1" r="4" class="hover-dot"><title>Feb 2026: 1,321 total (+299 this month)</title></circle>
    <rect x="725.0" y="48.1" width="140" height="20" rx="4" class="tooltip-bg"/>
    <text x="795.0" y="62.1" class="tooltip-text" text-anchor="middle">Feb 2026: 1,321 total (+299 this month)</text>
  </g>
  <g class="hoverpoint">
    <line x1="807.1" y1="30" x2="807.1" y2="160.0" class="guide"/>
    <circle cx="807.1" cy="54.9" r="16" class="hit"/>
    <circle cx="807.1" cy="54.9" r="4" class="hover-dot"><title>Mar 2026: 1,617 total (+296 this month)</title></circle>
    <rect x="737.1" y="28.9" width="140" height="20" rx="4" class="tooltip-bg"/>
    <text x="807.1" y="42.9" class="tooltip-text" text-anchor="middle">Mar 2026: 1,617 total (+296 this month)</text>
  </g>
  <g class="hoverpoint">
    <line x1="818.4" y1="30" x2="818.4" y2="160.0" class="guide"/>
    <circle cx="818.4" cy="46.6" r="16" class="hit"/>
    <circle cx="818.4" cy="46.6" r="4" class="hover-dot"><title>Apr 2026: 1,744 total (+127 this month)</title></circle>
    <rect x="748.4" y="20.6" width="140" height="20" rx="4" class="tooltip-bg"/>
    <text x="818.4" y="34.6" class="tooltip-text" text-anchor="middle">Apr 2026: 1,744 total (+127 this month)</text>
  </g>
  <g class="hoverpoint">
    <line x1="820.0" y1="30" x2="820.0" y2="160.0" class="guide"/>
    <circle cx="820.0" cy="46.2" r="16" class="hit"/>
    <circle cx="820.0" cy="46.2" r="4" class="hover-dot"><title>May 2026: 1,751 total (+7 this month)</title></circle>
    <rect x="750.0" y="20.2" width="140" height="20" rx="4" class="tooltip-bg"/>
    <text x="820.0" y="34.2" class="tooltip-text" text-anchor="middle">May 2026: 1,751 total (+7 this month)</text>
  </g>

  <circle cx="820.0" cy="46.2" r="4" class="dot"/>
  <text x="810.0" y="36.2" class="total">1,751</text>

</svg>