<svg xmlns="http://www.w3.org/2000/svg" width="840" height="196" viewBox="0 0 840 196" fill="none">
  <style>
    .label { font-family: -apple-system, BlinkMacSystemFont, 'Segoe UI', Helvetica, Arial, sans-serif; font-size: 10px; fill: #8b949e; }
    .title { font-family: -apple-system, BlinkMacSystemFont, 'Segoe UI', Helvetica, Arial, sans-serif; font-size: 11px; fill: #8b949e; font-weight: 600; }
    .total { font-family: -apple-system, BlinkMacSystemFont, 'Segoe UI', Helvetica, Arial, sans-serif; font-size: 11px; fill: #7ee787; font-weight: 600; }
    .grid { stroke: #21262d; stroke-width: 1; }
    .line { stroke: #7ee787; stroke-width: 2; stroke-linecap: round; stroke-linejoin: round; fill: none; }
    .dot { fill: #7ee787; }
    .area { fill: url(#areaGrad); }
    /* Hover interaction */
    .hoverpoint .guide { stroke: #7ee787; stroke-width: 1; stroke-dasharray: 2,2; opacity: 0; }
    .hoverpoint .hover-dot { fill: #7ee787; opacity: 0; }
    .hoverpoint .hit { fill: transparent; cursor: pointer; }
    .hoverpoint .tooltip-bg { fill: #161b22; stroke: #30363d; stroke-width: 1; opacity: 0; }
    .hoverpoint .tooltip-text { font-family: -apple-system, BlinkMacSystemFont, 'Segoe UI', Helvetica, Arial, sans-serif; font-size: 9px; fill: #c9d1d9; opacity: 0; }
    .hoverpoint:hover .guide { opacity: 0.5; }
    .hoverpoint:hover .hover-dot { opacity: 1; }
    .hoverpoint:hover .tooltip-bg { opacity: 0.95; }
    .hoverpoint:hover .tooltip-text { opacity: 1; }
  </style>
  <defs>
    <linearGradient id="areaGrad" x1="0" y1="0" x2="0" y2="1">
      <stop offset="0%" stop-color="#7ee787" stop-opacity="0.15"/>
      <stop offset="100%" stop-color="#7ee787" stop-opacity="0.01"/>
    </linearGradient>
  </defs>

  <text x="60" y="18" class="title">Cumulative Commits</text>

  <line x1="60" y1="160.0" x2="820" y2="160.0" class="grid"/>
  <text x="50" y="163.0" class="label" text-anchor="end">0</text>
  <line x1="60" y1="127.5" x2="820" y2="127.5" class="grid" stroke-dasharray="3,3"/>
  <text x="50" y="130.5" class="label" text-anchor="end">500</text>
  <line x1="60" y1="95.0" x2="820" y2="95.0" class="grid" stroke-dasharray="3,3"/>
  <text x="50" y="98.0" class="label" text-anchor="end">1,000</text>
  <line x1="60" y1="62.5" x2="820" y2="62.5" class="grid" stroke-dasharray="3,3"/>
  <text x="50" y="65.5" class="label" text-anchor="end">1,500</text>
  <line x1="60" y1="30.0" x2="820" y2="30.0" class="grid" stroke-dasharray="3,3"/>
  <text x="50" y="33.0" class="label" text-anchor="end">2,000</text>

  <text x="70.0" y="186" class="label" text-anchor="middle">2021</text>
  <text x="205.9" y="186" class="label" text-anchor="middle">2022</text>
  <text x="351.8" y="186" class="label" text-anchor="middle">2023</text>
  <text x="497.8" y="186" class="label" text-anchor="middle">2024</text>
  <text x="644.1" y="186" class="label" text-anchor="middle">2025</text>
  <text x="790.0" y="186" class="label" text-anchor="middle">2026</text>


  <path class="area" d="M60.0,160.0 L60.0,160.0 60.0,160.0 L185.1,159.7 L185.5,159.6 L186.7,159.5 L205.9,159.4 L206.3,159.0 L206.7,158.9 L207.1,158.6 L207.5,158.6 L207.9,158.4 L208.7,158.1 L209.1,157.9 L209.5,157.8 L209.9,157.7 L211.5,157.5 L211.9,157.5 L212.3,157.4 L216.3,157.3 L226.7,157.1 L281.5,157.1 L281.9,156.5 L283.5,156.4 L284.3,155.9 L290.3,155.8 L291.1,155.6 L291.5,155.4 L291.9,155.3 L292.7,155.1 L293.1,154.7 L293.5,154.0 L293.9,153.9 L295.5,153.6 L296.3,153.6 L298.3,153.4 L303.9,153.2 L314.7,153.0 L320.7,152.9 L323.5,152.8 L323.9,152.7 L324.3,152.5 L324.7,152.3 L325.9,151.8 L326.3,151.7 L326.7,151.7 L328.3,151.4 L328.7,151.1 L329.1,151.0 L329.5,150.4 L329.9,149.9 L330.3,149.7 L330.7,149.5 L331.5,149.4 L333.1,149.3 L337.5,149.1 L349.0,149.0 L349.4,148.7 L349.8,148.6 L353.8,148.0 L354.2,146.5 L355.4,146.3 L355.8,146.3 L357.8,146.1 L371.4,145.8 L371.8,145.7 L372.2,145.6 L373.0,145.4 L375.8,145.2 L376.6,144.9 L377.0,144.7 L379.0,144.6 L388.6,144.4 L585.3,144.3 L586.1,144.2 L586.9,144.1 L587.7,144.0 L588.1,143.9 L588.5,143.8 L588.9,143.8 L589.3,143.7 L593.3,143.6 L604.5,143.6 L607.7,143.5 L608.9,143.4 L611.3,143.4 L613.7,143.3 L614.1,143.2 L615.7,143.2 L616.9,143.1 L617.7,143.0 L647.3,143.0 L647.7,142.8 L648.5,142.8 L648.9,142.7 L650.1,142.5 L652.1,142.4 L657.7,142.3 L669.3,141.7 L669.7,141.5 L674.9,141.3 L675.3,141.2 L676.5,141.1 L678.1,140.9 L680.1,140.2 L680.5,138.4 L680.9,138.3 L683.3,138.2 L684.5,138.1 L684.9,138.0 L685.7,137.8 L688.9,137.7 L691.7,137.2 L693.7,136.7 L694.1,136.5 L695.3,136.2 L695.7,135.4 L696.1,135.2 L696.5,134.9 L696.9,134.7 L697.3,134.4 L698.1,133.9 L699.3,133.5 L713.7,133.3 L714.5,132.4 L723.3,132.2 L728.4,131.9 L730.8,131.9 L731.2,131.8 L733.6,131.7 L734.0,131.7 L734.4,131.6 L734.8,131.4 L735.2,131.1 L735.6,130.5 L736.0,130.4 L738.4,129.4 L738.8,129.3 L739.6,129.1 L742.4,128.8 L743.2,128.7 L743.6,128.5 L744.4,128.5 L744.8,128.0 L745.2,127.9 L746.0,127.8 L746.4,127.6 L746.8,127.6 L747.2,127.5 L748.8,127.1 L749.2,127.0 L749.6,126.8 L750.0,126.7 L750.4,126.6 L750.8,126.4 L752.0,126.1 L752.4,125.9 L752.8,125.8 L753.2,125.6 L753.6,125.2 L754.4,125.1 L754.8,124.4 L755.2,124.1 L755.6,122.8 L756.0,122.5 L756.4,122.2 L756.8,121.5 L757.2,121.4 L757.6,121.2 L758.0,121.1 L758.4,120.7 L760.4,120.0 L760.8,119.8 L761.2,119.2 L761.6,118.1 L762.0,118.0 L762.8,117.9 L763.2,116.9 L763.6,116.4 L764.0,116.3 L764.4,115.3 L765.2,115.0 L765.6,114.9 L766.0,114.8 L766.4,114.7 L766.8,114.6 L767.2,114.6 L768.8,114.4 L769.6,114.3 L770.0,113.8 L770.4,113.5 L771.6,113.5 L773.6,113.3 L776.0,113.1 L776.4,112.9 L776.8,112.9 L777.2,112.5 L777.6,111.6 L778.0,111.5 L778.4,111.4 L778.8,111.3 L779.2,111.1 L779.6,110.6 L784.0,110.5 L784.4,110.4 L788.0,109.9 L788.8,109.5 L789.2,109.4 L789.6,109.1 L790.0,109.0 L791.2,108.8 L791.6,107.9 L792.0,105.5 L792.4,103.5 L792.8,103.4 L793.2,103.1 L794.0,102.8 L794.4,102.5 L794.8,102.1 L795.6,102.0 L796.0,101.4 L796.4,101.3 L797.2,100.4 L797.6,100.3 L798.0,99.8 L798.4,99.5 L798.8,99.1 L799.2,99.0 L800.4,98.4 L800.8,98.1 L801.2,96.6 L801.6,94.4 L802.0,93.6 L802.4,92.6 L802.8,92.5 L803.2,92.1 L803.6,91.9 L804.0,91.4 L804.4,90.6 L804.8,90.6 L805.2,90.1 L805.6,90.0 L806.0,89.5 L806.4,89.0 L806.8,88.4 L807.2,87.8 L807.6,87.7 L808.0,87.5 L808.4,86.4 L808.8,84.4 L809.2,84.1 L810.0,83.7 L810.4,83.5 L810.8,83.4 L811.2,80.2 L811.6,78.8 L812.0,77.3 L812.4,76.8 L812.8,74.4 L813.2,74.1 L813.6,74.0 L814.0,73.5 L814.4,72.4 L814.8,70.4 L815.2,68.2 L815.6,68.1 L816.0,67.6 L816.8,67.5 L817.2,66.2 L817.6,65.2 L818.0,63.8 L818.4,63.6 L818.8,63.5 L819.2,61.4 L819.6,58.9 L820.0,57.8 L820.0,160.0 Z"/>
  <polyline class="line" points="60.0,160.0 185.1,159.7 185.5,159.6 186.7,159.5 205.9,159.4 206.3,159.0 206.7,158.9 207.1,158.6 207.5,158.6 207.9,158.4 208.7,158.1 209.1,157.9 209.5,157.8 209.9,157.7 211.5,157.5 211.9,157.5 212.3,157.4 216.3,157.3 226.7,157.1 281.5,157.1 281.9,156.5 283.5,156.4 284.3,155.9 290.3,155.8 291.1,155.6 291.5,155.4 291.9,155.3 292.7,155.1 293.1,154.7 293.5,154.0 293.9,153.9 295.5,153.6 296.3,153.6 298.3,153.4 303.9,153.2 314.7,153.0 320.7,152.9 323.5,152.8 323.9,152.7 324.3,152.5 324.7,152.3 325.9,151.8 326.3,151.7 326.7,151.7 328.3,151.4 328.7,151.1 329.1,151.0 329.5,150.4 329.9,149.9 330.3,149.7 330.7,149.5 331.5,149.4 333.1,149.3 337.5,149.1 349.0,149.0 349.4,148.7 349.8,148.6 353.8,148.0 354.2,146.5 355.4,146.3 355.8,146.3 357.8,146.1 371.4,145.8 371.8,145.7 372.2,145.6 373.0,145.4 375.8,145.2 376.6,144.9 377.0,144.7 379.0,144.6 388.6,144.4 585.3,144.3 586.1,144.2 586.9,144.1 587.7,144.0 588.1,143.9 588.5,143.8 588.9,143.8 589.3,143.7 593.3,143.6 604.5,143.6 607.7,143.5 608.9,143.4 611.3,143.4 613.7,143.3 614.1,143.2 615.7,143.2 616.9,143.1 617.7,143.0 647.3,143.0 647.7,142.8 648.5,142.8 648.9,142.7 650.1,142.5 652.1,142.4 657.7,142.3 669.3,141.7 669.7,141.5 674.9,141.3 675.3,141.2 676.5,141.1 678.1,140.9 680.1,140.2 680.5,138.4 680.9,138.3 683.3,138.2 684.5,138.1 684.9,138.0 685.7,137.8 688.9,137.7 691.7,137.2 693.7,136.7 694.1,136.5 695.3,136.2 695.7,135.4 696.1,135.2 696.5,134.9 696.9,134.7 697.3,134.4 698.1,133.9 699.3,133.5 713.7,133.3 714.5,132.4 723.3,132.2 728.4,131.9 730.8,131.9 731.2,131.8 733.6,131.7 734.0,131.7 734.4,131.6 734.8,131.4 735.2,131.1 735.6,130.5 736.0,130.4 738.4,129.4 738.8,129.3 739.6,129.1 742.4,128.8 743.2,128.7 743.6,128.5 744.4,128.5 744.8,128.0 745.2,127.9 746.0,127.8 746.4,127.6 746.8,127.6 747.2,127.5 748.8,127.1 749.2,127.0 749.6,126.8 750.0,126.7 750.4,126.6 750.8,126.4 752.0,126.1 752.4,125.9 752.8,125.8 753.2,125.6 753.6,125.2 754.4,125.1 754.8,124.4 755.2,124.1 755.6,122.8 756.0,122.5 756.4,122.2 756.8,121.5 757.2,121.4 757.6,121.2 758.0,121.1 758.4,120.7 760.4,120.0 760.8,119.8 761.2,119.2 761.6,118.1 762.0,118.0 762.8,117.9 763.2,116.9 763.6,116.4 764.0,116.3 764.4,115.3 765.2,115.0 765.6,114.9 766.0,114.8 766.4,114.7 766.8,114.6 767.2,114.6 768.8,114.4 769.6,114.3 770.0,113.8 770.4,113.5 771.6,113.5 773.6,113.3 776.0,113.1 776.4,112.9 776.8,112.9 777.2,112.5 777.6,111.6 778.0,111.5 778.4,111.4 778.8,111.3 779.2,111.1 779.6,110.6 784.0,110.5 784.4,110.4 788.0,109.9 788.8,109.5 789.2,109.4 789.6,109.1 790.0,109.0 791.2,108.8 791.6,107.9 792.0,105.5 792.4,103.5 792.8,103.4 793.2,103.1 794.0,102.8 794.4,102.5 794.8,102.1 795.6,102.0 796.0,101.4 796.4,101.3 797.2,100.4 797.6,100.3 798.0,99.8 798.4,99.5 798.8,99.1 799.2,99.0 800.4,98.4 800.8,98.1 801.2,96.6 801.6,94.4 802.0,93.6 802.4,92.6 802.8,92.5 803.2,92.1 803.6,91.9 804.0,91.4 804.4,90.6 804.8,90.6 805.2,90.1 805.6,90.0 806.0,89.5 806.4,89.0 806.8,88.4 807.2,87.8 807.6,87.7 808.0,87.5 808.4,86.4 808.8,84.4 809.2,84.1 810.0,83.7 810.4,83.5 810.8,83.4 811.2,80.2 811.6,78.8 812.0,77.3 812.4,76.8 812.8,74.4 813.2,74.1 813.6,74.0 814.0,73.5 814.4,72.4 814.8,70.4 815.2,68.2 815.6,68.1 816.0,67.6 816.8,67.5 817.2,66.2 817.6,65.2 818.0,63.8 818.4,63.6 818.8,63.5 819.2,61.4 819.6,58.9 820.0,57.8"/>

  <g class="hoverpoint">
    <line x1="186.7" y1="30" x2="186.7" y2="160.0" class="guide"/>
    <circle cx="186.7" cy="159.5" r="16" class="hit"/>
    <circle cx="186.7" cy="159.5" r="4" class="hover-dot"><title>Nov 2021: 7 total (+7 this month)</title></circle>
    <rect x="116.7" y="133.5" width="140" height="20" rx="4" class="tooltip-bg"/>
    <text x="186.7" y="147.5" class="tooltip-text" text-anchor="middle">Nov 2021: 7 total (+7 this month)</text>
  </g>
  <g class="hoverpoint">
    <line x1="216.3" y1="30" x2="216.3" y2="160.0" class="guide"/>
    <circle cx="216.3" cy="157.3" r="16" class="hit"/>
    <circle cx="216.3" cy="157.3" r="4" class="hover-dot"><title>Jan 2022: 41 total (+34 this month)</title></circle>
    <rect x="146.3" y="131.3" width="140" height="20" rx="4" class="tooltip-bg"/>
    <text x="216.3" y="145.3" class="tooltip-text" text-anchor="middle">Jan 2022: 41 total (+34 this month)</text>
  </g>
  <g class="hoverpoint">
    <line x1="226.7" y1="30" x2="226.7" y2="160.0" class="guide"/>
    <circle cx="226.7" cy="157.1" r="16" class="hit"/>
    <circle cx="226.7" cy="157.1" r="4" class="hover-dot"><title>Feb 2022: 44 total (+3 this month)</title></circle>
    <rect x="156.7" y="131.1" width="140" height="20" rx="4" class="tooltip-bg"/>
    <text x="226.7" y="145.1" class="tooltip-text" text-anchor="middle">Feb 2022: 44 total (+3 this month)</text>
  </g>
  <g class="hoverpoint">
    <line x1="290.3" y1="30" x2="290.3" y2="160.0" class="guide"/>
    <circle cx="290.3" cy="155.8" r="16" class="hit"/>
    <circle cx="290.3" cy="155.8" r="4" class="hover-dot"><title>Jul 2022: 65 total (+21 this month)</title></circle>
    <rect x="220.3" y="129.8" width="140" height="20" rx="4" class="tooltip-bg"/>
    <text x="290.3" y="143.8" class="tooltip-text" text-anchor="middle">Jul 2022: 65 total (+21 this month)</text>
  </g>
  <g class="hoverpoint">
    <line x1="298.3" y1="30" x2="298.3" y2="160.0" class="guide"/>
    <circle cx="298.3" cy="153.4" r="16" class="hit"/>
    <circle cx="298.3" cy="153.4" r="4" class="hover-dot"><title>Aug 2022: 101 total (+36 this month)</title></circle>
    <rect x="228.3" y="127.4" width="140" height="20" rx="4" class="tooltip-bg"/>
    <text x="298.3" y="141.4" class="tooltip-text" text-anchor="middle">Aug 2022: 101 total (+36 this month)</text>
  </g>
  <g class="hoverpoint">
    <line x1="314.7" y1="30" x2="314.7" y2="160.0" class="guide"/>
    <circle cx="314.7" cy="153.0" r="16" class="hit"/>
    <circle cx="314.7" cy="153.0" r="4" class="hover-dot"><title>Sep 2022: 108 total (+7 this month)</title></circle>
    <rect x="244.7" y="127.0" width="140" height="20" rx="4" class="tooltip-bg"/>
    <text x="314.7" y="141.0" class="tooltip-text" text-anchor="middle">Sep 2022: 108 total (+7 this month)</text>
  </g>
  <g class="hoverpoint">
    <line x1="326.7" y1="30" x2="326.7" y2="160.0" class="guide"/>
    <circle cx="326.7" cy="151.7" r="16" class="hit"/>
    <circle cx="326.7" cy="151.7" r="4" class="hover-dot"><title>Oct 2022: 128 total (+20 this month)</title></circle>
    <rect x="256.7" y="125.7" width="140" height="20" rx="4" class="tooltip-bg"/>
    <text x="326.7" y="139.7" class="tooltip-text" text-anchor="middle">Oct 2022: 128 total (+20 this month)</text>
  </g>
  <g class="hoverpoint">
    <line x1="337.5" y1="30" x2="337.5" y2="160.0" class="guide"/>
    <circle cx="337.5" cy="149.1" r="16" class="hit"/>
    <circle cx="337.5" cy="149.1" r="4" class="hover-dot"><title>Nov 2022: 168 total (+40 this month)</title></circle>
    <rect x="267.5" y="123.1" width="140" height="20" rx="4" class="tooltip-bg"/>
    <text x="337.5" y="137.1" class="tooltip-text" text-anchor="middle">Nov 2022: 168 total (+40 this month)</text>
  </g>
  <g class="hoverpoint">
    <line x1="349.8" y1="30" x2="349.8" y2="160.0" class="guide"/>
    <circle cx="349.8" cy="148.6" r="16" class="hit"/>
    <circle cx="349.8" cy="148.6" r="4" class="hover-dot"><title>Dec 2022: 175 total (+7 this month)</title></circle>
    <rect x="279.8" y="122.6" width="140" height="20" rx="4" class="tooltip-bg"/>
    <text x="349.8" y="136.6" class="tooltip-text" text-anchor="middle">Dec 2022: 175 total (+7 this month)</text>
  </g>
  <g class="hoverpoint">
    <line x1="357.8" y1="30" x2="357.8" y2="160.0" class="guide"/>
    <circle cx="357.8" cy="146.1" r="16" class="hit"/>
    <circle cx="357.8" cy="146.1" r="4" class="hover-dot"><title>Jan 2023: 214 total (+39 this month)</title></circle>
    <rect x="287.8" y="120.1" width="140" height="20" rx="4" class="tooltip-bg"/>
    <text x="357.8" y="134.1" class="tooltip-text" text-anchor="middle">Jan 2023: 214 total (+39 this month)</text>
  </g>
  <g class="hoverpoint">
    <line x1="373.0" y1="30" x2="373.0" y2="160.0" class="guide"/>
    <circle cx="373.0" cy="145.4" r="16" class="hit"/>
    <circle cx="373.0" cy="145.4" r="4" class="hover-dot"><title>Feb 2023: 225 total (+11 this month)</title></circle>
    <rect x="303.0" y="119.4" width="140" height="20" rx="4" class="tooltip-bg"/>
    <text x="373.0" y="133.4" class="tooltip-text" text-anchor="middle">Feb 2023: 225 total (+11 this month)</text>
  </g>
  <g class="hoverpoint">
    <line x1="379.0" y1="30" x2="379.0" y2="160.0" class="guide"/>
    <circle cx="379.0" cy="144.6" r="16" class="hit"/>
    <circle cx="379.0" cy="144.6" r="4" class="hover-dot"><title>Mar 2023: 237 total (+12 this month)</title></circle>
    <rect x="309.0" y="118.6" width="140" height="20" rx="4" class="tooltip-bg"/>
    <text x="379.0" y="132.6" class="tooltip-text" text-anchor="middle">Mar 2023: 237 total (+12 this month)</text>
  </g>
  <g class="hoverpoint">
    <line x1="388.6" y1="30" x2="388.6" y2="160.0" class="guide"/>
    <circle cx="388.6" cy="144.4" r="16" class="hit"/>
    <circle cx="388.6" cy="144.4" r="4" class="hover-dot"><title>Apr 2023: 240 total (+3 this month)</title></circle>
    <rect x="318.6" y="118.4" width="140" height="20" rx="4" class="tooltip-bg"/>
    <text x="388.6" y="132.4" class="tooltip-text" text-anchor="middle">Apr 2023: 240 total (+3 this month)</text>
  </g>
  <g class="hoverpoint">
    <line x1="593.3" y1="30" x2="593.3" y2="160.0" class="guide"/>
    <circle cx="593.3" cy="143.6" r="16" class="hit"/>
    <circle cx="593.3" cy="143.6" r="4" class="hover-dot"><title>Aug 2024: 252 total (+12 this month)</title></circle>
    <rect x="523.3" y="117.6" width="140" height="20" rx="4" class="tooltip-bg"/>
    <text x="593.3" y="131.6" class="tooltip-text" text-anchor="middle">Aug 2024: 252 total (+12 this month)</text>
  </g>
  <g class="hoverpoint">
    <line x1="604.5" y1="30" x2="604.5" y2="160.0" class="guide"/>
    <circle cx="604.5" cy="143.6" r="16" class="hit"/>
    <circle cx="604.5" cy="143.6" r="4" class="hover-dot"><title>Sep 2024: 253 total (+1 this month)</title></circle>
    <rect x="534.5" y="117.6" width="140" height="20" rx="4" class="tooltip-bg"/>
    <text x="604.5" y="131.6" class="tooltip-text" text-anchor="middle">Sep 2024: 253 total (+1 this month)</text>
  </g>
  <g class="hoverpoint">
    <line x1="617.7" y1="30" x2="617.7" y2="160.0" class="guide"/>
    <circle cx="617.7" cy="143.0" r="16" class="hit"/>
    <circle cx="617.7" cy="143.0" r="4" class="hover-dot"><title>Oct 2024: 261 total (+8 this month)</title></circle>
    <rect x="547.7" y="117.0" width="140" height="20" rx="4" class="tooltip-bg"/>
    <text x="617.7" y="131.0" class="tooltip-text" text-anchor="middle">Oct 2024: 261 total (+8 this month)</text>
  </g>
  <g class="hoverpoint">
    <line x1="652.1" y1="30" x2="652.1" y2="160.0" class="guide"/>
    <circle cx="652.1" cy="142.4" r="16" class="hit"/>
    <circle cx="652.1" cy="142.4" r="4" class="hover-dot"><title>Jan 2025: 270 total (+9 this month)</title></circle>
    <rect x="582.1" y="116.4" width="140" height="20" rx="4" class="tooltip-bg"/>
    <text x="652.1" y="130.4" class="tooltip-text" text-anchor="middle">Jan 2025: 270 total (+9 this month)</text>
  </g>
  <g class="hoverpoint">
    <line x1="657.7" y1="30" x2="657.7" y2="160.0" class="guide"/>
    <circle cx="657.7" cy="142.3" r="16" class="hit"/>
    <circle cx="657.7" cy="142.3" r="4" class="hover-dot"><title>Feb 2025: 272 total (+2 this month)</title></circle>
    <rect x="587.7" y="116.3" width="140" height="20" rx="4" class="tooltip-bg"/>
    <text x="657.7" y="130.3" class="tooltip-text" text-anchor="middle">Feb 2025: 272 total (+2 this month)</text>
  </g>
  <g class="hoverpoint">
    <line x1="678.1" y1="30" x2="678.1" y2="160.0" class="guide"/>
    <circle cx="678.1" cy="140.9" r="16" class="hit"/>
    <circle cx="678.1" cy="140.9" r="4" class="hover-dot"><title>Mar 2025: 294 total (+22 this month)</title></circle>
    <rect x="608.1" y="114.9" width="140" height="20" rx="4" class="tooltip-bg"/>
    <text x="678.1" y="128.9" class="tooltip-text" text-anchor="middle">Mar 2025: 294 total (+22 this month)</text>
  </g>
  <g class="hoverpoint">
    <line x1="691.7" y1="30" x2="691.7" y2="160.0" class="guide"/>
    <circle cx="691.7" cy="137.2" r="16" class="hit"/>
    <circle cx="691.7" cy="137.2" r="4" class="hover-dot"><title>Apr 2025: 351 total (+57 this month)</title></circle>
    <rect x="621.7" y="111.2" width="140" height="20" rx="4" class="tooltip-bg"/>
    <text x="691.7" y="125.2" class="tooltip-text" text-anchor="middle">Apr 2025: 351 total (+57 this month)</text>
  </g>
  <g class="hoverpoint">
    <line x1="699.3" y1="30" x2="699.3" y2="160.0" class="guide"/>
    <circle cx="699.3" cy="133.5" r="16" class="hit"/>
    <circle cx="699.3" cy="133.5" r="4" class="hover-dot"><title>May 2025: 408 total (+57 this month)</title></circle>
    <rect x="629.3" y="107.5" width="140" height="20" rx="4" class="tooltip-bg"/>
    <text x="699.3" y="121.5" class="tooltip-text" text-anchor="middle">May 2025: 408 total (+57 this month)</text>
  </g>
  <g class="hoverpoint">
    <line x1="714.5" y1="30" x2="714.5" y2="160.0" class="guide"/>
    <circle cx="714.5" cy="132.4" r="16" class="hit"/>
    <circle cx="714.5" cy="132.4" r="4" class="hover-dot"><title>Jun 2025: 424 total (+16 this month)</title></circle>
    <rect x="644.5" y="106.4" width="140" height="20" rx="4" class="tooltip-bg"/>
    <text x="714.5" y="120.4" class="tooltip-text" text-anchor="middle">Jun 2025: 424 total (+16 this month)</text>
  </g>
  <g class="hoverpoint">
    <line x1="728.4" y1="30" x2="728.4" y2="160.0" class="guide"/>
    <circle cx="728.4" cy="131.9" r="16" class="hit"/>
    <circle cx="728.4" cy="131.9" r="4" class="hover-dot"><title>Jul 2025: 432 total (+8 this month)</title></circle>
    <rect x="658.4" y="105.9" width="140" height="20" rx="4" class="tooltip-bg"/>
    <text x="728.4" y="119.9" class="tooltip-text" text-anchor="middle">Jul 2025: 432 total (+8 this month)</text>
  </g>
  <g class="hoverpoint">
    <line x1="739.6" y1="30" x2="739.6" y2="160.0" class="guide"/>
    <circle cx="739.6" cy="129.1" r="16" class="hit"/>
    <circle cx="739.6" cy="129.1" r="4" class="hover-dot"><title>Aug 2025: 475 total (+43 this month)</title></circle>
    <rect x="669.6" y="103.1" width="140" height="20" rx="4" class="tooltip-bg"/>
    <text x="739.6" y="117.1" class="tooltip-text" text-anchor="middle">Aug 2025: 475 total (+43 this month)</text>
  </g>
  <g class="hoverpoint">
    <line x1="752.8" y1="30" x2="752.8" y2="160.0" class="guide"/>
    <circle cx="752.8" cy="125.8" r="16" class="hit"/>
    <circle cx="752.8" cy="125.8" r="4" class="hover-dot"><title>Sep 2025: 526 total (+51 this month)</title></circle>
    <rect x="682.8" y="99.8" width="140" height="20" rx="4" class="tooltip-bg"/>
    <text x="752.8" y="113.8" class="tooltip-text" text-anchor="middle">Sep 2025: 526 total (+51 this month)</text>
  </g>
  <g class="hoverpoint">
    <line x1="765.2" y1="30" x2="765.2" y2="160.0" class="guide"/>
    <circle cx="765.2" cy="115.0" r="16" class="hit"/>
    <circle cx="765.2" cy="115.0" r="4" class="hover-dot"><title>Oct 2025: 692 total (+166 this month)</title></circle>
    <rect x="695.2" y="89.0" width="140" height="20" rx="4" class="tooltip-bg"/>
    <text x="765.2" y="103.0" class="tooltip-text" text-anchor="middle">Oct 2025: 692 total (+166 this month)</text>
  </g>
  <g class="hoverpoint">
    <line x1="777.2" y1="30" x2="777.2" y2="160.0" class="guide"/>
    <circle cx="777.2" cy="112.5" r="16" class="hit"/>
    <circle cx="777.2" cy="112.5" r="4" class="hover-dot"><title>Nov 2025: 731 total (+39 this month)</title></circle>
    <rect x="707.2" y="86.5" width="140" height="20" rx="4" class="tooltip-bg"/>
    <text x="777.2" y="100.5" class="tooltip-text" text-anchor="middle">Nov 2025: 731 total (+39 this month)</text>
  </g>
  <g class="hoverpoint">
    <line x1="789.6" y1="30" x2="789.6" y2="160.0" class="guide"/>
    <circle cx="789.6" cy="109.1" r="16" class="hit"/>
    <circle cx="789.6" cy="109.1" r="4" class="hover-dot"><title>Dec 2025: 783 total (+52 this month)</title></circle>
    <rect x="719.6" y="83.1" width="140" height="20" rx="4" class="tooltip-bg"/>
    <text x="789.6" y="97.1" class="tooltip-text" text-anchor="middle">Dec 2025: 783 total (+52 this month)</text>
  </g>
  <g class="hoverpoint">
    <line x1="802.0" y1="30" x2="802.0" y2="160.0" class="guide"/>
    <circle cx="802.0" cy="93.6" r="16" class="hit"/>
    <circle cx="802.0" cy="93.6" r="4" class="hover-dot"><title>Jan 2026: 1,022 total (+239 this month)</title></circle>
    <rect x="732.0" y="67.6" width="140" height="20" rx="4" class="tooltip-bg"/>
    <text x="802.0" y="81.6" class="tooltip-text" text-anchor="middle">Jan 2026: 1,022 total (+239 this month)</text>
  </g>
  <g class="hoverpoint">
    <line x1="813.2" y1="30" x2="813.2" y2="160.0" class="guide"/>
    <circle cx="813.2" cy="74.1" r="16" class="hit"/>
    <circle cx="813.2" cy="74.1" r="4" class="hover-dot"><title>Feb 2026: 1,321 total (+299 this month)</title></circle>
    <rect x="743.2" y="48.1" width="140" height="20" rx="4" class="tooltip-bg"/>
    <text x="813.2" y="62.1" class="tooltip-text" text-anchor="middle">Feb 2026: 1,321 total (+299 this month)</text>
  </g>
  <g class="hoverpoint">
    <line x1="820.0" y1="30" x2="820.0" y2="160.0" class="guide"/>
    <circle cx="820.0" cy="57.8" r="16" class="hit"/>
    <circle cx="820.0" cy="57.8" r="4" class="hover-dot"><title>Mar 2026: 1,572 total (+251 this month)</title></circle>
    <rect x="750.0" y="31.8" width="140" height="20" rx="4" class="tooltip-bg"/>
    <text x="820.0" y="45.8" class="tooltip-text" text-anchor="middle">Mar 2026: 1,572 total (+251 this month)</text>
  </g>

  <circle cx="820.0" cy="57.8" r="4" class="dot"/>
  <text x="810.0" y="47.8" class="total">1,572</text>

</svg>