<svg xmlns="http://www.w3.org/2000/svg" width="840" height="196" viewBox="0 0 840 196" fill="none">
  <style>
    .label { font-family: -apple-system, BlinkMacSystemFont, 'Segoe UI', Helvetica, Arial, sans-serif; font-size: 10px; fill: #8b949e; }
    .title { font-family: -apple-system, BlinkMacSystemFont, 'Segoe UI', Helvetica, Arial, sans-serif; font-size: 11px; fill: #8b949e; font-weight: 600; }
    .total { font-family: -apple-system, BlinkMacSystemFont, 'Segoe UI', Helvetica, Arial, sans-serif; font-size: 11px; fill: #7ee787; font-weight: 600; }
    .grid { stroke: #21262d; stroke-width: 1; }
    .line { stroke: #7ee787; stroke-width: 2; stroke-linecap: round; stroke-linejoin: round; fill: none; }
    .dot { fill: #7ee787; }
    .area { fill: url(#areaGrad); }
    /* Hover interaction */
    .hoverpoint .guide { stroke: #7ee787; stroke-width: 1; stroke-dasharray: 2,2; opacity: 0; }
    .hoverpoint .hover-dot { fill: #7ee787; opacity: 0; }
    .hoverpoint .hit { fill: transparent; cursor: pointer; }
    .hoverpoint .tooltip-bg { fill: #161b22; stroke: #30363d; stroke-width: 1; opacity: 0; }
    .hoverpoint .tooltip-text { font-family: -apple-system, BlinkMacSystemFont, 'Segoe UI', Helvetica, Arial, sans-serif; font-size: 9px; fill: #c9d1d9; opacity: 0; }
    .hoverpoint:hover .guide { opacity: 0.5; }
    .hoverpoint:hover .hover-dot { opacity: 1; }
    .hoverpoint:hover .tooltip-bg { opacity: 0.95; }
    .hoverpoint:hover .tooltip-text { opacity: 1; }
  </style>
  <defs>
    <linearGradient id="areaGrad" x1="0" y1="0" x2="0" y2="1">
      <stop offset="0%" stop-color="#7ee787" stop-opacity="0.15"/>
      <stop offset="100%" stop-color="#7ee787" stop-opacity="0.01"/>
    </linearGradient>
  </defs>

  <text x="60" y="18" class="title">Cumulative Commits</text>

  <line x1="60" y1="160.0" x2="820" y2="160.0" class="grid"/>
  <text x="50" y="163.0" class="label" text-anchor="end">0</text>
  <line x1="60" y1="127.5" x2="820" y2="127.5" class="grid" stroke-dasharray="3,3"/>
  <text x="50" y="130.5" class="label" text-anchor="end">750</text>
  <line x1="60" y1="95.0" x2="820" y2="95.0" class="grid" stroke-dasharray="3,3"/>
  <text x="50" y="98.0" class="label" text-anchor="end">1,500</text>
  <line x1="60" y1="62.5" x2="820" y2="62.5" class="grid" stroke-dasharray="3,3"/>
  <text x="50" y="65.5" class="label" text-anchor="end">2,250</text>
  <line x1="60" y1="30.0" x2="820" y2="30.0" class="grid" stroke-dasharray="3,3"/>
  <text x="50" y="33.0" class="label" text-anchor="end">3,000</text>

  <text x="70.0" y="186" class="label" text-anchor="middle">2021</text>
  <text x="201.1" y="186" class="label" text-anchor="middle">2022</text>
  <text x="342.2" y="186" class="label" text-anchor="middle">2023</text>
  <text x="483.3" y="186" class="label" text-anchor="middle">2024</text>
  <text x="624.8" y="186" class="label" text-anchor="middle">2025</text>
  <text x="765.9" y="186" class="label" text-anchor="middle">2026</text>


  <path class="area" d="M60.0,160.0 L60.0,160.0 60.0,160.0 L181.0,159.8 L181.4,159.7 L182.5,159.7 L201.1,159.6 L201.5,159.3 L201.9,159.3 L202.3,159.1 L202.6,159.0 L203.0,159.0 L203.8,158.7 L204.2,158.6 L204.6,158.5 L205.0,158.5 L206.5,158.4 L206.9,158.3 L207.3,158.3 L211.1,158.2 L221.2,158.1 L274.2,158.1 L274.5,157.7 L276.1,157.6 L276.9,157.3 L282.7,157.2 L283.4,157.1 L283.8,156.9 L284.2,156.9 L285.0,156.8 L285.4,156.4 L285.8,156.0 L286.1,155.9 L287.7,155.8 L288.5,155.7 L290.4,155.6 L295.8,155.4 L306.2,155.3 L312.0,155.3 L314.8,155.2 L315.1,155.1 L315.5,155.0 L315.9,154.8 L317.1,154.5 L317.5,154.5 L317.8,154.5 L319.4,154.3 L319.8,154.1 L320.2,154.0 L320.5,153.6 L320.9,153.2 L321.3,153.1 L321.7,153.0 L322.5,152.9 L324.0,152.8 L328.3,152.7 L339.5,152.7 L339.9,152.5 L340.3,152.4 L344.1,152.0 L344.5,151.0 L345.7,150.9 L346.1,150.9 L348.0,150.7 L361.1,150.6 L361.5,150.5 L361.9,150.4 L362.7,150.2 L365.4,150.1 L366.2,149.9 L366.6,149.8 L368.5,149.7 L377.8,149.6 L568.0,149.5 L568.7,149.5 L569.5,149.4 L570.3,149.3 L570.7,149.3 L571.0,149.2 L571.4,149.2 L571.8,149.1 L575.7,149.1 L586.5,149.0 L589.6,149.0 L590.8,148.9 L593.1,148.9 L595.4,148.9 L595.8,148.8 L597.3,148.8 L598.5,148.7 L599.3,148.7 L627.9,148.6 L628.3,148.6 L629.0,148.5 L629.4,148.5 L630.6,148.3 L632.5,148.3 L637.9,148.2 L649.1,147.8 L649.5,147.7 L654.5,147.6 L654.9,147.5 L656.1,147.4 L657.6,147.3 L659.6,146.8 L660.0,145.6 L660.3,145.5 L662.7,145.4 L663.8,145.4 L664.2,145.4 L665.0,145.2 L668.1,145.1 L670.8,144.8 L672.7,144.5 L673.1,144.4 L674.3,144.1 L674.6,143.6 L675.0,143.5 L675.4,143.3 L675.8,143.1 L676.2,142.9 L677.0,142.6 L678.1,142.3 L692.0,142.2 L692.8,141.6 L701.3,141.5 L706.3,141.3 L708.7,141.2 L709.1,141.2 L711.4,141.2 L711.8,141.1 L712.1,141.1 L712.5,140.9 L712.9,140.8 L713.3,140.3 L713.7,140.2 L716.0,139.6 L716.4,139.5 L717.2,139.4 L719.9,139.2 L720.7,139.2 L721.0,139.0 L721.8,139.0 L722.2,138.7 L722.6,138.6 L723.4,138.5 L723.7,138.4 L724.1,138.4 L724.5,138.3 L726.1,138.1 L726.4,138.0 L726.8,137.9 L727.2,137.8 L727.6,137.7 L728.0,137.6 L729.2,137.4 L729.5,137.3 L729.9,137.2 L730.3,137.1 L730.7,136.8 L731.5,136.7 L731.9,136.3 L732.2,136.0 L732.6,135.2 L733.0,135.0 L733.4,134.8 L733.8,134.3 L734.2,134.3 L734.6,134.1 L735.0,134.1 L735.3,133.8 L737.3,133.3 L737.7,133.2 L738.0,132.8 L738.4,132.1 L738.8,132.0 L739.6,131.9 L740.0,131.3 L740.4,130.9 L740.8,130.9 L741.1,130.2 L741.9,130.0 L742.3,129.9 L742.7,129.8 L743.1,129.8 L743.5,129.8 L743.8,129.7 L745.4,129.6 L746.2,129.5 L746.6,129.2 L746.9,129.0 L748.1,129.0 L750.0,128.9 L752.3,128.7 L752.7,128.6 L753.1,128.6 L753.5,128.3 L753.9,127.7 L754.3,127.7 L754.7,127.6 L755.1,127.5 L755.4,127.4 L755.8,127.1 L760.1,127.0 L760.5,126.9 L763.9,126.6 L764.7,126.3 L765.1,126.2 L765.5,126.1 L765.9,126.0 L767.0,125.9 L767.4,125.2 L767.8,123.7 L768.2,122.3 L768.6,122.3 L769.0,122.1 L769.7,121.9 L770.1,121.7 L770.5,121.4 L771.3,121.3 L771.7,120.9 L772.1,120.9 L772.8,120.3 L773.2,120.2 L773.6,119.9 L774.0,119.7 L774.4,119.4 L774.8,119.4 L775.9,119.0 L776.3,118.7 L776.7,117.7 L777.1,116.3 L777.5,115.7 L777.9,115.1 L778.3,115.0 L778.6,114.8 L779.0,114.6 L779.4,114.2 L779.8,113.8 L780.2,113.7 L780.6,113.4 L781.0,113.3 L781.3,113.0 L781.7,112.6 L782.1,112.3 L782.5,111.9 L782.9,111.8 L783.3,111.6 L783.7,110.9 L784.0,109.6 L784.4,109.4 L785.2,109.1 L785.6,109.0 L786.0,108.9 L786.4,106.8 L786.8,105.8 L787.1,104.9 L787.5,104.5 L787.9,102.9 L788.3,102.8 L788.7,102.7 L789.1,102.3 L789.5,101.6 L789.8,100.2 L790.2,98.8 L790.6,98.7 L791.0,98.4 L791.8,98.3 L792.2,97.5 L792.6,96.8 L792.9,95.9 L793.3,95.7 L793.7,95.7 L794.1,94.3 L794.5,92.6 L794.9,91.9 L795.3,91.5 L795.6,91.1 L796.0,90.7 L796.4,90.7 L797.2,90.5 L797.6,90.2 L798.0,90.1 L798.4,90.1 L798.7,90.0 L799.9,90.0 L800.3,89.9 L801.1,89.8 L801.8,89.8 L802.2,89.7 L803.0,89.1 L803.4,88.8 L803.8,88.6 L806.1,88.5 L806.5,88.2 L806.9,88.1 L807.2,87.8 L807.6,87.7 L808.0,87.6 L808.4,87.5 L808.8,86.9 L809.2,86.2 L809.6,86.0 L809.9,84.7 L810.3,84.5 L811.1,84.5 L811.5,84.4 L812.7,84.0 L813.0,83.5 L813.4,83.2 L813.8,82.9 L814.2,81.9 L814.6,78.2 L815.0,76.6 L815.4,76.4 L815.7,76.1 L816.1,75.4 L816.5,75.3 L816.9,70.1 L817.3,63.7 L817.7,61.8 L818.1,61.8 L818.5,60.8 L818.8,60.0 L819.2,56.2 L819.6,54.7 L820.0,53.8 L820.0,160.0 Z"/>
  <polyline class="line" points="60.0,160.0 181.0,159.8 181.4,159.7 182.5,159.7 201.1,159.6 201.5,159.3 201.9,159.3 202.3,159.1 202.6,159.0 203.0,159.0 203.8,158.7 204.2,158.6 204.6,158.5 205.0,158.5 206.5,158.4 206.9,158.3 207.3,158.3 211.1,158.2 221.2,158.1 274.2,158.1 274.5,157.7 276.1,157.6 276.9,157.3 282.7,157.2 283.4,157.1 283.8,156.9 284.2,156.9 285.0,156.8 285.4,156.4 285.8,156.0 286.1,155.9 287.7,155.8 288.5,155.7 290.4,155.6 295.8,155.4 306.2,155.3 312.0,155.3 314.8,155.2 315.1,155.1 315.5,155.0 315.9,154.8 317.1,154.5 317.5,154.5 317.8,154.5 319.4,154.3 319.8,154.1 320.2,154.0 320.5,153.6 320.9,153.2 321.3,153.1 321.7,153.0 322.5,152.9 324.0,152.8 328.3,152.7 339.5,152.7 339.9,152.5 340.3,152.4 344.1,152.0 344.5,151.0 345.7,150.9 346.1,150.9 348.0,150.7 361.1,150.6 361.5,150.5 361.9,150.4 362.7,150.2 365.4,150.1 366.2,149.9 366.6,149.8 368.5,149.7 377.8,149.6 568.0,149.5 568.7,149.5 569.5,149.4 570.3,149.3 570.7,149.3 571.0,149.2 571.4,149.2 571.8,149.1 575.7,149.1 586.5,149.0 589.6,149.0 590.8,148.9 593.1,148.9 595.4,148.9 595.8,148.8 597.3,148.8 598.5,148.7 599.3,148.7 627.9,148.6 628.3,148.6 629.0,148.5 629.4,148.5 630.6,148.3 632.5,148.3 637.9,148.2 649.1,147.8 649.5,147.7 654.5,147.6 654.9,147.5 656.1,147.4 657.6,147.3 659.6,146.8 660.0,145.6 660.3,145.5 662.7,145.4 663.8,145.4 664.2,145.4 665.0,145.2 668.1,145.1 670.8,144.8 672.7,144.5 673.1,144.4 674.3,144.1 674.6,143.6 675.0,143.5 675.4,143.3 675.8,143.1 676.2,142.9 677.0,142.6 678.1,142.3 692.0,142.2 692.8,141.6 701.3,141.5 706.3,141.3 708.7,141.2 709.1,141.2 711.4,141.2 711.8,141.1 712.1,141.1 712.5,140.9 712.9,140.8 713.3,140.3 713.7,140.2 716.0,139.6 716.4,139.5 717.2,139.4 719.9,139.2 720.7,139.2 721.0,139.0 721.8,139.0 722.2,138.7 722.6,138.6 723.4,138.5 723.7,138.4 724.1,138.4 724.5,138.3 726.1,138.1 726.4,138.0 726.8,137.9 727.2,137.8 727.6,137.7 728.0,137.6 729.2,137.4 729.5,137.3 729.9,137.2 730.3,137.1 730.7,136.8 731.5,136.7 731.9,136.3 732.2,136.0 732.6,135.2 733.0,135.0 733.4,134.8 733.8,134.3 734.2,134.3 734.6,134.1 735.0,134.1 735.3,133.8 737.3,133.3 737.7,133.2 738.0,132.8 738.4,132.1 738.8,132.0 739.6,131.9 740.0,131.3 740.4,130.9 740.8,130.9 741.1,130.2 741.9,130.0 742.3,129.9 742.7,129.8 743.1,129.8 743.5,129.8 743.8,129.7 745.4,129.6 746.2,129.5 746.6,129.2 746.9,129.0 748.1,129.0 750.0,128.9 752.3,128.7 752.7,128.6 753.1,128.6 753.5,128.3 753.9,127.7 754.3,127.7 754.7,127.6 755.1,127.5 755.4,127.4 755.8,127.1 760.1,127.0 760.5,126.9 763.9,126.6 764.7,126.3 765.1,126.2 765.5,126.1 765.9,126.0 767.0,125.9 767.4,125.2 767.8,123.7 768.2,122.3 768.6,122.3 769.0,122.1 769.7,121.9 770.1,121.7 770.5,121.4 771.3,121.3 771.7,120.9 772.1,120.9 772.8,120.3 773.2,120.2 773.6,119.9 774.0,119.7 774.4,119.4 774.8,119.4 775.9,119.0 776.3,118.7 776.7,117.7 777.1,116.3 777.5,115.7 777.9,115.1 778.3,115.0 778.6,114.8 779.0,114.6 779.4,114.2 779.8,113.8 780.2,113.7 780.6,113.4 781.0,113.3 781.3,113.0 781.7,112.6 782.1,112.3 782.5,111.9 782.9,111.8 783.3,111.6 783.7,110.9 784.0,109.6 784.4,109.4 785.2,109.1 785.6,109.0 786.0,108.9 786.4,106.8 786.8,105.8 787.1,104.9 787.5,104.5 787.9,102.9 788.3,102.8 788.7,102.7 789.1,102.3 789.5,101.6 789.8,100.2 790.2,98.8 790.6,98.7 791.0,98.4 791.8,98.3 792.2,97.5 792.6,96.8 792.9,95.9 793.3,95.7 793.7,95.7 794.1,94.3 794.5,92.6 794.9,91.9 795.3,91.5 795.6,91.1 796.0,90.7 796.4,90.7 797.2,90.5 797.6,90.2 798.0,90.1 798.4,90.1 798.7,90.0 799.9,90.0 800.3,89.9 801.1,89.8 801.8,89.8 802.2,89.7 803.0,89.1 803.4,88.8 803.8,88.6 806.1,88.5 806.5,88.2 806.9,88.1 807.2,87.8 807.6,87.7 808.0,87.6 808.4,87.5 808.8,86.9 809.2,86.2 809.6,86.0 809.9,84.7 810.3,84.5 811.1,84.5 811.5,84.4 812.7,84.0 813.0,83.5 813.4,83.2 813.8,82.9 814.2,81.9 814.6,78.2 815.0,76.6 815.4,76.4 815.7,76.1 816.1,75.4 816.5,75.3 816.9,70.1 817.3,63.7 817.7,61.8 818.1,61.8 818.5,60.8 818.8,60.0 819.2,56.2 819.6,54.7 820.0,53.8"/>

  <g class="hoverpoint">
    <line x1="182.5" y1="30" x2="182.5" y2="160.0" class="guide"/>
    <circle cx="182.5" cy="159.7" r="16" class="hit"/>
    <circle cx="182.5" cy="159.7" r="4" class="hover-dot"><title>Nov 2021: 7 total (+7 this month)</title></circle>
    <rect x="112.5" y="133.7" width="140" height="20" rx="4" class="tooltip-bg"/>
    <text x="182.5" y="147.7" class="tooltip-text" text-anchor="middle">Nov 2021: 7 total (+7 this month)</text>
  </g>
  <g class="hoverpoint">
    <line x1="211.1" y1="30" x2="211.1" y2="160.0" class="guide"/>
    <circle cx="211.1" cy="158.2" r="16" class="hit"/>
    <circle cx="211.1" cy="158.2" r="4" class="hover-dot"><title>Jan 2022: 41 total (+34 this month)</title></circle>
    <rect x="141.1" y="132.2" width="140" height="20" rx="4" class="tooltip-bg"/>
    <text x="211.1" y="146.2" class="tooltip-text" text-anchor="middle">Jan 2022: 41 total (+34 this month)</text>
  </g>
  <g class="hoverpoint">
    <line x1="221.2" y1="30" x2="221.2" y2="160.0" class="guide"/>
    <circle cx="221.2" cy="158.1" r="16" class="hit"/>
    <circle cx="221.2" cy="158.1" r="4" class="hover-dot"><title>Feb 2022: 44 total (+3 this month)</title></circle>
    <rect x="151.2" y="132.1" width="140" height="20" rx="4" class="tooltip-bg"/>
    <text x="221.2" y="146.1" class="tooltip-text" text-anchor="middle">Feb 2022: 44 total (+3 this month)</text>
  </g>
  <g class="hoverpoint">
    <line x1="282.7" y1="30" x2="282.7" y2="160.0" class="guide"/>
    <circle cx="282.7" cy="157.2" r="16" class="hit"/>
    <circle cx="282.7" cy="157.2" r="4" class="hover-dot"><title>Jul 2022: 65 total (+21 this month)</title></circle>
    <rect x="212.7" y="131.2" width="140" height="20" rx="4" class="tooltip-bg"/>
    <text x="282.7" y="145.2" class="tooltip-text" text-anchor="middle">Jul 2022: 65 total (+21 this month)</text>
  </g>
  <g class="hoverpoint">
    <line x1="290.4" y1="30" x2="290.4" y2="160.0" class="guide"/>
    <circle cx="290.4" cy="155.6" r="16" class="hit"/>
    <circle cx="290.4" cy="155.6" r="4" class="hover-dot"><title>Aug 2022: 101 total (+36 this month)</title></circle>
    <rect x="220.4" y="129.6" width="140" height="20" rx="4" class="tooltip-bg"/>
    <text x="290.4" y="143.6" class="tooltip-text" text-anchor="middle">Aug 2022: 101 total (+36 this month)</text>
  </g>
  <g class="hoverpoint">
    <line x1="306.2" y1="30" x2="306.2" y2="160.0" class="guide"/>
    <circle cx="306.2" cy="155.3" r="16" class="hit"/>
    <circle cx="306.2" cy="155.3" r="4" class="hover-dot"><title>Sep 2022: 108 total (+7 this month)</title></circle>
    <rect x="236.2" y="129.3" width="140" height="20" rx="4" class="tooltip-bg"/>
    <text x="306.2" y="143.3" class="tooltip-text" text-anchor="middle">Sep 2022: 108 total (+7 this month)</text>
  </g>
  <g class="hoverpoint">
    <line x1="317.8" y1="30" x2="317.8" y2="160.0" class="guide"/>
    <circle cx="317.8" cy="154.5" r="16" class="hit"/>
    <circle cx="317.8" cy="154.5" r="4" class="hover-dot"><title>Oct 2022: 128 total (+20 this month)</title></circle>
    <rect x="247.8" y="128.5" width="140" height="20" rx="4" class="tooltip-bg"/>
    <text x="317.8" y="142.5" class="tooltip-text" text-anchor="middle">Oct 2022: 128 total (+20 this month)</text>
  </g>
  <g class="hoverpoint">
    <line x1="328.3" y1="30" x2="328.3" y2="160.0" class="guide"/>
    <circle cx="328.3" cy="152.7" r="16" class="hit"/>
    <circle cx="328.3" cy="152.7" r="4" class="hover-dot"><title>Nov 2022: 168 total (+40 this month)</title></circle>
    <rect x="258.3" y="126.7" width="140" height="20" rx="4" class="tooltip-bg"/>
    <text x="328.3" y="140.7" class="tooltip-text" text-anchor="middle">Nov 2022: 168 total (+40 this month)</text>
  </g>
  <g class="hoverpoint">
    <line x1="340.3" y1="30" x2="340.3" y2="160.0" class="guide"/>
    <circle cx="340.3" cy="152.4" r="16" class="hit"/>
    <circle cx="340.3" cy="152.4" r="4" class="hover-dot"><title>Dec 2022: 175 total (+7 this month)</title></circle>
    <rect x="270.3" y="126.4" width="140" height="20" rx="4" class="tooltip-bg"/>
    <text x="340.3" y="140.4" class="tooltip-text" text-anchor="middle">Dec 2022: 175 total (+7 this month)</text>
  </g>
  <g class="hoverpoint">
    <line x1="348.0" y1="30" x2="348.0" y2="160.0" class="guide"/>
    <circle cx="348.0" cy="150.7" r="16" class="hit"/>
    <circle cx="348.0" cy="150.7" r="4" class="hover-dot"><title>Jan 2023: 214 total (+39 this month)</title></circle>
    <rect x="278.0" y="124.7" width="140" height="20" rx="4" class="tooltip-bg"/>
    <text x="348.0" y="138.7" class="tooltip-text" text-anchor="middle">Jan 2023: 214 total (+39 this month)</text>
  </g>
  <g class="hoverpoint">
    <line x1="362.7" y1="30" x2="362.7" y2="160.0" class="guide"/>
    <circle cx="362.7" cy="150.2" r="16" class="hit"/>
    <circle cx="362.7" cy="150.2" r="4" class="hover-dot"><title>Feb 2023: 225 total (+11 this month)</title></circle>
    <rect x="292.7" y="124.2" width="140" height="20" rx="4" class="tooltip-bg"/>
    <text x="362.7" y="138.2" class="tooltip-text" text-anchor="middle">Feb 2023: 225 total (+11 this month)</text>
  </g>
  <g class="hoverpoint">
    <line x1="368.5" y1="30" x2="368.5" y2="160.0" class="guide"/>
    <circle cx="368.5" cy="149.7" r="16" class="hit"/>
    <circle cx="368.5" cy="149.7" r="4" class="hover-dot"><title>Mar 2023: 237 total (+12 this month)</title></circle>
    <rect x="298.5" y="123.7" width="140" height="20" rx="4" class="tooltip-bg"/>
    <text x="368.5" y="137.7" class="tooltip-text" text-anchor="middle">Mar 2023: 237 total (+12 this month)</text>
  </g>
  <g class="hoverpoint">
    <line x1="377.8" y1="30" x2="377.8" y2="160.0" class="guide"/>
    <circle cx="377.8" cy="149.6" r="16" class="hit"/>
    <circle cx="377.8" cy="149.6" r="4" class="hover-dot"><title>Apr 2023: 240 total (+3 this month)</title></circle>
    <rect x="307.8" y="123.6" width="140" height="20" rx="4" class="tooltip-bg"/>
    <text x="377.8" y="137.6" class="tooltip-text" text-anchor="middle">Apr 2023: 240 total (+3 this month)</text>
  </g>
  <g class="hoverpoint">
    <line x1="575.7" y1="30" x2="575.7" y2="160.0" class="guide"/>
    <circle cx="575.7" cy="149.1" r="16" class="hit"/>
    <circle cx="575.7" cy="149.1" r="4" class="hover-dot"><title>Aug 2024: 252 total (+12 this month)</title></circle>
    <rect x="505.7" y="123.1" width="140" height="20" rx="4" class="tooltip-bg"/>
    <text x="575.7" y="137.1" class="tooltip-text" text-anchor="middle">Aug 2024: 252 total (+12 this month)</text>
  </g>
  <g class="hoverpoint">
    <line x1="586.5" y1="30" x2="586.5" y2="160.0" class="guide"/>
    <circle cx="586.5" cy="149.0" r="16" class="hit"/>
    <circle cx="586.5" cy="149.0" r="4" class="hover-dot"><title>Sep 2024: 253 total (+1 this month)</title></circle>
    <rect x="516.5" y="123.0" width="140" height="20" rx="4" class="tooltip-bg"/>
    <text x="586.5" y="137.0" class="tooltip-text" text-anchor="middle">Sep 2024: 253 total (+1 this month)</text>
  </g>
  <g class="hoverpoint">
    <line x1="599.3" y1="30" x2="599.3" y2="160.0" class="guide"/>
    <circle cx="599.3" cy="148.7" r="16" class="hit"/>
    <circle cx="599.3" cy="148.7" r="4" class="hover-dot"><title>Oct 2024: 261 total (+8 this month)</title></circle>
    <rect x="529.3" y="122.7" width="140" height="20" rx="4" class="tooltip-bg"/>
    <text x="599.3" y="136.7" class="tooltip-text" text-anchor="middle">Oct 2024: 261 total (+8 this month)</text>
  </g>
  <g class="hoverpoint">
    <line x1="632.5" y1="30" x2="632.5" y2="160.0" class="guide"/>
    <circle cx="632.5" cy="148.3" r="16" class="hit"/>
    <circle cx="632.5" cy="148.3" r="4" class="hover-dot"><title>Jan 2025: 270 total (+9 this month)</title></circle>
    <rect x="562.5" y="122.3" width="140" height="20" rx="4" class="tooltip-bg"/>
    <text x="632.5" y="136.3" class="tooltip-text" text-anchor="middle">Jan 2025: 270 total (+9 this month)</text>
  </g>
  <g class="hoverpoint">
    <line x1="637.9" y1="30" x2="637.9" y2="160.0" class="guide"/>
    <circle cx="637.9" cy="148.2" r="16" class="hit"/>
    <circle cx="637.9" cy="148.2" r="4" class="hover-dot"><title>Feb 2025: 272 total (+2 this month)</title></circle>
    <rect x="567.9" y="122.2" width="140" height="20" rx="4" class="tooltip-bg"/>
    <text x="637.9" y="136.2" class="tooltip-text" text-anchor="middle">Feb 2025: 272 total (+2 this month)</text>
  </g>
  <g class="hoverpoint">
    <line x1="657.6" y1="30" x2="657.6" y2="160.0" class="guide"/>
    <circle cx="657.6" cy="147.3" r="16" class="hit"/>
    <circle cx="657.6" cy="147.3" r="4" class="hover-dot"><title>Mar 2025: 294 total (+22 this month)</title></circle>
    <rect x="587.6" y="121.3" width="140" height="20" rx="4" class="tooltip-bg"/>
    <text x="657.6" y="135.3" class="tooltip-text" text-anchor="middle">Mar 2025: 294 total (+22 this month)</text>
  </g>
  <g class="hoverpoint">
    <line x1="670.8" y1="30" x2="670.8" y2="160.0" class="guide"/>
    <circle cx="670.8" cy="144.8" r="16" class="hit"/>
    <circle cx="670.8" cy="144.8" r="4" class="hover-dot"><title>Apr 2025: 351 total (+57 this month)</title></circle>
    <rect x="600.8" y="118.8" width="140" height="20" rx="4" class="tooltip-bg"/>
    <text x="670.8" y="132.8" class="tooltip-text" text-anchor="middle">Apr 2025: 351 total (+57 this month)</text>
  </g>
  <g class="hoverpoint">
    <line x1="678.1" y1="30" x2="678.1" y2="160.0" class="guide"/>
    <circle cx="678.1" cy="142.3" r="16" class="hit"/>
    <circle cx="678.1" cy="142.3" r="4" class="hover-dot"><title>May 2025: 408 total (+57 this month)</title></circle>
    <rect x="608.1" y="116.3" width="140" height="20" rx="4" class="tooltip-bg"/>
    <text x="678.1" y="130.3" class="tooltip-text" text-anchor="middle">May 2025: 408 total (+57 this month)</text>
  </g>
  <g class="hoverpoint">
    <line x1="692.8" y1="30" x2="692.8" y2="160.0" class="guide"/>
    <circle cx="692.8" cy="141.6" r="16" class="hit"/>
    <circle cx="692.8" cy="141.6" r="4" class="hover-dot"><title>Jun 2025: 424 total (+16 this month)</title></circle>
    <rect x="622.8" y="115.6" width="140" height="20" rx="4" class="tooltip-bg"/>
    <text x="692.8" y="129.6" class="tooltip-text" text-anchor="middle">Jun 2025: 424 total (+16 this month)</text>
  </g>
  <g class="hoverpoint">
    <line x1="706.3" y1="30" x2="706.3" y2="160.0" class="guide"/>
    <circle cx="706.3" cy="141.3" r="16" class="hit"/>
    <circle cx="706.3" cy="141.3" r="4" class="hover-dot"><title>Jul 2025: 432 total (+8 this month)</title></circle>
    <rect x="636.3" y="115.3" width="140" height="20" rx="4" class="tooltip-bg"/>
    <text x="706.3" y="129.3" class="tooltip-text" text-anchor="middle">Jul 2025: 432 total (+8 this month)</text>
  </g>
  <g class="hoverpoint">
    <line x1="717.2" y1="30" x2="717.2" y2="160.0" class="guide"/>
    <circle cx="717.2" cy="139.4" r="16" class="hit"/>
    <circle cx="717.2" cy="139.4" r="4" class="hover-dot"><title>Aug 2025: 475 total (+43 this month)</title></circle>
    <rect x="647.2" y="113.4" width="140" height="20" rx="4" class="tooltip-bg"/>
    <text x="717.2" y="127.4" class="tooltip-text" text-anchor="middle">Aug 2025: 475 total (+43 this month)</text>
  </g>
  <g class="hoverpoint">
    <line x1="729.9" y1="30" x2="729.9" y2="160.0" class="guide"/>
    <circle cx="729.9" cy="137.2" r="16" class="hit"/>
    <circle cx="729.9" cy="137.2" r="4" class="hover-dot"><title>Sep 2025: 526 total (+51 this month)</title></circle>
    <rect x="659.9" y="111.2" width="140" height="20" rx="4" class="tooltip-bg"/>
    <text x="729.9" y="125.2" class="tooltip-text" text-anchor="middle">Sep 2025: 526 total (+51 this month)</text>
  </g>
  <g class="hoverpoint">
    <line x1="741.9" y1="30" x2="741.9" y2="160.0" class="guide"/>
    <circle cx="741.9" cy="130.0" r="16" class="hit"/>
    <circle cx="741.9" cy="130.0" r="4" class="hover-dot"><title>Oct 2025: 692 total (+166 this month)</title></circle>
    <rect x="671.9" y="104.0" width="140" height="20" rx="4" class="tooltip-bg"/>
    <text x="741.9" y="118.0" class="tooltip-text" text-anchor="middle">Oct 2025: 692 total (+166 this month)</text>
  </g>
  <g class="hoverpoint">
    <line x1="753.5" y1="30" x2="753.5" y2="160.0" class="guide"/>
    <circle cx="753.5" cy="128.3" r="16" class="hit"/>
    <circle cx="753.5" cy="128.3" r="4" class="hover-dot"><title>Nov 2025: 731 total (+39 this month)</title></circle>
    <rect x="683.5" y="102.3" width="140" height="20" rx="4" class="tooltip-bg"/>
    <text x="753.5" y="116.3" class="tooltip-text" text-anchor="middle">Nov 2025: 731 total (+39 this month)</text>
  </g>
  <g class="hoverpoint">
    <line x1="765.5" y1="30" x2="765.5" y2="160.0" class="guide"/>
    <circle cx="765.5" cy="126.1" r="16" class="hit"/>
    <circle cx="765.5" cy="126.1" r="4" class="hover-dot"><title>Dec 2025: 783 total (+52 this month)</title></circle>
    <rect x="695.5" y="100.1" width="140" height="20" rx="4" class="tooltip-bg"/>
    <text x="765.5" y="114.1" class="tooltip-text" text-anchor="middle">Dec 2025: 783 total (+52 this month)</text>
  </g>
  <g class="hoverpoint">
    <line x1="777.5" y1="30" x2="777.5" y2="160.0" class="guide"/>
    <circle cx="777.5" cy="115.7" r="16" class="hit"/>
    <circle cx="777.5" cy="115.7" r="4" class="hover-dot"><title>Jan 2026: 1,022 total (+239 this month)</title></circle>
    <rect x="707.5" y="89.7" width="140" height="20" rx="4" class="tooltip-bg"/>
    <text x="777.5" y="103.7" class="tooltip-text" text-anchor="middle">Jan 2026: 1,022 total (+239 this month)</text>
  </g>
  <g class="hoverpoint">
    <line x1="788.3" y1="30" x2="788.3" y2="160.0" class="guide"/>
    <circle cx="788.3" cy="102.8" r="16" class="hit"/>
    <circle cx="788.3" cy="102.8" r="4" class="hover-dot"><title>Feb 2026: 1,321 total (+299 this month)</title></circle>
    <rect x="718.3" y="76.8" width="140" height="20" rx="4" class="tooltip-bg"/>
    <text x="788.3" y="90.8" class="tooltip-text" text-anchor="middle">Feb 2026: 1,321 total (+299 this month)</text>
  </g>
  <g class="hoverpoint">
    <line x1="800.3" y1="30" x2="800.3" y2="160.0" class="guide"/>
    <circle cx="800.3" cy="89.9" r="16" class="hit"/>
    <circle cx="800.3" cy="89.9" r="4" class="hover-dot"><title>Mar 2026: 1,617 total (+296 this month)</title></circle>
    <rect x="730.3" y="63.9" width="140" height="20" rx="4" class="tooltip-bg"/>
    <text x="800.3" y="77.9" class="tooltip-text" text-anchor="middle">Mar 2026: 1,617 total (+296 this month)</text>
  </g>
  <g class="hoverpoint">
    <line x1="811.5" y1="30" x2="811.5" y2="160.0" class="guide"/>
    <circle cx="811.5" cy="84.4" r="16" class="hit"/>
    <circle cx="811.5" cy="84.4" r="4" class="hover-dot"><title>Apr 2026: 1,744 total (+127 this month)</title></circle>
    <rect x="741.5" y="58.4" width="140" height="20" rx="4" class="tooltip-bg"/>
    <text x="811.5" y="72.4" class="tooltip-text" text-anchor="middle">Apr 2026: 1,744 total (+127 this month)</text>
  </g>
  <g class="hoverpoint">
    <line x1="820.0" y1="30" x2="820.0" y2="160.0" class="guide"/>
    <circle cx="820.0" cy="53.8" r="16" class="hit"/>
    <circle cx="820.0" cy="53.8" r="4" class="hover-dot"><title>May 2026: 2,450 total (+706 this month)</title></circle>
    <rect x="750.0" y="27.8" width="140" height="20" rx="4" class="tooltip-bg"/>
    <text x="820.0" y="41.8" class="tooltip-text" text-anchor="middle">May 2026: 2,450 total (+706 this month)</text>
  </g>

  <circle cx="820.0" cy="53.8" r="4" class="dot"/>
  <text x="810.0" y="43.8" class="total">2,450</text>

</svg>