<svg xmlns="http://www.w3.org/2000/svg" width="840" height="196" viewBox="0 0 840 196" fill="none">
  <style>
    .label { font-family: -apple-system, BlinkMacSystemFont, 'Segoe UI', Helvetica, Arial, sans-serif; font-size: 10px; fill: #8b949e; }
    .title { font-family: -apple-system, BlinkMacSystemFont, 'Segoe UI', Helvetica, Arial, sans-serif; font-size: 11px; fill: #8b949e; font-weight: 600; }
    .total { font-family: -apple-system, BlinkMacSystemFont, 'Segoe UI', Helvetica, Arial, sans-serif; font-size: 11px; fill: #7ee787; font-weight: 600; }
    .grid { stroke: #21262d; stroke-width: 1; }
    .line { stroke: #7ee787; stroke-width: 2; stroke-linecap: round; stroke-linejoin: round; fill: none; }
    .dot { fill: #7ee787; }
    .area { fill: url(#areaGrad); }
    /* Hover interaction */
    .hoverpoint .guide { stroke: #7ee787; stroke-width: 1; stroke-dasharray: 2,2; opacity: 0; }
    .hoverpoint .hover-dot { fill: #7ee787; opacity: 0; }
    .hoverpoint .hit { fill: transparent; cursor: pointer; }
    .hoverpoint .tooltip-bg { fill: #161b22; stroke: #30363d; stroke-width: 1; opacity: 0; }
    .hoverpoint .tooltip-text { font-family: -apple-system, BlinkMacSystemFont, 'Segoe UI', Helvetica, Arial, sans-serif; font-size: 9px; fill: #c9d1d9; opacity: 0; }
    .hoverpoint:hover .guide { opacity: 0.5; }
    .hoverpoint:hover .hover-dot { opacity: 1; }
    .hoverpoint:hover .tooltip-bg { opacity: 0.95; }
    .hoverpoint:hover .tooltip-text { opacity: 1; }
  </style>
  <defs>
    <linearGradient id="areaGrad" x1="0" y1="0" x2="0" y2="1">
      <stop offset="0%" stop-color="#7ee787" stop-opacity="0.15"/>
      <stop offset="100%" stop-color="#7ee787" stop-opacity="0.01"/>
    </linearGradient>
  </defs>

  <text x="60" y="18" class="title">Cumulative Commits</text>

  <line x1="60" y1="160.0" x2="820" y2="160.0" class="grid"/>
  <text x="50" y="163.0" class="label" text-anchor="end">0</text>
  <line x1="60" y1="127.5" x2="820" y2="127.5" class="grid" stroke-dasharray="3,3"/>
  <text x="50" y="130.5" class="label" text-anchor="end">750</text>
  <line x1="60" y1="95.0" x2="820" y2="95.0" class="grid" stroke-dasharray="3,3"/>
  <text x="50" y="98.0" class="label" text-anchor="end">1,500</text>
  <line x1="60" y1="62.5" x2="820" y2="62.5" class="grid" stroke-dasharray="3,3"/>
  <text x="50" y="65.5" class="label" text-anchor="end">2,250</text>
  <line x1="60" y1="30.0" x2="820" y2="30.0" class="grid" stroke-dasharray="3,3"/>
  <text x="50" y="33.0" class="label" text-anchor="end">3,000</text>

  <text x="70.0" y="186" class="label" text-anchor="middle">2021</text>
  <text x="199.7" y="186" class="label" text-anchor="middle">2022</text>
  <text x="339.4" y="186" class="label" text-anchor="middle">2023</text>
  <text x="479.0" y="186" class="label" text-anchor="middle">2024</text>
  <text x="619.1" y="186" class="label" text-anchor="middle">2025</text>
  <text x="758.8" y="186" class="label" text-anchor="middle">2026</text>


  <path class="area" d="M60.0,160.0 L60.0,160.0 60.0,160.0 L179.8,159.8 L180.2,159.7 L181.3,159.7 L199.7,159.6 L200.1,159.3 L200.4,159.3 L200.8,159.1 L201.2,159.0 L201.6,159.0 L202.4,158.7 L202.7,158.6 L203.1,158.5 L203.5,158.5 L205.0,158.4 L205.4,158.3 L205.8,158.3 L209.6,158.2 L219.6,158.1 L272.0,158.1 L272.4,157.7 L273.9,157.6 L274.7,157.3 L280.4,157.2 L281.2,157.1 L281.6,156.9 L282.0,156.9 L282.7,156.8 L283.1,156.4 L283.5,156.0 L283.9,155.9 L285.4,155.8 L286.2,155.7 L288.1,155.6 L293.4,155.4 L303.8,155.3 L309.5,155.3 L312.2,155.2 L312.6,155.1 L313.0,155.0 L313.3,154.8 L314.5,154.5 L314.9,154.5 L315.2,154.5 L316.8,154.3 L317.2,154.1 L317.5,154.0 L317.9,153.6 L318.3,153.2 L318.7,153.1 L319.1,153.0 L319.8,152.9 L321.4,152.8 L325.6,152.7 L336.7,152.7 L337.1,152.5 L337.4,152.4 L341.3,152.0 L341.7,151.0 L342.8,150.9 L343.2,150.9 L345.1,150.7 L358.1,150.6 L358.5,150.5 L358.9,150.4 L359.6,150.2 L362.3,150.1 L363.1,149.9 L363.5,149.8 L365.4,149.7 L374.6,149.6 L562.8,149.5 L563.6,149.5 L564.4,149.4 L565.1,149.3 L565.5,149.3 L565.9,149.2 L566.3,149.2 L566.7,149.1 L570.5,149.1 L581.2,149.0 L584.3,149.0 L585.4,148.9 L587.7,148.9 L590.0,148.9 L590.4,148.8 L591.9,148.8 L593.1,148.7 L593.8,148.7 L622.2,148.6 L622.5,148.6 L623.3,148.5 L623.7,148.5 L624.8,148.3 L626.7,148.3 L632.1,148.2 L643.2,147.8 L643.6,147.7 L648.6,147.6 L648.9,147.5 L650.1,147.4 L651.6,147.3 L653.5,146.8 L653.9,145.6 L654.3,145.5 L656.6,145.4 L657.7,145.4 L658.1,145.4 L658.9,145.2 L662.0,145.1 L664.6,144.8 L666.5,144.5 L666.9,144.4 L668.1,144.1 L668.5,143.6 L668.8,143.5 L669.2,143.3 L669.6,143.1 L670.0,142.9 L670.8,142.6 L671.9,142.3 L685.7,142.2 L686.4,141.6 L694.9,141.5 L699.8,141.3 L702.1,141.2 L702.5,141.2 L704.8,141.2 L705.2,141.1 L705.6,141.1 L706.0,140.9 L706.3,140.8 L706.7,140.3 L707.1,140.2 L709.4,139.6 L709.8,139.5 L710.6,139.4 L713.2,139.2 L714.0,139.2 L714.4,139.0 L715.1,139.0 L715.5,138.7 L715.9,138.6 L716.7,138.5 L717.1,138.4 L717.4,138.4 L717.8,138.3 L719.4,138.1 L719.7,138.0 L720.1,137.9 L720.5,137.8 L720.9,137.7 L721.3,137.6 L722.4,137.4 L722.8,137.3 L723.2,137.2 L723.6,137.1 L723.9,136.8 L724.7,136.7 L725.1,136.3 L725.5,136.0 L725.9,135.2 L726.2,135.0 L726.6,134.8 L727.0,134.3 L727.4,134.3 L727.8,134.1 L728.2,134.1 L728.5,133.8 L730.5,133.3 L730.8,133.2 L731.2,132.8 L731.6,132.1 L732.0,132.0 L732.7,131.9 L733.1,131.3 L733.5,130.9 L733.9,130.9 L734.3,130.2 L735.0,130.0 L735.4,129.9 L735.8,129.8 L736.2,129.8 L736.6,129.8 L737.0,129.7 L738.5,129.6 L739.3,129.5 L739.6,129.2 L740.0,129.0 L741.2,129.0 L743.1,128.9 L745.4,128.7 L745.8,128.6 L746.1,128.6 L746.5,128.3 L746.9,127.7 L747.3,127.7 L747.7,127.6 L748.1,127.5 L748.4,127.4 L748.8,127.1 L753.0,127.0 L753.4,126.9 L756.9,126.6 L757.6,126.3 L758.0,126.2 L758.4,126.1 L758.8,126.0 L759.9,125.9 L760.3,125.2 L760.7,123.7 L761.1,122.3 L761.5,122.3 L761.8,122.1 L762.6,121.9 L763.0,121.7 L763.4,121.4 L764.1,121.3 L764.5,120.9 L764.9,120.9 L765.7,120.3 L766.0,120.2 L766.4,119.9 L766.8,119.7 L767.2,119.4 L767.6,119.4 L768.7,119.0 L769.1,118.7 L769.5,117.7 L769.9,116.3 L770.3,115.7 L770.6,115.1 L771.0,115.0 L771.4,114.8 L771.8,114.6 L772.2,114.2 L772.5,113.8 L772.9,113.7 L773.3,113.4 L773.7,113.3 L774.1,113.0 L774.5,112.6 L774.8,112.3 L775.2,111.9 L775.6,111.8 L776.0,111.6 L776.4,110.9 L776.8,109.6 L777.1,109.4 L777.9,109.1 L778.3,109.0 L778.7,108.9 L779.1,106.8 L779.4,105.8 L779.8,104.9 L780.2,104.5 L780.6,102.9 L781.0,102.8 L781.3,102.7 L781.7,102.3 L782.1,101.6 L782.5,100.2 L782.9,98.8 L783.3,98.7 L783.6,98.4 L784.4,98.3 L784.8,97.5 L785.2,96.8 L785.6,95.9 L785.9,95.7 L786.3,95.7 L786.7,94.3 L787.1,92.6 L787.5,91.9 L787.9,91.5 L788.2,91.1 L788.6,90.7 L789.0,90.7 L789.8,90.5 L790.2,90.2 L790.5,90.1 L790.9,90.1 L791.3,90.0 L792.4,90.0 L792.8,89.9 L793.6,89.8 L794.4,89.8 L794.7,89.7 L795.5,89.1 L795.9,88.8 L796.3,88.4 L798.6,88.3 L799.0,88.0 L799.3,87.9 L799.7,87.5 L800.1,87.5 L800.5,87.4 L800.9,87.3 L801.2,86.7 L801.6,86.0 L802.0,85.8 L802.4,84.5 L802.8,84.3 L803.5,84.3 L803.9,84.2 L805.1,83.8 L805.5,83.3 L805.8,83.0 L806.2,82.7 L806.6,81.7 L807.0,78.0 L807.4,76.4 L807.8,76.1 L808.1,75.8 L808.5,75.2 L808.9,75.1 L809.3,69.9 L809.7,63.5 L810.1,61.6 L810.4,61.5 L810.8,60.6 L811.2,59.8 L811.6,56.0 L812.0,53.6 L812.3,50.1 L812.7,49.3 L813.1,49.2 L813.5,49.1 L813.9,47.9 L814.3,46.1 L814.6,42.1 L815.0,41.5 L815.4,40.7 L815.8,39.5 L816.2,38.9 L816.6,38.3 L816.9,35.9 L817.3,35.3 L817.7,35.2 L818.1,34.9 L818.5,34.7 L818.9,34.3 L819.2,34.2 L819.6,33.0 L820.0,31.3 L820.0,160.0 Z"/>
  <polyline class="line" points="60.0,160.0 179.8,159.8 180.2,159.7 181.3,159.7 199.7,159.6 200.1,159.3 200.4,159.3 200.8,159.1 201.2,159.0 201.6,159.0 202.4,158.7 202.7,158.6 203.1,158.5 203.5,158.5 205.0,158.4 205.4,158.3 205.8,158.3 209.6,158.2 219.6,158.1 272.0,158.1 272.4,157.7 273.9,157.6 274.7,157.3 280.4,157.2 281.2,157.1 281.6,156.9 282.0,156.9 282.7,156.8 283.1,156.4 283.5,156.0 283.9,155.9 285.4,155.8 286.2,155.7 288.1,155.6 293.4,155.4 303.8,155.3 309.5,155.3 312.2,155.2 312.6,155.1 313.0,155.0 313.3,154.8 314.5,154.5 314.9,154.5 315.2,154.5 316.8,154.3 317.2,154.1 317.5,154.0 317.9,153.6 318.3,153.2 318.7,153.1 319.1,153.0 319.8,152.9 321.4,152.8 325.6,152.7 336.7,152.7 337.1,152.5 337.4,152.4 341.3,152.0 341.7,151.0 342.8,150.9 343.2,150.9 345.1,150.7 358.1,150.6 358.5,150.5 358.9,150.4 359.6,150.2 362.3,150.1 363.1,149.9 363.5,149.8 365.4,149.7 374.6,149.6 562.8,149.5 563.6,149.5 564.4,149.4 565.1,149.3 565.5,149.3 565.9,149.2 566.3,149.2 566.7,149.1 570.5,149.1 581.2,149.0 584.3,149.0 585.4,148.9 587.7,148.9 590.0,148.9 590.4,148.8 591.9,148.8 593.1,148.7 593.8,148.7 622.2,148.6 622.5,148.6 623.3,148.5 623.7,148.5 624.8,148.3 626.7,148.3 632.1,148.2 643.2,147.8 643.6,147.7 648.6,147.6 648.9,147.5 650.1,147.4 651.6,147.3 653.5,146.8 653.9,145.6 654.3,145.5 656.6,145.4 657.7,145.4 658.1,145.4 658.9,145.2 662.0,145.1 664.6,144.8 666.5,144.5 666.9,144.4 668.1,144.1 668.5,143.6 668.8,143.5 669.2,143.3 669.6,143.1 670.0,142.9 670.8,142.6 671.9,142.3 685.7,142.2 686.4,141.6 694.9,141.5 699.8,141.3 702.1,141.2 702.5,141.2 704.8,141.2 705.2,141.1 705.6,141.1 706.0,140.9 706.3,140.8 706.7,140.3 707.1,140.2 709.4,139.6 709.8,139.5 710.6,139.4 713.2,139.2 714.0,139.2 714.4,139.0 715.1,139.0 715.5,138.7 715.9,138.6 716.7,138.5 717.1,138.4 717.4,138.4 717.8,138.3 719.4,138.1 719.7,138.0 720.1,137.9 720.5,137.8 720.9,137.7 721.3,137.6 722.4,137.4 722.8,137.3 723.2,137.2 723.6,137.1 723.9,136.8 724.7,136.7 725.1,136.3 725.5,136.0 725.9,135.2 726.2,135.0 726.6,134.8 727.0,134.3 727.4,134.3 727.8,134.1 728.2,134.1 728.5,133.8 730.5,133.3 730.8,133.2 731.2,132.8 731.6,132.1 732.0,132.0 732.7,131.9 733.1,131.3 733.5,130.9 733.9,130.9 734.3,130.2 735.0,130.0 735.4,129.9 735.8,129.8 736.2,129.8 736.6,129.8 737.0,129.7 738.5,129.6 739.3,129.5 739.6,129.2 740.0,129.0 741.2,129.0 743.1,128.9 745.4,128.7 745.8,128.6 746.1,128.6 746.5,128.3 746.9,127.7 747.3,127.7 747.7,127.6 748.1,127.5 748.4,127.4 748.8,127.1 753.0,127.0 753.4,126.9 756.9,126.6 757.6,126.3 758.0,126.2 758.4,126.1 758.8,126.0 759.9,125.9 760.3,125.2 760.7,123.7 761.1,122.3 761.5,122.3 761.8,122.1 762.6,121.9 763.0,121.7 763.4,121.4 764.1,121.3 764.5,120.9 764.9,120.9 765.7,120.3 766.0,120.2 766.4,119.9 766.8,119.7 767.2,119.4 767.6,119.4 768.7,119.0 769.1,118.7 769.5,117.7 769.9,116.3 770.3,115.7 770.6,115.1 771.0,115.0 771.4,114.8 771.8,114.6 772.2,114.2 772.5,113.8 772.9,113.7 773.3,113.4 773.7,113.3 774.1,113.0 774.5,112.6 774.8,112.3 775.2,111.9 775.6,111.8 776.0,111.6 776.4,110.9 776.8,109.6 777.1,109.4 777.9,109.1 778.3,109.0 778.7,108.9 779.1,106.8 779.4,105.8 779.8,104.9 780.2,104.5 780.6,102.9 781.0,102.8 781.3,102.7 781.7,102.3 782.1,101.6 782.5,100.2 782.9,98.8 783.3,98.7 783.6,98.4 784.4,98.3 784.8,97.5 785.2,96.8 785.6,95.9 785.9,95.7 786.3,95.7 786.7,94.3 787.1,92.6 787.5,91.9 787.9,91.5 788.2,91.1 788.6,90.7 789.0,90.7 789.8,90.5 790.2,90.2 790.5,90.1 790.9,90.1 791.3,90.0 792.4,90.0 792.8,89.9 793.6,89.8 794.4,89.8 794.7,89.7 795.5,89.1 795.9,88.8 796.3,88.4 798.6,88.3 799.0,88.0 799.3,87.9 799.7,87.5 800.1,87.5 800.5,87.4 800.9,87.3 801.2,86.7 801.6,86.0 802.0,85.8 802.4,84.5 802.8,84.3 803.5,84.3 803.9,84.2 805.1,83.8 805.5,83.3 805.8,83.0 806.2,82.7 806.6,81.7 807.0,78.0 807.4,76.4 807.8,76.1 808.1,75.8 808.5,75.2 808.9,75.1 809.3,69.9 809.7,63.5 810.1,61.6 810.4,61.5 810.8,60.6 811.2,59.8 811.6,56.0 812.0,53.6 812.3,50.1 812.7,49.3 813.1,49.2 813.5,49.1 813.9,47.9 814.3,46.1 814.6,42.1 815.0,41.5 815.4,40.7 815.8,39.5 816.2,38.9 816.6,38.3 816.9,35.9 817.3,35.3 817.7,35.2 818.1,34.9 818.5,34.7 818.9,34.3 819.2,34.2 819.6,33.0 820.0,31.3"/>

  <g class="hoverpoint">
    <line x1="181.3" y1="30" x2="181.3" y2="160.0" class="guide"/>
    <circle cx="181.3" cy="159.7" r="16" class="hit"/>
    <circle cx="181.3" cy="159.7" r="4" class="hover-dot"><title>Nov 2021: 7 total (+7 this month)</title></circle>
    <rect x="111.3" y="133.7" width="140" height="20" rx="4" class="tooltip-bg"/>
    <text x="181.3" y="147.7" class="tooltip-text" text-anchor="middle">Nov 2021: 7 total (+7 this month)</text>
  </g>
  <g class="hoverpoint">
    <line x1="209.6" y1="30" x2="209.6" y2="160.0" class="guide"/>
    <circle cx="209.6" cy="158.2" r="16" class="hit"/>
    <circle cx="209.6" cy="158.2" r="4" class="hover-dot"><title>Jan 2022: 41 total (+34 this month)</title></circle>
    <rect x="139.6" y="132.2" width="140" height="20" rx="4" class="tooltip-bg"/>
    <text x="209.6" y="146.2" class="tooltip-text" text-anchor="middle">Jan 2022: 41 total (+34 this month)</text>
  </g>
  <g class="hoverpoint">
    <line x1="219.6" y1="30" x2="219.6" y2="160.0" class="guide"/>
    <circle cx="219.6" cy="158.1" r="16" class="hit"/>
    <circle cx="219.6" cy="158.1" r="4" class="hover-dot"><title>Feb 2022: 44 total (+3 this month)</title></circle>
    <rect x="149.6" y="132.1" width="140" height="20" rx="4" class="tooltip-bg"/>
    <text x="219.6" y="146.1" class="tooltip-text" text-anchor="middle">Feb 2022: 44 total (+3 this month)</text>
  </g>
  <g class="hoverpoint">
    <line x1="280.4" y1="30" x2="280.4" y2="160.0" class="guide"/>
    <circle cx="280.4" cy="157.2" r="16" class="hit"/>
    <circle cx="280.4" cy="157.2" r="4" class="hover-dot"><title>Jul 2022: 65 total (+21 this month)</title></circle>
    <rect x="210.4" y="131.2" width="140" height="20" rx="4" class="tooltip-bg"/>
    <text x="280.4" y="145.2" class="tooltip-text" text-anchor="middle">Jul 2022: 65 total (+21 this month)</text>
  </g>
  <g class="hoverpoint">
    <line x1="288.1" y1="30" x2="288.1" y2="160.0" class="guide"/>
    <circle cx="288.1" cy="155.6" r="16" class="hit"/>
    <circle cx="288.1" cy="155.6" r="4" class="hover-dot"><title>Aug 2022: 101 total (+36 this month)</title></circle>
    <rect x="218.1" y="129.6" width="140" height="20" rx="4" class="tooltip-bg"/>
    <text x="288.1" y="143.6" class="tooltip-text" text-anchor="middle">Aug 2022: 101 total (+36 this month)</text>
  </g>
  <g class="hoverpoint">
    <line x1="303.8" y1="30" x2="303.8" y2="160.0" class="guide"/>
    <circle cx="303.8" cy="155.3" r="16" class="hit"/>
    <circle cx="303.8" cy="155.3" r="4" class="hover-dot"><title>Sep 2022: 108 total (+7 this month)</title></circle>
    <rect x="233.8" y="129.3" width="140" height="20" rx="4" class="tooltip-bg"/>
    <text x="303.8" y="143.3" class="tooltip-text" text-anchor="middle">Sep 2022: 108 total (+7 this month)</text>
  </g>
  <g class="hoverpoint">
    <line x1="315.2" y1="30" x2="315.2" y2="160.0" class="guide"/>
    <circle cx="315.2" cy="154.5" r="16" class="hit"/>
    <circle cx="315.2" cy="154.5" r="4" class="hover-dot"><title>Oct 2022: 128 total (+20 this month)</title></circle>
    <rect x="245.2" y="128.5" width="140" height="20" rx="4" class="tooltip-bg"/>
    <text x="315.2" y="142.5" class="tooltip-text" text-anchor="middle">Oct 2022: 128 total (+20 this month)</text>
  </g>
  <g class="hoverpoint">
    <line x1="325.6" y1="30" x2="325.6" y2="160.0" class="guide"/>
    <circle cx="325.6" cy="152.7" r="16" class="hit"/>
    <circle cx="325.6" cy="152.7" r="4" class="hover-dot"><title>Nov 2022: 168 total (+40 this month)</title></circle>
    <rect x="255.6" y="126.7" width="140" height="20" rx="4" class="tooltip-bg"/>
    <text x="325.6" y="140.7" class="tooltip-text" text-anchor="middle">Nov 2022: 168 total (+40 this month)</text>
  </g>
  <g class="hoverpoint">
    <line x1="337.4" y1="30" x2="337.4" y2="160.0" class="guide"/>
    <circle cx="337.4" cy="152.4" r="16" class="hit"/>
    <circle cx="337.4" cy="152.4" r="4" class="hover-dot"><title>Dec 2022: 175 total (+7 this month)</title></circle>
    <rect x="267.4" y="126.4" width="140" height="20" rx="4" class="tooltip-bg"/>
    <text x="337.4" y="140.4" class="tooltip-text" text-anchor="middle">Dec 2022: 175 total (+7 this month)</text>
  </g>
  <g class="hoverpoint">
    <line x1="345.1" y1="30" x2="345.1" y2="160.0" class="guide"/>
    <circle cx="345.1" cy="150.7" r="16" class="hit"/>
    <circle cx="345.1" cy="150.7" r="4" class="hover-dot"><title>Jan 2023: 214 total (+39 this month)</title></circle>
    <rect x="275.1" y="124.7" width="140" height="20" rx="4" class="tooltip-bg"/>
    <text x="345.1" y="138.7" class="tooltip-text" text-anchor="middle">Jan 2023: 214 total (+39 this month)</text>
  </g>
  <g class="hoverpoint">
    <line x1="359.6" y1="30" x2="359.6" y2="160.0" class="guide"/>
    <circle cx="359.6" cy="150.2" r="16" class="hit"/>
    <circle cx="359.6" cy="150.2" r="4" class="hover-dot"><title>Feb 2023: 225 total (+11 this month)</title></circle>
    <rect x="289.6" y="124.2" width="140" height="20" rx="4" class="tooltip-bg"/>
    <text x="359.6" y="138.2" class="tooltip-text" text-anchor="middle">Feb 2023: 225 total (+11 this month)</text>
  </g>
  <g class="hoverpoint">
    <line x1="365.4" y1="30" x2="365.4" y2="160.0" class="guide"/>
    <circle cx="365.4" cy="149.7" r="16" class="hit"/>
    <circle cx="365.4" cy="149.7" r="4" class="hover-dot"><title>Mar 2023: 237 total (+12 this month)</title></circle>
    <rect x="295.4" y="123.7" width="140" height="20" rx="4" class="tooltip-bg"/>
    <text x="365.4" y="137.7" class="tooltip-text" text-anchor="middle">Mar 2023: 237 total (+12 this month)</text>
  </g>
  <g class="hoverpoint">
    <line x1="374.6" y1="30" x2="374.6" y2="160.0" class="guide"/>
    <circle cx="374.6" cy="149.6" r="16" class="hit"/>
    <circle cx="374.6" cy="149.6" r="4" class="hover-dot"><title>Apr 2023: 240 total (+3 this month)</title></circle>
    <rect x="304.6" y="123.6" width="140" height="20" rx="4" class="tooltip-bg"/>
    <text x="374.6" y="137.6" class="tooltip-text" text-anchor="middle">Apr 2023: 240 total (+3 this month)</text>
  </g>
  <g class="hoverpoint">
    <line x1="570.5" y1="30" x2="570.5" y2="160.0" class="guide"/>
    <circle cx="570.5" cy="149.1" r="16" class="hit"/>
    <circle cx="570.5" cy="149.1" r="4" class="hover-dot"><title>Aug 2024: 252 total (+12 this month)</title></circle>
    <rect x="500.5" y="123.1" width="140" height="20" rx="4" class="tooltip-bg"/>
    <text x="570.5" y="137.1" class="tooltip-text" text-anchor="middle">Aug 2024: 252 total (+12 this month)</text>
  </g>
  <g class="hoverpoint">
    <line x1="581.2" y1="30" x2="581.2" y2="160.0" class="guide"/>
    <circle cx="581.2" cy="149.0" r="16" class="hit"/>
    <circle cx="581.2" cy="149.0" r="4" class="hover-dot"><title>Sep 2024: 253 total (+1 this month)</title></circle>
    <rect x="511.2" y="123.0" width="140" height="20" rx="4" class="tooltip-bg"/>
    <text x="581.2" y="137.0" class="tooltip-text" text-anchor="middle">Sep 2024: 253 total (+1 this month)</text>
  </g>
  <g class="hoverpoint">
    <line x1="593.8" y1="30" x2="593.8" y2="160.0" class="guide"/>
    <circle cx="593.8" cy="148.7" r="16" class="hit"/>
    <circle cx="593.8" cy="148.7" r="4" class="hover-dot"><title>Oct 2024: 261 total (+8 this month)</title></circle>
    <rect x="523.8" y="122.7" width="140" height="20" rx="4" class="tooltip-bg"/>
    <text x="593.8" y="136.7" class="tooltip-text" text-anchor="middle">Oct 2024: 261 total (+8 this month)</text>
  </g>
  <g class="hoverpoint">
    <line x1="626.7" y1="30" x2="626.7" y2="160.0" class="guide"/>
    <circle cx="626.7" cy="148.3" r="16" class="hit"/>
    <circle cx="626.7" cy="148.3" r="4" class="hover-dot"><title>Jan 2025: 270 total (+9 this month)</title></circle>
    <rect x="556.7" y="122.3" width="140" height="20" rx="4" class="tooltip-bg"/>
    <text x="626.7" y="136.3" class="tooltip-text" text-anchor="middle">Jan 2025: 270 total (+9 this month)</text>
  </g>
  <g class="hoverpoint">
    <line x1="632.1" y1="30" x2="632.1" y2="160.0" class="guide"/>
    <circle cx="632.1" cy="148.2" r="16" class="hit"/>
    <circle cx="632.1" cy="148.2" r="4" class="hover-dot"><title>Feb 2025: 272 total (+2 this month)</title></circle>
    <rect x="562.1" y="122.2" width="140" height="20" rx="4" class="tooltip-bg"/>
    <text x="632.1" y="136.2" class="tooltip-text" text-anchor="middle">Feb 2025: 272 total (+2 this month)</text>
  </g>
  <g class="hoverpoint">
    <line x1="651.6" y1="30" x2="651.6" y2="160.0" class="guide"/>
    <circle cx="651.6" cy="147.3" r="16" class="hit"/>
    <circle cx="651.6" cy="147.3" r="4" class="hover-dot"><title>Mar 2025: 294 total (+22 this month)</title></circle>
    <rect x="581.6" y="121.3" width="140" height="20" rx="4" class="tooltip-bg"/>
    <text x="651.6" y="135.3" class="tooltip-text" text-anchor="middle">Mar 2025: 294 total (+22 this month)</text>
  </g>
  <g class="hoverpoint">
    <line x1="664.6" y1="30" x2="664.6" y2="160.0" class="guide"/>
    <circle cx="664.6" cy="144.8" r="16" class="hit"/>
    <circle cx="664.6" cy="144.8" r="4" class="hover-dot"><title>Apr 2025: 351 total (+57 this month)</title></circle>
    <rect x="594.6" y="118.8" width="140" height="20" rx="4" class="tooltip-bg"/>
    <text x="664.6" y="132.8" class="tooltip-text" text-anchor="middle">Apr 2025: 351 total (+57 this month)</text>
  </g>
  <g class="hoverpoint">
    <line x1="671.9" y1="30" x2="671.9" y2="160.0" class="guide"/>
    <circle cx="671.9" cy="142.3" r="16" class="hit"/>
    <circle cx="671.9" cy="142.3" r="4" class="hover-dot"><title>May 2025: 408 total (+57 this month)</title></circle>
    <rect x="601.9" y="116.3" width="140" height="20" rx="4" class="tooltip-bg"/>
    <text x="671.9" y="130.3" class="tooltip-text" text-anchor="middle">May 2025: 408 total (+57 this month)</text>
  </g>
  <g class="hoverpoint">
    <line x1="686.4" y1="30" x2="686.4" y2="160.0" class="guide"/>
    <circle cx="686.4" cy="141.6" r="16" class="hit"/>
    <circle cx="686.4" cy="141.6" r="4" class="hover-dot"><title>Jun 2025: 424 total (+16 this month)</title></circle>
    <rect x="616.4" y="115.6" width="140" height="20" rx="4" class="tooltip-bg"/>
    <text x="686.4" y="129.6" class="tooltip-text" text-anchor="middle">Jun 2025: 424 total (+16 this month)</text>
  </g>
  <g class="hoverpoint">
    <line x1="699.8" y1="30" x2="699.8" y2="160.0" class="guide"/>
    <circle cx="699.8" cy="141.3" r="16" class="hit"/>
    <circle cx="699.8" cy="141.3" r="4" class="hover-dot"><title>Jul 2025: 432 total (+8 this month)</title></circle>
    <rect x="629.8" y="115.3" width="140" height="20" rx="4" class="tooltip-bg"/>
    <text x="699.8" y="129.3" class="tooltip-text" text-anchor="middle">Jul 2025: 432 total (+8 this month)</text>
  </g>
  <g class="hoverpoint">
    <line x1="710.6" y1="30" x2="710.6" y2="160.0" class="guide"/>
    <circle cx="710.6" cy="139.4" r="16" class="hit"/>
    <circle cx="710.6" cy="139.4" r="4" class="hover-dot"><title>Aug 2025: 475 total (+43 this month)</title></circle>
    <rect x="640.6" y="113.4" width="140" height="20" rx="4" class="tooltip-bg"/>
    <text x="710.6" y="127.4" class="tooltip-text" text-anchor="middle">Aug 2025: 475 total (+43 this month)</text>
  </g>
  <g class="hoverpoint">
    <line x1="723.2" y1="30" x2="723.2" y2="160.0" class="guide"/>
    <circle cx="723.2" cy="137.2" r="16" class="hit"/>
    <circle cx="723.2" cy="137.2" r="4" class="hover-dot"><title>Sep 2025: 526 total (+51 this month)</title></circle>
    <rect x="653.2" y="111.2" width="140" height="20" rx="4" class="tooltip-bg"/>
    <text x="723.2" y="125.2" class="tooltip-text" text-anchor="middle">Sep 2025: 526 total (+51 this month)</text>
  </g>
  <g class="hoverpoint">
    <line x1="735.0" y1="30" x2="735.0" y2="160.0" class="guide"/>
    <circle cx="735.0" cy="130.0" r="16" class="hit"/>
    <circle cx="735.0" cy="130.0" r="4" class="hover-dot"><title>Oct 2025: 692 total (+166 this month)</title></circle>
    <rect x="665.0" y="104.0" width="140" height="20" rx="4" class="tooltip-bg"/>
    <text x="735.0" y="118.0" class="tooltip-text" text-anchor="middle">Oct 2025: 692 total (+166 this month)</text>
  </g>
  <g class="hoverpoint">
    <line x1="746.5" y1="30" x2="746.5" y2="160.0" class="guide"/>
    <circle cx="746.5" cy="128.3" r="16" class="hit"/>
    <circle cx="746.5" cy="128.3" r="4" class="hover-dot"><title>Nov 2025: 731 total (+39 this month)</title></circle>
    <rect x="676.5" y="102.3" width="140" height="20" rx="4" class="tooltip-bg"/>
    <text x="746.5" y="116.3" class="tooltip-text" text-anchor="middle">Nov 2025: 731 total (+39 this month)</text>
  </g>
  <g class="hoverpoint">
    <line x1="758.4" y1="30" x2="758.4" y2="160.0" class="guide"/>
    <circle cx="758.4" cy="126.1" r="16" class="hit"/>
    <circle cx="758.4" cy="126.1" r="4" class="hover-dot"><title>Dec 2025: 783 total (+52 this month)</title></circle>
    <rect x="688.4" y="100.1" width="140" height="20" rx="4" class="tooltip-bg"/>
    <text x="758.4" y="114.1" class="tooltip-text" text-anchor="middle">Dec 2025: 783 total (+52 this month)</text>
  </g>
  <g class="hoverpoint">
    <line x1="770.3" y1="30" x2="770.3" y2="160.0" class="guide"/>
    <circle cx="770.3" cy="115.7" r="16" class="hit"/>
    <circle cx="770.3" cy="115.7" r="4" class="hover-dot"><title>Jan 2026: 1,022 total (+239 this month)</title></circle>
    <rect x="700.3" y="89.7" width="140" height="20" rx="4" class="tooltip-bg"/>
    <text x="770.3" y="103.7" class="tooltip-text" text-anchor="middle">Jan 2026: 1,022 total (+239 this month)</text>
  </g>
  <g class="hoverpoint">
    <line x1="781.0" y1="30" x2="781.0" y2="160.0" class="guide"/>
    <circle cx="781.0" cy="102.8" r="16" class="hit"/>
    <circle cx="781.0" cy="102.8" r="4" class="hover-dot"><title>Feb 2026: 1,321 total (+299 this month)</title></circle>
    <rect x="711.0" y="76.8" width="140" height="20" rx="4" class="tooltip-bg"/>
    <text x="781.0" y="90.8" class="tooltip-text" text-anchor="middle">Feb 2026: 1,321 total (+299 this month)</text>
  </g>
  <g class="hoverpoint">
    <line x1="792.8" y1="30" x2="792.8" y2="160.0" class="guide"/>
    <circle cx="792.8" cy="89.9" r="16" class="hit"/>
    <circle cx="792.8" cy="89.9" r="4" class="hover-dot"><title>Mar 2026: 1,617 total (+296 this month)</title></circle>
    <rect x="722.8" y="63.9" width="140" height="20" rx="4" class="tooltip-bg"/>
    <text x="792.8" y="77.9" class="tooltip-text" text-anchor="middle">Mar 2026: 1,617 total (+296 this month)</text>
  </g>
  <g class="hoverpoint">
    <line x1="803.9" y1="30" x2="803.9" y2="160.0" class="guide"/>
    <circle cx="803.9" cy="84.2" r="16" class="hit"/>
    <circle cx="803.9" cy="84.2" r="4" class="hover-dot"><title>Apr 2026: 1,749 total (+132 this month)</title></circle>
    <rect x="733.9" y="58.2" width="140" height="20" rx="4" class="tooltip-bg"/>
    <text x="803.9" y="72.2" class="tooltip-text" text-anchor="middle">Apr 2026: 1,749 total (+132 this month)</text>
  </g>
  <g class="hoverpoint">
    <line x1="816.2" y1="30" x2="816.2" y2="160.0" class="guide"/>
    <circle cx="816.2" cy="38.9" r="16" class="hit"/>
    <circle cx="816.2" cy="38.9" r="4" class="hover-dot"><title>May 2026: 2,795 total (+1,046 this month)</title></circle>
    <rect x="746.2" y="12.9" width="140" height="20" rx="4" class="tooltip-bg"/>
    <text x="816.2" y="26.9" class="tooltip-text" text-anchor="middle">May 2026: 2,795 total (+1,046 this month)</text>
  </g>
  <g class="hoverpoint">
    <line x1="820.0" y1="30" x2="820.0" y2="160.0" class="guide"/>
    <circle cx="820.0" cy="31.3" r="16" class="hit"/>
    <circle cx="820.0" cy="31.3" r="4" class="hover-dot"><title>Jun 2026: 2,969 total (+174 this month)</title></circle>
    <rect x="750.0" y="5.3" width="140" height="20" rx="4" class="tooltip-bg"/>
    <text x="820.0" y="19.3" class="tooltip-text" text-anchor="middle">Jun 2026: 2,969 total (+174 this month)</text>
  </g>

  <circle cx="820.0" cy="31.3" r="4" class="dot"/>
  <text x="810.0" y="21.3" class="total">2,969</text>

</svg>