<svg xmlns="http://www.w3.org/2000/svg" width="840" height="196" viewBox="0 0 840 196" fill="none">
  <style>
    .label { font-family: -apple-system, BlinkMacSystemFont, 'Segoe UI', Helvetica, Arial, sans-serif; font-size: 10px; fill: #8b949e; }
    .title { font-family: -apple-system, BlinkMacSystemFont, 'Segoe UI', Helvetica, Arial, sans-serif; font-size: 11px; fill: #8b949e; font-weight: 600; }
    .total { font-family: -apple-system, BlinkMacSystemFont, 'Segoe UI', Helvetica, Arial, sans-serif; font-size: 11px; fill: #7ee787; font-weight: 600; }
    .grid { stroke: #21262d; stroke-width: 1; }
    .line { stroke: #7ee787; stroke-width: 2; stroke-linecap: round; stroke-linejoin: round; fill: none; }
    .dot { fill: #7ee787; }
    .area { fill: url(#areaGrad); }
    /* Hover interaction */
    .hoverpoint .guide { stroke: #7ee787; stroke-width: 1; stroke-dasharray: 2,2; opacity: 0; }
    .hoverpoint .hover-dot { fill: #7ee787; opacity: 0; }
    .hoverpoint .hit { fill: transparent; cursor: pointer; }
    .hoverpoint .tooltip-bg { fill: #161b22; stroke: #30363d; stroke-width: 1; opacity: 0; }
    .hoverpoint .tooltip-text { font-family: -apple-system, BlinkMacSystemFont, 'Segoe UI', Helvetica, Arial, sans-serif; font-size: 9px; fill: #c9d1d9; opacity: 0; }
    .hoverpoint:hover .guide { opacity: 0.5; }
    .hoverpoint:hover .hover-dot { opacity: 1; }
    .hoverpoint:hover .tooltip-bg { opacity: 0.95; }
    .hoverpoint:hover .tooltip-text { opacity: 1; }
  </style>
  <defs>
    <linearGradient id="areaGrad" x1="0" y1="0" x2="0" y2="1">
      <stop offset="0%" stop-color="#7ee787" stop-opacity="0.15"/>
      <stop offset="100%" stop-color="#7ee787" stop-opacity="0.01"/>
    </linearGradient>
  </defs>

  <text x="60" y="18" class="title">Cumulative Commits</text>

  <line x1="60" y1="160.0" x2="820" y2="160.0" class="grid"/>
  <text x="50" y="163.0" class="label" text-anchor="end">0</text>
  <line x1="60" y1="127.5" x2="820" y2="127.5" class="grid" stroke-dasharray="3,3"/>
  <text x="50" y="130.5" class="label" text-anchor="end">1,000</text>
  <line x1="60" y1="95.0" x2="820" y2="95.0" class="grid" stroke-dasharray="3,3"/>
  <text x="50" y="98.0" class="label" text-anchor="end">2,000</text>
  <line x1="60" y1="62.5" x2="820" y2="62.5" class="grid" stroke-dasharray="3,3"/>
  <text x="50" y="65.5" class="label" text-anchor="end">3,000</text>
  <line x1="60" y1="30.0" x2="820" y2="30.0" class="grid" stroke-dasharray="3,3"/>
  <text x="50" y="33.0" class="label" text-anchor="end">4,000</text>

  <text x="70.0" y="186" class="label" text-anchor="middle">2021</text>
  <text x="199.0" y="186" class="label" text-anchor="middle">2022</text>
  <text x="338.0" y="186" class="label" text-anchor="middle">2023</text>
  <text x="476.9" y="186" class="label" text-anchor="middle">2024</text>
  <text x="616.3" y="186" class="label" text-anchor="middle">2025</text>
  <text x="755.3" y="186" class="label" text-anchor="middle">2026</text>


  <path class="area" d="M60.0,160.0 L60.0,160.0 60.0,160.0 L179.2,159.8 L179.6,159.8 L180.7,159.8 L199.0,159.7 L199.4,159.5 L199.7,159.4 L200.1,159.3 L200.5,159.3 L200.9,159.2 L201.6,159.1 L202.0,159.0 L202.4,158.9 L202.8,158.9 L204.3,158.8 L204.7,158.7 L205.1,158.7 L208.9,158.7 L218.8,158.6 L270.9,158.5 L271.3,158.2 L272.8,158.2 L273.6,158.0 L279.3,157.9 L280.1,157.8 L280.5,157.7 L280.8,157.7 L281.6,157.6 L282.0,157.3 L282.4,157.0 L282.7,156.9 L284.3,156.8 L285.0,156.8 L286.9,156.7 L292.3,156.6 L302.5,156.5 L308.3,156.5 L310.9,156.4 L311.3,156.4 L311.7,156.3 L312.1,156.1 L313.2,155.9 L313.6,155.9 L314.0,155.8 L315.5,155.7 L315.9,155.5 L316.3,155.5 L316.6,155.2 L317.0,154.9 L317.4,154.8 L317.8,154.8 L318.5,154.7 L320.1,154.6 L324.2,154.5 L335.3,154.5 L335.7,154.3 L336.1,154.3 L339.9,154.0 L340.2,153.3 L341.4,153.2 L341.8,153.1 L343.7,153.0 L356.6,152.9 L357.0,152.8 L357.4,152.8 L358.1,152.7 L360.8,152.6 L361.6,152.4 L361.9,152.4 L363.8,152.3 L373.0,152.2 L560.3,152.1 L561.1,152.1 L561.8,152.1 L562.6,152.0 L563.0,151.9 L563.4,151.9 L563.7,151.9 L564.1,151.8 L567.9,151.8 L578.6,151.8 L581.6,151.7 L582.8,151.7 L585.1,151.7 L587.4,151.6 L587.7,151.6 L589.3,151.6 L590.4,151.6 L591.2,151.5 L619.3,151.5 L619.7,151.4 L620.5,151.4 L620.9,151.4 L622.0,151.3 L623.9,151.2 L629.2,151.2 L640.3,150.9 L640.7,150.7 L645.6,150.7 L646.0,150.6 L647.1,150.5 L648.7,150.4 L650.6,150.1 L650.9,149.2 L651.3,149.1 L653.6,149.1 L654.7,149.0 L655.1,149.0 L655.9,148.9 L658.9,148.9 L661.6,148.6 L663.5,148.4 L663.9,148.3 L665.0,148.1 L665.4,147.7 L665.8,147.6 L666.2,147.5 L666.6,147.4 L666.9,147.2 L667.7,146.9 L668.8,146.7 L682.5,146.6 L683.3,146.2 L691.7,146.1 L696.6,146.0 L698.9,145.9 L699.3,145.9 L701.6,145.9 L702.0,145.8 L702.3,145.8 L702.7,145.7 L703.1,145.6 L703.5,145.2 L703.9,145.2 L706.2,144.7 L706.5,144.6 L707.3,144.6 L710.0,144.4 L710.7,144.4 L711.1,144.3 L711.9,144.2 L712.2,144.0 L712.6,143.9 L713.4,143.9 L713.8,143.8 L714.1,143.8 L714.5,143.8 L716.1,143.6 L716.4,143.5 L716.8,143.4 L717.2,143.4 L717.6,143.3 L718.0,143.2 L719.1,143.1 L719.5,143.0 L719.9,142.9 L720.2,142.8 L720.6,142.6 L721.4,142.5 L721.8,142.2 L722.1,142.0 L722.5,141.4 L722.9,141.2 L723.3,141.1 L723.7,140.8 L724.0,140.7 L724.4,140.6 L724.8,140.6 L725.2,140.3 L727.1,140.0 L727.5,139.9 L727.9,139.6 L728.2,139.0 L728.6,139.0 L729.4,138.9 L729.8,138.5 L730.1,138.2 L730.5,138.2 L730.9,137.6 L731.7,137.5 L732.0,137.4 L732.4,137.4 L732.8,137.3 L733.2,137.3 L733.6,137.3 L735.1,137.2 L735.9,137.2 L736.2,136.9 L736.6,136.8 L737.8,136.7 L739.7,136.7 L741.9,136.5 L742.3,136.5 L742.7,136.4 L743.1,136.2 L743.5,135.8 L743.8,135.8 L744.2,135.7 L744.6,135.7 L745.0,135.6 L745.4,135.3 L749.6,135.2 L749.9,135.2 L753.4,135.0 L754.1,134.7 L754.5,134.7 L754.9,134.6 L755.3,134.5 L756.4,134.4 L756.8,133.9 L757.2,132.8 L757.6,131.7 L757.9,131.7 L758.3,131.6 L759.1,131.4 L759.5,131.3 L759.8,131.0 L760.6,131.0 L761.0,130.7 L761.4,130.7 L762.1,130.2 L762.5,130.2 L762.9,129.9 L763.3,129.7 L763.6,129.5 L764.0,129.5 L765.2,129.2 L765.6,129.1 L765.9,128.3 L766.3,127.2 L766.7,126.8 L767.1,126.3 L767.5,126.2 L767.8,126.1 L768.2,125.9 L768.6,125.7 L769.0,125.3 L769.4,125.3 L769.7,125.0 L770.1,125.0 L770.5,124.7 L770.9,124.5 L771.3,124.2 L771.6,123.9 L772.0,123.8 L772.4,123.7 L772.8,123.2 L773.2,122.2 L773.5,122.0 L774.3,121.8 L774.7,121.7 L775.1,121.7 L775.5,120.1 L775.8,119.4 L776.2,118.7 L776.6,118.4 L777.0,117.2 L777.4,117.1 L777.7,117.0 L778.1,116.7 L778.5,116.2 L778.9,115.2 L779.3,114.1 L779.6,114.0 L780.0,113.8 L780.8,113.8 L781.2,113.1 L781.5,112.6 L781.9,111.9 L782.3,111.8 L782.7,111.8 L783.1,110.7 L783.4,109.5 L783.8,108.9 L784.2,108.7 L784.6,108.3 L785.0,108.0 L785.4,108.0 L786.1,107.8 L786.5,107.6 L786.9,107.6 L787.3,107.5 L787.6,107.5 L788.8,107.5 L789.2,107.4 L789.9,107.4 L790.7,107.3 L791.1,107.3 L791.8,106.9 L792.2,106.6 L792.6,106.3 L794.9,106.2 L795.3,106.0 L795.6,105.9 L796.0,105.7 L796.4,105.6 L796.8,105.5 L797.2,105.5 L797.5,105.0 L797.9,104.5 L798.3,104.3 L798.7,103.4 L799.1,103.2 L799.8,103.2 L800.2,103.2 L801.3,102.9 L801.7,102.5 L802.1,102.2 L802.5,102.0 L802.9,101.3 L803.2,98.5 L803.6,97.3 L804.0,97.1 L804.4,96.9 L804.8,96.4 L805.2,96.3 L805.5,92.4 L805.9,87.6 L806.3,86.2 L806.7,86.2 L807.1,85.4 L807.4,84.9 L807.8,82.0 L808.2,80.2 L808.6,77.5 L809.0,77.0 L809.3,76.9 L809.7,76.8 L810.1,75.9 L810.5,74.6 L810.9,71.6 L811.2,71.1 L811.6,70.5 L812.0,69.7 L812.4,69.2 L812.8,68.7 L813.1,66.9 L813.5,66.5 L813.9,66.4 L814.3,66.1 L814.7,66.0 L815.1,65.7 L815.4,65.6 L815.8,64.7 L816.2,63.4 L816.6,62.3 L817.0,62.2 L817.3,61.2 L817.7,60.5 L818.1,60.4 L818.5,60.2 L818.9,60.1 L819.2,59.8 L819.6,59.0 L820.0,58.1 L820.0,160.0 Z"/>
  <polyline class="line" points="60.0,160.0 179.2,159.8 179.6,159.8 180.7,159.8 199.0,159.7 199.4,159.5 199.7,159.4 200.1,159.3 200.5,159.3 200.9,159.2 201.6,159.1 202.0,159.0 202.4,158.9 202.8,158.9 204.3,158.8 204.7,158.7 205.1,158.7 208.9,158.7 218.8,158.6 270.9,158.5 271.3,158.2 272.8,158.2 273.6,158.0 279.3,157.9 280.1,157.8 280.5,157.7 280.8,157.7 281.6,157.6 282.0,157.3 282.4,157.0 282.7,156.9 284.3,156.8 285.0,156.8 286.9,156.7 292.3,156.6 302.5,156.5 308.3,156.5 310.9,156.4 311.3,156.4 311.7,156.3 312.1,156.1 313.2,155.9 313.6,155.9 314.0,155.8 315.5,155.7 315.9,155.5 316.3,155.5 316.6,155.2 317.0,154.9 317.4,154.8 317.8,154.8 318.5,154.7 320.1,154.6 324.2,154.5 335.3,154.5 335.7,154.3 336.1,154.3 339.9,154.0 340.2,153.3 341.4,153.2 341.8,153.1 343.7,153.0 356.6,152.9 357.0,152.8 357.4,152.8 358.1,152.7 360.8,152.6 361.6,152.4 361.9,152.4 363.8,152.3 373.0,152.2 560.3,152.1 561.1,152.1 561.8,152.1 562.6,152.0 563.0,151.9 563.4,151.9 563.7,151.9 564.1,151.8 567.9,151.8 578.6,151.8 581.6,151.7 582.8,151.7 585.1,151.7 587.4,151.6 587.7,151.6 589.3,151.6 590.4,151.6 591.2,151.5 619.3,151.5 619.7,151.4 620.5,151.4 620.9,151.4 622.0,151.3 623.9,151.2 629.2,151.2 640.3,150.9 640.7,150.7 645.6,150.7 646.0,150.6 647.1,150.5 648.7,150.4 650.6,150.1 650.9,149.2 651.3,149.1 653.6,149.1 654.7,149.0 655.1,149.0 655.9,148.9 658.9,148.9 661.6,148.6 663.5,148.4 663.9,148.3 665.0,148.1 665.4,147.7 665.8,147.6 666.2,147.5 666.6,147.4 666.9,147.2 667.7,146.9 668.8,146.7 682.5,146.6 683.3,146.2 691.7,146.1 696.6,146.0 698.9,145.9 699.3,145.9 701.6,145.9 702.0,145.8 702.3,145.8 702.7,145.7 703.1,145.6 703.5,145.2 703.9,145.2 706.2,144.7 706.5,144.6 707.3,144.6 710.0,144.4 710.7,144.4 711.1,144.3 711.9,144.2 712.2,144.0 712.6,143.9 713.4,143.9 713.8,143.8 714.1,143.8 714.5,143.8 716.1,143.6 716.4,143.5 716.8,143.4 717.2,143.4 717.6,143.3 718.0,143.2 719.1,143.1 719.5,143.0 719.9,142.9 720.2,142.8 720.6,142.6 721.4,142.5 721.8,142.2 722.1,142.0 722.5,141.4 722.9,141.2 723.3,141.1 723.7,140.8 724.0,140.7 724.4,140.6 724.8,140.6 725.2,140.3 727.1,140.0 727.5,139.9 727.9,139.6 728.2,139.0 728.6,139.0 729.4,138.9 729.8,138.5 730.1,138.2 730.5,138.2 730.9,137.6 731.7,137.5 732.0,137.4 732.4,137.4 732.8,137.3 733.2,137.3 733.6,137.3 735.1,137.2 735.9,137.2 736.2,136.9 736.6,136.8 737.8,136.7 739.7,136.7 741.9,136.5 742.3,136.5 742.7,136.4 743.1,136.2 743.5,135.8 743.8,135.8 744.2,135.7 744.6,135.7 745.0,135.6 745.4,135.3 749.6,135.2 749.9,135.2 753.4,135.0 754.1,134.7 754.5,134.7 754.9,134.6 755.3,134.5 756.4,134.4 756.8,133.9 757.2,132.8 757.6,131.7 757.9,131.7 758.3,131.6 759.1,131.4 759.5,131.3 759.8,131.0 760.6,131.0 761.0,130.7 761.4,130.7 762.1,130.2 762.5,130.2 762.9,129.9 763.3,129.7 763.6,129.5 764.0,129.5 765.2,129.2 765.6,129.1 765.9,128.3 766.3,127.2 766.7,126.8 767.1,126.3 767.5,126.2 767.8,126.1 768.2,125.9 768.6,125.7 769.0,125.3 769.4,125.3 769.7,125.0 770.1,125.0 770.5,124.7 770.9,124.5 771.3,124.2 771.6,123.9 772.0,123.8 772.4,123.7 772.8,123.2 773.2,122.2 773.5,122.0 774.3,121.8 774.7,121.7 775.1,121.7 775.5,120.1 775.8,119.4 776.2,118.7 776.6,118.4 777.0,117.2 777.4,117.1 777.7,117.0 778.1,116.7 778.5,116.2 778.9,115.2 779.3,114.1 779.6,114.0 780.0,113.8 780.8,113.8 781.2,113.1 781.5,112.6 781.9,111.9 782.3,111.8 782.7,111.8 783.1,110.7 783.4,109.5 783.8,108.9 784.2,108.7 784.6,108.3 785.0,108.0 785.4,108.0 786.1,107.8 786.5,107.6 786.9,107.6 787.3,107.5 787.6,107.5 788.8,107.5 789.2,107.4 789.9,107.4 790.7,107.3 791.1,107.3 791.8,106.9 792.2,106.6 792.6,106.3 794.9,106.2 795.3,106.0 795.6,105.9 796.0,105.7 796.4,105.6 796.8,105.5 797.2,105.5 797.5,105.0 797.9,104.5 798.3,104.3 798.7,103.4 799.1,103.2 799.8,103.2 800.2,103.2 801.3,102.9 801.7,102.5 802.1,102.2 802.5,102.0 802.9,101.3 803.2,98.5 803.6,97.3 804.0,97.1 804.4,96.9 804.8,96.4 805.2,96.3 805.5,92.4 805.9,87.6 806.3,86.2 806.7,86.2 807.1,85.4 807.4,84.9 807.8,82.0 808.2,80.2 808.6,77.5 809.0,77.0 809.3,76.9 809.7,76.8 810.1,75.9 810.5,74.6 810.9,71.6 811.2,71.1 811.6,70.5 812.0,69.7 812.4,69.2 812.8,68.7 813.1,66.9 813.5,66.5 813.9,66.4 814.3,66.1 814.7,66.0 815.1,65.7 815.4,65.6 815.8,64.7 816.2,63.4 816.6,62.3 817.0,62.2 817.3,61.2 817.7,60.5 818.1,60.4 818.5,60.2 818.9,60.1 819.2,59.8 819.6,59.0 820.0,58.1"/>

  <g class="hoverpoint">
    <line x1="180.7" y1="30" x2="180.7" y2="160.0" class="guide"/>
    <circle cx="180.7" cy="159.8" r="16" class="hit"/>
    <circle cx="180.7" cy="159.8" r="4" class="hover-dot"><title>Nov 2021: 7 total (+7 this month)</title></circle>
    <rect x="110.7" y="133.8" width="140" height="20" rx="4" class="tooltip-bg"/>
    <text x="180.7" y="147.8" class="tooltip-text" text-anchor="middle">Nov 2021: 7 total (+7 this month)</text>
  </g>
  <g class="hoverpoint">
    <line x1="208.9" y1="30" x2="208.9" y2="160.0" class="guide"/>
    <circle cx="208.9" cy="158.7" r="16" class="hit"/>
    <circle cx="208.9" cy="158.7" r="4" class="hover-dot"><title>Jan 2022: 41 total (+34 this month)</title></circle>
    <rect x="138.9" y="132.7" width="140" height="20" rx="4" class="tooltip-bg"/>
    <text x="208.9" y="146.7" class="tooltip-text" text-anchor="middle">Jan 2022: 41 total (+34 this month)</text>
  </g>
  <g class="hoverpoint">
    <line x1="218.8" y1="30" x2="218.8" y2="160.0" class="guide"/>
    <circle cx="218.8" cy="158.6" r="16" class="hit"/>
    <circle cx="218.8" cy="158.6" r="4" class="hover-dot"><title>Feb 2022: 44 total (+3 this month)</title></circle>
    <rect x="148.8" y="132.6" width="140" height="20" rx="4" class="tooltip-bg"/>
    <text x="218.8" y="146.6" class="tooltip-text" text-anchor="middle">Feb 2022: 44 total (+3 this month)</text>
  </g>
  <g class="hoverpoint">
    <line x1="279.3" y1="30" x2="279.3" y2="160.0" class="guide"/>
    <circle cx="279.3" cy="157.9" r="16" class="hit"/>
    <circle cx="279.3" cy="157.9" r="4" class="hover-dot"><title>Jul 2022: 65 total (+21 this month)</title></circle>
    <rect x="209.3" y="131.9" width="140" height="20" rx="4" class="tooltip-bg"/>
    <text x="279.3" y="145.9" class="tooltip-text" text-anchor="middle">Jul 2022: 65 total (+21 this month)</text>
  </g>
  <g class="hoverpoint">
    <line x1="286.9" y1="30" x2="286.9" y2="160.0" class="guide"/>
    <circle cx="286.9" cy="156.7" r="16" class="hit"/>
    <circle cx="286.9" cy="156.7" r="4" class="hover-dot"><title>Aug 2022: 101 total (+36 this month)</title></circle>
    <rect x="216.9" y="130.7" width="140" height="20" rx="4" class="tooltip-bg"/>
    <text x="286.9" y="144.7" class="tooltip-text" text-anchor="middle">Aug 2022: 101 total (+36 this month)</text>
  </g>
  <g class="hoverpoint">
    <line x1="302.5" y1="30" x2="302.5" y2="160.0" class="guide"/>
    <circle cx="302.5" cy="156.5" r="16" class="hit"/>
    <circle cx="302.5" cy="156.5" r="4" class="hover-dot"><title>Sep 2022: 108 total (+7 this month)</title></circle>
    <rect x="232.5" y="130.5" width="140" height="20" rx="4" class="tooltip-bg"/>
    <text x="302.5" y="144.5" class="tooltip-text" text-anchor="middle">Sep 2022: 108 total (+7 this month)</text>
  </g>
  <g class="hoverpoint">
    <line x1="314.0" y1="30" x2="314.0" y2="160.0" class="guide"/>
    <circle cx="314.0" cy="155.8" r="16" class="hit"/>
    <circle cx="314.0" cy="155.8" r="4" class="hover-dot"><title>Oct 2022: 128 total (+20 this month)</title></circle>
    <rect x="244.0" y="129.8" width="140" height="20" rx="4" class="tooltip-bg"/>
    <text x="314.0" y="143.8" class="tooltip-text" text-anchor="middle">Oct 2022: 128 total (+20 this month)</text>
  </g>
  <g class="hoverpoint">
    <line x1="324.2" y1="30" x2="324.2" y2="160.0" class="guide"/>
    <circle cx="324.2" cy="154.5" r="16" class="hit"/>
    <circle cx="324.2" cy="154.5" r="4" class="hover-dot"><title>Nov 2022: 168 total (+40 this month)</title></circle>
    <rect x="254.2" y="128.5" width="140" height="20" rx="4" class="tooltip-bg"/>
    <text x="324.2" y="142.5" class="tooltip-text" text-anchor="middle">Nov 2022: 168 total (+40 this month)</text>
  </g>
  <g class="hoverpoint">
    <line x1="336.1" y1="30" x2="336.1" y2="160.0" class="guide"/>
    <circle cx="336.1" cy="154.3" r="16" class="hit"/>
    <circle cx="336.1" cy="154.3" r="4" class="hover-dot"><title>Dec 2022: 175 total (+7 this month)</title></circle>
    <rect x="266.1" y="128.3" width="140" height="20" rx="4" class="tooltip-bg"/>
    <text x="336.1" y="142.3" class="tooltip-text" text-anchor="middle">Dec 2022: 175 total (+7 this month)</text>
  </g>
  <g class="hoverpoint">
    <line x1="343.7" y1="30" x2="343.7" y2="160.0" class="guide"/>
    <circle cx="343.7" cy="153.0" r="16" class="hit"/>
    <circle cx="343.7" cy="153.0" r="4" class="hover-dot"><title>Jan 2023: 214 total (+39 this month)</title></circle>
    <rect x="273.7" y="127.0" width="140" height="20" rx="4" class="tooltip-bg"/>
    <text x="343.7" y="141.0" class="tooltip-text" text-anchor="middle">Jan 2023: 214 total (+39 this month)</text>
  </g>
  <g class="hoverpoint">
    <line x1="358.1" y1="30" x2="358.1" y2="160.0" class="guide"/>
    <circle cx="358.1" cy="152.7" r="16" class="hit"/>
    <circle cx="358.1" cy="152.7" r="4" class="hover-dot"><title>Feb 2023: 225 total (+11 this month)</title></circle>
    <rect x="288.1" y="126.7" width="140" height="20" rx="4" class="tooltip-bg"/>
    <text x="358.1" y="140.7" class="tooltip-text" text-anchor="middle">Feb 2023: 225 total (+11 this month)</text>
  </g>
  <g class="hoverpoint">
    <line x1="363.8" y1="30" x2="363.8" y2="160.0" class="guide"/>
    <circle cx="363.8" cy="152.3" r="16" class="hit"/>
    <circle cx="363.8" cy="152.3" r="4" class="hover-dot"><title>Mar 2023: 237 total (+12 this month)</title></circle>
    <rect x="293.8" y="126.3" width="140" height="20" rx="4" class="tooltip-bg"/>
    <text x="363.8" y="140.3" class="tooltip-text" text-anchor="middle">Mar 2023: 237 total (+12 this month)</text>
  </g>
  <g class="hoverpoint">
    <line x1="373.0" y1="30" x2="373.0" y2="160.0" class="guide"/>
    <circle cx="373.0" cy="152.2" r="16" class="hit"/>
    <circle cx="373.0" cy="152.2" r="4" class="hover-dot"><title>Apr 2023: 240 total (+3 this month)</title></circle>
    <rect x="303.0" y="126.2" width="140" height="20" rx="4" class="tooltip-bg"/>
    <text x="373.0" y="140.2" class="tooltip-text" text-anchor="middle">Apr 2023: 240 total (+3 this month)</text>
  </g>
  <g class="hoverpoint">
    <line x1="567.9" y1="30" x2="567.9" y2="160.0" class="guide"/>
    <circle cx="567.9" cy="151.8" r="16" class="hit"/>
    <circle cx="567.9" cy="151.8" r="4" class="hover-dot"><title>Aug 2024: 252 total (+12 this month)</title></circle>
    <rect x="497.9" y="125.8" width="140" height="20" rx="4" class="tooltip-bg"/>
    <text x="567.9" y="139.8" class="tooltip-text" text-anchor="middle">Aug 2024: 252 total (+12 this month)</text>
  </g>
  <g class="hoverpoint">
    <line x1="578.6" y1="30" x2="578.6" y2="160.0" class="guide"/>
    <circle cx="578.6" cy="151.8" r="16" class="hit"/>
    <circle cx="578.6" cy="151.8" r="4" class="hover-dot"><title>Sep 2024: 253 total (+1 this month)</title></circle>
    <rect x="508.6" y="125.8" width="140" height="20" rx="4" class="tooltip-bg"/>
    <text x="578.6" y="139.8" class="tooltip-text" text-anchor="middle">Sep 2024: 253 total (+1 this month)</text>
  </g>
  <g class="hoverpoint">
    <line x1="591.2" y1="30" x2="591.2" y2="160.0" class="guide"/>
    <circle cx="591.2" cy="151.5" r="16" class="hit"/>
    <circle cx="591.2" cy="151.5" r="4" class="hover-dot"><title>Oct 2024: 261 total (+8 this month)</title></circle>
    <rect x="521.2" y="125.5" width="140" height="20" rx="4" class="tooltip-bg"/>
    <text x="591.2" y="139.5" class="tooltip-text" text-anchor="middle">Oct 2024: 261 total (+8 this month)</text>
  </g>
  <g class="hoverpoint">
    <line x1="623.9" y1="30" x2="623.9" y2="160.0" class="guide"/>
    <circle cx="623.9" cy="151.2" r="16" class="hit"/>
    <circle cx="623.9" cy="151.2" r="4" class="hover-dot"><title>Jan 2025: 270 total (+9 this month)</title></circle>
    <rect x="553.9" y="125.2" width="140" height="20" rx="4" class="tooltip-bg"/>
    <text x="623.9" y="139.2" class="tooltip-text" text-anchor="middle">Jan 2025: 270 total (+9 this month)</text>
  </g>
  <g class="hoverpoint">
    <line x1="629.2" y1="30" x2="629.2" y2="160.0" class="guide"/>
    <circle cx="629.2" cy="151.2" r="16" class="hit"/>
    <circle cx="629.2" cy="151.2" r="4" class="hover-dot"><title>Feb 2025: 272 total (+2 this month)</title></circle>
    <rect x="559.2" y="125.2" width="140" height="20" rx="4" class="tooltip-bg"/>
    <text x="629.2" y="139.2" class="tooltip-text" text-anchor="middle">Feb 2025: 272 total (+2 this month)</text>
  </g>
  <g class="hoverpoint">
    <line x1="648.7" y1="30" x2="648.7" y2="160.0" class="guide"/>
    <circle cx="648.7" cy="150.4" r="16" class="hit"/>
    <circle cx="648.7" cy="150.4" r="4" class="hover-dot"><title>Mar 2025: 294 total (+22 this month)</title></circle>
    <rect x="578.7" y="124.4" width="140" height="20" rx="4" class="tooltip-bg"/>
    <text x="648.7" y="138.4" class="tooltip-text" text-anchor="middle">Mar 2025: 294 total (+22 this month)</text>
  </g>
  <g class="hoverpoint">
    <line x1="661.6" y1="30" x2="661.6" y2="160.0" class="guide"/>
    <circle cx="661.6" cy="148.6" r="16" class="hit"/>
    <circle cx="661.6" cy="148.6" r="4" class="hover-dot"><title>Apr 2025: 351 total (+57 this month)</title></circle>
    <rect x="591.6" y="122.6" width="140" height="20" rx="4" class="tooltip-bg"/>
    <text x="661.6" y="136.6" class="tooltip-text" text-anchor="middle">Apr 2025: 351 total (+57 this month)</text>
  </g>
  <g class="hoverpoint">
    <line x1="668.8" y1="30" x2="668.8" y2="160.0" class="guide"/>
    <circle cx="668.8" cy="146.7" r="16" class="hit"/>
    <circle cx="668.8" cy="146.7" r="4" class="hover-dot"><title>May 2025: 408 total (+57 this month)</title></circle>
    <rect x="598.8" y="120.7" width="140" height="20" rx="4" class="tooltip-bg"/>
    <text x="668.8" y="134.7" class="tooltip-text" text-anchor="middle">May 2025: 408 total (+57 this month)</text>
  </g>
  <g class="hoverpoint">
    <line x1="683.3" y1="30" x2="683.3" y2="160.0" class="guide"/>
    <circle cx="683.3" cy="146.2" r="16" class="hit"/>
    <circle cx="683.3" cy="146.2" r="4" class="hover-dot"><title>Jun 2025: 424 total (+16 this month)</title></circle>
    <rect x="613.3" y="120.2" width="140" height="20" rx="4" class="tooltip-bg"/>
    <text x="683.3" y="134.2" class="tooltip-text" text-anchor="middle">Jun 2025: 424 total (+16 this month)</text>
  </g>
  <g class="hoverpoint">
    <line x1="696.6" y1="30" x2="696.6" y2="160.0" class="guide"/>
    <circle cx="696.6" cy="146.0" r="16" class="hit"/>
    <circle cx="696.6" cy="146.0" r="4" class="hover-dot"><title>Jul 2025: 432 total (+8 this month)</title></circle>
    <rect x="626.6" y="120.0" width="140" height="20" rx="4" class="tooltip-bg"/>
    <text x="696.6" y="134.0" class="tooltip-text" text-anchor="middle">Jul 2025: 432 total (+8 this month)</text>
  </g>
  <g class="hoverpoint">
    <line x1="707.3" y1="30" x2="707.3" y2="160.0" class="guide"/>
    <circle cx="707.3" cy="144.6" r="16" class="hit"/>
    <circle cx="707.3" cy="144.6" r="4" class="hover-dot"><title>Aug 2025: 475 total (+43 this month)</title></circle>
    <rect x="637.3" y="118.6" width="140" height="20" rx="4" class="tooltip-bg"/>
    <text x="707.3" y="132.6" class="tooltip-text" text-anchor="middle">Aug 2025: 475 total (+43 this month)</text>
  </g>
  <g class="hoverpoint">
    <line x1="719.9" y1="30" x2="719.9" y2="160.0" class="guide"/>
    <circle cx="719.9" cy="142.9" r="16" class="hit"/>
    <circle cx="719.9" cy="142.9" r="4" class="hover-dot"><title>Sep 2025: 526 total (+51 this month)</title></circle>
    <rect x="649.9" y="116.9" width="140" height="20" rx="4" class="tooltip-bg"/>
    <text x="719.9" y="130.9" class="tooltip-text" text-anchor="middle">Sep 2025: 526 total (+51 this month)</text>
  </g>
  <g class="hoverpoint">
    <line x1="731.7" y1="30" x2="731.7" y2="160.0" class="guide"/>
    <circle cx="731.7" cy="137.5" r="16" class="hit"/>
    <circle cx="731.7" cy="137.5" r="4" class="hover-dot"><title>Oct 2025: 692 total (+166 this month)</title></circle>
    <rect x="661.7" y="111.5" width="140" height="20" rx="4" class="tooltip-bg"/>
    <text x="731.7" y="125.5" class="tooltip-text" text-anchor="middle">Oct 2025: 692 total (+166 this month)</text>
  </g>
  <g class="hoverpoint">
    <line x1="743.1" y1="30" x2="743.1" y2="160.0" class="guide"/>
    <circle cx="743.1" cy="136.2" r="16" class="hit"/>
    <circle cx="743.1" cy="136.2" r="4" class="hover-dot"><title>Nov 2025: 731 total (+39 this month)</title></circle>
    <rect x="673.1" y="110.2" width="140" height="20" rx="4" class="tooltip-bg"/>
    <text x="743.1" y="124.2" class="tooltip-text" text-anchor="middle">Nov 2025: 731 total (+39 this month)</text>
  </g>
  <g class="hoverpoint">
    <line x1="754.9" y1="30" x2="754.9" y2="160.0" class="guide"/>
    <circle cx="754.9" cy="134.6" r="16" class="hit"/>
    <circle cx="754.9" cy="134.6" r="4" class="hover-dot"><title>Dec 2025: 783 total (+52 this month)</title></circle>
    <rect x="684.9" y="108.6" width="140" height="20" rx="4" class="tooltip-bg"/>
    <text x="754.9" y="122.6" class="tooltip-text" text-anchor="middle">Dec 2025: 783 total (+52 this month)</text>
  </g>
  <g class="hoverpoint">
    <line x1="766.7" y1="30" x2="766.7" y2="160.0" class="guide"/>
    <circle cx="766.7" cy="126.8" r="16" class="hit"/>
    <circle cx="766.7" cy="126.8" r="4" class="hover-dot"><title>Jan 2026: 1,022 total (+239 this month)</title></circle>
    <rect x="696.7" y="100.8" width="140" height="20" rx="4" class="tooltip-bg"/>
    <text x="766.7" y="114.8" class="tooltip-text" text-anchor="middle">Jan 2026: 1,022 total (+239 this month)</text>
  </g>
  <g class="hoverpoint">
    <line x1="777.4" y1="30" x2="777.4" y2="160.0" class="guide"/>
    <circle cx="777.4" cy="117.1" r="16" class="hit"/>
    <circle cx="777.4" cy="117.1" r="4" class="hover-dot"><title>Feb 2026: 1,321 total (+299 this month)</title></circle>
    <rect x="707.4" y="91.1" width="140" height="20" rx="4" class="tooltip-bg"/>
    <text x="777.4" y="105.1" class="tooltip-text" text-anchor="middle">Feb 2026: 1,321 total (+299 this month)</text>
  </g>
  <g class="hoverpoint">
    <line x1="789.2" y1="30" x2="789.2" y2="160.0" class="guide"/>
    <circle cx="789.2" cy="107.4" r="16" class="hit"/>
    <circle cx="789.2" cy="107.4" r="4" class="hover-dot"><title>Mar 2026: 1,617 total (+296 this month)</title></circle>
    <rect x="719.2" y="81.4" width="140" height="20" rx="4" class="tooltip-bg"/>
    <text x="789.2" y="95.4" class="tooltip-text" text-anchor="middle">Mar 2026: 1,617 total (+296 this month)</text>
  </g>
  <g class="hoverpoint">
    <line x1="800.2" y1="30" x2="800.2" y2="160.0" class="guide"/>
    <circle cx="800.2" cy="103.2" r="16" class="hit"/>
    <circle cx="800.2" cy="103.2" r="4" class="hover-dot"><title>Apr 2026: 1,749 total (+132 this month)</title></circle>
    <rect x="730.2" y="77.2" width="140" height="20" rx="4" class="tooltip-bg"/>
    <text x="800.2" y="91.2" class="tooltip-text" text-anchor="middle">Apr 2026: 1,749 total (+132 this month)</text>
  </g>
  <g class="hoverpoint">
    <line x1="812.4" y1="30" x2="812.4" y2="160.0" class="guide"/>
    <circle cx="812.4" cy="69.2" r="16" class="hit"/>
    <circle cx="812.4" cy="69.2" r="4" class="hover-dot"><title>May 2026: 2,795 total (+1,046 this month)</title></circle>
    <rect x="742.4" y="43.2" width="140" height="20" rx="4" class="tooltip-bg"/>
    <text x="812.4" y="57.2" class="tooltip-text" text-anchor="middle">May 2026: 2,795 total (+1,046 this month)</text>
  </g>
  <g class="hoverpoint">
    <line x1="820.0" y1="30" x2="820.0" y2="160.0" class="guide"/>
    <circle cx="820.0" cy="58.1" r="16" class="hit"/>
    <circle cx="820.0" cy="58.1" r="4" class="hover-dot"><title>Jun 2026: 3,136 total (+341 this month)</title></circle>
    <rect x="750.0" y="32.1" width="140" height="20" rx="4" class="tooltip-bg"/>
    <text x="820.0" y="46.1" class="tooltip-text" text-anchor="middle">Jun 2026: 3,136 total (+341 this month)</text>
  </g>

  <circle cx="820.0" cy="58.1" r="4" class="dot"/>
  <text x="810.0" y="48.1" class="total">3,136</text>

</svg>