<svg xmlns="http://www.w3.org/2000/svg" width="840" height="196" viewBox="0 0 840 196" fill="none">
  <style>
    .label { font-family: -apple-system, BlinkMacSystemFont, 'Segoe UI', Helvetica, Arial, sans-serif; font-size: 10px; fill: #8b949e; }
    .title { font-family: -apple-system, BlinkMacSystemFont, 'Segoe UI', Helvetica, Arial, sans-serif; font-size: 11px; fill: #8b949e; font-weight: 600; }
    .total { font-family: -apple-system, BlinkMacSystemFont, 'Segoe UI', Helvetica, Arial, sans-serif; font-size: 11px; fill: #7ee787; font-weight: 600; }
    .grid { stroke: #21262d; stroke-width: 1; }
    .line { stroke: #7ee787; stroke-width: 2; stroke-linecap: round; stroke-linejoin: round; fill: none; }
    .dot { fill: #7ee787; }
    .area { fill: url(#areaGrad); }
    /* Hover interaction */
    .hoverpoint .guide { stroke: #7ee787; stroke-width: 1; stroke-dasharray: 2,2; opacity: 0; }
    .hoverpoint .hover-dot { fill: #7ee787; opacity: 0; }
    .hoverpoint .hit { fill: transparent; cursor: pointer; }
    .hoverpoint .tooltip-bg { fill: #161b22; stroke: #30363d; stroke-width: 1; opacity: 0; }
    .hoverpoint .tooltip-text { font-family: -apple-system, BlinkMacSystemFont, 'Segoe UI', Helvetica, Arial, sans-serif; font-size: 9px; fill: #c9d1d9; opacity: 0; }
    .hoverpoint:hover .guide { opacity: 0.5; }
    .hoverpoint:hover .hover-dot { opacity: 1; }
    .hoverpoint:hover .tooltip-bg { opacity: 0.95; }
    .hoverpoint:hover .tooltip-text { opacity: 1; }
  </style>
  <defs>
    <linearGradient id="areaGrad" x1="0" y1="0" x2="0" y2="1">
      <stop offset="0%" stop-color="#7ee787" stop-opacity="0.15"/>
      <stop offset="100%" stop-color="#7ee787" stop-opacity="0.01"/>
    </linearGradient>
  </defs>

  <text x="60" y="18" class="title">Cumulative Commits</text>

  <line x1="60" y1="160.0" x2="820" y2="160.0" class="grid"/>
  <text x="50" y="163.0" class="label" text-anchor="end">0</text>
  <line x1="60" y1="127.5" x2="820" y2="127.5" class="grid" stroke-dasharray="3,3"/>
  <text x="50" y="130.5" class="label" text-anchor="end">500</text>
  <line x1="60" y1="95.0" x2="820" y2="95.0" class="grid" stroke-dasharray="3,3"/>
  <text x="50" y="98.0" class="label" text-anchor="end">1,000</text>
  <line x1="60" y1="62.5" x2="820" y2="62.5" class="grid" stroke-dasharray="3,3"/>
  <text x="50" y="65.5" class="label" text-anchor="end">1,500</text>
  <line x1="60" y1="30.0" x2="820" y2="30.0" class="grid" stroke-dasharray="3,3"/>
  <text x="50" y="33.0" class="label" text-anchor="end">2,000</text>

  <text x="70.0" y="186" class="label" text-anchor="middle">2021</text>
  <text x="205.2" y="186" class="label" text-anchor="middle">2022</text>
  <text x="350.3" y="186" class="label" text-anchor="middle">2023</text>
  <text x="495.5" y="186" class="label" text-anchor="middle">2024</text>
  <text x="641.0" y="186" class="label" text-anchor="middle">2025</text>
  <text x="786.2" y="186" class="label" text-anchor="middle">2026</text>


  <path class="area" d="M60.0,160.0 L60.0,160.0 60.0,160.0 L184.5,159.7 L184.9,159.6 L186.1,159.5 L205.2,159.4 L205.6,159.0 L206.0,158.9 L206.4,158.6 L206.8,158.6 L207.1,158.4 L207.9,158.1 L208.3,157.9 L208.7,157.8 L209.1,157.7 L210.7,157.5 L211.1,157.5 L211.5,157.4 L215.5,157.3 L225.8,157.1 L280.3,157.1 L280.7,156.5 L282.3,156.4 L283.1,155.9 L289.1,155.8 L289.9,155.6 L290.3,155.4 L290.7,155.3 L291.5,155.1 L291.9,154.7 L292.3,154.0 L292.7,153.9 L294.2,153.6 L295.0,153.6 L297.0,153.4 L302.6,153.2 L313.3,153.0 L319.3,152.9 L322.1,152.8 L322.5,152.7 L322.9,152.5 L323.3,152.3 L324.5,151.8 L324.9,151.7 L325.3,151.7 L326.9,151.4 L327.3,151.1 L327.7,151.0 L328.0,150.4 L328.4,149.9 L328.8,149.7 L329.2,149.5 L330.0,149.4 L331.6,149.3 L336.0,149.1 L347.5,149.0 L347.9,148.7 L348.3,148.6 L352.3,148.0 L352.7,146.5 L353.9,146.3 L354.3,146.3 L356.3,146.1 L369.8,145.8 L370.2,145.7 L370.6,145.6 L371.4,145.4 L374.2,145.2 L375.0,144.9 L375.4,144.7 L377.4,144.6 L386.9,144.4 L582.6,144.3 L583.4,144.2 L584.2,144.1 L585.0,144.0 L585.4,143.9 L585.8,143.8 L586.2,143.8 L586.6,143.7 L590.5,143.6 L601.7,143.6 L604.8,143.5 L606.0,143.4 L608.4,143.4 L610.8,143.3 L611.2,143.2 L612.8,143.2 L614.0,143.1 L614.8,143.0 L644.2,143.0 L644.6,142.8 L645.4,142.8 L645.8,142.7 L647.0,142.5 L649.0,142.4 L654.6,142.3 L666.1,141.7 L666.5,141.5 L671.7,141.3 L672.1,141.2 L673.2,141.1 L674.8,140.9 L676.8,140.2 L677.2,138.4 L677.6,138.3 L680.0,138.2 L681.2,138.1 L681.6,138.0 L682.4,137.8 L685.6,137.7 L688.4,137.2 L690.4,136.7 L690.7,136.5 L691.9,136.2 L692.3,135.4 L692.7,135.2 L693.1,134.9 L693.5,134.7 L693.9,134.4 L694.7,133.9 L695.9,133.5 L710.2,133.3 L711.0,132.4 L719.8,132.2 L725.0,131.9 L727.3,131.9 L727.7,131.8 L730.1,131.7 L730.5,131.7 L730.9,131.6 L731.3,131.4 L731.7,131.1 L732.1,130.5 L732.5,130.4 L734.9,129.4 L735.3,129.3 L736.1,129.1 L738.9,128.8 L739.7,128.7 L740.1,128.5 L740.9,128.5 L741.3,128.0 L741.7,127.9 L742.4,127.8 L742.8,127.6 L743.2,127.6 L743.6,127.5 L745.2,127.1 L745.6,127.0 L746.0,126.8 L746.4,126.7 L746.8,126.6 L747.2,126.4 L748.4,126.1 L748.8,125.9 L749.2,125.8 L749.6,125.6 L750.0,125.2 L750.8,125.1 L751.2,124.4 L751.6,124.1 L752.0,122.8 L752.4,122.5 L752.8,122.2 L753.2,121.5 L753.6,121.4 L754.0,121.2 L754.4,121.1 L754.8,120.7 L756.8,120.0 L757.2,119.8 L757.6,119.2 L758.0,118.1 L758.4,118.0 L759.2,117.9 L759.5,116.9 L759.9,116.4 L760.3,116.3 L760.7,115.3 L761.5,115.0 L761.9,114.9 L762.3,114.8 L762.7,114.7 L763.1,114.6 L763.5,114.6 L765.1,114.4 L765.9,114.3 L766.3,113.8 L766.7,113.5 L767.9,113.5 L769.9,113.3 L772.3,113.1 L772.7,112.9 L773.1,112.9 L773.5,112.5 L773.9,111.6 L774.3,111.5 L774.7,111.4 L775.1,111.3 L775.5,111.1 L775.9,110.6 L780.2,110.5 L780.6,110.4 L784.2,109.9 L785.0,109.5 L785.4,109.4 L785.8,109.1 L786.2,109.0 L787.4,108.8 L787.8,107.9 L788.2,105.5 L788.6,103.5 L789.0,103.4 L789.4,103.1 L790.2,102.8 L790.6,102.5 L791.0,102.1 L791.8,102.0 L792.2,101.4 L792.6,101.3 L793.4,100.4 L793.8,100.3 L794.1,99.8 L794.5,99.5 L794.9,99.1 L795.3,99.0 L796.5,98.4 L796.9,98.1 L797.3,96.6 L797.7,94.4 L798.1,93.6 L798.5,92.6 L798.9,92.5 L799.3,92.1 L799.7,91.9 L800.1,91.4 L800.5,90.6 L800.9,90.6 L801.3,90.1 L801.7,90.0 L802.1,89.5 L802.5,89.0 L802.9,88.4 L803.3,87.8 L803.7,87.7 L804.1,87.5 L804.5,86.4 L804.9,84.4 L805.3,84.1 L806.1,83.7 L806.5,83.5 L806.9,83.4 L807.3,80.2 L807.7,78.8 L808.1,77.3 L808.5,76.8 L808.9,74.4 L809.3,74.1 L809.7,74.0 L810.1,73.5 L810.5,72.4 L810.9,70.4 L811.3,68.2 L811.6,68.1 L812.0,67.6 L812.8,67.5 L813.2,66.2 L813.6,65.2 L814.0,63.8 L814.4,63.6 L814.8,63.5 L815.2,61.4 L815.6,58.9 L816.0,57.8 L816.4,57.3 L816.8,56.6 L817.2,56.1 L817.6,56.0 L818.4,55.9 L819.6,55.9 L820.0,55.8 L820.0,160.0 Z"/>
  <polyline class="line" points="60.0,160.0 184.5,159.7 184.9,159.6 186.1,159.5 205.2,159.4 205.6,159.0 206.0,158.9 206.4,158.6 206.8,158.6 207.1,158.4 207.9,158.1 208.3,157.9 208.7,157.8 209.1,157.7 210.7,157.5 211.1,157.5 211.5,157.4 215.5,157.3 225.8,157.1 280.3,157.1 280.7,156.5 282.3,156.4 283.1,155.9 289.1,155.8 289.9,155.6 290.3,155.4 290.7,155.3 291.5,155.1 291.9,154.7 292.3,154.0 292.7,153.9 294.2,153.6 295.0,153.6 297.0,153.4 302.6,153.2 313.3,153.0 319.3,152.9 322.1,152.8 322.5,152.7 322.9,152.5 323.3,152.3 324.5,151.8 324.9,151.7 325.3,151.7 326.9,151.4 327.3,151.1 327.7,151.0 328.0,150.4 328.4,149.9 328.8,149.7 329.2,149.5 330.0,149.4 331.6,149.3 336.0,149.1 347.5,149.0 347.9,148.7 348.3,148.6 352.3,148.0 352.7,146.5 353.9,146.3 354.3,146.3 356.3,146.1 369.8,145.8 370.2,145.7 370.6,145.6 371.4,145.4 374.2,145.2 375.0,144.9 375.4,144.7 377.4,144.6 386.9,144.4 582.6,144.3 583.4,144.2 584.2,144.1 585.0,144.0 585.4,143.9 585.8,143.8 586.2,143.8 586.6,143.7 590.5,143.6 601.7,143.6 604.8,143.5 606.0,143.4 608.4,143.4 610.8,143.3 611.2,143.2 612.8,143.2 614.0,143.1 614.8,143.0 644.2,143.0 644.6,142.8 645.4,142.8 645.8,142.7 647.0,142.5 649.0,142.4 654.6,142.3 666.1,141.7 666.5,141.5 671.7,141.3 672.1,141.2 673.2,141.1 674.8,140.9 676.8,140.2 677.2,138.4 677.6,138.3 680.0,138.2 681.2,138.1 681.6,138.0 682.4,137.8 685.6,137.7 688.4,137.2 690.4,136.7 690.7,136.5 691.9,136.2 692.3,135.4 692.7,135.2 693.1,134.9 693.5,134.7 693.9,134.4 694.7,133.9 695.9,133.5 710.2,133.3 711.0,132.4 719.8,132.2 725.0,131.9 727.3,131.9 727.7,131.8 730.1,131.7 730.5,131.7 730.9,131.6 731.3,131.4 731.7,131.1 732.1,130.5 732.5,130.4 734.9,129.4 735.3,129.3 736.1,129.1 738.9,128.8 739.7,128.7 740.1,128.5 740.9,128.5 741.3,128.0 741.7,127.9 742.4,127.8 742.8,127.6 743.2,127.6 743.6,127.5 745.2,127.1 745.6,127.0 746.0,126.8 746.4,126.7 746.8,126.6 747.2,126.4 748.4,126.1 748.8,125.9 749.2,125.8 749.6,125.6 750.0,125.2 750.8,125.1 751.2,124.4 751.6,124.1 752.0,122.8 752.4,122.5 752.8,122.2 753.2,121.5 753.6,121.4 754.0,121.2 754.4,121.1 754.8,120.7 756.8,120.0 757.2,119.8 757.6,119.2 758.0,118.1 758.4,118.0 759.2,117.9 759.5,116.9 759.9,116.4 760.3,116.3 760.7,115.3 761.5,115.0 761.9,114.9 762.3,114.8 762.7,114.7 763.1,114.6 763.5,114.6 765.1,114.4 765.9,114.3 766.3,113.8 766.7,113.5 767.9,113.5 769.9,113.3 772.3,113.1 772.7,112.9 773.1,112.9 773.5,112.5 773.9,111.6 774.3,111.5 774.7,111.4 775.1,111.3 775.5,111.1 775.9,110.6 780.2,110.5 780.6,110.4 784.2,109.9 785.0,109.5 785.4,109.4 785.8,109.1 786.2,109.0 787.4,108.8 787.8,107.9 788.2,105.5 788.6,103.5 789.0,103.4 789.4,103.1 790.2,102.8 790.6,102.5 791.0,102.1 791.8,102.0 792.2,101.4 792.6,101.3 793.4,100.4 793.8,100.3 794.1,99.8 794.5,99.5 794.9,99.1 795.3,99.0 796.5,98.4 796.9,98.1 797.3,96.6 797.7,94.4 798.1,93.6 798.5,92.6 798.9,92.5 799.3,92.1 799.7,91.9 800.1,91.4 800.5,90.6 800.9,90.6 801.3,90.1 801.7,90.0 802.1,89.5 802.5,89.0 802.9,88.4 803.3,87.8 803.7,87.7 804.1,87.5 804.5,86.4 804.9,84.4 805.3,84.1 806.1,83.7 806.5,83.5 806.9,83.4 807.3,80.2 807.7,78.8 808.1,77.3 808.5,76.8 808.9,74.4 809.3,74.1 809.7,74.0 810.1,73.5 810.5,72.4 810.9,70.4 811.3,68.2 811.6,68.1 812.0,67.6 812.8,67.5 813.2,66.2 813.6,65.2 814.0,63.8 814.4,63.6 814.8,63.5 815.2,61.4 815.6,58.9 816.0,57.8 816.4,57.3 816.8,56.6 817.2,56.1 817.6,56.0 818.4,55.9 819.6,55.9 820.0,55.8"/>

  <g class="hoverpoint">
    <line x1="186.1" y1="30" x2="186.1" y2="160.0" class="guide"/>
    <circle cx="186.1" cy="159.5" r="16" class="hit"/>
    <circle cx="186.1" cy="159.5" r="4" class="hover-dot"><title>Nov 2021: 7 total (+7 this month)</title></circle>
    <rect x="116.1" y="133.5" width="140" height="20" rx="4" class="tooltip-bg"/>
    <text x="186.1" y="147.5" class="tooltip-text" text-anchor="middle">Nov 2021: 7 total (+7 this month)</text>
  </g>
  <g class="hoverpoint">
    <line x1="215.5" y1="30" x2="215.5" y2="160.0" class="guide"/>
    <circle cx="215.5" cy="157.3" r="16" class="hit"/>
    <circle cx="215.5" cy="157.3" r="4" class="hover-dot"><title>Jan 2022: 41 total (+34 this month)</title></circle>
    <rect x="145.5" y="131.3" width="140" height="20" rx="4" class="tooltip-bg"/>
    <text x="215.5" y="145.3" class="tooltip-text" text-anchor="middle">Jan 2022: 41 total (+34 this month)</text>
  </g>
  <g class="hoverpoint">
    <line x1="225.8" y1="30" x2="225.8" y2="160.0" class="guide"/>
    <circle cx="225.8" cy="157.1" r="16" class="hit"/>
    <circle cx="225.8" cy="157.1" r="4" class="hover-dot"><title>Feb 2022: 44 total (+3 this month)</title></circle>
    <rect x="155.8" y="131.1" width="140" height="20" rx="4" class="tooltip-bg"/>
    <text x="225.8" y="145.1" class="tooltip-text" text-anchor="middle">Feb 2022: 44 total (+3 this month)</text>
  </g>
  <g class="hoverpoint">
    <line x1="289.1" y1="30" x2="289.1" y2="160.0" class="guide"/>
    <circle cx="289.1" cy="155.8" r="16" class="hit"/>
    <circle cx="289.1" cy="155.8" r="4" class="hover-dot"><title>Jul 2022: 65 total (+21 this month)</title></circle>
    <rect x="219.1" y="129.8" width="140" height="20" rx="4" class="tooltip-bg"/>
    <text x="289.1" y="143.8" class="tooltip-text" text-anchor="middle">Jul 2022: 65 total (+21 this month)</text>
  </g>
  <g class="hoverpoint">
    <line x1="297.0" y1="30" x2="297.0" y2="160.0" class="guide"/>
    <circle cx="297.0" cy="153.4" r="16" class="hit"/>
    <circle cx="297.0" cy="153.4" r="4" class="hover-dot"><title>Aug 2022: 101 total (+36 this month)</title></circle>
    <rect x="227.0" y="127.4" width="140" height="20" rx="4" class="tooltip-bg"/>
    <text x="297.0" y="141.4" class="tooltip-text" text-anchor="middle">Aug 2022: 101 total (+36 this month)</text>
  </g>
  <g class="hoverpoint">
    <line x1="313.3" y1="30" x2="313.3" y2="160.0" class="guide"/>
    <circle cx="313.3" cy="153.0" r="16" class="hit"/>
    <circle cx="313.3" cy="153.0" r="4" class="hover-dot"><title>Sep 2022: 108 total (+7 this month)</title></circle>
    <rect x="243.3" y="127.0" width="140" height="20" rx="4" class="tooltip-bg"/>
    <text x="313.3" y="141.0" class="tooltip-text" text-anchor="middle">Sep 2022: 108 total (+7 this month)</text>
  </g>
  <g class="hoverpoint">
    <line x1="325.3" y1="30" x2="325.3" y2="160.0" class="guide"/>
    <circle cx="325.3" cy="151.7" r="16" class="hit"/>
    <circle cx="325.3" cy="151.7" r="4" class="hover-dot"><title>Oct 2022: 128 total (+20 this month)</title></circle>
    <rect x="255.3" y="125.7" width="140" height="20" rx="4" class="tooltip-bg"/>
    <text x="325.3" y="139.7" class="tooltip-text" text-anchor="middle">Oct 2022: 128 total (+20 this month)</text>
  </g>
  <g class="hoverpoint">
    <line x1="336.0" y1="30" x2="336.0" y2="160.0" class="guide"/>
    <circle cx="336.0" cy="149.1" r="16" class="hit"/>
    <circle cx="336.0" cy="149.1" r="4" class="hover-dot"><title>Nov 2022: 168 total (+40 this month)</title></circle>
    <rect x="266.0" y="123.1" width="140" height="20" rx="4" class="tooltip-bg"/>
    <text x="336.0" y="137.1" class="tooltip-text" text-anchor="middle">Nov 2022: 168 total (+40 this month)</text>
  </g>
  <g class="hoverpoint">
    <line x1="348.3" y1="30" x2="348.3" y2="160.0" class="guide"/>
    <circle cx="348.3" cy="148.6" r="16" class="hit"/>
    <circle cx="348.3" cy="148.6" r="4" class="hover-dot"><title>Dec 2022: 175 total (+7 this month)</title></circle>
    <rect x="278.3" y="122.6" width="140" height="20" rx="4" class="tooltip-bg"/>
    <text x="348.3" y="136.6" class="tooltip-text" text-anchor="middle">Dec 2022: 175 total (+7 this month)</text>
  </g>
  <g class="hoverpoint">
    <line x1="356.3" y1="30" x2="356.3" y2="160.0" class="guide"/>
    <circle cx="356.3" cy="146.1" r="16" class="hit"/>
    <circle cx="356.3" cy="146.1" r="4" class="hover-dot"><title>Jan 2023: 214 total (+39 this month)</title></circle>
    <rect x="286.3" y="120.1" width="140" height="20" rx="4" class="tooltip-bg"/>
    <text x="356.3" y="134.1" class="tooltip-text" text-anchor="middle">Jan 2023: 214 total (+39 this month)</text>
  </g>
  <g class="hoverpoint">
    <line x1="371.4" y1="30" x2="371.4" y2="160.0" class="guide"/>
    <circle cx="371.4" cy="145.4" r="16" class="hit"/>
    <circle cx="371.4" cy="145.4" r="4" class="hover-dot"><title>Feb 2023: 225 total (+11 this month)</title></circle>
    <rect x="301.4" y="119.4" width="140" height="20" rx="4" class="tooltip-bg"/>
    <text x="371.4" y="133.4" class="tooltip-text" text-anchor="middle">Feb 2023: 225 total (+11 this month)</text>
  </g>
  <g class="hoverpoint">
    <line x1="377.4" y1="30" x2="377.4" y2="160.0" class="guide"/>
    <circle cx="377.4" cy="144.6" r="16" class="hit"/>
    <circle cx="377.4" cy="144.6" r="4" class="hover-dot"><title>Mar 2023: 237 total (+12 this month)</title></circle>
    <rect x="307.4" y="118.6" width="140" height="20" rx="4" class="tooltip-bg"/>
    <text x="377.4" y="132.6" class="tooltip-text" text-anchor="middle">Mar 2023: 237 total (+12 this month)</text>
  </g>
  <g class="hoverpoint">
    <line x1="386.9" y1="30" x2="386.9" y2="160.0" class="guide"/>
    <circle cx="386.9" cy="144.4" r="16" class="hit"/>
    <circle cx="386.9" cy="144.4" r="4" class="hover-dot"><title>Apr 2023: 240 total (+3 this month)</title></circle>
    <rect x="316.9" y="118.4" width="140" height="20" rx="4" class="tooltip-bg"/>
    <text x="386.9" y="132.4" class="tooltip-text" text-anchor="middle">Apr 2023: 240 total (+3 this month)</text>
  </g>
  <g class="hoverpoint">
    <line x1="590.5" y1="30" x2="590.5" y2="160.0" class="guide"/>
    <circle cx="590.5" cy="143.6" r="16" class="hit"/>
    <circle cx="590.5" cy="143.6" r="4" class="hover-dot"><title>Aug 2024: 252 total (+12 this month)</title></circle>
    <rect x="520.5" y="117.6" width="140" height="20" rx="4" class="tooltip-bg"/>
    <text x="590.5" y="131.6" class="tooltip-text" text-anchor="middle">Aug 2024: 252 total (+12 this month)</text>
  </g>
  <g class="hoverpoint">
    <line x1="601.7" y1="30" x2="601.7" y2="160.0" class="guide"/>
    <circle cx="601.7" cy="143.6" r="16" class="hit"/>
    <circle cx="601.7" cy="143.6" r="4" class="hover-dot"><title>Sep 2024: 253 total (+1 this month)</title></circle>
    <rect x="531.7" y="117.6" width="140" height="20" rx="4" class="tooltip-bg"/>
    <text x="601.7" y="131.6" class="tooltip-text" text-anchor="middle">Sep 2024: 253 total (+1 this month)</text>
  </g>
  <g class="hoverpoint">
    <line x1="614.8" y1="30" x2="614.8" y2="160.0" class="guide"/>
    <circle cx="614.8" cy="143.0" r="16" class="hit"/>
    <circle cx="614.8" cy="143.0" r="4" class="hover-dot"><title>Oct 2024: 261 total (+8 this month)</title></circle>
    <rect x="544.8" y="117.0" width="140" height="20" rx="4" class="tooltip-bg"/>
    <text x="614.8" y="131.0" class="tooltip-text" text-anchor="middle">Oct 2024: 261 total (+8 this month)</text>
  </g>
  <g class="hoverpoint">
    <line x1="649.0" y1="30" x2="649.0" y2="160.0" class="guide"/>
    <circle cx="649.0" cy="142.4" r="16" class="hit"/>
    <circle cx="649.0" cy="142.4" r="4" class="hover-dot"><title>Jan 2025: 270 total (+9 this month)</title></circle>
    <rect x="579.0" y="116.4" width="140" height="20" rx="4" class="tooltip-bg"/>
    <text x="649.0" y="130.4" class="tooltip-text" text-anchor="middle">Jan 2025: 270 total (+9 this month)</text>
  </g>
  <g class="hoverpoint">
    <line x1="654.6" y1="30" x2="654.6" y2="160.0" class="guide"/>
    <circle cx="654.6" cy="142.3" r="16" class="hit"/>
    <circle cx="654.6" cy="142.3" r="4" class="hover-dot"><title>Feb 2025: 272 total (+2 this month)</title></circle>
    <rect x="584.6" y="116.3" width="140" height="20" rx="4" class="tooltip-bg"/>
    <text x="654.6" y="130.3" class="tooltip-text" text-anchor="middle">Feb 2025: 272 total (+2 this month)</text>
  </g>
  <g class="hoverpoint">
    <line x1="674.8" y1="30" x2="674.8" y2="160.0" class="guide"/>
    <circle cx="674.8" cy="140.9" r="16" class="hit"/>
    <circle cx="674.8" cy="140.9" r="4" class="hover-dot"><title>Mar 2025: 294 total (+22 this month)</title></circle>
    <rect x="604.8" y="114.9" width="140" height="20" rx="4" class="tooltip-bg"/>
    <text x="674.8" y="128.9" class="tooltip-text" text-anchor="middle">Mar 2025: 294 total (+22 this month)</text>
  </g>
  <g class="hoverpoint">
    <line x1="688.4" y1="30" x2="688.4" y2="160.0" class="guide"/>
    <circle cx="688.4" cy="137.2" r="16" class="hit"/>
    <circle cx="688.4" cy="137.2" r="4" class="hover-dot"><title>Apr 2025: 351 total (+57 this month)</title></circle>
    <rect x="618.4" y="111.2" width="140" height="20" rx="4" class="tooltip-bg"/>
    <text x="688.4" y="125.2" class="tooltip-text" text-anchor="middle">Apr 2025: 351 total (+57 this month)</text>
  </g>
  <g class="hoverpoint">
    <line x1="695.9" y1="30" x2="695.9" y2="160.0" class="guide"/>
    <circle cx="695.9" cy="133.5" r="16" class="hit"/>
    <circle cx="695.9" cy="133.5" r="4" class="hover-dot"><title>May 2025: 408 total (+57 this month)</title></circle>
    <rect x="625.9" y="107.5" width="140" height="20" rx="4" class="tooltip-bg"/>
    <text x="695.9" y="121.5" class="tooltip-text" text-anchor="middle">May 2025: 408 total (+57 this month)</text>
  </g>
  <g class="hoverpoint">
    <line x1="711.0" y1="30" x2="711.0" y2="160.0" class="guide"/>
    <circle cx="711.0" cy="132.4" r="16" class="hit"/>
    <circle cx="711.0" cy="132.4" r="4" class="hover-dot"><title>Jun 2025: 424 total (+16 this month)</title></circle>
    <rect x="641.0" y="106.4" width="140" height="20" rx="4" class="tooltip-bg"/>
    <text x="711.0" y="120.4" class="tooltip-text" text-anchor="middle">Jun 2025: 424 total (+16 this month)</text>
  </g>
  <g class="hoverpoint">
    <line x1="725.0" y1="30" x2="725.0" y2="160.0" class="guide"/>
    <circle cx="725.0" cy="131.9" r="16" class="hit"/>
    <circle cx="725.0" cy="131.9" r="4" class="hover-dot"><title>Jul 2025: 432 total (+8 this month)</title></circle>
    <rect x="655.0" y="105.9" width="140" height="20" rx="4" class="tooltip-bg"/>
    <text x="725.0" y="119.9" class="tooltip-text" text-anchor="middle">Jul 2025: 432 total (+8 this month)</text>
  </g>
  <g class="hoverpoint">
    <line x1="736.1" y1="30" x2="736.1" y2="160.0" class="guide"/>
    <circle cx="736.1" cy="129.1" r="16" class="hit"/>
    <circle cx="736.1" cy="129.1" r="4" class="hover-dot"><title>Aug 2025: 475 total (+43 this month)</title></circle>
    <rect x="666.1" y="103.1" width="140" height="20" rx="4" class="tooltip-bg"/>
    <text x="736.1" y="117.1" class="tooltip-text" text-anchor="middle">Aug 2025: 475 total (+43 this month)</text>
  </g>
  <g class="hoverpoint">
    <line x1="749.2" y1="30" x2="749.2" y2="160.0" class="guide"/>
    <circle cx="749.2" cy="125.8" r="16" class="hit"/>
    <circle cx="749.2" cy="125.8" r="4" class="hover-dot"><title>Sep 2025: 526 total (+51 this month)</title></circle>
    <rect x="679.2" y="99.8" width="140" height="20" rx="4" class="tooltip-bg"/>
    <text x="749.2" y="113.8" class="tooltip-text" text-anchor="middle">Sep 2025: 526 total (+51 this month)</text>
  </g>
  <g class="hoverpoint">
    <line x1="761.5" y1="30" x2="761.5" y2="160.0" class="guide"/>
    <circle cx="761.5" cy="115.0" r="16" class="hit"/>
    <circle cx="761.5" cy="115.0" r="4" class="hover-dot"><title>Oct 2025: 692 total (+166 this month)</title></circle>
    <rect x="691.5" y="89.0" width="140" height="20" rx="4" class="tooltip-bg"/>
    <text x="761.5" y="103.0" class="tooltip-text" text-anchor="middle">Oct 2025: 692 total (+166 this month)</text>
  </g>
  <g class="hoverpoint">
    <line x1="773.5" y1="30" x2="773.5" y2="160.0" class="guide"/>
    <circle cx="773.5" cy="112.5" r="16" class="hit"/>
    <circle cx="773.5" cy="112.5" r="4" class="hover-dot"><title>Nov 2025: 731 total (+39 this month)</title></circle>
    <rect x="703.5" y="86.5" width="140" height="20" rx="4" class="tooltip-bg"/>
    <text x="773.5" y="100.5" class="tooltip-text" text-anchor="middle">Nov 2025: 731 total (+39 this month)</text>
  </g>
  <g class="hoverpoint">
    <line x1="785.8" y1="30" x2="785.8" y2="160.0" class="guide"/>
    <circle cx="785.8" cy="109.1" r="16" class="hit"/>
    <circle cx="785.8" cy="109.1" r="4" class="hover-dot"><title>Dec 2025: 783 total (+52 this month)</title></circle>
    <rect x="715.8" y="83.1" width="140" height="20" rx="4" class="tooltip-bg"/>
    <text x="785.8" y="97.1" class="tooltip-text" text-anchor="middle">Dec 2025: 783 total (+52 this month)</text>
  </g>
  <g class="hoverpoint">
    <line x1="798.1" y1="30" x2="798.1" y2="160.0" class="guide"/>
    <circle cx="798.1" cy="93.6" r="16" class="hit"/>
    <circle cx="798.1" cy="93.6" r="4" class="hover-dot"><title>Jan 2026: 1,022 total (+239 this month)</title></circle>
    <rect x="728.1" y="67.6" width="140" height="20" rx="4" class="tooltip-bg"/>
    <text x="798.1" y="81.6" class="tooltip-text" text-anchor="middle">Jan 2026: 1,022 total (+239 this month)</text>
  </g>
  <g class="hoverpoint">
    <line x1="809.3" y1="30" x2="809.3" y2="160.0" class="guide"/>
    <circle cx="809.3" cy="74.1" r="16" class="hit"/>
    <circle cx="809.3" cy="74.1" r="4" class="hover-dot"><title>Feb 2026: 1,321 total (+299 this month)</title></circle>
    <rect x="739.3" y="48.1" width="140" height="20" rx="4" class="tooltip-bg"/>
    <text x="809.3" y="62.1" class="tooltip-text" text-anchor="middle">Feb 2026: 1,321 total (+299 this month)</text>
  </g>
  <g class="hoverpoint">
    <line x1="820.0" y1="30" x2="820.0" y2="160.0" class="guide"/>
    <circle cx="820.0" cy="55.8" r="16" class="hit"/>
    <circle cx="820.0" cy="55.8" r="4" class="hover-dot"><title>Mar 2026: 1,603 total (+282 this month)</title></circle>
    <rect x="750.0" y="29.8" width="140" height="20" rx="4" class="tooltip-bg"/>
    <text x="820.0" y="43.8" class="tooltip-text" text-anchor="middle">Mar 2026: 1,603 total (+282 this month)</text>
  </g>

  <circle cx="820.0" cy="55.8" r="4" class="dot"/>
  <text x="810.0" y="45.8" class="total">1,603</text>

</svg>