<svg xmlns="http://www.w3.org/2000/svg" width="840" height="180" viewBox="0 0 840 180" fill="none">
  <style>
    .label { font-family: -apple-system, BlinkMacSystemFont, 'Segoe UI', Helvetica, Arial, sans-serif; font-size: 10px; fill: #8b949e; }
    .title { font-family: -apple-system, BlinkMacSystemFont, 'Segoe UI', Helvetica, Arial, sans-serif; font-size: 11px; fill: #8b949e; font-weight: 600; }
    .total { font-family: -apple-system, BlinkMacSystemFont, 'Segoe UI', Helvetica, Arial, sans-serif; font-size: 11px; fill: #58a6ff; font-weight: 600; }
    .grid { stroke: #21262d; stroke-width: 1; }
    .line { stroke: #58a6ff; stroke-width: 2; stroke-linecap: round; stroke-linejoin: round; fill: none; }
    .dot { fill: #58a6ff; }
    .hover-dot { fill: #58a6ff; opacity: 0; cursor: pointer; transition: opacity 0.15s; }
    .hover-dot:hover { opacity: 1; }
    .hit { fill: transparent; cursor: pointer; }
    .hit:hover + .hover-dot { opacity: 1; }
    .area { fill: url(#areaGrad); }
  </style>
  <defs>
    <linearGradient id="areaGrad" x1="0" y1="0" x2="0" y2="1">
      <stop offset="0%" stop-color="#58a6ff" stop-opacity="0.15"/>
      <stop offset="100%" stop-color="#58a6ff" stop-opacity="0.01"/>
    </linearGradient>
  </defs>

  <text x="52" y="18" class="title">Cumulative Commits</text>

  <line x1="52" y1="148.0" x2="820" y2="148.0" class="grid"/>
  <text x="44" y="151.0" class="label" text-anchor="end">0</text>
  <line x1="52" y1="118.5" x2="820" y2="118.5" class="grid" stroke-dasharray="3,3"/>
  <text x="44" y="121.5" class="label" text-anchor="end">500</text>
  <line x1="52" y1="89.0" x2="820" y2="89.0" class="grid" stroke-dasharray="3,3"/>
  <text x="44" y="92.0" class="label" text-anchor="end">1,000</text>
  <line x1="52" y1="59.5" x2="820" y2="59.5" class="grid" stroke-dasharray="3,3"/>
  <text x="44" y="62.5" class="label" text-anchor="end">1,500</text>
  <line x1="52" y1="30.0" x2="820" y2="30.0" class="grid" stroke-dasharray="3,3"/>
  <text x="44" y="33.0" class="label" text-anchor="end">2,000</text>

  <text x="52.0" y="172" class="label" text-anchor="middle">2017</text>
  <text x="63.9" y="172" class="label" text-anchor="middle">2018</text>
  <text x="340.5" y="172" class="label" text-anchor="middle">2021</text>
  <text x="432.6" y="172" class="label" text-anchor="middle">2022</text>
  <text x="524.7" y="172" class="label" text-anchor="middle">2023</text>
  <text x="616.8" y="172" class="label" text-anchor="middle">2024</text>
  <text x="709.2" y="172" class="label" text-anchor="middle">2025</text>
  <text x="801.3" y="172" class="label" text-anchor="middle">2026</text>


  <path class="area" d="M52.0,148.0 L52.0,147.9 52.0,147.9 L52.3,147.9 L63.6,147.8 L64.4,147.8 L419.5,147.5 L419.7,147.4 L420.5,147.4 L432.6,147.2 L432.8,146.9 L433.1,146.8 L433.3,146.5 L433.6,146.5 L433.9,146.3 L434.4,146.1 L434.6,145.9 L434.9,145.8 L435.1,145.7 L436.1,145.5 L436.4,145.5 L436.6,145.4 L439.2,145.3 L445.7,145.2 L480.3,145.1 L480.5,144.6 L481.6,144.5 L482.1,144.0 L485.8,143.9 L486.4,143.8 L486.6,143.6 L486.9,143.5 L487.4,143.3 L487.6,142.9 L487.9,142.3 L488.1,142.2 L489.1,142.0 L489.6,141.9 L490.9,141.8 L494.4,141.6 L501.2,141.4 L505.0,141.3 L506.8,141.3 L507.0,141.2 L507.3,141.0 L507.6,140.7 L508.3,140.3 L508.6,140.3 L508.8,140.2 L509.8,140.0 L510.1,139.7 L510.3,139.6 L510.6,139.0 L510.8,138.6 L511.1,138.4 L511.3,138.3 L511.8,138.1 L512.9,138.0 L515.6,137.9 L522.9,137.8 L523.2,137.5 L523.5,137.4 L526.0,136.9 L526.2,135.6 L527.0,135.4 L527.2,135.3 L528.5,135.1 L537.1,134.9 L537.3,134.8 L537.6,134.7 L538.1,134.5 L539.9,134.3 L540.4,134.0 L540.6,133.9 L541.9,133.8 L547.9,133.6 L672.1,133.5 L672.6,133.4 L673.1,133.4 L673.6,133.2 L673.9,133.1 L674.1,133.1 L674.4,133.0 L674.6,133.0 L677.2,132.9 L684.2,132.8 L686.2,132.8 L687.0,132.7 L688.5,132.7 L690.0,132.6 L690.3,132.5 L691.3,132.5 L692.0,132.4 L692.5,132.4 L711.2,132.3 L711.5,132.2 L712.0,132.1 L712.2,132.1 L713.0,131.9 L714.3,131.8 L717.8,131.7 L725.1,131.2 L725.4,130.9 L728.6,130.8 L728.9,130.7 L729.6,130.6 L730.7,130.4 L731.9,129.8 L732.2,128.1 L732.4,128.1 L733.9,127.9 L734.7,127.9 L734.9,127.8 L735.5,127.6 L737.5,127.5 L739.2,127.1 L740.5,126.6 L740.8,126.5 L741.5,126.2 L741.8,125.4 L742.0,125.3 L742.3,125.0 L742.5,124.8 L742.8,124.5 L743.3,124.0 L744.0,123.7 L753.1,123.5 L753.6,122.7 L759.2,122.5 L762.5,122.3 L764.0,122.2 L764.2,122.2 L765.7,122.1 L766.0,122.0 L766.2,122.0 L766.5,121.8 L766.7,121.6 L767.0,121.0 L767.3,120.9 L768.8,120.0 L769.0,119.9 L769.5,119.7 L771.3,119.4 L771.8,119.4 L772.0,119.2 L772.6,119.1 L772.8,118.7 L773.1,118.6 L773.6,118.5 L773.8,118.4 L774.1,118.3 L774.3,118.3 L775.3,117.9 L775.6,117.8 L775.8,117.6 L776.1,117.6 L776.3,117.4 L776.6,117.3 L777.3,117.0 L777.6,116.8 L777.9,116.7 L778.1,116.6 L778.4,116.2 L778.9,116.1 L779.1,115.5 L779.4,115.1 L779.6,114.0 L779.9,113.7 L780.1,113.4 L780.4,112.8 L780.6,112.7 L780.9,112.5 L781.1,112.5 L781.4,112.1 L782.6,111.4 L782.9,111.3 L783.2,110.7 L783.4,109.7 L783.7,109.7 L784.2,109.5 L784.4,108.6 L784.7,108.2 L784.9,108.1 L785.2,107.2 L785.7,106.9 L785.9,106.8 L786.2,106.7 L786.4,106.6 L786.7,106.6 L786.9,106.5 L787.9,106.3 L788.5,106.3 L788.7,105.9 L789.0,105.6 L789.7,105.5 L791.0,105.4 L792.5,105.2 L792.7,105.0 L793.0,105.0 L793.2,104.6 L793.5,103.8 L793.8,103.8 L794.0,103.7 L794.3,103.6 L794.5,103.4 L794.8,102.9 L797.5,102.8 L797.8,102.7 L800.1,102.3 L800.6,101.9 L800.8,101.8 L801.1,101.6 L801.3,101.4 L802.1,101.3 L802.3,100.4 L802.6,98.3 L802.8,96.4 L803.1,96.4 L803.3,96.1 L803.8,95.8 L804.1,95.6 L804.4,95.2 L804.9,95.1 L805.1,94.5 L805.4,94.5 L805.9,93.7 L806.1,93.6 L806.4,93.1 L806.6,92.8 L806.9,92.5 L807.1,92.4 L807.9,91.9 L808.1,91.6 L808.4,90.2 L808.6,88.2 L808.9,87.5 L809.1,86.6 L809.4,86.5 L809.7,86.2 L809.9,85.9 L810.2,85.5 L810.4,84.8 L810.7,84.8 L810.9,84.3 L811.2,84.2 L811.4,83.7 L811.7,83.3 L811.9,82.8 L812.2,82.3 L812.4,82.1 L812.7,81.9 L812.9,80.9 L813.2,79.1 L813.4,78.9 L813.9,78.5 L814.2,78.3 L814.4,78.2 L814.7,75.4 L815.0,74.0 L815.2,72.7 L815.5,72.2 L815.7,70.1 L816.0,69.8 L816.2,69.7 L816.5,69.2 L816.7,68.3 L817.0,66.4 L817.2,64.4 L817.5,64.3 L817.7,63.9 L818.2,63.8 L818.5,62.6 L818.7,61.7 L819.0,60.4 L819.2,60.3 L819.5,60.2 L819.7,58.6 L820.0,58.4 L820.0,148.0 Z"/>
  <polyline class="line" points="52.0,147.9 52.3,147.9 63.6,147.8 64.4,147.8 419.5,147.5 419.7,147.4 420.5,147.4 432.6,147.2 432.8,146.9 433.1,146.8 433.3,146.5 433.6,146.5 433.9,146.3 434.4,146.1 434.6,145.9 434.9,145.8 435.1,145.7 436.1,145.5 436.4,145.5 436.6,145.4 439.2,145.3 445.7,145.2 480.3,145.1 480.5,144.6 481.6,144.5 482.1,144.0 485.8,143.9 486.4,143.8 486.6,143.6 486.9,143.5 487.4,143.3 487.6,142.9 487.9,142.3 488.1,142.2 489.1,142.0 489.6,141.9 490.9,141.8 494.4,141.6 501.2,141.4 505.0,141.3 506.8,141.3 507.0,141.2 507.3,141.0 507.6,140.7 508.3,140.3 508.6,140.3 508.8,140.2 509.8,140.0 510.1,139.7 510.3,139.6 510.6,139.0 510.8,138.6 511.1,138.4 511.3,138.3 511.8,138.1 512.9,138.0 515.6,137.9 522.9,137.8 523.2,137.5 523.5,137.4 526.0,136.9 526.2,135.6 527.0,135.4 527.2,135.3 528.5,135.1 537.1,134.9 537.3,134.8 537.6,134.7 538.1,134.5 539.9,134.3 540.4,134.0 540.6,133.9 541.9,133.8 547.9,133.6 672.1,133.5 672.6,133.4 673.1,133.4 673.6,133.2 673.9,133.1 674.1,133.1 674.4,133.0 674.6,133.0 677.2,132.9 684.2,132.8 686.2,132.8 687.0,132.7 688.5,132.7 690.0,132.6 690.3,132.5 691.3,132.5 692.0,132.4 692.5,132.4 711.2,132.3 711.5,132.2 712.0,132.1 712.2,132.1 713.0,131.9 714.3,131.8 717.8,131.7 725.1,131.2 725.4,130.9 728.6,130.8 728.9,130.7 729.6,130.6 730.7,130.4 731.9,129.8 732.2,128.1 732.4,128.1 733.9,127.9 734.7,127.9 734.9,127.8 735.5,127.6 737.5,127.5 739.2,127.1 740.5,126.6 740.8,126.5 741.5,126.2 741.8,125.4 742.0,125.3 742.3,125.0 742.5,124.8 742.8,124.5 743.3,124.0 744.0,123.7 753.1,123.5 753.6,122.7 759.2,122.5 762.5,122.3 764.0,122.2 764.2,122.2 765.7,122.1 766.0,122.0 766.2,122.0 766.5,121.8 766.7,121.6 767.0,121.0 767.3,120.9 768.8,120.0 769.0,119.9 769.5,119.7 771.3,119.4 771.8,119.4 772.0,119.2 772.6,119.1 772.8,118.7 773.1,118.6 773.6,118.5 773.8,118.4 774.1,118.3 774.3,118.3 775.3,117.9 775.6,117.8 775.8,117.6 776.1,117.6 776.3,117.4 776.6,117.3 777.3,117.0 777.6,116.8 777.9,116.7 778.1,116.6 778.4,116.2 778.9,116.1 779.1,115.5 779.4,115.1 779.6,114.0 779.9,113.7 780.1,113.4 780.4,112.8 780.6,112.7 780.9,112.5 781.1,112.5 781.4,112.1 782.6,111.4 782.9,111.3 783.2,110.7 783.4,109.7 783.7,109.7 784.2,109.5 784.4,108.6 784.7,108.2 784.9,108.1 785.2,107.2 785.7,106.9 785.9,106.8 786.2,106.7 786.4,106.6 786.7,106.6 786.9,106.5 787.9,106.3 788.5,106.3 788.7,105.9 789.0,105.6 789.7,105.5 791.0,105.4 792.5,105.2 792.7,105.0 793.0,105.0 793.2,104.6 793.5,103.8 793.8,103.8 794.0,103.7 794.3,103.6 794.5,103.4 794.8,102.9 797.5,102.8 797.8,102.7 800.1,102.3 800.6,101.9 800.8,101.8 801.1,101.6 801.3,101.4 802.1,101.3 802.3,100.4 802.6,98.3 802.8,96.4 803.1,96.4 803.3,96.1 803.8,95.8 804.1,95.6 804.4,95.2 804.9,95.1 805.1,94.5 805.4,94.5 805.9,93.7 806.1,93.6 806.4,93.1 806.6,92.8 806.9,92.5 807.1,92.4 807.9,91.9 808.1,91.6 808.4,90.2 808.6,88.2 808.9,87.5 809.1,86.6 809.4,86.5 809.7,86.2 809.9,85.9 810.2,85.5 810.4,84.8 810.7,84.8 810.9,84.3 811.2,84.2 811.4,83.7 811.7,83.3 811.9,82.8 812.2,82.3 812.4,82.1 812.7,81.9 812.9,80.9 813.2,79.1 813.4,78.9 813.9,78.5 814.2,78.3 814.4,78.2 814.7,75.4 815.0,74.0 815.2,72.7 815.5,72.2 815.7,70.1 816.0,69.8 816.2,69.7 816.5,69.2 816.7,68.3 817.0,66.4 817.2,64.4 817.5,64.3 817.7,63.9 818.2,63.8 818.5,62.6 818.7,61.7 819.0,60.4 819.2,60.3 819.5,60.2 819.7,58.6 820.0,58.4"/>

  <circle cx="52.0" cy="147.9" r="10" class="hit"/>
  <circle cx="52.0" cy="147.9" r="3" class="hover-dot">
    <title>Nov 15, 2017 — 1 commits</title>
  </circle>
  <circle cx="52.3" cy="147.9" r="10" class="hit"/>
  <circle cx="52.3" cy="147.9" r="3" class="hover-dot">
    <title>Nov 16, 2017 — 2 commits</title>
  </circle>
  <circle cx="63.6" cy="147.8" r="10" class="hit"/>
  <circle cx="63.6" cy="147.8" r="3" class="hover-dot">
    <title>Dec 31, 2017 — 3 commits</title>
  </circle>
  <circle cx="64.4" cy="147.8" r="10" class="hit"/>
  <circle cx="64.4" cy="147.8" r="3" class="hover-dot">
    <title>Jan 03, 2018 — 4 commits</title>
  </circle>
  <circle cx="420.5" cy="147.4" r="10" class="hit"/>
  <circle cx="420.5" cy="147.4" r="3" class="hover-dot">
    <title>Nov 14, 2021 — 11 commits</title>
  </circle>
  <circle cx="439.2" cy="145.3" r="10" class="hit"/>
  <circle cx="439.2" cy="145.3" r="3" class="hover-dot">
    <title>Jan 27, 2022 — 45 commits</title>
  </circle>
  <circle cx="445.7" cy="145.2" r="10" class="hit"/>
  <circle cx="445.7" cy="145.2" r="3" class="hover-dot">
    <title>Feb 22, 2022 — 48 commits</title>
  </circle>
  <circle cx="485.8" cy="143.9" r="10" class="hit"/>
  <circle cx="485.8" cy="143.9" r="3" class="hover-dot">
    <title>Jul 31, 2022 — 69 commits</title>
  </circle>
  <circle cx="490.9" cy="141.8" r="10" class="hit"/>
  <circle cx="490.9" cy="141.8" r="3" class="hover-dot">
    <title>Aug 20, 2022 — 105 commits</title>
  </circle>
  <circle cx="501.2" cy="141.4" r="10" class="hit"/>
  <circle cx="501.2" cy="141.4" r="3" class="hover-dot">
    <title>Sep 30, 2022 — 112 commits</title>
  </circle>
  <circle cx="508.8" cy="140.2" r="10" class="hit"/>
  <circle cx="508.8" cy="140.2" r="3" class="hover-dot">
    <title>Oct 30, 2022 — 132 commits</title>
  </circle>
  <circle cx="515.6" cy="137.9" r="10" class="hit"/>
  <circle cx="515.6" cy="137.9" r="3" class="hover-dot">
    <title>Nov 26, 2022 — 172 commits</title>
  </circle>
  <circle cx="523.5" cy="137.4" r="10" class="hit"/>
  <circle cx="523.5" cy="137.4" r="3" class="hover-dot">
    <title>Dec 27, 2022 — 179 commits</title>
  </circle>
  <circle cx="528.5" cy="135.1" r="10" class="hit"/>
  <circle cx="528.5" cy="135.1" r="3" class="hover-dot">
    <title>Jan 16, 2023 — 218 commits</title>
  </circle>
  <circle cx="538.1" cy="134.5" r="10" class="hit"/>
  <circle cx="538.1" cy="134.5" r="3" class="hover-dot">
    <title>Feb 23, 2023 — 229 commits</title>
  </circle>
  <circle cx="541.9" cy="133.8" r="10" class="hit"/>
  <circle cx="541.9" cy="133.8" r="3" class="hover-dot">
    <title>Mar 10, 2023 — 241 commits</title>
  </circle>
  <circle cx="547.9" cy="133.6" r="10" class="hit"/>
  <circle cx="547.9" cy="133.6" r="3" class="hover-dot">
    <title>Apr 03, 2023 — 244 commits</title>
  </circle>
  <circle cx="677.2" cy="132.9" r="10" class="hit"/>
  <circle cx="677.2" cy="132.9" r="3" class="hover-dot">
    <title>Aug 27, 2024 — 256 commits</title>
  </circle>
  <circle cx="684.2" cy="132.8" r="10" class="hit"/>
  <circle cx="684.2" cy="132.8" r="3" class="hover-dot">
    <title>Sep 24, 2024 — 257 commits</title>
  </circle>
  <circle cx="692.5" cy="132.4" r="10" class="hit"/>
  <circle cx="692.5" cy="132.4" r="3" class="hover-dot">
    <title>Oct 27, 2024 — 265 commits</title>
  </circle>
  <circle cx="714.3" cy="131.8" r="10" class="hit"/>
  <circle cx="714.3" cy="131.8" r="3" class="hover-dot">
    <title>Jan 21, 2025 — 274 commits</title>
  </circle>
  <circle cx="717.8" cy="131.7" r="10" class="hit"/>
  <circle cx="717.8" cy="131.7" r="3" class="hover-dot">
    <title>Feb 04, 2025 — 276 commits</title>
  </circle>
  <circle cx="730.7" cy="130.4" r="10" class="hit"/>
  <circle cx="730.7" cy="130.4" r="3" class="hover-dot">
    <title>Mar 27, 2025 — 298 commits</title>
  </circle>
  <circle cx="739.2" cy="127.1" r="10" class="hit"/>
  <circle cx="739.2" cy="127.1" r="3" class="hover-dot">
    <title>Apr 30, 2025 — 355 commits</title>
  </circle>
  <circle cx="744.0" cy="123.7" r="10" class="hit"/>
  <circle cx="744.0" cy="123.7" r="3" class="hover-dot">
    <title>May 19, 2025 — 412 commits</title>
  </circle>
  <circle cx="753.6" cy="122.7" r="10" class="hit"/>
  <circle cx="753.6" cy="122.7" r="3" class="hover-dot">
    <title>Jun 26, 2025 — 428 commits</title>
  </circle>
  <circle cx="762.5" cy="122.3" r="10" class="hit"/>
  <circle cx="762.5" cy="122.3" r="3" class="hover-dot">
    <title>Jul 31, 2025 — 436 commits</title>
  </circle>
  <circle cx="769.5" cy="119.7" r="10" class="hit"/>
  <circle cx="769.5" cy="119.7" r="3" class="hover-dot">
    <title>Aug 28, 2025 — 479 commits</title>
  </circle>
  <circle cx="777.9" cy="116.7" r="10" class="hit"/>
  <circle cx="777.9" cy="116.7" r="3" class="hover-dot">
    <title>Sep 30, 2025 — 530 commits</title>
  </circle>
  <circle cx="785.7" cy="106.9" r="10" class="hit"/>
  <circle cx="785.7" cy="106.9" r="3" class="hover-dot">
    <title>Oct 31, 2025 — 696 commits</title>
  </circle>
  <circle cx="793.2" cy="104.6" r="10" class="hit"/>
  <circle cx="793.2" cy="104.6" r="3" class="hover-dot">
    <title>Nov 30, 2025 — 735 commits</title>
  </circle>
  <circle cx="801.1" cy="101.6" r="10" class="hit"/>
  <circle cx="801.1" cy="101.6" r="3" class="hover-dot">
    <title>Dec 31, 2025 — 787 commits</title>
  </circle>
  <circle cx="808.9" cy="87.5" r="10" class="hit"/>
  <circle cx="808.9" cy="87.5" r="3" class="hover-dot">
    <title>Jan 31, 2026 — 1,026 commits</title>
  </circle>
  <circle cx="816.0" cy="69.8" r="10" class="hit"/>
  <circle cx="816.0" cy="69.8" r="3" class="hover-dot">
    <title>Feb 28, 2026 — 1,325 commits</title>
  </circle>
  <circle cx="820.0" cy="58.4" r="10" class="hit"/>
  <circle cx="820.0" cy="58.4" r="3" class="hover-dot">
    <title>Mar 16, 2026 — 1,518 commits</title>
  </circle>

  <circle cx="820.0" cy="58.4" r="3.5" class="dot"/>
  <text x="810.0" y="48.4" class="total">1,518</text>

</svg>