<svg xmlns="http://www.w3.org/2000/svg" width="840" height="196" viewBox="0 0 840 196" fill="none">
  <style>
    .label { font-family: -apple-system, BlinkMacSystemFont, 'Segoe UI', Helvetica, Arial, sans-serif; font-size: 10px; fill: #8b949e; }
    .title { font-family: -apple-system, BlinkMacSystemFont, 'Segoe UI', Helvetica, Arial, sans-serif; font-size: 11px; fill: #8b949e; font-weight: 600; }
    .total { font-family: -apple-system, BlinkMacSystemFont, 'Segoe UI', Helvetica, Arial, sans-serif; font-size: 11px; fill: #7ee787; font-weight: 600; }
    .grid { stroke: #21262d; stroke-width: 1; }
    .line { stroke: #7ee787; stroke-width: 2; stroke-linecap: round; stroke-linejoin: round; fill: none; }
    .dot { fill: #7ee787; }
    .area { fill: url(#areaGrad); }
    /* Hover interaction */
    .hoverpoint .guide { stroke: #7ee787; stroke-width: 1; stroke-dasharray: 2,2; opacity: 0; }
    .hoverpoint .hover-dot { fill: #7ee787; opacity: 0; }
    .hoverpoint .hit { fill: transparent; cursor: pointer; }
    .hoverpoint .tooltip-bg { fill: #161b22; stroke: #30363d; stroke-width: 1; opacity: 0; }
    .hoverpoint .tooltip-text { font-family: -apple-system, BlinkMacSystemFont, 'Segoe UI', Helvetica, Arial, sans-serif; font-size: 9px; fill: #c9d1d9; opacity: 0; }
    .hoverpoint:hover .guide { opacity: 0.5; }
    .hoverpoint:hover .hover-dot { opacity: 1; }
    .hoverpoint:hover .tooltip-bg { opacity: 0.95; }
    .hoverpoint:hover .tooltip-text { opacity: 1; }
  </style>
  <defs>
    <linearGradient id="areaGrad" x1="0" y1="0" x2="0" y2="1">
      <stop offset="0%" stop-color="#7ee787" stop-opacity="0.15"/>
      <stop offset="100%" stop-color="#7ee787" stop-opacity="0.01"/>
    </linearGradient>
  </defs>

  <text x="60" y="18" class="title">Cumulative Commits</text>

  <line x1="60" y1="160.0" x2="820" y2="160.0" class="grid"/>
  <text x="50" y="163.0" class="label" text-anchor="end">0</text>
  <line x1="60" y1="127.5" x2="820" y2="127.5" class="grid" stroke-dasharray="3,3"/>
  <text x="50" y="130.5" class="label" text-anchor="end">750</text>
  <line x1="60" y1="95.0" x2="820" y2="95.0" class="grid" stroke-dasharray="3,3"/>
  <text x="50" y="98.0" class="label" text-anchor="end">1,500</text>
  <line x1="60" y1="62.5" x2="820" y2="62.5" class="grid" stroke-dasharray="3,3"/>
  <text x="50" y="65.5" class="label" text-anchor="end">2,250</text>
  <line x1="60" y1="30.0" x2="820" y2="30.0" class="grid" stroke-dasharray="3,3"/>
  <text x="50" y="33.0" class="label" text-anchor="end">3,000</text>

  <text x="70.0" y="186" class="label" text-anchor="middle">2021</text>
  <text x="200.0" y="186" class="label" text-anchor="middle">2022</text>
  <text x="339.9" y="186" class="label" text-anchor="middle">2023</text>
  <text x="479.9" y="186" class="label" text-anchor="middle">2024</text>
  <text x="620.2" y="186" class="label" text-anchor="middle">2025</text>
  <text x="760.2" y="186" class="label" text-anchor="middle">2026</text>


  <path class="area" d="M60.0,160.0 L60.0,160.0 60.0,160.0 L180.0,159.8 L180.4,159.7 L181.6,159.7 L200.0,159.6 L200.3,159.3 L200.7,159.3 L201.1,159.1 L201.5,159.0 L201.9,159.0 L202.6,158.7 L203.0,158.6 L203.4,158.5 L203.8,158.5 L205.3,158.4 L205.7,158.3 L206.1,158.3 L209.9,158.2 L219.9,158.1 L272.4,158.1 L272.8,157.7 L274.3,157.6 L275.1,157.3 L280.9,157.2 L281.6,157.1 L282.0,156.9 L282.4,156.9 L283.2,156.8 L283.6,156.4 L283.9,156.0 L284.3,155.9 L285.9,155.8 L286.6,155.7 L288.5,155.6 L293.9,155.4 L304.3,155.3 L310.0,155.3 L312.7,155.2 L313.1,155.1 L313.5,155.0 L313.8,154.8 L315.0,154.5 L315.4,154.5 L315.8,154.5 L317.3,154.3 L317.7,154.1 L318.1,154.0 L318.4,153.6 L318.8,153.2 L319.2,153.1 L319.6,153.0 L320.4,152.9 L321.9,152.8 L326.1,152.7 L337.2,152.7 L337.6,152.5 L338.0,152.4 L341.8,152.0 L342.2,151.0 L343.4,150.9 L343.8,150.9 L345.7,150.7 L358.7,150.6 L359.1,150.5 L359.5,150.4 L360.2,150.2 L362.9,150.1 L363.7,149.9 L364.1,149.8 L366.0,149.7 L375.2,149.6 L563.9,149.5 L564.6,149.5 L565.4,149.4 L566.2,149.3 L566.5,149.3 L566.9,149.2 L567.3,149.2 L567.7,149.1 L571.5,149.1 L582.3,149.0 L585.3,149.0 L586.5,148.9 L588.8,148.9 L591.1,148.9 L591.5,148.8 L593.0,148.8 L594.1,148.7 L594.9,148.7 L623.3,148.6 L623.7,148.6 L624.4,148.5 L624.8,148.5 L626.0,148.3 L627.9,148.3 L633.3,148.2 L644.4,147.8 L644.8,147.7 L649.7,147.6 L650.1,147.5 L651.3,147.4 L652.8,147.3 L654.7,146.8 L655.1,145.6 L655.5,145.5 L657.8,145.4 L659.0,145.4 L659.3,145.4 L660.1,145.2 L663.2,145.1 L665.9,144.8 L667.8,144.5 L668.2,144.4 L669.3,144.1 L669.7,143.6 L670.1,143.5 L670.5,143.3 L670.8,143.1 L671.2,142.9 L672.0,142.6 L673.1,142.3 L686.9,142.2 L687.7,141.6 L696.1,141.5 L701.1,141.3 L703.4,141.2 L703.8,141.2 L706.1,141.2 L706.5,141.1 L706.9,141.1 L707.3,140.9 L707.6,140.8 L708.0,140.3 L708.4,140.2 L710.7,139.6 L711.1,139.5 L711.9,139.4 L714.6,139.2 L715.3,139.2 L715.7,139.0 L716.5,139.0 L716.9,138.7 L717.2,138.6 L718.0,138.5 L718.4,138.4 L718.8,138.4 L719.2,138.3 L720.7,138.1 L721.1,138.0 L721.5,137.9 L721.8,137.8 L722.2,137.7 L722.6,137.6 L723.8,137.4 L724.1,137.3 L724.5,137.2 L724.9,137.1 L725.3,136.8 L726.1,136.7 L726.4,136.3 L726.8,136.0 L727.2,135.2 L727.6,135.0 L728.0,134.8 L728.4,134.3 L728.7,134.3 L729.1,134.1 L729.5,134.1 L729.9,133.8 L731.8,133.3 L732.2,133.2 L732.6,132.8 L733.0,132.1 L733.3,132.0 L734.1,131.9 L734.5,131.3 L734.9,130.9 L735.3,130.9 L735.6,130.2 L736.4,130.0 L736.8,129.9 L737.2,129.8 L737.6,129.8 L737.9,129.8 L738.3,129.7 L739.9,129.6 L740.6,129.5 L741.0,129.2 L741.4,129.0 L742.5,129.0 L744.5,128.9 L746.8,128.7 L747.1,128.6 L747.5,128.6 L747.9,128.3 L748.3,127.7 L748.7,127.7 L749.1,127.6 L749.4,127.5 L749.8,127.4 L750.2,127.1 L754.4,127.0 L754.8,126.9 L758.3,126.6 L759.0,126.3 L759.4,126.2 L759.8,126.1 L760.2,126.0 L761.3,125.9 L761.7,125.2 L762.1,123.7 L762.5,122.3 L762.9,122.3 L763.2,122.1 L764.0,121.9 L764.4,121.7 L764.8,121.4 L765.5,121.3 L765.9,120.9 L766.3,120.9 L767.1,120.3 L767.5,120.2 L767.9,119.9 L768.2,119.7 L768.6,119.4 L769.0,119.4 L770.2,119.0 L770.5,118.7 L770.9,117.7 L771.3,116.3 L771.7,115.7 L772.1,115.1 L772.5,115.0 L772.8,114.8 L773.2,114.6 L773.6,114.2 L774.0,113.8 L774.4,113.7 L774.8,113.4 L775.1,113.3 L775.5,113.0 L775.9,112.6 L776.3,112.3 L776.7,111.9 L777.1,111.8 L777.4,111.6 L777.8,110.9 L778.2,109.6 L778.6,109.4 L779.4,109.1 L779.7,109.0 L780.1,108.9 L780.5,106.8 L780.9,105.8 L781.3,104.9 L781.7,104.5 L782.0,102.9 L782.4,102.8 L782.8,102.7 L783.2,102.3 L783.6,101.6 L784.0,100.2 L784.3,98.8 L784.7,98.7 L785.1,98.4 L785.9,98.3 L786.3,97.5 L786.6,96.8 L787.0,95.9 L787.4,95.7 L787.8,95.7 L788.2,94.3 L788.6,92.6 L788.9,91.9 L789.3,91.5 L789.7,91.1 L790.1,90.7 L790.5,90.7 L791.2,90.5 L791.6,90.2 L792.0,90.1 L792.4,90.1 L792.8,90.0 L793.9,90.0 L794.3,89.9 L795.1,89.8 L795.8,89.8 L796.2,89.7 L797.0,89.1 L797.4,88.8 L797.8,88.4 L800.1,88.3 L800.4,88.0 L800.8,87.9 L801.2,87.5 L801.6,87.5 L802.0,87.4 L802.4,87.3 L802.7,86.7 L803.1,86.0 L803.5,85.8 L803.9,84.5 L804.3,84.3 L805.0,84.3 L805.4,84.2 L806.6,83.8 L807.0,83.3 L807.3,83.0 L807.7,82.7 L808.1,81.7 L808.5,78.0 L808.9,76.4 L809.3,76.1 L809.6,75.8 L810.0,75.2 L810.4,75.1 L810.8,69.9 L811.2,63.5 L811.6,61.6 L811.9,61.5 L812.3,60.6 L812.7,59.8 L813.1,56.0 L813.5,53.6 L813.9,50.1 L814.2,49.3 L814.6,49.2 L815.0,49.1 L815.4,47.9 L815.8,46.1 L816.2,42.1 L816.5,41.5 L816.9,40.7 L817.3,39.5 L817.7,38.9 L818.1,38.5 L818.5,36.8 L818.8,36.2 L819.2,36.1 L819.6,35.8 L820.0,35.6 L820.0,160.0 Z"/>
  <polyline class="line" points="60.0,160.0 180.0,159.8 180.4,159.7 181.6,159.7 200.0,159.6 200.3,159.3 200.7,159.3 201.1,159.1 201.5,159.0 201.9,159.0 202.6,158.7 203.0,158.6 203.4,158.5 203.8,158.5 205.3,158.4 205.7,158.3 206.1,158.3 209.9,158.2 219.9,158.1 272.4,158.1 272.8,157.7 274.3,157.6 275.1,157.3 280.9,157.2 281.6,157.1 282.0,156.9 282.4,156.9 283.2,156.8 283.6,156.4 283.9,156.0 284.3,155.9 285.9,155.8 286.6,155.7 288.5,155.6 293.9,155.4 304.3,155.3 310.0,155.3 312.7,155.2 313.1,155.1 313.5,155.0 313.8,154.8 315.0,154.5 315.4,154.5 315.8,154.5 317.3,154.3 317.7,154.1 318.1,154.0 318.4,153.6 318.8,153.2 319.2,153.1 319.6,153.0 320.4,152.9 321.9,152.8 326.1,152.7 337.2,152.7 337.6,152.5 338.0,152.4 341.8,152.0 342.2,151.0 343.4,150.9 343.8,150.9 345.7,150.7 358.7,150.6 359.1,150.5 359.5,150.4 360.2,150.2 362.9,150.1 363.7,149.9 364.1,149.8 366.0,149.7 375.2,149.6 563.9,149.5 564.6,149.5 565.4,149.4 566.2,149.3 566.5,149.3 566.9,149.2 567.3,149.2 567.7,149.1 571.5,149.1 582.3,149.0 585.3,149.0 586.5,148.9 588.8,148.9 591.1,148.9 591.5,148.8 593.0,148.8 594.1,148.7 594.9,148.7 623.3,148.6 623.7,148.6 624.4,148.5 624.8,148.5 626.0,148.3 627.9,148.3 633.3,148.2 644.4,147.8 644.8,147.7 649.7,147.6 650.1,147.5 651.3,147.4 652.8,147.3 654.7,146.8 655.1,145.6 655.5,145.5 657.8,145.4 659.0,145.4 659.3,145.4 660.1,145.2 663.2,145.1 665.9,144.8 667.8,144.5 668.2,144.4 669.3,144.1 669.7,143.6 670.1,143.5 670.5,143.3 670.8,143.1 671.2,142.9 672.0,142.6 673.1,142.3 686.9,142.2 687.7,141.6 696.1,141.5 701.1,141.3 703.4,141.2 703.8,141.2 706.1,141.2 706.5,141.1 706.9,141.1 707.3,140.9 707.6,140.8 708.0,140.3 708.4,140.2 710.7,139.6 711.1,139.5 711.9,139.4 714.6,139.2 715.3,139.2 715.7,139.0 716.5,139.0 716.9,138.7 717.2,138.6 718.0,138.5 718.4,138.4 718.8,138.4 719.2,138.3 720.7,138.1 721.1,138.0 721.5,137.9 721.8,137.8 722.2,137.7 722.6,137.6 723.8,137.4 724.1,137.3 724.5,137.2 724.9,137.1 725.3,136.8 726.1,136.7 726.4,136.3 726.8,136.0 727.2,135.2 727.6,135.0 728.0,134.8 728.4,134.3 728.7,134.3 729.1,134.1 729.5,134.1 729.9,133.8 731.8,133.3 732.2,133.2 732.6,132.8 733.0,132.1 733.3,132.0 734.1,131.9 734.5,131.3 734.9,130.9 735.3,130.9 735.6,130.2 736.4,130.0 736.8,129.9 737.2,129.8 737.6,129.8 737.9,129.8 738.3,129.7 739.9,129.6 740.6,129.5 741.0,129.2 741.4,129.0 742.5,129.0 744.5,128.9 746.8,128.7 747.1,128.6 747.5,128.6 747.9,128.3 748.3,127.7 748.7,127.7 749.1,127.6 749.4,127.5 749.8,127.4 750.2,127.1 754.4,127.0 754.8,126.9 758.3,126.6 759.0,126.3 759.4,126.2 759.8,126.1 760.2,126.0 761.3,125.9 761.7,125.2 762.1,123.7 762.5,122.3 762.9,122.3 763.2,122.1 764.0,121.9 764.4,121.7 764.8,121.4 765.5,121.3 765.9,120.9 766.3,120.9 767.1,120.3 767.5,120.2 767.9,119.9 768.2,119.7 768.6,119.4 769.0,119.4 770.2,119.0 770.5,118.7 770.9,117.7 771.3,116.3 771.7,115.7 772.1,115.1 772.5,115.0 772.8,114.8 773.2,114.6 773.6,114.2 774.0,113.8 774.4,113.7 774.8,113.4 775.1,113.3 775.5,113.0 775.9,112.6 776.3,112.3 776.7,111.9 777.1,111.8 777.4,111.6 777.8,110.9 778.2,109.6 778.6,109.4 779.4,109.1 779.7,109.0 780.1,108.9 780.5,106.8 780.9,105.8 781.3,104.9 781.7,104.5 782.0,102.9 782.4,102.8 782.8,102.7 783.2,102.3 783.6,101.6 784.0,100.2 784.3,98.8 784.7,98.7 785.1,98.4 785.9,98.3 786.3,97.5 786.6,96.8 787.0,95.9 787.4,95.7 787.8,95.7 788.2,94.3 788.6,92.6 788.9,91.9 789.3,91.5 789.7,91.1 790.1,90.7 790.5,90.7 791.2,90.5 791.6,90.2 792.0,90.1 792.4,90.1 792.8,90.0 793.9,90.0 794.3,89.9 795.1,89.8 795.8,89.8 796.2,89.7 797.0,89.1 797.4,88.8 797.8,88.4 800.1,88.3 800.4,88.0 800.8,87.9 801.2,87.5 801.6,87.5 802.0,87.4 802.4,87.3 802.7,86.7 803.1,86.0 803.5,85.8 803.9,84.5 804.3,84.3 805.0,84.3 805.4,84.2 806.6,83.8 807.0,83.3 807.3,83.0 807.7,82.7 808.1,81.7 808.5,78.0 808.9,76.4 809.3,76.1 809.6,75.8 810.0,75.2 810.4,75.1 810.8,69.9 811.2,63.5 811.6,61.6 811.9,61.5 812.3,60.6 812.7,59.8 813.1,56.0 813.5,53.6 813.9,50.1 814.2,49.3 814.6,49.2 815.0,49.1 815.4,47.9 815.8,46.1 816.2,42.1 816.5,41.5 816.9,40.7 817.3,39.5 817.7,38.9 818.1,38.5 818.5,36.8 818.8,36.2 819.2,36.1 819.6,35.8 820.0,35.6"/>

  <g class="hoverpoint">
    <line x1="181.6" y1="30" x2="181.6" y2="160.0" class="guide"/>
    <circle cx="181.6" cy="159.7" r="16" class="hit"/>
    <circle cx="181.6" cy="159.7" r="4" class="hover-dot"><title>Nov 2021: 7 total (+7 this month)</title></circle>
    <rect x="111.6" y="133.7" width="140" height="20" rx="4" class="tooltip-bg"/>
    <text x="181.6" y="147.7" class="tooltip-text" text-anchor="middle">Nov 2021: 7 total (+7 this month)</text>
  </g>
  <g class="hoverpoint">
    <line x1="209.9" y1="30" x2="209.9" y2="160.0" class="guide"/>
    <circle cx="209.9" cy="158.2" r="16" class="hit"/>
    <circle cx="209.9" cy="158.2" r="4" class="hover-dot"><title>Jan 2022: 41 total (+34 this month)</title></circle>
    <rect x="139.9" y="132.2" width="140" height="20" rx="4" class="tooltip-bg"/>
    <text x="209.9" y="146.2" class="tooltip-text" text-anchor="middle">Jan 2022: 41 total (+34 this month)</text>
  </g>
  <g class="hoverpoint">
    <line x1="219.9" y1="30" x2="219.9" y2="160.0" class="guide"/>
    <circle cx="219.9" cy="158.1" r="16" class="hit"/>
    <circle cx="219.9" cy="158.1" r="4" class="hover-dot"><title>Feb 2022: 44 total (+3 this month)</title></circle>
    <rect x="149.9" y="132.1" width="140" height="20" rx="4" class="tooltip-bg"/>
    <text x="219.9" y="146.1" class="tooltip-text" text-anchor="middle">Feb 2022: 44 total (+3 this month)</text>
  </g>
  <g class="hoverpoint">
    <line x1="280.9" y1="30" x2="280.9" y2="160.0" class="guide"/>
    <circle cx="280.9" cy="157.2" r="16" class="hit"/>
    <circle cx="280.9" cy="157.2" r="4" class="hover-dot"><title>Jul 2022: 65 total (+21 this month)</title></circle>
    <rect x="210.9" y="131.2" width="140" height="20" rx="4" class="tooltip-bg"/>
    <text x="280.9" y="145.2" class="tooltip-text" text-anchor="middle">Jul 2022: 65 total (+21 this month)</text>
  </g>
  <g class="hoverpoint">
    <line x1="288.5" y1="30" x2="288.5" y2="160.0" class="guide"/>
    <circle cx="288.5" cy="155.6" r="16" class="hit"/>
    <circle cx="288.5" cy="155.6" r="4" class="hover-dot"><title>Aug 2022: 101 total (+36 this month)</title></circle>
    <rect x="218.5" y="129.6" width="140" height="20" rx="4" class="tooltip-bg"/>
    <text x="288.5" y="143.6" class="tooltip-text" text-anchor="middle">Aug 2022: 101 total (+36 this month)</text>
  </g>
  <g class="hoverpoint">
    <line x1="304.3" y1="30" x2="304.3" y2="160.0" class="guide"/>
    <circle cx="304.3" cy="155.3" r="16" class="hit"/>
    <circle cx="304.3" cy="155.3" r="4" class="hover-dot"><title>Sep 2022: 108 total (+7 this month)</title></circle>
    <rect x="234.3" y="129.3" width="140" height="20" rx="4" class="tooltip-bg"/>
    <text x="304.3" y="143.3" class="tooltip-text" text-anchor="middle">Sep 2022: 108 total (+7 this month)</text>
  </g>
  <g class="hoverpoint">
    <line x1="315.8" y1="30" x2="315.8" y2="160.0" class="guide"/>
    <circle cx="315.8" cy="154.5" r="16" class="hit"/>
    <circle cx="315.8" cy="154.5" r="4" class="hover-dot"><title>Oct 2022: 128 total (+20 this month)</title></circle>
    <rect x="245.8" y="128.5" width="140" height="20" rx="4" class="tooltip-bg"/>
    <text x="315.8" y="142.5" class="tooltip-text" text-anchor="middle">Oct 2022: 128 total (+20 this month)</text>
  </g>
  <g class="hoverpoint">
    <line x1="326.1" y1="30" x2="326.1" y2="160.0" class="guide"/>
    <circle cx="326.1" cy="152.7" r="16" class="hit"/>
    <circle cx="326.1" cy="152.7" r="4" class="hover-dot"><title>Nov 2022: 168 total (+40 this month)</title></circle>
    <rect x="256.1" y="126.7" width="140" height="20" rx="4" class="tooltip-bg"/>
    <text x="326.1" y="140.7" class="tooltip-text" text-anchor="middle">Nov 2022: 168 total (+40 this month)</text>
  </g>
  <g class="hoverpoint">
    <line x1="338.0" y1="30" x2="338.0" y2="160.0" class="guide"/>
    <circle cx="338.0" cy="152.4" r="16" class="hit"/>
    <circle cx="338.0" cy="152.4" r="4" class="hover-dot"><title>Dec 2022: 175 total (+7 this month)</title></circle>
    <rect x="268.0" y="126.4" width="140" height="20" rx="4" class="tooltip-bg"/>
    <text x="338.0" y="140.4" class="tooltip-text" text-anchor="middle">Dec 2022: 175 total (+7 this month)</text>
  </g>
  <g class="hoverpoint">
    <line x1="345.7" y1="30" x2="345.7" y2="160.0" class="guide"/>
    <circle cx="345.7" cy="150.7" r="16" class="hit"/>
    <circle cx="345.7" cy="150.7" r="4" class="hover-dot"><title>Jan 2023: 214 total (+39 this month)</title></circle>
    <rect x="275.7" y="124.7" width="140" height="20" rx="4" class="tooltip-bg"/>
    <text x="345.7" y="138.7" class="tooltip-text" text-anchor="middle">Jan 2023: 214 total (+39 this month)</text>
  </g>
  <g class="hoverpoint">
    <line x1="360.2" y1="30" x2="360.2" y2="160.0" class="guide"/>
    <circle cx="360.2" cy="150.2" r="16" class="hit"/>
    <circle cx="360.2" cy="150.2" r="4" class="hover-dot"><title>Feb 2023: 225 total (+11 this month)</title></circle>
    <rect x="290.2" y="124.2" width="140" height="20" rx="4" class="tooltip-bg"/>
    <text x="360.2" y="138.2" class="tooltip-text" text-anchor="middle">Feb 2023: 225 total (+11 this month)</text>
  </g>
  <g class="hoverpoint">
    <line x1="366.0" y1="30" x2="366.0" y2="160.0" class="guide"/>
    <circle cx="366.0" cy="149.7" r="16" class="hit"/>
    <circle cx="366.0" cy="149.7" r="4" class="hover-dot"><title>Mar 2023: 237 total (+12 this month)</title></circle>
    <rect x="296.0" y="123.7" width="140" height="20" rx="4" class="tooltip-bg"/>
    <text x="366.0" y="137.7" class="tooltip-text" text-anchor="middle">Mar 2023: 237 total (+12 this month)</text>
  </g>
  <g class="hoverpoint">
    <line x1="375.2" y1="30" x2="375.2" y2="160.0" class="guide"/>
    <circle cx="375.2" cy="149.6" r="16" class="hit"/>
    <circle cx="375.2" cy="149.6" r="4" class="hover-dot"><title>Apr 2023: 240 total (+3 this month)</title></circle>
    <rect x="305.2" y="123.6" width="140" height="20" rx="4" class="tooltip-bg"/>
    <text x="375.2" y="137.6" class="tooltip-text" text-anchor="middle">Apr 2023: 240 total (+3 this month)</text>
  </g>
  <g class="hoverpoint">
    <line x1="571.5" y1="30" x2="571.5" y2="160.0" class="guide"/>
    <circle cx="571.5" cy="149.1" r="16" class="hit"/>
    <circle cx="571.5" cy="149.1" r="4" class="hover-dot"><title>Aug 2024: 252 total (+12 this month)</title></circle>
    <rect x="501.5" y="123.1" width="140" height="20" rx="4" class="tooltip-bg"/>
    <text x="571.5" y="137.1" class="tooltip-text" text-anchor="middle">Aug 2024: 252 total (+12 this month)</text>
  </g>
  <g class="hoverpoint">
    <line x1="582.3" y1="30" x2="582.3" y2="160.0" class="guide"/>
    <circle cx="582.3" cy="149.0" r="16" class="hit"/>
    <circle cx="582.3" cy="149.0" r="4" class="hover-dot"><title>Sep 2024: 253 total (+1 this month)</title></circle>
    <rect x="512.3" y="123.0" width="140" height="20" rx="4" class="tooltip-bg"/>
    <text x="582.3" y="137.0" class="tooltip-text" text-anchor="middle">Sep 2024: 253 total (+1 this month)</text>
  </g>
  <g class="hoverpoint">
    <line x1="594.9" y1="30" x2="594.9" y2="160.0" class="guide"/>
    <circle cx="594.9" cy="148.7" r="16" class="hit"/>
    <circle cx="594.9" cy="148.7" r="4" class="hover-dot"><title>Oct 2024: 261 total (+8 this month)</title></circle>
    <rect x="524.9" y="122.7" width="140" height="20" rx="4" class="tooltip-bg"/>
    <text x="594.9" y="136.7" class="tooltip-text" text-anchor="middle">Oct 2024: 261 total (+8 this month)</text>
  </g>
  <g class="hoverpoint">
    <line x1="627.9" y1="30" x2="627.9" y2="160.0" class="guide"/>
    <circle cx="627.9" cy="148.3" r="16" class="hit"/>
    <circle cx="627.9" cy="148.3" r="4" class="hover-dot"><title>Jan 2025: 270 total (+9 this month)</title></circle>
    <rect x="557.9" y="122.3" width="140" height="20" rx="4" class="tooltip-bg"/>
    <text x="627.9" y="136.3" class="tooltip-text" text-anchor="middle">Jan 2025: 270 total (+9 this month)</text>
  </g>
  <g class="hoverpoint">
    <line x1="633.3" y1="30" x2="633.3" y2="160.0" class="guide"/>
    <circle cx="633.3" cy="148.2" r="16" class="hit"/>
    <circle cx="633.3" cy="148.2" r="4" class="hover-dot"><title>Feb 2025: 272 total (+2 this month)</title></circle>
    <rect x="563.3" y="122.2" width="140" height="20" rx="4" class="tooltip-bg"/>
    <text x="633.3" y="136.2" class="tooltip-text" text-anchor="middle">Feb 2025: 272 total (+2 this month)</text>
  </g>
  <g class="hoverpoint">
    <line x1="652.8" y1="30" x2="652.8" y2="160.0" class="guide"/>
    <circle cx="652.8" cy="147.3" r="16" class="hit"/>
    <circle cx="652.8" cy="147.3" r="4" class="hover-dot"><title>Mar 2025: 294 total (+22 this month)</title></circle>
    <rect x="582.8" y="121.3" width="140" height="20" rx="4" class="tooltip-bg"/>
    <text x="652.8" y="135.3" class="tooltip-text" text-anchor="middle">Mar 2025: 294 total (+22 this month)</text>
  </g>
  <g class="hoverpoint">
    <line x1="665.9" y1="30" x2="665.9" y2="160.0" class="guide"/>
    <circle cx="665.9" cy="144.8" r="16" class="hit"/>
    <circle cx="665.9" cy="144.8" r="4" class="hover-dot"><title>Apr 2025: 351 total (+57 this month)</title></circle>
    <rect x="595.9" y="118.8" width="140" height="20" rx="4" class="tooltip-bg"/>
    <text x="665.9" y="132.8" class="tooltip-text" text-anchor="middle">Apr 2025: 351 total (+57 this month)</text>
  </g>
  <g class="hoverpoint">
    <line x1="673.1" y1="30" x2="673.1" y2="160.0" class="guide"/>
    <circle cx="673.1" cy="142.3" r="16" class="hit"/>
    <circle cx="673.1" cy="142.3" r="4" class="hover-dot"><title>May 2025: 408 total (+57 this month)</title></circle>
    <rect x="603.1" y="116.3" width="140" height="20" rx="4" class="tooltip-bg"/>
    <text x="673.1" y="130.3" class="tooltip-text" text-anchor="middle">May 2025: 408 total (+57 this month)</text>
  </g>
  <g class="hoverpoint">
    <line x1="687.7" y1="30" x2="687.7" y2="160.0" class="guide"/>
    <circle cx="687.7" cy="141.6" r="16" class="hit"/>
    <circle cx="687.7" cy="141.6" r="4" class="hover-dot"><title>Jun 2025: 424 total (+16 this month)</title></circle>
    <rect x="617.7" y="115.6" width="140" height="20" rx="4" class="tooltip-bg"/>
    <text x="687.7" y="129.6" class="tooltip-text" text-anchor="middle">Jun 2025: 424 total (+16 this month)</text>
  </g>
  <g class="hoverpoint">
    <line x1="701.1" y1="30" x2="701.1" y2="160.0" class="guide"/>
    <circle cx="701.1" cy="141.3" r="16" class="hit"/>
    <circle cx="701.1" cy="141.3" r="4" class="hover-dot"><title>Jul 2025: 432 total (+8 this month)</title></circle>
    <rect x="631.1" y="115.3" width="140" height="20" rx="4" class="tooltip-bg"/>
    <text x="701.1" y="129.3" class="tooltip-text" text-anchor="middle">Jul 2025: 432 total (+8 this month)</text>
  </g>
  <g class="hoverpoint">
    <line x1="711.9" y1="30" x2="711.9" y2="160.0" class="guide"/>
    <circle cx="711.9" cy="139.4" r="16" class="hit"/>
    <circle cx="711.9" cy="139.4" r="4" class="hover-dot"><title>Aug 2025: 475 total (+43 this month)</title></circle>
    <rect x="641.9" y="113.4" width="140" height="20" rx="4" class="tooltip-bg"/>
    <text x="711.9" y="127.4" class="tooltip-text" text-anchor="middle">Aug 2025: 475 total (+43 this month)</text>
  </g>
  <g class="hoverpoint">
    <line x1="724.5" y1="30" x2="724.5" y2="160.0" class="guide"/>
    <circle cx="724.5" cy="137.2" r="16" class="hit"/>
    <circle cx="724.5" cy="137.2" r="4" class="hover-dot"><title>Sep 2025: 526 total (+51 this month)</title></circle>
    <rect x="654.5" y="111.2" width="140" height="20" rx="4" class="tooltip-bg"/>
    <text x="724.5" y="125.2" class="tooltip-text" text-anchor="middle">Sep 2025: 526 total (+51 this month)</text>
  </g>
  <g class="hoverpoint">
    <line x1="736.4" y1="30" x2="736.4" y2="160.0" class="guide"/>
    <circle cx="736.4" cy="130.0" r="16" class="hit"/>
    <circle cx="736.4" cy="130.0" r="4" class="hover-dot"><title>Oct 2025: 692 total (+166 this month)</title></circle>
    <rect x="666.4" y="104.0" width="140" height="20" rx="4" class="tooltip-bg"/>
    <text x="736.4" y="118.0" class="tooltip-text" text-anchor="middle">Oct 2025: 692 total (+166 this month)</text>
  </g>
  <g class="hoverpoint">
    <line x1="747.9" y1="30" x2="747.9" y2="160.0" class="guide"/>
    <circle cx="747.9" cy="128.3" r="16" class="hit"/>
    <circle cx="747.9" cy="128.3" r="4" class="hover-dot"><title>Nov 2025: 731 total (+39 this month)</title></circle>
    <rect x="677.9" y="102.3" width="140" height="20" rx="4" class="tooltip-bg"/>
    <text x="747.9" y="116.3" class="tooltip-text" text-anchor="middle">Nov 2025: 731 total (+39 this month)</text>
  </g>
  <g class="hoverpoint">
    <line x1="759.8" y1="30" x2="759.8" y2="160.0" class="guide"/>
    <circle cx="759.8" cy="126.1" r="16" class="hit"/>
    <circle cx="759.8" cy="126.1" r="4" class="hover-dot"><title>Dec 2025: 783 total (+52 this month)</title></circle>
    <rect x="689.8" y="100.1" width="140" height="20" rx="4" class="tooltip-bg"/>
    <text x="759.8" y="114.1" class="tooltip-text" text-anchor="middle">Dec 2025: 783 total (+52 this month)</text>
  </g>
  <g class="hoverpoint">
    <line x1="771.7" y1="30" x2="771.7" y2="160.0" class="guide"/>
    <circle cx="771.7" cy="115.7" r="16" class="hit"/>
    <circle cx="771.7" cy="115.7" r="4" class="hover-dot"><title>Jan 2026: 1,022 total (+239 this month)</title></circle>
    <rect x="701.7" y="89.7" width="140" height="20" rx="4" class="tooltip-bg"/>
    <text x="771.7" y="103.7" class="tooltip-text" text-anchor="middle">Jan 2026: 1,022 total (+239 this month)</text>
  </g>
  <g class="hoverpoint">
    <line x1="782.4" y1="30" x2="782.4" y2="160.0" class="guide"/>
    <circle cx="782.4" cy="102.8" r="16" class="hit"/>
    <circle cx="782.4" cy="102.8" r="4" class="hover-dot"><title>Feb 2026: 1,321 total (+299 this month)</title></circle>
    <rect x="712.4" y="76.8" width="140" height="20" rx="4" class="tooltip-bg"/>
    <text x="782.4" y="90.8" class="tooltip-text" text-anchor="middle">Feb 2026: 1,321 total (+299 this month)</text>
  </g>
  <g class="hoverpoint">
    <line x1="794.3" y1="30" x2="794.3" y2="160.0" class="guide"/>
    <circle cx="794.3" cy="89.9" r="16" class="hit"/>
    <circle cx="794.3" cy="89.9" r="4" class="hover-dot"><title>Mar 2026: 1,617 total (+296 this month)</title></circle>
    <rect x="724.3" y="63.9" width="140" height="20" rx="4" class="tooltip-bg"/>
    <text x="794.3" y="77.9" class="tooltip-text" text-anchor="middle">Mar 2026: 1,617 total (+296 this month)</text>
  </g>
  <g class="hoverpoint">
    <line x1="805.4" y1="30" x2="805.4" y2="160.0" class="guide"/>
    <circle cx="805.4" cy="84.2" r="16" class="hit"/>
    <circle cx="805.4" cy="84.2" r="4" class="hover-dot"><title>Apr 2026: 1,749 total (+132 this month)</title></circle>
    <rect x="735.4" y="58.2" width="140" height="20" rx="4" class="tooltip-bg"/>
    <text x="805.4" y="72.2" class="tooltip-text" text-anchor="middle">Apr 2026: 1,749 total (+132 this month)</text>
  </g>
  <g class="hoverpoint">
    <line x1="817.7" y1="30" x2="817.7" y2="160.0" class="guide"/>
    <circle cx="817.7" cy="38.9" r="16" class="hit"/>
    <circle cx="817.7" cy="38.9" r="4" class="hover-dot"><title>May 2026: 2,795 total (+1,046 this month)</title></circle>
    <rect x="747.7" y="12.9" width="140" height="20" rx="4" class="tooltip-bg"/>
    <text x="817.7" y="26.9" class="tooltip-text" text-anchor="middle">May 2026: 2,795 total (+1,046 this month)</text>
  </g>
  <g class="hoverpoint">
    <line x1="820.0" y1="30" x2="820.0" y2="160.0" class="guide"/>
    <circle cx="820.0" cy="35.6" r="16" class="hit"/>
    <circle cx="820.0" cy="35.6" r="4" class="hover-dot"><title>Jun 2026: 2,870 total (+75 this month)</title></circle>
    <rect x="750.0" y="9.6" width="140" height="20" rx="4" class="tooltip-bg"/>
    <text x="820.0" y="23.6" class="tooltip-text" text-anchor="middle">Jun 2026: 2,870 total (+75 this month)</text>
  </g>

  <circle cx="820.0" cy="35.6" r="4" class="dot"/>
  <text x="810.0" y="25.6" class="total">2,870</text>

</svg>